ply
format ascii 1.0
comment Created by Open3D
element vertex 1024
property double x
property double y
property double z
property uchar red
property uchar green
property uchar blue
end_header
-0.260231 0.158964 0.101747 26 102 204
-0.248907 0.163618 0.0598266 26 102 204
-0.251615 0.16148 -0.15308 26 102 204
-0.253231 0.153789 0.0546922 26 102 204
-0.24958 0.157679 -0.193501 26 102 204
-0.261459 0.178123 0.340724 26 102 204
-0.240307 0.161226 0.0124662 26 102 204
-0.250182 0.156137 0.273229 26 102 204
-0.253544 0.155605 0.419088 26 102 204
-0.263695 0.155423 0.368054 26 102 204
-0.259043 0.158961 -0.385799 26 102 204
-0.249108 0.147208 -0.0295722 26 102 204
-0.24978 0.15801 0.26413 26 102 204
-0.261899 0.176735 0.0771225 26 102 204
-0.255063 0.157405 0.0423212 26 102 204
-0.257094 0.151989 0.343396 26 102 204
-0.25325 0.156502 0.111072 26 102 204
-0.250782 0.157662 0.336138 26 102 204
-0.246374 0.159427 -0.322384 26 102 204
-0.256016 0.153373 -0.269733 26 102 204
-0.254296 0.15047 -0.335278 26 102 204
-0.262066 0.15188 -0.313777 26 102 204
-0.247751 0.153385 -0.115639 26 102 204
-0.249011 0.155396 0.405331 26 102 204
-0.250717 0.150586 0.00945919 26 102 204
-0.241239 0.150787 0.34527 26 102 204
-0.246451 0.159946 -0.160257 26 102 204
-0.252654 0.16154 -0.112669 26 102 204
-0.251216 0.152827 0.155093 26 102 204
-0.247154 0.155065 -0.100995 26 102 204
-0.242122 0.164621 0.401156 26 102 204
-0.248806 0.153365 0.296843 26 102 204
-0.249849 0.152625 0.153075 26 102 204
-0.252257 0.152809 0.232681 26 102 204
-0.251343 0.14978 0.245363 26 102 204
-0.245768 0.148768 0.302504 26 102 204
-0.24899 0.153834 -0.110784 26 102 204
-0.25228 0.15 -0.364693 26 102 204
-0.250415 0.146354 -0.105273 26 102 204
-0.251888 0.151377 -0.227102 26 102 204
-0.248574 0.151571 -0.375262 26 102 204
-0.237756 0.158104 0.289185 26 102 204
-0.246458 0.157261 -0.24132 26 102 204
-0.255422 0.15742 -0.147458 26 102 204
-0.248517 0.151181 -0.148212 26 102 204
-0.251772 0.153757 -0.300496 26 102 204
-0.25067 0.178367 -0.356965 26 102 204
-0.252176 0.145117 -0.159723 26 102 204
-0.240465 0.167438 -0.105317 26 102 204
-0.252879 0.149742 -0.0612797 26 102 204
-0.250982 0.145081 0.322601 26 102 204
-0.250524 0.144531 0.280064 26 102 204
-0.253484 0.141621 0.163225 26 102 204
-0.253357 0.143069 0.151898 26 102 204
-0.250404 0.150732 -0.204704 26 102 204
-0.245762 0.153372 -0.247771 26 102 204
-0.219041 0.191875 -0.364977 26 102 204
-0.243582 0.151133 -0.29302 26 102 204
-0.240871 0.165025 -0.151077 26 102 204
-0.235373 0.180938 0.112165 26 102 204
-0.255425 0.140221 0.399483 26 102 204
-0.253619 0.14492 0.192956 26 102 204
-0.261057 0.140473 -0.289203 26 102 204
-0.251474 0.136098 -0.195677 26 102 204
-0.254192 0.138533 -0.216872 26 102 204
-0.237264 0.162043 0.0890362 26 102 204
-0.20955 0.186427 0.0388515 26 102 204
-0.220973 0.180673 0.0256667 26 102 204
-0.250072 0.139934 0.123787 26 102 204
-0.245077 0.143711 -0.325513 26 102 204
-0.247416 0.141996 -0.210126 26 102 204
-0.253074 0.153793 0.0512967 26 102 204
-0.245055 0.139309 0.107349 26 102 204
-0.248324 0.13489 0.190861 26 102 204
-0.232852 0.163426 0.303234 26 102 204
-0.214397 0.1808 0.470017 26 102 204
-0.213061 0.184735 0.087576 26 102 204
-0.212775 0.186636 -0.0541348 26 102 204
-0.205053 0.196611 -0.296116 26 102 204
-0.25389 0.139029 0.430273 26 102 204
-0.256956 0.137211 -0.293834 26 102 204
-0.215793 0.185049 -0.0337465 26 102 204
-0.218783 0.192104 0.0218457 26 102 204
-0.233727 0.171434 -0.0129613 26 102 204
-0.254541 0.132875 0.301787 26 102 204
-0.236195 0.139545 -0.20738 26 102 204
-0.243367 0.144426 0.319551 26 102 204
-0.244144 0.143992 0.0298934 26 102 204
-0.240063 0.146876 -0.293182 26 102 204
-0.236384 0.161697 0.30196 26 102 204
-0.216234 0.17249 0.19914 26 102 204
-0.238973 0.144321 -0.10354 26 102 204
-0.211043 0.179342 0.0932041 26 102 204
-0.198255 0.156519 0.158582 26 102 204
-0.232334 0.168826 0.107768 26 102 204
-0.223903 0.17029 0.12158 26 102 204
-0.227311 0.162341 0.0199191 26 102 204
-0.233144 0.16495 0.31784 26 102 204
-0.231508 0.165475 -0.102562 26 102 204
-0.233884 0.164627 -0.0459026 26 102 204
-0.234385 0.158756 -0.299446 26 102 204
-0.230664 0.154243 -0.260723 26 102 204
-0.2324 0.158959 -0.078238 26 102 204
-0.219922 0.167057 0.175238 26 102 204
-0.22462 0.16618 0.20942 26 102 204
-0.207007 0.160628 0.0521294 26 102 204
-0.229769 0.166023 -0.128124 26 102 204
-0.22965 0.170704 0.451419 26 102 204
-0.223381 0.168173 0.420391 26 102 204
-0.228308 0.1685 0.140886 26 102 204
-0.220416 0.166068 0.132556 26 102 204
-0.225536 0.165593 0.322388 26 102 204
-0.215716 0.163944 0.0913715 26 102 204
-0.230711 0.168125 0.0319509 26 102 204
-0.236318 0.164465 0.0533542 26 102 204
-0.236282 0.176026 0.126661 26 102 204
-0.226661 0.168334 -0.0387304 26 102 204
-0.226765 0.172653 0.128518 26 102 204
-0.2322 0.159024 -0.313959 26 102 204
-0.215252 0.166801 0.262003 26 102 204
-0.191535 0.192544 0.414434 26 102 204
-0.200976 0.165523 0.268991 26 102 204
-0.226319 0.175798 0.00243839 26 102 204
-0.222721 0.184168 -0.125556 26 102 204
-0.204997 0.191748 0.302555 26 102 204
-0.20662 0.191387 0.428924 26 102 204
-0.193353 0.19109 -0.304807 26 102 204
-0.202396 0.193323 0.0422485 26 102 204
-0.200195 0.194676 -0.116732 26 102 204
-0.242884 0.143333 0.374367 26 102 204
-0.205976 0.202729 0.0180019 26 102 204
-0.237663 0.150213 0.0884551 26 102 204
-0.238532 0.150541 0.0769673 26 102 204
-0.206976 0.198311 -0.0815506 26 102 204
-0.244047 0.124975 -0.227731 26 102 204
-0.241858 0.146473 -0.114343 26 102 204
-0.191591 0.194418 -0.0887572 26 102 204
-0.225439 0.142196 -0.00840451 26 102 204
-0.192261 0.198186 -0.270987 26 102 204
-0.213625 0.182217 0.0369767 26 102 204
-0.197276 0.191163 0.0885352 26 102 204
-0.242695 0.149931 0.131522 26 102 204
-0.193936 0.199661 -0.321622 26 102 204
-0.248481 0.12687 0.394617 26 102 204
-0.194342 0.201289 -0.180996 26 102 204
-0.199403 0.192545 0.328867 26 102 204
-0.243722 0.137367 -0.00692896 26 102 204
-0.240589 0.128516 0.113117 26 102 204
-0.241452 0.144202 0.108021 26 102 204
-0.198202 0.201379 0.147367 26 102 204
-0.247286 0.12121 -0.260186 26 102 204
-0.25386 0.132282 -0.310969 26 102 204
-0.20993 0.222617 0.422526 26 102 204
-0.240056 0.130357 -0.0343564 26 102 204
-0.23557 0.128497 0.164894 26 102 204
-0.188601 0.190214 0.291374 26 102 204
-0.258941 0.130717 0.413294 26 102 204
-0.194787 0.196707 -0.120186 26 102 204
-0.246597 0.133024 0.203034 26 102 204
-0.244794 0.161278 0.267785 26 102 204
-0.242825 0.125513 0.369043 26 102 204
-0.192221 0.203525 0.0976178 26 102 204
-0.240046 0.140287 0.20033 26 102 204
-0.250812 0.154944 0.337961 26 102 204
-0.190523 0.188421 0.426455 26 102 204
-0.243138 0.128651 -0.303728 26 102 204
-0.187132 0.201037 -0.264794 26 102 204
-0.237769 0.120535 0.347892 26 102 204
-0.155026 0.207112 0.508149 26 102 204
-0.242547 0.130469 0.087525 26 102 204
-0.241068 0.122054 -0.206471 26 102 204
-0.207932 0.182559 0.29761 26 102 204
-0.229387 0.143342 0.0133537 26 102 204
-0.237098 0.132767 0.132626 26 102 204
-0.242075 0.125559 -0.172291 26 102 204
-0.234491 0.139813 0.465704 26 102 204
-0.221561 0.140287 -0.259294 26 102 204
-0.184933 0.199227 -0.00233697 26 102 204
-0.16864 0.207115 0.482794 26 102 204
-0.232919 0.136655 0.437864 26 102 204
-0.232018 0.132446 0.220294 26 102 204
-0.247455 0.133624 0.155337 26 102 204
-0.241957 0.136111 0.191948 26 102 204
-0.242744 0.119969 -0.258912 26 102 204
-0.231982 0.141975 -0.0616942 26 102 204
-0.250145 0.131644 0.333162 26 102 204
-0.240035 0.126181 0.196449 26 102 204
-0.157339 0.198811 0.197807 26 102 204
-0.180572 0.203984 0.268937 26 102 204
-0.179968 0.195622 0.0736633 26 102 204
-0.232003 0.124826 -0.10561 26 102 204
-0.231849 0.153553 0.305119 26 102 204
-0.203992 0.160318 0.507524 26 102 204
-0.163471 0.212513 0.485244 26 102 204
-0.21056 0.156662 0.0944417 26 102 204
-0.188566 0.209757 0.453911 26 102 204
-0.173806 0.199249 -0.227414 26 102 204
-0.231333 0.140081 0.480784 26 102 204
-0.161993 0.205821 -0.272668 26 102 204
-0.232847 0.122426 0.437239 26 102 204
-0.241888 0.147759 0.323572 26 102 204
-0.175192 0.195012 -0.109119 26 102 204
-0.223788 0.128902 0.225023 26 102 204
-0.22628 0.19452 0.245265 26 102 204
-0.18164 0.208517 0.23901 26 102 204
-0.228633 0.137526 0.128738 26 102 204
-0.174918 0.209698 0.442729 26 102 204
-0.199374 0.166594 -0.10516 26 102 204
-0.231153 0.132114 0.186245 26 102 204
-0.159334 0.195016 -0.0150347 26 102 204
-0.168885 0.205635 -0.347819 26 102 204
-0.228928 0.135529 -0.319526 26 102 204
-0.232942 0.120476 0.300185 26 102 204
-0.17349 0.199385 0.284012 26 102 204
-0.170455 0.199879 -0.164413 26 102 204
-0.233285 0.129531 0.0615777 26 102 204
-0.242492 0.116642 0.46015 26 102 204
-0.205751 0.146132 0.160113 26 102 204
-0.15402 0.205988 0.177004 26 102 204
-0.234387 0.120394 0.354277 26 102 204
-0.212109 0.138979 0.0771424 26 102 204
-0.147531 0.222005 0.434076 26 102 204
-0.148463 0.183355 0.255343 26 102 204
-0.211429 0.157655 0.0612515 26 102 204
-0.218017 0.148368 0.255332 26 102 204
-0.159564 0.186 0.197828 26 102 204
-0.216377 0.134204 0.283955 26 102 204
-0.235006 0.111516 0.390694 26 102 204
-0.231761 0.123003 -0.277864 26 102 204
-0.140207 0.199148 0.146486 26 102 204
-0.169552 0.209743 0.143941 26 102 204
-0.167211 0.209685 0.312716 26 102 204
-0.175236 0.207968 -0.0444536 26 102 204
-0.166697 0.204496 0.212443 26 102 204
-0.191113 0.193237 0.024129 26 102 204
-0.176281 0.207685 0.0288947 26 102 204
-0.208209 0.142195 0.503857 26 102 204
-0.168601 0.198104 0.0553225 26 102 204
-0.180292 0.211775 -0.250998 26 102 204
-0.247555 0.137088 0.150227 26 102 204
-0.20415 0.148916 0.201265 26 102 204
-0.168164 0.211399 0.470309 26 102 204
-0.213967 0.135209 0.165453 26 102 204
-0.16206 0.207475 -0.0805732 26 102 204
-0.166054 0.202043 0.0606001 26 102 204
-0.162266 0.203215 -0.0264362 26 102 204
-0.229954 0.122884 0.492576 26 102 204
-0.153984 0.228862 0.493179 26 102 204
-0.229787 0.123353 0.267052 26 102 204
-0.162238 0.216011 -0.302135 26 102 204
-0.193734 0.16038 0.0721955 26 102 204
-0.225793 0.137974 0.151265 26 102 204
-0.171335 0.177039 -0.109437 26 102 204
-0.206556 0.154536 0.246467 26 102 204
-0.161197 0.206132 -0.128534 26 102 204
-0.222469 0.125121 -0.280075 26 102 204
-0.157676 0.204988 0.400367 26 102 204
-0.162798 0.212297 -0.318092 26 102 204
-0.173581 0.21275 -0.202783 26 102 204
-0.16932 0.20904 0.101583 26 102 204
-0.128231 0.239376 0.441928 26 102 204
-0.216374 0.154584 0.0408146 26 102 204
-0.184476 0.171335 -0.207364 26 102 204
-0.223333 0.112053 0.330463 26 102 204
-0.172406 0.213177 0.308362 26 102 204
-0.218287 0.126819 0.272634 26 102 204
-0.157054 0.215032 0.333942 26 102 204
-0.160008 0.20061 -0.0864573 26 102 204
-0.218524 0.137837 0.490747 26 102 204
-0.180848 0.194988 -0.0780156 26 102 204
-0.159436 0.19643 0.443496 26 102 204
-0.165454 0.194779 0.0882555 26 102 204
-0.153733 0.211373 0.366121 26 102 204
-0.151968 0.211361 0.40048 26 102 204
-0.23365 0.11444 0.187441 26 102 204
-0.159336 0.208079 -0.116184 26 102 204
-0.250712 0.115125 -0.0666602 26 102 204
-0.158421 0.211276 -0.34442 26 102 204
-0.230957 0.124609 0.103844 26 102 204
-0.163889 0.203659 0.234147 26 102 204
-0.181703 0.173662 0.0507204 26 102 204
-0.218774 0.125751 0.348444 26 102 204
-0.223329 0.134287 0.395798 26 102 204
-0.141138 0.212981 0.499743 26 102 204
-0.225461 0.13087 -0.331038 26 102 204
-0.154884 0.201375 -0.383872 26 102 204
-0.19805 0.158698 0.000593602 26 102 204
-0.227273 0.119469 -0.308603 26 102 204
-0.207545 0.154997 0.219692 26 102 204
-0.224824 0.112952 -0.302704 26 102 204
-0.192724 0.20717 -0.122591 26 102 204
-0.171616 0.190874 0.110835 26 102 204
-0.201335 0.166238 0.134971 26 102 204
-0.204009 0.13254 0.0637234 26 102 204
-0.19993 0.145313 -0.249686 26 102 204
-0.219559 0.117829 0.356016 26 102 204
-0.156134 0.20054 0.29674 26 102 204
-0.222073 0.12141 0.514844 26 102 204
-0.227202 0.11254 0.148576 26 102 204
-0.145212 0.214327 0.474711 26 102 204
-0.204963 0.148857 0.00939863 26 102 204
-0.199614 0.154019 0.455006 26 102 204
-0.178976 0.177993 0.411128 26 102 204
-0.167294 0.197294 0.137908 26 102 204
-0.160553 0.211963 -0.206951 26 102 204
-0.227753 0.124097 0.205715 26 102 204
-0.206027 0.143652 0.139825 26 102 204
-0.220028 0.125496 0.383122 26 102 204
-0.165346 0.207793 -0.175379 26 102 204
-0.150571 0.201608 0.347155 26 102 204
-0.209799 0.137694 -0.0111603 26 102 204
-0.220397 0.121232 0.352278 26 102 204
-0.160474 0.210265 -0.224644 26 102 204
-0.230301 0.119584 0.238482 26 102 204
-0.143715 0.219746 0.500433 26 102 204
-0.155146 0.205484 0.430146 26 102 204
-0.160152 0.198049 0.150178 26 102 204
-0.226773 0.108255 0.266953 26 102 204
-0.156077 0.212694 0.438157 26 102 204
-0.193702 0.153601 0.0815022 26 102 204
-0.226308 0.11981 -0.369162 26 102 204
-0.221695 0.115253 0.348678 26 102 204
-0.150292 0.207586 0.455433 26 102 204
-0.212232 0.125615 0.40408 26 102 204
-0.190362 0.153548 0.0949275 26 102 204
-0.225602 0.106366 0.335498 26 102 204
-0.187733 0.156745 0.341135 26 102 204
-0.153873 0.200731 -0.0612756 26 102 204
-0.161494 0.198161 0.291185 26 102 204
-0.152937 0.201523 -0.0209232 26 102 204
-0.130283 0.191642 0.0950386 26 102 204
-0.216611 0.115333 -0.327841 26 102 204
-0.153454 0.201535 0.11925 26 102 204
-0.166402 0.188158 -0.156523 26 102 204
-0.193539 0.134152 0.343642 26 102 204
-0.200463 0.139677 0.312874 26 102 204
-0.152175 0.190889 0.0369732 26 102 204
-0.154058 0.190731 0.139139 26 102 204
-0.156457 0.195286 -0.265354 26 102 204
-0.157358 0.203939 0.456172 26 102 204
-0.218993 0.135461 -0.230798 26 102 204
-0.232435 0.103626 0.484235 26 102 204
-0.20658 0.139145 0.114008 26 102 204
-0.144938 0.204168 0.47659 26 102 204
-0.147787 0.204742 -0.28965 26 102 204
-0.164696 0.194726 0.242161 26 102 204
-0.209629 0.140793 0.120414 26 102 204
-0.215461 0.122819 0.241968 26 102 204
-0.169807 0.163775 0.178825 26 102 204
-0.1492 0.193214 0.0991722 26 102 204
-0.144579 0.200141 0.377886 26 102 204
-0.140901 0.203387 0.311012 26 102 204
-0.220287 0.107694 0.326327 26 102 204
-0.213279 0.115522 -0.159147 26 102 204
-0.220041 0.11349 0.115542 26 102 204
-0.150614 0.196039 -0.0907093 26 102 204
-0.15364 0.191712 0.0862706 26 102 204
-0.208341 0.121146 -5.45749e-05 26 102 204
-0.152534 0.196415 -0.278046 26 102 204
-0.225722 0.100929 0.373233 26 102 204
-0.208518 0.122564 -0.0698182 26 102 204
-0.148463 0.194985 -0.352338 26 102 204
-0.168346 0.17186 -0.0141304 26 102 204
-0.221265 0.109438 -0.149496 26 102 204
-0.217155 0.112481 0.37441 26 102 204
-0.220251 0.108513 -0.256698 26 102 204
-0.15006 0.190813 0.26291 26 102 204
-0.152361 0.198589 0.248362 26 102 204
-0.22239 0.0999502 -0.327036 26 102 204
-0.21564 0.113896 -0.199963 26 102 204
-0.224036 0.106387 0.0574708 26 102 204
-0.193046 0.140471 0.15111 26 102 204
-0.147781 0.191867 0.323398 26 102 204
-0.185989 0.149674 0.0174289 26 102 204
-0.160939 0.171903 -0.324403 26 102 204
-0.148066 0.184068 0.178818 26 102 204
-0.19591 0.137593 -0.0235938 26 102 204
-0.158318 0.190815 0.18137 26 102 204
-0.20371 0.119449 -0.0487957 26 102 204
-0.21209 0.11371 0.338938 26 102 204
-0.142256 0.198123 0.048088 26 102 204
-0.213007 0.11139 -0.030151 26 102 204
-0.220585 0.10733 -0.305525 26 102 204
-0.216385 0.106571 0.263135 26 102 204
-0.231435 0.104399 0.111925 26 102 204
-0.16825 0.180318 -0.112953 26 102 204
-0.17247 0.169682 0.10774 26 102 204
-0.209908 0.113022 0.26762 26 102 204
-0.147521 0.190267 -0.186502 26 102 204
-0.21353 0.116611 0.175954 26 102 204
-0.214434 0.11111 0.132173 26 102 204
-0.142028 0.193535 0.374866 26 102 204
-0.154584 0.18178 0.0194703 26 102 204
-0.143791 0.199301 -0.349237 26 102 204
-0.230876 0.10266 -0.334143 26 102 204
-0.136826 0.198714 0.28824 26 102 204
-0.217667 0.110298 0.158067 26 102 204
-0.169179 0.16685 0.119534 26 102 204
-0.204332 0.114065 0.415205 26 102 204
-0.13899 0.20685 0.504136 26 102 204
-0.154249 0.186677 -0.116081 26 102 204
-0.15279 0.190096 0.114358 26 102 204
-0.210038 0.110743 0.0390547 26 102 204
-0.199804 0.12087 0.113928 26 102 204
-0.150646 0.19449 -0.03059 26 102 204
-0.153177 0.183458 0.123029 26 102 204
-0.213701 0.111266 0.147343 26 102 204
-0.221931 0.108775 0.217962 26 102 204
-0.11849 0.213696 0.516938 26 102 204
-0.141387 0.193827 0.265946 26 102 204
-0.146043 0.19052 -0.256427 26 102 204
-0.21513 0.100572 0.0631223 26 102 204
-0.162969 0.18899 -0.0192729 26 102 204
-0.145669 0.186563 0.256969 26 102 204
-0.160673 0.184754 -0.11359 26 102 204
-0.198461 0.132081 0.0893605 26 102 204
-0.197494 0.13402 -0.0357759 26 102 204
-0.15813 0.176951 0.0704043 26 102 204
-0.144682 0.192838 0.442055 26 102 204
-0.166399 0.162797 -0.0548273 26 102 204
-0.169627 0.16747 0.0709375 26 102 204
-0.2121 0.107703 0.309475 26 102 204
-0.156021 0.181069 0.474326 26 102 204
-0.135734 0.204077 0.490652 26 102 204
-0.208637 0.112882 0.178304 26 102 204
-0.156998 0.148128 0.317253 26 102 204
-0.209165 0.109553 0.176665 26 102 204
-0.122558 0.220146 0.506452 26 102 204
-0.212678 0.105009 -0.147138 26 102 204
-0.217961 0.0991418 -0.253498 26 102 204
-0.202969 0.11977 0.0831307 26 102 204
-0.209449 0.107029 -0.0163333 26 102 204
-0.210368 0.112861 0.331615 26 102 204
-0.150264 0.190372 0.117429 26 102 204
-0.200508 0.118812 0.336628 26 102 204
-0.204967 0.11546 0.389168 26 102 204
-0.259096 0.119605 0.432601 26 102 204
-0.21087 0.116205 0.0999555 26 102 204
-0.227662 0.122306 -0.258181 26 102 204
-0.150754 0.176435 0.235914 26 102 204
-0.206553 0.115688 0.474507 26 102 204
-0.206388 0.106943 0.263647 26 102 204
-0.208505 0.105717 0.244645 26 102 204
-0.210581 0.106024 -0.3153 26 102 204
-0.207604 0.109541 -0.268025 26 102 204
-0.205101 0.108992 0.253435 26 102 204
-0.169431 0.184019 0.322087 26 102 204
-0.205529 0.104583 -0.0282295 26 102 204
-0.205203 0.108481 -0.229162 26 102 204
-0.205954 0.101074 -0.0435827 26 102 204
-0.201323 0.11089 -0.0230945 26 102 204
-0.213702 0.107014 -0.232047 26 102 204
-0.201162 0.113559 0.344589 26 102 204
-0.208873 0.116172 0.361433 26 102 204
-0.207359 0.103042 -0.197424 26 102 204
-0.208183 0.108518 -0.191854 26 102 204
-0.204435 0.107564 -0.263549 26 102 204
-0.207596 0.102843 -0.222946 26 102 204
-0.212746 0.106385 0.377026 26 102 204
-0.132218 0.19469 -0.375933 26 102 204
-0.19463 0.120961 -0.13847 26 102 204
-0.136651 0.187042 -0.265 26 102 204
-0.215508 0.114152 0.0887652 26 102 204
-0.208043 0.0984791 0.518215 26 102 204
-0.14663 0.202865 -0.270074 26 102 204
-0.2137 0.107945 -0.0651153 26 102 204
-0.148317 0.19187 0.461669 26 102 204
-0.124192 0.201803 0.372928 26 102 204
-0.202042 0.104208 0.0663172 26 102 204
-0.208157 0.113476 0.511481 26 102 204
-0.215402 0.0947214 0.351317 26 102 204
-0.124799 0.198428 0.439857 26 102 204
-0.203733 0.0981261 0.403213 26 102 204
-0.0915122 0.242533 0.474733 26 102 204
-0.178059 0.143273 0.421673 26 102 204
-0.139674 0.192403 -0.308111 26 102 204
-0.214472 0.0885234 -0.205903 26 102 204
-0.104349 0.229299 0.448292 26 102 204
-0.207888 0.0971005 0.28224 26 102 204
-0.0820536 0.273011 0.411494 26 102 204
-0.138298 0.181128 0.0391287 26 102 204
-0.124037 0.209001 0.465259 26 102 204
-0.132388 0.174206 0.16241 26 102 204
-0.145533 0.206217 0.426429 26 102 204
-0.200619 0.108857 0.465512 26 102 204
-0.202872 0.101139 0.325412 26 102 204
-0.141315 0.181641 0.487925 26 102 204
-0.20177 0.102485 0.162226 26 102 204
-0.233998 0.0720288 0.468199 26 102 204
-0.129251 0.19302 -0.262935 26 102 204
-0.21253 0.080516 -0.301336 26 102 204
-0.201046 0.102283 -0.124742 26 102 204
-0.208573 0.0964163 -0.0118103 26 102 204
-0.207195 0.0999052 0.338462 26 102 204
-0.2076 0.101246 0.361927 26 102 204
-0.191406 0.116249 -0.0283056 26 102 204
-0.200067 0.120729 0.331035 26 102 204
-0.197327 0.110556 0.403736 26 102 204
-0.199974 0.12134 0.359725 26 102 204
-0.195881 0.115514 -0.17559 26 102 204
-0.152165 0.174284 0.051736 26 102 204
-0.18555 0.142883 0.0486792 26 102 204
-0.196631 0.117632 0.0785739 26 102 204
-0.20008 0.130457 -0.373006 26 102 204
-0.206559 0.103213 -0.350421 26 102 204
-0.207679 0.104714 -0.239301 26 102 204
-0.158881 0.166388 0.115501 26 102 204
-0.19925 0.111312 0.279285 26 102 204
-0.199368 0.102106 0.0357725 26 102 204
-0.195488 0.126099 -0.02303 26 102 204
-0.216635 0.0748904 0.00202916 26 102 204
-0.121578 0.189528 -0.00317673 26 102 204
-0.173748 0.149416 0.435303 26 102 204
-0.206771 0.0942623 0.485311 26 102 204
-0.22916 0.0698969 -0.0269067 26 102 204
-0.233661 0.0717703 0.167287 26 102 204
-0.208606 0.0813588 0.486399 26 102 204
-0.249176 0.0741701 0.164866 26 102 204
-0.168127 0.130074 0.499934 26 102 204
-0.207759 0.0794529 0.493418 26 102 204
-0.243704 0.0490712 0.300601 26 102 204
-0.236144 0.0606595 0.417746 26 102 204
-0.219478 0.0825068 0.323644 26 102 204
-0.242363 0.0335888 0.100315 26 102 204
-0.0764202 0.294441 0.382712 26 102 204
-0.236832 0.0443578 -0.0495119 26 102 204
-0.247432 0.0461635 0.394604 26 102 204
-0.0719285 0.259354 0.322474 26 102 204
-0.0933874 0.216487 0.452005 26 102 204
-0.236988 0.0381802 -0.0816774 26 102 204
-0.254372 0.0127069 0.388648 26 102 204
-0.249118 0.0208812 0.318763 26 102 204
-0.103474 0.216364 -0.0549899 26 102 204
-0.245483 0.0135971 0.0657889 26 102 204
-0.264134 -0.0053688 0.197159 26 102 204
-0.155194 0.156975 -0.0461568 26 102 204
-0.143704 0.153015 -0.10433 26 102 204
-0.101075 0.194203 -0.138445 26 102 204
-0.274633 0.00038748 0.307179 26 102 204
-0.291748 -0.00426445 0.277027 26 102 204
-0.263569 0.000918243 -0.151787 26 102 204
-0.250351 0.0048375 0.372458 26 102 204
-0.246459 0.0125334 -0.143962 26 102 204
-0.263136 -0.018516 -0.176585 26 102 204
-0.262446 -0.0229132 0.121946 26 102 204
-0.264468 -0.0164842 0.244253 26 102 204
-0.282056 -0.0343805 -0.16071 26 102 204
-0.25474 -0.00977373 0.0851091 26 102 204
-0.269452 -0.0142832 -0.092841 26 102 204
-0.297789 -0.0258573 -0.0664999 26 102 204
-0.27236 -0.0370089 -0.0874745 26 102 204
-0.0937825 0.205588 -0.108819 26 102 204
-0.293478 -0.0355796 0.0657242 26 102 204
-0.142994 0.149744 -0.0810062 26 102 204
-0.218754 0.0392066 0.0110318 26 102 204
-0.262912 -0.0420419 0.28277 26 102 204
-0.266586 -0.0593082 0.161967 26 102 204
-0.272513 -0.0636871 0.183952 26 102 204
-0.265343 -0.0411093 0.0953329 26 102 204
-0.260676 -0.0606854 -0.111727 26 102 204
-0.261256 -0.0573012 0.0435975 26 102 204
-0.0802536 0.15301 -0.108947 26 102 204
-0.0722719 0.168492 -0.012871 26 102 204
-0.255855 -0.0701714 0.0137919 26 102 204
-0.274486 -0.0847439 0.0545643 26 102 204
-0.244823 -0.0631912 0.00208569 26 102 204
-0.0536185 0.163797 -0.00805084 26 102 204
-0.255594 -0.0829478 0.00629032 26 102 204
-0.0466303 0.172924 0.0762291 26 102 204
-0.204773 -0.0854161 -0.026271 26 102 204
-0.233542 -0.0673689 -0.079052 26 102 204
-0.0445919 0.157533 -0.10951 26 102 204
-0.00534034 0.162142 -0.0706435 26 102 204
-0.213622 -0.0883506 -0.0249017 26 102 204
-0.0114723 0.143984 -0.0561076 26 102 204
-0.212206 -0.106011 0.00494038 26 102 204
-0.201981 -0.0947393 -0.0965003 26 102 204
-0.0144193 0.151299 -0.01418 26 102 204
-0.0164615 0.155718 -0.085136 26 102 204
-0.194902 -0.111256 0.0182397 26 102 204
-0.0083441 0.140434 -0.0695164 26 102 204
0.0304184 0.131434 -0.0313258 26 102 204
0.0243907 0.144538 -0.0202816 26 102 204
-0.162304 -0.122098 -0.0354171 26 102 204
0.035987 0.139318 0.00228601 26 102 204
0.0279188 0.0893911 -0.000675617 26 102 204
0.0409528 0.105229 -0.018822 26 102 204
0.0192905 0.117182 -0.00892262 26 102 204
-0.144485 -0.146899 -0.00424155 26 102 204
0.0671155 0.100217 -0.0802975 26 102 204
-0.150026 -0.139889 -0.0480592 26 102 204
-0.112218 -0.0933526 -0.0423573 26 102 204
0.0479491 0.098868 -0.0915295 26 102 204
0.0531539 0.0536297 -0.0792532 26 102 204
0.00149246 0.0152441 -0.0118488 26 102 204
0.0754618 0.0879932 -0.0131816 26 102 204
0.0625369 0.0930437 -0.00429562 26 102 204
0.0821155 0.0872517 -0.00824429 26 102 204
-0.110995 -0.156465 -0.0847526 26 102 204
-0.0158255 -0.0295367 -0.0278311 26 102 204
0.0746927 0.0883049 -0.0442421 26 102 204
0.0861586 0.0833494 -0.033669 26 102 204
0.0880728 0.06746 -0.051822 26 102 204
0.0392388 0.0346945 -0.0499837 26 102 204
0.0101754 -0.0248045 -0.038266 26 102 204
0.089347 0.0561544 -0.0665206 26 102 204
-0.000783691 -0.0482052 -0.0669492 26 102 204
0.0698275 0.0487791 -0.0178674 26 102 204
0.0709806 0.0406376 -0.0221309 26 102 204
0.0910277 0.0598845 -0.0690606 26 102 204
0.0876576 0.0634708 -0.101564 26 102 204
-0.0973874 -0.169106 -0.0797536 26 102 204
-0.054549 -0.145629 -0.0965684 26 102 204
0.0360582 -0.0414351 -0.0678977 26 102 204
0.101531 0.0596842 -0.0262802 26 102 204
0.058252 -0.0231864 -0.0224616 26 102 204
0.109731 0.07013 -0.0434685 26 102 204
0.0591448 0.0559419 -0.0201176 26 102 204
-0.0689171 -0.180098 -0.0721032 26 102 204
0.109277 0.0365309 -0.0814449 26 102 204
-0.0911926 -0.18138 -0.0436967 26 102 204
0.0196344 -0.077762 -0.0802883 26 102 204
-0.0463458 -0.164792 -0.0580908 26 102 204
-0.0725084 -0.184474 -0.0792247 26 102 204
0.0941 0.0146414 -0.0154905 26 102 204
0.10987 0.0343399 -0.0997171 26 102 204
0.0547171 -0.041229 -0.0145663 26 102 204
-0.0648672 -0.198641 -0.0870947 26 102 204
0.0526017 -0.0639712 -0.0368415 26 102 204
0.104071 -0.0203425 -0.0788471 26 102 204
0.124992 0.0412478 -0.0955121 26 102 204
0.0660397 -0.0608971 -0.0137283 26 102 204
-0.0190342 -0.194268 -0.0900999 26 102 204
-0.036793 -0.189712 -0.0801282 26 102 204
0.00368264 -0.192571 -0.083076 26 102 204
0.100985 -0.0596175 -0.0217698 26 102 204
0.0789584 -0.0756627 -0.0829479 26 102 204
0.0885036 -0.0898762 -0.0126865 26 102 204
0.0689582 -0.095786 -0.0927226 26 102 204
0.068099 -0.107937 -0.060674 26 102 204
0.0523016 -0.115116 -0.0513659 26 102 204
0.082629 -0.0822792 -0.0139127 26 102 204
0.0643276 -0.0963018 -0.090066 26 102 204
-0.0252562 -0.209821 -0.0769743 26 102 204
-0.00868988 -0.189476 -0.0724736 26 102 204
0.0889954 -0.0816626 -0.0931078 26 102 204
0.138999 -0.0100145 -0.0715107 26 102 204
0.00452474 -0.202666 -0.0824046 26 102 204
0.0883662 -0.0892513 -0.0890182 26 102 204
0.0323993 -0.179554 -0.0821978 26 102 204
0.139351 -0.0577324 -0.0885261 26 102 204
0.170041 -0.0141183 -0.0790729 26 102 204
0.0981031 -0.108085 -0.0621111 26 102 204
0.077287 -0.125899 -0.103625 26 102 204
0.125207 -0.0695335 -0.0608216 26 102 204
0.0237467 -0.189099 -0.0942271 26 102 204
0.144774 -0.0815498 -0.0944897 26 102 204
0.189039 -0.0188583 -0.10106 26 102 204
0.177234 -0.0336484 -0.11276 26 102 204
0.0713509 -0.17503 -0.104592 26 102 204
0.10291 -0.139342 -0.0962467 26 102 204
0.148853 -0.0972678 -0.0839254 26 102 204
0.129089 -0.120499 -0.108295 26 102 204
0.176701 -0.054257 -0.0878099 26 102 204
0.0823867 -0.18923 -0.0979826 26 102 204
0.140168 -0.116763 -0.0767329 26 102 204
0.13527 -0.158202 -0.102453 26 102 204
0.107645 -0.160221 -0.0962068 26 102 204
0.140284 -0.105608 -0.0770723 26 102 204
0.148379 -0.118025 -0.0300154 26 102 204
0.137288 -0.13446 -0.100683 26 102 204
0.116825 -0.173142 -0.100889 26 102 204
0.155313 -0.09462 -0.0959206 26 102 204
0.138149 -0.130305 -0.0824382 26 102 204
0.163764 -0.111587 -0.10017 26 102 204
0.159888 -0.102591 -0.0533847 26 102 204
0.136346 -0.14531 -0.110909 26 102 204
0.190281 -0.0878941 -0.0986354 26 102 204
0.147505 -0.139048 -0.0755989 26 102 204
0.19109 -0.0621296 -0.0583835 26 102 204
0.135813 -0.164827 -0.0834648 26 102 204
0.158669 -0.141494 -0.0715877 26 102 204
0.148165 -0.140973 -0.0955129 26 102 204
0.164823 -0.143281 -0.112325 26 102 204
0.13025 -0.181806 -0.0938261 26 102 204
0.15675 -0.152329 -0.0628213 26 102 204
0.178506 -0.121729 -0.115503 26 102 204
0.239912 -0.0657191 -0.101831 26 102 204
0.209933 -0.0749477 -0.116196 26 102 204
0.20369 -0.0751846 -0.0726748 26 102 204
0.189596 -0.126446 -0.104113 26 102 204
0.239446 -0.0580115 -0.135012 26 102 204
0.206425 -0.0961402 -0.0654545 26 102 204
0.194357 -0.120392 -0.112369 26 102 204
0.197733 -0.125712 -0.10648 26 102 204
0.233661 -0.0737064 -0.114622 26 102 204
0.189404 -0.137551 -0.112323 26 102 204
0.151806 -0.189082 -0.106583 26 102 204
0.257961 -0.107447 -0.0949415 26 102 204
0.188232 -0.153843 -0.100852 26 102 204
0.157912 -0.188095 -0.0914274 26 102 204
0.172335 -0.179576 -0.107785 26 102 204
0.169704 -0.168372 -0.110672 26 102 204
0.177344 -0.178987 -0.072665 26 102 204
0.188822 -0.168034 -0.0529466 26 102 204
0.235913 -0.0846272 -0.124912 26 102 204
0.24614 -0.108133 -0.105324 26 102 204
0.206745 -0.167729 -0.0684968 26 102 204
0.211397 -0.179941 -0.115386 26 102 204
0.229776 -0.135996 -0.0678951 26 102 204
0.233101 -0.131359 -0.106644 26 102 204
0.195297 -0.195096 -0.127407 26 102 204
0.20412 -0.197151 -0.0938468 26 102 204
0.267875 -0.116881 -0.111154 26 102 204
0.201465 -0.209525 -0.0985649 26 102 204
0.282884 -0.104969 -0.102137 26 102 204
0.208392 -0.214353 -0.0782225 26 102 204
0.277037 -0.103181 -0.0974825 26 102 204
0.262819 -0.150312 -0.132196 26 102 204
0.255902 -0.138638 -0.0639427 26 102 204
0.250777 -0.150095 -0.094981 26 102 204
0.195457 -0.210624 -0.0832455 26 102 204
0.227313 -0.157009 -0.0947088 26 102 204
0.237859 -0.165576 -0.12255 26 102 204
0.27568 -0.10507 -0.104556 26 102 204
0.252792 -0.171866 -0.126026 26 102 204
0.239361 -0.178788 -0.115988 26 102 204
0.256807 -0.140324 -0.0746704 26 102 204
0.280047 -0.124014 -0.121234 26 102 204
0.286985 -0.125493 -0.136475 26 102 204
0.268041 -0.153354 -0.102683 26 102 204
0.279742 -0.126074 -0.139626 26 102 204
0.287033 -0.13459 -0.106271 26 102 204
0.254214 -0.179077 -0.117723 26 102 204
0.242234 -0.207462 -0.113671 26 102 204
0.272643 -0.160005 -0.104931 26 102 204
0.278603 -0.153256 -0.0975101 26 102 204
0.288295 -0.134509 -0.116957 26 102 204
0.313662 -0.12956 -0.132464 26 102 204
0.27735 -0.152219 -0.0977998 26 102 204
0.328311 -0.226904 -0.159306 26 102 204
0.280673 -0.169987 -0.132335 26 102 204
0.258002 -0.201023 -0.13483 26 102 204
0.258745 -0.200552 -0.10843 26 102 204
0.275391 -0.175538 -0.121851 26 102 204
0.307647 -0.134336 -0.105744 26 102 204
0.248883 -0.223076 -0.103969 26 102 204
0.244459 -0.221386 -0.12115 26 102 204
0.253504 -0.212222 -0.0789021 26 102 204
0.250978 -0.206067 -0.117238 26 102 204
0.300373 -0.149596 -0.0995521 26 102 204
0.276031 -0.184292 -0.13134 26 102 204
0.260207 -0.20574 -0.0695597 26 102 204
0.289051 -0.166834 -0.0909874 26 102 204
0.30421 -0.178199 -0.102054 26 102 204
0.299724 -0.161687 -0.122548 26 102 204
0.286248 -0.201064 -0.116567 26 102 204
0.327589 -0.152007 -0.139643 26 102 204
0.328751 -0.144104 -0.135604 26 102 204
0.291644 -0.180089 -0.140163 26 102 204
0.304439 -0.166692 -0.14019 26 102 204
0.319787 -0.164536 -0.107675 26 102 204
0.309639 -0.180524 -0.0776284 26 102 204
0.315581 -0.161405 -0.129888 26 102 204
0.306549 -0.193084 -0.138489 26 102 204
0.325985 -0.158477 -0.135317 26 102 204
0.285641 -0.219512 -0.138697 26 102 204
0.299896 -0.204393 -0.11278 26 102 204
0.299803 -0.21425 -0.120917 26 102 204
0.334835 -0.171816 -0.11078 26 102 204
0.332928 -0.158133 -0.110444 26 102 204
0.327701 -0.186449 -0.139396 26 102 204
0.308627 -0.232773 -0.131949 26 102 204
0.306894 -0.191539 -0.135491 26 102 204
0.352409 -0.145427 -0.14172 26 102 204
0.322119 -0.180415 -0.0994567 26 102 204
0.317758 -0.223773 -0.136013 26 102 204
0.300205 -0.268814 -0.140773 26 102 204
0.296361 -0.210585 -0.151682 26 102 204
0.339607 -0.170616 -0.1227 26 102 204
0.263955 -0.273924 -0.108634 26 102 204
0.30096 -0.20456 -0.106415 26 102 204
0.335625 -0.176945 -0.130394 26 102 204
0.349135 -0.152577 -0.120701 26 102 204
0.295327 -0.225085 -0.126749 26 102 204
0.317304 -0.189949 -0.111754 26 102 204
0.329472 -0.179242 -0.128132 26 102 204
0.34245 -0.167004 -0.127544 26 102 204
0.335168 -0.194178 -0.131597 26 102 204
0.303176 -0.219368 -0.125741 26 102 204
0.307755 -0.223548 -0.127731 26 102 204
0.293655 -0.228069 -0.110913 26 102 204
0.33421 -0.183152 -0.114467 26 102 204
0.350692 -0.172951 -0.0870511 26 102 204
0.345231 -0.182773 -0.111592 26 102 204
0.343734 -0.201571 -0.13758 26 102 204
0.342286 -0.192585 -0.103057 26 102 204
0.321608 -0.224407 -0.119137 26 102 204
0.342796 -0.183607 -0.155968 26 102 204
0.314125 -0.215176 -0.129815 26 102 204
0.322345 -0.219138 -0.104422 26 102 204
0.316232 -0.216883 -0.137407 26 102 204
0.320044 -0.214137 -0.133353 26 102 204
0.322221 -0.207971 -0.133271 26 102 204
0.328968 -0.219294 -0.137784 26 102 204
0.305757 -0.238119 -0.118187 26 102 204
0.339549 -0.187848 -0.146432 26 102 204
0.328552 -0.229229 -0.126829 26 102 204
0.33294 -0.223501 -0.0982369 26 102 204
0.369779 -0.188828 -0.110605 26 102 204
0.322827 -0.234241 -0.107759 26 102 204
0.326485 -0.226036 -0.116713 26 102 204
0.282866 -0.280044 -0.128973 26 102 204
0.322233 -0.227542 -0.116775 26 102 204
0.327341 -0.237667 -0.12402 26 102 204
0.320598 -0.245151 -0.125423 26 102 204
0.326621 -0.223754 -0.144028 26 102 204
0.338812 -0.216031 -0.127063 26 102 204
0.331661 -0.26231 -0.117246 26 102 204
0.312289 -0.252857 -0.116642 26 102 204
0.351008 -0.221243 -0.1207 26 102 204
0.337857 -0.225734 -0.131657 26 102 204
0.374861 -0.192995 -0.125482 26 102 204
0.349865 -0.234285 -0.138363 26 102 204
0.309097 -0.263403 -0.121677 26 102 204
0.371036 -0.20625 -0.115479 26 102 204
0.359288 -0.220868 -0.147011 26 102 204
0.369603 -0.297971 -0.135376 26 102 204
0.358726 -0.207177 -0.130798 26 102 204
0.349347 -0.232121 -0.133138 26 102 204
0.342991 -0.214863 -0.137898 26 102 204
0.336911 -0.24002 -0.111793 26 102 204
0.345014 -0.266835 -0.121895 26 102 204
0.366111 -0.196521 -0.13703 26 102 204
0.376318 -0.195038 -0.1051 26 102 204
0.338463 -0.246616 -0.106838 26 102 204
0.387038 -0.191082 -0.145063 26 102 204
0.294176 -0.299295 -0.148474 26 102 204
0.379341 -0.203177 -0.130803 26 102 204
0.358208 -0.22341 -0.116828 26 102 204
0.298957 -0.311774 -0.120688 26 102 204
0.376237 -0.207014 -0.123775 26 102 204
0.347939 -0.246258 -0.115158 26 102 204
0.377302 -0.219409 -0.190046 26 102 204
0.371629 -0.213549 -0.127022 26 102 204
0.325777 -0.277689 -0.138343 26 102 204
0.38025 -0.205444 -0.153116 26 102 204
0.374993 -0.215922 -0.147364 26 102 204
0.387162 -0.217697 -0.121645 26 102 204
0.317876 -0.29494 -0.161001 26 102 204
0.374421 -0.207763 -0.12957 26 102 204
0.383412 -0.225255 -0.0934104 26 102 204
0.300417 -0.305394 -0.145059 26 102 204
0.347737 -0.260045 -0.163417 26 102 204
0.38877 -0.2285 -0.162565 26 102 204
0.374437 -0.277762 -0.162002 26 102 204
0.365012 -0.233075 -0.101074 26 102 204
0.381308 -0.226548 -0.114969 26 102 204
0.39246 -0.210733 -0.121909 26 102 204
0.392135 -0.221903 -0.124894 26 102 204
0.394134 -0.225079 -0.133409 26 102 204
0.373055 -0.226077 -0.132156 26 102 204
0.391405 -0.210579 -0.137514 26 102 204
0.389641 -0.217596 -0.128446 26 102 204
0.333639 -0.299862 -0.120642 26 102 204
0.352316 -0.26455 -0.138797 26 102 204
0.32462 -0.300025 -0.11852 26 102 204
0.360033 -0.248077 -0.120665 26 102 204
0.380324 -0.24406 -0.0947899 26 102 204
0.393888 -0.207952 -0.140819 26 102 204
0.354191 -0.281095 -0.143779 26 102 204
0.365061 -0.263591 -0.116656 26 102 204
0.379659 -0.239136 -0.133792 26 102 204
0.408473 -0.209435 -0.133827 26 102 204
0.362091 -0.267393 -0.159669 26 102 204
0.331824 -0.314792 -0.119759 26 102 204
0.390433 -0.228102 -0.118606 26 102 204
0.357333 -0.277035 -0.143132 26 102 204
0.369862 -0.268262 -0.16102 26 102 204
0.327758 -0.326357 -0.127207 26 102 204
0.398896 -0.224014 -0.11148 26 102 204
0.372974 -0.25115 -0.107468 26 102 204
0.370731 -0.260957 -0.109502 26 102 204
0.322649 -0.31765 -0.115175 26 102 204
0.382133 -0.234478 -0.132432 26 102 204
0.375691 -0.264829 -0.154312 26 102 204
0.360806 -0.292874 -0.159151 26 102 204
0.385213 -0.23608 -0.123486 26 102 204
0.382058 -0.24335 -0.120661 26 102 204
0.384875 -0.254387 -0.164772 26 102 204
0.393312 -0.230055 -0.0951704 26 102 204
0.404866 -0.217324 -0.0981301 26 102 204
0.394002 -0.244551 -0.107067 26 102 204
0.359797 -0.275912 -0.141967 26 102 204
0.365146 -0.293341 -0.144274 26 102 204
0.392056 -0.248741 -0.144746 26 102 204
0.389587 -0.246941 -0.148422 26 102 204
0.40157 -0.23363 -0.12578 26 102 204
0.367149 -0.28788 -0.108218 26 102 204
0.34335 -0.300536 -0.126055 26 102 204
0.396849 -0.255107 -0.103275 26 102 204
0.407329 -0.227642 -0.142378 26 102 204
0.331255 -0.316598 -0.157324 26 102 204
0.357233 -0.291326 -0.120982 26 102 204
0.388018 -0.250149 -0.120979 26 102 204
0.345493 -0.314633 -0.161381 26 102 204
0.346349 -0.302972 -0.16197 26 102 204
0.333306 -0.321768 -0.159216 26 102 204
0.396739 -0.244059 -0.115051 26 102 204
0.370037 -0.277996 -0.121489 26 102 204
0.385963 -0.26196 -0.107248 26 102 204
0.399868 -0.251341 -0.10287 26 102 204
0.408928 -0.234564 -0.122466 26 102 204
0.405535 -0.247489 -0.0965786 26 102 204
0.390312 -0.264637 -0.131809 26 102 204
0.35884 -0.319121 -0.136652 26 102 204
0.364155 -0.308425 -0.14569 26 102 204
0.412084 -0.247544 -0.132561 26 102 204
0.331815 -0.335563 -0.129044 26 102 204
0.353396 -0.311746 -0.13924 26 102 204
0.331747 -0.345212 -0.128093 26 102 204
0.388512 -0.283637 -0.158328 26 102 204
0.388431 -0.269457 -0.150797 26 102 204
0.392168 -0.280089 -0.13022 26 102 204
0.406258 -0.297934 -0.1746 26 102 204
0.330399 -0.373352 -0.139429 26 102 204
0.404353 -0.265388 -0.0948197 26 102 204
0.362025 -0.328179 -0.156917 26 102 204
0.392318 -0.291474 -0.122477 26 102 204
0.41051 -0.250094 -0.141817 26 102 204
0.33083 -0.348251 -0.131914 26 102 204
0.3539 -0.330859 -0.148392 26 102 204
0.347486 -0.328494 -0.132255 26 102 204
0.380558 -0.278706 -0.181907 26 102 204
0.324796 -0.358863 -0.142625 26 102 204
0.398667 -0.265113 -0.128246 26 102 204
0.325883 -0.369625 -0.120254 26 102 204
0.42289 -0.263506 -0.154622 26 102 204
0.416021 -0.264269 -0.129869 26 102 204
0.424059 -0.249499 -0.123966 26 102 204
0.379085 -0.323262 -0.128783 26 102 204
0.361234 -0.322251 -0.132408 26 102 204
0.383921 -0.311843 -0.140626 26 102 204
0.356148 -0.333743 -0.17466 26 102 204
0.343566 -0.359277 -0.130793 26 102 204
0.358274 -0.346232 -0.142419 26 102 204
0.402509 -0.315409 -0.164896 26 102 204
0.413294 -0.293317 -0.144899 26 102 204
0.420832 -0.267863 -0.155666 26 102 204
0.371086 -0.347238 -0.165787 26 102 204
0.39373 -0.31702 -0.18658 26 102 204
0.353251 -0.365406 -0.115564 26 102 204
0.420601 -0.283906 -0.0910297 26 102 204
0.38842 -0.338236 -0.126828 26 102 204
0.383719 -0.339461 -0.132633 26 102 204
0.439999 -0.277251 -0.127928 26 102 204
0.378469 -0.338915 -0.141363 26 102 204
0.39733 -0.341427 -0.137633 26 102 204
0.436951 -0.298485 -0.164571 26 102 204
0.393859 -0.327765 -0.158893 26 102 204
0.376364 -0.351369 -0.119059 26 102 204
0.377806 -0.368082 -0.184813 26 102 204
0.43613 -0.272439 -0.0903951 26 102 204
0.393442 -0.343516 -0.143343 26 102 204
0.367985 -0.357882 -0.147692 26 102 204
0.391633 -0.341322 -0.136512 26 102 204
0.439231 -0.287262 -0.132815 26 102 204
0.42525 -0.308446 -0.104168 26 102 204
0.425067 -0.289488 -0.152674 26 102 204
0.434203 -0.289219 -0.154611 26 102 204
0.381976 -0.357544 -0.1229 26 102 204
0.387336 -0.355518 -0.148973 26 102 204
0.430771 -0.292567 -0.153284 26 102 204
0.408688 -0.330576 -0.115433 26 102 204
0.410113 -0.330739 -0.114635 26 102 204
0.396884 -0.351211 -0.147127 26 102 204
0.419469 -0.319872 -0.126287 26 102 204
0.386175 -0.366653 -0.145474 26 102 204
0.441457 -0.306609 -0.13297 26 102 204
0.403253 -0.347688 -0.127004 26 102 204
0.40483 -0.357268 -0.12822 26 102 204
0.463136 -0.277668 -0.100455 26 102 204
0.40865 -0.350769 -0.150663 26 102 204
0.418727 -0.349313 -0.128575 26 102 204
0.419228 -0.342072 -0.113298 26 102 204
0.415803 -0.345393 -0.123498 26 102 204
0.439406 -0.319512 -0.159444 26 102 204
0.41884 -0.338435 -0.128444 26 102 204
0.452124 -0.301987 -0.0872341 26 102 204
0.454415 -0.306174 -0.113757 26 102 204
0.471084 -0.294288 -0.145897 26 102 204
0.436004 -0.325717 -0.127051 26 102 204
0.457443 -0.309143 -0.142257 26 102 204
0.421615 -0.365516 -0.110487 26 102 204
0.464428 -0.311695 -0.115091 26 102 204
0.40462 -0.377356 -0.151527 26 102 204
0.419772 -0.380418 -0.121259 26 102 204
0.420273 -0.374652 -0.111764 26 102 204
0.4197 -0.365075 -0.115851 26 102 204
0.435553 -0.342861 -0.125518 26 102 204
0.452729 -0.334436 -0.106576 26 102 204
0.41258 -0.37113 -0.141069 26 102 204
0.432592 -0.358675 -0.131714 26 102 204
0.451241 -0.353579 -0.13099 26 102 204
0.411939 -0.38176 -0.139697 26 102 204
0.440456 -0.355407 -0.125954 26 102 204
0.449818 -0.334674 -0.118101 26 102 204
0.452475 -0.357619 -0.10233 26 102 204
0.468233 -0.34072 -0.113304 26 102 204
0.423703 -0.354245 -0.0904872 26 102 204
0.429028 -0.390888 -0.131616 26 102 204
0.421418 -0.381338 -0.118912 26 102 204
0.422073 -0.391622 -0.10847 26 102 204
0.43511 -0.385021 -0.123629 26 102 204
0.433906 -0.378823 -0.121889 26 102 204
0.44177 -0.377057 -0.122707 26 102 204
0.423533 -0.397049 -0.123967 26 102 204
0.444618 -0.364843 -0.134062 26 102 204
0.478182 -0.353563 -0.135472 26 102 204
0.444166 -0.375155 -0.11251 26 102 204
0.460508 -0.34464 -0.137292 26 102 204
0.472089 -0.334679 -0.147104 26 102 204
0.480216 -0.372349 -0.142058 26 102 204
0.486198 -0.337037 -0.130529 26 102 204
