ply
format ascii 1.0
comment Created by Open3D
element vertex 1024
property double x
property double y
property double z
property uchar red
property uchar green
property uchar blue
end_header
-0.175772 0.0147112 0.220599 26 102 204
-0.170477 0.0237711 0.189274 26 102 204
-0.165457 0.0212919 0.231024 26 102 204
-0.169986 0.0268008 0.232382 26 102 204
-0.167543 0.0274298 0.213191 26 102 204
-0.163768 0.0227668 0.284322 26 102 204
-0.164603 0.0289738 0.193845 26 102 204
-0.157997 0.0264205 0.176566 26 102 204
-0.158074 0.0379515 0.206313 26 102 204
-0.159229 0.0320329 0.22684 26 102 204
-0.143839 0.0246241 0.187683 26 102 204
-0.154447 0.0317516 0.219042 26 102 204
-0.153582 0.029334 0.228181 26 102 204
-0.151597 0.0316914 0.263288 26 102 204
-0.147779 0.026602 0.218742 26 102 204
-0.15127 0.0262588 0.164069 26 102 204
-0.148023 0.0304374 0.23767 26 102 204
-0.15147 0.0300977 0.212632 26 102 204
-0.150168 0.0288916 0.239864 26 102 204
-0.144356 0.0295506 0.241569 26 102 204
-0.149671 0.0297001 0.19794 26 102 204
-0.144302 0.0322593 0.21724 26 102 204
-0.147792 0.0271311 0.175971 26 102 204
-0.142105 0.0276677 0.261809 26 102 204
-0.144545 0.0329073 0.153437 26 102 204
-0.13937 0.0284147 0.190182 26 102 204
-0.141227 0.030768 0.297417 26 102 204
-0.136235 0.0326608 0.259138 26 102 204
-0.132692 0.0337648 0.145835 26 102 204
-0.138646 0.0274981 0.232686 26 102 204
-0.136983 0.0326667 0.159205 26 102 204
-0.137231 0.0312533 0.276617 26 102 204
-0.135035 0.0333994 0.177072 26 102 204
-0.133293 0.0347866 0.213682 26 102 204
-0.136299 0.0326697 0.206865 26 102 204
-0.137237 0.0300579 0.111094 26 102 204
-0.134502 0.0301486 0.218417 26 102 204
-0.135886 0.0245351 0.28336 26 102 204
-0.117683 0.0322052 0.14545 26 102 204
-0.131127 0.0324403 0.126437 26 102 204
-0.128589 0.030822 0.211796 26 102 204
-0.129282 0.0307221 0.123082 26 102 204
-0.12864 0.0342432 0.170189 26 102 204
-0.129129 0.0219488 0.216325 26 102 204
-0.129192 0.0332453 0.236608 26 102 204
-0.116362 0.0301489 0.1223 26 102 204
-0.124581 0.031813 0.19973 26 102 204
-0.123624 0.0379175 0.191446 26 102 204
-0.125883 0.0332768 0.220066 26 102 204
-0.123289 0.0259845 0.274473 26 102 204
-0.119436 0.0310357 0.193564 26 102 204
-0.123655 0.0313297 0.204513 26 102 204
-0.122487 0.031064 0.233918 26 102 204
-0.122549 0.0311794 0.302215 26 102 204
-0.121453 0.0340179 0.29694 26 102 204
-0.117127 0.0240245 0.137066 26 102 204
-0.120064 0.0239502 0.0820791 26 102 204
-0.107372 0.0283695 0.166801 26 102 204
-0.114791 0.0336958 0.150566 26 102 204
-0.118845 0.0320287 0.0673677 26 102 204
-0.119438 0.0296872 0.0683305 26 102 204
-0.115874 0.036691 0.203134 26 102 204
-0.116997 0.0345356 0.111465 26 102 204
-0.114985 0.0348666 0.18078 26 102 204
-0.117164 0.0271997 0.215327 26 102 204
-0.114705 0.0345354 0.127567 26 102 204
-0.111333 0.0378455 0.296265 26 102 204
-0.112245 0.038424 0.100035 26 102 204
-0.115566 0.029254 0.06455 26 102 204
-0.114657 0.0327884 0.120101 26 102 204
-0.0965901 0.0308784 0.13264 26 102 204
-0.114743 0.0325018 0.149779 26 102 204
-0.103862 0.0294971 0.076293 26 102 204
-0.114229 0.0246548 0.0453957 26 102 204
-0.109837 0.0311563 0.279345 26 102 204
-0.110764 0.0282979 0.218624 26 102 204
-0.11124 0.0244789 0.0934911 26 102 204
-0.111614 0.0239304 0.223127 26 102 204
-0.111598 0.0171565 -0.0080089 26 102 204
-0.107585 0.0354363 0.138868 26 102 204
-0.105906 0.0380296 0.14445 26 102 204
-0.102741 0.0267683 0.0261036 26 102 204
-0.112602 0.0178409 0.0982246 26 102 204
-0.10908 0.0210355 0.0887835 26 102 204
-0.109345 0.0251395 0.0450772 26 102 204
-0.106329 0.0304254 -0.0325709 26 102 204
-0.105013 0.032414 -0.0319437 26 102 204
-0.109842 0.018887 0.0233736 26 102 204
-0.104886 0.0293993 -0.0206612 26 102 204
-0.105714 0.0224206 0.253022 26 102 204
-0.105316 0.0274816 -0.0055352 26 102 204
-0.101866 0.0280615 0.017085 26 102 204
-0.103247 0.0227375 0.00467215 26 102 204
-0.105681 0.0186786 0.0199058 26 102 204
-0.103372 0.0291872 0.275614 26 102 204
-0.103447 0.015721 0.00529093 26 102 204
-0.104035 0.0159306 -0.0593762 26 102 204
-0.095971 0.039658 0.23531 26 102 204
-0.0988529 0.0316067 0.114685 26 102 204
-0.0961927 0.0334766 0.222218 26 102 204
-0.102516 0.0131721 0.00609479 26 102 204
-0.101191 0.0214464 0.145109 26 102 204
-0.0923223 0.0413988 0.188852 26 102 204
-0.0947283 0.038967 0.248996 26 102 204
-0.0931118 0.032427 0.0766468 26 102 204
-0.0946533 0.0360246 0.205488 26 102 204
-0.0988026 0.0169233 -0.0318763 26 102 204
-0.101047 0.0140607 -0.0426312 26 102 204
-0.0961239 0.0270716 0.0343636 26 102 204
-0.0957283 0.0254757 0.293241 26 102 204
-0.0978674 0.0241396 0.163095 26 102 204
-0.0842541 0.0323403 0.30962 26 102 204
-0.0979625 0.0256163 0.0555801 26 102 204
-0.0928949 0.0381656 0.142365 26 102 204
-0.0978755 0.0212405 0.266973 26 102 204
-0.0843416 0.0207417 -0.023185 26 102 204
-0.0940007 0.033849 0.115523 26 102 204
-0.0916279 0.0342771 0.0730137 26 102 204
-0.0997472 0.0132796 0.0466172 26 102 204
-0.0977145 0.0191433 0.0419171 26 102 204
-0.0948086 0.0271915 0.100439 26 102 204
-0.097193 0.0153289 0.0888351 26 102 204
-0.0988878 0.016645 0.210818 26 102 204
-0.0964965 0.0141012 0.113256 26 102 204
-0.0948864 0.0233941 0.196885 26 102 204
-0.0951763 0.0235069 0.16454 26 102 204
-0.0955529 0.0161368 0.0180598 26 102 204
-0.0962459 0.02544 0.0637108 26 102 204
-0.0935388 0.0237196 0.0686354 26 102 204
-0.0967023 0.0217385 0.0654767 26 102 204
-0.086543 0.0286888 0.0470912 26 102 204
-0.0938359 0.033434 0.324176 26 102 204
-0.0938857 0.0184001 0.00681713 26 102 204
-0.093503 0.0221081 0.0737557 26 102 204
-0.0920052 0.0197534 -0.0311765 26 102 204
-0.0958931 0.0164033 -0.0226239 26 102 204
-0.0870384 0.0238524 0.175169 26 102 204
-0.0971373 0.0139877 0.0526017 26 102 204
-0.0858095 0.0158198 0.0333229 26 102 204
-0.0976059 0.0143833 -0.0413712 26 102 204
-0.0821026 0.0199556 0.144732 26 102 204
-0.0918779 0.0209272 0.31561 26 102 204
-0.0938965 0.0172864 -0.0245632 26 102 204
-0.0943345 0.0167283 0.080115 26 102 204
-0.0947577 0.0138939 -0.0483827 26 102 204
-0.0910802 0.0262095 0.101847 26 102 204
-0.0925596 0.0210632 0.173517 26 102 204
-0.0897289 0.0293438 0.269539 26 102 204
-0.0884365 0.0266016 0.317693 26 102 204
-0.0920074 0.0189164 0.124503 26 102 204
-0.0930583 0.0161809 -0.00291253 26 102 204
-0.0880293 0.0233784 0.245016 26 102 204
-0.0933633 0.0157746 -0.0261742 26 102 204
-0.0893091 0.0232426 0.204347 26 102 204
-0.0900546 0.0210871 0.265366 26 102 204
-0.0899816 0.0191779 0.0964852 26 102 204
-0.0922442 0.0132697 -0.027817 26 102 204
-0.0932136 0.0128692 -0.0205526 26 102 204
-0.0908511 0.0133442 -0.0255516 26 102 204
-0.0892726 0.0183936 -0.0789285 26 102 204
-0.0843353 0.022535 -0.0872675 26 102 204
-0.0897951 0.0130192 -0.0259834 26 102 204
-0.0886848 0.0155615 0.233443 26 102 204
-0.0878019 0.0184346 0.175462 26 102 204
-0.0904842 0.0123208 -0.0277047 26 102 204
-0.0844973 0.0246808 0.262128 26 102 204
-0.0852498 0.0243402 0.27877 26 102 204
-0.0850677 0.0239615 0.191226 26 102 204
-0.0867466 0.0141997 -0.0441309 26 102 204
-0.0826097 0.0181601 0.259123 26 102 204
-0.0840964 0.0196928 0.165707 26 102 204
-0.0875136 0.0175976 -0.0195027 26 102 204
-0.0847528 0.0165308 0.130552 26 102 204
-0.0823746 0.020869 -0.0014411 26 102 204
-0.0795755 0.019257 0.00702376 26 102 204
-0.0819229 0.0178926 -0.0469891 26 102 204
-0.0839674 0.0178964 0.0805837 26 102 204
-0.0825891 0.0190021 0.278151 26 102 204
-0.0817291 0.0211107 0.217476 26 102 204
-0.0821974 0.0165858 0.205274 26 102 204
-0.0824304 0.0164691 0.138207 26 102 204
-0.0817111 0.0144062 0.0493245 26 102 204
-0.0811427 0.0150453 -0.0266066 26 102 204
-0.079377 0.0169991 0.245224 26 102 204
-0.0783832 0.0160985 0.169403 26 102 204
-0.0794008 0.0174331 0.129382 26 102 204
-0.0735425 0.0168228 0.00593258 26 102 204
-0.0778357 0.0131386 -0.0757542 26 102 204
-0.0797172 0.0113536 0.0476672 26 102 204
-0.0767121 0.0153498 0.0879814 26 102 204
-0.0732537 0.0152244 0.173428 26 102 204
-0.0742023 0.0113812 0.222334 26 102 204
-0.0728291 0.0142024 0.183785 26 102 204
-0.0722826 0.0110544 0.0145209 26 102 204
-0.0700946 0.0118215 -0.0601863 26 102 204
-0.0641943 0.0119943 0.0751536 26 102 204
-0.0674514 0.0118958 0.0125602 26 102 204
-0.0678383 0.0117938 0.0503913 26 102 204
-0.0631633 0.00855161 -0.0114979 26 102 204
-0.0603268 0.00732867 -0.0251552 26 102 204
-0.0564779 0.00959824 0.302025 26 102 204
-0.0605242 0.0110994 -0.0141924 26 102 204
-0.0563272 0.00563419 0.140707 26 102 204
-0.0601139 0.00769302 0.280829 26 102 204
-0.0598364 0.00942257 0.0124821 26 102 204
-0.0557609 0.00660107 0.0485425 26 102 204
-0.0569971 0.0113077 -0.099251 26 102 204
-0.0560662 0.00918921 0.108754 26 102 204
-0.0517499 0.00605867 -0.0582405 26 102 204
-0.051419 0.00842199 0.311755 26 102 204
-0.0433342 0.00760895 0.099485 26 102 204
-0.0490577 0.00641216 -0.0831593 26 102 204
-0.046747 0.00374426 -0.0835913 26 102 204
-0.0459077 0.00394343 -0.0402282 26 102 204
-0.0462146 0.00726651 0.241908 26 102 204
-0.0453345 0.0033811 -0.0803035 26 102 204
-0.0495208 0.00182469 -0.0293714 26 102 204
-0.0447631 0.00782543 0.175307 26 102 204
-0.0446146 0.00464513 -0.0778314 26 102 204
-0.0445749 0.0054508 -0.130118 26 102 204
-0.0463587 0.00914641 -0.00223794 26 102 204
-0.0396554 0.0060469 0.0527879 26 102 204
-0.0425818 0.00503085 -0.166944 26 102 204
-0.0313622 0.00624331 0.299291 26 102 204
-0.0417565 0.0105646 -0.0258915 26 102 204
-0.0411885 0.012538 0.0676157 26 102 204
-0.0391819 0.00748836 0.21132 26 102 204
-0.0423417 0.0176941 0.0562328 26 102 204
-0.0410084 0.0158088 0.11796 26 102 204
-0.0397097 0.0125351 0.178948 26 102 204
-0.0339762 0.00975197 -0.135057 26 102 204
-0.0393866 0.0102199 -0.197421 26 102 204
-0.0387076 0.00761631 -0.18303 26 102 204
-0.0356509 0.00950115 -0.00428954 26 102 204
-0.0397356 0.0109446 -0.160615 26 102 204
-0.0420834 0.0138911 -0.0931538 26 102 204
-0.0405472 0.00491857 -0.189705 26 102 204
-0.0362911 0.0102813 -0.0414368 26 102 204
-0.0756446 0.0194409 0.0587407 26 102 204
-0.0404004 0.0100796 -0.176903 26 102 204
-0.0391258 0.0125952 -0.178367 26 102 204
-0.0387021 0.0102581 -0.235833 26 102 204
-0.0385673 0.00986102 -0.116626 26 102 204
-0.0356193 0.0369739 0.0148595 26 102 204
-0.0361377 0.0112832 0.309659 26 102 204
-0.039091 0.00484197 -0.193798 26 102 204
-0.0338472 0.0156828 0.181425 26 102 204
-0.0342844 0.0194648 0.317982 26 102 204
-0.0366704 0.00861316 -0.243962 26 102 204
-0.0394505 0.00638848 -0.13681 26 102 204
-0.0330456 0.0205851 0.0732108 26 102 204
-0.0339004 0.0112703 0.00633407 26 102 204
-0.0270719 0.0397798 0.234248 26 102 204
-0.0338206 0.0131949 -0.000528823 26 102 204
-0.036955 0.0104039 -0.0569454 26 102 204
-0.036567 0.00842631 -0.19923 26 102 204
-0.0317053 0.016014 0.0685724 26 102 204
-0.0315038 0.0283864 -0.077175 26 102 204
-0.0317387 0.0165236 0.0447138 26 102 204
-0.0326388 0.0172435 -0.0676797 26 102 204
-0.0398424 0.018367 -0.205481 26 102 204
-0.0346794 0.0111352 -0.0558674 26 102 204
-0.0348921 0.0159085 -0.264054 26 102 204
-0.0338036 0.0156009 -0.283671 26 102 204
-0.0396153 0.0203545 -0.260002 26 102 204
-0.0344379 0.012058 -0.133585 26 102 204
-0.035452 0.00625674 -0.231528 26 102 204
-0.0334887 0.0103438 -0.201383 26 102 204
-0.0317504 0.0176517 -0.0705019 26 102 204
-0.0294409 0.0154001 -0.119151 26 102 204
-0.0316563 0.0195326 0.13307 26 102 204
-0.0302407 0.0256458 -0.186081 26 102 204
-0.0332066 0.0218785 -0.262903 26 102 204
-0.0346102 0.00818043 -0.0671323 26 102 204
-0.0267145 0.0353213 0.1338 26 102 204
-0.034463 0.0083788 -0.27553 26 102 204
-0.0324955 0.0191685 -0.156847 26 102 204
-0.0303573 0.0208605 -0.0292662 26 102 204
-0.0334891 0.00518057 -0.235565 26 102 204
-0.0267626 0.0277545 0.237003 26 102 204
-0.0288405 0.0239551 0.312043 26 102 204
-0.0372125 0.0115904 -0.205393 26 102 204
-0.0122781 0.0286991 0.294098 26 102 204
-0.0339102 0.00574786 -0.239684 26 102 204
-0.0336389 0.00355048 -0.150867 26 102 204
-0.0360843 0.00906215 -0.153769 26 102 204
-0.0314934 0.00825463 0.0461227 26 102 204
-0.0271337 0.0204335 -0.1744 26 102 204
-0.0321669 0.0113674 -0.114905 26 102 204
-0.0250241 0.00514028 -0.161721 26 102 204
-0.0262723 0.0298074 0.0595398 26 102 204
-0.0285773 0.00670411 -0.108915 26 102 204
-0.0253776 0.0280263 0.00242252 26 102 204
-0.0276562 0.0227034 0.288254 26 102 204
-0.02356 0.0130269 -0.0921116 26 102 204
-0.0245623 0.0314529 -0.00320775 26 102 204
-0.0263781 0.0249232 -0.273754 26 102 204
-0.0302308 0.0108804 -0.262009 26 102 204
-0.0295705 0.00834586 -0.133781 26 102 204
-0.0144525 0.0451257 0.156135 26 102 204
-0.0314749 0.00731302 -0.224631 26 102 204
-0.0239637 0.0268574 0.0288106 26 102 204
-0.0300631 0.00306838 -0.258784 26 102 204
-0.0230914 0.0396266 -0.138319 26 102 204
-0.020824 0.0342974 0.0405888 26 102 204
-0.0230481 0.0166531 0.0456799 26 102 204
-0.0278636 0.00662483 -0.221358 26 102 204
-0.0318012 0.00290282 -0.239415 26 102 204
-0.0197881 0.0371868 -0.0036221 26 102 204
-0.022624 0.0315575 0.220926 26 102 204
-0.0323107 0.00186006 -0.285129 26 102 204
-0.0259899 0.0178912 -0.0513655 26 102 204
-0.0324268 3.51123e-05 -0.218748 26 102 204
-0.0278543 -0.00365798 0.280145 26 102 204
-0.030809 -0.00433878 0.231479 26 102 204
-0.0292581 0.000204786 -0.213732 26 102 204
-0.0183257 0.0389511 0.225816 26 102 204
-0.0319634 0.000318538 -0.247247 26 102 204
-0.0266213 0.00762821 -0.10247 26 102 204
-0.0242732 0.0247782 -0.286989 26 102 204
-0.0170005 0.0429425 0.011955 26 102 204
-0.0273341 0.0112057 -0.0422262 26 102 204
-0.0218252 0.0305499 -0.216547 26 102 204
-0.0278366 0.0103223 -0.0240482 26 102 204
-0.0182393 0.0364714 0.0845895 26 102 204
-0.0277073 0.0085475 0.290861 26 102 204
-0.0254791 0.00745204 -0.156914 26 102 204
-0.0306265 -0.00152329 -0.0434546 26 102 204
-0.0307137 0.00596252 -0.226848 26 102 204
-0.0173689 0.0420573 -0.00951259 26 102 204
-0.030742 -0.0002131 -0.00689228 26 102 204
-0.0260354 0.0108867 -0.264113 26 102 204
-0.0344924 0.000439284 -0.12211 26 102 204
-0.0308691 -0.000630447 -0.282035 26 102 204
-0.0196052 0.0334498 -0.209642 26 102 204
-0.0291198 0.00241636 -0.0530819 26 102 204
-0.0282349 0.00334424 -0.243853 26 102 204
-0.0128509 0.050784 0.10757 26 102 204
-0.0344446 0.0024799 -0.105857 26 102 204
-0.0234428 0.0200594 -0.000206402 26 102 204
-0.0315489 0.00496219 0.235367 26 102 204
-0.0228028 0.0113858 0.0208294 26 102 204
-0.0293611 -0.00219376 -0.139075 26 102 204
-0.0308663 -0.00669754 -0.259315 26 102 204
-0.0226209 0.0144863 -0.100944 26 102 204
-0.013374 0.0470271 0.139301 26 102 204
-0.0305815 -0.00406677 -0.155378 26 102 204
-0.00927514 0.0575753 0.168168 26 102 204
-0.0286927 -0.000353941 -0.0473868 26 102 204
-0.0307126 -0.00356784 -0.194779 26 102 204
-0.0265137 0.00477669 -0.156514 26 102 204
-0.0260799 0.00664224 -0.174494 26 102 204
-0.0272002 0.00211816 -0.326495 26 102 204
-0.0285951 -0.00261137 -0.0085068 26 102 204
-0.0260258 0.00531472 -0.289492 26 102 204
-0.0195555 0.0235048 -0.199819 26 102 204
-0.0286671 -0.00428579 -0.187887 26 102 204
-0.0265664 0.00134355 -0.0627403 26 102 204
-0.0286112 -0.00423382 -0.141108 26 102 204
-0.027846 -0.00345161 0.0494439 26 102 204
-0.0285178 -0.00523606 -0.123971 26 102 204
-0.024755 0.00149552 -0.325292 26 102 204
-0.0271398 -0.00570018 -0.122749 26 102 204
-0.0160838 0.0312261 0.297466 26 102 204
-0.0263037 0.000372896 0.070265 26 102 204
-0.0253284 0.00151116 -0.0243224 26 102 204
-0.00767542 0.0543082 0.192989 26 102 204
-0.0276423 -0.00502427 -0.196711 26 102 204
-0.0218288 0.009714 -0.0211821 26 102 204
-0.0200675 0.0159312 0.0116411 26 102 204
-0.0284326 -0.00402996 -0.157513 26 102 204
-0.0237011 0.00727938 0.0402377 26 102 204
-0.0124464 0.0407521 0.0518953 26 102 204
-0.0229456 0.00668114 -0.0687698 26 102 204
-0.0117838 0.0409985 -0.234554 26 102 204
-0.0161392 0.027714 -0.329187 26 102 204
-0.0218095 0.00774394 0.0561619 26 102 204
-0.0129007 0.0410338 -0.234667 26 102 204
-0.0241027 0.00381861 -0.348311 26 102 204
-0.0195138 0.0133906 -0.236463 26 102 204
-0.0121883 0.036084 0.206054 26 102 204
-0.0213714 0.007044 -0.165711 26 102 204
-0.0196222 0.00963562 0.177942 26 102 204
-0.00826592 0.0455911 0.22098 26 102 204
-0.00576218 0.0524287 0.149727 26 102 204
-0.00957663 0.04004 0.0543248 26 102 204
-0.0224935 0.00538533 -0.368675 26 102 204
-0.0239309 -0.00275934 -0.0572922 26 102 204
-0.00681856 0.0486205 -0.0196687 26 102 204
-0.00738049 0.0468503 0.0195719 26 102 204
-0.0195523 0.0139716 -0.347606 26 102 204
-0.0226322 -0.00150931 -0.130169 26 102 204
-0.019962 0.011375 -0.370311 26 102 204
-0.0255425 -0.00586985 -0.353555 26 102 204
-0.00234482 0.0621284 -0.240732 26 102 204
-0.0185992 0.0145133 -0.353761 26 102 204
-0.0223527 -0.000288183 -0.262399 26 102 204
-0.0113723 0.0285861 0.254014 26 102 204
-0.0221875 0.00428671 -0.409269 26 102 204
-0.0224868 -0.00080349 0.0659718 26 102 204
-0.0078251 0.0382221 0.256203 26 102 204
-0.0231514 -0.00811711 -0.337422 26 102 204
-0.00246688 0.0569893 -0.258875 26 102 204
-0.019515 0.0100848 -0.418671 26 102 204
-0.0214579 -0.0016929 -0.357761 26 102 204
-0.0224964 -0.00621488 -0.31431 26 102 204
-0.0217645 0.000575132 -0.368912 26 102 204
-0.0191758 0.00782906 -0.357151 26 102 204
-0.00227649 0.0552195 -0.129391 26 102 204
-0.0192932 0.00591626 -0.0995961 26 102 204
-0.00440076 0.0502114 -0.0842869 26 102 204
0.0125519 0.0996647 -0.119839 26 102 204
-0.0108989 0.0323473 -0.04067 26 102 204
-0.0144018 0.0215584 -0.335608 26 102 204
-0.0159753 0.0155039 -0.341027 26 102 204
0.00711516 0.0956965 -0.141926 26 102 204
-0.00283671 0.0427958 0.0302142 26 102 204
-0.0176672 0.00731071 0.00344599 26 102 204
-0.0132639 0.0204165 0.148709 26 102 204
-0.00595658 0.0353776 -0.307396 26 102 204
0.00179921 0.0467772 0.00986348 26 102 204
-0.0228559 -0.00800139 -0.240419 26 102 204
-0.0186221 -0.00828294 -0.250443 26 102 204
0.0112085 0.0929206 -0.214916 26 102 204
-0.00828782 0.0303047 -0.359324 26 102 204
0.0104483 0.0894628 -0.173938 26 102 204
-0.0117793 0.00787451 0.256954 26 102 204
-0.0109099 0.0221676 0.116988 26 102 204
-0.00507108 0.034305 0.00567557 26 102 204
-0.0122855 0.0142905 0.196149 26 102 204
-0.0151136 0.0079802 -0.0268412 26 102 204
-0.0194117 -0.0104022 0.0749198 26 102 204
-0.0209154 -0.0107439 -0.329743 26 102 204
0.00859766 0.0763185 -0.224992 26 102 204
0.0105925 0.0802077 -0.251466 26 102 204
-0.0190405 0.0034516 -0.286114 26 102 204
-0.0175687 -0.00633637 0.00937341 26 102 204
-0.0205961 -0.0121419 -0.352662 26 102 204
-0.00625267 0.0343306 -0.331085 26 102 204
-0.0126076 0.00828883 0.0473227 26 102 204
-0.0128913 0.0117665 -0.425731 26 102 204
-0.0047557 0.0279176 0.058182 26 102 204
-0.0155791 -0.00352475 -0.478867 26 102 204
-0.00937337 0.0204129 -0.41676 26 102 204
-0.00449506 0.0297312 -0.40931 26 102 204
-0.00310888 0.0298246 0.0370055 26 102 204
-0.0209806 -0.0113083 -0.167428 26 102 204
-0.00115243 0.0332515 -0.00415032 26 102 204
-0.0177282 -0.0134552 -0.2726 26 102 204
0.0169268 0.0769718 -0.104749 26 102 204
-0.0151167 -0.00710894 -0.490415 26 102 204
-0.00167583 0.0309901 0.0689682 26 102 204
-0.00369085 0.0201106 0.0115754 26 102 204
0.0031517 0.0383497 -0.33198 26 102 204
0.00402661 0.0500407 -0.133246 26 102 204
0.0282635 0.127347 -0.155861 26 102 204
0.0176446 0.086215 -0.218813 26 102 204
0.00942371 0.0624779 -0.316463 26 102 204
-0.0155575 0.00125627 -0.209353 26 102 204
-0.00340739 0.0192963 0.210898 26 102 204
-0.00832261 0.00609503 -0.004701 26 102 204
-0.00614616 0.0107798 0.291446 26 102 204
0.0367304 0.142202 -0.156883 26 102 204
-0.0150115 -0.00718394 -0.433262 26 102 204
0.00134636 0.0305791 0.084168 26 102 204
-0.00210598 0.0182004 0.287938 26 102 204
0.00168118 0.031124 0.025083 26 102 204
-0.0121027 -0.00327746 -0.454652 26 102 204
0.00801525 0.0393404 0.149321 26 102 204
-0.00623247 0.0124791 -0.309103 26 102 204
-0.00812308 0.00227814 -0.401624 26 102 204
-0.00755855 0.00500596 -0.0706657 26 102 204
-0.0096691 -0.00688799 -0.266661 26 102 204
-0.0119809 -0.0107794 0.0216374 26 102 204
0.0109287 0.0587905 -0.367714 26 102 204
-0.012208 -0.0114652 -0.401641 26 102 204
0.0055182 0.0407156 -0.368348 26 102 204
-0.00942035 -0.00614265 7.69697e-06 26 102 204
-0.0030864 0.00784752 0.205032 26 102 204
-0.00173134 0.0122941 0.0739209 26 102 204
0.00296074 0.0258296 0.141655 26 102 204
0.00258885 0.027876 -0.284874 26 102 204
-0.00158844 0.0136514 0.195729 26 102 204
0.00194757 0.0254398 -0.371645 26 102 204
-0.0135385 -0.0229077 -0.172064 26 102 204
-0.00383266 0.00631446 -0.402976 26 102 204
-0.00640237 0.00036451 -0.130592 26 102 204
-0.0062396 -0.00292566 -0.113557 26 102 204
0.0355946 0.124037 -0.172375 26 102 204
0.00228069 0.0188693 0.272707 26 102 204
0.0171986 0.0658436 -0.217492 26 102 204
-0.00840886 -0.00981116 -0.11333 26 102 204
0.000893866 0.0136315 0.15775 26 102 204
-0.000489002 0.0241348 -0.422555 26 102 204
-0.00864319 -0.0123392 -0.00995367 26 102 204
-0.0113458 -0.0247857 -0.430364 26 102 204
0.0184363 0.0652441 -0.207896 26 102 204
0.0233969 0.0795956 -0.222329 26 102 204
-0.00546245 -0.00499354 -0.41826 26 102 204
0.00198437 0.0149486 0.237642 26 102 204
0.0101746 0.0406876 -0.191948 26 102 204
0.00491288 0.0218446 -0.208427 26 102 204
0.00461933 0.0168864 0.0322845 26 102 204
0.0318138 0.103303 -0.142268 26 102 204
0.00199218 0.0235408 -0.352839 26 102 204
-0.00411645 -0.00137163 -0.100786 26 102 204
0.00839806 0.0281644 -0.382758 26 102 204
-0.0100584 -0.0212671 -0.42651 26 102 204
0.00254675 0.0138678 0.0147695 26 102 204
-0.00717065 -0.0203475 -0.327425 26 102 204
0.0442981 -0.033225 0.157077 26 102 204
0.0170261 0.0564231 -0.269032 26 102 204
-0.00661898 -0.0135201 -0.206754 26 102 204
0.0432143 0.133215 -0.125614 26 102 204
-0.00737302 -0.0157534 -0.369762 26 102 204
-0.00791074 -0.0242389 -0.233254 26 102 204
0.00338548 0.00915402 0.0983004 26 102 204
0.00801308 0.0232849 0.0239056 26 102 204
0.00727158 0.0166143 0.166173 26 102 204
0.0135653 0.0781845 -0.235017 26 102 204
-0.00820222 -0.0218342 -0.211665 26 102 204
0.007486 0.0207704 0.14642 26 102 204
-0.00614921 -0.0154179 -0.411265 26 102 204
0.0262952 0.0768352 -0.290707 26 102 204
0.0405844 0.110674 -0.121944 26 102 204
0.00741274 0.0160054 0.136331 26 102 204
-0.00677295 -0.0226562 -0.243462 26 102 204
-0.00113802 -0.00112886 -0.448837 26 102 204
0.0446041 0.12015 -0.128532 26 102 204
0.0403774 0.112467 -0.126419 26 102 204
-0.00249219 -0.0105962 -0.474072 26 102 204
0.0156504 0.038154 -0.397204 26 102 204
0.00286573 0.00323085 -0.0937929 26 102 204
0.0260917 0.0842532 -0.300354 26 102 204
0.0291312 0.066854 -0.19649 26 102 204
-0.00575333 -0.0241762 -0.178964 26 102 204
0.0142912 0.03048 -0.224635 26 102 204
0.0309424 0.0731671 -0.129072 26 102 204
0.0503538 0.140516 -0.133147 26 102 204
-0.0029216 -0.0181091 -0.385338 26 102 204
0.00295878 -0.00154244 -0.0453081 26 102 204
0.0447196 0.115666 -0.217032 26 102 204
-0.000429238 -0.0106067 -0.487056 26 102 204
0.00692622 0.0102066 -0.10943 26 102 204
-0.00337315 -0.0222264 -0.0837347 26 102 204
0.0104675 0.0181887 -0.405503 26 102 204
0.0166509 0.0301167 -0.0401625 26 102 204
0.00188221 -0.0128386 -0.101107 26 102 204
0.0623189 0.148582 -0.0800221 26 102 204
0.00159514 -0.00978538 -0.447788 26 102 204
0.0109872 0.00819618 -0.311862 26 102 204
0.0276567 0.0613695 -0.222427 26 102 204
0.0129587 0.0131287 -0.00406736 26 102 204
-0.00217241 -0.0235202 -0.343346 26 102 204
0.0101377 0.0102119 -0.112507 26 102 204
0.0114867 0.0137549 -0.469609 26 102 204
0.0142122 0.017682 -0.00432515 26 102 204
0.0300128 0.0585646 -0.154333 26 102 204
0.0388443 0.088497 -0.196784 26 102 204
0.0405271 0.097883 -0.190566 26 102 204
0.0159197 0.0334024 -0.344407 26 102 204
0.00780593 -0.00148561 -0.499406 26 102 204
0.0424453 0.0976781 -0.21133 26 102 204
0.0181512 0.0249235 0.020026 26 102 204
0.0494826 0.108227 -0.144906 26 102 204
0.0125177 0.00367382 0.230177 26 102 204
0.0225974 0.0343599 -0.375337 26 102 204
0.0237629 -0.00765465 0.227598 26 102 204
0.0143818 0.013059 -0.132976 26 102 204
0.00415103 -0.0181553 -0.366612 26 102 204
0.0148276 0.00649749 0.0902959 26 102 204
0.0102766 -0.000125117 -0.43673 26 102 204
0.00375178 -0.0222282 -0.0319624 26 102 204
0.0103451 -0.0036289 -0.148999 26 102 204
0.0249367 0.0377024 -0.132365 26 102 204
0.0185911 0.0224225 -0.355434 26 102 204
0.00854805 -0.00580824 -0.408474 26 102 204
0.0100889 -0.00506309 -0.404852 26 102 204
0.0338311 0.0611012 -0.25951 26 102 204
0.0331731 0.0193554 -0.177803 26 102 204
0.0441966 0.0916634 -0.236728 26 102 204
0.0210644 0.0210228 0.145821 26 102 204
0.0268785 0.0459707 -0.110204 26 102 204
0.0265018 0.0340702 -0.275114 26 102 204
0.040361 0.0782678 -0.186377 26 102 204
0.0193406 0.0186222 -0.334851 26 102 204
0.0230784 0.0280514 -0.152856 26 102 204
0.0462375 0.0822349 -0.179144 26 102 204
0.00384088 -0.0321424 -0.109951 26 102 204
0.0277338 0.033992 -0.0565555 26 102 204
0.0278004 0.0361636 -0.318093 26 102 204
0.0250303 0.0276627 -0.0385116 26 102 204
0.0229654 0.0178597 0.00659091 26 102 204
0.0120517 -0.00625543 -0.426792 26 102 204
0.0155692 -0.000153884 -0.324833 26 102 204
0.050365 0.0947521 -0.180142 26 102 204
0.0265782 0.0382535 -0.285966 26 102 204
0.039866 0.0684163 -0.190076 26 102 204
0.00959896 -0.0249318 -0.29345 26 102 204
0.020002 0.00894159 0.273588 26 102 204
0.0230936 0.0173858 -0.338006 26 102 204
0.0173044 -0.00774099 -0.0268611 26 102 204
0.0320499 0.0438664 -0.233566 26 102 204
0.0152948 -0.00600269 -0.445905 26 102 204
0.0281584 0.0235312 -0.235896 26 102 204
0.0164192 -0.00920972 -0.419037 26 102 204
0.0168567 -0.00916994 0.0379242 26 102 204
0.0262885 0.0213364 -0.0855517 26 102 204
0.0363608 0.0577346 -0.21739 26 102 204
0.0138508 -0.0272952 -0.170243 26 102 204
0.0197291 -0.00180559 0.27764 26 102 204
0.0147407 -0.0259652 -0.245591 26 102 204
0.00844521 -0.0367507 -0.103372 26 102 204
0.0394108 0.0535165 -0.250795 26 102 204
0.0128735 -0.0221389 -0.147027 26 102 204
0.010292 -0.0186869 -0.25291 26 102 204
0.0326431 0.0299357 0.0341025 26 102 204
0.0228574 0.00631475 0.0110355 26 102 204
0.018216 -0.0105978 -0.0151789 26 102 204
0.0168384 -0.016532 0.0246863 26 102 204
0.0279416 0.0159915 -0.273185 26 102 204
0.0145948 -0.0198628 -0.398874 26 102 204
0.0377548 0.0479676 -0.117573 26 102 204
0.0164401 -0.0210998 -0.288911 26 102 204
0.0221381 -0.000461849 -0.358309 26 102 204
0.0149454 -0.0244239 -0.297367 26 102 204
0.033981 0.0273198 0.0183326 26 102 204
0.0186941 -0.0149623 0.0133896 26 102 204
0.0249922 -0.00691893 -0.283599 26 102 204
0.0167763 -0.0233696 -0.0819887 26 102 204
0.0376833 0.0348063 0.145543 26 102 204
0.0193856 -0.0187515 0.0171598 26 102 204
0.0168998 -0.0188526 -0.313674 26 102 204
0.032847 0.0209353 -0.219714 26 102 204
0.0197761 -0.0175908 -0.0102512 26 102 204
0.0201307 -0.0202891 -0.125508 26 102 204
0.0214936 -0.00233495 -0.387322 26 102 204
0.0168049 -0.0264969 -0.193358 26 102 204
0.0172717 -0.0251334 -0.228573 26 102 204
0.0207187 -0.017775 -0.287341 26 102 204
0.0231793 -0.0100026 -0.330026 26 102 204
0.0320211 0.0126469 -0.256827 26 102 204
0.0341998 0.0196593 -0.0107763 26 102 204
0.0206946 -0.0209084 -0.116789 26 102 204
0.0388368 0.0325309 0.167067 26 102 204
0.0307614 0.0108959 -0.296389 26 102 204
0.0184129 -0.018882 -0.348499 26 102 204
0.0338104 0.0171583 0.245664 26 102 204
0.0193666 -0.0211508 -0.309403 26 102 204
0.0172427 -0.0201634 -0.0878996 26 102 204
0.0328533 0.0155361 -0.319114 26 102 204
0.0278369 -0.00296641 -0.074891 26 102 204
0.0314514 0.0100813 -0.282869 26 102 204
0.0209008 -0.0227277 -0.154765 26 102 204
0.0202525 -0.0222487 -0.0453218 26 102 204
0.0226468 -0.0203144 -0.0970464 26 102 204
0.0388346 0.0281437 0.18274 26 102 204
0.0225514 -0.0207984 -0.154902 26 102 204
0.0234209 -0.0163681 -0.0590981 26 102 204
0.0309327 0.00414745 0.0371866 26 102 204
0.0239421 -0.0186598 0.00286726 26 102 204
0.0215536 -0.0191539 -0.360109 26 102 204
0.031764 0.00201193 -0.279342 26 102 204
0.0231139 -0.0204803 -0.0799403 26 102 204
0.0298547 -0.00124073 -0.329181 26 102 204
0.0275454 -0.00773564 -0.332345 26 102 204
0.0231845 -0.0202701 -0.331676 26 102 204
0.0231785 -0.0216565 -0.0676687 26 102 204
0.0223631 -0.0184563 -0.323305 26 102 204
0.0283854 -0.00439152 -0.247513 26 102 204
0.0257257 -0.0144623 0.298421 26 102 204
0.0279265 -0.00820583 -0.295774 26 102 204
0.0257327 7.1656e-05 -0.342429 26 102 204
0.0324377 0.00168377 0.290016 26 102 204
0.0251405 -0.0160163 -0.348994 26 102 204
0.0261457 -0.0177791 -0.262776 26 102 204
0.0368284 0.0100739 0.00268499 26 102 204
0.0260036 -0.0195455 -0.257852 26 102 204
0.0433731 0.0372749 0.148888 26 102 204
0.0266928 -0.0118899 -0.281862 26 102 204
0.039855 0.0197972 0.211584 26 102 204
0.0307234 -0.00121282 -0.308462 26 102 204
0.0394182 0.0103068 -0.144751 26 102 204
0.0265826 -0.0184587 -0.155101 26 102 204
0.0272267 -0.00940165 -0.278062 26 102 204
0.0307508 0.036817 0.00454347 26 102 204
0.02602 -0.016597 -0.10763 26 102 204
0.0392485 0.0178442 -0.0319725 26 102 204
0.0336479 0.00121481 -0.220423 26 102 204
0.0349138 0.00649464 -0.127414 26 102 204
0.036182 0.0057273 0.00888942 26 102 204
0.0324822 -0.00263645 -0.167275 26 102 204
0.0302889 -0.00726864 -0.325916 26 102 204
0.0442201 0.0304619 0.128477 26 102 204
0.0252982 -0.00130202 -0.113161 26 102 204
0.0378352 0.00821364 -0.0412681 26 102 204
0.0405108 0.0144661 0.226125 26 102 204
0.0217864 -0.0147306 -0.127412 26 102 204
0.0383582 0.00724213 0.288776 26 102 204
0.0418519 0.0184583 0.25954 26 102 204
0.0405425 0.0152572 0.210668 26 102 204
0.0277862 -0.0185756 -0.059427 26 102 204
0.0374746 0.00859241 -0.15384 26 102 204
0.0277236 -0.018058 -0.156629 26 102 204
0.0455341 0.0242108 0.18539 26 102 204
0.0430349 0.0207534 0.191008 26 102 204
0.0396084 0.0162294 -0.258851 26 102 204
0.0390949 0.000653869 0.0414572 26 102 204
0.0341328 -0.0130956 0.296937 26 102 204
0.0387693 0.00742262 0.227387 26 102 204
0.0366804 0.00134346 -0.1697 26 102 204
0.0374905 0.00915455 -0.170498 26 102 204
0.0325467 -0.024826 0.286032 26 102 204
0.0451189 0.0133899 0.135869 26 102 204
0.0486482 0.0235852 0.148918 26 102 204
0.0398216 0.0158428 0.0555058 26 102 204
0.0307599 -0.021451 -0.215712 26 102 204
0.0347709 -0.0129924 -0.231558 26 102 204
0.0440345 0.0257449 0.118741 26 102 204
0.0349849 -0.0145392 -0.227237 26 102 204
0.047708 0.019669 0.264748 26 102 204
0.0358957 -0.0112012 -0.178642 26 102 204
0.0319924 -0.0256268 0.262225 26 102 204
0.0360042 -0.0171656 0.291575 26 102 204
0.0472835 0.0154678 0.0485375 26 102 204
0.0325629 -0.0212532 -0.0834326 26 102 204
0.0397578 0.00244819 -0.243621 26 102 204
0.0475388 0.0166206 0.143161 26 102 204
0.0395985 -0.00588935 -0.171319 26 102 204
0.036442 -0.0160995 -0.217043 26 102 204
0.0452251 0.00899881 0.0815876 26 102 204
0.0412992 -0.00432638 -0.195042 26 102 204
0.0447974 0.0128327 0.0966822 26 102 204
0.042268 0.00559189 0.173915 26 102 204
0.039971 -0.00305096 -0.140723 26 102 204
0.0386466 -0.0122345 -0.313607 26 102 204
0.039762 -0.00487802 -0.230299 26 102 204
0.0350627 0.00322335 -0.300296 26 102 204
0.0460716 0.00716725 0.257478 26 102 204
0.0455813 0.00849104 0.0661028 26 102 204
0.0461151 0.0051281 0.157897 26 102 204
0.037747 -0.0123765 0.0197853 26 102 204
0.0426194 -0.0044909 -0.160382 26 102 204
0.0386938 -0.00950732 -0.183129 26 102 204
0.0398289 -0.0103649 -0.173122 26 102 204
0.0450291 0.0011472 0.0462626 26 102 204
0.0366284 -0.0143324 -0.302494 26 102 204
0.0373182 -0.0159869 -0.0619894 26 102 204
0.0455119 -0.00285504 0.109163 26 102 204
0.0427967 -0.00621042 0.113148 26 102 204
0.035953 -0.0150821 -0.0062602 26 102 204
0.0432208 -0.00512593 0.099757 26 102 204
0.0406947 -0.0134191 -0.144739 26 102 204
0.0439863 -0.00665136 0.139739 26 102 204
0.0397734 -0.0165083 -0.191566 26 102 204
0.043271 -0.00895835 0.0941931 26 102 204
0.039968 -0.0123101 -0.00837965 26 102 204
0.0377922 -0.0195598 -0.193449 26 102 204
0.0413263 -0.0173007 -0.127752 26 102 204
0.0449916 -0.000178608 0.15098 26 102 204
0.0442135 -0.00807966 -0.0761671 26 102 204
0.0431679 -0.0089785 -0.10416 26 102 204
0.0395199 -0.0178201 -0.2517 26 102 204
0.0419303 -0.0131234 0.0187696 26 102 204
0.0419746 -0.015137 0.208942 26 102 204
0.039599 -0.0187158 -0.162998 26 102 204
0.0418105 -0.0146949 0.0712764 26 102 204
0.0399137 -0.0195623 -0.162306 26 102 204
0.0416334 -0.0175542 0.241152 26 102 204
0.0424513 -0.0165078 0.136242 26 102 204
0.0407493 -0.0152475 -0.143237 26 102 204
0.0417377 -0.0158097 0.0732678 26 102 204
0.0465707 -0.0226615 0.0582792 26 102 204
0.0423383 -0.0177043 0.0616239 26 102 204
0.0403791 -0.0230019 -0.18831 26 102 204
0.041545 -0.0219898 -0.126012 26 102 204
0.0382838 -0.0232316 -0.212435 26 102 204
0.0396464 -0.0247711 -0.204962 26 102 204
0.0439861 -0.0198349 0.229341 26 102 204
0.0394579 -0.0201734 0.0416908 26 102 204
0.0409124 -0.0246559 -0.0885158 26 102 204
0.0448865 -0.0234974 0.317131 26 102 204
0.0451882 -0.0249065 0.0282314 26 102 204
0.0430119 -0.0249823 -0.0627911 26 102 204
0.0420149 -0.0267303 0.236605 26 102 204
0.0410308 -0.0239856 -0.0585804 26 102 204
0.0432573 -0.0246155 0.120844 26 102 204
0.0453746 -0.0256794 0.00833717 26 102 204
0.0464943 -0.0262457 0.245493 26 102 204
0.045504 -0.0272627 0.306886 26 102 204
0.0489941 -0.028458 0.109845 26 102 204
0.0463506 -0.0283397 0.0613086 26 102 204
0.0473989 -0.0319065 -0.0276322 26 102 204
0.0497011 -0.0305834 -0.00916601 26 102 204
0.0515247 -0.0307298 0.0698376 26 102 204
0.0493768 -0.0272962 0.0658757 26 102 204
0.0516597 -0.0328947 0.0348046 26 102 204
0.0566382 -0.0338534 0.242334 26 102 204
0.0553906 -0.032893 0.284703 26 102 204
0.0564316 -0.0325961 0.313132 26 102 204
0.0578893 -0.0252198 0.262104 26 102 204
0.0587827 -0.0328205 0.0346005 26 102 204
0.0634798 -0.0340608 0.164999 26 102 204
0.0611427 -0.033484 0.0603252 26 102 204
0.0629553 -0.0359776 0.0308015 26 102 204
0.0652594 -0.0390842 -0.0216757 26 102 204
0.064844 -0.0382733 0.0208022 26 102 204
0.0671605 -0.0362083 0.158879 26 102 204
0.0648334 -0.0312159 0.269264 26 102 204
0.0676941 -0.0349455 0.181981 26 102 204
0.0622086 -0.0346792 0.0182758 26 102 204
0.0687051 -0.0379969 0.146358 26 102 204
0.0704873 -0.0385221 0.0953067 26 102 204
0.0676325 -0.0316983 -0.0931771 26 102 204
0.0689783 -0.0354269 0.00195028 26 102 204
0.0684296 -0.0385956 0.127915 26 102 204
0.0532269 -0.0335991 -0.131096 26 102 204
0.0677767 -0.034236 0.251725 26 102 204
0.068112 -0.0372803 0.0713233 26 102 204
0.0679101 -0.0374207 -0.0821074 26 102 204
0.0712888 -0.0393638 -0.0829911 26 102 204
0.0706986 -0.03907 0.0539507 26 102 204
0.0706699 -0.0393007 -0.00602169 26 102 204
0.0615335 -0.0320215 -0.0491022 26 102 204
0.0717143 -0.0388278 -0.0504298 26 102 204
0.0705646 -0.0410302 0.134571 26 102 204
0.0721159 -0.0381649 -0.0323138 26 102 204
0.0706909 -0.0396531 -0.0647107 26 102 204
0.0737132 -0.0389793 0.0922136 26 102 204
0.0718662 -0.0365083 -0.104474 26 102 204
0.0722226 -0.0403581 0.112244 26 102 204
0.0730138 -0.0385087 -0.110576 26 102 204
0.0735893 -0.0435825 0.241672 26 102 204
0.0730819 -0.0409237 0.0680227 26 102 204
0.0752896 -0.0359331 0.136903 26 102 204
0.0755261 -0.0380407 -0.0385637 26 102 204
0.0736825 -0.0354135 0.277338 26 102 204
0.073284 -0.0391927 -0.00344976 26 102 204
0.0759095 -0.041762 0.10051 26 102 204
0.0745574 -0.0451317 -0.0538784 26 102 204
0.0743673 -0.0421391 0.204657 26 102 204
0.0777548 -0.0415214 0.000340888 26 102 204
0.0764242 -0.044429 0.157369 26 102 204
0.0789943 -0.0371329 0.288249 26 102 204
0.0773287 -0.0434692 -0.0858489 26 102 204
0.0810214 -0.0401102 0.252756 26 102 204
0.0802189 -0.0347736 0.179594 26 102 204
0.0807254 -0.0431616 0.071803 26 102 204
0.0795234 -0.0460176 0.273904 26 102 204
0.0786145 -0.0386039 0.0632022 26 102 204
0.078657 -0.0433143 0.245048 26 102 204
0.0772939 -0.0508271 0.0621522 26 102 204
0.0797432 -0.0434267 0.266827 26 102 204
0.0728663 -0.057228 0.0397872 26 102 204
0.0801643 -0.0460468 0.0586749 26 102 204
0.0772897 -0.0540996 0.0399935 26 102 204
0.078229 -0.0488369 0.107849 26 102 204
0.0794229 -0.0498652 0.0879811 26 102 204
0.0790792 -0.0439476 0.225048 26 102 204
0.0797927 -0.046907 0.03564 26 102 204
0.0832293 -0.0425961 0.164262 26 102 204
0.0790235 -0.0354236 0.195883 26 102 204
0.084505 -0.0393355 0.234871 26 102 204
0.0827224 -0.038034 0.117364 26 102 204
0.086203 -0.0331256 0.288827 26 102 204
0.0839054 -0.041087 0.155948 26 102 204
0.0823475 -0.046341 0.0529093 26 102 204
0.0861002 -0.0372028 0.24463 26 102 204
0.0806115 -0.0519827 0.155239 26 102 204
0.0852229 -0.0423411 0.144057 26 102 204
0.0887326 -0.034348 0.10452 26 102 204
0.0841375 -0.0454299 0.114243 26 102 204
0.0882401 -0.0270507 0.254539 26 102 204
0.0911392 -0.0242436 0.276312 26 102 204
0.0829794 -0.0472984 0.250458 26 102 204
0.0852577 -0.039804 0.255617 26 102 204
0.084449 -0.0418982 0.257397 26 102 204
0.0855029 -0.040099 0.0406143 26 102 204
0.0873494 -0.0346334 0.0725514 26 102 204
0.085935 -0.0400409 0.275 26 102 204
0.0846171 -0.0407045 0.0231681 26 102 204
0.085746 -0.0441948 -0.057248 26 102 204
0.0855639 -0.044694 0.234472 26 102 204
0.0866136 -0.0471994 0.14817 26 102 204
0.0766112 -0.0382574 0.17917 26 102 204
0.0931225 -0.02718 0.179418 26 102 204
0.0906033 -0.0362822 0.146083 26 102 204
0.0886954 -0.0454818 0.207243 26 102 204
0.0792465 -0.0446042 -0.0473917 26 102 204
0.0875251 -0.0466951 0.00812859 26 102 204
0.0879638 -0.0415134 0.205031 26 102 204
0.0879471 -0.041641 0.137697 26 102 204
0.090902 -0.0362879 0.163931 26 102 204
0.0861061 -0.0553897 0.240147 26 102 204
0.0972888 -0.0186044 0.227667 26 102 204
0.0898005 -0.0431686 -0.00963965 26 102 204
0.0909941 -0.0404729 0.182127 26 102 204
0.0965281 -0.0284 0.210479 26 102 204
0.100315 -0.0174299 0.200804 26 102 204
0.101106 -0.0228831 0.232927 26 102 204
0.0955618 -0.0347579 0.276309 26 102 204
0.0850524 -0.0587021 -0.0297994 26 102 204
0.0987373 -0.00795864 0.241434 26 102 204
0.0874188 -0.0495717 0.063933 26 102 204
0.0877318 -0.0513539 -0.041313 26 102 204
0.0889717 -0.0516215 0.044841 26 102 204
0.0958227 -0.0373036 0.29139 26 102 204
0.0881574 -0.0531742 0.241647 26 102 204
0.0910575 -0.0515942 0.0867297 26 102 204
0.0911368 -0.0428401 0.086873 26 102 204
0.0935421 -0.0413725 0.116019 26 102 204
0.0937315 -0.040291 0.0463691 26 102 204
0.0920622 -0.04722 -0.018189 26 102 204
0.0914008 -0.0520683 0.136901 26 102 204
0.0871796 -0.048903 0.0481609 26 102 204
0.0864615 -0.0450316 0.0501319 26 102 204
0.0991328 -0.031713 0.304919 26 102 204
0.0947255 -0.0437014 0.0391165 26 102 204
0.0938995 -0.0450018 -0.0199852 26 102 204
0.0960956 -0.0370202 0.173206 26 102 204
0.0943525 -0.0467074 0.24073 26 102 204
0.0889274 -0.0609209 0.26323 26 102 204
0.0950152 -0.0467192 0.263494 26 102 204
0.0910981 -0.0564426 0.253572 26 102 204
0.0977992 -0.0253747 0.194411 26 102 204
0.0974491 -0.042878 0.00629924 26 102 204
0.101031 -0.0309183 0.194441 26 102 204
0.088405 -0.0506299 0.0994193 26 102 204
0.0934535 -0.0555022 0.0627011 26 102 204
0.101842 -0.0307464 0.158522 26 102 204
0.0821209 -0.0428061 0.264609 26 102 204
0.101854 -0.0328507 0.138723 26 102 204
0.0945826 -0.0526323 -0.0268156 26 102 204
0.101352 -0.0353862 -0.0498602 26 102 204
0.0880408 -0.0469175 -0.0396214 26 102 204
0.091777 -0.0544407 -0.00390552 26 102 204
0.105526 -0.0303008 0.0798053 26 102 204
0.0990729 -0.0476263 0.259931 26 102 204
0.095913 -0.0473441 0.0634855 26 102 204
0.0990813 -0.0486605 0.280643 26 102 204
0.104109 -0.0346714 0.190465 26 102 204
0.0959946 -0.0564553 0.00888351 26 102 204
0.0981396 -0.0463872 0.0416503 26 102 204
0.100198 -0.0550008 0.0406024 26 102 204
0.102911 -0.045137 0.0518607 26 102 204
0.0904492 -0.0402122 0.0333834 26 102 204
0.0961138 -0.056127 0.00347368 26 102 204
0.102041 -0.0508855 0.032327 26 102 204
0.104787 -0.0412504 0.172443 26 102 204
0.104792 -0.0466436 0.0884827 26 102 204
0.101208 -0.0523272 0.0110733 26 102 204
0.0990934 -0.0572979 0.28238 26 102 204
0.103683 -0.045629 0.181275 26 102 204
0.101811 -0.0490802 0.0677527 26 102 204
0.10537 -0.0459056 0.218561 26 102 204
0.106192 -0.052946 0.0202481 26 102 204
0.0972255 -0.0726737 0.279573 26 102 204
0.103103 -0.0554717 0.0933873 26 102 204
0.106775 -0.0489781 0.273342 26 102 204
0.104278 -0.0590203 0.267994 26 102 204
0.104885 -0.0587912 0.29067 26 102 204
0.105009 -0.053333 0.147145 26 102 204
0.104689 -0.0591933 0.257532 26 102 204
0.100639 -0.0536963 0.113471 26 102 204
0.106209 -0.0571687 0.0837109 26 102 204
0.104432 -0.0617908 0.226424 26 102 204
0.107786 -0.0598517 0.074532 26 102 204
0.109542 -0.0558963 0.0773089 26 102 204
0.109752 -0.0520278 0.0986116 26 102 204
0.107728 -0.0578968 0.170145 26 102 204
0.106455 -0.0610452 0.116336 26 102 204
0.104477 -0.0602396 0.168549 26 102 204
0.111577 -0.0587871 0.159118 26 102 204
0.108028 -0.0589186 0.163264 26 102 204
0.102873 -0.0575018 0.146175 26 102 204
0.102246 -0.062368 0.164128 26 102 204
0.109006 -0.066929 0.256598 26 102 204
0.106523 -0.0656247 0.0516537 26 102 204
0.101692 -0.0519757 0.113996 26 102 204
0.113732 -0.0577964 0.161321 26 102 204
0.113909 -0.0588381 0.188021 26 102 204
0.103197 -0.0616189 0.184906 26 102 204
0.112982 -0.0642938 0.229439 26 102 204
0.110561 -0.0748276 0.209012 26 102 204
0.111949 -0.0652266 0.264504 26 102 204
0.113453 -0.0659126 0.202545 26 102 204
0.112314 -0.0698849 0.147451 26 102 204
0.108334 -0.069837 0.198029 26 102 204
0.113893 -0.0694771 0.149482 26 102 204
0.115285 -0.0666445 0.26719 26 102 204
0.114447 -0.0668601 0.124383 26 102 204
0.11459 -0.0678653 0.292441 26 102 204
0.113785 -0.0695183 0.136148 26 102 204
0.115201 -0.0729865 0.157768 26 102 204
0.114671 -0.0738249 0.28425 26 102 204
0.113069 -0.0706153 0.192241 26 102 204
0.112553 -0.0722102 0.281646 26 102 204
0.114588 -0.0766701 0.225299 26 102 204
0.117292 -0.0745728 0.269282 26 102 204
0.115794 -0.0749895 0.185065 26 102 204
0.117946 -0.076288 0.169941 26 102 204
0.121815 -0.0808584 0.260803 26 102 204
0.119411 -0.0785474 0.217064 26 102 204
0.119186 -0.0785618 0.220804 26 102 204
0.121164 -0.0811886 0.148247 26 102 204
0.123545 -0.0799904 0.293212 26 102 204
0.120601 -0.079008 0.148158 26 102 204
0.119215 -0.0886535 0.252838 26 102 204
0.118414 -0.0848966 0.212188 26 102 204
0.121139 -0.0853837 0.15484 26 102 204
0.122156 -0.0902463 0.19129 26 102 204
0.123363 -0.0852417 0.14707 26 102 204
0.115021 -0.0762469 0.22486 26 102 204
0.124104 -0.0885752 0.174135 26 102 204
0.12888 -0.0846958 0.197921 26 102 204
0.130011 -0.0864076 0.201231 26 102 204
0.116525 -0.0815191 0.203535 26 102 204
0.119466 -0.0847769 0.185085 26 102 204
0.128069 -0.0857492 0.185222 26 102 204
0.125355 -0.0847709 0.16329 26 102 204
0.120092 -0.0878037 0.192435 26 102 204
0.130866 -0.0982502 0.264226 26 102 204
0.133943 -0.0873537 0.221918 26 102 204
0.137406 -0.0952384 0.275242 26 102 204
