ply
format ascii 1.0
comment Created by Open3D
element vertex 1024
property double x
property double y
property double z
property uchar red
property uchar green
property uchar blue
end_header
-0.101928 0.176686 0.457477 26 102 204
-0.102545 0.178311 -0.0261436 26 102 204
-0.102867 0.178829 -0.453623 26 102 204
-0.0999389 0.179803 0.252603 26 102 204
-0.0998311 0.178794 0.0803491 26 102 204
-0.101065 0.181995 -0.115949 26 102 204
-0.100026 0.18154 0.273013 26 102 204
-0.102463 0.18421 0.054179 26 102 204
-0.0980235 0.182368 -0.501054 26 102 204
-0.0985161 0.184808 0.0539649 26 102 204
-0.0973703 0.184956 -0.447548 26 102 204
-0.0969557 0.184147 0.193774 26 102 204
-0.0972617 0.185901 0.16251 26 102 204
-0.090109 0.169191 0.441667 26 102 204
-0.0970228 0.184638 -0.487415 26 102 204
-0.0954447 0.186203 -0.347987 26 102 204
-0.0964064 0.185462 -0.252395 26 102 204
-0.09601 0.184837 -0.046029 26 102 204
-0.0948174 0.183319 0.246434 26 102 204
-0.0983482 0.181245 -0.270745 26 102 204
-0.0932397 0.185387 0.309268 26 102 204
-0.0961046 0.180535 0.3952 26 102 204
-0.0979955 0.183751 -0.360046 26 102 204
-0.0951552 0.183081 -0.475917 26 102 204
-0.0950601 0.183683 -0.0971785 26 102 204
-0.0941862 0.184791 -0.264418 26 102 204
-0.0919699 0.183151 -0.187468 26 102 204
-0.0931383 0.178986 -0.352108 26 102 204
-0.089648 0.179795 0.319803 26 102 204
-0.0929519 0.17682 -0.474132 26 102 204
-0.0925374 0.183022 -0.479217 26 102 204
-0.0900182 0.181917 0.00751947 26 102 204
-0.0943453 0.178931 0.12697 26 102 204
-0.0899516 0.173221 0.259433 26 102 204
-0.0942962 0.180478 -0.485095 26 102 204
-0.0917832 0.182004 0.0604712 26 102 204
-0.09155 0.18061 -0.334281 26 102 204
-0.0893578 0.180792 -0.172453 26 102 204
-0.0867504 0.181671 -0.0148698 26 102 204
-0.0884233 0.180115 0.342473 26 102 204
-0.0904139 0.177788 0.116824 26 102 204
-0.0876161 0.173601 -0.470181 26 102 204
-0.0827448 0.182176 0.0186023 26 102 204
-0.0884744 0.167101 0.406377 26 102 204
-0.0823023 0.182981 0.388293 26 102 204
-0.0874709 0.178697 0.382496 26 102 204
-0.0739785 0.187068 0.212777 26 102 204
-0.0826042 0.181921 0.439433 26 102 204
-0.0852651 0.178132 -0.0665991 26 102 204
-0.0855117 0.172524 0.474721 26 102 204
-0.0868935 0.177619 -0.24786 26 102 204
-0.0892091 0.164904 -0.0203437 26 102 204
-0.087068 0.174665 0.356894 26 102 204
-0.0901383 0.175767 -0.194121 26 102 204
-0.0814802 0.178594 0.462825 26 102 204
-0.0843013 0.17441 -0.116621 26 102 204
-0.0817764 0.17955 0.0735648 26 102 204
-0.0831009 0.171714 -0.0153482 26 102 204
-0.0833444 0.172463 -0.15288 26 102 204
-0.0823431 0.173185 -0.490654 26 102 204
-0.0814257 0.173831 0.25139 26 102 204
-0.0776609 0.178233 -0.058482 26 102 204
-0.0806174 0.178055 -0.186928 26 102 204
-0.0773415 0.170282 0.18209 26 102 204
-0.0817046 0.171167 -0.224674 26 102 204
-0.086518 0.157429 -0.206226 26 102 204
-0.0839691 0.167768 0.215098 26 102 204
-0.0839199 0.168169 -0.327351 26 102 204
-0.0820296 0.168513 -0.126117 26 102 204
-0.0822504 0.161522 0.0820998 26 102 204
-0.0810509 0.165508 -0.301016 26 102 204
-0.0777168 0.168515 -0.111989 26 102 204
-0.0742601 0.171706 -0.11136 26 102 204
-0.0790588 0.166187 0.149394 26 102 204
-0.0825292 0.160925 -0.190457 26 102 204
-0.0783131 0.164789 0.338286 26 102 204
-0.0767616 0.163487 0.055928 26 102 204
-0.0797886 0.163916 0.405306 26 102 204
-0.0778382 0.165589 0.439531 26 102 204
-0.0763203 0.16631 -0.440669 26 102 204
-0.0782039 0.162133 0.280949 26 102 204
-0.0669265 0.17293 -0.328971 26 102 204
-0.0773401 0.16332 -0.272809 26 102 204
-0.0769463 0.164771 -0.289606 26 102 204
-0.0746345 0.163642 -0.0316184 26 102 204
-0.0747699 0.163196 -0.0475626 26 102 204
-0.0753944 0.164833 -0.402667 26 102 204
-0.0741719 0.159734 0.462146 26 102 204
-0.0745368 0.160414 0.391289 26 102 204
-0.0743296 0.161255 -0.272983 26 102 204
-0.0643522 0.166586 0.0774388 26 102 204
-0.070487 0.160965 0.357428 26 102 204
-0.076169 0.157751 -0.0760524 26 102 204
-0.0710758 0.161979 0.0427724 26 102 204
-0.0683505 0.160604 0.268302 26 102 204
-0.0763312 0.158675 -0.43125 26 102 204
-0.0687826 0.162839 -0.321427 26 102 204
-0.0686177 0.161441 -0.212534 26 102 204
-0.0698262 0.159571 0.342134 26 102 204
-0.0721285 0.156311 0.335749 26 102 204
-0.0631987 0.163895 0.446777 26 102 204
-0.0726881 0.152793 -0.107251 26 102 204
-0.0663739 0.160938 -0.208395 26 102 204
-0.0679846 0.156273 -0.0662203 26 102 204
-0.071992 0.152203 0.0918001 26 102 204
-0.0728887 0.15165 -0.0235643 26 102 204
-0.0652459 0.153283 -0.0107907 26 102 204
-0.0692873 0.150445 0.416011 26 102 204
-0.0609872 0.15372 0.476927 26 102 204
-0.0707619 0.152631 0.0705338 26 102 204
-0.0666079 0.153252 -0.21808 26 102 204
-0.0695874 0.150879 -0.464141 26 102 204
-0.0659734 0.151049 0.334075 26 102 204
-0.0651666 0.154448 0.0694164 26 102 204
-0.0662698 0.148449 0.473059 26 102 204
-0.0654426 0.150889 -0.379305 26 102 204
-0.0634643 0.154565 -0.31522 26 102 204
-0.0662287 0.145485 -0.489182 26 102 204
-0.0623167 0.152887 0.316625 26 102 204
-0.066438 0.147884 0.0289236 26 102 204
-0.0667429 0.143486 0.012697 26 102 204
-0.0657095 0.142144 0.472931 26 102 204
-0.061141 0.14579 0.243278 26 102 204
-0.0655915 0.145217 -0.109366 26 102 204
-0.0584944 0.1482 0.478947 26 102 204
-0.0614348 0.148395 -0.332054 26 102 204
-0.0600054 0.143581 0.334141 26 102 204
-0.0668119 0.140116 0.0235478 26 102 204
-0.0508084 0.149366 -0.34203 26 102 204
-0.0630737 0.140361 0.0218541 26 102 204
-0.0632184 0.141065 -0.378619 26 102 204
-0.0612833 0.14033 0.430338 26 102 204
-0.0627009 0.138985 0.249118 26 102 204
-0.0608163 0.139935 0.0464167 26 102 204
-0.0642378 0.139157 -0.47791 26 102 204
-0.0577176 0.140749 0.0315727 26 102 204
-0.0633124 0.134632 -0.091839 26 102 204
-0.054333 0.136283 0.500598 26 102 204
-0.054759 0.142145 0.447357 26 102 204
-0.0552924 0.14019 0.275726 26 102 204
-0.0564641 0.140432 -0.434344 26 102 204
-0.0578173 0.138282 -0.32158 26 102 204
-0.0620348 0.136008 -0.386212 26 102 204
-0.0587996 0.131573 0.210846 26 102 204
-0.0510082 0.141466 0.400289 26 102 204
-0.0594134 0.134837 -0.212649 26 102 204
-0.0599638 0.132497 0.0357401 26 102 204
-0.0558306 0.136132 0.36253 26 102 204
-0.0573274 0.132545 -0.338618 26 102 204
-0.0555427 0.136414 -0.378905 26 102 204
-0.0407894 0.147108 0.407053 26 102 204
-0.0550911 0.133648 0.375369 26 102 204
-0.0641361 0.130016 -0.461633 26 102 204
-0.0495288 0.136542 -0.011906 26 102 204
-0.0593473 0.129687 -0.282797 26 102 204
-0.0511797 0.13734 -0.271549 26 102 204
-0.0564845 0.132097 -0.425159 26 102 204
-0.0537699 0.128911 0.093273 26 102 204
-0.0418811 0.138094 -0.00616742 26 102 204
-0.0495805 0.133991 -0.345602 26 102 204
-0.0568936 0.128762 0.460138 26 102 204
-0.0593892 0.131762 0.384072 26 102 204
-0.0552245 0.126858 0.457329 26 102 204
-0.0568485 0.127988 -0.35357 26 102 204
-0.0491377 0.133998 -0.403211 26 102 204
-0.0565252 0.122245 -0.128153 26 102 204
-0.0429095 0.136614 -0.453398 26 102 204
-0.0481118 0.129936 -0.188895 26 102 204
-0.052809 0.128583 0.153088 26 102 204
-0.0490302 0.128727 0.31132 26 102 204
-0.0495762 0.13121 -0.276266 26 102 204
-0.0524647 0.125956 0.443698 26 102 204
-0.049473 0.128681 -0.400847 26 102 204
-0.0500662 0.124308 0.257991 26 102 204
-0.0411847 0.130025 0.286776 26 102 204
-0.0454039 0.128641 0.281098 26 102 204
-0.052369 0.128736 -0.483892 26 102 204
-0.0533344 0.124281 0.273298 26 102 204
-0.0528029 0.122495 0.467591 26 102 204
-0.039401 0.128308 0.252102 26 102 204
-0.0476807 0.130971 0.253006 26 102 204
-0.0456902 0.126406 0.368229 26 102 204
-0.0495399 0.121599 0.444582 26 102 204
-0.042673 0.125067 0.136173 26 102 204
-0.0481818 0.123628 0.294638 26 102 204
-0.048701 0.120348 0.237979 26 102 204
-0.044282 0.122871 0.189835 26 102 204
-0.0422592 0.1213 0.247949 26 102 204
-0.0472738 0.119398 0.468105 26 102 204
-0.0484348 0.125622 0.32127 26 102 204
-0.0461133 0.116122 0.462087 26 102 204
-0.0509727 0.117563 -0.206754 26 102 204
-0.0421522 0.119177 0.0647236 26 102 204
-0.0453981 0.116904 0.39708 26 102 204
-0.0459042 0.11368 -0.253435 26 102 204
-0.0396118 0.120115 -0.498825 26 102 204
-0.0358601 0.121268 0.00314777 26 102 204
-0.0431078 0.111809 -0.20421 26 102 204
-0.0335108 0.118243 0.245606 26 102 204
-0.0385017 0.115085 -0.36279 26 102 204
-0.045136 0.111157 0.237663 26 102 204
-0.0423023 0.111449 -0.191603 26 102 204
-0.0323416 0.117704 -0.482812 26 102 204
-0.039947 0.118183 -0.472474 26 102 204
-0.0396718 0.112286 -0.320765 26 102 204
-0.0334956 0.115082 0.0825185 26 102 204
-0.0309133 0.113741 -0.191367 26 102 204
-0.0436875 0.112058 0.409622 26 102 204
-0.0264056 0.125374 0.418088 26 102 204
-0.0309752 0.109234 0.300028 26 102 204
-0.0329308 0.104333 0.360214 26 102 204
-0.194973 -0.0153248 -0.43137 26 102 204
-0.0354039 0.10101 -0.318827 26 102 204
-0.0288023 0.106897 0.226771 26 102 204
-0.0268323 0.109367 -0.13652 26 102 204
-0.0295007 0.105553 0.340204 26 102 204
-0.0299165 0.107762 0.0253746 26 102 204
-0.0306735 0.107455 0.253179 26 102 204
-0.0293545 0.104367 -0.280252 26 102 204
-0.0310551 0.115991 0.352649 26 102 204
-0.0383381 0.0981468 -0.248307 26 102 204
-0.032495 0.102858 0.404044 26 102 204
-0.0421658 0.111739 0.324699 26 102 204
-0.035451 0.0980545 0.450094 26 102 204
-0.0325595 0.10368 -0.0568471 26 102 204
-0.0269009 0.0991403 -0.461192 26 102 204
-0.036449 0.0944592 0.118258 26 102 204
-0.196866 -0.0330597 0.427249 26 102 204
-0.0299674 0.0998295 0.0722143 26 102 204
-0.0236603 0.110943 0.451628 26 102 204
-0.0350292 0.0955022 -0.212754 26 102 204
-0.03337 0.0963102 0.000812423 26 102 204
-0.0417345 0.0972345 -0.488499 26 102 204
-0.0301191 0.103385 -0.421098 26 102 204
-0.0272055 0.105534 0.328587 26 102 204
-0.0250659 0.106353 0.324188 26 102 204
-0.0229238 0.100905 -0.0346186 26 102 204
-0.0379345 0.0953247 -0.459207 26 102 204
-0.028435 0.100769 0.0223969 26 102 204
-0.0378589 0.0892563 0.467655 26 102 204
-0.0246007 0.0970444 0.0168861 26 102 204
-0.0302105 0.0927288 -0.198286 26 102 204
-0.0236807 0.10313 0.184773 26 102 204
-0.0231205 0.103332 0.34758 26 102 204
-0.0303916 0.0989547 -0.395558 26 102 204
-0.0859945 0.0518099 -0.446958 26 102 204
-0.0261976 0.101185 -0.462102 26 102 204
-0.028695 0.0979196 -0.0189014 26 102 204
-0.0312656 0.0948761 0.143939 26 102 204
-0.0297874 0.094491 0.12113 26 102 204
-0.0247367 0.100368 -0.200409 26 102 204
-0.0242093 0.102885 0.469308 26 102 204
-0.0284069 0.0966264 0.391082 26 102 204
-0.0266389 0.0970448 0.357246 26 102 204
-0.0333206 0.0953526 -0.0386786 26 102 204
-0.0238901 0.102933 -0.0912386 26 102 204
-0.0226749 0.105076 0.412811 26 102 204
-0.0173832 0.103745 0.448697 26 102 204
-0.0340229 0.0870585 0.452068 26 102 204
-0.023283 0.0977621 -0.207028 26 102 204
-0.0237131 0.104952 -0.114691 26 102 204
-0.11485 0.0282126 0.438656 26 102 204
-0.0314596 0.0904167 -0.0814991 26 102 204
-0.0254426 0.0974218 -0.425991 26 102 204
-0.0278617 0.0943266 -0.289507 26 102 204
-0.0276947 0.0939606 0.202656 26 102 204
-0.0229119 0.0967166 -0.364342 26 102 204
-0.150022 -0.00857006 -0.453311 26 102 204
-0.0291318 0.0932399 -0.257205 26 102 204
-0.0310461 0.091751 0.403032 26 102 204
-0.0254989 0.0947111 -0.246066 26 102 204
-0.0275136 0.0916246 -0.0773458 26 102 204
-0.0446153 0.0950234 -0.21148 26 102 204
-0.0255874 0.0933225 -0.133985 26 102 204
-0.0187637 0.0982645 -0.0339265 26 102 204
-0.0186646 0.0970897 0.216744 26 102 204
-0.0249387 0.0893592 0.500865 26 102 204
-0.0202676 0.0922267 -0.214369 26 102 204
-0.0287087 0.0849749 0.32758 26 102 204
-0.0304668 0.0888359 0.0182736 26 102 204
-0.0241665 0.0911465 -0.353518 26 102 204
-0.0256971 0.0867138 0.136374 26 102 204
-0.0264657 0.0842683 0.130061 26 102 204
-0.00537247 0.108843 0.422347 26 102 204
-0.0342902 0.0773779 0.407351 26 102 204
-0.0193059 0.0853314 0.367597 26 102 204
-0.0246323 0.0849521 -0.36633 26 102 204
-0.0430136 0.0694543 -0.4238 26 102 204
-0.0230652 0.0863143 -0.0640362 26 102 204
-0.025274 0.0787519 0.288849 26 102 204
-0.0890639 -0.00527073 0.481803 26 102 204
-0.0303726 0.0775002 -0.475941 26 102 204
-0.164971 -0.0333127 -0.445609 26 102 204
-0.239711 -0.0867066 -0.40398 26 102 204
-0.029563 0.0768732 -0.139223 26 102 204
-0.0292225 0.0764403 -0.287621 26 102 204
-0.0406997 0.0667181 -0.461053 26 102 204
-0.0227012 0.0810312 -0.417996 26 102 204
-0.082712 0.0363632 0.463565 26 102 204
-0.0157081 0.0853494 -0.333785 26 102 204
-0.0509239 0.0554569 -0.468113 26 102 204
-0.0308388 0.0751104 -0.429059 26 102 204
-0.023674 0.0771377 0.0528071 26 102 204
-0.0396981 0.0818887 0.123565 26 102 204
-0.0171168 0.0824651 0.123469 26 102 204
-0.0253534 0.0771783 -0.261191 26 102 204
-0.022278 0.0782394 0.225281 26 102 204
-0.0116308 0.0861083 0.221801 26 102 204
-0.0131358 0.0850925 0.0400243 26 102 204
-0.0193611 0.0792065 0.389142 26 102 204
-0.0232151 0.0763109 -0.338126 26 102 204
-0.0186502 0.0792174 0.394064 26 102 204
-0.0242866 0.0754598 -0.195169 26 102 204
-0.0289415 0.0738054 -0.219817 26 102 204
-0.0234113 0.0738666 -0.0699632 26 102 204
-0.0182692 0.0786061 0.276623 26 102 204
-0.0152919 0.0796939 -0.0604709 26 102 204
-0.0112842 0.0817359 0.419698 26 102 204
-0.229215 -0.0966146 0.382121 26 102 204
-0.239523 -0.0931141 0.368948 26 102 204
-0.0197735 0.0737312 -0.144814 26 102 204
-0.0204923 0.0733148 -0.0802882 26 102 204
-0.0198407 0.0744828 -0.289065 26 102 204
-0.00852066 0.0808184 -0.429797 26 102 204
-0.0153937 0.0748215 0.453537 26 102 204
-0.020787 0.0714002 0.421984 26 102 204
-0.0191037 0.0725327 0.151395 26 102 204
-0.0147408 0.0756795 0.299725 26 102 204
-0.0179691 0.0757524 -0.480057 26 102 204
-0.0211759 0.0711128 -0.1357 26 102 204
-0.0144329 0.0755999 0.0342966 26 102 204
-0.0106736 0.0779381 0.321091 26 102 204
-0.0190392 0.0780003 -0.378566 26 102 204
-0.013007 0.0764607 -0.0304115 26 102 204
-0.0148416 0.0751883 -0.203325 26 102 204
-0.0105746 0.0777114 -0.130268 26 102 204
-0.0222735 0.0714885 -0.334838 26 102 204
-0.00744912 0.0801262 0.447604 26 102 204
-0.0177092 0.0724807 -0.294642 26 102 204
-0.011368 0.0790188 -0.374472 26 102 204
-0.00623428 0.0866275 0.0161001 26 102 204
-0.0179876 0.0703692 0.0848857 26 102 204
-0.021706 0.0677115 -0.371034 26 102 204
-0.0249331 0.0641081 -0.236503 26 102 204
-0.0166665 0.0703428 0.0955614 26 102 204
-0.0138903 0.0718716 -0.0613194 26 102 204
-0.208196 -0.0955351 -0.416659 26 102 204
-0.205086 -0.0863181 -0.391149 26 102 204
-0.201597 -0.0797948 0.387836 26 102 204
-0.0125276 0.0726417 0.15978 26 102 204
-0.0082016 0.0723147 0.244006 26 102 204
-0.00710666 0.0758795 -0.487428 26 102 204
-0.0208367 0.063907 0.413832 26 102 204
-0.00998768 0.0713461 0.0419251 26 102 204
-0.0644539 0.0284925 0.481984 26 102 204
-0.00734446 0.072228 -0.3798 26 102 204
-0.150363 -0.0536626 -0.436638 26 102 204
-0.00790206 0.0713556 -0.178075 26 102 204
-0.013831 0.0670838 0.187246 26 102 204
-0.00730335 0.0752308 -0.462285 26 102 204
-0.00851214 0.0690236 -0.128545 26 102 204
-0.0124795 0.0659469 0.172759 26 102 204
-0.00408647 0.0731837 0.252938 26 102 204
-0.0239494 0.0563315 0.496764 26 102 204
-0.00651426 0.0676318 -0.10412 26 102 204
-0.209733 -0.0863281 0.427953 26 102 204
-0.0100207 0.0661021 -0.166104 26 102 204
-0.006296 0.0697362 -0.00318227 26 102 204
-0.008922 0.0651815 0.485236 26 102 204
-0.00914016 0.0657142 -0.00223299 26 102 204
-0.0109634 0.0644622 0.00700356 26 102 204
-0.00790769 0.0656536 0.360935 26 102 204
-0.0121587 0.0627855 -0.0484772 26 102 204
-0.0119977 0.0636409 -0.344093 26 102 204
-0.0107619 0.0633358 -0.0388977 26 102 204
-0.0112411 0.0612244 -0.0823418 26 102 204
-0.00715011 0.0620611 0.395954 26 102 204
-0.174514 -0.0709581 -0.422742 26 102 204
-0.0120413 0.0621317 -0.488415 26 102 204
-0.0347263 0.0399003 -0.498682 26 102 204
-0.00565372 0.0667814 -0.169108 26 102 204
-0.00916282 0.0580068 0.386138 26 102 204
-0.197331 -0.0905274 -0.454881 26 102 204
-0.0247425 0.0567592 -0.446024 26 102 204
-0.141331 -0.0456407 -0.48171 26 102 204
-0.0121344 0.0597886 -0.0292673 26 102 204
-0.171563 -0.07867 0.475024 26 102 204
-0.00871807 0.0619115 -0.00931731 26 102 204
-0.0108918 0.0624605 -0.166371 26 102 204
-0.0512558 0.0272096 0.35712 26 102 204
-0.00456755 0.0642081 0.38708 26 102 204
-0.181824 -0.0800814 0.406572 26 102 204
-0.00926275 0.0596725 0.382576 26 102 204
-0.0161973 0.0507791 -0.450234 26 102 204
-0.0919395 -0.0135576 0.41578 26 102 204
-0.18993 -0.0758636 0.378318 26 102 204
-0.185976 -0.0893839 0.437566 26 102 204
-0.00838462 0.0592132 0.0960447 26 102 204
-0.106366 -0.020312 0.471472 26 102 204
-0.00405503 0.0612424 0.147657 26 102 204
-0.181967 -0.0890346 0.485996 26 102 204
-0.01034 0.0608294 -0.389814 26 102 204
-0.00725154 0.0616363 0.318344 26 102 204
-0.00513072 0.0631376 0.418262 26 102 204
-0.00620205 0.0630219 0.069113 26 102 204
-0.00205478 0.0643892 -0.460612 26 102 204
-0.0134349 0.0534419 -0.0174374 26 102 204
-0.157612 -0.0598475 -0.477001 26 102 204
-0.0893155 0.00392755 0.477647 26 102 204
-0.10085 -0.0113677 0.490698 26 102 204
-0.107824 -0.0210989 -0.493806 26 102 204
-0.00949889 0.0589127 -0.233374 26 102 204
-0.00983176 0.0576792 -0.187569 26 102 204
-0.0142364 0.050985 -0.48769 26 102 204
0.000278538 0.0600186 -0.352317 26 102 204
-0.00744046 0.0594233 0.420353 26 102 204
-0.00751136 0.0628517 -0.36911 26 102 204
-0.00590777 0.0583154 0.00784329 26 102 204
-0.010778 0.0593353 -0.354224 26 102 204
-0.00988669 0.0579225 -0.462601 26 102 204
-0.0097962 0.0544801 0.0823746 26 102 204
-0.0404063 0.0307449 0.457475 26 102 204
-0.0541251 0.0172067 0.475584 26 102 204
-0.0439256 0.0260435 0.495981 26 102 204
-0.0705164 0.00612076 -0.474106 26 102 204
-0.0200564 0.052453 0.00696866 26 102 204
-0.00437969 0.057126 0.171562 26 102 204
-0.0164162 0.046932 0.472944 26 102 204
-0.00859575 0.0550293 0.389557 26 102 204
-0.00666396 0.0523099 -0.10407 26 102 204
-0.156685 -0.0636929 0.345091 26 102 204
-0.00919774 0.0546813 0.244857 26 102 204
-0.00941721 0.0539026 0.312642 26 102 204
-0.00661522 0.0547521 -0.201729 26 102 204
-0.00536539 0.0508229 -0.0366926 26 102 204
-0.0115294 0.0481335 0.461573 26 102 204
-0.035172 0.0774024 -0.039236 26 102 204
-0.00644569 0.0537904 -0.314737 26 102 204
-0.164754 -0.0762389 -0.363508 26 102 204
-0.00380373 0.0524737 -0.397746 26 102 204
-0.0114061 0.0477763 0.0358063 26 102 204
-0.0136447 0.0486229 -0.372046 26 102 204
-0.0136495 0.0449439 -0.278458 26 102 204
-0.0441868 0.0931597 -0.452318 26 102 204
-0.00998504 0.0477886 0.29314 26 102 204
-0.0225235 0.0371791 -0.394492 26 102 204
-0.00843803 0.0507475 0.360386 26 102 204
-0.0298134 0.0344807 -0.475738 26 102 204
-0.0130112 0.0440248 -0.428325 26 102 204
0.00256673 0.0537046 0.145165 26 102 204
-0.10652 -0.0365714 0.459035 26 102 204
-0.0232706 0.0381487 0.174337 26 102 204
-0.066911 0.000150939 -0.456832 26 102 204
-0.0677643 -0.00394588 0.434315 26 102 204
-0.0262285 0.0326158 -0.483181 26 102 204
-0.0111117 0.056361 -0.0995348 26 102 204
-0.00289075 0.0536111 0.185737 26 102 204
-0.01346 0.0468681 -0.383367 26 102 204
-0.00113208 0.0518046 -0.457984 26 102 204
-0.0131821 0.042595 0.0202946 26 102 204
-0.0166933 0.0356935 -0.225445 26 102 204
-0.0011408 0.0495974 0.248683 26 102 204
-0.0251551 0.0806389 -0.2099 26 102 204
-0.00947247 0.0429732 0.0392775 26 102 204
-0.150951 -0.0702099 -0.399999 26 102 204
-0.00948352 0.0424198 -0.183524 26 102 204
-0.00688064 0.0388733 0.24894 26 102 204
-0.166459 -0.0853501 -0.414312 26 102 204
-0.161648 -0.0837364 -0.381723 26 102 204
-0.0461017 0.00817612 -0.475743 26 102 204
-0.157448 -0.0771673 -0.431108 26 102 204
-0.00369878 0.0476339 -0.420006 26 102 204
-0.00572819 0.0455746 -0.398296 26 102 204
-0.0448389 0.0140607 -0.473383 26 102 204
-0.165232 -0.0921849 0.468085 26 102 204
-0.00880871 0.043231 0.235697 26 102 204
-0.139721 -0.0665075 -0.48169 26 102 204
-0.00481425 0.0423546 0.461009 26 102 204
-0.0967376 -0.0355072 -0.448801 26 102 204
-0.133495 -0.0612864 0.482193 26 102 204
-0.183365 -0.0994994 0.446771 26 102 204
-0.00323111 0.0450148 0.432671 26 102 204
-0.0723614 -0.0123433 -0.464548 26 102 204
-0.112995 -0.0446615 0.476391 26 102 204
-0.00360562 0.0440897 0.418555 26 102 204
-0.0056264 0.0409984 -0.386339 26 102 204
-0.00473261 0.0437211 -0.166146 26 102 204
-0.00226035 0.0369568 0.258903 26 102 204
-0.166045 -0.0895997 -0.47879 26 102 204
-0.00317491 0.0389826 0.335114 26 102 204
-0.120687 -0.0540887 -0.465567 26 102 204
-0.0340582 0.0140361 0.486624 26 102 204
-0.00179854 0.042384 0.0864584 26 102 204
-0.0067762 0.0405912 -0.0901225 26 102 204
0.00399826 0.0380791 -0.0568193 26 102 204
-0.00402465 0.0404566 -0.445931 26 102 204
0.00140385 0.0397 0.103229 26 102 204
-0.00210416 0.0421787 -0.395098 26 102 204
-0.00300755 0.0390403 0.232183 26 102 204
-0.125911 -0.0674682 -0.413951 26 102 204
-0.143979 -0.0801785 -0.444991 26 102 204
-0.129133 -0.0665373 0.338033 26 102 204
-0.0057329 0.0333485 0.35901 26 102 204
9.76732e-05 0.0362822 -0.474059 26 102 204
-0.00315471 0.039733 -0.341949 26 102 204
-0.00190715 0.0385818 0.174446 26 102 204
0.00165741 0.0367756 -0.21256 26 102 204
-2.55953e-05 0.0354983 -0.171842 26 102 204
0.00380898 0.0361963 0.130331 26 102 204
-0.0101529 0.0226192 -0.379353 26 102 204
0.00507163 0.0329957 -0.210342 26 102 204
-0.000180571 0.0350935 -0.345841 26 102 204
-0.111636 -0.0586313 0.437451 26 102 204
-0.00250558 0.0308427 -0.167089 26 102 204
0.00226678 0.03267 -0.205542 26 102 204
0.00556415 0.0307727 0.291024 26 102 204
-0.168292 -0.10508 0.43188 26 102 204
0.00353589 0.0317298 0.0640973 26 102 204
0.00236132 0.0293835 -0.0917398 26 102 204
0.00602324 0.0341454 -0.182002 26 102 204
-0.105358 -0.0596726 0.475898 26 102 204
-0.147163 -0.100116 0.476015 26 102 204
-0.153495 -0.100138 -0.399971 26 102 204
0.00403035 0.022853 -0.338918 26 102 204
0.00437269 0.0251429 -0.304183 26 102 204
-0.146338 -0.109785 -0.403554 26 102 204
0.00809962 0.0254244 -0.400642 26 102 204
-0.114463 -0.0797365 -0.447295 26 102 204
-0.0431026 -0.0275586 0.480168 26 102 204
-0.138675 -0.116551 0.457669 26 102 204
-0.110043 -0.0713116 -0.380724 26 102 204
-0.124941 -0.0834552 -0.457793 26 102 204
-0.0987068 -0.0698128 0.0289584 26 102 204
-0.104916 -0.0703009 0.440329 26 102 204
-0.099393 -0.068049 0.468987 26 102 204
-0.0957228 -0.0693671 0.268834 26 102 204
-0.0976993 -0.0704724 -0.126907 26 102 204
-0.0946635 -0.0673152 0.135543 26 102 204
-0.099741 -0.0676711 -0.356652 26 102 204
-0.0934076 -0.0682306 0.24204 26 102 204
-0.098731 -0.0693083 0.473493 26 102 204
-0.101834 -0.0746593 0.0697348 26 102 204
-0.0987456 -0.0671491 -0.451457 26 102 204
-0.0988073 -0.0703774 0.365482 26 102 204
-0.0638122 -0.0566651 0.484012 26 102 204
-0.0906422 -0.0714411 0.255785 26 102 204
-0.100922 -0.0739685 -0.160756 26 102 204
-0.0940311 -0.0715051 -0.230452 26 102 204
-0.096038 -0.072443 0.162203 26 102 204
-0.094139 -0.0708503 0.21215 26 102 204
-0.0891961 -0.0706358 -0.231083 26 102 204
-0.0928368 -0.0688468 0.0609275 26 102 204
-0.0986479 -0.0727838 0.461368 26 102 204
-0.100904 -0.0707165 -0.380086 26 102 204
-0.0933678 -0.0714514 0.273439 26 102 204
-0.0883777 -0.0653758 -0.196177 26 102 204
-0.0925178 -0.0651244 -0.257026 26 102 204
-0.0950044 -0.0770248 0.155297 26 102 204
-0.0889536 -0.0638664 0.267204 26 102 204
-0.0874699 -0.0630701 0.370031 26 102 204
-0.0827364 -0.0624282 -0.321449 26 102 204
-0.084224 -0.0625894 -0.163115 26 102 204
-0.0862372 -0.0603351 -0.254599 26 102 204
-0.0851545 -0.0620746 0.0504946 26 102 204
-0.0805075 -0.0625042 -0.420861 26 102 204
-0.0832917 -0.0632668 0.204585 26 102 204
-0.0808216 -0.0551085 -0.391119 26 102 204
-0.0556556 -0.0722481 -0.117466 26 102 204
-0.0832158 -0.0604303 0.222335 26 102 204
-0.0773912 -0.0551015 -0.151257 26 102 204
0.105734 -0.107461 -0.477811 26 102 204
-0.0773031 -0.0552161 -0.150162 26 102 204
0.0763911 -0.0518925 0.09927 26 102 204
-0.0609922 -0.0440568 -0.437065 26 102 204
-0.0733 -0.0513519 -0.37311 26 102 204
-0.0710572 -0.051875 0.13383 26 102 204
-0.0718844 -0.0510778 -0.341376 26 102 204
-0.069776 -0.0506443 0.156684 26 102 204
-0.0693243 -0.0535777 -0.00786211 26 102 204
-0.0696293 -0.048255 -0.402048 26 102 204
-0.0712237 -0.0523915 0.246609 26 102 204
-0.0681771 -0.0496534 -0.103892 26 102 204
-0.067545 -0.0507552 -0.201784 26 102 204
-0.0581184 -0.0442311 -0.0278431 26 102 204
-0.0560626 -0.0440542 -0.248668 26 102 204
-0.0610095 -0.0469571 0.160004 26 102 204
-0.060486 -0.040655 0.269883 26 102 204
-0.0636672 -0.0416702 -0.34386 26 102 204
-0.0535904 -0.0404381 0.0220808 26 102 204
-0.0545402 -0.040882 -0.151381 26 102 204
-0.0557884 -0.0383948 -0.0783737 26 102 204
-0.057764 -0.0406363 -0.0885195 26 102 204
-0.0477792 -0.0304647 -0.356614 26 102 204
-0.00354686 0.00172308 -0.417164 26 102 204
-0.0171 -0.0108071 0.0033641 26 102 204
-0.000630306 0.00282125 0.405168 26 102 204
0.015926 0.011651 -0.179062 26 102 204
0.00348315 0.00672614 -0.486235 26 102 204
0.00933245 0.00993597 -0.133624 26 102 204
0.0161036 0.00950968 0.462809 26 102 204
0.0185552 0.0150783 0.0480785 26 102 204
0.0107206 0.0110366 -0.166827 26 102 204
0.0122979 0.00913519 0.460339 26 102 204
-0.0774438 -0.071112 0.337862 26 102 204
-0.0186516 -0.019964 0.478655 26 102 204
0.00534239 0.00317845 -0.378774 26 102 204
0.0103569 0.00553905 -0.463233 26 102 204
0.0182243 0.00849904 0.292887 26 102 204
0.0158481 0.00928831 -0.300011 26 102 204
0.0145564 0.005415 -0.454421 26 102 204
0.0201179 0.00802591 0.153558 26 102 204
0.0168149 0.0059704 -0.00463675 26 102 204
0.018727 0.00806363 -0.205769 26 102 204
0.0216818 0.00618151 0.020929 26 102 204
0.0164517 -0.00158092 -0.471005 26 102 204
0.021627 0.00289812 0.317274 26 102 204
0.0201428 0.00354034 -0.161409 26 102 204
0.0157878 0.00280335 -0.480405 26 102 204
0.0153035 0.0037886 0.289133 26 102 204
0.017769 0.00239539 0.14058 26 102 204
0.0253914 0.00385974 0.337243 26 102 204
0.0207006 0.00410098 0.0286052 26 102 204
0.0165768 -0.0022195 0.458925 26 102 204
0.0240883 0.00475271 0.0716839 26 102 204
0.0557561 -0.0622728 -0.47669 26 102 204
0.0252626 0.00238739 0.181912 26 102 204
0.0236659 0.00103292 0.449891 26 102 204
0.0255701 0.00167556 0.011236 26 102 204
0.0178051 -0.00511679 0.467031 26 102 204
0.0162637 0.00463421 -0.0486282 26 102 204
0.0271388 0.00196366 0.21561 26 102 204
0.0259904 0.00131331 0.272928 26 102 204
0.0210221 -0.00389999 -0.0383646 26 102 204
0.0282041 -0.00272545 0.237206 26 102 204
0.0280791 -0.0162418 0.0687995 26 102 204
0.0309094 -0.00568176 0.283454 26 102 204
0.0273575 -0.00607617 0.391393 26 102 204
0.0329206 -0.00912283 0.363739 26 102 204
0.0294669 -0.0078724 -0.297525 26 102 204
0.0304944 -0.00916272 -0.281729 26 102 204
0.0347264 -0.00866195 0.183679 26 102 204
0.0326694 -0.008088 0.098518 26 102 204
0.0290116 -0.00960943 0.0291603 26 102 204
0.0324107 -0.00828353 -0.228055 26 102 204
0.0322112 -0.0105098 -0.0153222 26 102 204
0.0354133 -0.00978214 0.143941 26 102 204
0.0301559 -0.00899319 0.100478 26 102 204
0.0330229 -0.0116483 0.00845325 26 102 204
0.0288939 -0.0115317 -0.0768788 26 102 204
0.0329353 -0.012301 0.21466 26 102 204
0.0366914 -0.0118961 0.134546 26 102 204
0.0280537 -0.0133567 -0.0316933 26 102 204
0.033246 -0.0121327 -0.268028 26 102 204
0.0308354 -0.0180404 0.383648 26 102 204
0.0309827 -0.0139803 -0.468625 26 102 204
0.0332146 -0.0170831 -0.420805 26 102 204
0.0342129 -0.0164623 -0.417965 26 102 204
0.0377048 -0.0172568 0.097972 26 102 204
0.0336846 -0.0168954 -0.399006 26 102 204
0.0366836 -0.016532 -0.0568602 26 102 204
0.0346541 -0.0221679 0.483526 26 102 204
0.0398475 -0.0141439 0.191347 26 102 204
0.0373233 -0.020349 -0.0928196 26 102 204
0.0324546 -0.0170278 0.347481 26 102 204
0.0415014 -0.0205984 0.457583 26 102 204
0.0410434 -0.0221461 0.215316 26 102 204
0.0303648 -0.0220929 -0.457374 26 102 204
0.0399176 -0.0210966 -0.477948 26 102 204
0.037702 -0.0264627 0.488485 26 102 204
0.0391533 -0.0222602 -0.0355304 26 102 204
0.0462644 -0.0238139 0.472503 26 102 204
0.0431619 -0.0293279 -0.405639 26 102 204
0.0462347 -0.0248991 -0.235779 26 102 204
0.0458953 -0.0283109 -0.257506 26 102 204
0.0450874 -0.0367317 0.274214 26 102 204
0.0492407 -0.0299751 0.177283 26 102 204
0.0445959 -0.0321218 0.315107 26 102 204
0.0480962 -0.0307585 0.0511474 26 102 204
0.0430823 -0.0334569 0.404124 26 102 204
0.0465507 -0.0328261 -0.101959 26 102 204
0.0442866 -0.0340341 -0.392446 26 102 204
0.0414638 -0.0353301 -0.424814 26 102 204
0.0449364 -0.0333419 -0.0386041 26 102 204
0.0485825 -0.0351774 0.291856 26 102 204
0.0474895 -0.0361504 -0.323686 26 102 204
0.0455272 -0.0379847 -0.177039 26 102 204
0.0499114 -0.0337585 -0.412937 26 102 204
0.0478138 -0.0479897 -0.0207895 26 102 204
0.0496539 -0.0391193 0.341957 26 102 204
0.0510658 -0.0395635 0.183093 26 102 204
0.0496447 -0.0398027 0.185954 26 102 204
0.0458087 -0.040591 -0.492307 26 102 204
0.0479487 -0.0388328 -0.429475 26 102 204
0.0492906 -0.0404507 -0.253124 26 102 204
0.0512747 -0.0398955 0.261548 26 102 204
0.0559061 -0.0391134 0.142979 26 102 204
0.0520669 -0.0434624 0.104198 26 102 204
0.0544434 -0.0388976 0.0320542 26 102 204
0.0565084 -0.0403423 0.314432 26 102 204
0.0510676 -0.0399803 -0.326256 26 102 204
0.0487906 -0.0456301 0.485467 26 102 204
0.055886 -0.040273 0.140613 26 102 204
0.0521219 -0.0414158 -0.296657 26 102 204
0.0524349 -0.0429514 -0.339461 26 102 204
0.057489 -0.0424489 0.299546 26 102 204
0.0547131 -0.0436355 -0.113217 26 102 204
0.0525282 -0.0451746 -0.236354 26 102 204
0.0579247 -0.0413158 -0.459856 26 102 204
0.0519073 -0.04663 -0.438481 26 102 204
0.0574785 -0.0466284 0.174876 26 102 204
0.0617213 -0.0449075 0.0326825 26 102 204
0.0610221 -0.0475733 0.475741 26 102 204
0.0578266 -0.0487976 -0.268827 26 102 204
0.0577968 -0.0484213 0.0441542 26 102 204
0.0615335 -0.0416225 -0.394599 26 102 204
0.0566462 -0.0528408 -0.453111 26 102 204
0.0572076 -0.0531606 0.0806503 26 102 204
0.0577123 -0.0508522 -0.340973 26 102 204
0.0549074 -0.0508178 -0.431095 26 102 204
0.0560838 -0.0570653 -0.190095 26 102 204
0.0622796 -0.0517972 0.417705 26 102 204
0.0616911 -0.056719 0.420465 26 102 204
0.0616554 -0.0536151 0.209405 26 102 204
0.0586059 -0.0552049 0.212252 26 102 204
0.0604177 -0.052291 -0.112473 26 102 204
0.060743 -0.0543061 0.286112 26 102 204
0.0619554 -0.0552434 0.254717 26 102 204
0.0590286 -0.0545685 -0.411227 26 102 204
0.0589686 -0.0556349 0.413767 26 102 204
0.0645874 -0.0541921 0.0842193 26 102 204
0.0593581 -0.0591154 -0.320087 26 102 204
0.0612383 -0.053593 -0.314626 26 102 204
0.0658732 -0.0533826 0.0388876 26 102 204
0.0612277 -0.0556697 -0.458018 26 102 204
0.0626014 -0.0553998 -0.348063 26 102 204
0.0641249 -0.0559725 0.312131 26 102 204
0.0646844 -0.0539307 -0.438237 26 102 204
0.0559196 -0.0499273 -0.489169 26 102 204
0.0604866 -0.0612739 0.121634 26 102 204
0.0791895 -0.0417291 -0.422968 26 102 204
0.0623527 -0.0574041 -0.034596 26 102 204
0.0655391 -0.0591981 0.160465 26 102 204
0.0688461 -0.0584416 0.298163 26 102 204
0.0671399 -0.0591627 0.286143 26 102 204
0.0707812 -0.0577292 0.294822 26 102 204
0.0673684 -0.0626979 0.116217 26 102 204
0.0693725 -0.0621823 0.35637 26 102 204
0.0691511 -0.0634291 0.159885 26 102 204
0.0748607 -0.061631 0.265351 26 102 204
0.071598 -0.0641556 -0.109442 26 102 204
0.073299 -0.0645875 0.0710521 26 102 204
0.070405 -0.0673629 0.483207 26 102 204
0.0711367 -0.0642488 0.107634 26 102 204
0.0721343 -0.0661065 -0.480552 26 102 204
0.0747427 -0.0643303 -0.255163 26 102 204
0.0638959 -0.0369627 -0.498334 26 102 204
0.0778858 -0.0669001 0.235165 26 102 204
0.081706 -0.0642047 0.393727 26 102 204
0.0725378 -0.070588 -0.45368 26 102 204
0.0786777 -0.0696653 -0.366262 26 102 204
0.0770746 -0.0698093 0.0923369 26 102 204
0.0794369 -0.063708 -0.501125 26 102 204
0.0833225 -0.0652421 -0.484736 26 102 204
0.0774197 -0.0740724 0.462158 26 102 204
0.0795371 -0.0723726 0.399819 26 102 204
0.0790854 -0.0722425 -0.0717034 26 102 204
0.0794716 -0.0734118 -0.0282781 26 102 204
0.0826163 -0.0689287 0.151644 26 102 204
0.0808875 -0.0738007 0.43911 26 102 204
0.08588 -0.0739168 0.474848 26 102 204
0.0828927 -0.0743831 0.0634057 26 102 204
0.0831024 -0.0765262 0.235961 26 102 204
0.0871948 -0.0745908 -0.156335 26 102 204
0.0818243 -0.0833901 -0.407091 26 102 204
0.0859843 -0.0768458 -0.238793 26 102 204
0.0846436 -0.0773549 -0.15112 26 102 204
0.079208 -0.0856674 0.473244 26 102 204
0.0982064 -0.0709217 -0.428339 26 102 204
0.0852605 -0.0741423 -0.0129488 26 102 204
0.0847077 -0.0864833 0.44032 26 102 204
0.0898564 -0.0782986 -0.460173 26 102 204
0.0848544 -0.0848707 -0.0512441 26 102 204
0.0868476 -0.0841654 0.443368 26 102 204
0.0851528 -0.0874609 0.226184 26 102 204
0.0852041 -0.0859516 -0.256122 26 102 204
0.0919005 -0.0786047 -0.124475 26 102 204
0.109961 -0.0753523 0.3954 26 102 204
0.0891807 -0.089275 -0.143048 26 102 204
0.0882226 -0.089964 0.437018 26 102 204
0.0890646 -0.0887468 -0.421531 26 102 204
0.0986707 -0.0819935 -0.369187 26 102 204
0.101679 -0.0826097 0.47544 26 102 204
0.0955941 -0.0901834 -0.0743313 26 102 204
0.0925665 -0.0867764 -0.355128 26 102 204
0.096238 -0.0873123 -0.487527 26 102 204
0.0890738 -0.0960345 -0.277716 26 102 204
0.092045 -0.092515 0.481402 26 102 204
0.0957495 -0.0915418 0.227553 26 102 204
0.093279 -0.0951227 0.345131 26 102 204
0.0935717 -0.0939642 0.179155 26 102 204
0.0945266 -0.0964285 -0.0350682 26 102 204
0.0966037 -0.0958389 -0.109675 26 102 204
0.0864115 -0.10166 -0.428996 26 102 204
0.09248 -0.0950962 0.025315 26 102 204
0.103581 -0.0861132 0.00343899 26 102 204
0.097334 -0.0984956 -0.506433 26 102 204
0.1025 -0.0933034 -0.261418 26 102 204
0.0999407 -0.0963364 -0.15905 26 102 204
0.0965264 -0.0972432 -0.0855718 26 102 204
0.097831 -0.100916 0.440596 26 102 204
0.0944922 -0.0984612 -0.424474 26 102 204
0.0995135 -0.0993565 0.200061 26 102 204
0.107159 -0.0939433 0.327642 26 102 204
0.10726 -0.0922257 0.29381 26 102 204
0.0990056 -0.101644 -0.419814 26 102 204
0.0960598 -0.098471 0.0500771 26 102 204
0.0983434 -0.103444 -0.194216 26 102 204
0.107754 -0.0973325 -0.461307 26 102 204
0.0969949 -0.105807 -0.319877 26 102 204
0.102311 -0.105577 0.247347 26 102 204
0.101298 -0.103059 0.038626 26 102 204
0.110162 -0.100038 0.388522 26 102 204
0.101523 -0.107373 -0.100589 26 102 204
0.100884 -0.104854 0.21849 26 102 204
0.105318 -0.10607 0.10504 26 102 204
0.105718 -0.104823 -0.113203 26 102 204
0.100943 -0.106539 0.112868 26 102 204
0.111395 -0.103014 0.449376 26 102 204
0.103392 -0.107954 -0.343048 26 102 204
0.113421 -0.0940438 -0.0717064 26 102 204
0.102864 -0.109735 0.464635 26 102 204
0.10558 -0.106166 0.266365 26 102 204
0.106095 -0.10964 0.220471 26 102 204
0.104431 -0.109952 0.424033 26 102 204
0.10585 -0.110922 0.3395 26 102 204
0.105471 -0.109545 -0.0428232 26 102 204
0.115101 -0.105258 0.00940703 26 102 204
0.11809 -0.10246 0.408719 26 102 204
0.105673 -0.112836 0.154587 26 102 204
0.107316 -0.112631 -0.270897 26 102 204
0.103703 -0.113713 -0.413153 26 102 204
0.109733 -0.112055 -0.134717 26 102 204
0.10948 -0.112246 -0.0699139 26 102 204
0.108753 -0.114753 -0.344956 26 102 204
0.106966 -0.117734 -0.288794 26 102 204
0.12187 -0.104729 -0.473379 26 102 204
0.106437 -0.119585 -0.392443 26 102 204
0.115219 -0.115751 -0.191244 26 102 204
0.116865 -0.11804 0.298483 26 102 204
0.112087 -0.112279 -0.364435 26 102 204
0.119175 -0.115575 0.380672 26 102 204
0.127794 -0.103094 0.478572 26 102 204
0.112247 -0.120535 0.448305 26 102 204
0.124381 -0.113614 0.485926 26 102 204
0.114129 -0.11681 -0.301136 26 102 204
0.110849 -0.118106 -0.261721 26 102 204
0.113748 -0.119924 -0.202298 26 102 204
0.113408 -0.123503 0.445114 26 102 204
0.114701 -0.121183 -0.277466 26 102 204
0.118144 -0.111271 0.00418545 26 102 204
0.106245 -0.122984 -0.440375 26 102 204
-0.0566086 -0.260839 0.412897 26 102 204
0.115602 -0.118048 0.172439 26 102 204
0.118237 -0.116482 -0.0652196 26 102 204
0.113312 -0.120229 0.183601 26 102 204
0.120999 -0.120622 0.162963 26 102 204
0.118305 -0.120826 -0.0197974 26 102 204
0.0908174 -0.144039 0.416876 26 102 204
0.116021 -0.123716 -0.153374 26 102 204
0.120289 -0.124239 0.332902 26 102 204
0.121637 -0.123577 0.0226085 26 102 204
0.117648 -0.124501 0.220686 26 102 204
0.125904 -0.121171 0.262487 26 102 204
0.122684 -0.120901 0.162051 26 102 204
0.128613 -0.123014 -0.503409 26 102 204
0.117574 -0.124687 0.0689545 26 102 204
0.0213287 -0.200871 0.420606 26 102 204
0.118125 -0.120512 -0.163148 26 102 204
0.133433 -0.11806 0.070464 26 102 204
0.129477 -0.122709 -0.14457 26 102 204
0.130019 -0.117884 -0.0560741 26 102 204
-0.0503654 -0.263719 0.42034 26 102 204
0.0130904 -0.213918 -0.401157 26 102 204
0.123815 -0.123767 -0.400746 26 102 204
0.0212863 -0.213136 -0.400692 26 102 204
0.087721 -0.158137 0.443222 26 102 204
0.133009 -0.123041 0.254173 26 102 204
-0.0546314 -0.27263 -0.407171 26 102 204
0.134526 -0.122424 0.191189 26 102 204
0.13385 -0.124333 -0.354066 26 102 204
0.13183 -0.125869 -0.40973 26 102 204
0.126427 -0.123836 -0.163224 26 102 204
0.128847 -0.124574 0.0609421 26 102 204
0.0904526 -0.161739 -0.424876 26 102 204
0.140571 -0.120911 0.091735 26 102 204
0.132053 -0.124186 -0.320019 26 102 204
0.00462803 -0.229316 0.397447 26 102 204
0.135261 -0.119783 -0.36316 26 102 204
0.131982 -0.127347 0.243633 26 102 204
0.135825 -0.119803 0.418435 26 102 204
0.00597088 -0.227524 -0.414863 26 102 204
0.121293 -0.134342 -0.27797 26 102 204
0.131944 -0.131402 0.30692 26 102 204
0.126196 -0.135621 0.234081 26 102 204
0.115926 -0.140218 0.407701 26 102 204
0.130333 -0.135342 0.138088 26 102 204
0.13425 -0.13254 0.138171 26 102 204
0.14358 -0.127489 0.486564 26 102 204
-0.0515734 -0.281464 -0.399487 26 102 204
-0.0606589 -0.285118 0.398712 26 102 204
0.129106 -0.139678 0.396089 26 102 204
0.120161 -0.137301 0.403646 26 102 204
-0.0693156 -0.290746 -0.398516 26 102 204
-0.0520029 -0.288699 -0.405844 26 102 204
0.138289 -0.131075 0.282911 26 102 204
0.124779 -0.137659 -0.380125 26 102 204
0.135482 -0.135403 -0.467238 26 102 204
0.140664 -0.123523 -0.0231484 26 102 204
0.00451701 -0.245292 0.40283 26 102 204
0.120779 -0.133568 -0.472619 26 102 204
0.133416 -0.135506 0.267831 26 102 204
0.138745 -0.133376 -0.263881 26 102 204
0.135501 -0.130515 -0.263633 26 102 204
0.137887 -0.135955 -0.464538 26 102 204
0.145933 -0.132356 -0.0825355 26 102 204
0.137028 -0.133981 0.437229 26 102 204
0.140976 -0.133472 0.0764799 26 102 204
-0.0630177 -0.289986 0.408083 26 102 204
0.140324 -0.13782 0.315323 26 102 204
0.131904 -0.141057 0.14736 26 102 204
0.142674 -0.134252 -0.00813285 26 102 204
0.137307 -0.135167 0.360422 26 102 204
0.142946 -0.132552 0.16362 26 102 204
0.138388 -0.135912 -0.330508 26 102 204
0.141021 -0.13412 0.349311 26 102 204
0.139206 -0.13669 0.300537 26 102 204
0.136599 -0.141396 0.0892034 26 102 204
0.146074 -0.136005 -0.139368 26 102 204
0.0234588 -0.228437 -0.419524 26 102 204
0.00427611 -0.258885 0.412946 26 102 204
0.143039 -0.139103 0.100051 26 102 204
0.135658 -0.140602 0.445707 26 102 204
0.13496 -0.143226 -0.32152 26 102 204
0.0578143 -0.212096 0.420419 26 102 204
-0.00563915 -0.253025 0.412692 26 102 204
0.135721 -0.149344 -0.175943 26 102 204
0.136204 -0.145747 0.285928 26 102 204
0.134185 -0.143596 -0.14664 26 102 204
0.145094 -0.139452 -0.418855 26 102 204
0.139856 -0.135181 -0.215492 26 102 204
0.0308994 -0.219944 -0.415017 26 102 204
0.141816 -0.145765 0.362958 26 102 204
0.146622 -0.140215 -0.117956 26 102 204
0.130465 -0.152567 0.413516 26 102 204
0.139335 -0.148396 0.332676 26 102 204
0.14463 -0.142721 -0.351708 26 102 204
0.134211 -0.147574 0.278973 26 102 204
0.143464 -0.148488 0.261516 26 102 204
0.137588 -0.151518 0.439735 26 102 204
0.140723 -0.146678 -0.365541 26 102 204
0.138225 -0.150481 -0.098798 26 102 204
0.13925 -0.149235 0.409679 26 102 204
0.134804 -0.149851 -0.169038 26 102 204
0.137752 -0.143708 0.0247051 26 102 204
0.137047 -0.145969 0.207378 26 102 204
0.142219 -0.148432 -0.0147959 26 102 204
0.142843 -0.149597 0.190169 26 102 204
0.139682 -0.153706 0.262019 26 102 204
0.147404 -0.147628 -0.110952 26 102 204
0.138758 -0.152754 -0.135406 26 102 204
0.136767 -0.153483 -0.217368 26 102 204
0.125703 -0.161241 0.434271 26 102 204
0.150547 -0.15042 0.45872 26 102 204
0.148769 -0.142901 0.45519 26 102 204
0.061436 -0.210188 0.427319 26 102 204
0.14298 -0.159009 0.428944 26 102 204
0.139972 -0.15835 -0.0131879 26 102 204
0.148821 -0.154614 -0.493454 26 102 204
0.152776 -0.15966 0.131941 26 102 204
0.15011 -0.156504 -0.256332 26 102 204
0.143894 -0.164365 0.458033 26 102 204
0.14895 -0.159034 -0.15982 26 102 204
0.139349 -0.167575 0.433875 26 102 204
0.1489 -0.160597 -0.158641 26 102 204
0.0704434 -0.22285 -0.410274 26 102 204
0.150074 -0.160745 0.322742 26 102 204
0.149921 -0.157637 0.480566 26 102 204
0.147003 -0.168946 0.382477 26 102 204
0.0810206 -0.212725 -0.419759 26 102 204
0.145196 -0.1618 0.449886 26 102 204
0.145164 -0.163709 -0.24844 26 102 204
0.0945692 -0.20682 0.422672 26 102 204
0.143675 -0.163043 -0.116436 26 102 204
0.118387 -0.19135 0.405778 26 102 204
0.0816772 -0.214024 -0.394064 26 102 204
0.0905379 -0.207028 0.431033 26 102 204
0.105048 -0.199073 -0.405187 26 102 204
0.14678 -0.164135 -0.0861427 26 102 204
0.138173 -0.173999 -0.0774853 26 102 204
0.152364 -0.163633 -0.00584611 26 102 204
0.146099 -0.166988 0.209209 26 102 204
0.148246 -0.170868 0.0747489 26 102 204
0.149585 -0.17124 -0.335037 26 102 204
0.149557 -0.168309 -0.479677 26 102 204
0.140366 -0.174461 0.277991 26 102 204
0.145345 -0.174464 -0.206936 26 102 204
0.1491 -0.170743 -0.137557 26 102 204
0.153801 -0.167787 -0.501385 26 102 204
0.152624 -0.169251 -0.121784 26 102 204
0.141413 -0.176514 -0.37526 26 102 204
0.136653 -0.178022 0.0969302 26 102 204
0.147279 -0.175083 0.337045 26 102 204
0.144104 -0.177079 0.398519 26 102 204
0.148506 -0.173634 -0.148373 26 102 204
0.145785 -0.176863 -0.117667 26 102 204
0.138618 -0.16434 0.0158859 26 102 204
0.144483 -0.174099 0.150051 26 102 204
0.14505 -0.174566 -0.0833684 26 102 204
0.147972 -0.175528 -0.233496 26 102 204
0.149673 -0.173588 0.162199 26 102 204
0.14879 -0.172189 0.362709 26 102 204
0.154816 -0.172021 0.0932838 26 102 204
0.14596 -0.162964 -0.271541 26 102 204
0.144558 -0.165294 -0.257295 26 102 204
