ply
format ascii 1.0
comment Created by Open3D
element vertex 1024
property double x
property double y
property double z
property uchar red
property uchar green
property uchar blue
end_header
-0.234098 -0.126323 0.0213846 26 102 204
-0.231471 -0.130905 -0.0396167 26 102 204
-0.226634 -0.120861 -0.0355267 26 102 204
-0.2267 -0.119179 0.0459619 26 102 204
-0.230255 -0.11696 0.0568691 26 102 204
-0.219694 -0.126367 0.0271181 26 102 204
-0.230764 -0.118734 0.00101345 26 102 204
-0.223525 -0.122934 0.0373782 26 102 204
-0.222815 -0.118288 -0.0220128 26 102 204
-0.221928 -0.10672 0.031748 26 102 204
-0.22239 -0.113945 -0.035032 26 102 204
-0.221283 -0.111995 0.0243171 26 102 204
-0.219827 -0.113467 0.0920441 26 102 204
-0.222735 -0.108451 -0.0578648 26 102 204
-0.212981 -0.127284 0.0623661 26 102 204
-0.219977 -0.105623 -0.0208217 26 102 204
-0.216884 -0.106985 0.0223316 26 102 204
-0.217819 -0.106273 -0.123652 26 102 204
-0.214887 -0.107531 -0.0711519 26 102 204
-0.211654 -0.109264 0.0508532 26 102 204
-0.218968 -0.100736 -0.114666 26 102 204
-0.212818 -0.100363 0.0412713 26 102 204
-0.21781 -0.10207 -0.0687323 26 102 204
-0.213098 -0.0985694 -0.065778 26 102 204
-0.207047 -0.104215 -0.105644 26 102 204
-0.207044 -0.110502 0.00770151 26 102 204
-0.207727 -0.109237 0.0726631 26 102 204
-0.206686 -0.110919 -0.0976378 26 102 204
-0.205821 -0.107922 -0.065144 26 102 204
0.0156681 -0.45878 0.0914302 26 102 204
-0.041807 -0.364745 0.0953407 26 102 204
-0.206089 -0.104333 -0.0302191 26 102 204
-0.199527 -0.111419 0.0944434 26 102 204
-0.0687032 -0.302458 -0.111679 26 102 204
-0.0362458 -0.37641 -0.11041 26 102 204
-0.00266421 -0.421137 -0.112392 26 102 204
-0.105565 -0.259488 0.107785 26 102 204
-0.1009 -0.26549 0.10811 26 102 204
-0.200589 -0.106996 -0.0925995 26 102 204
-0.202689 -0.0983611 -0.02711 26 102 204
-0.0604425 -0.31907 0.107711 26 102 204
-0.0362706 -0.345255 0.105202 26 102 204
-0.196849 -0.0946148 -0.102668 26 102 204
-0.198946 -0.101614 -0.0439163 26 102 204
-0.205509 -0.085005 0.00344806 26 102 204
-0.206657 -0.0874046 -0.0273851 26 102 204
-0.131858 -0.206134 0.111712 26 102 204
-0.204748 -0.0906663 0.12085 26 102 204
-0.190031 -0.090159 -0.129426 26 102 204
-0.205089 -0.0888058 -0.143721 26 102 204
-0.201207 -0.0905425 0.0416376 26 102 204
-0.206086 -0.0806039 -0.00215825 26 102 204
-0.201106 -0.0894205 -0.0575929 26 102 204
-0.196567 -0.101646 0.131536 26 102 204
-0.152923 -0.151086 0.104502 26 102 204
-0.00187466 -0.42003 -0.109879 26 102 204
-0.196263 -0.0942922 -0.119829 26 102 204
-0.204025 -0.0844484 0.08667 26 102 204
0.0728756 -0.510261 0.0999565 26 102 204
0.0624955 -0.500806 0.100664 26 102 204
-0.193562 -0.0968903 -0.0416366 26 102 204
-0.197525 -0.0892254 0.0130688 26 102 204
-0.195751 -0.0895716 0.096815 26 102 204
-0.195882 -0.0961415 -0.107874 26 102 204
0.0210172 -0.441419 -0.0983375 26 102 204
-0.191591 -0.100249 0.149568 26 102 204
-0.194177 -0.0897519 0.0294768 26 102 204
-0.193177 -0.0943999 -0.0905311 26 102 204
-0.189358 -0.0980147 0.134848 26 102 204
-0.18551 -0.0906385 -0.134254 26 102 204
-0.00992816 -0.382588 0.108586 26 102 204
-0.193446 -0.0905401 0.14209 26 102 204
0.00597474 -0.410021 0.115128 26 102 204
0.0504157 -0.467982 -0.109066 26 102 204
-0.190494 -0.0841201 0.0318264 26 102 204
-0.192909 -0.0818816 -0.116303 26 102 204
-0.186054 -0.0960029 -0.12113 26 102 204
-0.167995 -0.125169 0.113458 26 102 204
-0.171708 -0.114665 -0.127501 26 102 204
0.0611554 -0.476695 0.0774427 26 102 204
2.35642e-05 -0.387662 0.100082 26 102 204
-0.193639 -0.0797898 0.0281653 26 102 204
-0.152727 -0.151876 0.122213 26 102 204
-0.188829 -0.0865448 0.0648856 26 102 204
-0.185716 -0.0852636 -0.0919524 26 102 204
-0.195476 -0.0726976 -0.070039 26 102 204
-0.194265 -0.0759135 0.124836 26 102 204
0.0355672 -0.444171 0.115451 26 102 204
-0.190538 -0.0807777 -0.116815 26 102 204
-0.187265 -0.0799911 -0.133452 26 102 204
-0.188995 -0.0819246 -0.121124 26 102 204
-0.182899 -0.0889718 -0.0426765 26 102 204
-0.183444 -0.085395 -0.0671248 26 102 204
-0.194458 -0.0685817 -0.0426539 26 102 204
-0.192317 -0.0731487 0.118056 26 102 204
-0.170401 -0.108403 -0.103828 26 102 204
-0.190907 -0.0727636 0.080051 26 102 204
-0.187641 -0.0775102 0.00746206 26 102 204
-0.176968 -0.0945814 0.0851624 26 102 204
-0.18295 -0.0836007 -0.0376937 26 102 204
-0.183723 -0.0792868 -0.0859544 26 102 204
-0.183923 -0.0774455 -0.0487522 26 102 204
-0.183388 -0.0827551 0.0330909 26 102 204
-0.189798 -0.0723927 -0.0583853 26 102 204
-0.188035 -0.0684023 -0.0716403 26 102 204
-0.179443 -0.0743934 -0.110483 26 102 204
-0.188412 -0.0728202 0.0853912 26 102 204
-0.18304 -0.0819978 0.124117 26 102 204
-0.183862 -0.0774182 -0.0922734 26 102 204
-0.186798 -0.0706828 -0.124323 26 102 204
-0.185784 -0.0708954 0.163219 26 102 204
-0.156076 -0.124586 0.104374 26 102 204
-0.184101 -0.0743117 -0.139918 26 102 204
-0.186842 -0.0596148 -0.144411 26 102 204
-0.180524 -0.0827897 0.0033836 26 102 204
-0.183837 -0.0707404 0.101188 26 102 204
-0.184909 -0.0662015 0.0107864 26 102 204
0.0841924 -0.485154 0.108201 26 102 204
-0.179915 -0.077013 -0.141699 26 102 204
-0.183775 -0.0690847 -0.0515015 26 102 204
-0.179263 -0.0697218 -0.0154024 26 102 204
-0.170246 -0.0639462 -0.176988 26 102 204
-0.173844 -0.0757401 -0.096826 26 102 204
-0.185492 -0.0608015 -0.0817048 26 102 204
-0.184817 -0.0578935 0.0174706 26 102 204
-0.159835 -0.0990567 -0.101821 26 102 204
-0.185247 -0.0617159 0.069259 26 102 204
-0.182109 -0.063522 0.129074 26 102 204
-0.178785 -0.0736264 0.0316071 26 102 204
-0.174544 -0.060332 -0.130102 26 102 204
-0.145811 -0.115807 0.103462 26 102 204
-0.179636 -0.0645262 -0.0278978 26 102 204
-0.181785 -0.0646886 0.0449876 26 102 204
0.0885367 -0.481188 -0.131956 26 102 204
-0.167605 -0.0882253 -0.114009 26 102 204
-0.16772 -0.0802702 0.0697113 26 102 204
-0.172437 -0.0667922 -0.0498036 26 102 204
-0.173557 -0.069175 0.109658 26 102 204
-0.164735 -0.0778777 0.111187 26 102 204
-0.169591 -0.0759258 0.0455007 26 102 204
-0.183211 -0.0420675 -0.0281149 26 102 204
-0.168843 -0.0739628 -0.035302 26 102 204
-0.174043 -0.0689332 0.0220426 26 102 204
0.0963449 -0.498018 0.0778972 26 102 204
-0.170982 -0.0696101 -0.026272 26 102 204
-0.177974 -0.0554409 0.126061 26 102 204
0.0588798 -0.440857 -0.0989892 26 102 204
-0.171934 -0.0698856 -0.0809486 26 102 204
0.0896723 -0.484695 0.0961551 26 102 204
-0.171409 -0.0650433 0.00651251 26 102 204
-0.179157 -0.0553091 0.0780806 26 102 204
-0.1234 -0.143284 0.108406 26 102 204
0.0950483 -0.467386 0.128249 26 102 204
0.108448 -0.494814 0.10509 26 102 204
-0.173733 -0.0470756 0.0770546 26 102 204
-0.171259 -0.0712688 -0.0647455 26 102 204
-0.170939 -0.0685904 -0.00939975 26 102 204
-0.168556 -0.0622747 -0.140851 26 102 204
-0.167715 -0.0609488 0.0326074 26 102 204
-0.167492 -0.0675072 0.105803 26 102 204
-0.171512 -0.0443488 -0.0609985 26 102 204
-0.166557 -0.0634469 0.129408 26 102 204
0.118577 -0.504864 0.0925748 26 102 204
-0.174135 -0.0565211 0.0830893 26 102 204
-0.173573 -0.0552016 0.144548 26 102 204
-0.173879 -0.0533998 0.0673801 26 102 204
-0.170594 -0.0549203 -0.00826327 26 102 204
0.103384 -0.485665 0.138473 26 102 204
-0.168815 -0.0525505 -0.00709671 26 102 204
-0.158931 -0.0585957 0.148548 26 102 204
-0.163358 -0.0598082 0.122445 26 102 204
-0.167084 -0.0565527 -0.0164042 26 102 204
-0.163932 -0.0575254 -0.0792804 26 102 204
-0.15526 -0.0570533 -0.161135 26 102 204
-0.158706 -0.05902 0.00723605 26 102 204
-0.163559 -0.0480684 0.0556579 26 102 204
-0.159037 -0.0545992 -0.0970672 26 102 204
0.103848 -0.484386 -0.160731 26 102 204
-0.155021 -0.0515178 -0.0412669 26 102 204
-0.161823 -0.0513123 0.132544 26 102 204
-0.159308 -0.0543024 0.01554 26 102 204
-0.161444 -0.0547796 0.0909084 26 102 204
-0.154437 -0.0471993 -0.100465 26 102 204
-0.162886 -0.0342187 0.0953841 26 102 204
-0.156796 -0.0540075 -0.103752 26 102 204
0.134425 -0.495082 0.122545 26 102 204
-0.151809 -0.0485379 0.0749408 26 102 204
-0.15655 -0.046673 -0.0919323 26 102 204
-0.151412 -0.0475239 -0.143647 26 102 204
-0.151048 -0.0425839 -0.0401843 26 102 204
-0.153056 -0.0436563 0.067729 26 102 204
-0.159922 -0.0395461 0.0958062 26 102 204
-0.156163 -0.0430139 -0.115237 26 102 204
-0.156094 -0.0288078 -0.0831425 26 102 204
-0.154156 -0.0424087 -0.146338 26 102 204
-0.152497 -0.0429465 -0.0211561 26 102 204
-0.156931 -0.0186847 0.164773 26 102 204
-0.149861 -0.0479056 -0.153514 26 102 204
-0.165551 -0.0459581 -0.112746 26 102 204
-0.150229 -0.041899 -0.132427 26 102 204
-0.145435 -0.0409391 0.0640721 26 102 204
-0.155359 -0.0341761 -0.157334 26 102 204
-0.148528 -0.0374321 0.114758 26 102 204
-0.149347 -0.0404343 0.00798221 26 102 204
-0.146983 -0.0364448 0.0517593 26 102 204
-0.146958 -0.0460482 0.00866335 26 102 204
-0.154045 -0.0340143 0.064255 26 102 204
-0.149551 -0.0319906 0.132085 26 102 204
-0.146018 -0.0432473 -0.0593473 26 102 204
-0.146479 -0.044191 0.0110216 26 102 204
-0.147003 -0.0427543 0.105723 26 102 204
0.139921 -0.494961 0.152914 26 102 204
0.123051 -0.477572 -0.155626 26 102 204
-0.148901 -0.0399816 0.0872681 26 102 204
-0.140798 -0.0419093 0.000137745 26 102 204
-0.149254 -0.0360261 0.0626445 26 102 204
-0.140456 -0.0458006 0.0588261 26 102 204
-0.142072 -0.0372448 0.0493032 26 102 204
-0.147529 -0.0322297 0.0959245 26 102 204
-0.145365 -0.0334371 -0.142236 26 102 204
-0.146892 -0.0337578 0.0510671 26 102 204
-0.13326 -0.0455224 0.127204 26 102 204
-0.138411 -0.0352191 0.0488775 26 102 204
-0.146826 -0.025912 -0.178845 26 102 204
-0.142926 -0.0241635 -0.0725313 26 102 204
-0.141022 -0.0276384 0.0641953 26 102 204
0.101104 -0.40419 0.00861437 26 102 204
-0.139303 -0.0392525 0.00569034 26 102 204
-0.132538 -0.0353898 0.068682 26 102 204
-0.137891 -0.0359832 -0.173753 26 102 204
-0.13972 -0.030743 0.134861 26 102 204
-0.141052 -0.0318168 -0.061831 26 102 204
-0.134868 -0.0332689 -0.108836 26 102 204
0.119644 -0.418128 -0.166915 26 102 204
0.13033 -0.452612 -0.163018 26 102 204
-0.137821 -0.0318704 -0.183485 26 102 204
0.104832 -0.433018 -0.141835 26 102 204
-0.139981 -0.0317383 -0.0482804 26 102 204
-0.133971 -0.0352813 0.0981736 26 102 204
-0.136546 -0.0300504 -0.154458 26 102 204
-0.122706 -0.0429905 0.0895628 26 102 204
-0.13579 -0.0326603 0.0422553 26 102 204
-0.139551 -0.0139667 0.068872 26 102 204
-0.131083 -0.0355415 0.0669342 26 102 204
-0.13326 -0.0283433 -0.159443 26 102 204
-0.135467 -0.0282592 0.0847521 26 102 204
-0.131658 -0.0289746 -0.0982923 26 102 204
-0.128587 -0.0317741 -0.0138576 26 102 204
-0.120971 -0.0331252 -0.0534644 26 102 204
-0.136544 -0.0216063 -0.112459 26 102 204
-0.125102 -0.0296351 -0.144788 26 102 204
-0.128863 -0.0310704 0.0497649 26 102 204
-0.128744 -0.0307785 -0.0367035 26 102 204
-0.128371 -0.030294 -0.155947 26 102 204
-0.126196 -0.0343013 0.0552444 26 102 204
-0.115755 -0.0299247 0.158838 26 102 204
-0.132436 -0.0202446 -0.141629 26 102 204
-0.128654 -0.0297249 -0.128223 26 102 204
-0.129645 -0.0266382 -0.0457042 26 102 204
-0.123151 -0.0347093 0.083188 26 102 204
-0.126058 -0.0231853 -0.0481979 26 102 204
-0.130917 -0.0204393 -0.183094 26 102 204
0.0962316 -0.391278 -0.154175 26 102 204
0.0703388 -0.342708 -0.14927 26 102 204
-0.122967 -0.0305042 -0.000460263 26 102 204
-0.120812 -0.0301982 -0.0380588 26 102 204
-0.122535 -0.0254379 -0.00436572 26 102 204
-0.124235 -0.0200842 -0.076243 26 102 204
-0.130021 -0.0139795 -0.154996 26 102 204
0.0525749 -0.296255 -0.173248 26 102 204
-0.131737 -0.00160421 -0.0947548 26 102 204
-0.118332 -0.0293558 -0.100216 26 102 204
-0.121693 -0.0197228 -0.0316937 26 102 204
-0.128538 0.00311969 0.125675 26 102 204
-0.121566 -0.00978804 -0.130778 26 102 204
-0.116773 -0.0206463 -0.0428177 26 102 204
-0.114752 -0.0216886 0.0576889 26 102 204
-0.122486 -0.0156467 -0.150897 26 102 204
-0.12206 -0.00896323 -0.0053341 26 102 204
-0.118961 -0.0189311 0.194831 26 102 204
-0.105893 -0.0337108 -0.0665991 26 102 204
-0.114094 -0.0259451 0.0138759 26 102 204
-0.112414 -0.0200696 0.108368 26 102 204
0.0931952 -0.3497 -0.148257 26 102 204
-0.111011 -0.0290814 0.144159 26 102 204
0.0318561 -0.249274 -0.166837 26 102 204
-0.111636 -0.0239143 -0.126177 26 102 204
-0.110554 -0.0291559 -0.162841 26 102 204
-0.114848 -0.020486 0.152718 26 102 204
-0.12043 -0.00886916 0.0939692 26 102 204
-0.112763 -0.0254756 -0.0604631 26 102 204
-0.116289 -0.0148077 -0.207738 26 102 204
-0.112199 -0.0221458 -0.101237 26 102 204
-0.113756 -0.0184662 0.167696 26 102 204
-0.113836 -0.0184164 -0.00255393 26 102 204
-0.108606 -0.0261669 0.105137 26 102 204
-0.1137 -0.0165569 -0.148199 26 102 204
-0.109602 -0.0219425 -0.000200723 26 102 204
-0.112804 -0.015201 -0.0604718 26 102 204
-0.115647 -0.012704 -0.115615 26 102 204
-0.107215 -0.0244862 -0.133371 26 102 204
-0.11534 -0.00847491 0.149462 26 102 204
-0.113193 -0.0117397 0.134058 26 102 204
-0.115186 -0.00846341 0.042505 26 102 204
-0.105409 -0.00885546 0.0507336 26 102 204
-0.110103 -0.0134683 0.0560699 26 102 204
-0.110433 -0.0152124 -0.0494275 26 102 204
-0.103753 -0.02097 0.0134528 26 102 204
-0.109104 -0.0136561 0.112864 26 102 204
-0.109114 -0.0113399 -0.0576848 26 102 204
-0.103454 -0.0180844 -0.089391 26 102 204
-0.101481 -0.0195631 0.000411462 26 102 204
-0.111977 -0.00677436 -0.0154085 26 102 204
-0.106067 -0.0139148 -0.0151812 26 102 204
-0.107138 -0.0118578 0.160348 26 102 204
-0.108038 -0.00511282 -0.0593664 26 102 204
-0.10548 -0.0116581 0.0177555 26 102 204
-0.109841 -0.00293747 -0.0033319 26 102 204
-0.103213 -0.0133614 -0.176829 26 102 204
-0.108848 -0.00487626 0.0858728 26 102 204
-0.0999001 -0.0135953 -0.0682435 26 102 204
-0.105996 -0.00985693 -0.190954 26 102 204
-0.109013 0.00819414 -0.0857485 26 102 204
-0.105391 -0.0075632 0.201281 26 102 204
-0.102669 -0.0108042 -0.0240325 26 102 204
0.0942741 -0.45523 -0.0879385 26 102 204
-0.0870472 -0.0288256 -0.0994246 26 102 204
-0.107117 0.00541434 0.112596 26 102 204
-0.100297 -0.00717144 -0.054643 26 102 204
-0.10607 -0.00300407 0.110195 26 102 204
-0.105427 -0.00429784 0.149067 26 102 204
-0.104153 0.00398039 0.12874 26 102 204
-0.10251 -0.00793961 -0.130861 26 102 204
-0.101112 -0.000253703 0.0533553 26 102 204
-0.0994831 -0.00569642 -0.0821929 26 102 204
-0.100584 -0.00565452 0.179489 26 102 204
-0.0985775 -0.00401601 -0.216096 26 102 204
-0.103804 0.000774402 0.0112161 26 102 204
-0.106711 0.02146 -0.0422463 26 102 204
-0.0979062 -0.00571661 0.150112 26 102 204
-0.092633 -0.00596569 0.198058 26 102 204
-0.0928016 -0.00664172 -0.00707142 26 102 204
-0.0894412 -0.0133465 -0.0348517 26 102 204
-0.0940063 -0.00900018 0.153338 26 102 204
-0.0961395 -0.00938985 -0.129107 26 102 204
-0.100832 -0.00136727 -0.187496 26 102 204
-0.0857068 -0.00273306 -0.10815 26 102 204
-0.0930372 -0.0062297 0.0907046 26 102 204
-0.0928119 -0.00402392 0.0865699 26 102 204
-0.0926974 -0.00146507 -0.126617 26 102 204
-0.0948119 0.00117709 -0.0321042 26 102 204
-0.0957724 0.00797456 -0.152292 26 102 204
-0.0956164 0.00827286 -0.067443 26 102 204
-0.0958695 0.00836034 0.0691508 26 102 204
-0.0908608 0.000936511 0.0275764 26 102 204
-0.0926667 0.00201587 0.167075 26 102 204
-0.0885901 -0.0029677 -0.104114 26 102 204
-0.0939352 0.0119082 0.180738 26 102 204
-0.0898839 0.000401966 0.149081 26 102 204
-0.0850497 -0.00190458 0.00515241 26 102 204
-0.0920696 0.00796708 0.186276 26 102 204
-0.0843782 0.00137932 0.0572695 26 102 204
-0.0870631 0.00202239 -0.186002 26 102 204
-0.0863006 0.00251049 -0.0943799 26 102 204
-0.08606 0.00359667 -0.205947 26 102 204
-0.0843343 6.95116e-05 0.14552 26 102 204
-0.0842515 0.00407347 0.0109743 26 102 204
-0.0809906 -0.00257148 -0.0996863 26 102 204
-0.0830055 0.00326921 0.169378 26 102 204
-0.0815538 0.00249381 0.0468392 26 102 204
-0.0823696 0.00795128 -0.138515 26 102 204
-0.0798111 0.00277121 -0.00686114 26 102 204
-0.0831837 0.00676374 -0.115808 26 102 204
-0.0800869 0.00590718 -0.0280908 26 102 204
-0.0782364 0.00305217 -0.0997564 26 102 204
-0.0871179 0.0204754 -0.0790364 26 102 204
-0.0806746 0.00922316 -0.198031 26 102 204
-0.0822372 0.00954744 0.139172 26 102 204
-0.0824999 0.013699 0.00131826 26 102 204
-0.0778233 0.00611048 0.169634 26 102 204
-0.0780767 0.00800863 -0.113915 26 102 204
-0.0769231 0.00662179 -0.223679 26 102 204
-0.0800701 0.0128853 0.181211 26 102 204
-0.0781367 0.008868 -0.124223 26 102 204
-0.0756949 0.00652806 0.150427 26 102 204
-0.0766747 0.0101885 0.192575 26 102 204
-0.0767529 0.0111055 0.0260311 26 102 204
-0.0744611 0.00556408 0.225149 26 102 204
-0.0766916 0.0127312 -0.0364187 26 102 204
-0.0727021 0.00949619 -0.0145795 26 102 204
-0.0730597 0.00765559 0.0664427 26 102 204
-0.0691028 0.00677394 0.0277666 26 102 204
-0.0755365 0.0147465 -0.113391 26 102 204
-0.0664419 0.00245989 0.101371 26 102 204
-0.0717077 0.0113912 0.0307957 26 102 204
-0.0748509 0.0137081 0.152864 26 102 204
-0.0732023 0.0127474 0.0724489 26 102 204
-0.0771921 0.0168946 -0.0339427 26 102 204
-0.0735619 0.0130079 0.0234299 26 102 204
-0.0744728 0.0130228 -0.212297 26 102 204
-0.0722705 0.0105064 0.186477 26 102 204
-0.0742339 0.0137734 -0.0639969 26 102 204
-0.073437 0.0158426 0.158952 26 102 204
-0.0729482 0.0163187 -0.0163675 26 102 204
-0.0684204 0.0135486 -0.0965005 26 102 204
-0.0725546 0.0184249 -0.154923 26 102 204
-0.0725142 0.012194 -0.0739196 26 102 204
-0.0727336 0.0185756 0.0759227 26 102 204
-0.0702744 0.0109917 -0.0902306 26 102 204
-0.0651076 0.013092 0.0231617 26 102 204
-0.0710986 0.0219953 -0.0477032 26 102 204
-0.067663 0.0168237 0.0786101 26 102 204
-0.0724319 0.00746943 -0.0156606 26 102 204
-0.0694541 0.0179771 -0.0829448 26 102 204
-0.0695983 0.0203767 0.0657008 26 102 204
-0.066705 0.0164641 0.130067 26 102 204
-0.0682606 0.0163838 -0.109671 26 102 204
-0.0662401 0.0181339 0.128739 26 102 204
-0.059667 0.00809269 0.182158 26 102 204
-0.0656285 0.015885 0.0948503 26 102 204
-0.0671534 0.0178433 -0.236409 26 102 204
-0.0677157 0.0176119 -0.118424 26 102 204
-0.0656054 0.0142376 0.0687794 26 102 204
-0.0600966 0.00974272 -0.0549558 26 102 204
-0.0622276 0.0130623 -0.102774 26 102 204
-0.0603403 0.0130983 0.112533 26 102 204
-0.0632997 0.0151536 -0.208972 26 102 204
-0.0648708 0.0197768 -0.170044 26 102 204
-0.0597117 0.0171985 0.0174491 26 102 204
-0.0603335 0.0168339 0.0703764 26 102 204
-0.0571621 0.0187499 -0.0712032 26 102 204
-0.063088 0.0217085 -0.133325 26 102 204
-0.0594078 0.0206503 -0.101369 26 102 204
-0.0548702 0.0158003 0.210414 26 102 204
-0.0615948 0.0248495 -0.0309346 26 102 204
-0.0612106 0.0266455 -0.0509828 26 102 204
-0.0588945 0.0234662 0.144251 26 102 204
-0.0512426 0.0115069 -0.0363643 26 102 204
-0.0612749 0.0266778 0.0552005 26 102 204
-0.0601854 0.020493 0.105041 26 102 204
-0.0540437 0.0197655 -0.0732866 26 102 204
-0.054352 0.0217053 -0.082384 26 102 204
-0.0544063 0.0217171 0.069906 26 102 204
-0.0559819 0.0275428 0.00154344 26 102 204
-0.0683611 0.0140532 -0.191319 26 102 204
-0.0571857 0.0310613 0.206526 26 102 204
-0.0535612 0.0229255 -0.0981226 26 102 204
-0.0568867 0.0254001 0.187156 26 102 204
-0.055971 0.0226582 -0.15707 26 102 204
-0.0476762 0.0212534 0.237774 26 102 204
-0.0545135 0.0262579 -0.191663 26 102 204
-0.0519267 0.0242418 0.142156 26 102 204
-0.0459865 0.0193543 0.154393 26 102 204
-0.0507001 0.0213402 0.035871 26 102 204
-0.0501899 0.0246606 0.130009 26 102 204
-0.0486258 0.0249032 -0.0794892 26 102 204
-0.0434117 0.0185528 -0.0970912 26 102 204
-0.0478502 0.0234541 -0.0803578 26 102 204
-0.0446632 0.0219405 -0.000198778 26 102 204
-0.0298825 0.00599669 0.169362 26 102 204
-0.0488422 0.0276385 -0.223637 26 102 204
-0.0456603 0.029064 -0.0234752 26 102 204
-0.0415617 0.0206705 0.0346722 26 102 204
-0.0504564 0.0248465 0.189903 26 102 204
-0.0431992 0.0250509 0.117983 26 102 204
-0.0382609 0.0230181 -0.0609769 26 102 204
-0.0436291 0.0290214 0.0440937 26 102 204
-0.0412064 0.0265419 0.171515 26 102 204
-0.0363489 0.0112671 -0.00653093 26 102 204
-0.0395698 0.0274763 0.0840906 26 102 204
-0.0443386 0.0328222 -0.133166 26 102 204
-0.0437648 0.0344397 -0.0278806 26 102 204
-0.0385621 0.030076 0.106346 26 102 204
-0.037427 0.0285761 0.0302898 26 102 204
0.00273592 -0.0382126 0.0348535 26 102 204
-0.0336564 0.0227889 0.21543 26 102 204
-0.0204499 0.00380028 -0.0132861 26 102 204
0.00237897 -0.0288177 -0.0113258 26 102 204
0.00721245 -0.033982 0.00516773 26 102 204
0.0258154 -0.0674505 0.00870982 26 102 204
-0.0259977 0.0203735 0.0543137 26 102 204
-0.040125 0.0422512 0.0438381 26 102 204
-0.0198477 0.010989 0.0185757 26 102 204
0.00944334 -0.0321051 0.00584698 26 102 204
-0.0188586 0.0125512 0.00028349 26 102 204
-0.0352723 0.0363114 0.151259 26 102 204
0.0236054 -0.0608563 -0.0197565 26 102 204
-0.0297622 0.0321342 0.180928 26 102 204
-0.0256774 0.0224038 0.0105984 26 102 204
0.0681739 -0.12976 -0.00415389 26 102 204
-0.0320555 0.0340213 0.0468229 26 102 204
0.0336311 -0.0654906 0.00525701 26 102 204
-0.0302744 0.0287685 0.0774044 26 102 204
-0.036221 0.0409949 -0.181181 26 102 204
-0.0275802 0.0314413 -0.153383 26 102 204
-0.0329836 0.039354 0.0121639 26 102 204
-0.0312153 0.034517 -0.162492 26 102 204
-0.0232711 0.0260015 -0.00768579 26 102 204
-0.0288049 0.0312087 -0.0388843 26 102 204
-0.0255032 0.0325861 -0.0138176 26 102 204
-0.0260197 0.0320645 -0.0144257 26 102 204
-0.0274296 0.0370991 -0.0982775 26 102 204
-0.0309817 0.041484 -0.210766 26 102 204
-0.025074 0.0340199 -0.0736938 26 102 204
-0.0235059 0.0308564 -0.10471 26 102 204
-0.022349 0.0303822 0.0900607 26 102 204
-0.0370831 0.0281136 -0.103038 26 102 204
0.013173 -0.0249117 0.0142068 26 102 204
-0.0234043 0.0347064 0.0232717 26 102 204
-0.0224187 0.0324862 -0.0575382 26 102 204
-0.0236053 0.0343225 -0.0519111 26 102 204
0.0240204 -0.0407025 -0.00404725 26 102 204
0.0519704 -0.0870951 -0.00852443 26 102 204
-0.0257009 0.0414422 -0.193783 26 102 204
-0.0189338 0.0308227 -0.0799772 26 102 204
0.0293602 -0.0442833 -0.00010537 26 102 204
0.049357 -0.0779834 -0.0184548 26 102 204
-0.0110166 0.0206168 -0.0109195 26 102 204
0.00231563 0.00111875 0.00791583 26 102 204
-0.0221306 0.039935 0.071474 26 102 204
0.0183094 -0.0517212 -0.0224219 26 102 204
-0.018668 0.0353153 -0.0165988 26 102 204
-0.0227703 0.0438292 0.114357 26 102 204
-0.0178976 0.0353281 0.0394593 26 102 204
-0.00749989 0.0185074 -0.0181257 26 102 204
-0.0162729 0.0348717 0.0770522 26 102 204
0.0255508 -0.0375265 -0.0370177 26 102 204
-0.0158268 0.0363521 -0.0838119 26 102 204
0.0378712 -0.0505321 0.00779111 26 102 204
-0.0147501 0.0336349 0.0850349 26 102 204
-0.0194579 0.0425387 -0.152032 26 102 204
-0.0206783 0.0456351 0.000403493 26 102 204
-0.0104342 0.0327087 -0.00386274 26 102 204
-0.0138493 0.0353181 0.00564639 26 102 204
-0.0237091 0.0482195 -0.151194 26 102 204
0.0432896 -0.054156 0.00184626 26 102 204
-0.0142938 0.039517 0.0368219 26 102 204
-0.0156971 0.041054 -0.0446154 26 102 204
-0.0140214 0.040731 0.0305302 26 102 204
-0.0186427 0.0495011 -0.166645 26 102 204
0.0503726 -0.056396 -0.00103887 26 102 204
0.0614021 -0.078849 0.00860206 26 102 204
0.0553745 -0.0650675 -0.0070525 26 102 204
-0.0170558 0.0478288 -0.122555 26 102 204
-0.0170517 0.0492717 -0.178071 26 102 204
0.0331747 -0.0163126 -0.00717869 26 102 204
-0.0120417 0.0409549 0.0584515 26 102 204
-0.00877047 0.0391429 -0.064942 26 102 204
0.0125927 0.00638771 -0.00252375 26 102 204
0.0278848 -0.0179796 0.0228298 26 102 204
-0.00818946 0.0353233 -0.120996 26 102 204
-0.0121971 0.0453429 0.20145 26 102 204
-0.00736811 0.0420125 -0.0165494 26 102 204
0.000326136 0.02755 0.0162293 26 102 204
0.00132341 0.0253673 0.0196591 26 102 204
-0.0122409 0.0501611 0.143383 26 102 204
-0.00460194 0.0628362 0.169975 26 102 204
-0.00942458 0.0417745 -0.138996 26 102 204
0.0195625 -0.00383396 0.00735657 26 102 204
-0.00696467 0.0443524 -0.0404259 26 102 204
-0.0172156 0.0544145 0.09023 26 102 204
0.0363325 0.0026134 -0.00447232 26 102 204
0.0574218 -0.0578067 0.00280529 26 102 204
-0.00530844 0.0420227 -0.0843738 26 102 204
-0.00598394 0.0440478 0.105959 26 102 204
0.0343761 -0.0197987 0.0113808 26 102 204
0.0288763 -0.00960589 0.00340122 26 102 204
-0.00472663 0.0462931 0.159682 26 102 204
0.0123063 0.0179865 0.0324873 26 102 204
-0.00436431 0.0443317 -0.0866728 26 102 204
-0.00172631 0.041959 0.0187786 26 102 204
0.0382478 -0.0220861 0.00447935 26 102 204
-0.00446118 0.0495513 0.0394095 26 102 204
0.00236877 0.0369154 0.0178507 26 102 204
-0.000905961 0.0452643 0.16593 26 102 204
-0.0178164 0.0534373 -0.182682 26 102 204
-0.0213635 0.059789 -0.0548779 26 102 204
-0.00207767 0.0507919 0.0783465 26 102 204
-0.00324156 0.0500641 0.193343 26 102 204
0.000933328 0.0458388 0.191217 26 102 204
-0.00285306 0.0534675 -0.0115894 26 102 204
-0.00458272 0.0569652 -0.117731 26 102 204
-0.00299692 0.0550175 0.149806 26 102 204
-0.00223705 0.0592399 -0.096083 26 102 204
-0.00228207 0.0496265 -0.049788 26 102 204
-0.0103725 0.0619072 -0.00724447 26 102 204
-0.00396823 0.0605985 -0.190037 26 102 204
-0.0054921 0.0539768 0.00949194 26 102 204
0.00036063 0.0538926 -0.0910963 26 102 204
0.00309161 0.048611 0.0433602 26 102 204
-0.00708417 0.0669618 0.0058692 26 102 204
0.000631825 0.0569478 0.0800409 26 102 204
-0.000173645 0.0570335 -0.0638079 26 102 204
-0.00118548 0.0627145 0.143567 26 102 204
-0.00788678 0.0638385 -0.0147165 26 102 204
0.002936 0.0503353 -0.0385571 26 102 204
0.00812843 0.0449499 0.10854 26 102 204
0.00770898 0.0501221 0.114392 26 102 204
0.00178754 0.0564596 0.213998 26 102 204
0.0046244 0.0618938 0.19571 26 102 204
0.00341925 0.0509721 0.177421 26 102 204
0.00718569 0.0588823 -0.00203187 26 102 204
0.00709428 0.056196 -0.167984 26 102 204
0.00762667 0.0616587 0.0788294 26 102 204
0.0112905 0.0579293 0.119319 26 102 204
0.00445908 0.0657763 -0.201383 26 102 204
0.00682214 0.0659736 0.0829023 26 102 204
0.0108121 0.0581401 -0.0607203 26 102 204
0.00731885 0.0656523 0.202404 26 102 204
0.00555312 0.0667885 -0.0188315 26 102 204
0.00721376 0.0573297 0.155822 26 102 204
0.010278 0.0617858 -0.165659 26 102 204
0.0127794 0.0536956 -0.0693107 26 102 204
0.0119314 0.0642237 -0.149369 26 102 204
0.0109079 0.0662235 0.160064 26 102 204
0.00883604 0.0706586 0.0481175 26 102 204
0.0145831 0.0596205 0.0444595 26 102 204
0.0114031 0.0614551 -0.0306518 26 102 204
0.0109662 0.0676619 0.169045 26 102 204
0.00750042 0.0618147 0.211874 26 102 204
0.0121272 0.0692238 -0.132728 26 102 204
0.0103518 0.0699435 -0.0454348 26 102 204
0.00735564 0.0656733 0.0245886 26 102 204
0.0192567 0.0445782 -0.0766223 26 102 204
0.0363658 0.0731801 -0.15156 26 102 204
0.0189761 0.0579756 -0.0523371 26 102 204
0.0195534 0.0620838 0.0231172 26 102 204
0.0174801 0.0679821 -0.0310811 26 102 204
0.0165262 0.0673486 0.151887 26 102 204
0.00805554 0.0618052 0.159844 26 102 204
0.0141997 0.0711534 -0.135854 26 102 204
0.0171653 0.0655849 -0.044383 26 102 204
0.0162908 0.0691109 0.162198 26 102 204
0.019277 0.062821 -0.076118 26 102 204
0.0210099 0.0602853 0.126227 26 102 204
0.0160935 0.0733902 0.003375 26 102 204
0.0195657 0.0729583 0.0677948 26 102 204
0.0182758 0.0738275 -0.108084 26 102 204
0.0120792 0.069795 0.155584 26 102 204
0.0230627 0.0683412 0.101896 26 102 204
0.0130762 0.073534 0.0758297 26 102 204
0.0255095 0.0643167 -0.0562479 26 102 204
0.0252596 0.0700949 -0.062134 26 102 204
0.0222181 0.071808 0.134084 26 102 204
0.0257696 0.0675557 -0.132049 26 102 204
0.023822 0.0721188 -0.200488 26 102 204
0.0243023 0.0713584 -0.0646957 26 102 204
0.0253709 0.0740947 0.130614 26 102 204
0.0252609 0.0728046 0.00950128 26 102 204
0.0236875 0.068528 -0.175427 26 102 204
0.0285966 0.067989 0.0890967 26 102 204
0.0263116 0.0735829 -0.051131 26 102 204
0.0193658 0.0791873 -0.0079218 26 102 204
0.0260763 0.0768599 -0.0929281 26 102 204
0.0280768 0.0705791 -0.0930833 26 102 204
0.0339012 0.0525709 -0.172068 26 102 204
0.0303481 0.071765 0.137269 26 102 204
0.028762 0.0723593 0.0454741 26 102 204
0.0236346 0.0681257 0.147646 26 102 204
0.0267669 0.0774766 0.173856 26 102 204
0.0325153 0.0685757 -0.144758 26 102 204
0.0352195 0.0665318 -0.101225 26 102 204
0.0186576 0.0821812 -0.129324 26 102 204
0.0298928 0.0734306 -0.199176 26 102 204
0.0342009 0.0710994 0.19235 26 102 204
0.031895 0.0755729 0.0188314 26 102 204
0.0357419 0.069816 -0.0625554 26 102 204
0.0321095 0.0770972 -0.0842581 26 102 204
0.0366601 0.073465 0.152092 26 102 204
0.0366772 0.0739116 -0.141884 26 102 204
0.036116 0.0745437 0.139404 26 102 204
0.0359894 0.0751227 -0.182138 26 102 204
0.0405856 0.0716904 0.141366 26 102 204
0.0374812 0.0775704 -0.155581 26 102 204
0.0385421 0.0796899 0.171267 26 102 204
0.0448593 0.0646032 -0.136361 26 102 204
0.0430846 0.0675136 -0.145311 26 102 204
0.0348665 0.0799929 -0.0114447 26 102 204
0.0374661 0.0830319 -0.0356174 26 102 204
0.0362546 0.084911 -0.0811389 26 102 204
0.0412333 0.0814219 0.19573 26 102 204
0.0364824 0.0860534 -0.207071 26 102 204
0.0405996 0.0781312 0.0557909 26 102 204
0.0398089 0.0845343 -0.178586 26 102 204
0.044281 0.0771529 0.0908455 26 102 204
0.0430118 0.0798165 0.0816223 26 102 204
0.0375443 0.0730519 0.110652 26 102 204
0.0496725 0.0732802 -0.134583 26 102 204
0.0429713 0.0783181 0.00034177 26 102 204
0.0348197 0.083797 -0.0232125 26 102 204
0.0500484 0.0784862 -0.0071581 26 102 204
0.0461821 0.078797 0.0892985 26 102 204
0.0450327 0.0829538 -0.148471 26 102 204
0.0489232 0.0848407 0.212578 26 102 204
0.0488474 0.0841833 0.0179334 26 102 204
0.0441477 0.0834373 -0.0515815 26 102 204
0.0537234 0.0849573 -0.127517 26 102 204
0.0542275 0.0809876 0.0043411 26 102 204
0.0468777 0.0860187 -0.180972 26 102 204
0.0526653 0.0823846 0.16072 26 102 204
0.0558563 0.0790418 -0.0565787 26 102 204
0.0518068 0.0804147 -0.104884 26 102 204
0.0521293 0.0885048 -0.0938338 26 102 204
0.0536018 0.0878594 -0.0679456 26 102 204
0.0470431 0.0954207 -0.0833842 26 102 204
0.0502029 0.095296 0.0200014 26 102 204
0.0526921 0.079945 0.13079 26 102 204
0.0466874 0.0936278 -0.124185 26 102 204
0.055121 0.0878874 -0.0430628 26 102 204
0.0482924 0.0946544 0.127264 26 102 204
0.057895 0.0857626 -0.126163 26 102 204
0.0555057 0.0908224 -0.158746 26 102 204
0.0532023 0.0971711 0.00700581 26 102 204
0.0619005 0.0835746 -0.0882607 26 102 204
0.0608644 0.0852873 -0.153377 26 102 204
0.0614365 0.0793897 -0.0380839 26 102 204
0.0598324 0.0915958 0.147445 26 102 204
0.0607428 0.0962143 0.165487 26 102 204
0.0635775 0.0934684 0.132964 26 102 204
0.0617798 0.0944986 -0.0609319 26 102 204
0.0596166 0.0985138 -0.104004 26 102 204
0.0634735 0.0924652 -0.122263 26 102 204
0.0620423 0.0917591 0.155305 26 102 204
0.0638744 0.0910949 0.162311 26 102 204
0.0615052 0.0954069 -0.193148 26 102 204
0.0642849 0.0958942 0.194924 26 102 204
0.0648221 0.0905624 0.197983 26 102 204
0.0613556 0.0994589 -0.0935405 26 102 204
0.0734483 0.0844234 0.000937696 26 102 204
0.0708374 0.0901758 0.049019 26 102 204
0.0660373 0.093707 -0.057948 26 102 204
0.0668272 0.0912595 -0.165262 26 102 204
0.0678328 0.0969807 0.105125 26 102 204
0.0679978 0.0816084 0.05382 26 102 204
0.0704921 0.0963999 -0.131164 26 102 204
0.0592296 0.107548 0.0126953 26 102 204
0.0650379 0.0971537 -0.0057402 26 102 204
0.0713168 0.0931524 0.174705 26 102 204
0.0753538 0.0914086 -0.125853 26 102 204
0.0686345 0.100142 -0.0498254 26 102 204
0.078551 0.0900206 -0.124105 26 102 204
0.0909918 0.0910943 0.0549185 26 102 204
0.0724497 0.101617 -0.142401 26 102 204
0.0709347 0.0966399 0.0355331 26 102 204
0.0750106 0.0980257 -0.00422745 26 102 204
0.0728287 0.0735014 -0.0781189 26 102 204
0.0677234 0.109744 0.0669188 26 102 204
0.0710204 0.102447 0.146775 26 102 204
0.0779684 0.0955625 -0.0752597 26 102 204
0.0702577 0.103833 -0.172628 26 102 204
0.0784116 0.0960553 0.0663638 26 102 204
0.0719298 0.0992578 0.125674 26 102 204
0.0746538 0.097493 0.108866 26 102 204
0.0750429 0.100688 0.0459962 26 102 204
0.0759312 0.0991109 0.0201581 26 102 204
0.0684887 0.106573 0.0481845 26 102 204
0.0709744 0.0994536 -0.0671439 26 102 204
0.0696108 0.107584 -0.109582 26 102 204
0.0823196 0.097492 0.129611 26 102 204
0.0740946 0.106076 -0.146875 26 102 204
0.0862414 0.0961426 -0.127604 26 102 204
0.0751472 0.103888 0.0896045 26 102 204
0.07941 0.0941075 0.0725088 26 102 204
0.0697109 0.109599 -0.116927 26 102 204
0.0797051 0.100613 -0.0516573 26 102 204
0.079099 0.0962853 -0.148332 26 102 204
0.072643 0.106838 -0.158806 26 102 204
0.0736516 0.1075 -0.0205334 26 102 204
0.09555 0.101193 -0.00460296 26 102 204
0.0787664 0.10708 0.0769972 26 102 204
0.0800723 0.102155 0.0890176 26 102 204
0.0782531 0.107188 0.0756271 26 102 204
0.0825741 0.101366 0.0265092 26 102 204
0.0874993 0.0976435 0.0366209 26 102 204
0.0847663 0.0978931 -0.129428 26 102 204
0.0701268 0.11748 -0.106247 26 102 204
0.0921623 0.0874686 -0.0636167 26 102 204
0.0771697 0.111451 0.0719119 26 102 204
0.0787366 0.104084 -0.175337 26 102 204
0.0835631 0.107774 -0.110016 26 102 204
0.0897351 0.0922627 0.144549 26 102 204
0.0889313 0.0978805 -0.146052 26 102 204
0.0868537 0.0925091 0.108655 26 102 204
0.084042 0.110614 -0.126297 26 102 204
0.0879784 0.103172 -0.11157 26 102 204
0.0809987 0.0881979 -0.0357991 26 102 204
0.0878118 0.100816 -0.126989 26 102 204
0.0766362 0.119064 -0.0620403 26 102 204
0.0873124 0.114152 -0.0497704 26 102 204
0.0927667 0.107955 -0.111045 26 102 204
0.0892325 0.111407 0.00673481 26 102 204
0.0870084 0.11534 0.0574558 26 102 204
0.0916135 0.112291 0.075105 26 102 204
0.0946107 0.111817 -0.0304036 26 102 204
0.09615 0.115313 -0.132292 26 102 204
0.094917 0.114132 0.00363122 26 102 204
0.0893365 0.11994 0.0421751 26 102 204
0.094982 0.101526 0.100117 26 102 204
0.0956603 0.11517 -0.166928 26 102 204
0.095231 0.118244 0.0252746 26 102 204
0.104423 0.110784 0.0742335 26 102 204
0.102108 0.10765 -0.0596207 26 102 204
0.105683 0.118835 -0.0227022 26 102 204
0.107391 0.116494 0.134005 26 102 204
0.112002 0.111901 0.148631 26 102 204
0.0989555 0.114848 -0.183287 26 102 204
0.124205 0.103372 0.103386 26 102 204
0.0965134 0.114303 -0.0998599 26 102 204
0.110087 0.113778 -0.1237 26 102 204
0.113914 0.109031 0.04418 26 102 204
0.115691 0.110433 0.0754831 26 102 204
0.118284 0.109823 0.135014 26 102 204
0.116088 0.105729 -0.0910446 26 102 204
0.113218 0.107594 0.0783392 26 102 204
0.11279 0.105066 0.106935 26 102 204
0.115196 0.116664 0.0436985 26 102 204
0.118803 0.119637 0.0122329 26 102 204
0.111953 0.120294 -0.00638516 26 102 204
0.117204 0.118061 -0.0224328 26 102 204
0.116543 0.110259 -0.15146 26 102 204
0.124079 0.113329 -0.0232888 26 102 204
0.117377 0.123092 0.0262498 26 102 204
0.124133 0.111883 0.063547 26 102 204
0.124138 0.114566 -0.140184 26 102 204
0.117054 0.127599 -0.00917984 26 102 204
0.122122 0.113574 0.092014 26 102 204
0.12099 0.117287 -0.0246243 26 102 204
0.114966 0.127307 0.0629506 26 102 204
0.119684 0.123657 0.153198 26 102 204
0.130684 0.109739 0.117436 26 102 204
0.120362 0.118019 -0.109095 26 102 204
0.119632 0.126113 0.0953307 26 102 204
0.121774 0.124904 -0.140323 26 102 204
0.120747 0.122828 -0.18262 26 102 204
0.12925 0.119173 -0.0299531 26 102 204
0.128646 0.12217 -0.0402917 26 102 204
0.123911 0.119259 -0.104997 26 102 204
0.126922 0.115554 -0.0909589 26 102 204
0.121786 0.124883 -0.152072 26 102 204
0.115691 0.135773 -0.00067727 26 102 204
0.131553 0.119582 -0.0463416 26 102 204
0.129298 0.119589 -0.00543582 26 102 204
0.130514 0.118418 -0.0368261 26 102 204
0.128242 0.116163 0.00177356 26 102 204
0.12253 0.131241 -0.15251 26 102 204
0.140404 0.109775 -0.112883 26 102 204
0.131546 0.130809 -0.0672107 26 102 204
0.132359 0.133807 0.10377 26 102 204
0.130974 0.11969 -0.0970712 26 102 204
0.127556 0.131504 0.0415813 26 102 204
0.131955 0.133069 -0.0789883 26 102 204
0.12901 0.127859 -0.151021 26 102 204
0.125336 0.135957 0.0879312 26 102 204
0.12797 0.136962 -0.0761749 26 102 204
0.129883 0.126714 -0.127551 26 102 204
0.115686 0.139368 -0.0436902 26 102 204
0.136609 0.116804 0.109513 26 102 204
0.133591 0.136018 -0.110147 26 102 204
0.130038 0.128899 0.114354 26 102 204
0.136846 0.121308 0.0691648 26 102 204
0.143559 0.124194 0.00285599 26 102 204
0.137678 0.123617 -0.129995 26 102 204
0.139496 0.12766 -0.061411 26 102 204
0.138007 0.130386 -0.104353 26 102 204
0.137142 0.125879 0.100933 26 102 204
0.152561 0.120642 -0.075976 26 102 204
0.14248 0.132084 -0.131824 26 102 204
0.143371 0.12659 0.118231 26 102 204
0.139383 0.137678 0.0197123 26 102 204
0.148123 0.124173 -0.0881268 26 102 204
0.137267 0.13044 0.0981093 26 102 204
0.14264 0.132765 0.0773715 26 102 204
0.136043 0.138075 0.0234103 26 102 204
0.151065 0.119062 0.0960078 26 102 204
0.137701 0.119541 0.0669459 26 102 204
0.142832 0.127217 -0.071821 26 102 204
0.151773 0.117865 0.0635374 26 102 204
0.135715 0.14121 -0.0127674 26 102 204
0.145326 0.116522 0.088568 26 102 204
0.150626 0.12634 0.0767993 26 102 204
0.139017 0.133521 -0.0239993 26 102 204
0.147388 0.12899 0.0745506 26 102 204
0.14538 0.129506 -0.137359 26 102 204
0.151619 0.126794 0.0306084 26 102 204
0.153478 0.12238 -0.0484305 26 102 204
0.149944 0.122791 0.0976125 26 102 204
0.150166 0.135125 0.0783793 26 102 204
0.153436 0.114871 -0.0934601 26 102 204
0.140761 0.133986 -0.116943 26 102 204
0.149378 0.129745 -0.0395722 26 102 204
0.155205 0.116777 0.0458234 26 102 204
0.155 0.120314 0.12072 26 102 204
0.139975 0.142779 0.076802 26 102 204
0.145221 0.1386 0.0603842 26 102 204
0.15515 0.120632 0.113157 26 102 204
0.147998 0.134559 -0.0809306 26 102 204
0.229767 0.0123998 0.100683 26 102 204
0.310472 -0.118357 -0.115707 26 102 204
0.159416 0.114969 -0.132852 26 102 204
0.155377 0.138094 -0.0835581 26 102 204
0.158283 0.138994 0.0615117 26 102 204
0.151829 0.144224 -0.110192 26 102 204
0.35183 -0.184522 0.111711 26 102 204
0.270653 -0.0439494 0.109252 26 102 204
0.160529 0.134063 -0.0583793 26 102 204
0.162107 0.125597 0.117056 26 102 204
0.16291 0.125561 0.101033 26 102 204
0.323079 -0.132542 -0.125389 26 102 204
0.160771 0.131589 -0.0904227 26 102 204
0.125249 0.157618 0.0933016 26 102 204
0.164355 0.132649 -0.0954987 26 102 204
0.31782 -0.103944 0.119332 26 102 204
0.163137 0.134925 0.0801981 26 102 204
0.155213 0.142768 0.00794342 26 102 204
0.165489 0.121156 0.101099 26 102 204
0.220748 0.0365432 -0.113715 26 102 204
0.164898 0.12519 0.0851496 26 102 204
0.158363 0.131707 0.102819 26 102 204
0.15908 0.133863 0.104624 26 102 204
0.187583 0.0950404 0.116201 26 102 204
0.156565 0.125488 -0.00395037 26 102 204
0.154498 0.137658 0.120661 26 102 204
0.163843 0.131403 -0.0370958 26 102 204
0.160248 0.13468 -0.124283 26 102 204
0.16337 0.122073 0.0320344 26 102 204
0.15624 0.138733 0.0881042 26 102 204
0.164109 0.12301 -0.141436 26 102 204
0.165944 0.130938 -0.0653514 26 102 204
0.167949 0.128226 0.0908644 26 102 204
0.166975 0.122847 0.10358 26 102 204
0.158999 0.133715 -0.0299596 26 102 204
0.166247 0.122811 0.0619542 26 102 204
0.161993 0.136249 -0.0635531 26 102 204
0.219193 0.0416524 0.0993622 26 102 204
0.259691 -0.0211299 -0.108708 26 102 204
0.1746 0.119439 -0.106792 26 102 204
0.177247 0.118553 0.084177 26 102 204
0.17623 0.113394 0.0620774 26 102 204
0.282102 -0.0517013 -0.102883 26 102 204
0.168772 0.130213 -0.0309369 26 102 204
0.31174 -0.106888 0.106737 26 102 204
0.159205 0.141685 -0.0189335 26 102 204
0.165851 0.126484 0.0323024 26 102 204
0.167629 0.13907 0.0722281 26 102 204
0.182801 0.103558 -0.0897379 26 102 204
0.180399 0.118121 0.132582 26 102 204
0.182414 0.121392 -0.118598 26 102 204
0.177787 0.128447 0.0956019 26 102 204
0.335002 -0.115487 -0.103978 26 102 204
0.298764 -0.0653681 -0.107737 26 102 204
0.201306 0.0941098 0.0749995 26 102 204
0.183163 0.122526 -0.0426482 26 102 204
0.352024 -0.151683 0.0911844 26 102 204
0.424144 -0.25644 0.0992699 26 102 204
0.174175 0.126533 0.0262641 26 102 204
0.178401 0.131491 0.0302205 26 102 204
0.214728 0.0598442 0.0959669 26 102 204
0.179282 0.124851 0.0647002 26 102 204
0.169809 0.132736 0.0687852 26 102 204
0.367988 -0.168948 -0.102509 26 102 204
0.340704 -0.147177 -0.107033 26 102 204
0.183389 0.119479 -0.0176907 26 102 204
0.172052 0.123535 0.0960431 26 102 204
0.185442 0.116924 -0.118509 26 102 204
0.176683 0.131992 -0.0493143 26 102 204
0.367312 -0.167346 0.105037 26 102 204
0.356088 -0.156335 0.0983263 26 102 204
0.201885 0.0976636 -0.117582 26 102 204
0.241281 0.0358908 -0.08642 26 102 204
0.434894 -0.273701 0.103823 26 102 204
0.294651 -0.0525026 -0.0956905 26 102 204
0.24431 0.0372959 -0.0976239 26 102 204
0.393821 -0.189786 -0.104537 26 102 204
0.224297 0.0610256 0.0847857 26 102 204
0.317684 -0.0824929 -0.103057 26 102 204
0.401191 -0.234945 -0.106084 26 102 204
0.295971 -0.0311111 -0.0921749 26 102 204
0.219725 0.0917007 0.0811381 26 102 204
0.200725 0.114369 -0.0392353 26 102 204
0.340635 -0.126191 0.112794 26 102 204
0.198361 0.118285 -0.118092 26 102 204
0.401116 -0.199144 -0.0770997 26 102 204
0.195279 0.12311 0.0230238 26 102 204
0.288274 -0.0470445 -0.0987702 26 102 204
0.35523 -0.129187 0.091713 26 102 204
0.205923 0.114781 -0.0205944 26 102 204
0.204694 0.117492 -0.116968 26 102 204
0.201894 0.115485 -0.0342918 26 102 204
0.421642 -0.229225 -0.100356 26 102 204
0.268359 0.0223598 0.090013 26 102 204
0.277848 -0.010422 -0.0803148 26 102 204
0.330333 -0.0854046 0.0897557 26 102 204
0.383699 -0.189876 0.0602263 26 102 204
0.20541 0.115846 -0.00759879 26 102 204
0.378277 -0.174541 0.0838483 26 102 204
0.260965 0.0330003 -0.0848067 26 102 204
0.207631 0.109324 -0.011086 26 102 204
0.284008 -0.00846937 -0.0781949 26 102 204
0.214652 0.110775 0.0173574 26 102 204
0.250477 0.0558754 0.0913361 26 102 204
0.309268 -0.0372685 -0.0835044 26 102 204
0.365295 -0.133853 0.081519 26 102 204
0.379041 -0.182047 0.0662783 26 102 204
0.398659 -0.180948 -0.0838195 26 102 204
0.291623 -0.0119535 -0.0875525 26 102 204
0.237265 0.0811686 -0.093703 26 102 204
0.309899 -0.0414459 0.0812753 26 102 204
0.319216 -0.0480653 -0.0777036 26 102 204
0.443373 -0.255815 0.0608566 26 102 204
0.217307 0.124178 0.0314062 26 102 204
0.35378 -0.0877014 0.0660065 26 102 204
0.350157 -0.0933637 -0.0849028 26 102 204
0.244992 0.0756269 0.0775082 26 102 204
0.467161 -0.275624 0.0681405 26 102 204
0.358293 -0.103644 -0.0749802 26 102 204
0.34777 -0.0977241 0.0611633 26 102 204
0.223516 0.115186 0.0387111 26 102 204
0.394737 -0.144852 -0.0785228 26 102 204
0.404102 -0.166769 0.0634988 26 102 204
0.445728 -0.238404 0.0603464 26 102 204
0.213565 0.122057 -0.0420237 26 102 204
0.222378 0.112314 -0.00489029 26 102 204
0.219984 0.125677 0.0332385 26 102 204
0.230836 0.124453 0.0217267 26 102 204
