ply
format ascii 1.0
comment Created by Open3D
element vertex 1024
property double x
property double y
property double z
property uchar red
property uchar green
property uchar blue
end_header
-0.0465812 -0.0860617 -0.290331 26 102 204
-0.0382727 -0.0796485 -0.301724 26 102 204
-0.0415955 -0.0799042 -0.260054 26 102 204
-0.0402466 -0.0841088 -0.297244 26 102 204
-0.0205822 -0.0245636 -0.293882 26 102 204
-0.0635862 -0.133749 -0.315961 26 102 204
-0.0185917 -0.0247567 -0.279382 26 102 204
-0.0388988 -0.0664997 -0.311241 26 102 204
-0.0323778 -0.0460835 -0.384048 26 102 204
-0.118268 -0.268075 -0.111629 26 102 204
-0.0978888 -0.216439 -0.244526 26 102 204
-0.0225422 -0.0408245 -0.245804 26 102 204
-0.0449602 -0.0889366 -0.450358 26 102 204
-0.0307528 -0.0458033 -0.440011 26 102 204
-0.068367 -0.139276 -0.284623 26 102 204
-0.0689999 -0.156914 -0.420631 26 102 204
-0.0605688 -0.121529 -0.298871 26 102 204
-0.0587818 -0.116239 -0.412957 26 102 204
-0.048562 -0.0848219 -0.396121 26 102 204
-0.0405586 -0.067998 -0.426566 26 102 204
-0.0519723 -0.0916617 -0.264356 26 102 204
-0.0657474 -0.127121 -0.264675 26 102 204
-0.0607512 -0.10471 -0.239451 26 102 204
-0.0272602 -0.0260486 -0.213374 26 102 204
-0.0856448 -0.165547 -0.348436 26 102 204
-0.151137 -0.318763 -0.236479 26 102 204
-0.135374 -0.297478 -0.17096 26 102 204
-0.0244397 -0.0178561 -0.230757 26 102 204
-0.113492 -0.235584 -0.204633 26 102 204
0.00112992 0.0609562 -0.24679 26 102 204
-0.0314652 -0.00797855 -0.194568 26 102 204
-0.115595 -0.227297 -0.205163 26 102 204
-0.0218822 -0.0124474 -0.223613 26 102 204
-0.147169 -0.329438 -0.18418 26 102 204
-0.143416 -0.310631 -0.15373 26 102 204
-0.130931 -0.289528 -0.190803 26 102 204
-0.100146 -0.205666 -0.17583 26 102 204
-0.129526 -0.292962 -0.17221 26 102 204
-0.0358561 -0.0552923 -0.440301 26 102 204
-0.0807707 -0.163311 -0.48372 26 102 204
-0.078323 -0.174177 -0.441571 26 102 204
-0.146681 -0.330832 -0.426413 26 102 204
-0.138943 -0.318637 -0.0736851 26 102 204
-0.0526852 -0.108536 -0.178081 26 102 204
-0.145696 -0.361453 -0.418301 26 102 204
-0.160313 -0.368001 -0.199074 26 102 204
-0.0797059 -0.159315 -0.446621 26 102 204
-0.148662 -0.350545 -0.138103 26 102 204
-0.0826722 -0.179308 -0.434699 26 102 204
-0.0831521 -0.184366 -0.453926 26 102 204
-0.149562 -0.344933 -0.456553 26 102 204
-0.151195 -0.344722 -0.196386 26 102 204
-0.0505093 -0.0934412 -0.471502 26 102 204
-0.0195023 -0.00208293 -0.160327 26 102 204
-0.14119 -0.31012 -0.436066 26 102 204
-0.164166 -0.376937 -0.387572 26 102 204
-0.0997353 -0.178432 -0.169968 26 102 204
-0.0922241 -0.192069 -0.156065 26 102 204
-0.112848 -0.25015 -0.449864 26 102 204
-0.0988161 -0.227649 -0.133558 26 102 204
-0.0897706 -0.1943 -0.142356 26 102 204
-0.142567 -0.345453 -0.148425 26 102 204
-0.0682187 -0.139051 0.440602 26 102 204
-0.0593455 -0.115288 -0.100125 26 102 204
-0.130433 -0.282557 -0.135259 26 102 204
-0.00960095 0.0049833 0.443402 26 102 204
-0.0397433 -0.0669811 -0.101983 26 102 204
0.0890407 0.253271 0.421023 26 102 204
0.144688 0.379004 0.412076 26 102 204
0.0690782 0.196517 0.427973 26 102 204
-0.0537568 -0.104828 0.411004 26 102 204
-0.102733 -0.244769 0.39866 26 102 204
0.0898069 0.231746 0.405803 26 102 204
-0.0892561 -0.199084 0.405874 26 102 204
0.0555311 0.156821 0.395882 26 102 204
-0.145727 -0.344486 0.37903 26 102 204
-0.102055 -0.231088 0.379665 26 102 204
-0.0600602 -0.133827 0.391714 26 102 204
-0.149454 -0.343034 0.393667 26 102 204
-0.0917178 -0.203843 0.387258 26 102 204
-0.070872 -0.167048 0.396918 26 102 204
5.30574e-05 0.0225543 0.393935 26 102 204
-0.0728791 -0.152423 0.399257 26 102 204
0.0623164 0.184596 0.373196 26 102 204
-0.00335843 0.0232769 0.377994 26 102 204
0.0693303 0.193408 0.36959 26 102 204
-0.121378 -0.2752 0.383474 26 102 204
0.120632 0.33604 0.362866 26 102 204
0.0555845 0.18591 0.36555 26 102 204
-0.0387524 -0.0738431 0.362365 26 102 204
-0.112334 -0.258926 0.358287 26 102 204
0.101959 0.288203 0.366791 26 102 204
-0.129406 -0.297754 0.364324 26 102 204
0.0317312 0.115412 0.365289 26 102 204
-0.0853094 -0.185255 0.357578 26 102 204
0.124086 0.347 0.351268 26 102 204
-0.0215982 -0.0208336 0.3664 26 102 204
-0.137391 -0.313195 0.367952 26 102 204
-0.0391368 -0.074176 0.361429 26 102 204
0.12458 0.323291 0.340605 26 102 204
-0.0171445 -0.0156441 0.352989 26 102 204
-0.0124929 -0.012133 0.343061 26 102 204
0.0886224 0.244522 0.355574 26 102 204
-0.033223 -0.0621036 0.350113 26 102 204
0.115683 0.333788 0.323813 26 102 204
0.124233 0.338881 0.330185 26 102 204
-0.0298708 -0.0519364 0.311217 26 102 204
0.0929789 0.255138 0.313772 26 102 204
-0.00855102 0.00891283 0.333886 26 102 204
-0.141728 -0.329339 0.319891 26 102 204
0.0406884 0.114603 0.336265 26 102 204
-0.021333 -0.0327529 0.318435 26 102 204
-0.0211091 -0.0307928 0.32029 26 102 204
0.0181798 0.0689338 0.327416 26 102 204
0.100723 0.27069 0.32999 26 102 204
0.00689578 0.0327065 0.329892 26 102 204
-0.00344183 0.00319116 0.335257 26 102 204
-0.0972536 -0.24513 0.31469 26 102 204
-0.115648 -0.281492 0.3197 26 102 204
-0.146047 -0.361862 0.316764 26 102 204
0.106057 0.288691 0.293631 26 102 204
-0.139418 -0.33899 0.312966 26 102 204
0.0545569 0.149781 0.306486 26 102 204
0.066744 0.1884 0.298096 26 102 204
0.0953032 0.253971 0.291498 26 102 204
-0.0399713 -0.0860473 0.277539 26 102 204
-0.0440555 -0.119473 0.301046 26 102 204
-0.118988 -0.285223 0.301906 26 102 204
0.0794224 0.223887 0.278546 26 102 204
0.0654521 0.172083 0.278244 26 102 204
-0.10627 -0.257473 0.312215 26 102 204
0.103017 0.289503 0.293714 26 102 204
-0.119474 -0.276977 0.280859 26 102 204
0.115075 0.298579 0.306198 26 102 204
-0.0403247 -0.0744836 0.263458 26 102 204
-0.0130011 -0.00955069 0.265263 26 102 204
0.104662 0.278498 0.264252 26 102 204
0.0681868 0.191562 0.272083 26 102 204
-0.0306265 -0.049597 0.283804 26 102 204
0.0225433 0.0737523 0.283326 26 102 204
-0.00406207 0.00553671 0.271415 26 102 204
0.0473222 0.146804 0.27172 26 102 204
0.0516688 0.14797 0.264119 26 102 204
-0.0516649 -0.10621 0.256779 26 102 204
-0.133125 -0.319004 0.265908 26 102 204
0.086927 0.239311 0.260715 26 102 204
-0.0210874 -0.0375961 0.261875 26 102 204
-0.104514 -0.240244 0.258344 26 102 204
0.0590869 0.165412 0.263767 26 102 204
0.0054202 0.0344108 0.269834 26 102 204
-0.0773356 -0.170829 0.270469 26 102 204
0.134362 0.367046 0.237758 26 102 204
-0.0422238 -0.0867068 0.251367 26 102 204
-0.0470306 -0.0978773 0.259998 26 102 204
-0.0951086 -0.222334 0.249972 26 102 204
-0.0319993 -0.0593529 0.243624 26 102 204
0.0252137 0.0888911 0.254215 26 102 204
-0.065147 -0.138083 0.245146 26 102 204
-0.0114504 -0.00939593 0.255764 26 102 204
-0.0167762 -0.0227347 0.254488 26 102 204
0.0155321 0.0582189 0.279144 26 102 204
0.000155103 0.0212439 0.251435 26 102 204
-0.105909 -0.250429 0.263694 26 102 204
-0.0139529 -0.0117152 0.256197 26 102 204
-0.000980967 0.0240464 0.241945 26 102 204
0.0847052 0.235127 0.253232 26 102 204
0.0428729 0.131625 0.227011 26 102 204
0.0117801 0.0608893 0.246913 26 102 204
0.105082 0.28431 0.228573 26 102 204
0.118093 0.312812 0.250682 26 102 204
-0.00970627 0.00338435 0.250202 26 102 204
0.0973059 0.259612 0.283079 26 102 204
-0.157859 -0.38261 0.254631 26 102 204
-0.0896391 -0.201286 0.269639 26 102 204
-0.0495128 -0.105604 0.252423 26 102 204
-0.117647 -0.275679 0.2273 26 102 204
0.0912993 0.244484 0.269202 26 102 204
-0.147098 -0.374829 0.240554 26 102 204
-0.12053 -0.28354 0.234502 26 102 204
0.0385122 0.112962 0.230963 26 102 204
-0.14677 -0.355989 0.239023 26 102 204
-0.0985834 -0.239345 0.223037 26 102 204
-0.069647 -0.17504 0.241839 26 102 204
0.0379826 0.110841 0.23896 26 102 204
-0.0844841 -0.189374 0.243626 26 102 204
-0.096365 -0.220683 0.239824 26 102 204
-0.0947104 -0.227574 0.219719 26 102 204
0.0146725 0.053923 0.22726 26 102 204
-0.102775 -0.239713 0.255675 26 102 204
0.117209 0.324266 0.242491 26 102 204
-0.105808 -0.254305 0.355932 26 102 204
-0.0738799 -0.181457 0.24704 26 102 204
0.0172315 0.0674254 0.254314 26 102 204
0.0702364 0.200908 0.273839 26 102 204
-0.0723199 -0.161067 0.26742 26 102 204
-0.0818448 -0.177513 0.256346 26 102 204
-0.0702305 -0.147576 0.234877 26 102 204
0.0808938 0.219117 0.300266 26 102 204
0.0942418 0.261007 0.235796 26 102 204
0.00862323 0.0360695 0.29102 26 102 204
0.0902221 0.244037 0.215356 26 102 204
-0.0725043 -0.157733 0.223906 26 102 204
-0.160057 -0.385425 0.216702 26 102 204
-0.0971279 -0.219678 0.223068 26 102 204
0.116123 0.316846 0.195157 26 102 204
-0.00969105 0.000948885 0.212881 26 102 204
-0.0333968 -0.0674775 -0.339166 26 102 204
0.0564403 0.162751 0.191261 26 102 204
0.0828363 0.225357 0.189927 26 102 204
0.0270489 0.091931 0.11724 26 102 204
-0.0725615 -0.157216 -0.240447 26 102 204
-0.181396 -0.427314 0.339348 26 102 204
0.130523 0.350801 0.180909 26 102 204
0.122664 0.331269 -0.0745243 26 102 204
-0.0693021 -0.143696 -0.101295 26 102 204
-0.165206 -0.387312 0.187076 26 102 204
0.0615888 0.174345 0.186655 26 102 204
0.0324631 0.101521 0.500937 26 102 204
0.0182886 0.0704651 0.169015 26 102 204
0.081085 0.221399 0.175685 26 102 204
0.0942412 0.24482 0.190676 26 102 204
0.128123 0.346572 0.159265 26 102 204
-0.0903242 -0.197399 0.166943 26 102 204
0.00367007 0.0334329 0.148736 26 102 204
-0.0571707 -0.116594 0.138405 26 102 204
-0.0138009 -0.0116621 0.150884 26 102 204
0.126074 0.34255 0.120625 26 102 204
0.0484029 0.143102 0.0954982 26 102 204
0.0139944 0.063076 0.122727 26 102 204
0.0584894 0.171745 0.0977651 26 102 204
-0.0714791 -0.154421 0.0914452 26 102 204
-0.0880498 -0.193635 0.101004 26 102 204
-0.089157 -0.198509 0.0918111 26 102 204
-0.0990884 -0.220141 0.0983974 26 102 204
0.0460944 0.142579 0.0777566 26 102 204
0.0467082 0.142045 0.0837331 26 102 204
0.110793 0.301523 0.0570699 26 102 204
0.0830886 0.234246 0.056611 26 102 204
0.0970866 0.270535 0.0562571 26 102 204
0.163909 0.407153 0.0695812 26 102 204
-0.0622595 -0.123981 0.0548393 26 102 204
0.0960425 0.264912 0.0481046 26 102 204
0.109918 0.29555 0.0449317 26 102 204
-0.0716892 -0.152206 -0.341182 26 102 204
0.100131 0.280761 0.03688 26 102 204
0.0191608 0.0736833 0.0322185 26 102 204
-0.162532 -0.373985 0.047854 26 102 204
-0.131832 -0.30695 0.0327285 26 102 204
0.126989 0.333029 0.0291921 26 102 204
-0.148256 -0.337016 0.0206098 26 102 204
0.0163051 0.0658667 0.012123 26 102 204
-0.0737245 -0.162848 0.0194063 26 102 204
0.116813 0.323127 0.00631178 26 102 204
-0.0697039 -0.153358 -0.0070015 26 102 204
-0.00506123 0.0125873 -0.00803135 26 102 204
0.0017891 0.030737 -0.0146177 26 102 204
0.0140303 0.0475553 0.0671511 26 102 204
0.115207 0.306 -0.028119 26 102 204
0.106337 0.302523 -0.027254 26 102 204
0.100511 0.264351 -0.0306778 26 102 204
0.0825039 0.223224 -0.0370777 26 102 204
-0.0347309 -0.0648743 -0.0723852 26 102 204
0.104798 0.293351 -0.0681445 26 102 204
0.1221 0.312225 -0.03695 26 102 204
0.110019 0.308975 -0.0669186 26 102 204
0.115987 0.316765 -0.0630041 26 102 204
0.115795 0.31225 -0.0705553 26 102 204
0.120681 0.334987 -0.0688678 26 102 204
0.082666 0.238371 -0.0944395 26 102 204
0.00806375 0.0480017 -0.0878755 26 102 204
0.0858275 0.242216 -0.0874544 26 102 204
-0.02232 -0.0306187 -0.116857 26 102 204
0.104061 0.304045 -0.0961975 26 102 204
-0.0333793 -0.0559922 -0.115848 26 102 204
0.0645086 0.197342 -0.12938 26 102 204
-0.0609076 -0.123932 -0.151416 26 102 204
0.00858075 0.0517915 -0.147368 26 102 204
0.0632883 0.184038 -0.159385 26 102 204
0.0789138 0.231006 -0.165082 26 102 204
-0.114459 -0.262097 -0.171892 26 102 204
0.0575687 0.184943 -0.172116 26 102 204
0.047131 0.150868 -0.173487 26 102 204
-0.153873 -0.359289 -0.212875 26 102 204
0.0754928 0.224507 -0.203289 26 102 204
-0.139044 -0.328433 -0.210253 26 102 204
-0.160869 -0.380805 -0.215998 26 102 204
0.0977496 0.261794 -0.251781 26 102 204
-0.0363695 -0.0643049 -0.241481 26 102 204
0.111356 0.307337 -0.251063 26 102 204
0.0838728 0.241427 -0.290517 26 102 204
-0.133084 -0.304744 -0.261138 26 102 204
0.128915 0.347972 -0.24102 26 102 204
0.133932 0.369542 -0.358667 26 102 204
-0.0816513 -0.172494 -0.330905 26 102 204
-0.14483 -0.336588 -0.321757 26 102 204
-0.146852 -0.353519 -0.334111 26 102 204
0.0912605 0.260797 -0.333427 26 102 204
-0.151473 -0.344724 -0.344305 26 102 204
0.0852462 0.237571 -0.355061 26 102 204
0.0507597 0.164999 -0.371751 26 102 204
0.121586 0.337992 -0.356499 26 102 204
-0.0875881 -0.182318 -0.365221 26 102 204
0.0812679 0.240503 -0.384285 26 102 204
0.0890191 0.2597 -0.37692 26 102 204
-0.00766898 0.0126392 -0.360196 26 102 204
0.097697 0.275833 -0.42292 26 102 204
-0.0337663 -0.0542102 -0.398258 26 102 204
-0.01628 -0.0030455 -0.388391 26 102 204
-0.133313 -0.303117 -0.382909 26 102 204
-0.0602662 -0.106187 -0.378642 26 102 204
-0.00952035 0.00850336 -0.424401 26 102 204
-0.0682304 -0.134161 -0.379387 26 102 204
-0.159273 -0.38045 -0.358339 26 102 204
-0.081492 -0.177932 -0.360399 26 102 204
-0.0741548 -0.149589 -0.370442 26 102 204
0.120908 0.346479 -0.334433 26 102 204
0.00471504 0.050094 -0.3649 26 102 204
-0.059888 -0.10909 -0.377679 26 102 204
0.129472 0.356591 -0.373594 26 102 204
-0.058642 -0.129077 0.436389 26 102 204
0.0793695 0.238258 -0.380397 26 102 204
-0.0393598 -0.0601833 -0.225101 26 102 204
0.122019 0.355976 -0.373001 26 102 204
0.112019 0.320542 -0.195021 26 102 204
-0.15857 -0.359877 -0.0625507 26 102 204
-0.173224 -0.386963 -0.357337 26 102 204
0.0671431 0.208829 -0.358233 26 102 204
-0.165287 -0.37779 -0.335889 26 102 204
-0.0387697 -0.0596926 -0.372848 26 102 204
-0.0520304 -0.0970808 -0.330976 26 102 204
-0.0762474 -0.154842 -0.322917 26 102 204
0.00902095 0.0632564 -0.320418 26 102 204
-0.0571111 -0.109263 -0.329861 26 102 204
-0.000652807 0.0399944 -0.308207 26 102 204
0.0641059 0.199434 -0.307609 26 102 204
-0.0539106 -0.101842 -0.314861 26 102 204
0.0424851 0.152104 -0.292105 26 102 204
0.0629229 0.196248 -0.250563 26 102 204
0.0360059 0.127752 -0.190039 26 102 204
0.0733723 0.221709 -0.432582 26 102 204
0.0527372 0.168449 -0.227927 26 102 204
0.035683 0.126471 -0.301136 26 102 204
0.0140321 0.0778702 -0.309354 26 102 204
-0.00407182 0.0262039 -0.319076 26 102 204
0.00215572 0.0384445 -0.234412 26 102 204
0.0496281 0.159475 -0.0711966 26 102 204
0.0206904 0.0898373 -0.322226 26 102 204
-0.000251207 0.036102 -0.33679 26 102 204
0.0120223 0.062397 -0.220682 26 102 204
-0.0909323 -0.20109 -0.28011 26 102 204
-0.007676 0.00829992 -0.223376 26 102 204
-0.182283 -0.430774 0.316984 26 102 204
-0.0106274 0.00254687 -0.279912 26 102 204
-0.00647157 0.0183872 -0.199454 26 102 204
-0.0857224 -0.185619 -0.288235 26 102 204
-0.00791405 0.0112269 -0.283565 26 102 204
-0.107771 -0.235352 -0.373458 26 102 204
-0.0656004 -0.136436 -0.310676 26 102 204
-0.0703433 -0.140002 -0.271486 26 102 204
0.0114043 0.0433165 -0.0593663 26 102 204
0.121819 0.343116 0.434346 26 102 204
-0.0422295 -0.0754019 -0.0190412 26 102 204
0.136937 0.381484 -0.0959251 26 102 204
-0.110787 -0.259439 0.416142 26 102 204
-0.156374 -0.386467 0.0169475 26 102 204
-0.168998 -0.40207 0.103248 26 102 204
0.151945 0.409711 0.402311 26 102 204
-0.050069 -0.0946941 -0.18515 26 102 204
-0.146742 -0.355395 0.438404 26 102 204
-0.0163908 -0.0244829 0.449942 26 102 204
-0.0648708 -0.137464 -0.416013 26 102 204
-0.0382818 -0.0687151 -0.182571 26 102 204
-0.0946178 -0.223641 0.439592 26 102 204
0.0344555 0.107962 0.451846 26 102 204
5.95292e-05 0.0340643 -0.0835712 26 102 204
-0.0296902 -0.0271975 -0.141998 26 102 204
0.0840448 0.249304 0.42046 26 102 204
0.0975823 0.284714 -0.437154 26 102 204
-0.026034 -0.0320848 0.0221813 26 102 204
-0.0944742 -0.219994 0.468118 26 102 204
0.132527 0.361699 -0.111631 26 102 204
-0.0633443 -0.12712 -0.14826 26 102 204
0.024947 0.105817 -0.209608 26 102 204
-0.0236745 -0.0332021 0.45681 26 102 204
0.0993613 0.276446 0.468315 26 102 204
-0.00990242 0.00397073 -0.117156 26 102 204
-0.0461908 -0.0912315 -0.249191 26 102 204
-0.164099 -0.372409 -0.129925 26 102 204
0.133798 0.358559 0.415738 26 102 204
-0.016653 -0.0246894 0.0304538 26 102 204
-0.162185 -0.358056 -0.237818 26 102 204
-0.0152732 -0.0175919 -0.186774 26 102 204
-0.0263259 -0.0443304 -0.443264 26 102 204
-0.0674883 -0.144172 -0.167908 26 102 204
-0.173175 -0.385236 -0.369005 26 102 204
0.110748 0.310748 0.190883 26 102 204
0.0260099 0.0803897 -0.420259 26 102 204
-0.0630165 -0.145563 0.417282 26 102 204
-0.14508 -0.34832 0.353673 26 102 204
-0.15866 -0.375698 -0.257414 26 102 204
-0.168583 -0.400412 -0.386009 26 102 204
0.142947 0.376921 -0.0760543 26 102 204
-0.144611 -0.353233 -0.0687395 26 102 204
-0.151343 -0.364085 -0.0301174 26 102 204
-0.139405 -0.338473 0.306643 26 102 204
-0.14608 -0.34994 -0.124104 26 102 204
-0.159996 -0.39091 0.467522 26 102 204
-0.143584 -0.363479 0.30705 26 102 204
-0.141491 -0.338485 -0.422425 26 102 204
0.137583 0.345364 0.0372504 26 102 204
0.124944 0.349422 0.0785828 26 102 204
-0.15457 -0.383529 -0.278452 26 102 204
-0.15116 -0.360299 -0.0847317 26 102 204
-0.155548 -0.373697 -0.163551 26 102 204
0.128515 0.354579 -0.0579037 26 102 204
0.137853 0.362053 0.234221 26 102 204
-0.149712 -0.360732 -0.118742 26 102 204
-0.153939 -0.393248 0.0404036 26 102 204
-0.0523615 -0.118733 0.488824 26 102 204
0.0232943 0.0626768 0.399683 26 102 204
-0.153106 -0.368624 -0.265764 26 102 204
0.142312 0.36595 0.0756268 26 102 204
0.142693 0.380749 0.40287 26 102 204
-0.157775 -0.374915 0.454381 26 102 204
-0.155652 -0.369609 0.0344028 26 102 204
-0.145239 -0.348513 -0.00998719 26 102 204
-0.153846 -0.381692 -0.303593 26 102 204
0.0560728 0.1419 0.456264 26 102 204
-0.159725 -0.385037 -0.295889 26 102 204
-0.119879 -0.302164 -0.460585 26 102 204
-0.120039 -0.298 -0.299255 26 102 204
-0.0517102 -0.141532 -0.377539 26 102 204
0.132535 0.325775 -0.188004 26 102 204
0.12309 0.310518 -0.364275 26 102 204
0.139896 0.339515 -0.220893 26 102 204
-0.151332 -0.39137 0.42355 26 102 204
0.0333181 0.0656052 0.498243 26 102 204
-0.146724 -0.374703 -0.089488 26 102 204
0.111797 0.261353 -0.343163 26 102 204
-0.0890874 -0.233699 -0.32655 26 102 204
0.0675783 0.150511 -0.317347 26 102 204
0.127316 0.295418 -0.331175 26 102 204
0.0717181 0.160251 -0.315754 26 102 204
-0.0537242 -0.155783 -0.330013 26 102 204
0.143128 0.341247 -0.287046 26 102 204
0.0946873 0.222145 -0.299658 26 102 204
-0.0355812 -0.104009 -0.305084 26 102 204
0.0275504 0.0482462 -0.300049 26 102 204
0.0663679 0.16046 -0.297715 26 102 204
0.061921 0.142219 -0.281882 26 102 204
0.028077 0.0450273 -0.296606 26 102 204
0.0639041 0.146532 -0.314351 26 102 204
0.0216731 0.0167605 -0.323271 26 102 204
-0.0658736 -0.177758 -0.325134 26 102 204
0.0698909 0.159811 -0.267944 26 102 204
0.165383 0.403949 -0.270954 26 102 204
-0.0118397 -0.0425956 -0.272425 26 102 204
0.0125141 0.0260128 -0.269705 26 102 204
0.0811938 0.176186 -0.30888 26 102 204
0.0308761 0.0729013 -0.251664 26 102 204
0.0914122 0.216345 -0.225108 26 102 204
0.0566855 0.129372 -0.211503 26 102 204
0.0330365 0.0794614 -0.216061 26 102 204
0.0512626 0.114493 -0.181131 26 102 204
0.124457 0.312859 -0.18804 26 102 204
0.0537755 0.121494 -0.209382 26 102 204
0.00945569 0.0332443 -0.481969 26 102 204
-0.150044 -0.372209 -0.184363 26 102 204
0.157452 0.382532 -0.168384 26 102 204
0.0614188 0.131539 -0.194923 26 102 204
0.0502328 0.114094 -0.160793 26 102 204
0.0258891 0.0607934 -0.166303 26 102 204
-0.0727835 -0.189569 -0.152288 26 102 204
-0.086905 -0.275274 -0.12849 26 102 204
0.00606366 0.00123681 -0.278613 26 102 204
0.0160636 0.0215732 -0.190828 26 102 204
0.0758391 0.175831 -0.157854 26 102 204
-0.014641 -0.0560746 -0.168816 26 102 204
-0.0220609 -0.064723 -0.157405 26 102 204
0.128207 0.313626 -0.152713 26 102 204
0.166029 0.402762 -0.156572 26 102 204
0.113119 0.268493 -0.148921 26 102 204
-0.119881 -0.29818 -0.141845 26 102 204
0.0563413 0.134536 -0.144862 26 102 204
0.0690065 0.160331 -0.14901 26 102 204
0.0909821 0.213158 -0.128577 26 102 204
0.148786 0.369291 -0.157074 26 102 204
0.0777876 0.180771 -0.12428 26 102 204
-0.117428 -0.298576 -0.139557 26 102 204
-0.00168054 -0.00972419 -0.138349 26 102 204
0.0251966 0.0566342 -0.120639 26 102 204
-0.0199348 -0.0578855 -0.141853 26 102 204
-0.008873 -0.031714 -0.124011 26 102 204
0.155542 0.377306 -0.337508 26 102 204
-0.0645471 -0.184983 -0.111291 26 102 204
0.0224441 0.0442156 -0.130078 26 102 204
-0.029 -0.087166 -0.123982 26 102 204
0.115269 0.285148 -0.137032 26 102 204
-0.0944651 -0.242547 -0.13899 26 102 204
-0.0111317 -0.042072 -0.189354 26 102 204
-0.0156702 -0.0646627 0.326327 26 102 204
-0.0676049 -0.177313 -0.159195 26 102 204
-0.035129 -0.102305 -0.125277 26 102 204
0.00269291 0.00502478 -0.0865923 26 102 204
-0.0364066 -0.0987992 -0.388377 26 102 204
-0.0673451 -0.178302 -0.11277 26 102 204
0.0680201 0.15504 -0.149063 26 102 204
-0.0850105 -0.222634 -0.130194 26 102 204
0.0252417 0.0431322 -0.149938 26 102 204
0.00970519 -0.00243651 -0.162825 26 102 204
-0.103706 -0.280236 -0.426081 26 102 204
-0.115862 -0.303324 -0.398371 26 102 204
-0.00817665 -0.0403252 -0.11972 26 102 204
0.149775 0.337954 0.465378 26 102 204
-0.0200916 -0.0693206 -0.138426 26 102 204
-0.134649 -0.359785 -0.130264 26 102 204
0.0940368 0.215945 -0.26262 26 102 204
0.0948285 0.224711 -0.176966 26 102 204
-0.093009 -0.258347 -0.0650718 26 102 204
-0.0452403 -0.131872 -0.148095 26 102 204
-0.0478307 -0.138797 -0.106741 26 102 204
0.049256 0.102933 -0.110889 26 102 204
0.0961413 0.220419 -0.1527 26 102 204
0.0925175 0.212668 -0.140014 26 102 204
-0.0605274 -0.178165 -0.135684 26 102 204
0.0297147 0.0560855 -0.122012 26 102 204
-0.0763106 -0.209373 -0.136376 26 102 204
0.15772 0.373723 -0.133901 26 102 204
0.0239116 0.0388579 -0.143082 26 102 204
-0.0276828 -0.0918921 -0.157165 26 102 204
0.00357203 -0.00690218 -0.14608 26 102 204
0.00646443 -0.0155279 -0.147057 26 102 204
-0.0090355 -0.0491009 -0.140432 26 102 204
0.0290219 0.0499669 -0.147766 26 102 204
0.0380156 0.0699798 -0.162912 26 102 204
-0.0460384 -0.147076 -0.184652 26 102 204
-0.0871193 -0.235895 -0.158413 26 102 204
-0.0215621 -0.0886495 -0.17143 26 102 204
-0.0724889 -0.203309 -0.157667 26 102 204
-0.0643958 -0.188694 -0.174718 26 102 204
-0.0538854 -0.185517 -0.195549 26 102 204
0.0561967 0.120288 -0.18697 26 102 204
-0.0568154 -0.169025 -0.182969 26 102 204
-0.0344362 -0.114539 -0.159269 26 102 204
0.0159816 0.00734139 -0.161026 26 102 204
-0.0163963 -0.0739133 -0.197332 26 102 204
-0.115433 -0.33297 -0.20153 26 102 204
-0.0719543 -0.215657 -0.0876784 26 102 204
0.0042116 -0.0169893 -0.116593 26 102 204
-0.00664763 -0.0469271 -0.408032 26 102 204
0.0412309 0.0766577 -0.201084 26 102 204
-0.0846404 -0.240846 -0.12181 26 102 204
0.00836663 -0.00999627 -0.160769 26 102 204
-0.0649387 -0.199223 -0.1159 26 102 204
0.00938263 -0.0155919 -0.430417 26 102 204
-0.139699 -0.381174 0.351468 26 102 204
0.0478422 0.0884465 -0.0961472 26 102 204
0.130406 0.296008 -0.0476508 26 102 204
0.0658307 0.132184 -0.121914 26 102 204
-0.146781 -0.396147 -0.0363099 26 102 204
-0.117652 -0.335463 -0.0381069 26 102 204
-0.114307 -0.342831 0.00838829 26 102 204
-0.097681 -0.2764 -0.223358 26 102 204
-0.109699 -0.301266 -0.129836 26 102 204
-0.0802167 -0.235133 -0.0339419 26 102 204
-0.119143 -0.349187 0.00568209 26 102 204
-0.103382 -0.285253 0.00444394 26 102 204
0.00111669 -0.0326647 -0.00600515 26 102 204
-0.130903 -0.368829 -0.100853 26 102 204
-0.130022 -0.370979 0.0104871 26 102 204
-0.140017 -0.376668 -0.338698 26 102 204
0.0415053 0.0813283 -0.173703 26 102 204
-0.130772 -0.375945 -0.38936 26 102 204
0.125374 0.299933 -0.08515 26 102 204
-0.126763 -0.337245 -0.0828711 26 102 204
-0.0984671 -0.269677 0.25608 26 102 204
-0.073623 -0.220573 0.0451153 26 102 204
0.0336755 0.0570635 -0.255473 26 102 204
0.126001 0.274714 0.140056 26 102 204
0.014834 0.00650253 0.1825 26 102 204
0.14453 0.339532 0.0647411 26 102 204
-0.0914437 -0.269993 0.25563 26 102 204
0.00934343 -0.00887281 -0.278408 26 102 204
0.0276338 0.0315472 0.143621 26 102 204
-0.0191047 -0.0846206 0.203505 26 102 204
0.0132209 0.0020363 -0.433539 26 102 204
0.0718684 0.145547 0.222226 26 102 204
-0.152119 -0.398533 -0.438827 26 102 204
-0.0209762 -0.108981 -0.453032 26 102 204
0.170335 0.386178 -0.44927 26 102 204
-0.133282 -0.358982 0.267696 26 102 204
-0.140872 -0.37521 -0.153606 26 102 204
-0.0304935 -0.108359 0.474325 26 102 204
-0.0516343 -0.177854 0.365337 26 102 204
-0.0268297 -0.108218 0.443089 26 102 204
0.160668 0.361711 0.283021 26 102 204
-0.0687385 -0.193809 0.446053 26 102 204
0.018995 0.00917291 -0.46618 26 102 204
-0.096437 -0.289834 0.290898 26 102 204
-0.135538 -0.377781 0.0782189 26 102 204
-0.0588715 -0.188326 0.275263 26 102 204
-0.0793912 -0.250599 0.317281 26 102 204
0.103364 0.220312 0.298738 26 102 204
-0.102662 -0.293074 0.283005 26 102 204
0.138543 0.295688 0.30728 26 102 204
-0.143713 -0.382553 0.31154 26 102 204
-0.0318053 -0.108745 0.302846 26 102 204
-0.073328 -0.224751 0.287237 26 102 204
-0.0493436 -0.16124 0.2768 26 102 204
-0.0686481 -0.213162 0.288818 26 102 204
0.157238 0.32738 0.305813 26 102 204
0.0165435 0.0028521 0.274049 26 102 204
0.0572414 0.109633 0.26532 26 102 204
0.0395852 0.0812129 0.28928 26 102 204
0.0748748 0.156052 0.279411 26 102 204
-0.0754718 -0.221742 0.284939 26 102 204
-0.0315575 -0.111885 -0.159698 26 102 204
0.0283608 0.0394636 0.308381 26 102 204
-0.0851184 -0.253608 0.305481 26 102 204
0.0107591 -0.00759429 0.298458 26 102 204
-0.0376529 -0.126897 0.32643 26 102 204
0.13494 0.301638 0.289431 26 102 204
-0.120931 -0.334518 0.380442 26 102 204
0.154996 0.355929 0.305882 26 102 204
-0.081092 -0.24238 0.287715 26 102 204
-0.0791427 -0.239415 0.2742 26 102 204
0.125118 0.281924 0.27004 26 102 204
-0.119061 -0.32884 0.269231 26 102 204
0.0522802 0.101731 0.285922 26 102 204
0.0493928 0.0842343 0.299139 26 102 204
-0.155433 -0.426984 0.337686 26 102 204
0.0254162 0.0357197 0.28001 26 102 204
-0.143475 -0.402317 0.29134 26 102 204
0.153681 0.34673 0.264009 26 102 204
0.00399024 -0.0188433 0.462768 26 102 204
-0.00749488 -0.064944 0.36538 26 102 204
0.151499 0.347862 0.299676 26 102 204
0.0525291 0.0949683 0.341785 26 102 204
0.0293373 0.0357943 0.317974 26 102 204
-0.058469 -0.184688 0.307366 26 102 204
-0.0444665 -0.204994 0.413576 26 102 204
0.0868023 0.172669 0.25406 26 102 204
0.0088893 -0.00915498 -0.135472 26 102 204
-0.134151 -0.370097 0.266957 26 102 204
-0.150173 -0.417794 0.510083 26 102 204
0.162826 0.360575 0.295714 26 102 204
-0.0297645 -0.114458 0.194399 26 102 204
-0.0843205 -0.249755 -0.0126129 26 102 204
0.0704521 0.151913 0.25776 26 102 204
0.0813845 0.162967 0.231876 26 102 204
-0.095291 -0.268554 -0.0751985 26 102 204
-0.0753506 -0.218991 -0.0147883 26 102 204
-0.0183782 -0.0833322 0.259492 26 102 204
-0.114975 -0.32745 -0.0594745 26 102 204
0.00651632 -0.017362 -0.261301 26 102 204
0.167772 0.380512 -0.254112 26 102 204
-0.157165 -0.415308 0.492916 26 102 204
-0.104031 -0.333097 0.29263 26 102 204
0.167792 0.382978 -0.457719 26 102 204
0.0206794 0.0198644 -0.187374 26 102 204
0.0189125 0.0167165 0.457728 26 102 204
0.0032688 -0.0306078 0.246318 26 102 204
-0.0537785 -0.178823 -0.225485 26 102 204
0.165219 0.360971 -0.468783 26 102 204
-0.00151973 -0.0395585 -0.399888 26 102 204
-0.155625 -0.403777 0.289881 26 102 204
-0.155155 -0.434223 0.270109 26 102 204
0.162804 0.364637 0.195891 26 102 204
0.0116295 -0.00745981 0.488008 26 102 204
0.171725 0.401441 0.259699 26 102 204
0.172829 0.38474 0.258554 26 102 204
-0.142018 -0.376443 0.448791 26 102 204
-0.136139 -0.358828 -0.0104976 26 102 204
-0.153956 -0.373951 -0.082882 26 102 204
0.159383 0.365628 0.0091903 26 102 204
0.0615634 0.124314 -0.289619 26 102 204
-0.0468797 -0.149889 0.494022 26 102 204
0.168572 0.389173 0.489563 26 102 204
0.117929 0.282926 -0.478927 26 102 204
0.166487 0.394872 0.23917 26 102 204
0.105329 0.238244 -0.459442 26 102 204
-0.0703247 -0.205511 -0.463372 26 102 204
-0.0875286 -0.269622 -0.444695 26 102 204
0.0644258 0.125148 -0.459313 26 102 204
0.141824 0.339596 -0.432859 26 102 204
-0.150627 -0.421041 -0.453247 26 102 204
-0.00710052 -0.0427892 -0.442888 26 102 204
0.0449637 0.0884089 -0.458875 26 102 204
0.123314 0.278805 -0.464512 26 102 204
0.00389057 -0.0283701 -0.459074 26 102 204
0.122688 0.272946 -0.455909 26 102 204
0.0790772 0.153911 -0.428629 26 102 204
0.0189088 0.00563232 -0.429563 26 102 204
0.118854 0.269197 -0.455245 26 102 204
-0.115661 -0.317019 -0.453625 26 102 204
0.00650046 -0.00336361 -0.46101 26 102 204
0.121291 0.275793 -0.423256 26 102 204
0.0547251 0.103403 -0.423521 26 102 204
-0.0842392 -0.225282 -0.441622 26 102 204
0.127429 0.304328 -0.455181 26 102 204
0.0219953 0.0363909 -0.414862 26 102 204
0.0262401 0.067003 -0.442123 26 102 204
-0.0296718 -0.102575 -0.420218 26 102 204
0.0789006 0.163364 -0.414963 26 102 204
0.0619116 0.132736 -0.423252 26 102 204
0.051397 0.111301 -0.434719 26 102 204
-0.100859 -0.248864 -0.449839 26 102 204
-0.0208607 -0.0707315 -0.455255 26 102 204
-0.070441 -0.190433 -0.456382 26 102 204
0.012057 0.0108086 -0.455337 26 102 204
0.0587043 0.125096 -0.431086 26 102 204
0.133892 0.309517 -0.4287 26 102 204
0.163519 0.381876 -0.457009 26 102 204
0.0151622 0.0170541 -0.450961 26 102 204
0.146142 0.34006 -0.447002 26 102 204
0.149088 0.340998 -0.434131 26 102 204
0.0547978 0.117233 -0.437064 26 102 204
-0.0611577 -0.175525 -0.449052 26 102 204
0.026247 0.0489899 -0.452301 26 102 204
0.0663422 0.147074 -0.456477 26 102 204
-0.0266479 -0.0786218 -0.432034 26 102 204
-0.0372983 -0.108998 -0.430541 26 102 204
0.168365 0.381631 0.0498692 26 102 204
0.160791 0.383552 -0.410665 26 102 204
0.0231931 0.0309612 -0.418941 26 102 204
0.0967217 0.22224 -0.417857 26 102 204
0.100016 0.235552 -0.414202 26 102 204
0.0281931 0.0381868 -0.42516 26 102 204
0.121952 0.283861 -0.411164 26 102 204
0.133023 0.31429 -0.421659 26 102 204
0.149735 0.356351 -0.419027 26 102 204
-0.163795 -0.439475 -0.422862 26 102 204
0.0581194 0.122436 -0.405777 26 102 204
0.116852 0.267699 -0.403192 26 102 204
0.098836 0.212075 -0.403398 26 102 204
0.0770971 0.182186 -0.412265 26 102 204
0.111681 0.249952 -0.407797 26 102 204
0.116313 0.245524 -0.41511 26 102 204
-0.0103844 -0.0235331 -0.431004 26 102 204
0.0781295 0.176928 -0.393936 26 102 204
0.0298259 0.0525476 -0.375409 26 102 204
0.0788629 0.173845 -0.374443 26 102 204
0.107849 0.247045 -0.300846 26 102 204
0.0261457 0.0347324 -0.352096 26 102 204
-0.0516385 -0.151695 -0.360782 26 102 204
0.0775471 0.169832 -0.34274 26 102 204
-0.0790948 -0.216935 -0.341857 26 102 204
0.127475 0.287304 -0.331398 26 102 204
0.0469864 0.106621 -0.323102 26 102 204
0.113338 0.277277 -0.308101 26 102 204
0.0675472 0.150714 -0.300782 26 102 204
0.0457873 0.0973619 -0.287149 26 102 204
0.0480737 0.113515 -0.290403 26 102 204
0.118467 0.281901 -0.273176 26 102 204
-0.0493413 -0.134823 -0.282073 26 102 204
0.151966 0.431035 -0.189165 26 102 204
0.00273559 -0.00797821 -0.277164 26 102 204
-0.0281714 -0.0898698 -0.269818 26 102 204
0.123188 0.292323 -0.268498 26 102 204
-0.0552956 -0.149558 -0.261172 26 102 204
0.0903506 0.206031 -0.256997 26 102 204
0.120829 0.279284 -0.256535 26 102 204
0.106089 0.240885 -0.256368 26 102 204
0.065541 0.144526 -0.249992 26 102 204
0.05309 0.111905 -0.250314 26 102 204
0.0173373 0.0389801 -0.26329 26 102 204
-0.0114645 -0.0478585 -0.240255 26 102 204
0.120782 0.271458 -0.238353 26 102 204
-0.0939444 -0.242543 -0.229521 26 102 204
0.0203066 0.0367152 -0.233874 26 102 204
-0.0244565 -0.0744072 -0.2404 26 102 204
-0.0791404 -0.228718 0.285967 26 102 204
0.0579035 0.128448 -0.219111 26 102 204
0.0882038 0.211681 -0.228053 26 102 204
0.126051 0.304644 -0.220916 26 102 204
-0.0132503 -0.0408151 -0.22718 26 102 204
0.118634 0.28513 -0.211388 26 102 204
0.0922018 0.205551 -0.217695 26 102 204
0.140087 0.329946 -0.209127 26 102 204
0.112804 0.282833 -0.212034 26 102 204
0.110993 0.258346 -0.222877 26 102 204
0.157977 0.383064 -0.206151 26 102 204
-0.000569737 -0.0133438 -0.218914 26 102 204
0.106294 0.247224 -0.216126 26 102 204
-0.0404613 -0.109711 -0.204796 26 102 204
0.0936934 0.233715 -0.215571 26 102 204
-0.0826966 -0.209316 -0.203879 26 102 204
0.113164 0.273442 -0.199892 26 102 204
0.14911 0.363327 -0.198675 26 102 204
0.140673 0.35739 -0.20894 26 102 204
-0.10384 -0.271799 -0.200801 26 102 204
-0.110454 -0.295617 -0.196333 26 102 204
-0.00643995 -0.0280767 -0.199702 26 102 204
0.128822 0.302742 -0.192061 26 102 204
0.0795754 0.188514 -0.192563 26 102 204
0.0888944 0.227589 -0.184384 26 102 204
-0.0510569 -0.144888 -0.189066 26 102 204
0.100257 0.227815 -0.17711 26 102 204
0.0242284 0.0392786 -0.177093 26 102 204
0.0700931 0.161289 -0.162917 26 102 204
0.0614687 0.128509 -0.165679 26 102 204
0.167858 0.395106 -0.173864 26 102 204
0.144341 0.339494 -0.171448 26 102 204
0.0125134 0.0183366 -0.16378 26 102 204
0.149476 0.341912 -0.159421 26 102 204
0.0629717 0.14274 -0.172731 26 102 204
-0.0336968 -0.0992459 -0.165739 26 102 204
0.0187337 0.0296159 -0.163811 26 102 204
0.144112 0.349058 -0.161623 26 102 204
0.133024 0.317792 -0.160681 26 102 204
0.0377917 0.0795328 -0.150065 26 102 204
0.0744687 0.167214 -0.143005 26 102 204
0.0735646 0.171507 -0.136793 26 102 204
-0.107685 -0.28171 -0.155534 26 102 204
-0.121057 -0.320861 -0.145428 26 102 204
0.147128 0.351385 -0.132042 26 102 204
0.00822212 0.00287975 -0.132559 26 102 204
-0.00157258 -0.0169175 -0.137345 26 102 204
-0.0639099 -0.168863 -0.136758 26 102 204
0.146795 0.347254 -0.124 26 102 204
0.090546 0.20672 -0.125807 26 102 204
0.121744 0.291577 -0.116627 26 102 204
0.103001 0.246782 -0.120777 26 102 204
-0.0139491 -0.0439722 -0.110652 26 102 204
0.0545924 0.123159 -0.127649 26 102 204
0.00365848 -0.0130577 -0.120546 26 102 204
-0.00341464 -0.0345217 -0.101397 26 102 204
0.121232 0.284627 -0.111267 26 102 204
0.0992353 0.225681 -0.0988362 26 102 204
0.159961 0.372107 -0.0948398 26 102 204
-0.0388781 -0.121615 -0.0985526 26 102 204
0.165048 0.376592 -0.0923766 26 102 204
0.0616653 0.161698 -0.0828999 26 102 204
-0.0598507 -0.176328 -0.0819361 26 102 204
0.0840132 0.162423 -0.0729805 26 102 204
0.160722 0.374803 -0.063578 26 102 204
0.100945 0.233046 -0.0576174 26 102 204
0.116929 0.270716 -0.0475294 26 102 204
0.03449 0.0639693 -0.0549074 26 102 204
-0.034919 -0.124896 -0.0536553 26 102 204
0.136917 0.296528 -0.0544404 26 102 204
0.0634862 0.129033 -0.046141 26 102 204
-0.00290629 -0.0369933 -0.0464231 26 102 204
0.00249868 -0.0429428 -0.0124822 26 102 204
-0.16806 -0.46741 0.24852 26 102 204
0.0845701 0.1717 -0.0278012 26 102 204
-0.0825552 -0.252317 -0.0254827 26 102 204
0.049675 0.108692 -0.0271971 26 102 204
-0.0158289 -0.0803957 0.00808141 26 102 204
-0.0812484 -0.237227 -0.0200861 26 102 204
-0.0223352 -0.0931358 -0.00629125 26 102 204
-0.00712374 -0.054264 -0.00909774 26 102 204
0.0866912 0.188281 -0.0110845 26 102 204
0.123221 0.261302 -0.0013177 26 102 204
0.0751941 0.157908 -0.00388123 26 102 204
0.122589 0.280487 -0.00395626 26 102 204
-0.0286592 -0.11032 0.0219136 26 102 204
0.0206338 0.023116 0.0168631 26 102 204
0.0517624 0.0926865 0.0249205 26 102 204
0.146931 0.340738 0.0255229 26 102 204
-0.119291 -0.333801 0.0440064 26 102 204
0.081777 0.166792 0.0341198 26 102 204
-0.00447111 -0.0553625 0.0373022 26 102 204
-0.0380874 -0.132497 0.0408365 26 102 204
-0.0435702 -0.143754 0.0414972 26 102 204
-0.0422675 -0.151172 0.0536755 26 102 204
0.0252837 0.0276833 0.0573417 26 102 204
0.0671744 0.135164 0.0372976 26 102 204
-0.118683 -0.3335 0.0488154 26 102 204
0.00462589 -0.0305007 0.0712142 26 102 204
0.0353255 0.055198 0.0527515 26 102 204
0.0303865 0.0258592 0.0588976 26 102 204
-0.0764867 -0.229869 0.058281 26 102 204
0.102412 0.223174 0.0650716 26 102 204
0.115387 0.249433 0.100497 26 102 204
-0.041057 -0.138834 0.0681798 26 102 204
0.159047 0.362381 0.0694995 26 102 204
-0.0979051 -0.305312 0.0707351 26 102 204
0.149903 0.328755 0.0834558 26 102 204
-0.117124 -0.342555 0.103034 26 102 204
-0.0154432 -0.0726199 0.0844242 26 102 204
0.0988642 0.208688 0.0795632 26 102 204
0.0658343 0.127712 0.0991096 26 102 204
0.0629865 0.114065 0.0853864 26 102 204
-0.0652653 -0.200454 0.0843223 26 102 204
-0.0716986 -0.214518 0.0856039 26 102 204
0.0650672 0.11254 0.0804116 26 102 204
-0.021017 -0.0945558 0.0973818 26 102 204
0.0268036 0.0215672 0.0888765 26 102 204
0.108838 0.243144 0.0740514 26 102 204
0.0783972 0.153703 0.0956257 26 102 204
-0.0238533 -0.0982882 0.0888142 26 102 204
0.102151 0.200004 0.117622 26 102 204
0.0772443 0.154772 0.0991651 26 102 204
0.0697988 0.131135 0.107994 26 102 204
-0.0311846 -0.126985 0.105904 26 102 204
0.0471386 0.0847556 0.111149 26 102 204
0.070777 0.117738 0.129285 26 102 204
-0.107891 -0.325063 0.129234 26 102 204
-0.0826226 -0.246488 0.140032 26 102 204
0.0240307 0.00770051 0.159283 26 102 204
0.0878837 0.196396 0.13544 26 102 204
0.06691 0.126001 0.138699 26 102 204
-0.0293783 -0.118207 0.14131 26 102 204
-0.0644844 -0.208103 0.183869 26 102 204
0.064604 0.125681 0.140608 26 102 204
-0.0108247 -0.0651229 0.148168 26 102 204
-0.0282106 -0.111112 0.157228 26 102 204
0.111297 0.256637 0.158625 26 102 204
0.0580944 0.0951921 0.170437 26 102 204
0.0812699 0.164704 0.158604 26 102 204
0.128254 0.276618 0.162561 26 102 204
-0.0457515 -0.16527 0.167423 26 102 204
-0.117605 -0.348845 0.175889 26 102 204
0.0879885 0.172133 0.174052 26 102 204
-0.0439991 -0.161115 0.175197 26 102 204
-0.037676 -0.137627 0.174228 26 102 204
0.100657 0.210217 0.170499 26 102 204
0.0757684 0.149633 0.187844 26 102 204
0.0983867 0.198194 0.172268 26 102 204
-0.0941005 -0.286999 0.181299 26 102 204
-0.0322839 -0.110993 0.178491 26 102 204
0.0665263 0.117924 0.188001 26 102 204
0.081984 0.167531 0.192274 26 102 204
0.111817 0.236114 0.203185 26 102 204
0.0500244 0.085276 0.194982 26 102 204
0.0852494 0.170544 0.191336 26 102 204
0.0466247 0.0887346 0.189799 26 102 204
-0.146935 -0.406904 0.249368 26 102 204
0.0174078 -0.00321795 0.203305 26 102 204
0.0667672 0.123426 0.19497 26 102 204
0.10119 0.194781 0.211733 26 102 204
0.0898995 0.186109 0.215159 26 102 204
-0.006318 -0.0608096 0.217125 26 102 204
-0.0438651 -0.148293 0.222715 26 102 204
0.12384 0.266359 0.217658 26 102 204
0.0647066 0.104803 0.229083 26 102 204
-0.0895856 -0.259566 0.235862 26 102 204
0.0564683 0.0836466 0.232572 26 102 204
-0.00574555 -0.0535854 0.219666 26 102 204
0.150421 0.317706 0.228235 26 102 204
0.0561087 0.100648 0.251677 26 102 204
-0.0379236 -0.137967 0.237272 26 102 204
-0.132697 -0.39243 0.233318 26 102 204
-0.0505258 -0.172017 0.230249 26 102 204
-0.046812 -0.159259 0.240252 26 102 204
-0.0182219 -0.0939172 0.246905 26 102 204
0.0899678 0.179178 0.244203 26 102 204
0.0479517 0.0725567 0.23979 26 102 204
0.0974087 0.180949 0.253383 26 102 204
-0.040907 -0.153102 0.257664 26 102 204
0.0950127 0.192158 0.256604 26 102 204
-0.0735112 -0.230187 0.271318 26 102 204
0.0529149 0.0806369 0.26387 26 102 204
0.117292 0.228125 0.262886 26 102 204
0.135684 0.286867 0.281723 26 102 204
-0.056685 -0.180239 0.279316 26 102 204
-0.00729745 -0.0746573 0.283283 26 102 204
0.0158949 -0.0159759 0.283867 26 102 204
-0.0290136 -0.118608 0.287389 26 102 204
0.102905 0.195319 0.287502 26 102 204
0.138673 0.285957 0.290312 26 102 204
0.00599735 -0.0385778 0.28709 26 102 204
0.0480003 0.0558367 0.299058 26 102 204
0.0383079 0.0417722 0.292905 26 102 204
0.0211754 -0.00382055 0.29343 26 102 204
-0.145873 -0.41326 0.288381 26 102 204
0.0561362 0.0738011 0.300679 26 102 204
0.0561167 0.0782875 0.283495 26 102 204
-0.0964096 -0.282506 0.29446 26 102 204
-0.0455982 -0.165297 0.305145 26 102 204
0.0951971 0.17613 0.291548 26 102 204
0.131829 0.259439 0.2999 26 102 204
-0.0230304 -0.110355 0.304864 26 102 204
0.118315 0.22503 0.280941 26 102 204
0.018859 -0.0156307 0.314816 26 102 204
-0.036643 -0.147914 0.304147 26 102 204
-0.134573 -0.387373 0.298359 26 102 204
0.101969 0.198556 0.30004 26 102 204
-0.0630083 -0.197807 0.304484 26 102 204
0.0186559 -0.00338738 0.312934 26 102 204
0.0731031 0.128977 0.322758 26 102 204
0.117158 0.237641 0.331035 26 102 204
0.0944729 0.178832 0.309344 26 102 204
0.0349621 0.0405013 0.30446 26 102 204
0.000904364 -0.0439693 0.298489 26 102 204
0.128229 0.265433 0.311491 26 102 204
-0.00339763 -0.0585153 0.305378 26 102 204
-0.0364669 -0.133588 0.302321 26 102 204
0.0931795 0.180174 0.304189 26 102 204
-0.0882675 -0.283517 0.304884 26 102 204
-0.116259 -0.351882 0.308396 26 102 204
0.155506 0.331542 0.306796 26 102 204
0.0835785 0.156781 0.324802 26 102 204
0.157533 0.333902 0.311447 26 102 204
-0.0758802 -0.229173 0.343989 26 102 204
-0.094059 -0.269469 0.301399 26 102 204
-0.0106571 -0.0792696 0.322185 26 102 204
0.155556 0.337871 0.323903 26 102 204
0.143841 0.293935 0.316488 26 102 204
-0.0678003 -0.213288 0.32526 26 102 204
0.0737393 0.129547 0.317475 26 102 204
0.0814527 0.148511 0.312987 26 102 204
-0.111123 -0.330544 0.320784 26 102 204
-0.0238606 -0.115672 0.313607 26 102 204
0.119788 0.245515 0.30034 26 102 204
0.162591 0.351477 0.33214 26 102 204
0.102956 0.185739 0.330519 26 102 204
0.185138 0.389901 0.344315 26 102 204
0.130839 0.279149 0.335512 26 102 204
-0.0846905 -0.270143 0.328988 26 102 204
0.117068 0.231347 0.332318 26 102 204
0.164449 0.336841 0.328206 26 102 204
-0.0169523 -0.0991409 0.345471 26 102 204
0.121366 0.254779 0.340882 26 102 204
0.0916075 0.171961 0.35835 26 102 204
-0.109362 -0.30159 0.375048 26 102 204
-0.116944 -0.337765 0.343809 26 102 204
-0.0636487 -0.205703 0.358029 26 102 204
-0.0103664 -0.0800131 0.340356 26 102 204
-0.0308827 -0.129311 0.348622 26 102 204
0.0198301 0.00107631 0.349901 26 102 204
-0.055925 -0.192961 0.349323 26 102 204
-0.106004 -0.301579 0.379817 26 102 204
