ply
format ascii 1.0
comment Created by Open3D
element vertex 1024
property double x
property double y
property double z
property uchar red
property uchar green
property uchar blue
end_header
-0.140059 -0.317057 0.129225 26 102 204
-0.147014 -0.300455 0.154815 26 102 204
-0.131175 -0.294881 -0.167641 26 102 204
-0.105705 -0.310866 -0.110885 26 102 204
-0.119456 -0.298954 0.149171 26 102 204
-0.136677 -0.284599 -0.159218 26 102 204
-0.097489 -0.303944 0.13765 26 102 204
-0.0559848 -0.306517 -0.0718108 26 102 204
-0.0814969 -0.285193 -0.148238 26 102 204
-0.147204 -0.264123 0.14766 26 102 204
-0.0484852 -0.296097 -0.0471763 26 102 204
-0.0276997 -0.306237 0.0267553 26 102 204
-0.0250328 -0.301212 0.00782212 26 102 204
-0.205399 -0.181275 -0.153045 26 102 204
-0.019269 -0.305742 -0.12496 26 102 204
-0.0258597 -0.300172 0.0465246 26 102 204
-0.13517 -0.237507 -0.165681 26 102 204
-0.127159 -0.235107 -0.149239 26 102 204
-0.120236 -0.236909 0.126189 26 102 204
-0.0164938 -0.288393 0.123534 26 102 204
-0.148582 -0.221718 -0.145616 26 102 204
-0.0341063 -0.280566 0.122868 26 102 204
-0.0166055 -0.282994 0.141223 26 102 204
-0.105909 -0.237595 -0.174089 26 102 204
-0.0669357 -0.24913 0.169293 26 102 204
-0.084351 -0.243687 -0.192075 26 102 204
-0.00185172 -0.283732 -0.1103 26 102 204
-0.0748843 -0.206226 -0.0267148 26 102 204
-0.0135031 -0.26831 -0.0275138 26 102 204
-0.0923462 -0.221782 -0.0583106 26 102 204
-0.119671 -0.202432 -0.0856178 26 102 204
0.0114085 -0.283018 0.0700382 26 102 204
-0.107309 -0.20836 0.0676946 26 102 204
-0.121377 -0.184077 0.079118 26 102 204
0.0249919 -0.274886 0.00935271 26 102 204
0.0503362 -0.292936 0.00703168 26 102 204
-0.11934 -0.197123 -0.0461927 26 102 204
-0.0981964 -0.198756 -0.139143 26 102 204
0.0340522 -0.286307 0.0237987 26 102 204
0.036867 -0.28516 0.160813 26 102 204
0.00918081 -0.255827 -0.132167 26 102 204
-0.00770404 -0.249435 0.10402 26 102 204
-0.107388 -0.200644 0.0379347 26 102 204
-0.135184 -0.183674 0.0512962 26 102 204
0.0559047 -0.296474 -0.0672631 26 102 204
0.0588064 -0.28062 -0.190469 26 102 204
0.0596352 -0.275704 -0.0162489 26 102 204
-0.0506769 -0.218428 0.17492 26 102 204
0.0479874 -0.269999 -0.144748 26 102 204
0.00728458 -0.238411 0.199334 26 102 204
-0.0348626 -0.218017 0.156828 26 102 204
-0.00433449 -0.235326 0.20653 26 102 204
-0.0870354 -0.185797 0.144225 26 102 204
-0.0325162 -0.212554 0.172041 26 102 204
0.0379597 -0.230848 -0.205779 26 102 204
-0.0326746 -0.208575 0.135241 26 102 204
-0.0721079 -0.188883 0.100179 26 102 204
-0.088837 -0.181813 0.0678115 26 102 204
-0.0678982 -0.174823 0.0280495 26 102 204
-0.0930526 -0.176767 0.135416 26 102 204
-0.0180016 -0.22719 0.129924 26 102 204
0.00492376 -0.225271 0.158392 26 102 204
-0.104025 -0.169511 0.0805959 26 102 204
-0.0961822 -0.173401 0.0460167 26 102 204
-0.134331 -0.150149 0.0408058 26 102 204
-0.113954 -0.162914 0.04169 26 102 204
-0.181181 -0.127108 0.035496 26 102 204
-0.1086 -0.169072 0.0314545 26 102 204
-0.288151 -0.0600012 0.236036 26 102 204
-0.186362 -0.12412 0.0266949 26 102 204
-0.0189195 -0.205463 -0.249297 26 102 204
-0.0870479 -0.178503 0.00263069 26 102 204
-0.328018 -0.0481986 0.0255969 26 102 204
-0.0469544 -0.204435 0.0154513 26 102 204
-0.148029 -0.149088 0.0307004 26 102 204
-0.202657 -0.112751 0.0187061 26 102 204
0.0400203 -0.238422 -0.0268649 26 102 204
-0.330056 -0.0505693 -0.0577436 26 102 204
-0.108432 -0.165872 0.0210799 26 102 204
-0.263645 -0.0829701 -0.0233467 26 102 204
-0.292488 -0.0671211 -0.0170876 26 102 204
-0.253676 -0.089645 -0.02583 26 102 204
-0.307942 -0.0596664 -0.0122972 26 102 204
-0.238528 -0.0856536 -0.0273456 26 102 204
-0.197713 -0.125001 -0.0542432 26 102 204
-0.187132 -0.125494 -0.0423991 26 102 204
-0.383182 -0.0111216 -0.0464012 26 102 204
-0.0676919 -0.18252 -0.0465402 26 102 204
-0.0716249 -0.184595 -0.0562022 26 102 204
-0.414482 0.00479962 -0.0780149 26 102 204
-0.046644 -0.189982 -0.0774871 26 102 204
-0.0485112 -0.192817 -0.0669005 26 102 204
-0.0827558 -0.177029 -0.0580142 26 102 204
-0.246587 -0.0920472 -0.088115 26 102 204
-0.0672976 -0.191113 -0.0683254 26 102 204
-0.0874588 -0.174581 -0.0801556 26 102 204
-0.11 -0.162287 -0.123791 26 102 204
-0.0461046 -0.201061 -0.174152 26 102 204
-0.0930324 -0.172532 -0.120312 26 102 204
0.0293502 -0.245697 0.0492868 26 102 204
0.0204349 -0.233045 -0.170699 26 102 204
-0.0380786 -0.201632 -0.134772 26 102 204
-0.0484719 -0.195556 -0.131838 26 102 204
-0.0254685 -0.202637 0.182046 26 102 204
-0.0258721 -0.200764 -0.149356 26 102 204
-0.0219957 -0.205544 -0.150274 26 102 204
-0.0366434 -0.192455 0.143521 26 102 204
-0.0455739 -0.188149 -0.172805 26 102 204
0.163781 0.0356086 0.113323 26 102 204
-0.0470591 -0.187455 -0.17676 26 102 204
-0.00523953 -0.213159 0.182148 26 102 204
0.00987644 -0.207109 0.00650531 26 102 204
0.0710211 -0.242042 -0.168344 26 102 204
0.0645617 -0.23454 0.173913 26 102 204
0.038846 -0.221488 0.0469999 26 102 204
-0.101825 -0.144502 -0.0010495 26 102 204
-0.102974 -0.145748 -0.0261924 26 102 204
0.0461358 -0.217954 -0.160731 26 102 204
-0.0696561 -0.152715 0.0664289 26 102 204
0.0157253 -0.194801 -0.0297169 26 102 204
0.0639194 -0.233359 -0.185746 26 102 204
0.0763501 -0.238857 0.176443 26 102 204
0.0513682 -0.224706 -0.0947356 26 102 204
-0.139776 -0.118208 -0.00879225 26 102 204
0.0330761 -0.205177 -0.0787328 26 102 204
-0.105879 -0.125406 -0.00189139 26 102 204
0.107914 -0.233994 0.15237 26 102 204
0.0908817 -0.21935 0.131315 26 102 204
-0.0946088 -0.119678 0.110425 26 102 204
0.00842698 -0.175568 0.0215036 26 102 204
0.241302 -0.289347 0.0148009 26 102 204
0.182277 -0.262179 -0.00367465 26 102 204
0.223486 -0.281993 -0.0663817 26 102 204
0.256551 -0.298229 0.102169 26 102 204
-0.0958337 -0.101849 0.12046 26 102 204
0.261182 -0.302453 -0.0242373 26 102 204
0.260865 -0.300769 -0.0930011 26 102 204
0.24993 -0.296151 -0.126398 26 102 204
0.244535 -0.299046 0.117948 26 102 204
0.0385495 -0.194686 -0.2799 26 102 204
0.0903943 -0.210949 0.216171 26 102 204
0.0960389 -0.212055 -0.254371 26 102 204
0.0672608 -0.199763 0.320478 26 102 204
0.050648 -0.193703 -0.389857 26 102 204
0.0590126 -0.184483 -0.238923 26 102 204
0.0589982 -0.194288 -0.247429 26 102 204
0.0214484 -0.174802 -0.380847 26 102 204
0.0244047 -0.1713 -0.347519 26 102 204
0.00451918 -0.164938 0.169823 26 102 204
0.0187205 -0.179135 -0.350526 26 102 204
0.0127166 -0.167918 0.258528 26 102 204
-0.0487992 -0.131028 0.323788 26 102 204
-0.0516327 -0.135355 0.313271 26 102 204
-0.0493119 -0.131149 -0.332285 26 102 204
-0.0825784 -0.117372 0.325564 26 102 204
-0.0910832 -0.108397 -0.319111 26 102 204
-0.0849434 -0.108663 0.276529 26 102 204
-0.108818 -0.092753 -0.348756 26 102 204
-0.125566 -0.090713 0.33179 26 102 204
-0.428662 0.0699728 -0.0344255 26 102 204
-0.14481 -0.0648789 0.201191 26 102 204
-0.126154 -0.0887114 0.210231 26 102 204
-0.306485 0.00629738 0.242728 26 102 204
-0.151989 -0.0755225 0.231715 26 102 204
-0.317713 0.0187676 0.220999 26 102 204
0.137191 -0.226213 0.199274 26 102 204
-0.107482 -0.093568 0.189356 26 102 204
-0.148754 -0.0648419 0.147952 26 102 204
-0.132853 -0.0851812 0.195542 26 102 204
-0.255118 -0.0183067 0.151204 26 102 204
-0.329473 0.0176732 0.159604 26 102 204
0.277745 -0.292279 0.135049 26 102 204
-0.33506 0.025138 0.116649 26 102 204
-0.292271 0.00493042 0.0974617 26 102 204
-0.416085 0.0583496 0.0678135 26 102 204
-0.207929 -0.0461075 0.114519 26 102 204
-0.415768 0.0671062 -0.00257203 26 102 204
0.265933 -0.283128 0.0497165 26 102 204
-0.447131 0.0896255 -0.0524883 26 102 204
-0.4318 0.0674962 -0.0805757 26 102 204
0.246476 -0.296501 -0.0256282 26 102 204
0.180096 -0.244364 -0.0989126 26 102 204
0.049741 -0.177612 -0.192376 26 102 204
0.209624 -0.263777 -0.124095 26 102 204
0.212261 -0.267698 -0.113756 26 102 204
0.184147 -0.241984 -0.152078 26 102 204
0.139101 -0.227966 -0.185074 26 102 204
-0.348129 0.0351561 -0.193082 26 102 204
0.177293 -0.243814 -0.210872 26 102 204
0.19026 -0.248593 -0.20525 26 102 204
-0.27242 0.000679848 -0.22123 26 102 204
-0.325933 0.0227223 -0.231506 26 102 204
-0.324085 0.0229656 -0.250277 26 102 204
-0.0261465 -0.131192 -0.303344 26 102 204
-0.195108 -0.0461152 -0.289862 26 102 204
-0.175425 -0.0589056 -0.288065 26 102 204
-0.306129 0.0101148 -0.287072 26 102 204
-0.249806 -0.0170412 -0.295828 26 102 204
-0.126189 -0.083447 -0.327816 26 102 204
-0.253461 -0.0148188 -0.320355 26 102 204
-0.191951 -0.0456691 -0.330663 26 102 204
-0.16284 -0.0613443 -0.283634 26 102 204
-0.0351011 -0.134886 0.31773 26 102 204
-0.208007 -0.0360304 -0.331136 26 102 204
-0.16394 -0.0610549 -0.317214 26 102 204
-0.383296 0.0492816 -0.330584 26 102 204
-0.178512 -0.0579173 -0.322881 26 102 204
-0.239167 -0.0272256 -0.32968 26 102 204
-0.175818 -0.0814682 -0.322871 26 102 204
-0.32254 0.0172754 -0.286017 26 102 204
-0.366883 0.0427046 -0.218569 26 102 204
-0.309025 0.0133898 0.322505 26 102 204
-0.267453 -0.00538323 0.132321 26 102 204
0.0648294 -0.184227 -0.250602 26 102 204
-0.192141 -0.046646 -0.33346 26 102 204
-0.366232 0.0399463 0.211059 26 102 204
-0.125889 -0.0827815 0.130397 26 102 204
-0.219508 -0.0270976 -0.377324 26 102 204
-0.220363 -0.0323371 -0.364729 26 102 204
-0.291593 0.010384 -0.379215 26 102 204
-0.207924 -0.0370484 -0.275844 26 102 204
-0.277808 0.00828161 -0.350829 26 102 204
-0.0369443 -0.128154 -0.319344 26 102 204
-0.355453 0.0439274 -0.24708 26 102 204
0.273858 -0.292327 -0.155679 26 102 204
-0.440743 0.10014 -0.120914 26 102 204
-0.43735 0.10576 -0.162787 26 102 204
-0.449216 0.115849 0.148129 26 102 204
-0.365303 0.0525074 -0.344316 26 102 204
-0.435306 0.109222 -0.115564 26 102 204
0.262681 -0.274804 0.109543 26 102 204
0.0934497 -0.182006 0.0300988 26 102 204
0.261685 -0.273775 0.0533455 26 102 204
0.267728 -0.278178 -0.0864855 26 102 204
0.272533 -0.281878 -0.0634985 26 102 204
0.159427 -0.220916 -0.28854 26 102 204
0.238899 -0.262367 0.0971282 26 102 204
0.235001 -0.253669 0.152321 26 102 204
0.23158 -0.256032 0.168914 26 102 204
0.212157 -0.247133 -0.148404 26 102 204
0.207705 -0.244227 0.0374214 26 102 204
0.193197 -0.237738 -0.0870909 26 102 204
0.191762 -0.239721 -0.064028 26 102 204
0.162172 -0.22527 -0.0145358 26 102 204
0.169013 -0.223735 -0.044422 26 102 204
0.161085 -0.219713 -0.0564244 26 102 204
0.140437 -0.20619 -0.180637 26 102 204
0.131244 -0.205624 -0.237778 26 102 204
0.107952 -0.190999 -0.199061 26 102 204
0.12726 -0.203442 0.163464 26 102 204
0.101504 -0.196143 -0.0637909 26 102 204
0.101685 -0.194036 -0.148892 26 102 204
0.098266 -0.188028 -0.0120294 26 102 204
0.0716415 -0.176306 0.0391126 26 102 204
0.0769625 -0.177632 -0.160011 26 102 204
0.0744581 -0.177128 -0.0805662 26 102 204
0.0725446 -0.168393 -0.186841 26 102 204
0.0728775 -0.173325 -0.112021 26 102 204
0.0490797 -0.15779 0.133043 26 102 204
0.0410422 -0.155646 0.0476578 26 102 204
0.0275576 -0.144817 0.165715 26 102 204
0.000610957 -0.134154 -0.0805523 26 102 204
-0.00337282 -0.137109 -0.230624 26 102 204
-0.00161671 -0.135986 0.248488 26 102 204
-0.012322 -0.125848 -0.237083 26 102 204
-0.0540501 -0.105058 -0.267692 26 102 204
-0.0648594 -0.100163 -0.123967 26 102 204
-0.07566 -0.0938845 -0.211696 26 102 204
-0.0874341 -0.0878415 -0.0422938 26 102 204
-0.0970047 -0.0816818 -0.204887 26 102 204
-0.105312 -0.0757417 0.218458 26 102 204
-0.112712 -0.0714013 -0.130699 26 102 204
-0.113966 -0.0738485 0.0263222 26 102 204
-0.10926 -0.0743722 0.205281 26 102 204
-0.152633 -0.051516 0.130115 26 102 204
-0.149755 -0.0478513 -0.29867 26 102 204
-0.163528 -0.0442183 0.0128733 26 102 204
-0.175557 -0.0390124 0.0666994 26 102 204
-0.232095 -0.000972382 -0.217506 26 102 204
-0.189016 -0.0331782 -0.0755668 26 102 204
-0.212667 -0.0182761 0.118022 26 102 204
-0.210825 -0.0223475 0.194537 26 102 204
-0.249538 -0.00080392 0.243634 26 102 204
-0.242425 -0.00516526 0.223529 26 102 204
-0.251045 0.0119009 0.313822 26 102 204
-0.317536 0.0387687 0.29722 26 102 204
-0.314439 0.0296007 -0.178417 26 102 204
-0.337386 0.0528612 -0.281152 26 102 204
-0.375839 0.0625936 0.150299 26 102 204
-0.339664 0.0462823 -0.153267 26 102 204
-0.38687 0.0664649 -0.240139 26 102 204
-0.406223 0.0775477 -0.277172 26 102 204
-0.409001 0.0873845 -0.0315436 26 102 204
-0.437389 0.0948151 0.0618741 26 102 204
0.019311 -0.157926 -0.275595 26 102 204
-0.473746 0.119933 -0.0475084 26 102 204
0.0907215 -0.183123 0.0180896 26 102 204
0.0283854 -0.152157 -0.376821 26 102 204
-0.474523 0.128964 0.134054 26 102 204
0.125875 -0.192014 0.374328 26 102 204
0.0887686 -0.178078 -0.353883 26 102 204
0.179374 -0.231272 -0.161098 26 102 204
0.0885383 -0.176158 -0.107824 26 102 204
0.256447 -0.273748 0.191647 26 102 204
-0.332344 0.0473695 -0.337132 26 102 204
0.32251 -0.293235 0.0662241 26 102 204
-0.0411983 -0.106625 0.225185 26 102 204
0.180124 -0.227887 0.329219 26 102 204
0.281711 -0.281153 -0.0371482 26 102 204
-0.39869 0.0929066 -0.142676 26 102 204
0.274065 -0.272412 -0.0196648 26 102 204
-0.280288 0.0180029 0.184511 26 102 204
-0.439286 0.117246 0.0189656 26 102 204
-0.138986 -0.0496716 -0.403131 26 102 204
-0.419237 0.100333 -0.0245071 26 102 204
-0.414396 0.106404 0.112474 26 102 204
-0.418199 0.104164 0.0164363 26 102 204
0.0423712 -0.136206 0.0310825 26 102 204
0.0515728 -0.148145 0.0787329 26 102 204
0.111043 -0.178303 0.0862057 26 102 204
-0.272492 0.0326713 0.350935 26 102 204
-0.300042 0.0491174 0.384121 26 102 204
-0.0343982 -0.092927 0.379955 26 102 204
-0.239597 0.0191403 0.309622 26 102 204
0.302601 -0.287473 0.0499721 26 102 204
0.342071 -0.290055 -0.0486114 26 102 204
0.265981 -0.254363 -0.186323 26 102 204
0.214977 -0.226004 -0.112768 26 102 204
0.0231169 -0.116651 0.265598 26 102 204
0.274885 -0.250556 -0.0723889 26 102 204
-0.359017 0.0939984 -0.2591 26 102 204
-0.105359 -0.0498958 -0.385755 26 102 204
0.103485 -0.164885 -0.192424 26 102 204
-0.464139 0.141656 0.0326438 26 102 204
-0.424655 0.121774 -0.166521 26 102 204
-0.467878 0.149721 0.173172 26 102 204
-0.178115 -0.00593913 -0.173893 26 102 204
-0.222872 0.0224183 -0.217279 26 102 204
0.269336 -0.242394 -0.0795025 26 102 204
0.0150342 -0.106993 0.375827 26 102 204
0.159248 -0.177933 -0.168063 26 102 204
-0.280101 0.0560312 0.225486 26 102 204
-0.372275 0.105868 0.266246 26 102 204
-0.189094 0.0107623 0.347275 26 102 204
-0.391403 0.114586 0.232192 26 102 204
0.270667 -0.234395 0.282208 26 102 204
0.0464532 -0.116647 0.115132 26 102 204
0.177852 -0.187892 0.234676 26 102 204
-0.122971 0.031084 -0.0580233 26 102 204
-0.15992 -0.00818049 -0.163991 26 102 204
-0.0761654 -0.0386746 0.182024 26 102 204
0.0559382 -0.123085 -0.123988 26 102 204
-0.318233 0.0933519 0.220391 26 102 204
0.316177 -0.255237 -0.144063 26 102 204
-0.230188 0.0384194 -0.232531 26 102 204
-0.131587 -0.0108498 -0.408151 26 102 204
0.0845367 -0.123235 -0.216164 26 102 204
0.323112 -0.255068 -0.00829137 26 102 204
0.250572 -0.222911 -0.182347 26 102 204
0.28889 -0.239797 -0.0664095 26 102 204
0.106102 -0.142139 -0.154009 26 102 204
0.0854255 -0.130601 -0.364636 26 102 204
0.199753 -0.1818 0.106255 26 102 204
0.196908 -0.185783 -0.321323 26 102 204
0.225649 -0.200055 0.333755 26 102 204
-0.384105 0.128685 -0.216454 26 102 204
0.141208 -0.151741 -0.244023 26 102 204
-0.137089 -0.005816 0.201126 26 102 204
0.131594 -0.153657 -0.378527 26 102 204
0.314168 -0.24241 0.114358 26 102 204
-0.415634 0.153867 0.194049 26 102 204
-0.441037 0.163277 0.120331 26 102 204
0.0894315 -0.122431 0.13455 26 102 204
-0.238385 0.0590749 -0.193004 26 102 204
0.0750474 -0.113831 -0.235137 26 102 204
0.0593291 -0.103864 0.113609 26 102 204
0.306729 -0.239401 -0.228217 26 102 204
0.315275 -0.245313 0.104948 26 102 204
0.1869 -0.174673 0.193557 26 102 204
0.122977 -0.135692 0.0247256 26 102 204
0.0487203 -0.0955375 0.198892 26 102 204
0.347235 -0.253371 0.161277 26 102 204
0.0726826 -0.108356 -0.154726 26 102 204
0.251967 -0.205403 -0.130529 26 102 204
0.266147 -0.207952 -0.19137 26 102 204
0.0367312 -0.0825589 -0.139081 26 102 204
0.298469 -0.230201 -0.0643517 26 102 204
0.0541668 -0.0962408 0.227249 26 102 204
0.0362011 -0.0831391 0.121223 26 102 204
0.00808494 -0.072251 -0.172921 26 102 204
0.00952969 -0.0748555 0.106488 26 102 204
0.0179621 -0.0676324 0.0138031 26 102 204
0.00969206 -0.0700237 -0.254647 26 102 204
0.0081522 -0.0717931 0.0956059 26 102 204
-0.00130832 -0.065808 -0.244664 26 102 204
-0.00833366 -0.061482 -0.194793 26 102 204
-0.0202732 -0.0494088 0.20866 26 102 204
-0.0145605 -0.0596932 -0.146008 26 102 204
-0.016996 -0.0581727 -0.274354 26 102 204
-0.019086 -0.0553606 -0.0955763 26 102 204
-0.0258801 -0.048499 0.161933 26 102 204
-0.0205577 -0.0498707 -0.177831 26 102 204
-0.0268622 -0.0504899 0.307381 26 102 204
-0.275756 0.0770383 -0.36508 26 102 204
-0.027193 -0.0519673 -0.0638548 26 102 204
-0.0351321 -0.0460947 -0.110729 26 102 204
-0.0423311 -0.0430094 -0.2628 26 102 204
0.201766 -0.182354 -0.046488 26 102 204
-0.0573219 -0.0346338 0.324013 26 102 204
-0.0606882 -0.0321273 0.270348 26 102 204
0.259978 -0.226089 0.226201 26 102 204
-0.0654085 -0.0291629 0.187169 26 102 204
-0.056251 -0.0320365 -0.279134 26 102 204
-0.0912466 -0.0157689 0.140902 26 102 204
-0.0859107 -0.0188073 0.309774 26 102 204
-0.099607 -0.0113392 0.175338 26 102 204
-0.110842 -0.00685201 -0.19534 26 102 204
-0.12517 0.00245063 -0.108815 26 102 204
-0.139728 0.0115556 0.0802324 26 102 204
-0.133805 0.00716361 -0.136717 26 102 204
-0.145185 0.0120706 0.197103 26 102 204
-0.141701 0.0137287 -0.207656 26 102 204
-0.145324 0.0217425 -0.0274986 26 102 204
-0.17085 0.0238422 -0.252163 26 102 204
-0.178798 0.0303034 0.230127 26 102 204
-0.197792 0.037857 0.108906 26 102 204
-0.183662 0.0322242 0.00930912 26 102 204
-0.198235 0.0387911 0.201288 26 102 204
-0.206158 0.0470784 -0.118436 26 102 204
-0.210109 0.0474929 0.234064 26 102 204
-0.212869 0.0443161 -0.230599 26 102 204
-0.220264 0.0510444 -0.161281 26 102 204
-0.225217 0.0535913 0.0612743 26 102 204
-0.240278 0.0607961 0.234098 26 102 204
-0.26004 0.0688573 -0.0262596 26 102 204
-0.266959 0.0720358 -0.202666 26 102 204
-0.291351 0.0867623 -0.0953696 26 102 204
-0.292098 0.0915621 -0.0982476 26 102 204
-0.29183 0.0883552 -0.113076 26 102 204
-0.300985 0.0859845 -0.172676 26 102 204
-0.325581 0.104462 -0.125234 26 102 204
-0.325811 0.101555 -0.138315 26 102 204
-0.339756 0.117826 -0.0185599 26 102 204
-0.325616 0.100525 0.0948707 26 102 204
-0.330809 0.10721 -0.0729633 26 102 204
-0.343172 0.107885 -0.00160177 26 102 204
-0.319287 0.102395 -0.0122254 26 102 204
-0.304014 0.0796346 0.228791 26 102 204
-0.230585 0.0590328 -0.32348 26 102 204
-0.299213 0.0974743 -0.338163 26 102 204
-0.406132 0.155053 0.130094 26 102 204
-0.106704 -0.00944364 -0.227974 26 102 204
0.254891 -0.200707 0.189736 26 102 204
-0.161532 0.0256228 -0.355316 26 102 204
-0.092776 -0.00957074 0.374535 26 102 204
0.126622 -0.13047 -0.340233 26 102 204
-0.322975 0.111402 0.0155354 26 102 204
-0.167771 0.0319733 -0.386589 26 102 204
0.322268 -0.256743 -0.155395 26 102 204
0.0377321 -0.0792198 -0.360291 26 102 204
-0.340103 0.133065 -0.255565 26 102 204
-0.00347515 -0.0547411 -0.417457 26 102 204
0.234125 -0.178125 0.187878 26 102 204
-0.382916 0.150143 -0.0960578 26 102 204
-0.326738 0.123898 0.314711 26 102 204
-0.146665 0.023877 0.419076 26 102 204
0.230197 -0.181021 -0.128063 26 102 204
0.220532 -0.174348 -0.253498 26 102 204
-0.307444 0.113275 -0.117278 26 102 204
0.271655 -0.199418 0.244093 26 102 204
0.0624487 -0.0877263 -0.182433 26 102 204
-0.22224 0.0685247 -0.372208 26 102 204
0.0359511 -0.0719859 0.134588 26 102 204
0.0904731 -0.101368 -0.204605 26 102 204
-0.383222 0.16162 -0.103978 26 102 204
0.310216 -0.218901 -0.0374322 26 102 204
-0.289946 0.105292 0.00131748 26 102 204
-0.20727 0.0649682 0.0548563 26 102 204
0.148442 -0.128465 -0.175566 26 102 204
0.249856 -0.234479 0.169859 26 102 204
0.107232 -0.107287 0.231806 26 102 204
-0.348458 0.140321 0.29318 26 102 204
-0.298764 0.11124 0.0532624 26 102 204
-0.0281361 -0.0313509 0.396794 26 102 204
-0.0579155 -0.00811123 -0.345985 26 102 204
0.119813 -0.109188 0.197007 26 102 204
0.14688 -0.124971 -0.343711 26 102 204
-0.248235 0.0945005 0.128309 26 102 204
-0.146869 0.0353348 0.117023 26 102 204
0.330554 -0.2136 -0.144922 26 102 204
0.238532 -0.165602 -0.134352 26 102 204
-0.0523968 -0.0134336 -0.389593 26 102 204
0.0447396 -0.0683027 0.34845 26 102 204
-0.0255054 -0.0269216 0.173654 26 102 204
0.146305 -0.117197 -0.166074 26 102 204
0.184949 -0.136889 0.0587485 26 102 204
0.268794 -0.183919 -0.121395 26 102 204
0.0663663 -0.0820795 0.306457 26 102 204
0.291823 -0.198989 0.00074958 26 102 204
0.129708 -0.109576 0.184899 26 102 204
0.160866 -0.118296 0.099257 26 102 204
-0.149135 0.0457646 0.410408 26 102 204
0.111356 -0.0956927 0.412929 26 102 204
-0.0501971 -0.00553043 0.398024 26 102 204
0.105812 -0.0858028 0.365075 26 102 204
0.0333665 -0.058793 0.361433 26 102 204
0.0568275 -0.0598706 -0.000359218 26 102 204
0.0898897 -0.0784479 0.213119 26 102 204
0.137815 -0.100192 0.149507 26 102 204
0.319526 -0.189333 -0.0887448 26 102 204
0.240786 -0.161291 -0.0503059 26 102 204
-0.217708 0.0876671 0.0784151 26 102 204
-0.410828 0.195252 0.0722588 26 102 204
0.327036 -0.199984 0.0141833 26 102 204
0.252051 -0.156824 -0.315378 26 102 204
0.0463486 -0.0516832 0.341179 26 102 204
-0.146524 0.0535264 -0.0241948 26 102 204
0.0697082 -0.0599594 -0.0586705 26 102 204
0.0588012 -0.0565433 0.13907 26 102 204
0.32617 -0.196718 0.191312 26 102 204
0.223213 -0.143145 0.229661 26 102 204
0.35576 -0.206629 0.133916 26 102 204
0.091263 -0.0659127 -0.197516 26 102 204
0.204159 -0.128591 0.111663 26 102 204
-0.0935879 0.0307574 -0.325549 26 102 204
-0.156735 0.0633937 -0.204698 26 102 204
-0.241512 0.107023 0.0254993 26 102 204
0.103549 -0.0662465 -0.314028 26 102 204
0.334196 -0.195575 0.130258 26 102 204
-0.148667 -0.00164681 0.197451 26 102 204
0.328368 -0.190203 0.280148 26 102 204
0.129539 -0.0999636 0.374155 26 102 204
-0.396777 0.202654 -0.118056 26 102 204
0.173826 -0.105075 -0.355958 26 102 204
-0.321177 0.15923 -0.147837 26 102 204
-0.000825713 -0.0140118 -0.34442 26 102 204
0.318057 -0.183773 0.154523 26 102 204
0.159984 -0.0936937 0.161622 26 102 204
0.0711471 -0.051893 -0.304635 26 102 204
0.161881 -0.0996103 0.354692 26 102 204
0.340971 -0.194464 0.129388 26 102 204
0.251636 -0.139904 -0.316497 26 102 204
-0.412392 0.217825 0.125674 26 102 204
0.00899238 -0.0150553 -0.36606 26 102 204
-0.0605005 0.0246215 -0.387858 26 102 204
0.329546 -0.181981 0.215933 26 102 204
-0.130119 0.0566361 -0.39199 26 102 204
0.128167 -0.0767997 0.215669 26 102 204
0.0213935 -0.0162653 -0.290576 26 102 204
-0.194113 0.0990795 0.0505938 26 102 204
-0.181069 0.0977452 -0.344298 26 102 204
0.235214 -0.128426 -0.322056 26 102 204
-0.259757 0.139277 -0.265677 26 102 204
-0.335287 0.17772 0.0622173 26 102 204
0.0939807 -0.0471251 0.347045 26 102 204
0.186003 -0.09623 -0.182743 26 102 204
0.271724 -0.140447 0.361629 26 102 204
0.112584 -0.0591609 -0.23775 26 102 204
-0.290826 0.159843 -0.199193 26 102 204
-0.359496 0.199764 -0.0311537 26 102 204
0.252704 -0.13456 0.142988 26 102 204
0.168151 -0.0855324 0.00495704 26 102 204
-0.13361 0.0797301 -0.334065 26 102 204
0.0409899 -0.0156578 0.021475 26 102 204
0.141401 -0.0726658 -0.331788 26 102 204
0.206416 -0.103772 -0.267457 26 102 204
-0.133503 0.0792036 0.0600657 26 102 204
0.238254 -0.125452 -0.132845 26 102 204
-0.337648 0.192845 -0.23245 26 102 204
0.138172 -0.0667419 -0.221631 26 102 204
-0.310285 0.179174 0.244539 26 102 204
-0.188943 0.114137 0.189482 26 102 204
0.165683 -0.0717206 0.371441 26 102 204
0.000708097 0.011477 0.17455 26 102 204
0.287585 -0.146863 0.132643 26 102 204
0.0956173 -0.0331528 -0.372174 26 102 204
0.0740125 -0.0217269 -0.351808 26 102 204
0.053607 -0.0141362 0.394747 26 102 204
0.205759 -0.0946944 0.196193 26 102 204
0.204038 -0.0947759 -0.24001 26 102 204
0.297291 -0.135287 -0.168919 26 102 204
0.0776386 -0.0212726 0.177755 26 102 204
-0.118197 0.0829729 0.193316 26 102 204
-0.0257478 0.0355332 -0.340085 26 102 204
-0.23378 0.142167 0.0204863 26 102 204
0.180188 -0.074218 -0.0782557 26 102 204
0.000777346 0.0199031 -0.0915809 26 102 204
-0.0697156 0.0577998 -0.362713 26 102 204
0.154468 -0.0167587 -0.402383 26 102 204
0.252824 -0.111771 0.175912 26 102 204
0.261384 -0.114615 0.217542 26 102 204
-0.372512 0.227146 0.0484319 26 102 204
-0.0683149 0.0628892 0.0438602 26 102 204
0.0832696 -0.0240592 0.177917 26 102 204
0.118112 -0.0389336 -0.274103 26 102 204
-0.414686 0.241178 0.0662756 26 102 204
0.2674 -0.116868 0.106499 26 102 204
-0.132481 0.0973277 0.165322 26 102 204
0.057167 -0.000815929 0.365469 26 102 204
0.253206 -0.103433 0.256974 26 102 204
-0.346397 0.240083 -0.203848 26 102 204
-0.0741404 0.0693463 -0.260635 26 102 204
0.168904 -0.0548031 -0.290176 26 102 204
0.324294 -0.138762 -0.191786 26 102 204
0.237892 -0.097904 0.117592 26 102 204
0.115055 -0.0246549 0.346282 26 102 204
0.308604 -0.133552 -0.114311 26 102 204
-0.348544 0.211524 -0.156171 26 102 204
0.124102 -0.0316528 -0.381594 26 102 204
-0.23995 0.168218 -0.0603785 26 102 204
0.159383 -0.048895 0.370603 26 102 204
-0.240896 0.164026 -0.0925092 26 102 204
0.0833104 -0.0114083 -0.0800433 26 102 204
-0.384806 0.243251 -0.0712591 26 102 204
-0.382844 0.242336 0.101368 26 102 204
0.233099 -0.0892292 0.221939 26 102 204
-0.390492 0.250019 -0.119955 26 102 204
-0.0489352 0.0654317 0.399173 26 102 204
-0.162954 0.12287 -0.323651 26 102 204
-0.26646 0.180012 0.323507 26 102 204
0.207073 -0.0675848 0.0775563 26 102 204
0.200922 -0.0668963 -0.0501385 26 102 204
0.343173 -0.144579 0.0831194 26 102 204
0.318857 -0.124717 0.216084 26 102 204
-0.0281373 0.0619655 -0.361406 26 102 204
0.102278 -0.0094118 -0.313684 26 102 204
0.186138 -0.0451401 0.388131 26 102 204
0.228045 -0.0757096 -0.190996 26 102 204
0.239078 -0.0839737 -0.303528 26 102 204
0.0607964 0.0177182 0.396782 26 102 204
0.300385 -0.11066 -0.0645674 26 102 204
-0.0948606 0.094612 0.0612976 26 102 204
0.273016 -0.0902244 -0.168459 26 102 204
0.207056 -0.0543115 0.136968 26 102 204
0.327101 -0.130203 -0.135743 26 102 204
-0.142144 0.126148 0.136084 26 102 204
0.327714 -0.12423 -0.276074 26 102 204
0.115131 -0.00805685 0.227527 26 102 204
-0.131537 0.125132 0.347008 26 102 204
0.360201 -0.13878 0.0315654 26 102 204
-0.0913723 0.0995394 0.0165675 26 102 204
0.118789 -0.00635137 -0.114963 26 102 204
0.235732 -0.0721813 0.0179725 26 102 204
0.280039 -0.0950647 -0.201572 26 102 204
-0.0944754 0.110815 0.0150365 26 102 204
-0.0973773 0.113804 -0.0321666 26 102 204
-0.353482 0.254762 0.13267 26 102 204
0.100344 0.00500662 0.246726 26 102 204
-0.078545 0.106886 0.0492416 26 102 204
-0.0400257 0.0853529 -0.193893 26 102 204
0.0856353 0.0207778 -0.398552 26 102 204
0.309686 -0.106942 0.224272 26 102 204
0.151605 -0.0109701 0.0118398 26 102 204
0.095972 0.0178331 0.208618 26 102 204
0.362764 -0.123405 0.122967 26 102 204
-0.355139 0.262769 0.184273 26 102 204
0.349228 -0.114338 0.159882 26 102 204
-0.267597 0.216035 -0.130479 26 102 204
-0.309931 0.23987 -0.184508 26 102 204
0.093758 0.0178824 0.388699 26 102 204
-0.0813025 0.116881 -0.05556 26 102 204
-0.0639914 0.11373 0.0154686 26 102 204
0.167892 -0.010463 0.3329 26 102 204
-0.365326 0.271153 -0.13806 26 102 204
0.355766 -0.115225 0.0842736 26 102 204
0.0699622 0.0467521 0.413744 26 102 204
-0.105683 0.142969 0.0809568 26 102 204
0.2523 -0.0500386 -0.188135 26 102 204
-0.349691 0.266954 -0.160636 26 102 204
-0.177856 0.176045 -0.344728 26 102 204
-0.379943 0.290159 -0.173692 26 102 204
0.117961 0.017045 0.42233 26 102 204
-0.0827439 0.135625 -0.339834 26 102 204
0.195137 -0.0159727 0.189334 26 102 204
0.344511 -0.0999413 0.17384 26 102 204
0.287549 -0.0581388 0.0862348 26 102 204
0.181065 -0.00483447 0.229997 26 102 204
-0.292128 0.243662 -0.211419 26 102 204
0.0783964 0.0448897 0.312618 26 102 204
0.236343 -0.0363263 0.311875 26 102 204
0.0775812 0.0479178 0.326391 26 102 204
0.0171017 0.0899572 0.335553 26 102 204
-0.152354 0.171454 0.360148 26 102 204
-0.00993102 0.0944608 -0.0114817 26 102 204
0.0466036 0.0630899 0.0594191 26 102 204
-0.0153149 0.087613 0.395978 26 102 204
-0.173169 0.186757 -0.308894 26 102 204
-0.367083 0.288422 -0.16374 26 102 204
-0.0342575 0.112334 0.288163 26 102 204
0.343215 -0.0845043 0.197906 26 102 204
0.0534496 0.074128 0.0760316 26 102 204
-0.0680327 0.142913 0.239495 26 102 204
0.263595 -0.0451447 0.254482 26 102 204
0.313537 -0.0696329 0.238906 26 102 204
0.149692 0.0273481 0.367991 26 102 204
0.27551 -0.0511754 -0.236256 26 102 204
0.0813537 0.0541148 0.114036 26 102 204
-0.266779 0.246598 -0.384482 26 102 204
0.115484 0.0389782 -0.408757 26 102 204
0.265783 -0.0362713 0.320827 26 102 204
0.14088 0.0255962 0.190347 26 102 204
0.0879963 0.0555946 0.0599507 26 102 204
0.0646119 0.0705209 0.372271 26 102 204
0.264596 -0.036129 0.268132 26 102 204
0.147963 0.0274595 -0.196446 26 102 204
0.157054 0.0192332 -0.146757 26 102 204
-0.0594932 0.132284 -0.102571 26 102 204
0.376074 -0.0911312 -0.0582238 26 102 204
-0.136103 0.196385 0.328053 26 102 204
-0.055689 0.142853 -0.0145356 26 102 204
0.244327 -0.0181685 -0.360175 26 102 204
0.369917 -0.0981211 -0.0313003 26 102 204
-0.0962668 0.165037 0.202936 26 102 204
0.154471 0.0323356 0.360211 26 102 204
-0.0292756 0.130809 0.389064 26 102 204
0.36411 -0.0796351 0.100955 26 102 204
-0.040599 0.119954 0.0170268 26 102 204
0.263849 -0.0214885 -0.283726 26 102 204
0.319895 -0.0519739 -0.286316 26 102 204
-0.369274 0.321194 -0.139735 26 102 204
0.15735 0.0329088 0.388981 26 102 204
-0.0772271 0.155665 -0.224446 26 102 204
-0.389171 0.327634 0.0699202 26 102 204
-0.0752841 0.157483 -0.105373 26 102 204
0.139506 0.04722 0.0759081 26 102 204
0.0860592 0.0769583 0.38098 26 102 204
0.401927 -0.0921821 0.0386789 26 102 204
-0.329818 0.304039 -0.216386 26 102 204
-0.156618 0.206239 -0.190656 26 102 204
-0.358369 0.306672 0.166877 26 102 204
-0.239903 0.253159 -0.259919 26 102 204
-0.371198 0.322611 0.0698509 26 102 204
0.0329747 0.107082 -0.0465332 26 102 204
0.359689 -0.0708371 0.187837 26 102 204
0.239608 0.0039116 0.0280729 26 102 204
0.157264 0.0408993 0.049277 26 102 204
0.180496 0.0338957 0.0656302 26 102 204
0.0955068 0.0767937 -0.185881 26 102 204
-0.110109 0.192508 -0.0769138 26 102 204
-0.189893 0.232244 -0.343022 26 102 204
0.161213 0.0434306 -0.0699918 26 102 204
-0.0432096 0.15575 0.118922 26 102 204
0.204516 0.0310657 0.321685 26 102 204
-0.0756563 0.175642 0.0414668 26 102 204
-0.25944 0.278747 0.181572 26 102 204
0.208068 0.0276069 0.295111 26 102 204
0.31908 -0.0306611 -0.235814 26 102 204
0.305607 -0.0191638 -0.229419 26 102 204
0.256201 0.0197871 -0.334198 26 102 204
0.176151 0.0456994 -0.19693 26 102 204
-0.063682 0.174439 0.0420619 26 102 204
0.274746 -0.00117842 0.28827 26 102 204
0.380666 -0.0614243 0.0478126 26 102 204
0.110934 0.0763107 -0.381999 26 102 204
-0.320393 0.327137 0.236774 26 102 204
0.246029 0.0146931 -0.341031 26 102 204
0.121415 0.081148 -0.0905339 26 102 204
-0.0406063 0.169153 0.129978 26 102 204
0.351086 -0.0478272 -0.00607996 26 102 204
0.0983024 0.0912636 0.0176684 26 102 204
-0.114705 0.217476 -0.232412 26 102 204
-0.232756 0.280629 0.309113 26 102 204
0.0610781 0.115674 0.0690435 26 102 204
0.168603 0.0664552 -0.0599061 26 102 204
-0.0438896 0.18341 -0.14921 26 102 204
0.1101 0.0958128 0.0988802 26 102 204
-0.234519 0.282068 0.1048 26 102 204
0.101628 0.102639 -0.251824 26 102 204
0.0716597 0.11987 -0.394693 26 102 204
0.380353 -0.0492376 -0.14695 26 102 204
0.214626 0.0379878 0.376433 26 102 204
0.0298979 0.136972 0.0491062 26 102 204
-0.183995 0.254562 0.0758735 26 102 204
0.0492167 0.137999 -0.00364675 26 102 204
0.247894 0.0237946 -0.342036 26 102 204
-0.0936865 0.210709 0.0116465 26 102 204
0.143774 0.0889782 -0.0519479 26 102 204
0.162169 0.0751891 -0.0779433 26 102 204
0.423086 -0.061165 0.0037203 26 102 204
0.31858 -0.00440441 -0.262401 26 102 204
0.356146 -0.0385223 -0.231774 26 102 204
0.273574 0.0224391 0.0866489 26 102 204
-0.316037 0.33647 0.0720617 26 102 204
-0.0299 0.184225 -0.120239 26 102 204
0.367287 -0.0227772 0.049659 26 102 204
-0.106568 0.216899 -0.0954404 26 102 204
0.390926 -0.033669 -0.0921864 26 102 204
-0.326308 0.339092 0.340287 26 102 204
0.481923 -0.0857793 0.136056 26 102 204
-0.362972 0.365978 -0.0040508 26 102 204
0.323612 0.00276654 0.195983 26 102 204
0.384529 -0.0222632 0.182593 26 102 204
-0.0539988 0.199179 0.0475833 26 102 204
-0.362804 0.372012 0.119718 26 102 204
-0.129637 0.251408 0.377265 26 102 204
0.335442 0.00672567 0.291 26 102 204
-0.317759 0.350838 0.0938138 26 102 204
-0.114707 0.248568 -0.00312099 26 102 204
0.0516169 0.157058 -0.226867 26 102 204
0.305567 0.0201952 0.132801 26 102 204
-0.200344 0.285635 0.0673732 26 102 204
0.37735 -0.0130815 0.091522 26 102 204
0.220232 0.0756448 0.385166 26 102 204
0.072438 0.157276 0.427065 26 102 204
-0.0779335 0.232509 0.0798138 26 102 204
0.216576 0.0793063 -0.299972 26 102 204
-0.181231 0.284699 -0.396043 26 102 204
0.100331 0.142091 0.168347 26 102 204
-0.321334 0.367332 0.05942 26 102 204
0.32393 0.020378 0.0268095 26 102 204
0.0188069 0.177824 -0.0354754 26 102 204
0.201659 0.089412 0.310378 26 102 204
-0.327517 0.37828 0.0361103 26 102 204
0.420577 -0.0262025 -0.0950765 26 102 204
-0.130122 0.270065 0.261534 26 102 204
0.154652 0.11296 0.153007 26 102 204
0.255374 0.0684716 0.183511 26 102 204
-0.0931111 0.254745 0.0137247 26 102 204
0.224293 0.0785229 -0.41765 26 102 204
-0.059264 0.238521 0.397629 26 102 204
0.0199191 0.200214 0.255962 26 102 204
0.209736 0.0908136 0.082391 26 102 204
-0.0537337 0.232953 -0.0266584 26 102 204
-0.118426 0.27233 0.170166 26 102 204
-0.104222 0.25198 -0.344574 26 102 204
-0.219863 0.326353 0.214844 26 102 204
-0.231735 0.326517 0.297489 26 102 204
0.0892703 0.165361 0.00155556 26 102 204
-0.246226 0.347757 0.267803 26 102 204
0.133998 0.135838 0.434593 26 102 204
0.230388 0.088317 0.157335 26 102 204
0.410305 0.000940486 -0.230722 26 102 204
-0.196973 0.312364 0.138155 26 102 204
-0.0687279 0.24845 0.41943 26 102 204
0.022549 0.196226 0.425991 26 102 204
-0.174966 0.301596 0.159532 26 102 204
-0.263313 0.350066 -0.0478275 26 102 204
-0.144144 0.295497 -0.381022 26 102 204
-0.338873 0.400031 -0.243652 26 102 204
-0.216045 0.338753 0.424032 26 102 204
0.167785 0.122713 -0.00978109 26 102 204
0.000534348 0.224467 0.193599 26 102 204
0.138054 0.141775 -0.0508864 26 102 204
-0.0359609 0.245311 0.215718 26 102 204
-0.235049 0.344031 0.047076 26 102 204
-0.0453102 0.250225 -0.3724 26 102 204
-0.0150516 0.229873 0.0690659 26 102 204
-0.0302348 0.241845 -0.247518 26 102 204
-0.258656 0.366109 0.277285 26 102 204
-0.0443867 0.247367 0.0859712 26 102 204
0.250871 0.0774993 0.0112824 26 102 204
0.240468 0.0887914 0.0819087 26 102 204
0.284604 0.0664786 0.212233 26 102 204
0.303755 0.0627586 0.282007 26 102 204
0.340417 0.0493579 -0.217027 26 102 204
0.433308 -0.0052833 0.0203146 26 102 204
0.0026326 0.227624 -0.0343805 26 102 204
0.0974759 0.180843 0.278162 26 102 204
0.425573 -0.00118932 0.0108759 26 102 204
0.361408 0.0315723 -0.187618 26 102 204
0.418625 0.0100967 0.0227199 26 102 204
-0.297295 0.364306 0.184613 26 102 204
-0.111209 0.285338 0.35439 26 102 204
0.295906 0.0730892 0.113248 26 102 204
0.0601035 0.196114 0.088773 26 102 204
0.0564994 0.201476 -0.199566 26 102 204
0.286211 0.0768457 0.0662187 26 102 204
0.210318 0.108993 -0.0537509 26 102 204
0.1855 0.116605 -0.317785 26 102 204
0.0165754 0.218072 -0.315355 26 102 204
0.259408 0.0943329 -0.0254286 26 102 204
0.189401 0.121622 -0.408304 26 102 204
0.432065 0.00621854 -0.131302 26 102 204
0.0506484 0.200729 0.163571 26 102 204
-0.00948112 0.239572 0.000886122 26 102 204
0.0898795 0.172007 0.21241 26 102 204
-0.21675 0.344601 -0.0536308 26 102 204
0.330916 0.0620197 0.115678 26 102 204
0.278721 0.0856323 -0.186339 26 102 204
0.421855 0.00621564 -0.127622 26 102 204
0.401133 0.025876 0.201702 26 102 204
0.41679 0.0168498 0.00949777 26 102 204
0.39306 0.0259579 0.129831 26 102 204
0.401359 0.0219835 -0.078404 26 102 204
0.396023 0.0118513 0.00911764 26 102 204
0.403524 0.0155501 -0.124404 26 102 204
0.406503 0.0151145 -0.0714744 26 102 204
0.398818 0.020201 -0.0168544 26 102 204
0.37073 0.0377005 -0.000906195 26 102 204
0.365565 0.0334613 0.13257 26 102 204
0.321906 0.0536069 -0.320484 26 102 204
0.301065 0.0518206 -0.310406 26 102 204
0.338572 0.0535695 -0.325611 26 102 204
0.333895 0.0581682 0.192129 26 102 204
0.222429 0.10841 -0.415921 26 102 204
0.246217 0.101389 -0.358012 26 102 204
-0.214123 0.33896 0.0265265 26 102 204
0.21738 0.108221 -0.396436 26 102 204
0.261873 0.0969353 0.373288 26 102 204
0.128813 0.155482 0.441088 26 102 204
0.107203 0.171103 -0.401532 26 102 204
0.104081 0.164138 0.402543 26 102 204
0.0464352 0.212317 -0.417606 26 102 204
0.0710542 0.196528 -0.435314 26 102 204
0.0495918 0.212608 0.0370082 26 102 204
-0.0247681 0.249424 0.146938 26 102 204
-0.0110156 0.243233 0.126222 26 102 204
0.0755481 0.202456 0.427002 26 102 204
-0.0617917 0.270615 -0.423352 26 102 204
-0.166637 0.321811 -0.39006 26 102 204
0.032298 0.22492 0.416356 26 102 204
-0.070477 0.278795 -0.352377 26 102 204
-0.266699 0.378781 -0.0930442 26 102 204
-0.183547 0.331526 -0.121658 26 102 204
-0.196468 0.341735 0.251406 26 102 204
-0.193107 0.325513 0.386004 26 102 204
-0.296346 0.394442 -0.0354736 26 102 204
-0.13217 0.306221 -0.0668419 26 102 204
-0.00117808 0.237556 0.00751213 26 102 204
-0.0228212 0.25517 0.398062 26 102 204
-0.263655 0.376928 -0.278603 26 102 204
0.462497 -0.00631919 -0.0295167 26 102 204
-0.0742813 0.279949 0.0262249 26 102 204
0.0682357 0.197913 0.141915 26 102 204
-0.157727 0.327425 -0.363391 26 102 204
0.302183 0.0727383 -0.29024 26 102 204
-0.317481 0.410502 0.0242204 26 102 204
0.140456 0.170997 0.419064 26 102 204
0.137516 0.166923 -0.0337659 26 102 204
-0.269538 0.38247 0.13259 26 102 204
0.00123147 0.240789 -0.305814 26 102 204
0.253361 0.101113 -0.216755 26 102 204
0.432507 0.00353108 0.00213354 26 102 204
0.0271085 0.226406 0.32642 26 102 204
0.0495599 0.214529 0.0971406 26 102 204
0.28536 0.0973708 0.0217936 26 102 204
-0.14567 0.31676 0.38916 26 102 204
0.137868 0.167194 0.407527 26 102 204
0.00700069 0.237628 -0.0488578 26 102 204
-0.213192 0.356771 -0.326104 26 102 204
0.247081 0.105396 -0.349829 26 102 204
0.35302 0.0580629 0.00678714 26 102 204
0.0799351 0.204223 -0.160733 26 102 204
0.150387 0.165135 0.396216 26 102 204
-0.014588 0.252037 0.399422 26 102 204
0.0611059 0.214916 0.465197 26 102 204
-0.314192 0.414715 0.0829844 26 102 204
0.324462 0.0721096 -0.271567 26 102 204
-0.100019 0.300889 0.32009 26 102 204
-0.0908059 0.294703 0.413754 26 102 204
-0.0406957 0.273021 -0.433712 26 102 204
-0.2158 0.364134 -0.401613 26 102 204
-0.298236 0.403559 0.138838 26 102 204
-0.172231 0.344538 -0.357237 26 102 204
-0.185009 0.343357 -0.331485 26 102 204
0.0348555 0.222398 -0.351553 26 102 204
-0.249015 0.384953 -0.300464 26 102 204
-0.184553 0.332149 -0.319191 26 102 204
0.270635 0.10943 0.244665 26 102 204
0.253293 0.11219 0.284829 26 102 204
0.276124 0.0996399 0.0352463 26 102 204
0.256538 0.109723 0.208476 26 102 204
0.237463 0.118663 -0.133056 26 102 204
0.229745 0.120112 -0.0230289 26 102 204
0.199184 0.135754 0.145166 26 102 204
0.242473 0.117873 0.0206757 26 102 204
0.240756 0.120904 0.349272 26 102 204
0.229665 0.122649 -0.339276 26 102 204
0.247754 0.119819 0.010947 26 102 204
0.279391 0.0983995 0.27501 26 102 204
0.271383 0.108848 -0.229232 26 102 204
0.240177 0.127771 -0.0531426 26 102 204
0.0261422 0.237478 0.426348 26 102 204
0.15388 0.170396 0.00615844 26 102 204
0.115973 0.181686 0.0658803 26 102 204
-0.303442 0.420636 -0.008007 26 102 204
0.0253479 0.234099 0.433081 26 102 204
0.186711 0.144426 -0.374297 26 102 204
-0.142002 0.324357 0.401017 26 102 204
-0.0968977 0.302573 -0.400613 26 102 204
-0.261932 0.391663 -0.165782 26 102 204
0.298609 0.0960637 0.361256 26 102 204
0.408768 0.0498074 -0.114412 26 102 204
0.302368 0.103142 0.432164 26 102 204
-0.00627418 0.258395 0.454724 26 102 204
-0.105143 0.316274 0.439447 26 102 204
-0.106309 0.315999 0.359507 26 102 204
-0.0836641 0.295522 -0.337205 26 102 204
-0.139209 0.342695 0.373778 26 102 204
-0.105526 0.314253 -0.403549 26 102 204
0.465059 0.0207255 -0.0880258 26 102 204
-0.0502607 0.294774 0.373797 26 102 204
-0.0444168 0.288797 0.381436 26 102 204
0.00505032 0.269206 -0.452011 26 102 204
-0.0433209 0.295944 0.35483 26 102 204
0.0330038 0.236225 0.407526 26 102 204
0.0285267 0.256928 -0.406483 26 102 204
0.427198 0.047094 0.155343 26 102 204
0.046326 0.259282 -0.416056 26 102 204
0.0864786 0.22089 0.449993 26 102 204
0.257051 0.145878 0.26139 26 102 204
0.277376 0.133099 0.360895 26 102 204
0.200367 0.187284 0.367117 26 102 204
0.309417 0.133836 -0.0811057 26 102 204
0.462639 0.0576093 -0.0644103 26 102 204
0.309402 0.148287 -0.117512 26 102 204
0.258035 0.186135 0.386301 26 102 204
0.471387 0.0714976 0.0215804 26 102 204
0.275298 0.193217 -0.392515 26 102 204
0.464435 0.0764024 0.0904634 26 102 204
0.47316 0.0963174 -0.0416708 26 102 204
0.19631 0.230258 0.379311 26 102 204
0.467873 0.0924291 -0.0800777 26 102 204
0.482167 0.101846 0.000799736 26 102 204
0.472117 0.0783079 -0.143601 26 102 204
0.477662 0.121183 -0.0510961 26 102 204
0.468499 0.13892 0.27044 26 102 204
0.49679 0.138915 -0.0168131 26 102 204
0.486573 0.154909 -0.1453 26 102 204
0.246104 0.288113 0.431092 26 102 204
0.259101 0.267033 -0.387594 26 102 204
0.235148 0.323365 0.400355 26 102 204
0.240459 0.312885 -0.451486 26 102 204
0.277428 0.303582 0.426735 26 102 204
