ply
format ascii 1.0
comment Created by Open3D
element vertex 1024
property double x
property double y
property double z
property uchar red
property uchar green
property uchar blue
end_header
0.0471108 -0.376587 0.341239 26 102 204
0.0341955 -0.382923 0.438244 26 102 204
0.0236233 -0.378674 0.430384 26 102 204
0.0172745 -0.376069 0.397108 26 102 204
0.010428 -0.360901 -0.439987 26 102 204
0.0128154 -0.361778 0.338805 26 102 204
0.00143221 -0.347407 -0.338684 26 102 204
0.00706708 -0.351238 0.369634 26 102 204
0.0124955 -0.344743 0.382889 26 102 204
-0.00346748 -0.346211 0.345852 26 102 204
0.00451747 -0.345935 -0.367577 26 102 204
0.00681146 -0.357027 -0.396727 26 102 204
-0.00553741 -0.344856 0.0930554 26 102 204
-0.0092253 -0.335921 0.118641 26 102 204
-0.0118972 -0.335545 -0.107016 26 102 204
0.0208157 -0.333944 -0.20498 26 102 204
-0.00436307 -0.333219 0.215075 26 102 204
-0.0321221 -0.323517 -0.0970971 26 102 204
-0.0241394 -0.327268 0.184678 26 102 204
-0.0283647 -0.322971 0.466848 26 102 204
-0.042724 -0.324635 -0.337838 26 102 204
-0.0434081 -0.316395 0.224801 26 102 204
-0.0457959 -0.31658 -0.0153028 26 102 204
-0.0384728 -0.304849 -0.0107646 26 102 204
-0.0612344 -0.299325 -0.356178 26 102 204
-0.0581246 -0.295849 0.465478 26 102 204
-0.0667034 -0.292014 0.332878 26 102 204
-0.0568764 -0.293144 0.488277 26 102 204
-0.067216 -0.295412 0.342412 26 102 204
-0.0639454 -0.291984 0.266851 26 102 204
-0.0459564 -0.297343 -3.78647e-06 26 102 204
-0.0647162 -0.291578 0.276096 26 102 204
-0.0798344 -0.286066 -0.305416 26 102 204
-0.0742947 -0.285405 -0.308934 26 102 204
-0.0815293 -0.280566 -0.137455 26 102 204
-0.0849809 -0.279961 -0.0701902 26 102 204
-0.0819905 -0.28069 -0.0551731 26 102 204
-0.0927225 -0.276226 -0.457637 26 102 204
-0.0802466 -0.273604 0.170439 26 102 204
-0.0928471 -0.273132 -0.352055 26 102 204
-0.0925395 -0.269384 -0.0588004 26 102 204
-0.0965868 -0.268987 -0.352118 26 102 204
-0.0792611 -0.269785 -0.283255 26 102 204
-0.0979221 -0.268812 0.267006 26 102 204
-0.30613 -0.103782 0.292744 26 102 204
-0.106588 -0.256012 -0.230652 26 102 204
-0.103785 -0.252666 0.39857 26 102 204
-0.0999879 -0.256118 -0.47368 26 102 204
-0.454674 0.0154593 0.0439648 26 102 204
-0.119552 -0.244501 -0.407264 26 102 204
-0.124304 -0.24425 0.11347 26 102 204
-0.131964 -0.24 -0.275771 26 102 204
-0.133386 -0.23715 0.0418282 26 102 204
-0.129106 -0.242138 0.0933665 26 102 204
-0.134643 -0.227787 -0.371507 26 102 204
-0.138164 -0.232828 0.302802 26 102 204
-0.142327 -0.229773 -0.1083 26 102 204
-0.143965 -0.223552 -0.376898 26 102 204
-0.15416 -0.220458 0.291982 26 102 204
-0.150874 -0.215515 0.221633 26 102 204
-0.157781 -0.218628 -0.165578 26 102 204
-0.155291 -0.215435 0.11971 26 102 204
-0.160041 -0.21589 0.104934 26 102 204
-0.161661 -0.21611 0.339711 26 102 204
-0.164019 -0.208546 0.347361 26 102 204
-0.169147 -0.208172 0.246386 26 102 204
-0.173951 -0.206538 -0.299669 26 102 204
-0.174423 -0.204303 -0.160267 26 102 204
-0.176219 -0.200167 -0.229117 26 102 204
-0.182589 -0.19633 -0.483678 26 102 204
-0.185876 -0.19257 -0.210139 26 102 204
-0.184041 -0.191588 0.346042 26 102 204
-0.19587 -0.185934 -0.449307 26 102 204
-0.189469 -0.191368 -0.0894893 26 102 204
-0.192627 -0.187906 -0.144012 26 102 204
-0.194423 -0.184143 0.110257 26 102 204
-0.19594 -0.181622 -0.473983 26 102 204
-0.201046 -0.181672 -0.0963861 26 102 204
-0.211272 -0.170534 -0.414536 26 102 204
-0.216805 -0.169474 -0.211952 26 102 204
-0.216383 -0.164053 -0.160926 26 102 204
-0.220118 -0.163236 -0.35883 26 102 204
-0.226679 -0.151893 -0.0718227 26 102 204
-0.222175 -0.161279 -0.377787 26 102 204
-0.224194 -0.156428 -0.153024 26 102 204
-0.230368 -0.158973 0.0177144 26 102 204
-0.230115 -0.15678 0.202153 26 102 204
-0.243055 -0.144569 -0.258779 26 102 204
-0.243605 -0.145116 0.435595 26 102 204
-0.228375 -0.14992 0.344541 26 102 204
-0.247517 -0.139788 -0.18206 26 102 204
-0.260496 -0.134705 0.148425 26 102 204
-0.25363 -0.135903 0.391936 26 102 204
-0.264548 -0.130794 0.476032 26 102 204
-0.265353 -0.124698 0.435711 26 102 204
-0.270385 -0.122583 -0.471781 26 102 204
-0.268705 -0.128126 -0.229841 26 102 204
-0.266434 -0.122078 0.459681 26 102 204
-0.267078 -0.123637 -0.0298743 26 102 204
-0.276466 -0.117355 -0.387343 26 102 204
-0.271523 -0.117611 0.256338 26 102 204
-0.282238 -0.113753 -0.20721 26 102 204
-0.288658 -0.106942 -0.274343 26 102 204
-0.288632 -0.106166 0.380965 26 102 204
-0.289585 -0.10406 0.0373785 26 102 204
-0.290174 -0.105792 -0.165659 26 102 204
-0.294559 -0.0998764 -0.302439 26 102 204
-0.294498 -0.104347 0.113105 26 102 204
-0.294528 -0.100983 0.330426 26 102 204
-0.302585 -0.0911359 0.162591 26 102 204
-0.305374 -0.0917526 0.175958 26 102 204
-0.310984 -0.086526 -0.177077 26 102 204
-0.30939 -0.0906308 0.139362 26 102 204
-0.31619 -0.0878961 0.270411 26 102 204
-0.31029 -0.0889694 0.453845 26 102 204
-0.311513 -0.0868903 -0.218442 26 102 204
-0.320303 -0.0884742 0.207526 26 102 204
-0.317615 -0.083189 0.397121 26 102 204
-0.316449 -0.0818598 -0.100308 26 102 204
-0.325128 -0.0822114 -0.098573 26 102 204
-0.332173 -0.068962 -0.380296 26 102 204
-0.327331 -0.0776623 0.274008 26 102 204
-0.329667 -0.0745146 -0.334831 26 102 204
-0.331652 -0.0729605 0.0506115 26 102 204
-0.339013 -0.0629632 0.287785 26 102 204
-0.339922 -0.0662076 0.415823 26 102 204
-0.344706 -0.063124 -0.379039 26 102 204
-0.355692 -0.0547744 -0.426635 26 102 204
-0.351353 -0.0576198 -0.270802 26 102 204
-0.354525 -0.0504835 0.359618 26 102 204
-0.362349 -0.046967 -0.281995 26 102 204
-0.355514 -0.0499971 -0.271564 26 102 204
-0.368845 -0.040467 0.178832 26 102 204
-0.363436 -0.0450103 -0.158163 26 102 204
-0.368179 -0.0404163 0.357944 26 102 204
-0.367865 -0.0440405 -0.370514 26 102 204
-0.388894 -0.012042 0.140613 26 102 204
-0.37042 -0.0379986 -0.100114 26 102 204
-0.378217 -0.033065 -0.172305 26 102 204
-0.384482 -0.0310211 -0.0250319 26 102 204
-0.388257 -0.0200518 -0.178299 26 102 204
-0.382152 -0.0275372 -0.209554 26 102 204
-0.385496 -0.0247192 0.373654 26 102 204
-0.400275 -0.0175349 -0.22165 26 102 204
-0.387791 -0.0204258 -0.0466317 26 102 204
-0.393928 -0.012894 -0.410594 26 102 204
-0.400632 -0.0185712 0.385975 26 102 204
-0.414189 -0.00472496 0.159197 26 102 204
-0.400635 -0.0121189 0.167348 26 102 204
-0.40549 -0.00910472 0.267176 26 102 204
-0.408794 -0.0029174 0.217193 26 102 204
-0.410707 -0.00231809 -0.135371 26 102 204
-0.413629 -0.00558038 -0.310096 26 102 204
-0.410185 -0.0117036 0.034083 26 102 204
-0.42421 0.00732581 0.199704 26 102 204
-0.415508 0.00293775 -0.463873 26 102 204
-0.424037 0.00183133 0.0287397 26 102 204
-0.423987 0.0023315 0.192925 26 102 204
-0.43575 0.0172112 -0.429898 26 102 204
-0.431585 0.00352991 -0.119709 26 102 204
-0.431548 0.0117432 0.178511 26 102 204
-0.443916 0.0149476 -0.140807 26 102 204
-0.421683 0.00365084 0.469611 26 102 204
-0.439666 0.0129279 -0.205153 26 102 204
-0.44532 0.0200402 -0.336466 26 102 204
-0.447232 0.0306189 -0.091212 26 102 204
-0.451521 0.0268798 -0.0836848 26 102 204
-0.45851 0.0314962 0.348596 26 102 204
-0.447451 0.0223271 -0.180978 26 102 204
-0.442956 0.0241711 -0.32425 26 102 204
-0.453248 0.0325885 -0.0868364 26 102 204
-0.457934 0.0372619 -0.00853663 26 102 204
-0.459675 0.0315713 0.335342 26 102 204
-0.438698 0.00754941 0.478042 26 102 204
-0.472654 0.0545992 0.0542158 26 102 204
-0.0709723 -0.315514 -0.361725 26 102 204
-0.460248 0.0483246 -0.27519 26 102 204
-0.0411377 -0.314055 0.362045 26 102 204
-0.347954 -0.0476003 0.349341 26 102 204
-0.0772438 -0.283925 0.363494 26 102 204
-0.337047 -0.0507511 -0.500078 26 102 204
-0.320909 -0.0626498 -0.341332 26 102 204
-0.0695989 -0.294519 0.355314 26 102 204
-0.328026 -0.0489004 0.449208 26 102 204
-0.0355696 -0.307185 0.453966 26 102 204
-0.0784216 -0.285253 0.365694 26 102 204
-0.372222 -0.0296613 0.498225 26 102 204
-0.383111 -0.0219787 0.39198 26 102 204
-0.474543 0.0703342 -0.074059 26 102 204
-0.426998 0.0225865 -0.488723 26 102 204
-0.418945 0.0161629 0.458356 26 102 204
-0.467524 0.0607712 0.302617 26 102 204
0.0164307 -0.365221 0.34481 26 102 204
-0.456404 0.0592033 -0.23996 26 102 204
-0.150731 -0.221072 -0.509475 26 102 204
-0.0358668 -0.32548 0.323543 26 102 204
-0.115829 -0.253508 0.317384 26 102 204
-0.455902 0.0633058 -0.149957 26 102 204
-0.202984 -0.168446 0.33208 26 102 204
-0.463834 0.0735571 -0.113134 26 102 204
-0.465643 0.0757889 0.23797 26 102 204
-0.45474 0.0610971 0.380588 26 102 204
-0.442716 0.0525606 0.444915 26 102 204
-0.356466 -0.0239854 -0.471572 26 102 204
-0.0603024 -0.279658 -0.502491 26 102 204
-0.153885 -0.191547 -0.505767 26 102 204
-0.00867886 -0.348004 0.342713 26 102 204
0.0245858 -0.366213 -0.501651 26 102 204
0.00819365 -0.356038 0.388557 26 102 204
-0.444808 0.0603512 -0.415569 26 102 204
0.0121046 -0.35951 0.473901 26 102 204
-0.443104 0.0653223 0.342167 26 102 204
-0.451787 0.0791352 -0.235161 26 102 204
0.0447307 -0.380575 -0.441095 26 102 204
-0.466559 0.0852958 -0.150019 26 102 204
0.0134764 -0.335035 -0.292726 26 102 204
-0.223255 -0.126422 -0.328141 26 102 204
-0.449669 0.0771312 -0.0780318 26 102 204
-0.453055 0.0893977 0.246047 26 102 204
-0.325658 -0.038376 -0.496387 26 102 204
-0.448418 0.083647 -0.29634 26 102 204
-0.343839 -0.0096161 -0.336419 26 102 204
-0.45892 0.090944 0.241276 26 102 204
-0.365261 0.0142624 0.506852 26 102 204
-0.430105 0.0652715 0.296894 26 102 204
-0.324227 -0.0185235 -0.33843 26 102 204
-0.325868 -0.0252392 -0.478028 26 102 204
-0.425337 0.0666195 -0.349605 26 102 204
0.160626 -0.457788 0.445378 26 102 204
-0.0494635 -0.248881 -0.51466 26 102 204
0.0240157 -0.332445 0.329503 26 102 204
-0.43834 0.0691076 0.158622 26 102 204
-0.064275 -0.257532 0.500044 26 102 204
-0.248457 -0.0878617 -0.499096 26 102 204
-0.314209 -0.034418 -0.311098 26 102 204
0.0217734 -0.323402 0.386592 26 102 204
-0.39692 0.0409347 -0.334291 26 102 204
-0.0745157 -0.21556 -0.369646 26 102 204
0.0230977 -0.283051 0.421343 26 102 204
0.101585 -0.395619 0.363048 26 102 204
-0.430406 0.106294 -0.2252 26 102 204
-0.190309 -0.126395 -0.318601 26 102 204
-0.0647418 -0.25072 -0.326087 26 102 204
-0.327835 0.00309039 -0.330054 26 102 204
-0.421941 0.0777047 0.191145 26 102 204
-0.148735 -0.165605 0.50088 26 102 204
-0.43096 0.0900818 -0.241506 26 102 204
-0.439192 0.102611 0.0008439 26 102 204
-0.00215922 -0.282497 0.49702 26 102 204
-0.422378 0.102396 -0.304751 26 102 204
-0.0486039 -0.240203 -0.337644 26 102 204
0.099974 -0.376347 0.32652 26 102 204
-0.380435 0.0712153 -0.307661 26 102 204
0.0190812 -0.310368 0.337316 26 102 204
0.0518355 -0.32587 -0.352869 26 102 204
-0.153401 -0.144407 -0.0797526 26 102 204
-0.37514 0.0722632 0.487505 26 102 204
-0.00722397 -0.254481 -0.486517 26 102 204
-0.136217 -0.146087 0.325147 26 102 204
0.0219092 -0.286084 0.306362 26 102 204
-0.171852 -0.125193 -0.296448 26 102 204
-0.414919 0.113938 0.249626 26 102 204
-0.34685 0.0360499 0.491318 26 102 204
-0.131108 -0.142351 0.318758 26 102 204
-0.142764 -0.144307 -0.306651 26 102 204
-0.114104 -0.160128 0.296301 26 102 204
-0.13024 -0.137473 -0.506324 26 102 204
-0.407137 0.104456 0.01279 26 102 204
0.0372397 -0.293261 0.194115 26 102 204
-0.421489 0.121114 0.177514 26 102 204
-0.102259 -0.160836 0.368446 26 102 204
-0.00270526 -0.269812 0.332405 26 102 204
0.0465477 -0.285675 -0.0411197 26 102 204
0.0192741 -0.277278 0.274899 26 102 204
0.0965728 -0.33392 -0.46406 26 102 204
-0.411867 0.113936 0.0624582 26 102 204
0.0999673 -0.317426 -0.349808 26 102 204
-0.316037 0.0397369 0.344731 26 102 204
-0.0467847 -0.207956 -0.498777 26 102 204
-0.248263 -0.0417747 -0.501943 26 102 204
-0.142652 -0.127791 0.299278 26 102 204
-0.393381 0.108426 -0.447634 26 102 204
-0.311381 0.024628 0.497656 26 102 204
-0.259358 -0.00526575 0.311047 26 102 204
0.0323251 -0.265091 0.319345 26 102 204
-0.296055 0.0255794 0.497676 26 102 204
-0.389961 0.106885 -0.287395 26 102 204
-0.200529 -0.0607501 0.31744 26 102 204
-0.389938 0.119489 0.392311 26 102 204
0.0024365 -0.23091 0.320118 26 102 204
-0.39301 0.125557 -0.356685 26 102 204
-0.281852 0.0141639 -0.499789 26 102 204
-0.00260794 -0.22926 -0.272058 26 102 204
0.0706311 -0.295207 0.410141 26 102 204
-0.316537 0.0616304 0.498289 26 102 204
-0.33954 0.0807238 -0.474682 26 102 204
-0.00182118 -0.231159 -0.504754 26 102 204
0.144973 -0.348525 -0.417469 26 102 204
-0.110344 -0.131641 0.303722 26 102 204
0.0356909 -0.270913 -0.267055 26 102 204
0.0632329 -0.276176 0.449077 26 102 204
0.0457672 -0.264545 -0.380274 26 102 204
-0.164389 -0.0784327 0.334331 26 102 204
-0.389545 0.131758 0.143706 26 102 204
-0.221072 -0.0256238 0.496782 26 102 204
0.0635385 -0.275987 -0.353034 26 102 204
0.00770503 -0.213989 0.490844 26 102 204
-0.131909 -0.104893 0.326389 26 102 204
-0.0291844 -0.186441 0.327821 26 102 204
-0.157585 -0.077528 0.319853 26 102 204
0.0724835 -0.267136 -0.353695 26 102 204
0.113226 -0.317085 -0.293304 26 102 204
0.088973 -0.285864 -0.385082 26 102 204
-0.280522 0.0407553 0.500797 26 102 204
-0.0838818 -0.133899 -0.318732 26 102 204
0.0467926 -0.25414 0.310642 26 102 204
0.119465 -0.31022 0.469372 26 102 204
-0.119611 -0.0925356 0.497226 26 102 204
-0.347157 0.112046 -0.500109 26 102 204
-0.0447723 -0.165461 -0.502589 26 102 204
-0.19827 -0.0198078 -0.489682 26 102 204
0.0955824 -0.261667 -0.339413 26 102 204
0.0625588 -0.253244 0.493034 26 102 204
0.0876202 -0.276495 -0.298271 26 102 204
0.00792046 -0.185833 0.496036 26 102 204
0.0706072 -0.258334 0.480962 26 102 204
-0.0460107 -0.151794 -0.261976 26 102 204
0.0967965 -0.268303 -0.00815509 26 102 204
0.0802758 -0.265172 0.354898 26 102 204
-0.0900817 -0.107105 -0.321674 26 102 204
-0.192898 -0.0209367 -0.345187 26 102 204
-0.224036 0.0179459 0.387611 26 102 204
-0.275287 0.0506802 -0.450905 26 102 204
-0.382578 0.15213 -0.307818 26 102 204
-0.363128 0.143008 -0.222722 26 102 204
-0.186691 -0.0181034 -0.288417 26 102 204
0.00530599 -0.186009 0.498164 26 102 204
-0.35955 0.142948 0.430253 26 102 204
0.0528697 -0.234518 -0.505178 26 102 204
-0.343228 0.120187 0.451909 26 102 204
-0.335725 0.114177 0.468731 26 102 204
-0.303116 0.106631 0.35616 26 102 204
0.12362 -0.300886 0.29248 26 102 204
-0.327003 0.124371 -0.483882 26 102 204
-0.09816 -0.0937245 -0.293421 26 102 204
-0.375706 0.165784 0.352829 26 102 204
-0.366488 0.159996 0.341078 26 102 204
-0.0944936 -0.0834936 0.371178 26 102 204
-0.0965754 -0.0965422 -0.249397 26 102 204
-0.0117214 -0.160797 0.287104 26 102 204
-0.389067 0.184524 0.256626 26 102 204
-0.0118595 -0.171849 0.331894 26 102 204
0.154994 -0.320375 0.329209 26 102 204
0.0489089 -0.220434 0.344325 26 102 204
0.126852 -0.279688 0.330709 26 102 204
0.0469113 -0.208235 -0.328746 26 102 204
0.0294546 -0.19226 -0.376516 26 102 204
0.0242648 -0.198486 -0.377447 26 102 204
-0.0323478 -0.129366 -0.287143 26 102 204
-0.208347 0.0167935 -0.503535 26 102 204
-0.33295 0.134513 -0.299929 26 102 204
-0.035729 -0.151146 -0.39957 26 102 204
0.110025 -0.230698 -0.349008 26 102 204
-0.155557 -0.0215484 0.308103 26 102 204
0.0585382 -0.20154 -0.494754 26 102 204
-0.303406 0.117251 -0.317379 26 102 204
-0.109154 -0.0544864 0.509138 26 102 204
-0.0319605 -0.12575 -0.284143 26 102 204
-0.284864 0.11233 0.477713 26 102 204
-0.246217 0.0822966 0.291321 26 102 204
0.0198899 -0.166687 -0.320816 26 102 204
-0.0794685 -0.0597529 -0.482689 26 102 204
-0.336391 0.173785 -0.349693 26 102 204
0.133795 -0.256229 0.313438 26 102 204
-0.338635 0.17915 0.090396 26 102 204
-0.310576 0.146166 -0.302174 26 102 204
-0.318153 0.163444 0.497789 26 102 204
-0.300573 0.14361 0.29253 26 102 204
0.0365003 -0.155924 -0.336646 26 102 204
-0.29711 0.120332 0.492484 26 102 204
0.00766593 -0.12673 -0.227898 26 102 204
-0.164929 0.0211987 -0.49689 26 102 204
0.0808938 -0.193388 -0.293488 26 102 204
-0.178812 0.038293 0.377169 26 102 204
-0.353133 0.168917 0.359729 26 102 204
0.0917334 -0.192644 0.337676 26 102 204
-0.334895 0.188516 0.356895 26 102 204
0.0720373 -0.171883 0.484958 26 102 204
-0.228477 0.0911233 -0.299854 26 102 204
-0.319327 0.18036 -0.111641 26 102 204
0.0296484 -0.132108 0.490298 26 102 204
-0.320394 0.172796 0.30678 26 102 204
-0.339195 0.17445 0.225095 26 102 204
0.0272742 -0.129673 0.276106 26 102 204
-0.323933 0.184623 -0.281315 26 102 204
-0.332132 0.203771 0.287616 26 102 204
-0.0752649 -0.0265361 0.283587 26 102 204
-0.299363 0.160204 -0.287342 26 102 204
-0.103622 -0.00466346 -0.293571 26 102 204
-0.327062 0.180184 0.337916 26 102 204
-0.127971 -0.056128 -0.462842 26 102 204
-0.0950395 -0.0125975 0.301562 26 102 204
0.113065 -0.19897 0.261866 26 102 204
0.105468 -0.187585 0.00429216 26 102 204
0.0607167 -0.14693 -0.517079 26 102 204
-0.164049 0.0502034 -0.323271 26 102 204
-0.322829 0.185781 0.340049 26 102 204
-0.100316 -0.0137983 0.488118 26 102 204
-0.196014 0.091542 -0.497347 26 102 204
-0.318312 0.198361 -0.121778 26 102 204
-0.325342 0.192047 -0.0733903 26 102 204
-0.0268457 -0.0887845 -0.1362 26 102 204
-0.0213188 -0.0723588 0.205187 26 102 204
-0.045626 -0.0550837 -0.248687 26 102 204
-0.0371985 -0.0596956 -0.298079 26 102 204
-0.0577739 -0.0746043 -0.356192 26 102 204
-0.0488815 -0.0536757 -0.329423 26 102 204
-0.0514728 -0.0497131 0.200998 26 102 204
-0.0536306 -0.0513875 0.0242204 26 102 204
-0.052518 -0.0500538 -0.106857 26 102 204
-0.0514386 -0.048396 0.262781 26 102 204
-0.0660009 -0.046888 0.298874 26 102 204
-0.0663287 -0.0400271 0.389733 26 102 204
-0.0567093 -0.0416754 -0.336165 26 102 204
-0.0791788 -0.0331261 -0.231672 26 102 204
-0.0740139 -0.0392698 0.0205388 26 102 204
-0.0728353 -0.0321213 0.0720002 26 102 204
-0.079984 -0.0301198 -0.39977 26 102 204
-0.0851606 -0.0290649 0.153213 26 102 204
-0.0872106 -0.0214087 -0.314709 26 102 204
-0.088729 -0.021869 -0.175881 26 102 204
-0.0935927 -0.0179222 0.153788 26 102 204
-0.0909791 -0.0183642 0.355722 26 102 204
-0.0944421 -0.0197843 -0.39384 26 102 204
-0.0971534 -0.0146074 0.371606 26 102 204
-0.405926 0.125595 -0.291426 26 102 204
-0.105558 -0.00836405 0.0217583 26 102 204
-0.121625 -0.00402946 -0.0939555 26 102 204
-0.132691 -0.00705465 0.365502 26 102 204
-0.118826 0.000964875 0.349454 26 102 204
-0.114971 -0.00587492 0.126947 26 102 204
-0.122593 0.00280413 -0.257968 26 102 204
-0.121549 0.000783229 -0.332024 26 102 204
-0.123352 0.00500022 -0.101105 26 102 204
-0.113514 -0.0102272 -0.252197 26 102 204
-0.128078 0.00750173 0.233439 26 102 204
-0.133264 0.0132757 -0.308828 26 102 204
-0.126918 0.00805367 0.234974 26 102 204
-0.136858 0.0122629 -0.180387 26 102 204
-0.141968 0.0168892 0.474012 26 102 204
-0.152473 0.0346672 0.167309 26 102 204
-0.159185 0.0374613 -0.0159061 26 102 204
-0.181161 0.0434097 -0.356153 26 102 204
-0.160638 0.0380437 -0.053763 26 102 204
-0.167648 0.044321 0.174254 26 102 204
-0.172724 0.0495247 -0.166851 26 102 204
-0.162494 0.036369 0.450866 26 102 204
-0.170074 0.0472743 0.0476577 26 102 204
-0.170365 0.0436067 -0.379321 26 102 204
-0.178319 0.0508211 0.314773 26 102 204
-0.181257 0.0535158 0.337281 26 102 204
-0.2505 0.0231923 -0.0132305 26 102 204
-0.179822 0.0512999 0.209475 26 102 204
-0.188453 0.0549399 -0.0627548 26 102 204
-0.177202 0.0544505 0.131536 26 102 204
-0.190919 0.0567852 -0.314148 26 102 204
-0.188471 0.060472 0.376455 26 102 204
-0.190482 0.0665749 0.20572 26 102 204
-0.204449 0.0724789 0.292951 26 102 204
-0.19781 0.0680248 0.310377 26 102 204
-0.198356 0.0721397 -0.405125 26 102 204
-0.206378 0.0782004 0.29564 26 102 204
-0.207756 0.0758354 0.0304233 26 102 204
-0.208563 0.0785471 -0.13896 26 102 204
-0.21326 0.0886368 0.472405 26 102 204
-0.21174 0.0823235 0.177827 26 102 204
-0.220442 0.0859527 -0.0960248 26 102 204
-0.223528 0.0944372 -0.131517 26 102 204
-0.225672 0.0901464 0.0790926 26 102 204
-0.228606 0.0975619 0.279815 26 102 204
-0.239797 0.103914 -0.0617125 26 102 204
-0.244607 0.110576 -0.0275391 26 102 204
-0.244463 0.114243 0.283054 26 102 204
-0.241197 0.112303 0.430935 26 102 204
-0.247425 0.117728 -0.323812 26 102 204
-0.260246 0.130111 0.281968 26 102 204
-0.27893 0.116673 -0.446716 26 102 204
-0.267638 0.132203 0.487912 26 102 204
-0.263412 0.127786 0.0592056 26 102 204
-0.288499 0.138843 -0.427443 26 102 204
-0.276561 0.144136 -0.352531 26 102 204
-0.275834 0.140995 0.236578 26 102 204
-0.28183 0.147438 -0.105754 26 102 204
-0.286395 0.156896 0.40409 26 102 204
-0.298647 0.162019 -0.351784 26 102 204
-0.30311 0.16932 0.18942 26 102 204
-0.29639 0.167431 -0.188411 26 102 204
-0.299169 0.167693 -0.0601892 26 102 204
-0.304242 0.169461 -0.0346406 26 102 204
-0.307743 0.180867 0.112019 26 102 204
-0.318406 0.191349 0.0591651 26 102 204
-0.295141 0.187303 0.231451 26 102 204
-0.288825 0.175568 0.192502 26 102 204
-0.0930007 -0.00119973 0.502825 26 102 204
-0.195938 0.109536 -0.24478 26 102 204
-0.046539 -0.0541134 -0.0171263 26 102 204
-0.217692 0.11924 -0.5097 26 102 204
-0.238494 0.141675 0.408641 26 102 204
0.0114789 -0.0875663 -0.203315 26 102 204
-0.0209119 -0.0510091 0.270339 26 102 204
-0.0370752 -0.0396895 0.33188 26 102 204
-0.0190959 -0.0454015 -0.340502 26 102 204
-0.129389 0.0513376 -0.260415 26 102 204
0.1028 -0.146887 0.338279 26 102 204
0.11076 -0.158637 0.290885 26 102 204
-0.157002 0.0884707 -0.317877 26 102 204
0.113365 -0.156337 -0.354786 26 102 204
-0.215053 0.136996 -0.244708 26 102 204
0.0321468 -0.0880182 0.373612 26 102 204
-0.167407 0.0892411 -0.265848 26 102 204
-0.217518 0.104327 0.290477 26 102 204
0.0638301 -0.114864 0.347072 26 102 204
0.0448168 -0.0903229 0.232117 26 102 204
-0.00232203 -0.049397 0.180942 26 102 204
-0.117697 0.0578725 -0.494928 26 102 204
-0.10861 0.0445016 0.361134 26 102 204
-0.00575957 -0.037849 0.283589 26 102 204
0.13703 -0.159489 -0.412091 26 102 204
-0.0765947 0.0272928 -0.300212 26 102 204
-0.179375 0.11924 -0.327197 26 102 204
0.0395543 -0.0740769 0.362723 26 102 204
0.000141638 -0.0351697 0.420892 26 102 204
0.123799 -0.119231 0.0484967 26 102 204
0.163856 -0.154797 -0.321893 26 102 204
0.144953 -0.156201 0.0878162 26 102 204
-0.208201 0.156959 0.374729 26 102 204
-0.187544 0.142526 -0.329594 26 102 204
0.121853 -0.127407 -0.0151136 26 102 204
0.061507 -0.0821026 0.312828 26 102 204
0.128755 -0.139141 0.333499 26 102 204
-0.141846 0.112759 -0.274118 26 102 204
0.134429 -0.140517 -0.0663254 26 102 204
0.0691148 -0.077858 -0.215878 26 102 204
0.056547 -0.0690517 0.227534 26 102 204
0.0173414 -0.0385442 -0.434917 26 102 204
-0.0427472 0.0269203 -0.500498 26 102 204
0.122909 -0.128337 -0.118266 26 102 204
0.13713 -0.133556 0.29284 26 102 204
0.0128 -0.0303034 0.0370045 26 102 204
0.141052 -0.138086 0.279018 26 102 204
0.0706264 -0.07164 0.248908 26 102 204
0.0551198 -0.0610627 0.318795 26 102 204
0.0338956 -0.0419575 0.262124 26 102 204
0.0191194 0.000753096 -0.360306 26 102 204
-0.20073 0.16643 -0.393004 26 102 204
-0.127847 0.097464 0.267165 26 102 204
0.0263514 -0.0324598 0.267025 26 102 204
0.0348317 -0.0405343 0.253567 26 102 204
0.00467176 -0.0121532 0.235836 26 102 204
-0.162045 0.134311 -0.430168 26 102 204
-0.113038 0.0991658 -0.509677 26 102 204
-0.183849 0.168137 -0.33057 26 102 204
0.174645 -0.146302 0.327277 26 102 204
0.00402578 -0.00289023 0.290702 26 102 204
0.0257876 -0.0260677 0.453922 26 102 204
-0.121428 0.112698 -0.324146 26 102 204
-0.0760161 0.0735944 0.310054 26 102 204
0.0371961 -0.035279 0.465076 26 102 204
0.0103255 -0.00399088 0.00836036 26 102 204
0.198638 -0.160727 -0.267208 26 102 204
0.0621637 -0.0504637 0.297624 26 102 204
-0.0120982 0.0204277 0.37492 26 102 204
0.05132 -0.0376558 0.227797 26 102 204
0.177365 -0.142243 0.189456 26 102 204
-0.0390686 0.0391532 -0.2864 26 102 204
-0.187582 0.162656 0.420461 26 102 204
0.0822456 -0.0651631 0.253875 26 102 204
0.151853 -0.115008 0.372201 26 102 204
-0.185431 0.179483 -0.321537 26 102 204
0.00811228 0.00702862 0.239345 26 102 204
-0.0964416 0.0966939 -0.315018 26 102 204
0.120906 -0.0898794 -0.22532 26 102 204
-0.129624 0.125312 -0.412605 26 102 204
-0.138956 0.139185 -0.401104 26 102 204
0.0296862 -0.0187379 -0.31808 26 102 204
-0.161677 0.163781 -0.456128 26 102 204
0.0201369 -0.00249168 0.352755 26 102 204
0.16001 -0.127282 0.207874 26 102 204
0.0688334 -0.0403298 0.306302 26 102 204
0.0228403 -0.000309805 -0.0674217 26 102 204
-0.149142 0.150117 0.300033 26 102 204
-0.162882 0.161215 -0.34248 26 102 204
-0.145939 0.147156 0.317259 26 102 204
0.017457 0.000584774 -0.276338 26 102 204
0.14452 -0.10958 0.232097 26 102 204
0.0367833 -0.0140524 0.466782 26 102 204
0.0574615 -0.0387815 0.251315 26 102 204
-0.123694 0.119248 -0.479662 26 102 204
0.0752802 -0.0452761 0.262105 26 102 204
0.0326373 -0.00310637 0.0516129 26 102 204
0.0301422 0.00165155 0.0852765 26 102 204
-0.139453 0.142163 0.489133 26 102 204
0.0199467 0.0148107 -0.0121145 26 102 204
0.0349897 -0.0065872 -0.0225384 26 102 204
-0.105963 0.122287 0.471142 26 102 204
-0.129746 0.146003 0.350881 26 102 204
0.117622 -0.0716972 0.238402 26 102 204
0.0268867 0.00396294 -0.243828 26 102 204
0.0659399 -0.0271631 0.284257 26 102 204
-0.0852229 0.108415 0.483861 26 102 204
0.180825 -0.130863 -0.158616 26 102 204
-0.12524 0.148689 -0.470831 26 102 204
0.049047 -0.00960462 -0.0793143 26 102 204
0.00449167 0.0211296 0.409185 26 102 204
0.0987099 -0.0572043 0.260716 26 102 204
0.0254843 0.0152342 0.27307 26 102 204
-0.0907849 0.113416 -0.489919 26 102 204
0.0419819 0.000436475 0.0868486 26 102 204
0.0397542 0.0039455 0.00611998 26 102 204
0.180124 -0.117666 -0.36975 26 102 204
0.18163 -0.119746 0.287904 26 102 204
0.0967024 -0.0424005 -0.205073 26 102 204
0.217941 -0.0432809 -0.358579 26 102 204
-0.0844961 0.118338 0.496686 26 102 204
0.106272 -0.0476478 0.307463 26 102 204
0.17829 -0.120831 -0.348011 26 102 204
0.047531 -0.00139035 0.135746 26 102 204
0.167435 -0.0863919 0.0611614 26 102 204
-0.0660826 0.110035 0.498257 26 102 204
0.0628427 0.000186442 0.0214314 26 102 204
0.18496 -0.109336 0.321289 26 102 204
0.0511507 0.00640085 0.103809 26 102 204
0.190628 -0.104036 -0.33135 26 102 204
-0.0850122 0.134282 0.494767 26 102 204
0.157916 -0.0803509 -0.376347 26 102 204
-0.125988 0.172362 -0.474124 26 102 204
0.0835788 -0.00547446 -0.233778 26 102 204
0.0622269 0.0211756 -0.188128 26 102 204
0.171689 -0.0753774 -0.471116 26 102 204
-0.106147 0.155253 -0.5008 26 102 204
0.168227 -0.0778169 -0.242246 26 102 204
0.110684 -0.0224077 0.491875 26 102 204
0.0597135 0.0209326 0.242421 26 102 204
-0.118385 0.183827 -0.324443 26 102 204
0.0771767 0.0148314 0.0507091 26 102 204
-0.0872077 0.15138 -0.490049 26 102 204
0.161153 -0.0435494 0.300759 26 102 204
-0.103921 0.183155 0.38457 26 102 204
0.0838427 0.0228404 -0.230307 26 102 204
0.0784677 0.024664 -0.239615 26 102 204
0.144777 -0.0334337 0.386339 26 102 204
0.0782086 0.0326651 0.49912 26 102 204
0.0868289 0.0126623 0.480134 26 102 204
0.211849 0.00442745 -0.28753 26 102 204
0.0942351 0.0169651 -0.198488 26 102 204
0.093146 0.0333428 0.194434 26 102 204
0.107256 0.0172274 0.483445 26 102 204
0.070177 0.0457081 0.0243009 26 102 204
0.0746711 0.0474604 -0.146312 26 102 204
0.0868531 0.035631 0.0358435 26 102 204
0.120413 -6.26869e-05 0.227754 26 102 204
0.0836156 0.0449055 -0.28051 26 102 204
-0.0689658 0.173677 -0.298102 26 102 204
0.198798 -0.0629144 -0.224927 26 102 204
0.0858186 0.0392471 -0.215605 26 102 204
-0.0982692 0.147625 -0.373836 26 102 204
0.0280943 0.100498 -0.503478 26 102 204
-0.0549828 0.174631 0.509898 26 102 204
0.127245 0.0289339 0.173007 26 102 204
0.15803 0.0323157 0.0546256 26 102 204
0.0364031 0.0912377 -0.491482 26 102 204
0.13777 0.0222779 0.102918 26 102 204
0.110925 0.0401786 -0.141867 26 102 204
0.108871 0.0432585 0.180586 26 102 204
0.27988 0.107842 0.247323 26 102 204
0.108473 0.0440729 -0.129618 26 102 204
0.0979637 0.048269 -0.101393 26 102 204
0.213359 -0.0525265 -0.107775 26 102 204
0.193384 -0.0431008 0.242862 26 102 204
0.216335 -0.0563292 0.245918 26 102 204
-0.0846798 0.2139 -0.505468 26 102 204
0.194228 -0.0338405 -0.258179 26 102 204
0.21066 -0.0498567 -0.276733 26 102 204
0.190083 -0.0235449 0.389144 26 102 204
0.17033 -0.00560369 0.261493 26 102 204
0.172991 -0.00901362 0.208056 26 102 204
0.220811 -0.0213995 0.435098 26 102 204
0.0951151 0.0637104 0.187402 26 102 204
0.108966 0.0549625 0.00975895 26 102 204
0.22313 -0.0423277 0.282777 26 102 204
-0.0407787 0.189679 -0.471881 26 102 204
0.192108 -0.0114368 -0.316628 26 102 204
0.109967 0.0645996 0.127314 26 102 204
0.122962 0.0424178 0.310119 26 102 204
0.227203 -0.0420874 0.34466 26 102 204
0.116532 0.0550689 0.110548 26 102 204
0.0900426 0.0913595 0.303868 26 102 204
0.018417 0.148681 -0.504864 26 102 204
-0.0387693 0.211812 -0.49648 26 102 204
0.158356 0.0161582 -0.363719 26 102 204
0.119455 0.059564 0.299712 26 102 204
0.13838 0.0532408 -0.440065 26 102 204
0.123331 0.0697743 -0.257416 26 102 204
-0.0701047 0.242658 -0.352476 26 102 204
0.126458 0.0633984 0.0581891 26 102 204
0.2095 0.0038922 0.20261 26 102 204
0.134739 0.0705161 0.0927475 26 102 204
0.251163 -0.0375743 -0.420748 26 102 204
0.248539 -0.0301947 -0.313166 26 102 204
0.22394 -0.00656407 -0.259708 26 102 204
0.161644 0.041441 0.223127 26 102 204
0.126393 0.0857136 -0.249304 26 102 204
0.214966 0.00905508 0.301427 26 102 204
0.266074 -0.0312072 0.254181 26 102 204
0.217948 0.000123202 0.212954 26 102 204
0.254205 0.06005 0.0217303 26 102 204
0.135616 0.0762846 0.0465354 26 102 204
0.239266 -0.014046 0.00493591 26 102 204
0.254097 -0.0218198 0.0531105 26 102 204
0.172771 0.0486883 -0.270354 26 102 204
0.133803 0.0814306 -0.0752201 26 102 204
0.135397 0.0822794 -0.0219837 26 102 204
0.236675 -0.00639643 -0.0748195 26 102 204
0.243866 -0.00106763 0.364597 26 102 204
0.136219 0.0869649 -0.0420335 26 102 204
0.0307717 0.184542 -0.337848 26 102 204
-0.020808 0.217316 -0.494601 26 102 204
0.136455 0.089857 -0.0721704 26 102 204
0.137506 0.081419 -0.477619 26 102 204
-0.0431212 0.2604 -0.333057 26 102 204
0.126472 0.102493 0.501211 26 102 204
0.148043 0.0780308 -0.161945 26 102 204
0.149609 0.0830262 -0.285279 26 102 204
0.2306 0.0152806 0.331761 26 102 204
0.251974 -0.00366961 0.144993 26 102 204
0.248581 -0.00306067 -0.194279 26 102 204
-0.0350478 0.255095 0.503408 26 102 204
0.117201 0.128806 -0.306733 26 102 204
0.260478 0.00876708 -0.480915 26 102 204
0.152778 0.0821982 -0.0508224 26 102 204
0.234426 0.0244322 -0.291008 26 102 204
0.247743 0.011218 0.0360936 26 102 204
0.273338 -0.0102958 -0.372513 26 102 204
-0.0274286 0.256005 0.39959 26 102 204
0.265712 -0.00747964 0.329005 26 102 204
0.217134 0.0322703 -0.272662 26 102 204
0.130821 0.0978592 0.433906 26 102 204
-0.0157314 0.250563 0.456058 26 102 204
0.0831118 0.164957 -0.493686 26 102 204
0.110661 0.128207 0.322858 26 102 204
0.288356 -0.0254235 -0.223901 26 102 204
0.247439 0.0159735 -0.313429 26 102 204
0.274934 -0.00733085 -0.264446 26 102 204
0.0627165 0.179971 -0.509691 26 102 204
0.261415 0.00361204 0.463415 26 102 204
-0.00364258 0.22608 0.496869 26 102 204
-0.00689155 0.259432 0.508319 26 102 204
0.271088 0.00171845 0.199805 26 102 204
0.273176 -0.00053153 -0.00112721 26 102 204
0.0113946 0.217494 -0.315207 26 102 204
-0.0236474 0.262661 -0.348044 26 102 204
0.254692 0.0158082 0.352757 26 102 204
0.289662 -0.0175457 -0.253046 26 102 204
0.272932 -0.000969441 0.28647 26 102 204
0.264933 0.0107894 0.234211 26 102 204
0.252617 0.0240898 0.309565 26 102 204
0.280672 0.00335957 0.26371 26 102 204
0.265109 0.0228646 0.166887 26 102 204
0.285664 0.0130652 -0.212468 26 102 204
0.316451 -0.0335016 -0.261397 26 102 204
0.301141 -0.0211028 -0.43793 26 102 204
0.289386 -0.00330007 0.118692 26 102 204
0.311207 -0.0149448 0.306833 26 102 204
0.172054 0.109815 -0.240151 26 102 204
0.156858 0.127303 0.277657 26 102 204
0.297417 -0.00679423 -0.190688 26 102 204
0.238678 0.0419389 -0.509066 26 102 204
0.157899 0.117142 -0.115577 26 102 204
0.00465528 0.262175 -0.377893 26 102 204
0.170654 0.113635 -0.171776 26 102 204
0.273223 0.0232803 0.298533 26 102 204
0.331877 -0.0390152 0.25277 26 102 204
0.244602 0.0384904 -0.503312 26 102 204
0.160971 0.127433 -0.24623 26 102 204
0.170999 0.121427 0.278551 26 102 204
0.298118 -0.00336904 0.16781 26 102 204
0.193675 0.102711 -0.498852 26 102 204
0.281492 0.01605 -0.360858 26 102 204
0.198693 0.0950099 -0.506734 26 102 204
0.168965 0.123272 0.227174 26 102 204
0.0064487 0.272922 -0.488897 26 102 204
0.30513 0.00588836 0.457397 26 102 204
0.239633 0.0626009 0.254266 26 102 204
0.169843 0.137528 -0.405252 26 102 204
0.170314 0.129289 0.142918 26 102 204
0.266549 0.0505684 -0.487118 26 102 204
0.0327882 0.242311 0.490546 26 102 204
0.169505 0.131432 0.501073 26 102 204
0.192004 0.110171 -0.503861 26 102 204
0.323881 -0.00193282 -0.49228 26 102 204
0.0589698 0.239894 -0.494979 26 102 204
0.28687 0.0320502 -0.331639 26 102 204
0.0405242 0.259294 0.430067 26 102 204
0.264395 0.060212 0.284927 26 102 204
0.307315 0.0305385 0.493432 26 102 204
0.275777 0.0521691 0.500773 26 102 204
0.188794 0.13538 -0.0146712 26 102 204
0.294949 0.0427832 0.404366 26 102 204
0.363674 -0.0249875 -0.386517 26 102 204
0.289151 0.0465555 0.294944 26 102 204
0.0626766 0.247334 -0.498025 26 102 204
0.190771 0.144838 -0.305299 26 102 204
0.309438 0.0283559 0.455501 26 102 204
0.195325 0.132206 -0.0465546 26 102 204
0.339274 0.00742163 0.409382 26 102 204
0.300125 0.0525417 0.259335 26 102 204
0.19689 0.141068 0.192483 26 102 204
0.21247 0.127236 0.262507 26 102 204
0.190366 0.140132 0.197985 26 102 204
0.0890295 0.24079 -0.493683 26 102 204
0.27951 0.0764068 -0.331477 26 102 204
0.309873 0.0492538 -0.376888 26 102 204
0.366169 0.0148851 -0.333499 26 102 204
0.195138 0.152131 -0.1321 26 102 204
0.310464 0.052888 -0.444803 26 102 204
0.0638739 0.270282 -0.493164 26 102 204
0.284924 0.0602875 -0.428504 26 102 204
0.419723 0.0182704 -0.360353 26 102 204
0.0959776 0.257678 -0.33687 26 102 204
0.0982227 0.255706 -0.466428 26 102 204
0.341762 0.0218094 -0.343383 26 102 204
0.385255 -0.00259746 0.337846 26 102 204
0.329904 0.0474231 -0.200211 26 102 204
0.225756 0.135111 -0.322393 26 102 204
0.200723 0.155888 -0.0642415 26 102 204
0.310538 0.0677371 0.170989 26 102 204
0.0606217 0.290102 -0.487434 26 102 204
0.338333 0.0409298 -0.308959 26 102 204
0.382962 0.00292315 0.479368 26 102 204
0.326788 0.0639022 -0.241295 26 102 204
0.399796 0.0524523 0.489731 26 102 204
0.297497 0.0851446 -0.212984 26 102 204
0.302678 0.0834575 -0.479255 26 102 204
0.126048 0.232841 0.335867 26 102 204
0.308811 0.0683631 0.0226343 26 102 204
0.328973 0.0486401 -0.190177 26 102 204
0.417201 -0.0376876 -0.312212 26 102 204
0.361513 0.0191484 0.315562 26 102 204
0.304734 0.0956975 0.253027 26 102 204
0.268313 0.104772 0.50292 26 102 204
0.362628 0.0345974 -0.469342 26 102 204
0.262989 0.11218 -0.413208 26 102 204
0.192625 0.172286 0.489107 26 102 204
0.253595 0.123654 -0.326754 26 102 204
0.214722 0.170256 0.382601 26 102 204
0.380668 0.0206534 -0.432589 26 102 204
0.396626 0.00415738 -0.267615 26 102 204
0.222747 0.167716 -0.0514196 26 102 204
0.223993 0.172501 -0.206992 26 102 204
0.401659 0.0263498 -0.405272 26 102 204
0.388497 0.0196917 -0.479395 26 102 204
0.394895 0.0175625 -0.498833 26 102 204
0.227016 0.172231 -0.258705 26 102 204
0.104688 0.280177 0.383756 26 102 204
0.428587 -0.0135009 -0.293266 26 102 204
0.284389 0.125459 0.4558 26 102 204
0.308815 0.102371 0.340257 26 102 204
0.228396 0.175204 0.400058 26 102 204
0.414549 0.0097014 -0.403722 26 102 204
0.277229 0.156825 0.362642 26 102 204
0.254082 0.152078 0.29431 26 102 204
0.426584 -0.00102885 -0.30484 26 102 204
0.347101 0.0739447 -0.253867 26 102 204
0.236993 0.172644 -0.499343 26 102 204
0.366384 0.0729957 -0.431194 26 102 204
0.403262 0.0344884 0.321279 26 102 204
0.416205 0.0337296 0.486315 26 102 204
0.32116 0.0985101 -0.241621 26 102 204
0.264816 0.160628 -0.185736 26 102 204
0.340279 0.0722269 0.461636 26 102 204
0.24034 0.172169 -0.266512 26 102 204
0.264773 0.190041 -0.118959 26 102 204
0.241966 0.176247 0.138165 26 102 204
0.421496 0.0274774 -0.283892 26 102 204
0.353406 0.0897322 0.252035 26 102 204
0.222481 0.209771 -0.497446 26 102 204
0.241904 0.186593 -0.0848839 26 102 204
0.39728 0.0688326 -0.22587 26 102 204
0.233279 0.188744 -0.105881 26 102 204
0.228387 0.205747 -0.253894 26 102 204
0.31122 0.121997 -0.29576 26 102 204
0.380832 0.0714665 0.307455 26 102 204
0.280967 0.164727 0.283353 26 102 204
0.124184 0.30203 -0.353098 26 102 204
0.264119 0.18744 -0.500392 26 102 204
0.132014 0.300966 0.502562 26 102 204
0.249667 0.19771 -0.176893 26 102 204
0.366754 0.09379 -0.251075 26 102 204
0.242446 0.194063 -0.0539739 26 102 204
0.386658 0.0781357 0.261849 26 102 204
0.398402 0.0735239 0.496235 26 102 204
0.357633 0.122812 0.245547 26 102 204
0.341579 0.138152 -0.513697 26 102 204
0.392383 0.0809182 0.297491 26 102 204
0.362208 0.139848 0.288165 26 102 204
0.396363 0.08583 0.195163 26 102 204
0.283417 0.181682 0.278238 26 102 204
0.361243 0.126639 -0.159075 26 102 204
0.345569 0.126399 -0.467942 26 102 204
0.279757 0.198265 0.107564 26 102 204
0.253685 0.216328 -0.0702932 26 102 204
0.416536 0.0770728 0.390309 26 102 204
0.248142 0.210019 0.503966 26 102 204
0.410395 0.0909018 0.414013 26 102 204
0.397643 0.0930282 -0.47208 26 102 204
0.405431 0.0918476 -0.425603 26 102 204
0.282061 0.199071 -0.154802 26 102 204
0.385859 0.104309 0.320313 26 102 204
0.273387 0.208621 -0.270913 26 102 204
0.415286 0.0912042 -0.461721 26 102 204
0.376578 0.123627 -0.49456 26 102 204
0.291773 0.195935 0.267568 26 102 204
0.302596 0.180896 -0.306692 26 102 204
0.392531 0.105157 -0.490606 26 102 204
0.449722 0.0600456 0.29133 26 102 204
0.372601 0.150548 0.496264 26 102 204
0.402188 0.0799588 -0.385986 26 102 204
0.276077 0.214328 0.404403 26 102 204
0.402216 0.109517 -0.266163 26 102 204
0.248324 0.250593 -0.50044 26 102 204
0.285699 0.22448 -0.311786 26 102 204
0.279891 0.219642 0.0249272 26 102 204
0.375361 0.140281 0.387117 26 102 204
0.422234 0.099994 -0.162805 26 102 204
0.289044 0.21609 -0.285016 26 102 204
0.460631 0.0547654 0.323975 26 102 204
0.287941 0.223481 0.249047 26 102 204
0.306772 0.205909 -0.262035 26 102 204
0.339692 0.176272 -0.46182 26 102 204
0.276603 0.230087 0.144696 26 102 204
0.353292 0.160733 -0.50291 26 102 204
0.411439 0.119354 -0.0453553 26 102 204
0.431881 0.0945215 -0.370425 26 102 204
0.417464 0.105306 0.380785 26 102 204
0.450436 0.0796028 0.505796 26 102 204
0.209591 0.298655 0.443901 26 102 204
0.424447 0.108231 0.50047 26 102 204
0.168319 0.339001 -0.436931 26 102 204
0.452115 0.0856699 0.331692 26 102 204
0.409935 0.113349 -0.48805 26 102 204
0.367025 0.159863 -0.193142 26 102 204
0.401757 0.123737 0.26055 26 102 204
0.42561 0.114247 -0.336034 26 102 204
0.301906 0.226248 0.345254 26 102 204
0.448772 0.0975186 -0.344959 26 102 204
0.394491 0.151588 -0.17777 26 102 204
0.42443 0.116327 -0.480403 26 102 204
0.443564 0.0966949 0.316942 26 102 204
0.43627 0.0979503 0.296103 26 102 204
0.428344 0.109592 0.348817 26 102 204
0.427373 0.109407 0.395085 26 102 204
0.42369 0.118161 0.463117 26 102 204
0.418636 0.119872 0.37334 26 102 204
0.416163 0.125081 0.382202 26 102 204
0.403002 0.128751 -0.339222 26 102 204
0.402959 0.133453 -0.090655 26 102 204
0.393293 0.139184 0.119356 26 102 204
0.39367 0.14644 -0.0226974 26 102 204
0.398731 0.142989 -0.200115 26 102 204
0.389729 0.144512 0.0159395 26 102 204
0.386366 0.142721 -0.469814 26 102 204
0.394733 0.139371 -0.399725 26 102 204
0.386062 0.146724 -0.448794 26 102 204
0.384669 0.144131 -0.347633 26 102 204
0.385382 0.150241 0.0873533 26 102 204
0.384828 0.150414 0.317449 26 102 204
0.386694 0.152079 0.359438 26 102 204
0.37985 0.158872 0.356188 26 102 204
0.377026 0.161042 0.395615 26 102 204
0.380317 0.157608 -0.300897 26 102 204
0.375434 0.159843 0.351906 26 102 204
0.372961 0.160271 0.334774 26 102 204
0.361841 0.172296 -0.346421 26 102 204
0.366557 0.169507 0.01357 26 102 204
0.362767 0.17063 -0.118204 26 102 204
0.365422 0.16928 0.273231 26 102 204
0.368019 0.16716 0.449227 26 102 204
0.358564 0.174595 -0.129577 26 102 204
0.357963 0.172563 -0.0752107 26 102 204
0.356038 0.181265 0.447834 26 102 204
0.356984 0.182666 0.391061 26 102 204
0.347962 0.189734 -0.440438 26 102 204
0.330562 0.177186 -0.379153 26 102 204
0.344954 0.1815 0.300462 26 102 204
0.345754 0.185423 -0.286384 26 102 204
0.343708 0.185778 -0.27813 26 102 204
0.341886 0.196621 -0.235334 26 102 204
0.342366 0.193696 0.360927 26 102 204
0.336523 0.200402 0.177423 26 102 204
0.337714 0.198738 -0.0237739 26 102 204
0.342468 0.199864 0.370172 26 102 204
0.325045 0.20441 -0.433039 26 102 204
0.327178 0.209361 0.246864 26 102 204
0.320025 0.216809 -0.443579 26 102 204
0.323108 0.212574 0.0609645 26 102 204
0.325057 0.215292 -0.488102 26 102 204
0.316256 0.215633 0.140948 26 102 204
0.304227 0.21929 -0.228901 26 102 204
0.310481 0.22328 -0.176274 26 102 204
0.30076 0.231553 0.196963 26 102 204
0.310774 0.223826 -0.484781 26 102 204
0.304252 0.228336 0.347981 26 102 204
0.290492 0.227705 0.353809 26 102 204
0.330585 0.210509 0.302711 26 102 204
0.304695 0.226136 0.129386 26 102 204
0.302496 0.233773 0.290214 26 102 204
0.292915 0.236491 0.384181 26 102 204
0.291994 0.235681 0.441389 26 102 204
0.293319 0.239863 0.347246 26 102 204
0.278053 0.252865 0.311158 26 102 204
0.264863 0.26125 -0.497268 26 102 204
0.254036 0.273836 0.41467 26 102 204
0.216327 0.289981 0.411454 26 102 204
0.215474 0.304995 -0.439712 26 102 204
