ply
format ascii 1.0
comment Created by Open3D
element vertex 1024
property double x
property double y
property double z
property uchar red
property uchar green
property uchar blue
end_header
-0.087221 -0.0017886 0.471237 26 102 204
-0.135664 -0.101517 0.46659 26 102 204
-0.122934 -0.0576921 0.470944 26 102 204
-0.160419 -0.128018 0.459649 26 102 204
-0.0885144 -0.00109812 0.465749 26 102 204
-0.191927 -0.17659 0.456164 26 102 204
-0.154376 -0.0597686 0.462438 26 102 204
-0.127979 -0.0509869 0.45391 26 102 204
-0.16223 -0.0712202 0.458996 26 102 204
-0.0493234 0.0629475 0.451316 26 102 204
-0.143699 -0.0179004 0.44592 26 102 204
0.00279807 0.101375 0.440304 26 102 204
-0.138767 -0.0814211 0.439632 26 102 204
-0.097936 -0.105007 0.437416 26 102 204
-0.123649 -0.125696 0.41872 26 102 204
0.0111624 0.0723147 0.423615 26 102 204
-0.0848215 0.104163 0.421075 26 102 204
-0.0793515 -0.117642 0.426416 26 102 204
-0.182783 -0.0226347 0.427772 26 102 204
-0.230892 -0.197993 0.417984 26 102 204
-0.018911 0.0649762 0.418711 26 102 204
-0.0205098 0.0458667 0.396751 26 102 204
-0.124705 -0.250253 0.422081 26 102 204
-0.0324359 -0.0133299 0.412878 26 102 204
-0.156698 0.0189133 0.411068 26 102 204
-0.0103616 0.110144 0.41578 26 102 204
-0.0976904 -0.258033 0.408571 26 102 204
-0.156775 0.0441992 0.40349 26 102 204
-0.0221258 -0.114486 0.394734 26 102 204
-0.0483438 0.135527 0.395482 26 102 204
-0.0107039 -0.0455245 0.398096 26 102 204
-0.220609 -0.277753 0.407786 26 102 204
-0.0187212 -0.0860232 0.404108 26 102 204
-0.22835 -0.0662462 0.397383 26 102 204
0.0298613 0.14991 0.399391 26 102 204
-0.222476 -0.0815935 0.391819 26 102 204
-0.26237 -0.117184 0.401782 26 102 204
-0.171963 0.0223714 0.396881 26 102 204
-0.000298087 0.00165255 0.394227 26 102 204
-0.13693 0.0286664 0.38999 26 102 204
-0.189187 -0.291136 0.378837 26 102 204
-0.165466 0.0719241 0.388619 26 102 204
0.025058 0.103625 0.378201 26 102 204
-0.106556 -0.266312 0.375305 26 102 204
0.0474612 0.101876 0.382484 26 102 204
-0.261748 -0.13482 0.370382 26 102 204
-0.308807 -0.182302 0.372429 26 102 204
-0.146854 -0.279866 0.376239 26 102 204
-0.236474 -0.225162 0.353868 26 102 204
0.0151322 -0.0339318 0.359884 26 102 204
-0.112778 -0.270836 0.371392 26 102 204
-0.0880574 -0.000975871 0.373574 26 102 204
-0.00836124 -0.0132346 0.368045 26 102 204
-0.073169 -0.0234919 0.370304 26 102 204
0.00970825 -0.156052 0.358255 26 102 204
-0.0103344 -0.0898271 0.365571 26 102 204
0.0858126 0.0445842 0.367949 26 102 204
-0.265797 -0.234112 0.349136 26 102 204
-0.25468 -0.205092 0.354988 26 102 204
-0.1993 -0.00297574 0.359218 26 102 204
-0.206545 -0.264013 0.339578 26 102 204
-0.0605572 -0.0549414 0.352244 26 102 204
0.0830738 -0.0179667 0.35564 26 102 204
-0.179585 0.0840506 0.353219 26 102 204
-0.0554051 -0.291121 0.356179 26 102 204
-0.150302 0.0500702 0.353524 26 102 204
-0.0473888 -0.162858 0.354319 26 102 204
-0.029542 -0.208492 0.346077 26 102 204
-0.0176945 -0.159676 0.353243 26 102 204
-0.158798 -0.226003 0.346345 26 102 204
-0.0379369 0.133869 0.337216 26 102 204
-0.0654348 -0.276005 0.349089 26 102 204
0.0791093 -0.0353036 0.336628 26 102 204
-0.0636789 -0.167387 0.346783 26 102 204
-0.155881 -0.220125 0.343597 26 102 204
-0.101408 -0.329324 0.342902 26 102 204
-0.0995641 -0.228407 0.340938 26 102 204
-0.0629961 0.0968441 0.343161 26 102 204
0.0297877 0.147557 0.33866 26 102 204
-0.0852647 0.0147791 0.343075 26 102 204
0.137736 0.111168 0.336292 26 102 204
-0.0464858 -0.171266 0.330088 26 102 204
-0.180796 -0.350696 0.336788 26 102 204
0.113533 0.117937 0.335803 26 102 204
-0.0987104 -0.373233 0.335016 26 102 204
-0.18444 -0.144447 0.331895 26 102 204
-0.149085 0.116384 0.319212 26 102 204
-0.148382 0.0920404 0.332262 26 102 204
-0.136104 0.0994114 0.332813 26 102 204
-0.275957 -0.0503536 0.328312 26 102 204
-0.0893908 -0.0378553 0.325195 26 102 204
0.003275 0.0981835 0.325115 26 102 204
-0.246543 -0.306839 0.323016 26 102 204
0.172398 0.0545983 0.325568 26 102 204
-0.211484 0.0477828 0.323691 26 102 204
-0.0702482 0.205983 0.321714 26 102 204
-0.0321947 0.132252 0.317369 26 102 204
-0.0432494 -0.0316898 0.313632 26 102 204
0.0846754 0.0649543 0.315167 26 102 204
-0.296165 -0.109531 0.31308 26 102 204
-0.257003 -0.00521725 0.315442 26 102 204
-0.159494 -0.096166 0.302409 26 102 204
-0.274891 -0.144164 0.314899 26 102 204
-0.0438517 0.0404928 0.313618 26 102 204
-0.0891653 0.191873 0.309252 26 102 204
-0.0555792 -0.0843652 0.307849 26 102 204
0.13534 0.0181733 0.306435 26 102 204
-0.0204406 -0.32949 0.302493 26 102 204
-0.113274 -0.294627 0.302763 26 102 204
0.0536183 -0.0967919 0.305974 26 102 204
-0.000718528 -0.226574 0.305426 26 102 204
-0.0652229 -0.145722 0.302362 26 102 204
-0.119768 -0.35909 0.305311 26 102 204
0.0638182 0.112054 0.300506 26 102 204
-0.159829 -0.1036 0.291895 26 102 204
-0.292514 -0.0764336 0.292285 26 102 204
0.118186 0.206605 0.290368 26 102 204
0.00580056 0.0420018 0.298291 26 102 204
-0.265813 -0.0664948 0.293022 26 102 204
-0.282565 -0.100947 0.293437 26 102 204
-0.184297 0.0496092 0.291563 26 102 204
0.0115835 0.086326 0.295472 26 102 204
-0.00716597 -0.328011 0.291277 26 102 204
-0.0377502 -0.0478785 0.291008 26 102 204
-0.0785708 0.130298 0.289718 26 102 204
-0.0582174 -0.0884921 0.289612 26 102 204
-0.00257443 0.0360883 0.289987 26 102 204
0.0650811 0.157669 0.290398 26 102 204
0.159547 0.147759 0.287204 26 102 204
0.228122 0.0588534 0.288322 26 102 204
-0.199468 -0.244884 0.285419 26 102 204
0.00763624 -0.0386949 0.283699 26 102 204
0.11831 0.101917 0.279981 26 102 204
-0.282783 -0.139862 0.285612 26 102 204
-0.160751 -0.204966 0.280654 26 102 204
0.191299 0.029726 0.281833 26 102 204
-0.090347 -0.0803635 0.283743 26 102 204
-0.27208 -0.0606482 0.284304 26 102 204
-0.116613 -0.170416 0.287543 26 102 204
-0.0302278 -0.0125296 0.279065 26 102 204
-0.0813909 -0.0908243 0.279846 26 102 204
0.185759 0.0684199 0.278031 26 102 204
-0.0838399 -0.186095 0.282777 26 102 204
-0.257723 -0.0270294 0.275918 26 102 204
-0.0267071 0.250497 0.279209 26 102 204
0.0830011 0.0937681 0.276557 26 102 204
-0.246776 -0.300412 0.277553 26 102 204
-0.174571 -0.264452 0.275218 26 102 204
-0.0459949 -0.236633 0.278407 26 102 204
-0.0095141 -0.00436535 0.27326 26 102 204
-0.00946997 -0.208411 0.271957 26 102 204
0.17731 0.125824 0.271192 26 102 204
-0.110377 0.203215 0.267383 26 102 204
0.189935 0.191716 0.270273 26 102 204
0.166685 -0.23099 0.268825 26 102 204
-0.0812879 0.0350659 0.289895 26 102 204
-0.07674 -0.394377 0.269461 26 102 204
-0.260294 -0.278453 0.267065 26 102 204
-0.311272 -0.249687 0.262788 26 102 204
0.20559 -0.122369 0.271513 26 102 204
0.186544 -0.123806 0.26611 26 102 204
0.0212324 -0.334426 0.269001 26 102 204
-0.317541 -0.111794 0.261208 26 102 204
0.208238 0.0821823 0.262721 26 102 204
0.0162378 0.0995606 0.262644 26 102 204
-0.237047 0.110501 0.271114 26 102 204
0.0427573 0.23183 0.264325 26 102 204
-0.306581 -0.194537 0.260941 26 102 204
-0.386894 -0.195303 0.2602 26 102 204
0.13126 0.0522163 0.260632 26 102 204
0.0522687 0.0879999 0.261355 26 102 204
-0.321854 -0.223445 0.264636 26 102 204
-0.319556 -0.0603125 0.264207 26 102 204
0.185302 0.182153 0.26113 26 102 204
0.0878967 0.207121 0.255772 26 102 204
0.054876 0.198134 0.252869 26 102 204
0.100077 0.257305 0.246933 26 102 204
-0.197368 0.0890234 0.253488 26 102 204
-0.137257 -0.287838 0.248917 26 102 204
0.00681415 0.214691 0.253847 26 102 204
0.0327172 -0.274003 0.247219 26 102 204
0.0383657 0.0924497 0.25185 26 102 204
-0.15188 -0.287897 0.248104 26 102 204
-0.108172 0.248959 0.246746 26 102 204
0.138068 0.0195003 0.246059 26 102 204
-0.35149 -0.111402 0.247225 26 102 204
0.0929797 -0.290095 0.24188 26 102 204
0.198457 0.211479 0.243139 26 102 204
0.132858 0.260231 0.242493 26 102 204
-0.105757 -0.325072 0.242413 26 102 204
0.149508 0.222626 0.240954 26 102 204
0.255985 0.154643 0.242696 26 102 204
0.218259 0.121264 0.237986 26 102 204
0.147005 0.0834611 0.238872 26 102 204
0.209664 -0.117084 0.233818 26 102 204
-0.289394 -0.154017 0.237018 26 102 204
0.156509 -0.256466 0.236694 26 102 204
0.0868099 0.183489 0.232944 26 102 204
0.0989779 -0.293066 0.234187 26 102 204
0.17552 0.119352 0.233859 26 102 204
-0.135926 0.206622 0.234835 26 102 204
-0.0779137 0.230048 0.23043 26 102 204
0.184873 0.0304915 0.231961 26 102 204
-0.0355836 -0.348355 0.234195 26 102 204
0.164424 0.260447 0.231701 26 102 204
0.0368362 0.164279 0.227345 26 102 204
-0.0895274 -0.365003 0.234241 26 102 204
0.13706 -0.215706 0.227615 26 102 204
-0.00595203 0.274744 0.224628 26 102 204
-0.331762 -0.0953295 0.221233 26 102 204
-0.11361 -0.263935 0.222413 26 102 204
-0.0761784 -0.284428 0.222187 26 102 204
0.0392092 0.126717 0.222573 26 102 204
0.197605 -0.0464819 0.217684 26 102 204
0.246723 0.115916 0.217228 26 102 204
0.279569 0.140772 0.217462 26 102 204
-0.168648 -0.331515 0.216528 26 102 204
0.211237 0.1193 0.217126 26 102 204
0.113704 0.333568 0.216433 26 102 204
0.090768 0.1414 0.215316 26 102 204
0.198983 0.173303 0.216942 26 102 204
-0.0166258 -0.402838 0.211388 26 102 204
0.0669347 0.231371 0.211536 26 102 204
-0.333236 -0.0549233 0.212628 26 102 204
-0.0100517 0.341161 0.211671 26 102 204
-0.32266 -0.0888328 0.211241 26 102 204
-0.276229 -0.174562 0.209971 26 102 204
0.0965502 0.172828 0.214011 26 102 204
-0.306401 -0.197608 0.209186 26 102 204
-0.334867 -0.116887 0.208159 26 102 204
0.0418844 -0.383314 0.203367 26 102 204
-0.034711 0.310802 0.206938 26 102 204
0.0234589 -0.222991 0.232847 26 102 204
0.0557507 -0.331126 0.204416 26 102 204
0.249442 0.134863 0.201963 26 102 204
0.0593419 0.16448 0.201729 26 102 204
-0.23308 -0.242322 0.197432 26 102 204
0.130714 0.166173 0.197838 26 102 204
-0.029485 0.26984 0.196603 26 102 204
0.065371 0.190697 0.197361 26 102 204
-0.330881 -0.229285 0.197224 26 102 204
0.0936689 -0.404541 0.197453 26 102 204
0.153006 -0.262797 0.198565 26 102 204
-0.239114 -0.234085 0.197445 26 102 204
-0.309871 -0.024538 0.196054 26 102 204
0.243784 0.226202 0.192353 26 102 204
0.116295 -0.342101 0.190869 26 102 204
-0.0726941 0.17194 0.194439 26 102 204
0.0136563 0.134262 0.190851 26 102 204
0.0763161 0.328314 0.193296 26 102 204
-0.256242 -0.246436 0.186224 26 102 204
-0.381412 -0.157727 0.190001 26 102 204
-0.218149 -0.24232 0.190175 26 102 204
-0.0609086 -0.336169 0.18421 26 102 204
0.247861 -0.247881 0.182552 26 102 204
-0.239592 -0.209517 0.184603 26 102 204
0.317569 -0.0387669 0.192581 26 102 204
0.301677 0.201377 0.18489 26 102 204
-0.27208 0.0382438 0.182724 26 102 204
0.253625 -0.111555 0.182216 26 102 204
-0.187181 -0.307807 0.183541 26 102 204
0.0926021 0.169411 0.178089 26 102 204
0.0171951 0.343877 0.177518 26 102 204
0.237759 -0.0797182 0.17662 26 102 204
0.0295226 -0.357763 0.177191 26 102 204
0.150793 0.302454 0.175274 26 102 204
0.260148 -0.0710853 0.175415 26 102 204
0.228041 0.137464 0.168692 26 102 204
-0.119856 -0.30883 0.178625 26 102 204
0.173967 -0.278189 0.179302 26 102 204
-0.107183 -0.401917 0.173879 26 102 204
-0.138204 -0.22699 0.170173 26 102 204
0.19608 0.0729031 0.176519 26 102 204
0.198734 0.0922253 0.176722 26 102 204
-0.14239 0.253208 0.171466 26 102 204
0.151777 -0.231616 0.166298 26 102 204
-0.0544306 0.336912 0.171776 26 102 204
0.132298 0.14237 0.171484 26 102 204
-0.214716 -0.206911 0.17056 26 102 204
0.178253 -0.331072 0.166635 26 102 204
-0.321342 -0.0537655 0.166143 26 102 204
0.215785 0.311941 0.161011 26 102 204
0.0297873 -0.377166 0.1602 26 102 204
-0.372302 -0.13447 0.162147 26 102 204
-0.0765233 0.160209 0.167495 26 102 204
0.106074 0.276726 0.157207 26 102 204
0.172612 0.170496 0.159127 26 102 204
0.0361496 -0.357596 0.161583 26 102 204
0.257757 -0.116887 0.165988 26 102 204
0.265102 0.250504 0.15486 26 102 204
-0.24811 0.0952669 0.15561 26 102 204
-0.174754 0.199248 0.157963 26 102 204
0.268243 0.0333516 0.150976 26 102 204
-0.0280092 -0.407541 0.15138 26 102 204
-0.0423592 0.217996 0.150479 26 102 204
-0.0176071 0.18961 0.15241 26 102 204
0.155114 0.162827 0.153464 26 102 204
-0.0225936 0.169156 0.152511 26 102 204
-0.12146 -0.319611 0.150411 26 102 204
0.31411 0.0698306 0.14897 26 102 204
0.161317 0.311772 0.144864 26 102 204
-0.339152 -0.0990677 0.14915 26 102 204
0.0101953 -0.355893 0.145677 26 102 204
0.246127 0.227769 0.147621 26 102 204
-0.0959872 -0.357902 0.146895 26 102 204
0.172548 -0.241516 0.144304 26 102 204
0.0761141 0.334427 0.142525 26 102 204
-0.404384 -0.245737 0.144211 26 102 204
0.234344 0.0713464 0.143076 26 102 204
-0.0952322 0.235271 0.142354 26 102 204
-0.351423 -0.0308812 0.148067 26 102 204
0.115801 0.367145 0.139583 26 102 204
-0.203929 0.2335 0.149168 26 102 204
0.320591 -0.0797413 0.142922 26 102 204
-0.198532 -0.315551 0.142885 26 102 204
0.162084 -0.195246 0.188111 26 102 204
0.0929152 -0.37637 0.141919 26 102 204
-0.0317555 0.291995 0.138093 26 102 204
0.169018 0.236129 0.140333 26 102 204
0.29439 0.087614 0.136938 26 102 204
0.0585993 0.213535 0.140031 26 102 204
-0.0285804 -0.368622 0.128755 26 102 204
-0.0172209 -0.416471 0.129764 26 102 204
-0.234908 0.140177 0.134822 26 102 204
0.0176986 -0.398906 0.133273 26 102 204
-0.258413 -0.253334 0.131482 26 102 204
-0.0326479 0.343545 0.131341 26 102 204
0.252412 -0.0136878 0.127414 26 102 204
-0.314061 -0.0349953 0.131935 26 102 204
0.112611 0.297854 0.130275 26 102 204
0.278104 -0.0227088 0.123176 26 102 204
-0.348195 -0.0612112 0.126328 26 102 204
-0.128474 0.24217 0.131035 26 102 204
-0.321404 0.0690165 0.122989 26 102 204
0.15503 0.150336 0.124264 26 102 204
-0.0989231 0.304111 0.124606 26 102 204
0.262848 0.297866 0.11999 26 102 204
-0.277389 -0.189626 0.12293 26 102 204
-0.279068 0.0304593 0.131746 26 102 204
-0.207636 0.141751 0.121762 26 102 204
0.178327 0.359279 0.121879 26 102 204
-0.300277 0.00649381 0.12102 26 102 204
0.232923 -0.12272 0.117251 26 102 204
0.227119 0.267308 0.113025 26 102 204
-0.0411183 0.235268 0.11472 26 102 204
-0.133615 0.302218 0.114387 26 102 204
0.250742 -0.0256466 0.111843 26 102 204
0.231382 -0.139629 0.114807 26 102 204
0.135585 -0.330624 0.116642 26 102 204
-0.0800674 0.305029 0.110805 26 102 204
0.1357 -0.279729 0.107099 26 102 204
0.216123 0.0934299 0.111742 26 102 204
0.285911 0.137085 0.112221 26 102 204
-0.385396 -0.279889 0.105588 26 102 204
-0.184185 0.242609 0.107173 26 102 204
0.046318 0.367767 0.105212 26 102 204
0.223649 0.197628 0.0992698 26 102 204
0.214633 0.288846 0.107313 26 102 204
-0.06638 0.292125 0.101657 26 102 204
0.23302 -0.0578546 0.0972074 26 102 204
0.238916 0.0876723 0.0987301 26 102 204
0.104416 0.351871 0.10056 26 102 204
0.206567 -0.00862228 0.0955188 26 102 204
-0.257865 0.14228 0.0971768 26 102 204
0.282409 0.231552 0.0960989 26 102 204
-0.318024 -0.312458 0.102476 26 102 204
-0.0829048 0.325169 0.0991189 26 102 204
-0.0771281 0.300394 0.097193 26 102 204
0.1503 0.342087 0.0937927 26 102 204
-0.232996 0.124587 0.0942604 26 102 204
0.141447 0.318132 0.0935307 26 102 204
0.28316 -0.0525054 0.0980345 26 102 204
0.0532932 0.405669 0.0975633 26 102 204
0.348919 0.22863 0.0895304 26 102 204
-0.29547 0.0558003 0.101309 26 102 204
-0.0207112 -0.486332 0.0994349 26 102 204
0.172291 -0.246106 0.0868904 26 102 204
0.330575 0.251293 0.0908174 26 102 204
-0.0610575 0.25361 0.0880923 26 102 204
0.257695 0.255895 0.0858545 26 102 204
0.0352052 -0.427774 0.0906616 26 102 204
-0.228036 0.172271 0.086244 26 102 204
0.148034 0.35472 0.0829247 26 102 204
0.267314 -0.0914111 0.0827362 26 102 204
0.264668 0.308983 0.0855096 26 102 204
-0.383685 -0.181906 0.0816317 26 102 204
0.385049 0.24272 0.0851652 26 102 204
0.0176287 -0.489808 0.0831542 26 102 204
0.04212 0.391332 0.0774118 26 102 204
-0.291322 -0.0221642 0.0776715 26 102 204
-0.235712 0.188302 0.081497 26 102 204
-0.0936827 0.36796 0.0766716 26 102 204
0.274463 0.286714 0.0716294 26 102 204
0.154482 -0.316413 0.0732397 26 102 204
0.020464 0.422192 0.0696127 26 102 204
0.196219 0.348379 0.0713729 26 102 204
0.17186 0.420577 0.0746546 26 102 204
-0.368447 -0.313477 0.0698366 26 102 204
0.36407 0.186665 0.0641975 26 102 204
-0.264071 0.078917 0.0691654 26 102 204
0.277131 0.109689 0.0783277 26 102 204
0.0180402 0.294054 0.0788823 26 102 204
0.266999 0.283514 0.0701544 26 102 204
0.00268732 0.223166 0.0695299 26 102 204
-0.228742 0.11544 0.072805 26 102 204
0.136344 -0.24178 0.0669874 26 102 204
-0.379317 -0.151605 0.0661874 26 102 204
0.261638 0.0333575 0.0625469 26 102 204
-0.237028 -0.243054 0.0659681 26 102 204
-0.109463 0.28082 0.061113 26 102 204
-0.170405 0.222461 0.0713892 26 102 204
0.149335 -0.218121 0.154813 26 102 204
0.12537 -0.335476 0.0614244 26 102 204
0.119416 0.246806 0.0584454 26 102 204
0.029252 -0.375142 0.0574668 26 102 204
-0.170423 0.210894 0.0599215 26 102 204
-0.0793141 0.223782 0.0581603 26 102 204
-0.384808 -0.0368907 0.0606075 26 102 204
0.282238 0.0128335 0.064347 26 102 204
0.0344872 0.397066 0.057205 26 102 204
0.265361 0.333256 0.0562733 26 102 204
-0.00911873 -0.469805 0.0682619 26 102 204
-0.0313488 -0.381236 0.0643632 26 102 204
0.189233 0.213964 0.0531009 26 102 204
-0.374538 -0.14457 0.0547412 26 102 204
-0.390381 -0.0884426 0.0536165 26 102 204
0.190959 0.158321 0.0545505 26 102 204
0.0261319 0.298116 0.0543587 26 102 204
-0.0176458 -0.455975 0.0545329 26 102 204
0.120105 -0.311598 0.0512745 26 102 204
0.272361 -0.144823 0.0488854 26 102 204
0.0384593 0.283166 0.0519265 26 102 204
0.16297 0.251974 0.0589655 26 102 204
0.232504 0.108464 0.0502516 26 102 204
0.0492692 -0.356882 0.049469 26 102 204
0.303107 0.311328 0.0487033 26 102 204
0.0212105 0.376815 0.0488541 26 102 204
0.255179 0.370326 0.0472858 26 102 204
-0.142792 0.29746 0.0506078 26 102 204
0.334557 0.216283 0.0547658 26 102 204
0.0422574 0.195128 0.0504301 26 102 204
0.268071 0.0246914 0.0466184 26 102 204
0.32384 0.237323 0.0536153 26 102 204
0.363714 0.205202 0.045366 26 102 204
0.0785714 -0.284068 0.0451492 26 102 204
0.0321981 -0.42366 0.044754 26 102 204
0.202764 0.245838 0.112347 26 102 204
0.132018 0.219709 0.0556992 26 102 204
0.140624 0.121917 0.0432822 26 102 204
0.12887 0.208406 0.0431676 26 102 204
0.0603567 -0.361634 0.0421023 26 102 204
0.173275 -0.215662 0.0476598 26 102 204
0.186047 0.376434 0.0465123 26 102 204
-0.0700119 0.272279 0.0450299 26 102 204
-0.129041 0.288351 0.0453511 26 102 204
0.181395 -0.280628 0.041517 26 102 204
0.207897 -0.18258 0.0378066 26 102 204
0.200301 -0.22864 0.0399871 26 102 204
0.266767 0.183824 0.0404072 26 102 204
-0.303714 0.0932543 0.0406059 26 102 204
-0.346481 -0.0994417 0.0409484 26 102 204
0.164507 0.343681 0.0383346 26 102 204
0.317036 0.277233 0.0385446 26 102 204
-0.111069 0.271043 0.0408411 26 102 204
0.0754248 0.205619 0.0375297 26 102 204
-0.278103 0.0776589 0.0380832 26 102 204
0.0835485 0.387994 0.0364613 26 102 204
0.19788 0.153667 0.0378559 26 102 204
-0.35244 -0.0531426 0.0386857 26 102 204
0.000366231 0.315396 0.0365754 26 102 204
0.263323 0.21004 0.0335461 26 102 204
0.337328 0.0510759 0.0339444 26 102 204
-0.378391 -0.262795 0.0309808 26 102 204
0.344719 0.102831 0.028497 26 102 204
-0.383906 -0.040116 0.0318791 26 102 204
-0.00674108 0.40054 0.0305729 26 102 204
0.23805 0.156673 0.0290277 26 102 204
0.128483 -0.249678 0.0297089 26 102 204
0.0230982 -0.36584 0.025119 26 102 204
0.000144459 -0.350525 0.0249912 26 102 204
0.241323 0.140252 0.0288435 26 102 204
0.307724 -0.0231887 0.0226928 26 102 204
0.307099 0.0161246 0.0228567 26 102 204
0.277787 -0.103515 0.0230435 26 102 204
0.24892 0.13237 0.044672 26 102 204
0.248858 -0.164724 0.0229339 26 102 204
0.16588 0.15399 0.0238378 26 102 204
0.301856 0.0407338 0.0225557 26 102 204
0.109723 -0.37548 0.0212481 26 102 204
0.352273 0.341728 0.0192982 26 102 204
-0.321989 0.0281754 0.0234369 26 102 204
0.141346 0.311124 0.0202032 26 102 204
0.0598381 0.286437 0.015898 26 102 204
0.113121 -0.365589 0.0168053 26 102 204
-0.0600164 0.344312 0.0184028 26 102 204
-0.360047 -0.310588 0.018229 26 102 204
0.0778905 -0.380104 0.0157802 26 102 204
0.00676214 -0.346849 -0.18309 26 102 204
-0.341081 0.0342169 0.0164128 26 102 204
0.174883 0.402757 0.0114167 26 102 204
0.38338 0.253364 0.0129917 26 102 204
-0.0783887 -0.371311 0.0148242 26 102 204
0.0545573 0.179448 0.012934 26 102 204
0.191332 0.380343 0.0120924 26 102 204
0.0178221 0.360522 0.0138783 26 102 204
-0.412678 -0.267799 0.013459 26 102 204
-0.401482 -0.142182 0.0117399 26 102 204
0.172766 -0.297398 0.00899487 26 102 204
-0.445237 -0.221084 0.0133226 26 102 204
-0.0765202 0.296599 0.0105521 26 102 204
0.271592 0.34701 0.00978472 26 102 204
0.109522 0.281096 0.00921193 26 102 204
0.145444 0.249823 0.00918094 26 102 204
-0.309203 0.0182748 0.00323634 26 102 204
-0.254086 -0.408595 0.008235 26 102 204
-0.0508379 0.293311 0.00707738 26 102 204
0.322305 0.259907 0.0073615 26 102 204
-0.000676412 0.273754 0.00616727 26 102 204
0.109872 -0.0977177 0.00567475 26 102 204
0.281137 -0.146383 0.00991866 26 102 204
0.244998 0.359312 0.0055294 26 102 204
-0.401456 -0.257482 0.0045371 26 102 204
0.11437 0.185923 0.00507621 26 102 204
-0.121355 0.139317 0.00446368 26 102 204
-0.139504 0.264364 0.00710767 26 102 204
-0.0721497 0.317058 0.00405362 26 102 204
0.0645015 0.256781 0.00988369 26 102 204
0.121128 0.33466 0.0032933 26 102 204
0.269567 -0.0743089 0.00394542 26 102 204
-0.237509 0.0935502 0.0049748 26 102 204
-0.0179132 0.141004 0.00284311 26 102 204
0.135079 -0.392568 0.000613309 26 102 204
0.0354548 0.0870833 0.00281174 26 102 204
-0.411122 -0.154815 0.00340037 26 102 204
-0.158029 -0.467983 0.00148051 26 102 204
-0.357976 -0.0417004 0.000792661 26 102 204
0.17322 0.398948 0.0007048 26 102 204
0.115325 -0.330993 0.00283073 26 102 204
0.253135 0.077558 -0.00113964 26 102 204
0.315473 -0.0662201 -0.00714864 26 102 204
0.279867 0.198421 0.0533706 26 102 204
-0.184598 0.211084 0.000721293 26 102 204
0.169923 -0.271883 -0.00337479 26 102 204
-0.062413 0.38401 -0.00866857 26 102 204
0.0670431 0.239661 -0.00277184 26 102 204
0.121036 0.221634 -0.00248448 26 102 204
0.0162891 -0.437939 -0.00607866 26 102 204
0.370791 0.184913 -0.00701496 26 102 204
-0.0295301 0.286168 -0.00974904 26 102 204
0.0513039 0.362684 -0.00422393 26 102 204
0.162582 -0.348545 -0.00968727 26 102 204
0.125109 -0.351884 -0.00749527 26 102 204
-0.1018 0.290053 -0.00481338 26 102 204
0.0400514 0.248568 -0.00576598 26 102 204
0.0903141 0.308219 -0.0050155 26 102 204
0.0895611 0.235653 -0.00692822 26 102 204
0.00503349 0.202134 -0.0100471 26 102 204
0.240501 -0.0689086 -0.0138354 26 102 204
-0.430913 -0.128142 -0.0143643 26 102 204
-0.0920824 0.26266 -0.0123866 26 102 204
0.389728 0.169203 -0.0149462 26 102 204
0.212506 0.293711 -0.0132034 26 102 204
0.0602336 0.130519 -0.0156603 26 102 204
-0.0298436 0.409617 -0.0179621 26 102 204
-0.196265 -0.396124 -0.0160704 26 102 204
-0.129379 0.289342 -0.0161153 26 102 204
0.0797394 -0.348354 -0.0166268 26 102 204
-0.00618423 0.30931 -0.0145194 26 102 204
0.318072 0.0396142 -0.0150976 26 102 204
0.144922 -0.29367 -0.0215382 26 102 204
0.196857 0.267689 -0.0190523 26 102 204
0.0186078 0.105734 -0.0199581 26 102 204
0.139798 0.112041 -0.0197664 26 102 204
-0.363393 -0.210029 -0.0200753 26 102 204
0.0435997 0.223598 -0.029244 26 102 204
0.0908256 -0.35974 -0.0237927 26 102 204
-0.118002 0.306725 -0.0280536 26 102 204
0.167396 0.29926 -0.0222766 26 102 204
-0.485914 -0.180713 -0.0272808 26 102 204
0.380677 0.221385 -0.0246521 26 102 204
-0.0152578 0.250708 -0.0275101 26 102 204
0.372033 0.118158 -0.0296187 26 102 204
0.207579 0.0668114 -0.0290017 26 102 204
0.196625 0.356583 -0.031638 26 102 204
0.0502526 -0.305765 -0.0308314 26 102 204
0.136856 -0.359148 -0.0302879 26 102 204
0.241204 -0.139618 -0.0294045 26 102 204
-0.137553 0.304721 -0.032395 26 102 204
0.229384 0.0762522 -0.0307197 26 102 204
-0.132379 -0.50001 -0.0344201 26 102 204
0.280333 0.26178 -0.0353932 26 102 204
0.0503735 0.420618 -0.0358916 26 102 204
0.116755 0.18618 -0.031568 26 102 204
-0.111939 -0.425043 -0.0414192 26 102 204
0.246835 0.216844 -0.0389278 26 102 204
0.238116 0.266476 -0.0358253 26 102 204
0.261944 -0.160336 -0.039238 26 102 204
0.0990864 -0.308581 -0.0389706 26 102 204
0.33205 0.210146 -0.0488998 26 102 204
-0.377943 -0.0867622 -0.0389516 26 102 204
0.0884932 0.327077 -0.039834 26 102 204
-0.352295 -0.0242768 -0.0438535 26 102 204
-0.115885 -0.414008 -0.0452422 26 102 204
0.113037 0.278217 -0.0461569 26 102 204
0.338441 0.0193255 -0.0506652 26 102 204
0.384789 0.0976273 -0.0474305 26 102 204
0.335927 0.290139 -0.0452743 26 102 204
0.206658 0.389108 -0.0472527 26 102 204
0.0576328 0.191478 -0.0471147 26 102 204
0.370588 0.116589 -0.0505435 26 102 204
-0.182336 0.216122 -0.0544037 26 102 204
0.135778 0.118666 -0.0505016 26 102 204
0.356839 0.27849 -0.0487531 26 102 204
0.288825 0.234926 -0.0512648 26 102 204
0.160251 0.112813 -0.0549206 26 102 204
0.174634 0.137003 -0.0496714 26 102 204
0.281142 0.159233 -0.0541433 26 102 204
0.254004 0.260334 -0.052244 26 102 204
-0.255089 0.17847 -0.0523914 26 102 204
-0.279327 -0.158825 -0.103515 26 102 204
-0.0454239 -0.437958 -0.0586238 26 102 204
0.0823917 0.154694 -0.0552658 26 102 204
0.0749829 0.32507 -0.0605857 26 102 204
0.00730325 0.188754 -0.0577829 26 102 204
-0.0130628 0.326688 -0.0643702 26 102 204
-0.110214 -0.511041 -0.0634786 26 102 204
0.232159 0.221459 -0.0737521 26 102 204
0.226164 -0.278633 -0.0658653 26 102 204
0.283192 -0.124982 -0.066983 26 102 204
0.0809062 0.137584 -0.0647173 26 102 204
0.1293 0.348007 -0.0687414 26 102 204
0.210118 0.143929 -0.0673089 26 102 204
0.0921179 0.307592 -0.0690585 26 102 204
-0.216522 0.186649 -0.0670719 26 102 204
0.28327 -0.100108 -0.0711623 26 102 204
0.079781 0.0754832 -0.0692718 26 102 204
0.166649 -0.36004 -0.0731712 26 102 204
-0.00345789 0.377417 -0.0717185 26 102 204
0.208306 -0.206869 -0.0782496 26 102 204
0.337482 0.0701579 -0.0818408 26 102 204
0.36424 0.145489 -0.0781709 26 102 204
0.272366 -0.142904 -0.0808377 26 102 204
-0.326876 -0.00748164 -0.0789242 26 102 204
-0.0120502 -0.429608 -0.080508 26 102 204
-0.163451 0.251495 -0.0828948 26 102 204
-0.0017473 -0.38549 -0.0837366 26 102 204
-0.342378 0.0303335 -0.0829982 26 102 204
-0.0867182 0.349493 -0.0823066 26 102 204
-0.134527 0.21125 -0.0890536 26 102 204
0.0527988 -0.374977 -0.0906127 26 102 204
0.103158 -0.374072 -0.0905787 26 102 204
-0.265419 -0.282867 -0.0919736 26 102 204
0.00965151 -0.378691 -0.0950674 26 102 204
0.00611798 0.366495 -0.0952319 26 102 204
0.313243 0.0994379 -0.0949942 26 102 204
-0.0576912 0.246468 -0.098346 26 102 204
0.12512 0.317401 -0.0978271 26 102 204
0.289301 -0.0956816 -0.101904 26 102 204
0.277548 -0.0834196 -0.10477 26 102 204
-0.040791 -0.3924 -0.101504 26 102 204
0.173373 -0.265644 -0.10137 26 102 204
-0.327145 0.0608613 -0.108565 26 102 204
-0.0862194 -0.43781 -0.103921 26 102 204
0.0808585 -0.309848 -0.10731 26 102 204
0.294926 -0.0721639 -0.112517 26 102 204
0.186828 0.111246 -0.109978 26 102 204
0.212268 -0.154757 -0.107467 26 102 204
0.210892 -0.222898 -0.110586 26 102 204
0.191717 -0.227805 -0.111324 26 102 204
0.151428 -0.319787 -0.114394 26 102 204
0.353656 0.197301 -0.144011 26 102 204
0.278365 -0.060785 -0.115608 26 102 204
0.313603 0.0636673 -0.116144 26 102 204
0.353877 0.15301 -0.116139 26 102 204
-0.10519 0.298493 -0.116814 26 102 204
0.300422 0.155771 -0.118627 26 102 204
-0.311034 0.0357655 -0.118781 26 102 204
0.198165 0.18001 -0.122889 26 102 204
0.228794 -0.174885 -0.118 26 102 204
0.175886 0.141715 -0.117879 26 102 204
-0.373975 -0.185149 -0.119073 26 102 204
-0.363669 -0.198824 -0.122308 26 102 204
0.2872 -0.00449508 -0.118897 26 102 204
0.0718127 0.226831 -0.119773 26 102 204
0.0473992 -0.349782 -0.124493 26 102 204
-0.292002 -0.273925 -0.121673 26 102 204
0.0191076 0.260211 -0.127809 26 102 204
0.108195 0.360366 -0.121058 26 102 204
0.130703 0.144536 -0.126147 26 102 204
0.176178 0.139367 -0.130226 26 102 204
-0.302443 0.0418844 -0.124905 26 102 204
0.0693933 -0.370983 -0.126042 26 102 204
-0.239928 -0.268358 -0.12692 26 102 204
0.294773 0.0498842 -0.131512 26 102 204
-0.0825315 -0.344282 -0.136118 26 102 204
0.165074 -0.345815 -0.130741 26 102 204
0.124592 -0.343475 -0.130054 26 102 204
-0.12007 -0.350798 -0.131295 26 102 204
0.353271 0.106659 -0.135183 26 102 204
0.197445 -0.260393 -0.138723 26 102 204
0.00915139 0.315849 -0.130633 26 102 204
0.0523996 -0.337703 -0.134196 26 102 204
-0.218832 0.187775 -0.135777 26 102 204
0.328844 0.155855 -0.14008 26 102 204
0.309158 -0.000412454 -0.135902 26 102 204
0.0444086 0.320845 -0.135721 26 102 204
-0.362392 -0.0730555 -0.133394 26 102 204
0.213766 0.0814376 -0.117581 26 102 204
-0.309576 0.0130863 -0.132742 26 102 204
-0.351239 -0.147888 -0.138102 26 102 204
0.298438 -0.0389536 -0.144709 26 102 204
0.304987 0.0199317 -0.143576 26 102 204
0.0125551 0.352244 -0.145424 26 102 204
0.142663 0.142331 -0.142716 26 102 204
-0.161308 -0.405876 -0.143385 26 102 204
0.241939 -0.110355 -0.148353 26 102 204
-0.219111 0.24455 -0.145056 26 102 204
0.277839 0.233457 -0.149447 26 102 204
0.313216 0.185863 -0.149376 26 102 204
0.1136 -0.325473 -0.149103 26 102 204
-0.0105945 0.350301 -0.149966 26 102 204
-0.187926 0.211938 -0.150736 26 102 204
-0.112431 0.266502 -0.152443 26 102 204
-0.0619782 0.30493 -0.151188 26 102 204
0.305936 -0.0232924 -0.153531 26 102 204
-0.366881 -0.0968296 -0.14879 26 102 204
-0.314676 0.0337998 -0.150661 26 102 204
-0.322205 0.100933 -0.150453 26 102 204
-0.370738 -0.152617 -0.15029 26 102 204
-0.215312 0.202239 -0.156691 26 102 204
-0.350704 -0.188348 -0.158329 26 102 204
0.218397 0.147607 -0.163653 26 102 204
-0.267318 -0.26969 -0.157747 26 102 204
0.298532 0.199107 -0.158771 26 102 204
0.194067 0.313042 -0.160677 26 102 204
0.106156 0.336947 -0.160022 26 102 204
0.270065 0.189643 -0.161728 26 102 204
0.0411221 -0.376817 -0.164032 26 102 204
0.191327 -0.24286 -0.163222 26 102 204
0.207177 -0.272328 -0.172158 26 102 204
0.266916 0.23443 -0.16761 26 102 204
-0.00995761 -0.460275 -0.167402 26 102 204
0.202933 -0.178 -0.1677 26 102 204
0.0968667 -0.341582 -0.169554 26 102 204
0.0621452 0.355977 -0.16873 26 102 204
0.299067 0.100193 -0.167064 26 102 204
0.145057 -0.343638 -0.169013 26 102 204
0.174308 0.25253 -0.172486 26 102 204
0.164837 0.135483 -0.173048 26 102 204
-0.195807 0.157415 -0.173557 26 102 204
0.320538 0.171866 -0.17107 26 102 204
0.0391211 -0.420223 -0.17455 26 102 204
0.280916 0.128854 -0.176079 26 102 204
0.149688 -0.290984 -0.180771 26 102 204
0.295717 0.0717774 -0.173574 26 102 204
0.233967 0.0714725 -0.1831 26 102 204
0.0563396 -0.378652 -0.179467 26 102 204
0.241456 0.106901 -0.18199 26 102 204
-0.349495 -0.0117759 -0.178713 26 102 204
-0.254845 0.0826301 -0.179476 26 102 204
0.313581 0.149024 -0.181223 26 102 204
0.269334 0.215895 -0.183085 26 102 204
0.203816 0.193776 -0.182984 26 102 204
-0.103649 0.255996 -0.192045 26 102 204
0.211821 0.0783507 -0.188136 26 102 204
0.00441921 -0.42035 -0.18708 26 102 204
-0.249033 0.0881491 -0.190593 26 102 204
0.267883 0.133036 -0.192274 26 102 204
-0.305429 -0.0812882 -0.187747 26 102 204
0.0356304 0.209379 -0.193129 26 102 204
0.141753 -0.274475 -0.190066 26 102 204
-0.144504 -0.292316 -0.193244 26 102 204
-0.197398 -0.261692 -0.194387 26 102 204
0.239466 -0.0928935 -0.195472 26 102 204
0.179453 -0.0808636 -0.184179 26 102 204
-0.350353 -0.135482 -0.194416 26 102 204
0.200573 -0.177912 -0.19525 26 102 204
-0.0263206 0.315859 -0.196 26 102 204
0.281972 -0.0206958 -0.199211 26 102 204
0.271542 0.205664 -0.201292 26 102 204
0.0455708 0.27175 -0.202413 26 102 204
-0.315489 -0.122444 -0.200395 26 102 204
-0.0402751 0.241435 -0.202518 26 102 204
-0.00828026 0.223981 -0.203651 26 102 204
-0.241643 0.0189911 -0.205308 26 102 204
-0.0116582 -0.434667 -0.203458 26 102 204
-0.345064 -0.0976316 -0.208201 26 102 204
0.227382 0.223568 -0.208008 26 102 204
0.281161 -0.0125262 -0.206341 26 102 204
0.164716 0.234645 -0.212005 26 102 204
-0.30597 0.00498404 -0.208538 26 102 204
-0.242111 0.0725077 -0.210329 26 102 204
0.193019 0.149339 -0.215142 26 102 204
-0.0321293 -0.436803 -0.21231 26 102 204
-0.170576 0.207008 -0.216459 26 102 204
0.0699559 0.301251 -0.209781 26 102 204
-0.116417 -0.456485 -0.2142 26 102 204
-0.236021 0.140065 -0.214535 26 102 204
-0.0270182 0.241452 -0.216605 26 102 204
-0.106662 0.223878 -0.215928 26 102 204
0.161746 0.129911 -0.217967 26 102 204
0.156333 0.179471 -0.215561 26 102 204
-0.185588 0.228563 -0.213343 26 102 204
0.11969 0.225144 -0.220071 26 102 204
0.0561186 0.269325 -0.217722 26 102 204
-0.00563178 -0.416968 -0.223873 26 102 204
0.204999 -0.211191 -0.221351 26 102 204
0.332505 0.169621 -0.223208 26 102 204
0.106787 0.129977 -0.226171 26 102 204
-0.202939 -0.234145 -0.228835 26 102 204
0.06027 0.181352 -0.228265 26 102 204
0.259718 0.00688864 -0.22873 26 102 204
-0.117123 0.220231 -0.228993 26 102 204
0.0971244 -0.36885 -0.227335 26 102 204
0.242354 0.116911 -0.233984 26 102 204
0.0736915 0.286917 -0.231266 26 102 204
-0.0340261 0.188137 -0.236694 26 102 204
0.131073 0.243726 -0.227905 26 102 204
0.215311 0.00331987 -0.23502 26 102 204
0.0182098 0.298553 -0.238762 26 102 204
0.294136 0.0223654 -0.240796 26 102 204
0.185429 0.236104 -0.236972 26 102 204
0.134907 0.00857232 -0.236611 26 102 204
0.157926 0.272033 -0.238215 26 102 204
0.124621 0.0152921 -0.242338 26 102 204
0.155223 0.252778 -0.243635 26 102 204
0.188905 0.065914 -0.244733 26 102 204
-0.17763 -0.25352 -0.243058 26 102 204
-0.167636 0.153671 -0.243025 26 102 204
0.0131782 0.125358 -0.243468 26 102 204
-0.0597194 0.233455 -0.248175 26 102 204
0.159576 0.180788 -0.24515 26 102 204
0.144624 -0.202075 -0.242437 26 102 204
0.053745 -0.319241 -0.249232 26 102 204
-0.156297 0.12864 -0.246409 26 102 204
0.233772 -0.0937391 -0.247204 26 102 204
0.127889 -0.242755 -0.247313 26 102 204
0.172057 0.000746361 -0.250317 26 102 204
0.279607 -0.0735541 -0.253396 26 102 204
-0.105199 0.147227 -0.247121 26 102 204
0.129728 0.0748958 -0.253849 26 102 204
-0.348649 -0.22438 -0.254121 26 102 204
-0.00987438 0.278077 -0.255419 26 102 204
0.243344 0.218181 -0.261504 26 102 204
0.108253 0.237841 -0.256221 26 102 204
-0.240866 0.10498 -0.256926 26 102 204
0.208918 0.190576 -0.261465 26 102 204
0.00486248 0.283247 -0.26107 26 102 204
0.0597568 0.173952 -0.260649 26 102 204
0.0726676 -0.300174 -0.261132 26 102 204
0.0273601 0.220667 -0.26105 26 102 204
0.170541 -0.160258 -0.26301 26 102 204
-0.118779 -0.377631 -0.261009 26 102 204
-0.0120649 -0.380146 -0.263502 26 102 204
0.228545 0.15366 -0.260733 26 102 204
0.235848 0.117032 -0.269855 26 102 204
0.249777 0.125027 -0.269791 26 102 204
-0.30066 -0.209376 -0.269295 26 102 204
-0.221293 -0.279702 -0.272145 26 102 204
0.0149966 0.0570554 -0.27774 26 102 204
0.00548031 0.219832 -0.273873 26 102 204
-0.0139385 0.242347 -0.27412 26 102 204
0.137287 0.187616 -0.274764 26 102 204
-0.0107277 0.170973 -0.275021 26 102 204
0.0487487 0.214004 -0.279831 26 102 204
0.0544121 0.203931 -0.279987 26 102 204
0.102803 0.101175 -0.283091 26 102 204
0.0431933 0.130668 -0.279938 26 102 204
0.0551534 0.0570496 -0.281461 26 102 204
-0.0869018 -0.0431173 -0.285928 26 102 204
-0.0366455 -0.347219 -0.286048 26 102 204
0.00119989 -0.0691186 -0.28205 26 102 204
-0.0976378 0.184319 -0.279047 26 102 204
-0.266005 -0.198997 -0.287067 26 102 204
0.0496063 0.228613 -0.281944 26 102 204
0.00448097 -0.162648 -0.275047 26 102 204
-0.0125239 -0.157098 -0.286806 26 102 204
0.144069 0.0305173 -0.287132 26 102 204
0.0333849 -0.119635 -0.287308 26 102 204
-0.0717892 0.171463 -0.286503 26 102 204
0.112493 0.0247247 -0.284647 26 102 204
-0.0976242 0.187429 -0.292863 26 102 204
-0.187501 0.0755666 -0.288653 26 102 204
0.101486 -0.144547 -0.293027 26 102 204
-0.314218 -0.245004 -0.293837 26 102 204
0.190766 -0.0739229 -0.300477 26 102 204
-0.0478366 0.13883 -0.296647 26 102 204
0.103951 0.037331 -0.305357 26 102 204
0.0716999 -0.226095 -0.298786 26 102 204
0.0366202 -0.297496 -0.29466 26 102 204
-0.0863213 -0.066201 -0.30619 26 102 204
0.0998485 -0.0287099 -0.294917 26 102 204
0.0908346 0.162734 -0.306269 26 102 204
-0.0247797 -0.0890795 -0.309104 26 102 204
-0.0676175 -0.296216 -0.296861 26 102 204
-0.289082 -0.224934 -0.299242 26 102 204
0.155623 0.127787 -0.304799 26 102 204
0.0419086 -0.129768 -0.308389 26 102 204
0.0566832 -0.294778 -0.30779 26 102 204
-0.0355898 -0.21695 -0.309548 26 102 204
-0.0336384 -0.345474 -0.305356 26 102 204
0.00873922 0.172472 -0.313454 26 102 204
-0.137854 -0.331912 -0.308209 26 102 204
0.114295 0.186443 -0.308315 26 102 204
0.0788931 -0.196946 -0.308929 26 102 204
0.0870008 0.207602 -0.307847 26 102 204
-0.0208753 -0.266956 -0.311881 26 102 204
0.0247469 0.213963 -0.314021 26 102 204
-0.227497 -0.154907 -0.306334 26 102 204
-0.0301243 -0.23527 -0.30742 26 102 204
-0.0417646 0.118912 -0.313682 26 102 204
-0.0175534 -0.0184905 -0.316101 26 102 204
-0.121908 0.172094 -0.31211 26 102 204
0.0371001 -0.0536187 -0.317459 26 102 204
-0.0566267 0.00690414 -0.319507 26 102 204
-0.0814489 -0.32421 -0.314982 26 102 204
0.157995 0.14136 -0.317818 26 102 204
0.0355425 -0.00230598 -0.318897 26 102 204
-0.0209932 0.166586 -0.305456 26 102 204
-0.143527 -0.257707 -0.321909 26 102 204
-0.0195818 -0.336479 -0.32706 26 102 204
0.0406852 -0.208049 -0.321967 26 102 204
-0.0912217 -0.12031 -0.322162 26 102 204
0.0748174 -0.144257 -0.322302 26 102 204
-0.281969 -0.203389 -0.325471 26 102 204
-0.0012247 0.164179 -0.328686 26 102 204
-0.0735134 -0.190479 -0.32125 26 102 204
-0.29564 -0.116409 -0.327696 26 102 204
0.0420851 -0.108092 -0.325133 26 102 204
-0.0160272 0.022309 -0.329172 26 102 204
0.0442864 0.0343219 -0.330473 26 102 204
-0.0929207 0.186922 -0.326024 26 102 204
-0.115885 0.0745602 -0.322688 26 102 204
-0.00775296 0.189393 -0.33637 26 102 204
-0.2127 -0.075934 -0.330007 26 102 204
-0.153681 0.0760191 -0.340756 26 102 204
-0.157471 -0.0902742 -0.337669 26 102 204
0.00779031 -0.0395857 -0.344018 26 102 204
-0.066549 -0.238608 -0.340531 26 102 204
-0.0308588 -0.198417 -0.344791 26 102 204
0.0271037 -0.186878 -0.34581 26 102 204
-0.0611666 0.0353781 -0.345494 26 102 204
-0.0919757 -0.322976 -0.336588 26 102 204
0.108464 0.0918946 -0.350454 26 102 204
-0.0695639 0.0175505 -0.352288 26 102 204
-0.225311 -0.110833 -0.350396 26 102 204
-0.0163987 -0.0231659 -0.348856 26 102 204
-0.246769 -0.114673 -0.350112 26 102 204
-0.0738281 -0.222391 -0.352623 26 102 204
0.0473781 -0.0723961 -0.356296 26 102 204
0.0174205 0.0842322 -0.353545 26 102 204
-0.0588153 0.124123 -0.352737 26 102 204
-0.137051 0.154528 -0.349567 26 102 204
0.0303621 0.0784672 -0.352182 26 102 204
-0.0788157 0.146485 -0.355265 26 102 204
-0.208046 -0.0123394 -0.359183 26 102 204
-0.01381 0.0703638 -0.355556 26 102 204
-0.190464 -0.276426 -0.364135 26 102 204
-0.153368 -0.335105 -0.360204 26 102 204
-0.0436269 0.0473672 -0.361186 26 102 204
-0.00480628 0.0422258 -0.360447 26 102 204
0.0347938 0.153801 -0.364317 26 102 204
0.0325414 -0.238775 -0.356826 26 102 204
-0.0543817 -0.283805 -0.359075 26 102 204
0.117549 0.102049 -0.361945 26 102 204
-0.062252 -0.300824 -0.368323 26 102 204
-0.0431214 -0.176926 -0.369213 26 102 204
0.0501912 0.161656 -0.371378 26 102 204
-0.173994 0.13221 -0.375941 26 102 204
-0.0832492 -0.291066 -0.375575 26 102 204
-0.217996 0.0592209 -0.37389 26 102 204
-0.146375 0.0876189 -0.367979 26 102 204
-0.0783445 0.164793 -0.379003 26 102 204
-0.252661 -0.03499 -0.381399 26 102 204
0.000430983 0.14993 -0.37051 26 102 204
0.00714697 -0.0726236 -0.384029 26 102 204
0.10304 0.109217 -0.375714 26 102 204
-0.0350706 -0.186866 -0.386174 26 102 204
-0.261407 -0.110822 -0.387785 26 102 204
-0.0959988 -0.301661 -0.390739 26 102 204
0.0296812 0.130583 -0.374475 26 102 204
-0.183694 -0.00475093 -0.377359 26 102 204
-0.253861 -0.192093 -0.395384 26 102 204
-0.24279 -0.247946 -0.40082 26 102 204
-0.247311 -0.0734278 -0.398145 26 102 204
0.0120461 0.00398778 -0.403189 26 102 204
-0.0535078 -0.0818663 -0.406978 26 102 204
-0.182522 0.00609895 -0.402747 26 102 204
-0.0719747 -0.228879 -0.407505 26 102 204
-0.269693 -0.179476 -0.404192 26 102 204
0.0281743 0.0984395 -0.412781 26 102 204
0.0307421 -0.0302779 -0.406436 26 102 204
-0.0871798 0.12779 -0.411109 26 102 204
-0.184438 0.148217 -0.383373 26 102 204
0.000678662 -0.0473046 -0.415114 26 102 204
-0.0796057 0.0861941 -0.409675 26 102 204
-0.00147102 0.00673754 -0.424638 26 102 204
-0.22513 -0.0939345 -0.418559 26 102 204
-0.121341 -0.256894 -0.420673 26 102 204
-0.231699 0.0127824 -0.424821 26 102 204
0.010137 0.0183185 -0.426473 26 102 204
-0.175992 -0.241522 -0.427718 26 102 204
-0.0436491 0.136984 -0.427859 26 102 204
-0.114973 -0.25391 -0.433874 26 102 204
0.0473157 0.0515713 -0.426045 26 102 204
-0.13214 -0.23637 -0.441029 26 102 204
-0.108594 -0.21866 -0.44313 26 102 204
-0.117369 0.0539385 -0.446234 26 102 204
-0.109915 -0.143083 -0.450006 26 102 204
-0.20437 -0.189036 -0.448686 26 102 204
-0.152338 -0.179789 -0.448056 26 102 204
-0.0838128 0.0436402 -0.456262 26 102 204
-0.0552035 0.110557 -0.456792 26 102 204
0.0131334 0.132042 -0.441194 26 102 204
-0.186093 -0.172811 -0.462373 26 102 204
-0.112776 -0.0797395 -0.464027 26 102 204
-0.132787 -0.0806603 -0.466539 26 102 204
-0.119254 -0.00259582 -0.46756 26 102 204
-0.119229 -0.0690164 -0.467779 26 102 204
-0.177337 -0.0887435 -0.475927 26 102 204
-0.112934 0.0255674 -0.475773 26 102 204
-0.122599 -0.0919798 -0.482597 26 102 204
-0.105415 -0.0640723 -0.480667 26 102 204
-0.116497 -0.118575 -0.495523 26 102 204
