ply
format ascii 1.0
comment Created by Open3D
element vertex 1024
property double x
property double y
property double z
property uchar red
property uchar green
property uchar blue
end_header
-0.453148 0.142163 0.0147543 26 102 204
-0.174236 0.42774 0.0128283 26 102 204
-0.17301 0.432111 -0.00307813 26 102 204
-0.204648 0.39089 -0.0154451 26 102 204
-0.158007 0.425861 -0.0311962 26 102 204
-0.191654 0.406671 -0.0343149 26 102 204
-0.445158 0.138946 -0.0472054 26 102 204
-0.471981 0.110342 -0.0392064 26 102 204
-0.337874 0.250225 -0.0369213 26 102 204
-0.443652 0.138729 -0.0469296 26 102 204
-0.249733 0.329026 -0.0382846 26 102 204
-0.423728 0.164518 -0.0412911 26 102 204
-0.463848 0.125623 -0.0379252 26 102 204
-0.21861 0.373061 -0.0617447 26 102 204
-0.112245 0.47238 -0.0480863 26 102 204
-0.191362 0.401961 -0.0768788 26 102 204
-0.20142 0.398712 -0.0691467 26 102 204
-0.152869 0.443643 -0.0807404 26 102 204
-0.255625 0.325104 -0.0757491 26 102 204
-0.139828 0.438593 -0.071268 26 102 204
-0.221967 0.347796 -0.0780708 26 102 204
-0.316984 0.264493 -0.0444046 26 102 204
-0.106757 0.472286 -0.0888705 26 102 204
-0.421026 0.168764 -0.114711 26 102 204
-0.459852 0.12534 -0.0658597 26 102 204
-0.478719 0.103409 0.000631163 26 102 204
-0.391712 0.184946 -0.0976328 26 102 204
-0.406451 0.173275 -0.108329 26 102 204
-0.4754 0.100337 -0.109134 26 102 204
-0.315853 0.269035 -0.109062 26 102 204
-0.501751 0.0798656 -0.0689203 26 102 204
-0.103925 0.460034 -0.0786848 26 102 204
-0.476848 0.0865928 -0.000324056 26 102 204
-0.346491 0.232718 0.0144897 26 102 204
-0.45058 0.123455 -0.113997 26 102 204
-0.486497 0.08053 -0.0340077 26 102 204
-0.442095 0.122391 -0.0555057 26 102 204
-0.0888551 0.478966 -0.0593349 26 102 204
-0.310547 0.253444 -0.112641 26 102 204
-0.182499 0.370595 0.0425541 26 102 204
-0.097974 0.45516 0.0163186 26 102 204
-0.449536 0.099211 0.033407 26 102 204
-0.205998 0.34932 -0.0814911 26 102 204
-0.0902965 0.457707 -0.0224693 26 102 204
-0.216925 0.336796 -0.0456422 26 102 204
-0.0955635 0.458156 -0.102146 26 102 204
-0.357233 0.183772 0.0604473 26 102 204
-0.119066 0.430442 0.0114411 26 102 204
-0.0917941 0.450287 -0.0233499 26 102 204
-0.4806 0.0638191 -0.0084049 26 102 204
-0.157575 0.376642 0.0929354 26 102 204
-0.404354 0.134159 0.0783053 26 102 204
-0.382319 0.132488 0.0691908 26 102 204
-0.277782 0.269626 0.0505603 26 102 204
-0.258735 0.281798 0.0518737 26 102 204
-0.302947 0.245052 0.0294159 26 102 204
-0.409897 0.136459 0.0375765 26 102 204
-0.470955 0.0768377 0.0252317 26 102 204
-0.442086 0.109175 0.0142385 26 102 204
-0.326674 0.226403 -0.000118824 26 102 204
-0.209953 0.335903 0.000269608 26 102 204
-0.0629027 0.482128 0.0134207 26 102 204
-0.0981175 0.440385 0.0124305 26 102 204
-0.426334 0.106175 0.00727165 26 102 204
-0.415126 0.135922 -0.0188648 26 102 204
-0.214144 0.31768 -0.023747 26 102 204
-0.314868 0.243436 -0.0312174 26 102 204
-0.282824 0.267081 -0.0323586 26 102 204
-0.339899 0.202833 -0.0347901 26 102 204
-0.40868 0.140312 -0.0417824 26 102 204
-0.195105 0.349015 -0.0373178 26 102 204
-0.118853 0.423556 -0.0437011 26 102 204
-0.193464 0.355732 -0.0500417 26 102 204
-0.137619 0.413282 -0.0419167 26 102 204
-0.135176 0.411012 -0.0552726 26 102 204
-0.389176 0.161298 -0.0588734 26 102 204
-0.189969 0.35687 -0.0653455 26 102 204
-0.350687 0.196131 -0.0623511 26 102 204
-0.227685 0.312668 -0.0627306 26 102 204
-0.140499 0.420019 -0.0647751 26 102 204
-0.244456 0.310184 -0.0673841 26 102 204
-0.31371 0.231626 -0.0762853 26 102 204
-0.185904 0.356981 -0.0773002 26 102 204
-0.410796 0.13258 -0.0749243 26 102 204
-0.10382 0.448428 -0.0741877 26 102 204
-0.399676 0.157648 -0.072876 26 102 204
-0.242334 0.310639 -0.0762075 26 102 204
-0.350453 0.195887 -0.087515 26 102 204
-0.152307 0.39048 -0.100298 26 102 204
-0.163384 0.379611 0.0815869 26 102 204
-0.300027 0.235509 0.0847049 26 102 204
-0.48182 0.0639663 0.0477009 26 102 204
-0.418151 0.122648 -0.0660216 26 102 204
-0.267149 0.276737 0.0223316 26 102 204
-0.465271 0.0809392 -0.00731286 26 102 204
-0.4213 0.116438 0.0944838 26 102 204
-0.420895 0.124008 0.0815494 26 102 204
-0.192377 0.354508 0.00172167 26 102 204
-0.0969823 0.437489 -0.00750468 26 102 204
-0.306965 0.23144 -0.0510203 26 102 204
-0.102513 0.427433 0.0855024 26 102 204
-0.122058 0.395818 -0.00592044 26 102 204
-0.464438 0.0652721 -0.0923816 26 102 204
-0.0732868 0.457506 -0.0933627 26 102 204
-0.251466 0.268744 -0.0166581 26 102 204
-0.232596 0.284288 0.0882271 26 102 204
-0.41706 0.0949857 0.0631473 26 102 204
-0.47814 0.0363624 -0.0572895 26 102 204
-0.133585 0.3804 0.0220265 26 102 204
-0.213414 0.294355 0.0448309 26 102 204
-0.325717 0.187367 -0.043946 26 102 204
-0.450889 0.0631921 -0.0334119 26 102 204
-0.450746 0.0579409 -0.0337371 26 102 204
-0.284753 0.227928 -0.0332879 26 102 204
-0.415774 0.0835875 -0.0683369 26 102 204
-0.379315 0.132445 0.00359272 26 102 204
-0.351393 0.14407 0.0696025 26 102 204
-0.164403 0.352278 0.0892964 26 102 204
-0.247647 0.254707 -0.0374991 26 102 204
-0.486698 -0.00911218 -0.0759704 26 102 204
-0.325592 0.177996 -0.0172746 26 102 204
-0.221919 0.290413 -0.0164517 26 102 204
-0.231633 0.280167 0.045289 26 102 204
-0.409085 0.0861017 -0.0819875 26 102 204
-0.216901 0.28211 0.0480464 26 102 204
-0.247989 0.237007 0.0973097 26 102 204
-0.162578 0.338234 0.0431212 26 102 204
-0.278476 0.22076 0.0540242 26 102 204
-0.297776 0.188243 0.0484851 26 102 204
-0.049526 0.436177 -0.0892606 26 102 204
-0.323267 0.190032 -0.0264673 26 102 204
-0.0450813 0.440752 -0.0864985 26 102 204
-0.0451721 0.438868 -0.0859665 26 102 204
-0.383019 0.0981699 -0.049884 26 102 204
-0.0360811 0.44439 -0.0883203 26 102 204
-0.0889663 0.379224 -0.052162 26 102 204
-0.293192 0.181436 -0.000794916 26 102 204
-0.0929032 0.382123 -0.075091 26 102 204
-0.340217 0.143852 0.0874311 26 102 204
-0.421379 0.0395489 -0.031564 26 102 204
-0.1759 0.28507 0.0328687 26 102 204
0.014463 0.467611 -0.090584 26 102 204
-0.0538695 0.412138 -0.0849477 26 102 204
-0.271438 0.165716 0.0130067 26 102 204
-0.122731 0.32902 0.0882469 26 102 204
-0.295627 0.157233 -0.00943703 26 102 204
-0.129468 0.312287 -0.0136724 26 102 204
-0.254038 0.203148 -0.011737 26 102 204
-0.305071 0.14312 -0.0141583 26 102 204
-0.371765 0.0833324 -0.0140957 26 102 204
-0.211273 0.241623 0.0743922 26 102 204
-0.0833455 0.360878 -0.0449669 26 102 204
-0.297452 0.138143 0.0538275 26 102 204
-0.347798 0.0865709 0.0401984 26 102 204
-0.284623 0.157382 0.0758436 26 102 204
-0.347027 0.0836474 -0.0313142 26 102 204
-0.343246 0.08662 0.101627 26 102 204
-0.350141 0.0818199 0.108684 26 102 204
-0.366939 0.0674682 -0.046415 26 102 204
-0.129629 0.302457 0.0409808 26 102 204
-0.0913584 0.375561 0.014782 26 102 204
-0.281396 0.151827 -0.0304511 26 102 204
-0.333102 0.0978636 0.0808929 26 102 204
-0.442782 -0.0181933 -0.0742691 26 102 204
-0.361396 0.0570222 -0.0391138 26 102 204
-0.337409 0.0836568 0.0198542 26 102 204
-0.304726 0.120686 -0.0459408 26 102 204
-0.287294 0.154573 0.0251273 26 102 204
-0.347533 0.0651154 0.0403499 26 102 204
-0.328794 0.0938362 0.0926865 26 102 204
-0.231822 0.180088 0.0960776 26 102 204
-0.316128 0.106399 0.0757793 26 102 204
-0.20667 0.216968 -0.030029 26 102 204
-0.355618 0.0588764 0.0231236 26 102 204
-0.247116 0.169585 -0.0320012 26 102 204
-0.0277259 0.383029 -0.0890127 26 102 204
-0.254323 0.149609 0.097581 26 102 204
0.0339274 0.4422 -0.0926785 26 102 204
-0.063526 0.349089 -0.00259751 26 102 204
-0.290254 0.113298 -0.0110936 26 102 204
-0.36129 0.0415688 -0.0490334 26 102 204
-0.0512405 0.348213 -0.049798 26 102 204
-0.259049 0.14819 -0.0118989 26 102 204
-0.10302 0.302926 -0.0381205 26 102 204
-0.334055 0.0812044 -0.0477669 26 102 204
-0.28079 0.114355 0.0967719 26 102 204
0.00215591 0.404404 -0.0878754 26 102 204
-0.194375 0.187644 -0.0246732 26 102 204
-0.244626 0.146901 0.00786921 26 102 204
-0.0827855 0.305757 -0.0342476 26 102 204
-0.399713 -0.011193 -0.0837214 26 102 204
-0.270962 0.11 -0.0179859 26 102 204
-0.16068 0.229842 0.1052 26 102 204
-0.0413097 0.330244 -0.0513884 26 102 204
-0.191345 0.178206 0.101715 26 102 204
0.0145754 0.376225 -0.0503593 26 102 204
0.0103592 0.384771 -0.0840067 26 102 204
-0.084477 0.287652 0.083995 26 102 204
-0.279601 0.0905746 0.0814006 26 102 204
-0.0875324 0.282852 -0.0464511 26 102 204
-0.00723464 0.351321 -0.0328402 26 102 204
-0.244765 0.116095 0.0220813 26 102 204
0.0778526 0.438121 -0.0880604 26 102 204
-0.24297 0.118605 0.0986316 26 102 204
-0.111523 0.252255 -0.0125914 26 102 204
-0.262582 0.104445 0.0127036 26 102 204
-0.404964 -0.0549647 -0.0807474 26 102 204
-0.293636 0.0601992 0.0443679 26 102 204
-0.403127 -0.0510072 -0.0663382 26 102 204
-0.411492 -0.0509032 -0.0830809 26 102 204
-0.339322 -0.000678404 -0.00587849 26 102 204
-0.00911919 0.338191 -0.0703118 26 102 204
-0.0262252 0.314227 -0.0551878 26 102 204
-0.100002 0.241191 0.0453518 26 102 204
-0.379899 -0.0333472 -0.0737739 26 102 204
0.0126306 0.354508 -0.052039 26 102 204
-0.0667758 0.274684 0.0229082 26 102 204
-0.254829 0.0759159 0.0447628 26 102 204
-0.18716 0.161495 0.00300228 26 102 204
-0.0690021 0.270451 -0.00769737 26 102 204
-0.324607 0.00374227 -0.074076 26 102 204
0.0547985 0.400174 -0.0848356 26 102 204
-0.294737 0.0371126 0.0163423 26 102 204
-0.252504 0.090026 -0.0489247 26 102 204
-0.0572462 0.26911 0.0285311 26 102 204
-0.0629138 0.265845 0.061869 26 102 204
-0.261716 0.0705789 -0.0205256 26 102 204
-0.244026 0.0853132 0.0404223 26 102 204
-0.186257 0.137097 0.0879862 26 102 204
0.0741816 0.39116 -0.0884924 26 102 204
0.0279386 0.416455 -0.0840073 26 102 204
-0.0402197 0.277233 -0.0266786 26 102 204
-0.199798 0.125848 0.0630116 26 102 204
0.0707261 0.383348 -0.0580302 26 102 204
-0.0133866 0.303529 -0.0646062 26 102 204
-0.247292 0.0640938 0.0281313 26 102 204
-0.258777 0.0581602 0.0502648 26 102 204
-0.127639 0.185463 0.0982476 26 102 204
-0.281259 0.0427309 0.0249421 26 102 204
-0.0846613 0.376823 -0.0168893 26 102 204
-0.0380794 0.267162 -0.0467759 26 102 204
0.0717518 0.391012 -0.0868158 26 102 204
-0.0404358 0.26956 0.0921463 26 102 204
-0.0647377 0.237342 0.0853306 26 102 204
-0.183742 0.124498 0.0696375 26 102 204
-0.151261 0.143789 0.0968975 26 102 204
-0.115985 0.192498 -0.00836158 26 102 204
-0.361274 0.0951961 -0.0227716 26 102 204
-0.352149 0.115823 0.0377048 26 102 204
-0.105506 0.211357 -0.00134282 26 102 204
0.00451086 0.313164 -0.0540948 26 102 204
-0.196011 0.103882 0.113765 26 102 204
-0.0160283 0.286639 -0.0302482 26 102 204
-0.0148291 0.289389 -0.0495833 26 102 204
-0.321995 -0.0337207 -0.0656693 26 102 204
-0.200601 0.0984258 -0.0383893 26 102 204
-0.198567 0.101396 -0.0334527 26 102 204
-0.376083 -0.0913757 -0.05052 26 102 204
-0.180388 0.118635 -0.00840125 26 102 204
0.0189441 0.323257 -0.0666844 26 102 204
-0.214505 0.0720087 0.00598689 26 102 204
0.0558205 0.352735 -0.0589198 26 102 204
-0.12682 0.16849 -0.0143238 26 102 204
-0.0982022 0.19253 -0.0180909 26 102 204
-0.112496 0.20894 0.0564563 26 102 204
-0.0846073 0.208325 0.110412 26 102 204
0.0681961 0.366461 -0.0555303 26 102 204
-0.0675051 0.223272 0.0154948 26 102 204
-0.264002 0.0243257 0.0514783 26 102 204
0.0328695 0.313777 -0.0155938 26 102 204
-0.113449 0.173687 0.0312165 26 102 204
-0.377465 -0.101269 -0.0649545 26 102 204
-0.131597 0.152913 0.0107348 26 102 204
-0.160196 0.11561 -0.0153889 26 102 204
-0.160695 0.130545 -0.00899013 26 102 204
-0.252919 0.0321179 -0.0168749 26 102 204
-0.257655 0.00352534 -0.0457501 26 102 204
-0.154662 0.120283 0.0422756 26 102 204
-0.0793604 0.199611 0.0568713 26 102 204
-0.225468 0.0266986 0.0604494 26 102 204
-0.235766 0.0307962 0.00784765 26 102 204
-0.0437731 0.231254 0.0672502 26 102 204
-0.126359 0.125625 0.114202 26 102 204
0.0521235 0.315059 -0.0582314 26 102 204
-0.231019 0.0431186 -0.00462241 26 102 204
0.0866738 0.343363 -0.0481692 26 102 204
-0.208444 0.0457115 0.0906248 26 102 204
-0.244023 0.0179944 0.047783 26 102 204
-0.0640285 0.197862 -0.0110501 26 102 204
-0.243745 0.00418063 0.0516968 26 102 204
-0.295064 -0.0377185 -0.0623331 26 102 204
0.0833329 0.352328 -0.0764204 26 102 204
0.067417 0.321712 -0.0874228 26 102 204
-0.246206 0.0182739 -0.029377 26 102 204
0.011055 0.264456 -0.0335841 26 102 204
-0.187439 0.0552946 0.0993704 26 102 204
-0.172355 0.0697344 0.0935409 26 102 204
-0.17444 0.078868 -0.0229318 26 102 204
-0.0961438 0.150665 0.00471663 26 102 204
-0.148362 0.0948909 0.0355438 26 102 204
-0.231712 0.0134577 -0.0381641 26 102 204
-0.0499217 0.192039 0.0115276 26 102 204
-0.0711212 0.172362 0.012723 26 102 204
-0.00321414 0.249495 -0.0465124 26 102 204
-0.28486 -0.0441111 -0.0656895 26 102 204
-0.121881 0.116263 -0.00137409 26 102 204
-0.215267 0.0170378 -0.0230182 26 102 204
0.122474 0.372906 -0.0817612 26 102 204
-0.022661 0.212793 0.0210749 26 102 204
-0.113323 0.122428 0.0615152 26 102 204
-0.364045 -0.129204 -0.0751813 26 102 204
-0.213664 0.012571 0.0449 26 102 204
-0.195984 0.0403012 0.11073 26 102 204
-0.229437 0.00390093 -0.00150995 26 102 204
0.0490389 0.269329 -0.0520712 26 102 204
-0.162174 0.0632628 0.0130394 26 102 204
-0.180061 0.0460781 0.0391069 26 102 204
0.106976 0.337254 -0.0726247 26 102 204
-0.0982463 0.121197 0.00320733 26 102 204
0.0298742 0.258563 -0.0197325 26 102 204
-0.0973591 0.120174 0.079141 26 102 204
-0.148946 0.0678867 0.00176968 26 102 204
-0.0183892 0.203207 -0.00719524 26 102 204
-0.201209 0.0152276 0.0178582 26 102 204
-0.0309201 0.19204 0.006704 26 102 204
-0.204097 0.01042 0.0954799 26 102 204
-0.0358818 0.17778 0.0383316 26 102 204
-0.0504465 0.162512 0.131178 26 102 204
-0.236021 -0.0296869 -0.0362449 26 102 204
0.0301227 0.239775 0.0268221 26 102 204
-0.376206 -0.16824 -0.0819295 26 102 204
-0.208459 0.00615515 0.0924502 26 102 204
-0.228916 -0.0157601 0.0984432 26 102 204
-0.345704 -0.137578 -0.069422 26 102 204
-0.0175356 0.191118 -0.0469799 26 102 204
-0.194157 0.013284 0.0672067 26 102 204
-0.266704 -0.0602871 -0.0555915 26 102 204
-0.125382 0.0784948 -0.0129469 26 102 204
-0.317611 -0.128166 -0.070494 26 102 204
-0.131501 0.0670744 0.0896229 26 102 204
-0.142426 0.0588155 0.00509847 26 102 204
-0.0525507 0.142674 0.0087182 26 102 204
-0.375212 -0.181683 -0.0809388 26 102 204
-0.132368 0.0610506 0.102801 26 102 204
0.126658 0.318726 -0.0778342 26 102 204
-0.102397 0.0926551 0.0714303 26 102 204
-0.14281 0.0557973 0.00920549 26 102 204
-0.107103 0.0843778 0.0393323 26 102 204
-0.107082 0.0901874 0.0137002 26 102 204
-0.117317 0.0733571 0.0317222 26 102 204
-0.135166 0.0614142 0.0655683 26 102 204
-0.0901425 0.100746 0.0393811 26 102 204
-0.0430291 0.151894 0.0400829 26 102 204
-0.13874 0.0536113 0.0782998 26 102 204
0.00508296 0.201711 0.0252154 26 102 204
-0.335449 -0.146864 -0.0591115 26 102 204
-0.157273 0.0392563 0.112946 26 102 204
-0.165859 0.0216691 0.00968766 26 102 204
-0.0155263 0.17043 0.0267822 26 102 204
-0.22976 -0.0454406 -0.0429251 26 102 204
-0.0251201 0.162852 0.0377591 26 102 204
-0.117101 0.066627 0.037948 26 102 204
0.131599 0.3192 -0.0782741 26 102 204
-0.167865 0.00489311 -0.00656194 26 102 204
-0.134319 0.0493144 0.0383299 26 102 204
-0.0477621 0.128782 0.0590834 26 102 204
-0.102435 0.0822857 0.0195992 26 102 204
-0.0532976 0.130262 0.0955754 26 102 204
0.0804899 0.274076 -0.0605667 26 102 204
-0.170265 0.00666566 0.0277407 26 102 204
-0.218414 -0.0395154 -0.018215 26 102 204
-0.104142 0.0720413 0.0247401 26 102 204
0.166053 0.344175 -0.0761284 26 102 204
0.109733 0.286113 -0.0688265 26 102 204
-0.0369156 0.1437 0.0552378 26 102 204
0.181845 0.355441 -0.0710912 26 102 204
-0.0753261 0.0922191 0.0481814 26 102 204
-0.169526 0.00649334 0.00456813 26 102 204
-0.0583995 0.110111 0.118576 26 102 204
-0.0249711 0.13849 0.0440273 26 102 204
-0.0840255 0.0883823 -0.00909955 26 102 204
0.136279 0.29526 -0.0817842 26 102 204
0.152531 0.318699 -0.0703217 26 102 204
0.081152 0.234915 -0.0573776 26 102 204
-0.0784755 0.093119 0.0114468 26 102 204
-0.0680802 0.0907056 0.00936536 26 102 204
0.0230125 0.185151 0.0518017 26 102 204
-0.128981 0.0277288 -0.0129403 26 102 204
0.0266585 0.19391 0.0025458 26 102 204
-0.00955438 0.144594 0.0595436 26 102 204
-0.0166211 0.138056 0.0716394 26 102 204
0.060087 0.210433 0.0186824 26 102 204
-0.160036 -0.00869288 0.0367193 26 102 204
-0.0921462 0.0564084 -0.00917182 26 102 204
0.113904 0.262316 -0.0462887 26 102 204
0.113605 0.256839 -0.0590067 26 102 204
-0.184243 -0.0411829 0.0297782 26 102 204
-0.107091 0.033351 0.0827071 26 102 204
-0.334637 -0.19364 -0.0841419 26 102 204
-0.0904295 0.049835 0.124385 26 102 204
-0.14549 -0.00762352 0.0579755 26 102 204
-0.0412502 0.0955521 0.0566006 26 102 204
-0.0516261 0.0823461 0.067094 26 102 204
-0.0566461 0.0877024 0.0595572 26 102 204
-0.103003 0.0526231 0.0684595 26 102 204
0.0891943 0.223978 -0.0369806 26 102 204
-0.157919 -0.0250296 0.018525 26 102 204
-0.12707 0.000804478 0.0238497 26 102 204
0.152182 0.281729 -0.066485 26 102 204
-0.0165197 0.114015 0.119442 26 102 204
-0.161452 -0.0329658 0.0886142 26 102 204
-0.32107 -0.2117 -0.0977063 26 102 204
0.0778637 0.203913 -0.0339285 26 102 204
0.178859 0.317843 -0.0754405 26 102 204
-0.117803 0.00424453 0.0542943 26 102 204
-0.130738 -0.0098729 0.00450421 26 102 204
-0.0323579 0.0894095 0.00493684 26 102 204
-0.0985557 0.0239008 0.0253698 26 102 204
0.0444363 0.167119 0.0624887 26 102 204
-0.274898 -0.152768 -0.0886927 26 102 204
0.0727855 0.193462 0.0642653 26 102 204
0.19354 0.318965 -0.0832365 26 102 204
-0.0428587 0.0728464 0.0309885 26 102 204
-0.123642 -0.0051982 0.0225857 26 102 204
0.00325979 0.123841 0.0268374 26 102 204
-0.239725 -0.140185 -0.0596577 26 102 204
0.00882045 0.120263 0.0509172 26 102 204
-0.0172023 0.0930871 0.117968 26 102 204
-0.133256 -0.0247091 0.111902 26 102 204
-0.125385 -0.0121334 -0.0281464 26 102 204
-0.0842858 0.0217762 0.0635822 26 102 204
0.00692217 0.104668 -0.0250669 26 102 204
-0.0430205 0.0582438 0.0952208 26 102 204
-0.155237 -0.0583582 0.0380483 26 102 204
0.0596968 0.163132 0.0713148 26 102 204
-0.0913647 0.00757278 0.0422163 26 102 204
-0.128186 0.0339933 0.115015 26 102 204
0.219248 0.318807 -0.0876247 26 102 204
-0.186658 -0.0878911 0.0534524 26 102 204
0.0593659 0.155009 0.00258264 26 102 204
-0.0859786 0.0136958 0.0987736 26 102 204
0.167494 0.261963 -0.0651845 26 102 204
-0.0685861 0.0236295 0.0202057 26 102 204
0.0577141 0.149915 -0.0107331 26 102 204
-0.0972188 -0.0109472 0.0648497 26 102 204
0.0301305 0.124332 0.126554 26 102 204
0.199803 0.298495 -0.0777024 26 102 204
-0.119711 -0.0310703 0.0111586 26 102 204
-0.133044 -0.0441097 0.0668736 26 102 204
-0.26954 -0.162147 -0.0742478 26 102 204
-0.119839 -0.0362281 -0.0228153 26 102 204
-0.158371 -0.0570411 -0.0209214 26 102 204
-0.0028782 0.0796664 0.108734 26 102 204
-0.128247 -0.0526315 -0.0477324 26 102 204
-0.0288251 0.0616666 -0.0160299 26 102 204
-0.0415702 0.0397719 0.00308249 26 102 204
-0.266606 -0.19243 -0.0769916 26 102 204
-0.0518296 0.023286 0.110335 26 102 204
0.140503 0.206522 0.0213881 26 102 204
-0.0641846 0.00919597 0.00394915 26 102 204
-0.0221685 0.045025 -0.019031 26 102 204
0.231533 0.294494 -0.0751634 26 102 204
0.0128526 0.065008 0.112228 26 102 204
0.0471637 0.119178 0.0453201 26 102 204
0.0268579 0.0932515 0.047811 26 102 204
-0.0507501 0.013916 0.0763683 26 102 204
-0.0858488 -0.0230385 -0.0193947 26 102 204
0.109824 0.176365 0.0486486 26 102 204
0.223604 0.291415 -0.0719042 26 102 204
-0.130822 -0.0736393 0.0487702 26 102 204
-0.287443 -0.225754 -0.0791315 26 102 204
0.190957 0.260291 -0.0604861 26 102 204
-0.103406 -0.0462823 0.113028 26 102 204
0.170748 0.222399 -0.0475773 26 102 204
0.115228 0.259729 0.00262008 26 102 204
-0.0479256 0.0117195 -0.0202835 26 102 204
0.104034 0.168634 -0.0230873 26 102 204
0.204117 0.257431 -0.0819668 26 102 204
-0.104563 -0.0556141 0.108806 26 102 204
-0.227038 -0.179444 -0.0536454 26 102 204
-0.142019 -0.0966179 0.0821938 26 102 204
0.0568467 0.104278 0.0972337 26 102 204
0.117913 0.16119 0.0399178 26 102 204
-0.157735 -0.124465 0.00803968 26 102 204
-0.0815857 -0.0357768 0.106242 26 102 204
-0.118307 -0.0807211 0.101499 26 102 204
0.0957158 0.136161 0.0305137 26 102 204
0.0925861 0.142663 0.0105027 26 102 204
0.0905888 0.133452 0.0709039 26 102 204
-0.0213905 0.0195184 0.10783 26 102 204
-0.0334448 0.00752524 0.000724097 26 102 204
-0.27704 -0.235137 -0.0787621 26 102 204
-0.0748719 -0.0341129 0.00430276 26 102 204
0.236231 0.279129 -0.0764885 26 102 204
-0.0704418 -0.035392 0.0477205 26 102 204
0.0472478 0.0905023 0.0263778 26 102 204
0.0508893 0.0899156 0.000149612 26 102 204
-0.133959 -0.096438 0.0771986 26 102 204
0.0315499 0.0669062 0.0869943 26 102 204
-0.249463 -0.228071 -0.0794403 26 102 204
0.210116 0.25254 -0.0687758 26 102 204
0.0654739 0.0985102 -0.001106 26 102 204
-0.197629 -0.169274 -0.0331324 26 102 204
-0.0798465 -0.0545868 0.105206 26 102 204
-0.0333614 -0.00944341 -0.0266109 26 102 204
-0.246422 -0.23224 -0.0900418 26 102 204
-0.0753488 -0.0563422 -0.0131032 26 102 204
0.0837254 0.116503 0.0498198 26 102 204
0.11197 0.144186 -0.0484762 26 102 204
-0.00372062 0.0197203 0.102677 26 102 204
-0.0283946 -0.0041675 0.00770213 26 102 204
0.240572 0.259187 -0.0788603 26 102 204
0.00623391 0.0219906 0.0361993 26 102 204
0.117133 0.133604 -0.0278492 26 102 204
0.0980598 0.109021 -0.0344771 26 102 204
0.097171 0.109486 -0.01328 26 102 204
-0.0148889 -0.0091694 -0.00574588 26 102 204
0.155719 0.163639 -0.0333423 26 102 204
-0.112332 -0.100795 0.107695 26 102 204
0.00683079 0.00981238 0.0190956 26 102 204
0.0196529 0.022048 0.11636 26 102 204
0.0244736 0.0322584 0.0228679 26 102 204
-0.0336079 -0.0208652 0.0914284 26 102 204
-0.0120431 -0.0131714 0.035699 26 102 204
-0.261584 -0.256802 -0.0665569 26 102 204
-0.271772 -0.285884 -0.0708615 26 102 204
-0.0548766 -0.0826229 -0.0124266 26 102 204
0.038356 0.0367343 0.0209989 26 102 204
-0.0100394 -0.0146812 0.0438262 26 102 204
-0.136263 -0.137266 0.0794601 26 102 204
-0.0470886 -0.0569054 0.0623571 26 102 204
0.0977785 0.0885289 0.0725847 26 102 204
-0.0107366 -0.0263968 0.0202785 26 102 204
-0.0161647 -0.0293665 0.0800413 26 102 204
0.00606456 -0.0168284 0.0493212 26 102 204
0.218093 0.200046 -0.0560132 26 102 204
-0.186392 -0.209118 -0.0535042 26 102 204
-0.0477519 -0.0723921 -0.0233907 26 102 204
-0.0592105 -0.0701114 -0.0452854 26 102 204
-0.190494 -0.220753 -0.075766 26 102 204
0.019641 -0.076101 0.0130044 26 102 204
-0.0912393 -0.118309 -0.00645843 26 102 204
-0.114653 -0.139924 0.00191894 26 102 204
-0.03375 -0.0591935 -0.0130455 26 102 204
-0.109981 -0.129483 0.0600943 26 102 204
0.244151 0.226897 -0.0832446 26 102 204
-0.0816919 -0.116511 0.031691 26 102 204
0.225497 0.198668 -0.0697034 26 102 204
-0.0401434 -0.0763458 0.102117 26 102 204
-0.209436 -0.245278 -0.0566954 26 102 204
-0.154105 -0.19268 -0.040345 26 102 204
-0.146616 -0.18426 -0.0152866 26 102 204
-0.0472055 -0.0881541 0.102578 26 102 204
-0.0954674 -0.141535 0.0282417 26 102 204
-0.0312197 -0.0746289 0.0983656 26 102 204
-0.232033 -0.275804 -0.0716736 26 102 204
-0.0275916 -0.073071 0.0355207 26 102 204
0.0672624 0.017395 -0.00545771 26 102 204
0.0375144 -0.00696738 -0.0251686 26 102 204
0.00908827 -0.0441647 0.0673856 26 102 204
-0.13089 -0.178926 0.0576477 26 102 204
0.19277 0.135886 -0.0486715 26 102 204
-0.0515062 -0.106061 -0.00690904 26 102 204
0.237454 0.190224 -0.0659242 26 102 204
0.133199 0.0771181 0.0973813 26 102 204
0.0188148 -0.0387693 -0.0319135 26 102 204
-0.113013 -0.169909 -0.0244403 26 102 204
0.0662042 0.00430584 0.106509 26 102 204
0.0905048 -0.00393433 0.0809995 26 102 204
0.271934 0.198565 -0.0779153 26 102 204
-0.0545533 -0.123133 -0.0163309 26 102 204
0.0299891 -0.0314372 0.102173 26 102 204
0.180995 0.106702 -0.02869 26 102 204
-0.137195 -0.206087 -0.0498853 26 102 204
0.046239 -0.0213879 0.101625 26 102 204
-0.0171828 -0.086016 0.0422714 26 102 204
-0.194621 -0.274656 -0.081372 26 102 204
0.157972 0.0888488 0.0457157 26 102 204
0.267806 0.199677 -0.0809769 26 102 204
0.222103 0.152992 -0.0453609 26 102 204
0.0168571 -0.0642621 0.0165313 26 102 204
-0.0406828 -0.115053 0.0126148 26 102 204
0.153333 0.0735089 0.0782182 26 102 204
0.254614 0.170674 -0.0696419 26 102 204
0.164719 0.0862999 0.0726036 26 102 204
0.306335 0.228274 -0.0889565 26 102 204
-0.132509 -0.215287 -0.0575824 26 102 204
-0.000556617 -0.0846063 0.0330139 26 102 204
0.162172 0.0796482 -0.0265815 26 102 204
0.0931082 0.00557197 0.0169649 26 102 204
0.000717618 -0.0843605 -0.0113106 26 102 204
0.0972461 0.0106713 0.00481966 26 102 204
-0.062422 -0.150318 -0.0456902 26 102 204
0.101412 0.0153811 -0.00830124 26 102 204
0.0990591 0.0080311 -0.0256039 26 102 204
-0.0391787 -0.130061 -0.0223314 26 102 204
0.31011 0.17635 -0.0657457 26 102 204
-0.109838 -0.197271 0.0495523 26 102 204
0.148247 0.0544358 0.00186297 26 102 204
0.118638 0.0228968 -0.0170009 26 102 204
0.0609938 -0.0360567 0.0178861 26 102 204
-0.0992853 -0.201124 0.0186572 26 102 204
0.0514879 -0.0440502 0.0241256 26 102 204
0.0420416 -0.0546196 0.0206549 26 102 204
-0.0216217 -0.12711 0.1022 26 102 204
-0.0522199 -0.155134 -0.00462098 26 102 204
-0.0798971 -0.184834 0.0259778 26 102 204
0.20417 0.0962702 -0.0105634 26 102 204
0.286624 0.168361 -0.0725854 26 102 204
-0.192123 -0.29551 -0.0787302 26 102 204
0.00556076 -0.100022 -0.0274727 26 102 204
0.210701 0.0916276 -0.0348275 26 102 204
0.159825 0.0501014 0.102724 26 102 204
-0.187498 -0.292564 -0.0791191 26 102 204
0.191147 0.0794321 0.0649452 26 102 204
0.121745 0.00545701 -0.0176206 26 102 204
0.153428 0.0413173 0.0618139 26 102 204
-0.0994133 -0.22234 -0.0383373 26 102 204
-0.106203 -0.228501 0.00105275 26 102 204
0.274921 0.159368 -0.0714162 26 102 204
0.134142 0.0222128 0.0199983 26 102 204
-0.124576 -0.249474 -0.0496228 26 102 204
-0.10881 -0.231549 -0.0422969 26 102 204
0.0544216 -0.0656306 -0.0209755 26 102 204
0.0104395 -0.110213 0.10686 26 102 204
0.215692 0.0904639 -0.0568375 26 102 204
-0.0332617 -0.166959 0.0329547 26 102 204
0.164849 0.0362172 0.02219 26 102 204
0.180166 0.0470225 0.089376 26 102 204
-0.18018 -0.304492 -0.0658787 26 102 204
0.179408 0.0553209 -0.0162033 26 102 204
0.0243361 -0.103196 -0.00296813 26 102 204
-0.0144878 -0.151823 0.106879 26 102 204
0.174029 0.0435616 0.115245 26 102 204
0.176694 0.0401291 -0.0178753 26 102 204
-0.0754467 -0.207024 -0.0350512 26 102 204
0.205976 0.0732102 -0.0329853 26 102 204
-0.162491 -0.310832 -0.0604878 26 102 204
-0.196476 -0.335744 -0.0827367 26 102 204
0.220602 0.0794383 -0.0337132 26 102 204
0.19907 0.0546942 0.0360304 26 102 204
0.0913779 -0.0535784 -0.0235964 26 102 204
-0.0174146 -0.161164 0.00418008 26 102 204
-0.184185 -0.330322 -0.0744243 26 102 204
0.193295 0.04517 0.0898718 26 102 204
-0.106753 -0.24973 -0.0388487 26 102 204
-0.152309 -0.301249 -0.080925 26 102 204
-0.023364 -0.173221 -0.0262184 26 102 204
0.0981117 -0.0354869 -0.0120934 26 102 204
-0.0175267 -0.162678 0.107194 26 102 204
-0.123922 -0.275041 -0.0715316 26 102 204
-0.16788 -0.320474 -0.089503 26 102 204
-0.142465 -0.2883 -0.0718833 26 102 204
-0.170137 -0.328204 -0.084298 26 102 204
-0.155971 -0.312846 -0.0755928 26 102 204
-0.0172507 -0.176365 0.0549678 26 102 204
0.238066 0.0759636 -0.0282119 26 102 204
-0.116441 -0.281638 -0.0567661 26 102 204
0.0322741 -0.125482 0.0201272 26 102 204
0.20215 0.0359557 -0.0319996 26 102 204
0.0286945 -0.136836 -0.0362513 26 102 204
-0.00837468 -0.175899 0.0193091 26 102 204
0.187395 0.0200684 0.0139723 26 102 204
0.216158 0.03683 0.0934859 26 102 204
0.13722 -0.0303887 0.011502 26 102 204
0.191813 0.0257815 0.0149767 26 102 204
-0.0699569 -0.23437 0.0208715 26 102 204
0.0517846 -0.123782 0.0936382 26 102 204
0.129098 -0.0494327 0.0422146 26 102 204
0.0418597 -0.129348 0.0860872 26 102 204
0.101589 -0.0808582 0.0488757 26 102 204
0.0198195 -0.166159 0.0762518 26 102 204
0.0724733 -0.109996 0.0121835 26 102 204
0.0657054 -0.118064 0.0849711 26 102 204
0.055201 -0.128041 -0.0104887 26 102 204
0.167044 -0.0192557 0.0673242 26 102 204
0.0647083 -0.117341 -0.0151456 26 102 204
0.0649239 -0.12282 0.098837 26 102 204
0.142874 -0.0438131 0.0721988 26 102 204
-0.00284439 -0.185965 -0.0258434 26 102 204
0.0946042 -0.0950838 -0.0216036 26 102 204
0.112424 -0.0742947 0.11421 26 102 204
0.271006 0.0879732 -0.0617461 26 102 204
0.155011 -0.0348017 -0.0131128 26 102 204
0.0430859 -0.150203 -0.0319069 26 102 204
0.188704 -0.00172589 0.0537122 26 102 204
0.124334 -0.0656411 0.0727199 26 102 204
0.0122498 -0.187208 0.036068 26 102 204
0.0487626 -0.153182 -0.0403575 26 102 204
0.0223602 -0.178169 0.0890421 26 102 204
0.272462 0.0709317 -0.0744793 26 102 204
0.207217 -0.00334995 0.0688803 26 102 204
0.0475445 -0.162861 -0.0119673 26 102 204
0.294172 0.0909427 -0.0494673 26 102 204
-0.0486953 -0.25348 0.0461082 26 102 204
-0.0943193 -0.307122 -0.0866676 26 102 204
-0.0542994 -0.261262 0.0250704 26 102 204
0.0509668 -0.163739 0.114057 26 102 204
-0.0750425 -0.279358 -0.0591302 26 102 204
0.16423 -0.0494993 -0.0206274 26 102 204
-0.00657041 -0.223767 0.0185836 26 102 204
0.0899159 -0.130827 0.113309 26 102 204
0.224841 0.00764824 -0.0387751 26 102 204
0.0360695 -0.187032 0.0886975 26 102 204
0.000947246 -0.219917 0.0588123 26 102 204
0.179172 -0.0458238 0.0206124 26 102 204
0.3215 0.0909869 -0.062178 26 102 204
0.0711824 -0.159324 0.112344 26 102 204
-0.0302394 -0.257032 -0.0342866 26 102 204
0.169952 -0.0663665 0.0305547 26 102 204
-0.0049859 -0.234723 0.081067 26 102 204
-0.107333 -0.341789 -0.0756516 26 102 204
0.00471682 -0.231497 -0.0294065 26 102 204
0.0835762 -0.169191 0.101607 26 102 204
0.12311 -0.117464 0.0982223 26 102 204
0.172029 -0.0671801 0.0178786 26 102 204
0.0584925 -0.186327 0.11023 26 102 204
0.273051 0.0369641 -0.003266 26 102 204
-0.0724658 -0.316656 -0.0648258 26 102 204
0.175872 -0.0710733 0.0144939 26 102 204
0.186474 -0.0656845 0.0863348 26 102 204
0.0297888 -0.224927 0.0595726 26 102 204
0.1378 -0.11484 0.10851 26 102 204
0.32779 0.0734949 -0.056141 26 102 204
0.0296379 -0.230473 -0.0398205 26 102 204
0.168274 -0.0891427 -0.0103453 26 102 204
-0.00824777 -0.2642 -0.0416905 26 102 204
0.118846 -0.130307 0.00463201 26 102 204
0.127253 -0.126431 0.106608 26 102 204
0.286194 0.0383646 -0.0521581 26 102 204
0.188975 -0.0748928 0.112987 26 102 204
0.18172 -0.0917309 0.100366 26 102 204
0.151557 -0.118797 0.108565 26 102 204
0.321022 0.0474793 -0.0702695 26 102 204
0.166732 -0.101634 -0.00469481 26 102 204
0.380977 0.111165 -0.0769947 26 102 204
-0.0634175 -0.342469 -0.0747632 26 102 204
-0.0197175 -0.290136 -0.0616385 26 102 204
0.214719 -0.0595384 0.0868665 26 102 204
0.0112856 -0.263369 0.0754175 26 102 204
0.179331 -0.0945504 0.0904614 26 102 204
0.213822 -0.0661067 0.0471612 26 102 204
0.238146 -0.0379864 0.0661325 26 102 204
0.255858 -0.0156091 -0.0284695 26 102 204
0.163987 -0.110648 0.0829082 26 102 204
0.195477 -0.0872415 0.10816 26 102 204
0.311507 0.0311736 -0.0639441 26 102 204
0.166188 -0.117873 -0.0231396 26 102 204
0.150531 -0.144661 -0.0313134 26 102 204
0.254444 -0.0290432 0.115242 26 102 204
0.100608 -0.183547 0.0501566 26 102 204
0.140661 -0.147202 0.111221 26 102 204
0.0400136 -0.244349 0.0327687 26 102 204
0.0659134 -0.225347 0.020402 26 102 204
0.341671 0.0546859 -0.0604506 26 102 204
0.320961 0.0312637 -0.0456987 26 102 204
-0.0537397 -0.346988 -0.0688711 26 102 204
0.131974 -0.158947 0.0144247 26 102 204
0.0984966 -0.1845 0.0510788 26 102 204
0.232048 -0.0592479 0.0572959 26 102 204
0.377872 0.0804635 -0.0663621 26 102 204
0.357388 0.0644827 -0.0625895 26 102 204
0.229011 -0.0681106 -0.00856717 26 102 204
0.210679 -0.0712027 0.0391028 26 102 204
0.143385 -0.173614 0.0928465 26 102 204
0.114064 -0.180002 0.0277651 26 102 204
0.345222 0.0488627 -0.0762593 26 102 204
0.221817 -0.0775188 0.0938398 26 102 204
0.247133 -0.0493375 -0.0163897 26 102 204
0.332805 0.0216842 -0.0598378 26 102 204
0.0844417 -0.230618 -0.0210214 26 102 204
0.0383219 -0.264479 -0.00476822 26 102 204
0.12254 -0.183027 0.0561827 26 102 204
-0.0645846 -0.373334 -0.075142 26 102 204
0.125027 -0.183606 0.0994496 26 102 204
0.232845 -0.0856168 0.0408596 26 102 204
-0.0119064 -0.325127 -0.0681267 26 102 204
0.153445 -0.174536 0.062574 26 102 204
0.0645705 -0.25936 -0.0116183 26 102 204
0.382872 0.0680752 -0.0740943 26 102 204
0.0406341 -0.276353 0.0595008 26 102 204
0.282959 -0.0312171 -0.0115117 26 102 204
0.141187 -0.17722 0.108337 26 102 204
0.0411623 -0.278841 0.0431148 26 102 204
0.0415878 -0.271193 0.0501878 26 102 204
0.122821 -0.198536 -0.0219863 26 102 204
0.237412 -0.0848938 -0.0316394 26 102 204
0.439752 0.117631 -0.0918751 26 102 204
0.162292 -0.167746 0.0140536 26 102 204
0.341515 0.0239793 -0.0575838 26 102 204
0.0357511 -0.291546 0.0358042 26 102 204
0.152284 -0.186646 0.0899793 26 102 204
0.328868 -0.00415731 -0.0581854 26 102 204
0.0550728 -0.282466 -0.0176044 26 102 204
0.292318 -0.0490582 0.0322651 26 102 204
0.204513 -0.136656 0.0604994 26 102 204
0.0369409 -0.303476 0.00458008 26 102 204
-0.0233018 -0.362248 -0.081999 26 102 204
0.263218 -0.0839978 0.109974 26 102 204
0.158263 -0.184489 0.0436352 26 102 204
0.328237 -0.034194 -0.0405188 26 102 204
0.233402 -0.115068 0.0145328 26 102 204
0.289378 -0.0671549 -0.0320578 26 102 204
0.318022 -0.0349882 -0.0282432 26 102 204
0.302712 -0.050877 0.0464551 26 102 204
0.270892 -0.0870262 0.0107938 26 102 204
0.147726 -0.20953 -0.00950949 26 102 204
0.0582674 -0.291957 -0.0202375 26 102 204
0.0379526 -0.33778 -0.0573883 26 102 204
0.0404824 -0.31584 -0.048309 26 102 204
0.0554518 -0.29761 0.0835863 26 102 204
0.185436 -0.165282 0.00521009 26 102 204
0.386192 0.0205575 -0.0786151 26 102 204
0.364888 0.00797114 -0.0775279 26 102 204
0.0521896 -0.300485 0.0173874 26 102 204
0.0575761 -0.304163 -0.0193808 26 102 204
0.25407 -0.112616 0.0947835 26 102 204
0.213625 -0.156768 0.0906413 26 102 204
0.233931 -0.135997 0.0725369 26 102 204
0.302277 -0.0600816 0.0608241 26 102 204
0.255438 -0.121504 0.024488 26 102 204
0.210286 -0.168693 0.030457 26 102 204
0.40424 0.0304087 -0.0813279 26 102 204
0.0143096 -0.36816 -0.0706733 26 102 204
0.206418 -0.178427 -0.00429194 26 102 204
0.0746504 -0.310038 0.0793903 26 102 204
0.255437 -0.146407 0.00296588 26 102 204
0.199141 -0.177147 -0.00505266 26 102 204
0.296377 -0.173256 0.032158 26 102 204
0.0606116 -0.324562 -0.0149252 26 102 204
0.152074 -0.234054 0.0581168 26 102 204
0.261804 -0.134069 -0.0230683 26 102 204
0.253072 -0.138397 0.0122902 26 102 204
0.141023 -0.24 0.015948 26 102 204
0.0879308 -0.305632 0.044287 26 102 204
0.120488 -0.270403 0.0900295 26 102 204
0.280427 -0.114439 0.0650586 26 102 204
0.225237 -0.175637 0.103886 26 102 204
0.380019 -0.0105393 -0.0825905 26 102 204
0.338603 -0.0511104 -0.0840416 26 102 204
0.126644 -0.279699 0.0205838 26 102 204
0.172596 -0.227311 0.00871372 26 102 204
0.139213 -0.267633 0.0917043 26 102 204
0.210215 -0.196541 0.0478707 26 102 204
-0.0248083 -0.433011 -0.0764311 26 102 204
0.266648 -0.152916 0.0495752 26 102 204
0.155116 -0.262124 0.103128 26 102 204
0.392534 -0.0267603 -0.0663131 26 102 204
0.137994 -0.29434 0.0958899 26 102 204
0.0871269 -0.333988 0.0672517 26 102 204
0.180379 -0.23638 -0.000463276 26 102 204
0.195658 -0.243718 -0.0154251 26 102 204
0.333811 -0.0953602 0.101677 26 102 204
0.100771 -0.32558 -0.024434 26 102 204
0.325848 -0.100973 -0.0573204 26 102 204
0.146298 -0.286128 0.0229627 26 102 204
0.366003 -0.0737348 0.0867834 26 102 204
0.3615 -0.0897745 -0.0126365 26 102 204
0.155064 -0.299224 -0.0184819 26 102 204
0.266175 -0.186119 0.100647 26 102 204
0.195189 -0.252991 0.0113545 26 102 204
0.164416 -0.281955 0.0367516 26 102 204
0.120617 -0.325948 0.0244431 26 102 204
0.290797 -0.151837 0.0135392 26 102 204
0.327263 -0.124949 -0.0360754 26 102 204
0.099045 -0.340545 0.0460211 26 102 204
0.141707 -0.309245 0.0349653 26 102 204
0.433898 -0.0320076 -0.0958203 26 102 204
0.223794 -0.232012 -0.0199417 26 102 204
0.282122 -0.175313 -0.0191471 26 102 204
0.35391 -0.10977 0.102229 26 102 204
0.103345 -0.355169 -0.0422077 26 102 204
0.141273 -0.316797 0.0797309 26 102 204
0.156914 -0.291163 0.0191613 26 102 204
0.313816 -0.142086 -0.00292289 26 102 204
0.0970697 -0.363617 -0.0607403 26 102 204
0.165018 -0.294805 -0.0193275 26 102 204
0.347247 -0.11351 0.0997935 26 102 204
0.386204 -0.0771867 -0.0657384 26 102 204
0.370872 -0.0997404 0.00551085 26 102 204
0.00773266 -0.447497 -0.0648555 26 102 204
0.0849205 -0.382473 -0.027738 26 102 204
0.351444 -0.115101 0.0771578 26 102 204
0.307578 -0.170591 -0.0216679 26 102 204
0.0996471 -0.369706 0.018981 26 102 204
0.152318 -0.324354 0.022144 26 102 204
0.288327 -0.199776 0.0944601 26 102 204
0.295448 -0.187027 -0.0399181 26 102 204
0.121615 -0.359167 0.0704885 26 102 204
0.216185 -0.271086 -0.023827 26 102 204
0.201763 -0.286703 0.0193439 26 102 204
0.151316 -0.334626 0.102161 26 102 204
0.0872442 -0.409184 -0.0682598 26 102 204
0.467663 -0.0215297 -0.0772733 26 102 204
0.197484 -0.292601 0.0935516 26 102 204
0.396762 -0.0873781 -0.0755267 26 102 204
0.0791897 -0.410734 -0.0913205 26 102 204
0.350509 -0.16027 0.0831196 26 102 204
0.257539 -0.248026 0.0657556 26 102 204
0.340038 -0.165454 0.10011 26 102 204
0.292963 -0.20392 -0.0109652 26 102 204
0.343876 -0.164291 0.102019 26 102 204
0.0500239 -0.473687 -0.0779688 26 102 204
0.419271 -0.09492 -0.082339 26 102 204
0.439346 -0.0806345 -0.0675998 26 102 204
0.0286534 -0.477393 -0.0589712 26 102 204
0.263122 -0.271882 0.0774441 26 102 204
0.346645 -0.177112 0.0470779 26 102 204
0.443506 -0.0718163 -0.0607488 26 102 204
0.314167 -0.205905 -0.0401873 26 102 204
0.35335 -0.18175 -0.0416573 26 102 204
0.284712 -0.239007 0.0280586 26 102 204
0.296006 -0.223894 0.0123388 26 102 204
0.381315 -0.138603 0.0577336 26 102 204
0.0905613 -0.430424 -0.0574664 26 102 204
0.47814 -0.0480767 -0.08745 26 102 204
0.0699909 -0.458309 -0.0176653 26 102 204
0.211405 -0.325407 -0.0282251 26 102 204
0.0495003 -0.483864 -0.0326512 26 102 204
0.256739 -0.274986 0.0931225 26 102 204
0.13356 -0.403677 -0.0146828 26 102 204
0.370065 -0.165347 0.0482653 26 102 204
0.41703 -0.11805 -0.0799536 26 102 204
0.0661039 -0.460364 -0.0636186 26 102 204
0.434986 -0.109083 -0.0889125 26 102 204
0.353514 -0.18137 0.0968597 26 102 204
0.226762 -0.314028 -0.0420124 26 102 204
0.301756 -0.25001 -0.0396772 26 102 204
0.40146 -0.142071 0.0313568 26 102 204
0.289957 -0.280996 0.00386816 26 102 204
0.225563 -0.31851 0.102636 26 102 204
0.330907 -0.219023 0.0670588 26 102 204
0.329682 -0.216567 0.0444765 26 102 204
0.130886 -0.408249 0.093903 26 102 204
0.15261 -0.394858 0.10491 26 102 204
0.135066 -0.414225 0.0915789 26 102 204
0.160626 -0.387931 0.0868866 26 102 204
0.131107 -0.414965 0.103559 26 102 204
0.332831 -0.211318 0.0979552 26 102 204
0.26841 -0.283852 0.090906 26 102 204
0.174628 -0.371411 0.0848762 26 102 204
0.142844 -0.40335 0.079038 26 102 204
0.2843 -0.264403 0.0760411 26 102 204
0.137405 -0.424862 0.0687947 26 102 204
0.394622 -0.159935 0.0665978 26 102 204
0.35124 -0.216727 0.0656386 26 102 204
0.270808 -0.287595 0.0591445 26 102 204
0.354873 -0.20617 0.058353 26 102 204
0.132026 -0.402815 0.0505079 26 102 204
0.149686 -0.394176 0.0419855 26 102 204
0.330517 -0.220241 0.0375616 26 102 204
0.116535 -0.44437 0.0366367 26 102 204
0.166504 -0.373302 0.0234958 26 102 204
0.4061 -0.141208 0.0216026 26 102 204
0.176293 -0.411441 0.0167889 26 102 204
0.237407 -0.315619 0.0107143 26 102 204
0.309975 -0.246344 0.00418323 26 102 204
0.259025 -0.296053 -0.0040231 26 102 204
0.149605 -0.406838 0.00414997 26 102 204
0.407668 -0.170884 -0.0125863 26 102 204
0.209097 -0.347208 -0.0095602 26 102 204
0.472909 -0.087489 -0.0133845 26 102 204
0.108139 -0.459751 -0.00903101 26 102 204
0.234997 -0.331833 -0.0168392 26 102 204
0.208247 -0.354965 -0.0265583 26 102 204
0.0844048 -0.479238 -0.0170402 26 102 204
0.413709 -0.148089 -0.0283247 26 102 204
0.246785 -0.314962 -0.036491 26 102 204
0.14302 -0.419733 -0.0406967 26 102 204
0.314959 -0.269387 -0.0455616 26 102 204
0.0953652 -0.474194 -0.050513 26 102 204
0.14126 -0.435882 -0.0561256 26 102 204
0.36966 -0.195868 -0.0652601 26 102 204
0.0733 -0.495117 -0.062701 26 102 204
0.0680848 -0.490765 -0.0720078 26 102 204
0.195867 -0.376122 -0.0790511 26 102 204
0.288243 -0.278912 -0.0768585 26 102 204
0.270385 -0.299798 -0.0777342 26 102 204
0.095614 -0.470505 -0.0853717 26 102 204
0.46518 -0.103244 0.0351272 26 102 204
0.0938936 -0.474255 -0.0930636 26 102 204
0.2318 -0.332809 0.0959846 26 102 204
0.433923 -0.140987 0.0322133 26 102 204
0.201062 -0.374179 -0.103673 26 102 204
0.0823492 -0.487491 -0.101232 26 102 204
0.261661 -0.310009 -0.111756 26 102 204
0.423177 -0.161767 0.0146929 26 102 204
0.1052 -0.471136 0.0155759 26 102 204
0.144153 -0.441192 -0.0977054 26 102 204
0.406518 -0.195778 0.0313245 26 102 204
0.0857395 -0.497641 -0.100472 26 102 204
0.227636 -0.367349 -0.101072 26 102 204
0.37695 -0.224342 -0.0802499 26 102 204
0.256432 -0.333878 -0.108317 26 102 204
0.107114 -0.481817 -0.063512 26 102 204
0.271977 -0.338441 0.00995651 26 102 204
0.362175 -0.246303 -0.0957544 26 102 204
0.274573 -0.323185 -0.099883 26 102 204
0.12687 -0.478769 -0.100017 26 102 204
0.248759 -0.37482 -0.0895995 26 102 204
0.173507 -0.437496 -0.10124 26 102 204
0.441695 -0.182428 0.0292189 26 102 204
0.286169 -0.340078 0.0460653 26 102 204
0.475571 -0.140452 0.0310345 26 102 204
0.399478 -0.215264 0.0212802 26 102 204
0.382542 -0.22765 0.0481574 26 102 204
0.386073 -0.232166 0.0316299 26 102 204
0.444997 -0.130314 0.0648033 26 102 204
0.342054 -0.276767 0.00115662 26 102 204
0.308001 -0.301258 -0.00923726 26 102 204
0.285505 -0.322529 -0.0158189 26 102 204
0.119533 -0.489318 -0.0293086 26 102 204
0.435327 -0.177523 -0.025854 26 102 204
0.193938 -0.416123 -0.0326308 26 102 204
0.197238 -0.425821 -0.0422219 26 102 204
0.376361 -0.238408 -0.0568419 26 102 204
0.108535 -0.510867 -0.0609856 26 102 204
0.345064 -0.288667 -0.0630949 26 102 204
0.11656 -0.495001 -0.0683333 26 102 204
0.371353 -0.256165 -0.0806835 26 102 204
0.307931 -0.311646 -0.0775526 26 102 204
0.370052 -0.265282 -0.0811594 26 102 204
0.307144 -0.309411 -0.095071 26 102 204
0.43762 -0.185602 -0.0822206 26 102 204
