ply
format ascii 1.0
comment Created by Open3D
element vertex 1024
property double x
property double y
property double z
property uchar red
property uchar green
property uchar blue
end_header
-0.254001 -0.0914548 -0.0650466 26 102 204
-0.0691347 -0.249309 -0.13936 26 102 204
-0.0564036 -0.244667 -0.209412 26 102 204
-0.155111 -0.155571 -0.202015 26 102 204
-0.0914764 -0.206464 -0.169063 26 102 204
-0.208166 -0.107816 -0.0586049 26 102 204
-0.0688587 -0.227259 -0.0172425 26 102 204
0.184597 -0.451183 -0.0180558 26 102 204
0.160229 -0.442895 0.0723725 26 102 204
0.155344 -0.425205 0.0483376 26 102 204
0.132325 -0.409566 -0.143985 26 102 204
0.134814 -0.405628 0.175811 26 102 204
0.119127 -0.400793 0.260383 26 102 204
0.128386 -0.402168 -0.0502163 26 102 204
0.138845 -0.411427 -0.0104122 26 102 204
0.110135 -0.382728 0.282048 26 102 204
0.111299 -0.385145 -0.183217 26 102 204
0.0555365 -0.329002 0.187462 26 102 204
0.082042 -0.366315 -0.097283 26 102 204
0.0848045 -0.359277 0.328223 26 102 204
0.093688 -0.370111 -0.0212217 26 102 204
0.0858545 -0.358242 0.324931 26 102 204
0.0794556 -0.360068 0.332107 26 102 204
0.0731605 -0.34945 0.362188 26 102 204
0.0756596 -0.352373 -0.100822 26 102 204
0.0624683 -0.341241 0.388854 26 102 204
0.0599797 -0.338508 -0.0796914 26 102 204
0.0586095 -0.330717 -0.295397 26 102 204
0.0480334 -0.318004 0.0251472 26 102 204
0.0429369 -0.319538 -0.326365 26 102 204
0.0389383 -0.315257 0.0709584 26 102 204
0.0368747 -0.310062 0.212956 26 102 204
0.043197 -0.316879 0.173497 26 102 204
0.0366735 -0.311297 0.190389 26 102 204
0.0254809 -0.304505 0.35713 26 102 204
0.0167145 -0.297627 -0.259036 26 102 204
0.010422 -0.285072 -0.235739 26 102 204
0.00757998 -0.288147 -0.300048 26 102 204
0.0105469 -0.291192 0.109667 26 102 204
0.00289685 -0.28082 -0.245678 26 102 204
-0.00351743 -0.272716 0.32692 26 102 204
-0.00404197 -0.270426 0.0480284 26 102 204
-0.00972469 -0.270168 -0.00686733 26 102 204
-0.0056221 -0.267678 -0.250625 26 102 204
-0.0149156 -0.260638 -0.434861 26 102 204
-0.0103625 -0.264952 0.204269 26 102 204
-0.0141606 -0.263916 0.0908894 26 102 204
-0.0186203 -0.254074 -0.385859 26 102 204
-0.0172425 -0.254066 -0.395159 26 102 204
-0.026605 -0.243555 -0.256599 26 102 204
-0.0296133 -0.247376 0.188745 26 102 204
-0.028813 -0.246565 -0.399061 26 102 204
-0.0333738 -0.242905 -0.393986 26 102 204
-0.0268531 -0.242972 -0.424459 26 102 204
-0.0284814 -0.24474 -0.385011 26 102 204
-0.0311115 -0.24164 0.0544644 26 102 204
-0.0293036 -0.243331 -0.0878582 26 102 204
-0.0215032 -0.257618 -0.253924 26 102 204
-0.0279575 -0.24269 -0.301227 26 102 204
-0.0392775 -0.231607 0.468366 26 102 204
-0.0465879 -0.227151 -0.0217652 26 102 204
-0.0461964 -0.226434 0.000734058 26 102 204
-0.0524599 -0.221382 -0.213868 26 102 204
-0.0475124 -0.220251 -0.170059 26 102 204
-0.0563079 -0.213129 -0.24479 26 102 204
-0.0518616 -0.215693 -0.109555 26 102 204
-0.0682769 -0.203562 0.120623 26 102 204
-0.0659782 -0.20042 0.424589 26 102 204
-0.0657564 -0.205693 -0.203214 26 102 204
-0.0652064 -0.203762 -0.0222852 26 102 204
-0.0753376 -0.191442 0.0631583 26 102 204
-0.0758491 -0.192881 0.0645064 26 102 204
-0.0810866 -0.194274 0.213259 26 102 204
-0.0839086 -0.190051 -0.359542 26 102 204
-0.0838311 -0.183111 0.270315 26 102 204
-0.0826093 -0.186117 0.43328 26 102 204
-0.0924845 -0.181806 -0.211184 26 102 204
-0.0877865 -0.177176 0.346397 26 102 204
-0.0936177 -0.176379 -0.0170578 26 102 204
-0.099632 -0.171875 -0.237109 26 102 204
-0.0952435 -0.174252 0.0383704 26 102 204
-0.0998865 -0.170879 0.336672 26 102 204
-0.104469 -0.16864 0.285773 26 102 204
-0.103861 -0.163633 0.235015 26 102 204
-0.110785 -0.161492 0.117827 26 102 204
-0.10964 -0.15903 0.159924 26 102 204
-0.116866 -0.154983 -0.339622 26 102 204
-0.117553 -0.154019 0.27169 26 102 204
-0.10542 -0.153061 0.38636 26 102 204
-0.117304 -0.157167 0.424969 26 102 204
-0.121868 -0.148461 0.0992524 26 102 204
-0.108075 -0.143678 0.167439 26 102 204
-0.122689 -0.148764 -0.222783 26 102 204
-0.113026 -0.147962 0.259403 26 102 204
-0.124093 -0.144269 0.139396 26 102 204
-0.117775 -0.138613 0.398963 26 102 204
-0.124566 -0.140141 0.132713 26 102 204
-0.122375 -0.139329 0.332234 26 102 204
-0.12098 -0.127381 0.0936488 26 102 204
-0.131099 -0.132715 -0.338134 26 102 204
-0.11259 -0.143795 0.0946948 26 102 204
-0.131465 -0.132406 -0.119163 26 102 204
-0.129406 -0.137194 0.0429489 26 102 204
-0.129893 -0.129315 -0.204156 26 102 204
-0.135889 -0.127417 -0.193089 26 102 204
-0.135891 -0.130345 -0.455632 26 102 204
-0.121656 -0.131963 0.353877 26 102 204
-0.1422 -0.12766 -0.0865704 26 102 204
-0.144567 -0.118838 -0.15813 26 102 204
-0.142536 -0.118678 0.391314 26 102 204
-0.143156 -0.124967 -0.434185 26 102 204
-0.152652 -0.116103 0.35972 26 102 204
-0.158678 -0.110462 -0.336658 26 102 204
-0.163201 -0.105559 0.281823 26 102 204
-0.167825 -0.105516 -0.286024 26 102 204
-0.161162 -0.105464 0.403113 26 102 204
-0.151794 -0.101155 0.163719 26 102 204
-0.167317 -0.102574 0.298918 26 102 204
-0.171639 -0.0989043 0.0145023 26 102 204
-0.168468 -0.0958418 -0.406426 26 102 204
-0.178414 -0.0888658 -0.0538801 26 102 204
-0.178845 -0.0915546 0.0822666 26 102 204
-0.183032 -0.0870228 -0.383576 26 102 204
-0.18251 -0.088726 0.0820888 26 102 204
-0.177453 -0.0758419 0.300537 26 102 204
-0.195374 -0.0722649 -0.391579 26 102 204
-0.197977 -0.0680625 -0.284644 26 102 204
-0.204681 -0.0655226 -0.0946112 26 102 204
-0.207124 -0.0650244 0.351442 26 102 204
-0.205385 -0.0645815 -0.364309 26 102 204
-0.205067 -0.0610809 -0.481592 26 102 204
-0.221214 -0.0484313 0.207458 26 102 204
-0.227325 -0.031696 -0.395066 26 102 204
-0.221196 -0.0509786 0.390811 26 102 204
-0.227874 -0.0405855 -0.347504 26 102 204
-0.216756 -0.0488427 -0.438133 26 102 204
-0.231025 -0.0376771 0.107182 26 102 204
-0.231467 -0.0360842 -0.0173834 26 102 204
-0.228963 -0.031327 0.279709 26 102 204
-0.239518 -0.0266473 -0.120334 26 102 204
-0.226602 -0.0341547 -0.361823 26 102 204
-0.228893 -0.0279047 -0.0571221 26 102 204
-0.229861 -0.034397 0.282086 26 102 204
-0.237335 -0.0227756 0.271748 26 102 204
-0.232032 -0.0259 -0.136498 26 102 204
-0.22707 -0.029441 0.361301 26 102 204
-0.223376 -0.0239947 -0.2466 26 102 204
-0.237811 -0.0244826 -0.13479 26 102 204
-0.221575 -0.0176588 0.435343 26 102 204
-0.24032 -0.0163586 -0.313641 26 102 204
-0.235994 -0.0269133 0.482775 26 102 204
-0.241062 -0.023635 0.173521 26 102 204
-0.222342 -0.0382888 0.408672 26 102 204
-0.241916 -0.0172664 0.282928 26 102 204
-0.233577 -0.0221926 -0.23583 26 102 204
-0.222844 -0.03351 0.179089 26 102 204
-0.183762 -0.0604799 -0.334878 26 102 204
-0.217076 -0.0368045 -0.318614 26 102 204
-0.229288 -0.0166069 0.195954 26 102 204
-0.202231 -0.0345045 -0.333764 26 102 204
0.0993408 -0.338983 -0.0886999 26 102 204
-0.136326 -0.0854555 0.183354 26 102 204
0.185553 -0.426719 0.142191 26 102 204
-0.195604 -0.0143893 0.436451 26 102 204
0.197655 -0.435531 -0.0390325 26 102 204
-0.143532 -0.0732512 -0.191482 26 102 204
0.13147 -0.369903 -0.121212 26 102 204
-0.14266 -0.0620969 -0.42081 26 102 204
0.126432 -0.353225 0.232469 26 102 204
-0.156341 -0.0569493 0.248665 26 102 204
-0.145212 -0.0540134 0.281278 26 102 204
-0.246243 0.0581035 0.104007 26 102 204
-0.138902 -0.0574803 -0.100966 26 102 204
0.122577 -0.34551 -0.0454862 26 102 204
0.141312 -0.351387 -0.325928 26 102 204
0.140928 -0.354855 -0.350928 26 102 204
0.157639 -0.369983 0.158954 26 102 204
0.180662 -0.384625 -0.048672 26 102 204
0.175294 -0.390951 -0.0515467 26 102 204
0.176993 -0.380249 0.230102 26 102 204
0.190514 -0.393442 0.0440354 26 102 204
0.168274 -0.372206 -0.197558 26 102 204
0.161162 -0.378689 0.0328352 26 102 204
0.172497 -0.367863 -0.318425 26 102 204
0.186774 -0.370905 0.293847 26 102 204
0.183452 -0.373259 -0.0615843 26 102 204
-0.166825 -0.00134346 0.0952196 26 102 204
-0.0990015 -0.0598414 0.484402 26 102 204
-0.245619 0.0900248 -0.10156 26 102 204
-0.247975 0.0932624 -0.297278 26 102 204
-0.240633 0.0798863 0.0719281 26 102 204
0.172135 -0.349632 -0.283466 26 102 204
-0.238459 0.0891952 0.277201 26 102 204
-0.247567 0.094232 0.217906 26 102 204
-0.257614 0.104239 -0.288253 26 102 204
-0.254862 0.103997 -0.225124 26 102 204
-0.249171 0.098473 -0.086788 26 102 204
0.21271 -0.392213 0.130231 26 102 204
-0.240736 0.0864748 -0.0780374 26 102 204
-0.263696 0.114226 -0.118973 26 102 204
0.114172 -0.27697 0.434418 26 102 204
-0.255912 0.0941523 -0.365282 26 102 204
-0.247396 0.103075 0.0822999 26 102 204
-0.237316 0.0842084 0.0157223 26 102 204
-0.246959 0.091393 -0.178322 26 102 204
-0.213263 0.0690596 -0.36096 26 102 204
-0.222127 0.0691428 -0.42948 26 102 204
-0.257102 0.0999909 -0.0629904 26 102 204
-0.196431 0.0448197 0.380877 26 102 204
-0.228406 0.0839135 -0.407943 26 102 204
-0.0420083 -0.115344 -0.501703 26 102 204
-0.193099 0.046147 0.376956 26 102 204
-0.249878 0.128036 -0.0812674 26 102 204
0.207591 -0.38344 0.00955589 26 102 204
0.242033 -0.410795 -0.0467784 26 102 204
0.196232 -0.375076 -0.101438 26 102 204
0.190615 -0.358877 0.228598 26 102 204
0.199311 -0.364253 0.24927 26 102 204
0.187064 -0.357944 -0.159498 26 102 204
0.172499 -0.347811 -0.0231055 26 102 204
0.174335 -0.346875 -0.0392281 26 102 204
0.175354 -0.343766 -0.306971 26 102 204
0.169351 -0.339676 0.131732 26 102 204
0.159574 -0.337361 -0.100995 26 102 204
0.158515 -0.335447 0.0934628 26 102 204
0.192479 -0.350419 0.268919 26 102 204
0.151163 -0.324949 -0.262516 26 102 204
0.139545 -0.315232 0.102857 26 102 204
0.154016 -0.325401 -0.103192 26 102 204
0.110768 -0.293849 0.119726 26 102 204
0.126231 -0.304735 0.15429 26 102 204
0.0930085 -0.274038 0.049543 26 102 204
0.104753 -0.286807 -0.182014 26 102 204
0.0848846 -0.265576 -0.264595 26 102 204
0.0723892 -0.254709 -0.13756 26 102 204
0.076268 -0.260296 0.19469 26 102 204
0.0742532 -0.25197 -0.281575 26 102 204
0.0829705 -0.25504 0.341012 26 102 204
0.0658787 -0.249712 -0.204048 26 102 204
0.0797001 -0.257946 -0.168655 26 102 204
0.0546421 -0.243727 0.345048 26 102 204
0.057365 -0.24036 0.297541 26 102 204
-0.0387527 -0.21134 -0.214763 26 102 204
0.0543107 -0.234578 -0.351462 26 102 204
0.0455764 -0.225448 0.23454 26 102 204
0.0412687 -0.218215 0.223009 26 102 204
0.036643 -0.214817 -0.388544 26 102 204
0.0366014 -0.218804 0.0446042 26 102 204
0.0298749 -0.203939 0.25327 26 102 204
0.00550984 -0.186725 -0.0383871 26 102 204
0.0197153 -0.191333 0.16261 26 102 204
0.00313289 -0.177905 -0.321653 26 102 204
-0.00567516 -0.165627 -0.3603 26 102 204
-0.0314289 -0.143531 -0.245299 26 102 204
-0.0189305 -0.153932 0.311871 26 102 204
-0.0395006 -0.133757 0.145561 26 102 204
-0.0328288 -0.141903 0.103359 26 102 204
-0.0306562 -0.141326 -0.297499 26 102 204
-0.0458633 -0.12089 -0.0413975 26 102 204
-0.0568968 -0.108255 0.10982 26 102 204
-0.0534303 -0.108836 -0.167882 26 102 204
-0.0732048 -0.092738 -0.44413 26 102 204
-0.0751145 -0.091431 -0.0184485 26 102 204
-0.0856371 -0.0756893 0.345558 26 102 204
-0.0887811 -0.0760537 0.16153 26 102 204
-0.0725007 -0.0808185 -0.0491682 26 102 204
-0.10577 -0.0576502 -0.232617 26 102 204
-0.113548 -0.0502581 0.209627 26 102 204
-0.116313 -0.0431866 -0.147574 26 102 204
-0.138663 -0.0274003 -0.0911112 26 102 204
-0.130002 -0.0272807 0.0952334 26 102 204
-0.133209 -0.0247239 0.39216 26 102 204
-0.143136 -0.013159 -0.248599 26 102 204
-0.140322 -0.0172358 -0.420076 26 102 204
-0.141252 -0.0175186 0.335032 26 102 204
-0.141892 -0.0140567 0.429158 26 102 204
-0.149433 -0.0016078 -0.267481 26 102 204
-0.154493 -0.00486724 0.2314 26 102 204
-0.155509 0.00772922 0.0185801 26 102 204
-0.150627 -0.00887424 -0.463715 26 102 204
-0.132939 -0.0236747 -0.127492 26 102 204
-0.157813 -0.00100975 0.132457 26 102 204
-0.165149 0.0113679 0.196923 26 102 204
-0.1636 0.00653829 -0.0491701 26 102 204
-0.182498 0.0419623 0.465162 26 102 204
-0.175993 0.0198948 -0.301562 26 102 204
-0.185397 0.032968 0.287719 26 102 204
-0.199649 0.0493672 -0.478386 26 102 204
-0.187457 0.0356875 0.0918388 26 102 204
-0.187024 0.0339554 -0.0179727 26 102 204
-0.18764 0.0361512 0.442804 26 102 204
-0.207614 0.0525889 0.145323 26 102 204
-0.223721 0.077407 0.1602 26 102 204
-0.126985 -0.0170123 -0.357784 26 102 204
-0.251853 0.110736 -0.284484 26 102 204
0.219965 -0.393156 -0.123846 26 102 204
0.159915 -0.321162 0.391042 26 102 204
-0.0228925 -0.131331 -0.505166 26 102 204
-0.38719 0.267483 0.0395221 26 102 204
0.16907 -0.337789 0.367549 26 102 204
0.218324 -0.383813 0.107449 26 102 204
0.200548 -0.358625 -0.201074 26 102 204
-0.0691212 -0.084306 0.50227 26 102 204
-0.233576 0.0983396 -0.468052 26 102 204
-0.20024 0.0595496 0.505729 26 102 204
-0.163538 0.030188 0.266809 26 102 204
-0.141676 0.00444952 0.0798711 26 102 204
-0.352266 0.230995 -0.215953 26 102 204
0.183641 -0.343917 -0.143795 26 102 204
-0.244526 0.123408 0.492301 26 102 204
-0.262959 0.143007 -0.453462 26 102 204
-0.125718 -0.00901166 -0.07065 26 102 204
-0.365867 0.253235 -0.0611292 26 102 204
-0.234725 0.144058 -0.413961 26 102 204
-0.277628 0.157182 -0.46873 26 102 204
-0.351936 0.246591 0.152251 26 102 204
0.184887 -0.346145 0.339723 26 102 204
-0.236916 0.126682 -0.482624 26 102 204
-0.278603 0.165534 -0.391485 26 102 204
-0.303399 0.188533 -0.289041 26 102 204
-0.256194 0.149698 0.0154938 26 102 204
-0.253412 0.145893 0.420504 26 102 204
-0.258701 0.146785 -0.0804804 26 102 204
-0.278059 0.172648 -0.117188 26 102 204
-0.228826 0.118796 0.0120193 26 102 204
-0.266011 0.150888 -0.491759 26 102 204
0.180989 -0.319044 -0.3723 26 102 204
0.11794 -0.238916 -0.502196 26 102 204
-0.278628 0.163876 0.443583 26 102 204
-0.361907 0.274164 0.0207355 26 102 204
0.237249 -0.370041 -0.0626733 26 102 204
-0.321118 0.242761 0.0776565 26 102 204
-0.277285 0.186442 0.164911 26 102 204
-0.261181 0.168633 -0.470184 26 102 204
-0.265527 0.1875 0.402471 26 102 204
-0.359779 0.276222 -0.0148811 26 102 204
-0.303251 0.207626 -0.0120243 26 102 204
0.17845 -0.306608 0.409767 26 102 204
-0.342632 0.25356 0.120316 26 102 204
-0.312223 0.221379 -0.0748326 26 102 204
-0.0217018 -0.197339 -0.250739 26 102 204
0.219938 -0.354464 0.0158384 26 102 204
0.22397 -0.350481 -0.165693 26 102 204
-0.259589 0.178813 -0.282452 26 102 204
0.0620112 -0.178904 0.507624 26 102 204
-0.0641089 -0.0340509 0.506721 26 102 204
0.235735 -0.358684 0.116784 26 102 204
-0.310815 0.232178 0.075049 26 102 204
-0.276185 0.17235 -0.0571806 26 102 204
-0.255432 0.174848 0.0501495 26 102 204
-0.29607 0.213472 -0.208465 26 102 204
-0.338142 0.262826 -0.0268126 26 102 204
-0.274029 0.205422 -0.0638056 26 102 204
-0.278112 0.216188 0.131601 26 102 204
-0.260207 0.19024 0.090278 26 102 204
0.217111 -0.334781 -0.278764 26 102 204
-0.329961 0.267145 0.0583383 26 102 204
0.0327716 -0.130115 -0.505097 26 102 204
-0.329252 0.284317 -0.014503 26 102 204
-0.125475 0.0454392 -0.501521 26 102 204
-0.246827 0.181889 -0.114596 26 102 204
-0.260038 0.185894 0.243755 26 102 204
-0.0102638 -0.0829599 -0.501528 26 102 204
-0.239842 0.179541 0.134877 26 102 204
-0.0463186 -0.0335088 0.504942 26 102 204
-0.120323 0.0559897 -0.167893 26 102 204
-0.0670546 -0.0153801 -0.505903 26 102 204
0.240186 -0.329169 0.0659363 26 102 204
0.180549 -0.275648 0.4207 26 102 204
0.242595 -0.352082 0.0914366 26 102 204
0.0940474 -0.177022 -0.498907 26 102 204
-0.110368 0.0431134 -0.0948009 26 102 204
-0.111279 0.0373038 -0.492347 26 102 204
-0.241987 0.184093 -0.274617 26 102 204
-0.262012 0.211938 -0.00435623 26 102 204
-0.240427 0.185101 -0.416856 26 102 204
-0.206675 0.140973 -0.489611 26 102 204
-0.185948 0.13805 0.494489 26 102 204
0.252101 -0.333973 0.0823359 26 102 204
-0.234324 0.183564 -0.268659 26 102 204
-0.318607 0.275982 -0.0211643 26 102 204
-0.230673 0.160055 -0.111468 26 102 204
0.174683 -0.25474 0.418953 26 102 204
0.264786 -0.34241 -0.0578336 26 102 204
-0.322794 0.293091 0.121062 26 102 204
-0.028475 -0.0287475 -0.0179635 26 102 204
-0.229793 0.18645 0.0290592 26 102 204
0.240627 -0.31323 0.222165 26 102 204
-0.206421 0.159701 -0.0956779 26 102 204
-0.207585 0.172289 -0.098615 26 102 204
-0.156757 0.12076 0.494153 26 102 204
-0.211076 0.178836 -0.419803 26 102 204
-0.198037 0.158505 0.493358 26 102 204
-0.231871 0.200438 0.0230079 26 102 204
0.0116152 -0.0684393 -0.507226 26 102 204
-0.220578 0.174042 -0.10066 26 102 204
0.00638957 -0.0523347 0.00146102 26 102 204
0.000131541 -0.0547133 -0.0313006 26 102 204
-0.00728621 -0.0387211 0.00592074 26 102 204
-0.00577651 -0.0468826 0.194329 26 102 204
-0.0134483 -0.0305798 0.00550157 26 102 204
-0.0106548 -0.0303635 -0.0212141 26 102 204
-0.0240293 -0.0210142 0.0570163 26 102 204
-0.0220192 -0.0206346 -0.131622 26 102 204
-0.0328873 -0.00854248 0.483742 26 102 204
-0.036957 -0.00490269 0.00190195 26 102 204
-0.0484648 0.00564561 -0.0827576 26 102 204
-0.186873 0.151118 0.344301 26 102 204
-0.0603064 0.0197179 -0.00212193 26 102 204
-0.0588037 0.0199909 0.400591 26 102 204
-0.0667559 0.0265094 0.253303 26 102 204
-0.0512886 -0.00155192 0.00714945 26 102 204
-0.0689007 0.0215117 -0.0724452 26 102 204
-0.0887366 0.0487659 0.0224259 26 102 204
-0.054655 -0.0915651 0.183628 26 102 204
-0.105408 0.0594843 -0.130659 26 102 204
-0.0915949 0.0488786 0.0584095 26 102 204
-0.109946 0.0728327 0.203227 26 102 204
-0.104856 0.0554622 0.0599897 26 102 204
-0.109439 0.0706483 -0.153447 26 102 204
-0.11504 0.0782478 -0.445389 26 102 204
-0.130244 0.0727629 -0.0563576 26 102 204
-0.117152 0.080163 0.0254297 26 102 204
-0.120167 0.0828012 0.270921 26 102 204
-0.127448 0.088748 -0.490225 26 102 204
-0.133705 0.100187 -0.126602 26 102 204
-0.131672 0.0932356 -0.146285 26 102 204
-0.136296 0.10044 -0.400051 26 102 204
-0.12779 0.0851002 -0.262282 26 102 204
-0.122211 0.0809575 0.0629219 26 102 204
-0.13271 0.0983525 -0.322801 26 102 204
-0.135891 0.100894 -0.453463 26 102 204
-0.136756 0.0975361 0.343137 26 102 204
-0.139325 0.103456 -0.188698 26 102 204
-0.138239 0.100914 0.337689 26 102 204
-0.143619 0.109354 0.177111 26 102 204
-0.128732 0.0919061 0.39895 26 102 204
-0.1407 0.102913 -0.219322 26 102 204
-0.148873 0.110217 0.400922 26 102 204
-0.086022 0.042545 -0.460089 26 102 204
-0.148181 0.108871 0.311462 26 102 204
-0.150829 0.113118 -0.305876 26 102 204
-0.154102 0.110052 0.356807 26 102 204
-0.152761 0.110762 0.336709 26 102 204
-0.173239 0.123162 -0.256023 26 102 204
-0.166451 0.130655 -0.357703 26 102 204
-0.175505 0.132323 0.448572 26 102 204
-0.172653 0.130884 0.0462039 26 102 204
-0.181518 0.141009 0.193091 26 102 204
-0.170612 0.129884 0.298777 26 102 204
-0.175692 0.135571 -0.169764 26 102 204
-0.195135 0.155966 -0.195119 26 102 204
-0.187842 0.145722 0.361984 26 102 204
-0.0764157 0.0231191 -0.502219 26 102 204
-0.183256 0.140578 -0.316368 26 102 204
-0.166276 0.117683 0.250634 26 102 204
-0.190744 0.136568 0.0259234 26 102 204
0.222249 -0.302679 -0.194237 26 102 204
-0.105038 0.035411 -0.0601178 26 102 204
-0.174289 0.129028 -0.486198 26 102 204
0.204169 -0.289019 0.0569114 26 102 204
0.155142 -0.218918 -0.224318 26 102 204
0.194055 -0.264315 0.00888368 26 102 204
0.111595 -0.175263 0.127838 26 102 204
0.186145 -0.260811 0.143339 26 102 204
0.149809 -0.22301 0.264678 26 102 204
0.153534 -0.223386 -0.335426 26 102 204
0.143849 -0.217425 -0.0596239 26 102 204
0.14305 -0.212787 0.206864 26 102 204
0.133473 -0.202933 0.279492 26 102 204
0.13393 -0.20291 -0.333888 26 102 204
0.136025 -0.200083 -0.249043 26 102 204
0.128953 -0.211354 0.288026 26 102 204
0.13119 -0.201422 -0.0581268 26 102 204
0.129117 -0.197995 -0.0195406 26 102 204
0.127514 -0.197434 0.21688 26 102 204
0.126783 -0.194835 -0.340002 26 102 204
0.117259 -0.185741 -0.303455 26 102 204
0.125469 -0.190787 -0.33112 26 102 204
0.117674 -0.18937 0.28033 26 102 204
0.124529 -0.204215 -0.268916 26 102 204
0.121221 -0.186483 0.227626 26 102 204
0.126075 -0.190687 -0.135262 26 102 204
0.110154 -0.183358 0.306289 26 102 204
0.170103 -0.238252 0.0641232 26 102 204
0.219138 -0.295051 -0.101326 26 102 204
0.217312 -0.287355 0.0733218 26 102 204
0.2052 -0.280456 0.00623441 26 102 204
0.206626 -0.266794 0.0700994 26 102 204
0.226498 -0.299314 0.1128 26 102 204
0.242653 -0.307889 0.269064 26 102 204
0.241996 -0.304487 0.208104 26 102 204
0.265419 -0.336657 0.226115 26 102 204
0.239638 -0.304048 0.0862897 26 102 204
0.223553 -0.277404 0.181186 26 102 204
0.274626 -0.329219 0.222775 26 102 204
0.228656 -0.294566 -0.0126194 26 102 204
0.2275 -0.295684 -0.0231558 26 102 204
0.228624 -0.295693 -0.162624 26 102 204
0.147258 -0.178908 0.307706 26 102 204
0.227965 -0.295542 -0.00130139 26 102 204
0.222762 -0.289888 -0.167625 26 102 204
0.224681 -0.286249 -0.331964 26 102 204
0.252556 -0.312391 -0.185495 26 102 204
0.236717 -0.292862 9.97796e-05 26 102 204
0.245569 -0.305146 -0.199956 26 102 204
0.222331 -0.281081 -0.287739 26 102 204
0.2365 -0.288225 0.181505 26 102 204
0.222408 -0.280624 -0.220501 26 102 204
0.202616 -0.253036 0.016898 26 102 204
0.237711 -0.276891 -0.052167 26 102 204
0.236899 -0.291779 -0.138976 26 102 204
0.227374 -0.292722 0.425706 26 102 204
0.250796 -0.317116 0.0047992 26 102 204
0.23969 -0.291151 0.156811 26 102 204
-0.0444515 0.00212565 0.503454 26 102 204
-0.131364 0.106314 -0.49366 26 102 204
-0.0495952 0.00982305 -0.504689 26 102 204
0.154143 -0.222236 -0.493809 26 102 204
-0.256979 0.250825 -0.22167 26 102 204
0.280658 -0.341684 0.016872 26 102 204
-0.223264 0.204735 -0.400164 26 102 204
-0.239861 0.229306 -0.151339 26 102 204
0.0118234 -0.0431843 0.50523 26 102 204
0.0498913 -0.0795962 -0.498904 26 102 204
0.0742688 -0.0938144 -0.470377 26 102 204
0.238096 -0.28133 0.311494 26 102 204
0.231516 -0.285013 -0.140811 26 102 204
0.212468 -0.255846 0.148657 26 102 204
0.181494 -0.217078 0.427762 26 102 204
0.178567 -0.201998 -0.361227 26 102 204
0.17465 -0.21495 0.0627893 26 102 204
0.184556 -0.22747 0.335595 26 102 204
0.16868 -0.209355 0.197565 26 102 204
0.165465 -0.212102 0.168586 26 102 204
0.170013 -0.2075 0.108801 26 102 204
0.173151 -0.212272 -0.135641 26 102 204
0.161131 -0.193595 0.332064 26 102 204
0.171512 -0.21638 0.196436 26 102 204
0.163215 -0.202416 0.411358 26 102 204
0.163288 -0.198422 0.0186088 26 102 204
0.150174 -0.174329 -0.324549 26 102 204
0.156546 -0.187497 -0.215954 26 102 204
0.147123 -0.180406 -0.362792 26 102 204
0.141916 -0.173942 0.0615085 26 102 204
0.148523 -0.175095 -0.00929725 26 102 204
0.146722 -0.180528 0.18898 26 102 204
0.149069 -0.180293 -0.0292214 26 102 204
0.142182 -0.171169 0.476825 26 102 204
0.138906 -0.172228 -0.236419 26 102 204
0.143653 -0.170804 0.177207 26 102 204
0.142899 -0.174266 -0.0667965 26 102 204
0.147292 -0.173075 -0.369834 26 102 204
0.141227 -0.163013 0.283118 26 102 204
0.142244 -0.160577 -0.125853 26 102 204
0.128747 -0.146669 0.169279 26 102 204
0.128739 -0.150385 -0.0170128 26 102 204
0.128514 -0.154885 -0.048893 26 102 204
0.127416 -0.155529 0.0958437 26 102 204
0.129 -0.155886 0.323835 26 102 204
0.12766 -0.15608 -0.0407079 26 102 204
0.117196 -0.143442 0.407734 26 102 204
0.122983 -0.152349 -0.0926915 26 102 204
0.130038 -0.156799 0.401254 26 102 204
0.128882 -0.134189 0.378163 26 102 204
0.115873 -0.135565 -0.195022 26 102 204
0.112538 -0.140018 -0.116663 26 102 204
0.109912 -0.132125 -0.280463 26 102 204
0.115002 -0.14074 -0.230699 26 102 204
0.107886 -0.134586 0.121745 26 102 204
0.104821 -0.129588 -0.233118 26 102 204
0.099905 -0.127361 -0.413425 26 102 204
0.108789 -0.128744 -0.486674 26 102 204
0.102087 -0.116422 0.0558331 26 102 204
0.0972359 -0.121132 -0.357021 26 102 204
0.0918884 -0.11404 -0.403209 26 102 204
0.0886385 -0.108433 -0.035443 26 102 204
0.087609 -0.103128 -0.0365686 26 102 204
0.0802462 -0.101156 0.485672 26 102 204
0.0785777 -0.100806 0.480083 26 102 204
0.0835308 -0.103124 -0.0810067 26 102 204
0.0755709 -0.0978187 0.428123 26 102 204
0.0767732 -0.101414 -0.184664 26 102 204
0.0729658 -0.0915418 -0.280738 26 102 204
0.0674015 -0.0901644 0.466309 26 102 204
0.071392 -0.0934849 0.0618451 26 102 204
0.0707397 -0.0841438 -0.296215 26 102 204
0.0662806 -0.0895052 -0.0219095 26 102 204
0.0619324 -0.0870399 -0.182398 26 102 204
0.0581573 -0.0829799 -0.0946853 26 102 204
0.0542841 -0.0742193 -0.195816 26 102 204
0.0550323 -0.0782703 -0.251255 26 102 204
0.053779 -0.074807 -0.128463 26 102 204
0.0460646 -0.0641923 -0.0441027 26 102 204
0.0474303 -0.0632017 -0.136742 26 102 204
0.0497037 -0.0446769 0.389036 26 102 204
0.0377089 -0.0516904 0.140379 26 102 204
0.0342044 -0.0478352 0.383486 26 102 204
0.0313619 -0.0352669 -0.258721 26 102 204
0.0254882 -0.0385405 0.241428 26 102 204
0.0232135 -0.0238903 0.49754 26 102 204
0.0229192 -0.0403382 -0.0671562 26 102 204
0.0163593 -0.033146 -0.00367936 26 102 204
0.0180801 -0.0303997 -0.155608 26 102 204
0.00754899 -0.0239721 0.0820839 26 102 204
0.00923046 -0.022684 0.410629 26 102 204
0.000799118 -0.0178552 -0.492521 26 102 204
-0.00206793 -0.0135276 -0.0791327 26 102 204
-0.00254125 -0.0107289 -0.223621 26 102 204
-0.00838501 -0.0087585 0.462058 26 102 204
-0.00250082 -0.00737559 0.39601 26 102 204
-0.0122413 -0.00283519 -0.105754 26 102 204
-0.0142739 1.28022e-06 -0.447417 26 102 204
-0.0162317 0.00347271 -0.274181 26 102 204
-0.0126932 0.0142591 -0.311349 26 102 204
-0.0252838 0.0120636 0.361328 26 102 204
-0.0255577 0.0223612 0.499773 26 102 204
-0.0349413 0.0213952 -0.397793 26 102 204
-0.0315169 0.0175992 -0.273918 26 102 204
-0.0340569 0.022166 0.419136 26 102 204
-0.0332901 0.0244206 -0.270144 26 102 204
-0.0427692 0.0313474 -0.406281 26 102 204
-0.0413197 0.0297166 -0.493803 26 102 204
-0.0464387 0.0325526 -0.121252 26 102 204
-0.030339 0.0221501 -0.0474793 26 102 204
-0.0537822 0.0423716 0.485963 26 102 204
-0.0497313 0.0442356 0.00315763 26 102 204
-0.0467716 0.0412038 0.212662 26 102 204
-0.0507985 0.0447796 -0.440321 26 102 204
-0.0479947 0.0390649 -0.0683626 26 102 204
-0.0459078 0.0420356 0.0829387 26 102 204
-0.0554607 0.045881 0.480962 26 102 204
-0.0582873 0.0521701 -0.136896 26 102 204
-0.056716 0.0550928 0.437727 26 102 204
-0.0660482 0.058663 -0.464614 26 102 204
-0.0665463 0.0622562 0.373852 26 102 204
-0.0781424 0.0840481 0.00182732 26 102 204
-0.0751972 0.075294 -0.0940798 26 102 204
-0.0793769 0.0855646 0.289528 26 102 204
-0.080632 0.0939794 0.493405 26 102 204
-0.0769679 0.0808982 -0.471882 26 102 204
-0.0920065 0.0982768 -0.0210439 26 102 204
-0.0881494 0.116834 -0.38673 26 102 204
-0.0909395 0.0956232 0.185454 26 102 204
-0.0955855 0.111302 -0.180137 26 102 204
-0.100643 0.111987 -0.0910162 26 102 204
-0.0993942 0.110775 0.462598 26 102 204
-0.108823 0.116919 0.460971 26 102 204
-0.108534 0.126169 0.232627 26 102 204
-0.112388 0.127105 0.319666 26 102 204
-0.112308 0.126136 -0.231311 26 102 204
-0.116072 0.139588 0.392195 26 102 204
-0.110075 0.133363 0.466633 26 102 204
-0.113306 0.141697 -0.424179 26 102 204
-0.121319 0.140305 -0.194797 26 102 204
-0.123021 0.145159 -0.268794 26 102 204
-0.135365 0.158253 -0.429469 26 102 204
-0.133831 0.16277 0.273213 26 102 204
-0.127915 0.149086 0.424292 26 102 204
-0.132206 0.167737 0.113186 26 102 204
-0.146111 0.173463 0.0229032 26 102 204
-0.137626 0.172434 -0.0038642 26 102 204
-0.146974 0.175916 -0.183801 26 102 204
-0.157891 0.202515 0.0492903 26 102 204
-0.142001 0.176933 -0.176999 26 102 204
-0.143565 0.178229 -0.0656931 26 102 204
-0.153588 0.184709 0.252767 26 102 204
-0.134675 0.171581 -0.124964 26 102 204
-0.140624 0.174808 -0.0273506 26 102 204
-0.147528 0.184515 0.155279 26 102 204
-0.144435 0.183042 -0.0995645 26 102 204
-0.11574 0.177551 0.0883912 26 102 204
-0.154061 0.197438 0.279464 26 102 204
-0.1688 0.220787 -0.247768 26 102 204
-0.146448 0.282913 0.104106 26 102 204
-0.188246 0.233932 -0.0361574 26 102 204
-0.20447 0.251908 -0.0795568 26 102 204
-0.193297 0.236299 0.0975233 26 102 204
-0.24833 0.320432 -0.0907805 26 102 204
-0.243258 0.303945 -0.0193355 26 102 204
-0.210126 0.244584 0.0734366 26 102 204
-0.222596 0.273119 0.054692 26 102 204
-0.212498 0.268531 0.325445 26 102 204
-0.220327 0.271219 -0.266778 26 102 204
-0.22885 0.28103 0.0428857 26 102 204
-0.210071 0.254555 0.206884 26 102 204
-0.22237 0.266875 -0.036005 26 102 204
-0.259551 0.297297 -0.0378266 26 102 204
-0.294439 0.34433 -0.0628579 26 102 204
-0.24405 0.285536 0.0336806 26 102 204
-0.094602 0.158288 0.50279 26 102 204
-0.185287 0.237096 0.105994 26 102 204
-0.196949 0.259607 -0.468388 26 102 204
-0.24064 0.290503 0.242894 26 102 204
-0.22796 0.30756 -0.141432 26 102 204
-0.242596 0.302459 0.14808 26 102 204
0.0894733 -0.0561726 -0.51125 26 102 204
-0.261051 0.312031 0.0658199 26 102 204
0.294044 -0.279546 0.0727523 26 102 204
-0.119393 0.174158 0.514181 26 102 204
-0.217979 0.273554 -0.113594 26 102 204
-0.269813 0.320385 -0.0679812 26 102 204
0.0525002 0.0323206 0.506329 26 102 204
-0.249545 0.340815 0.0873513 26 102 204
0.0956403 -0.0672184 0.506265 26 102 204
-0.22849 0.304877 -0.290955 26 102 204
-0.198871 0.264254 -0.27256 26 102 204
-0.252333 0.309491 0.29244 26 102 204
0.03052 0.0227326 0.48692 26 102 204
-0.241111 0.319659 0.170395 26 102 204
0.19837 -0.151294 0.47821 26 102 204
0.322248 -0.281975 -0.00166156 26 102 204
-0.222207 0.304078 0.210293 26 102 204
-0.0825185 0.163089 0.501662 26 102 204
-0.253367 0.338764 0.100085 26 102 204
0.301067 -0.249512 -0.204248 26 102 204
-0.0486624 0.118473 -0.506554 26 102 204
-0.192786 0.284007 -0.43481 26 102 204
-0.0280128 0.115776 0.506159 26 102 204
0.276407 -0.227068 0.351376 26 102 204
-0.17375 0.259441 -0.442556 26 102 204
-0.16164 0.246512 0.479017 26 102 204
-0.241555 0.365705 0.132069 26 102 204
0.309816 -0.246188 0.120492 26 102 204
0.192905 -0.139644 0.498033 26 102 204
0.288482 -0.21685 0.346877 26 102 204
-0.210122 0.313682 0.34917 26 102 204
0.303751 -0.226375 0.353546 26 102 204
0.316646 -0.244759 0.263385 26 102 204
-0.181204 0.287199 0.394463 26 102 204
0.259019 -0.202492 0.460524 26 102 204
-0.0862238 0.186059 -0.504488 26 102 204
-0.208963 0.324377 -0.302417 26 102 204
0.124813 -0.0352123 -0.505764 26 102 204
-0.11177 0.225427 -0.504282 26 102 204
0.301322 -0.217841 0.325834 26 102 204
-0.202027 0.322777 -0.244799 26 102 204
-0.223387 0.365631 0.108322 26 102 204
-0.0924485 0.229044 0.490182 26 102 204
0.0238116 0.113134 0.507447 26 102 204
0.330973 -0.215854 -0.269435 26 102 204
-0.102389 0.249086 -0.494233 26 102 204
0.352247 -0.241217 0.00849285 26 102 204
0.0363225 0.0964761 -0.468319 26 102 204
0.310628 -0.20193 -0.358782 26 102 204
0.350601 -0.226956 0.252877 26 102 204
-0.00920466 0.257621 -0.513104 26 102 204
-0.137785 0.299135 0.453557 26 102 204
0.339323 -0.23528 -0.00882151 26 102 204
0.332042 -0.213851 -0.193177 26 102 204
0.348938 -0.228177 0.187388 26 102 204
-0.20956 0.388033 0.188605 26 102 204
0.339724 -0.215751 0.329893 26 102 204
0.27578 -0.144447 0.461057 26 102 204
0.31782 -0.179898 -0.344346 26 102 204
-0.209458 0.379863 -0.0101201 26 102 204
0.133656 0.0180629 0.509347 26 102 204
-0.0878813 0.246083 0.489795 26 102 204
-0.221971 0.404441 0.143319 26 102 204
-0.070796 0.252515 -0.477833 26 102 204
-0.00940687 0.173108 -0.505738 26 102 204
-0.218981 0.39917 0.0614181 26 102 204
0.327635 -0.176102 0.349224 26 102 204
0.327838 -0.195623 -0.322214 26 102 204
0.310677 -0.184754 -0.473817 26 102 204
-0.106886 0.285697 -0.478632 26 102 204
0.345389 -0.197875 0.212155 26 102 204
0.0986318 0.0701534 0.504707 26 102 204
-0.174687 0.363342 -0.211536 26 102 204
0.349199 -0.205211 -0.143224 26 102 204
0.0456934 0.130048 0.509063 26 102 204
0.236515 -0.0880597 -0.49593 26 102 204
0.148691 0.0138748 -0.507298 26 102 204
-0.196117 0.393257 0.209398 26 102 204
0.254238 -0.0928081 0.500105 26 102 204
0.317318 -0.163986 -0.421256 26 102 204
-0.207286 0.397639 -0.145781 26 102 204
0.290886 -0.119492 0.45129 26 102 204
-0.162789 0.356247 0.307604 26 102 204
-0.185705 0.388432 -0.122051 26 102 204
0.330889 -0.182539 0.42368 26 102 204
-0.186207 0.383312 0.0196533 26 102 204
0.00335012 0.184448 0.506297 26 102 204
0.0327624 0.164276 0.50425 26 102 204
0.204272 -0.0255053 0.495446 26 102 204
-0.193352 0.400257 -0.00911194 26 102 204
-0.00979912 0.218838 -0.50492 26 102 204
-0.188043 0.410987 -0.0230305 26 102 204
-0.092656 0.299756 0.455729 26 102 204
0.319444 -0.138323 -0.396832 26 102 204
0.231464 -0.0429702 -0.501481 26 102 204
0.275299 -0.089905 0.480821 26 102 204
-0.173318 0.404257 -0.0203669 26 102 204
-0.154872 0.394408 -0.230957 26 102 204
-0.0680558 0.290982 -0.457358 26 102 204
0.335786 -0.130641 0.401692 26 102 204
0.20825 -0.00493547 0.510777 26 102 204
0.0362641 0.181577 -0.511503 26 102 204
0.338897 -0.127583 -0.384728 26 102 204
-0.162331 0.420716 0.0425909 26 102 204
-0.152797 0.410869 -0.112139 26 102 204
-0.0377645 0.281186 0.483539 26 102 204
-0.153692 0.419115 -0.00871608 26 102 204
-0.158833 0.413844 0.0496221 26 102 204
0.0148209 0.224804 -0.182504 26 102 204
0.379019 -0.157859 0.242059 26 102 204
-0.120971 0.389946 0.122396 26 102 204
0.0972333 0.152234 -0.51089 26 102 204
0.338759 -0.102038 -0.420902 26 102 204
-0.0358238 0.294341 -0.435447 26 102 204
-0.124471 0.397778 -0.157252 26 102 204
0.214539 0.0326122 0.510637 26 102 204
0.268367 -0.0245874 0.507538 26 102 204
0.103946 0.152826 0.508153 26 102 204
-0.152036 0.430602 0.0866023 26 102 204
-0.0761208 0.340113 -0.0876453 26 102 204
0.233185 0.0135421 -0.511892 26 102 204
-0.03209 0.305196 -0.107819 26 102 204
0.027519 0.244974 0.491962 26 102 204
0.0558162 0.207674 0.120845 26 102 204
-0.0912131 0.365045 -0.335371 26 102 204
-0.0648102 0.334445 0.148799 26 102 204
-0.0795878 0.370606 -0.241119 26 102 204
-0.132263 0.411926 -0.0782756 26 102 204
-0.0879296 0.372571 0.357235 26 102 204
-0.0463029 0.337156 0.0995201 26 102 204
-0.0677359 0.370871 0.451073 26 102 204
-0.0747888 0.36551 0.166235 26 102 204
0.172024 0.0961423 0.508387 26 102 204
-0.0923161 0.367312 0.207855 26 102 204
-0.0477949 0.380025 0.0380682 26 102 204
0.336116 -0.0800092 -0.425013 26 102 204
-0.0890664 0.390381 0.203958 26 102 204
-0.0719046 0.349304 0.0928995 26 102 204
-0.0203508 0.304424 0.499407 26 102 204
0.0272158 0.258543 -0.189577 26 102 204
-0.0750907 0.357545 -0.0778571 26 102 204
0.381237 -0.130348 -0.186321 26 102 204
-0.0273933 0.317876 0.11285 26 102 204
-0.102062 0.396314 -0.0799478 26 102 204
-0.0893443 0.360273 -0.0849347 26 102 204
0.382391 -0.132237 0.163747 26 102 204
0.0537817 0.202692 0.0358797 26 102 204
0.00915273 0.282852 0.106457 26 102 204
0.376725 -0.126092 -0.253716 26 102 204
0.0374182 0.243969 0.168714 26 102 204
-0.0417456 0.336059 0.23705 26 102 204
-0.112068 0.400441 -0.0464288 26 102 204
0.025865 0.255842 -0.485896 26 102 204
0.383989 -0.125827 -0.115119 26 102 204
0.101061 0.174231 -0.51736 26 102 204
0.22965 0.0693225 -0.50072 26 102 204
0.0230524 0.264769 0.434392 26 102 204
0.384677 -0.123081 -0.00470833 26 102 204
-0.0750981 0.39178 -0.0404408 26 102 204
0.0712772 0.210745 0.0241876 26 102 204
0.0113712 0.282429 -0.43977 26 102 204
-0.0674857 0.367259 -0.117466 26 102 204
0.0486229 0.25284 0.15168 26 102 204
0.308326 -0.0325334 -0.460342 26 102 204
-0.0233556 0.33005 0.453513 26 102 204
-0.0484422 0.358386 -0.112801 26 102 204
-0.0321771 0.342629 -0.313535 26 102 204
0.0304149 0.282177 -0.0926164 26 102 204
0.0135178 0.287685 -0.258736 26 102 204
0.0145743 0.290591 0.45139 26 102 204
0.365505 -0.0858636 0.22488 26 102 204
0.0136844 0.295536 -0.376675 26 102 204
-0.0349879 0.349903 0.280351 26 102 204
0.00903784 0.297251 0.239398 26 102 204
-0.00029888 0.307728 0.167478 26 102 204
0.0305209 0.265478 -0.19172 26 102 204
0.0417573 0.247077 0.494093 26 102 204
-0.0457281 0.378073 0.215256 26 102 204
0.0577408 0.248877 0.244147 26 102 204
-0.026652 0.349572 0.30734 26 102 204
-0.0359625 0.354722 -0.0902077 26 102 204
-0.0292072 0.32526 -0.273901 26 102 204
0.0141499 0.305488 0.00493262 26 102 204
0.0360956 0.275135 -0.000539755 26 102 204
0.0619084 0.251116 0.129978 26 102 204
0.0020654 0.308827 -0.267268 26 102 204
-0.0675555 0.390287 0.12845 26 102 204
0.0143299 0.300749 -0.340342 26 102 204
0.0655845 0.251734 0.214357 26 102 204
0.0659839 0.239569 -0.064906 26 102 204
0.0354348 0.286007 0.14343 26 102 204
0.0553732 0.263003 -0.0669537 26 102 204
0.0376269 0.281802 -0.166871 26 102 204
-0.0628252 0.388009 0.0572115 26 102 204
0.0425276 0.271375 0.00994517 26 102 204
0.30377 -0.011419 -0.434748 26 102 204
0.0782105 0.240777 0.119695 26 102 204
0.298664 -0.00292368 0.4833 26 102 204
0.074016 0.2416 -0.478392 26 102 204
0.387408 -0.0973709 0.226954 26 102 204
0.376647 -0.0824528 0.396043 26 102 204
0.0744081 0.241842 0.106034 26 102 204
-0.0562841 0.392602 -0.102479 26 102 204
0.0705904 0.257216 -0.0264439 26 102 204
0.0565088 0.270789 0.00356399 26 102 204
-0.0595514 0.389451 -0.00587875 26 102 204
-0.0241311 0.356137 -0.201804 26 102 204
0.0888235 0.235239 -0.142635 26 102 204
0.12867 0.197994 -0.444389 26 102 204
0.09553 0.245593 0.34759 26 102 204
0.0231909 0.309919 0.351303 26 102 204
0.263595 0.0560545 0.467911 26 102 204
0.294523 0.0227012 0.48053 26 102 204
0.0847795 0.244061 -0.0506051 26 102 204
0.218347 0.0883986 0.431812 26 102 204
0.0869992 0.245861 -0.264634 26 102 204
-0.0719207 0.399377 0.0309536 26 102 204
0.0966263 0.24229 0.110755 26 102 204
0.220951 0.0994718 0.502563 26 102 204
0.0238432 0.322273 -0.355181 26 102 204
-0.00996007 0.342587 0.0410265 26 102 204
0.119875 0.215452 0.078002 26 102 204
0.123294 0.217173 -0.181323 26 102 204
0.265911 0.0598374 -0.513118 26 102 204
0.0859133 0.255149 0.489017 26 102 204
0.00860702 0.349211 0.166831 26 102 204
0.110773 0.198734 -0.395992 26 102 204
0.147644 0.186498 -0.484252 26 102 204
0.126933 0.221756 0.410901 26 102 204
0.0773676 0.26113 -0.260235 26 102 204
0.0457297 0.295917 -0.444461 26 102 204
0.0104562 0.341597 -0.0476473 26 102 204
0.0830691 0.263512 0.246123 26 102 204
0.0609354 0.278099 -0.353504 26 102 204
0.00133684 0.361247 -0.0540618 26 102 204
0.00508422 0.351019 0.0608283 26 102 204
-0.00795727 0.369555 0.0264725 26 102 204
0.0852939 0.254803 0.337279 26 102 204
0.0950518 0.242781 0.00667297 26 102 204
0.113888 0.226103 0.110128 26 102 204
0.234959 0.108529 0.499168 26 102 204
0.384031 -0.0677265 -0.38207 26 102 204
0.176838 0.148145 -0.409347 26 102 204
0.113096 0.229723 0.317003 26 102 204
0.079724 0.273093 0.417869 26 102 204
0.0161909 0.345211 -0.247068 26 102 204
0.163022 0.177564 0.413696 26 102 204
0.0685094 0.284476 0.274235 26 102 204
0.00825724 0.355659 -0.0239432 26 102 204
0.164828 0.168913 -0.505006 26 102 204
0.360294 -0.0394384 0.454442 26 102 204
0.359199 -0.0368069 0.393721 26 102 204
0.110428 0.231218 -0.470377 26 102 204
0.209468 0.122959 -0.491292 26 102 204
0.113002 0.227818 0.0445553 26 102 204
0.0915993 0.261697 0.212587 26 102 204
0.172146 0.167644 -0.472345 26 102 204
0.376442 -0.0609764 0.447804 26 102 204
0.376255 -0.0464808 0.390057 26 102 204
0.105242 0.248424 0.178841 26 102 204
0.115204 0.233824 0.358407 26 102 204
0.349143 -0.012757 0.465993 26 102 204
0.147039 0.205626 0.388961 26 102 204
0.0584189 0.303653 0.200312 26 102 204
0.0740059 0.292093 0.0312235 26 102 204
0.136112 0.217624 0.0726716 26 102 204
0.027784 0.347833 -0.007826 26 102 204
0.159481 0.190834 -0.390071 26 102 204
0.381923 -0.043331 -0.392677 26 102 204
0.171468 0.183668 0.348375 26 102 204
0.110662 0.253046 -0.410879 26 102 204
0.169278 0.195381 0.342049 26 102 204
0.122463 0.233449 -0.328064 26 102 204
0.275465 0.046038 -0.430083 26 102 204
0.342465 -0.000474599 -0.442071 26 102 204
0.134524 0.226899 -0.0798133 26 102 204
0.150283 0.213208 0.194232 26 102 204
0.131032 0.235 -0.16763 26 102 204
0.150399 0.225782 -0.408772 26 102 204
0.0490235 0.312779 0.06308 26 102 204
0.0853361 0.279071 0.112825 26 102 204
0.111691 0.241125 0.372341 26 102 204
0.106968 0.259431 -0.356253 26 102 204
0.390433 -0.0537441 -0.322634 26 102 204
0.342274 -0.00128416 0.441286 26 102 204
0.204251 0.155518 -0.457287 26 102 204
0.113387 0.254292 -0.0297289 26 102 204
0.0875818 0.288125 0.100097 26 102 204
0.315575 0.0307445 -0.426372 26 102 204
0.378912 -0.0503524 -0.301412 26 102 204
0.1271 0.221228 0.0387518 26 102 204
0.226691 0.128933 0.388079 26 102 204
0.333064 0.0193407 -0.445098 26 102 204
0.350336 -0.00808435 0.406163 26 102 204
0.138067 0.233125 -0.0858724 26 102 204
0.338492 0.0220776 0.428651 26 102 204
0.229206 0.13222 -0.420116 26 102 204
0.428617 -0.0874636 0.368421 26 102 204
0.123509 0.244155 0.272647 26 102 204
0.0566241 0.321327 0.0134507 26 102 204
0.174644 0.193988 0.35637 26 102 204
0.372301 -0.0273039 -0.403543 26 102 204
0.224594 0.13273 -0.403401 26 102 204
0.179721 0.179375 -0.316213 26 102 204
0.210195 0.152876 -0.392605 26 102 204
0.18883 0.18023 0.363293 26 102 204
0.390825 -0.0389614 0.371818 26 102 204
0.160798 0.206967 -0.0920421 26 102 204
0.158754 0.215138 0.210224 26 102 204
0.197058 0.175493 0.312499 26 102 204
0.374305 -0.0229221 0.365077 26 102 204
0.176955 0.19549 -0.314975 26 102 204
0.375307 -0.0278078 0.404618 26 102 204
0.221185 0.156388 0.36007 26 102 204
0.158487 0.210786 -0.194119 26 102 204
0.129104 0.260737 -0.0789719 26 102 204
0.181254 0.188677 0.207667 26 102 204
0.118254 0.260018 -0.0292062 26 102 204
0.160763 0.218264 0.127114 26 102 204
0.155019 0.220413 0.240475 26 102 204
0.352384 0.0148001 0.388645 26 102 204
0.396612 -0.0435913 -0.376702 26 102 204
0.407431 -0.0559716 0.369776 26 102 204
0.4048 -0.0457513 -0.356757 26 102 204
0.407416 -0.0453314 -0.342145 26 102 204
0.427685 -0.0687535 0.337606 26 102 204
0.394818 -0.0331751 0.337349 26 102 204
0.417295 -0.046719 0.294812 26 102 204
