ply
format ascii 1.0
comment Created by Open3D
element vertex 1024
property double x
property double y
property double z
property uchar red
property uchar green
property uchar blue
end_header
0.160863 0.447306 0.117274 26 102 204
0.161817 0.463811 0.0047694 26 102 204
0.160094 0.453198 -0.200756 26 102 204
0.155903 0.451712 -0.157181 26 102 204
0.153048 0.445441 0.00122696 26 102 204
0.143471 0.466672 -0.109186 26 102 204
0.148036 0.454408 -0.0255723 26 102 204
0.154003 0.435493 0.188183 26 102 204
0.148998 0.43092 0.0878131 26 102 204
0.15454 0.439672 0.0384062 26 102 204
0.307432 -0.311601 0.153149 26 102 204
0.307924 -0.308794 0.0156477 26 102 204
0.311609 -0.309445 0.0367208 26 102 204
0.302048 -0.310773 -0.0422064 26 102 204
0.305345 -0.297982 0.0520436 26 102 204
0.127727 0.461525 -0.163368 26 102 204
0.109819 0.47974 -0.139893 26 102 204
0.147342 0.450688 0.0429893 26 102 204
0.137895 0.445785 -0.202957 26 102 204
0.121734 0.478359 -0.201103 26 102 204
0.298546 -0.299379 0.0345878 26 102 204
0.288836 -0.321312 -0.0468031 26 102 204
0.136192 0.448342 -0.0753776 26 102 204
0.296481 -0.329165 -0.0584488 26 102 204
0.301037 -0.339555 0.07111 26 102 204
0.131713 0.440121 -0.207316 26 102 204
0.133285 0.453744 0.0912683 26 102 204
0.133716 0.437093 -0.180801 26 102 204
0.128677 0.451536 -0.0159286 26 102 204
0.129061 0.443085 0.172523 26 102 204
0.13066 0.44128 -0.108873 26 102 204
0.131444 0.432348 -0.0826113 26 102 204
0.135154 0.44146 -0.0102707 26 102 204
0.131936 0.438358 0.103533 26 102 204
0.134711 0.432759 0.174973 26 102 204
0.142028 0.422598 0.00916161 26 102 204
0.185476 0.270318 -0.037365 26 102 204
0.140689 0.414374 0.16137 26 102 204
0.146433 0.413553 0.00201068 26 102 204
0.141347 0.408826 -0.183592 26 102 204
0.143302 0.411393 -0.0718183 26 102 204
0.142668 0.405644 -0.160908 26 102 204
0.141842 0.402183 -0.156609 26 102 204
0.141653 0.403791 -0.134427 26 102 204
0.144418 0.400436 -0.0284034 26 102 204
0.146647 0.398029 -0.0573482 26 102 204
0.14392 0.399258 0.203889 26 102 204
0.144308 0.400004 -0.161831 26 102 204
0.128573 0.406035 -0.207135 26 102 204
0.146608 0.39207 -0.0939581 26 102 204
0.144892 0.384702 -0.0605573 26 102 204
0.148184 0.367789 0.0369116 26 102 204
0.14491 0.372086 -0.0874882 26 102 204
0.14449 0.379384 -0.0874638 26 102 204
0.150524 0.359692 0.222933 26 102 204
0.155827 0.354569 0.0426692 26 102 204
0.156345 0.352569 0.11144 26 102 204
0.15922 0.351577 0.0191467 26 102 204
0.154971 0.340888 -0.0669908 26 102 204
0.162871 0.342305 -0.0689531 26 102 204
0.161148 0.343432 0.0990522 26 102 204
0.163532 0.344705 -0.207025 26 102 204
0.162626 0.332612 -0.165292 26 102 204
0.163969 0.325002 0.172519 26 102 204
0.16375 0.317544 0.124731 26 102 204
0.163372 0.309328 -0.178767 26 102 204
0.169839 0.306301 -0.09146 26 102 204
0.16325 0.297762 0.000951383 26 102 204
0.165822 0.303037 0.101691 26 102 204
0.167911 0.308151 0.194759 26 102 204
0.168019 0.300288 0.113365 26 102 204
0.166396 0.306493 0.000209444 26 102 204
0.166894 0.294706 0.109939 26 102 204
0.170119 0.292868 0.19971 26 102 204
0.157187 0.290697 0.0668723 26 102 204
0.169644 0.286443 0.142402 26 102 204
0.170602 0.296075 -0.125759 26 102 204
0.168734 0.280758 0.162163 26 102 204
0.173578 0.282931 0.143614 26 102 204
0.172397 0.273159 0.0912303 26 102 204
0.175076 0.275661 -0.187689 26 102 204
0.177208 0.267694 0.164807 26 102 204
0.163274 0.266731 0.102627 26 102 204
0.178601 0.259928 0.214355 26 102 204
0.17417 0.281282 0.184495 26 102 204
0.176714 0.271545 0.0634231 26 102 204
0.180854 0.253273 0.218621 26 102 204
0.180943 0.251104 0.194853 26 102 204
0.179953 0.247462 -0.0882324 26 102 204
0.180397 0.24681 0.180416 26 102 204
0.184741 0.223333 -0.1832 26 102 204
0.189713 0.222995 -0.0231968 26 102 204
0.192129 0.219428 0.0363978 26 102 204
0.187678 0.230523 0.0333437 26 102 204
0.193209 0.199831 0.124764 26 102 204
0.193264 0.197076 0.0982204 26 102 204
0.193766 0.18743 0.0689865 26 102 204
0.196813 0.178685 0.226167 26 102 204
0.196722 0.187541 -0.181881 26 102 204
0.200361 0.181472 0.0969296 26 102 204
0.200651 0.166695 0.115531 26 102 204
0.20026 0.191645 -0.0590889 26 102 204
0.205209 0.159772 0.189709 26 102 204
0.202871 0.153815 -0.0508422 26 102 204
0.202342 0.153778 0.0328043 26 102 204
0.200601 0.13862 -0.134557 26 102 204
0.207398 0.149463 -0.0963567 26 102 204
0.206454 0.15101 0.0780677 26 102 204
0.211444 0.139565 0.174607 26 102 204
0.211362 0.127433 0.0412815 26 102 204
0.208371 0.123278 0.0578946 26 102 204
0.212855 0.108403 0.147973 26 102 204
0.208862 0.11072 -0.173224 26 102 204
0.208038 0.0984202 -0.161272 26 102 204
0.220413 0.109402 0.124778 26 102 204
0.213142 0.0934012 -0.0612924 26 102 204
0.217061 0.0821972 -0.185633 26 102 204
0.217968 0.0836507 -0.0143984 26 102 204
0.219828 0.0794224 0.179278 26 102 204
0.214195 0.0727945 -0.0538876 26 102 204
0.224066 0.0663871 -0.163338 26 102 204
0.215623 0.0630046 -0.143502 26 102 204
0.21541 0.0620032 0.0455308 26 102 204
0.223731 0.0474788 -0.0552237 26 102 204
0.227203 0.0688954 0.0818191 26 102 204
0.23168 0.0394846 0.174881 26 102 204
0.252175 -0.114735 -0.143839 26 102 204
0.223108 0.0134762 -0.184917 26 102 204
0.238628 0.0175661 0.136423 26 102 204
0.237715 -0.00133262 -0.0438703 26 102 204
0.242286 -0.00545285 0.206269 26 102 204
0.239569 -0.0108475 0.0308429 26 102 204
0.238039 -0.0134417 -0.0179776 26 102 204
0.24058 -0.011738 0.0114386 26 102 204
0.241898 -0.0164327 0.0772677 26 102 204
0.237738 -0.0298276 0.0567452 26 102 204
0.24903 -0.0374034 -0.162321 26 102 204
0.246896 -0.0368707 -0.02745 26 102 204
0.240982 -0.0325497 0.00537708 26 102 204
0.244766 -0.0484111 -0.194196 26 102 204
0.238934 -0.0442553 0.148686 26 102 204
0.249868 -0.0674898 0.0695903 26 102 204
0.249598 -0.064763 0.201331 26 102 204
0.25516 -0.0723367 0.214906 26 102 204
0.25376 -0.0888348 -0.182884 26 102 204
0.258458 -0.0996138 0.220462 26 102 204
0.251945 -0.079208 -0.150936 26 102 204
0.251677 -0.0830691 -0.162969 26 102 204
0.257497 -0.100656 0.17743 26 102 204
0.265895 -0.123163 0.0116642 26 102 204
0.260432 -0.115487 0.213901 26 102 204
0.255558 -0.111603 -0.141093 26 102 204
0.262553 -0.130239 -0.136624 26 102 204
0.268753 -0.149589 0.113812 26 102 204
0.259387 -0.120239 0.0733552 26 102 204
0.192578 0.188295 -0.126425 26 102 204
0.262621 -0.130118 -0.0141552 26 102 204
0.265673 -0.133789 -0.0262411 26 102 204
0.258719 -0.136451 0.0486997 26 102 204
0.264413 -0.134701 -0.0769193 26 102 204
0.2654 -0.149333 0.187905 26 102 204
0.268772 -0.14873 -0.203561 26 102 204
0.271311 -0.156242 0.187911 26 102 204
0.26286 -0.148846 -0.12668 26 102 204
0.266255 -0.159108 -0.117573 26 102 204
0.266762 -0.162777 0.112589 26 102 204
0.267064 -0.160856 0.202884 26 102 204
0.270551 -0.166323 -0.152096 26 102 204
0.274139 -0.167465 0.180489 26 102 204
0.268155 -0.17388 -0.0226348 26 102 204
0.269024 -0.164803 0.00394675 26 102 204
0.270997 -0.181461 -0.150227 26 102 204
0.271925 -0.172479 0.0856975 26 102 204
0.270867 -0.180418 -0.00464813 26 102 204
0.275597 -0.193405 -0.183465 26 102 204
0.274835 -0.190681 -0.0232577 26 102 204
0.277297 -0.197913 0.0337603 26 102 204
0.277245 -0.197836 -0.121627 26 102 204
0.276499 -0.201847 0.0263981 26 102 204
0.280083 -0.216642 0.176047 26 102 204
0.277378 -0.21466 0.0352948 26 102 204
0.280446 -0.211341 0.145441 26 102 204
0.280304 -0.23292 0.111803 26 102 204
0.281679 -0.22827 0.128816 26 102 204
0.285349 -0.224654 -0.131026 26 102 204
0.284747 -0.245532 0.0657566 26 102 204
0.290134 -0.252082 0.235832 26 102 204
0.17178 0.233508 -0.154831 26 102 204
0.288917 -0.264635 0.173955 26 102 204
0.288747 -0.254873 0.0449816 26 102 204
0.28992 -0.264482 0.0444931 26 102 204
0.293814 -0.291564 0.200546 26 102 204
0.290273 -0.275275 0.0337291 26 102 204
0.293156 -0.27759 0.0240614 26 102 204
0.292689 -0.279328 -0.0396995 26 102 204
0.291609 -0.280104 0.224381 26 102 204
0.295397 -0.293557 0.214277 26 102 204
0.29768 -0.309794 0.10881 26 102 204
0.29836 -0.305488 0.0959198 26 102 204
0.201647 0.142492 -0.00741509 26 102 204
0.299155 -0.328067 -0.0613077 26 102 204
0.299522 -0.330492 -0.0399096 26 102 204
0.297947 -0.319423 -0.112428 26 102 204
0.21078 0.0771724 0.223866 26 102 204
0.265812 -0.152724 -0.198426 26 102 204
0.219856 0.0293336 -0.217941 26 102 204
0.138622 0.422706 -0.216108 26 102 204
0.297933 -0.294143 0.228054 26 102 204
0.278876 -0.249426 -0.224305 26 102 204
0.163145 0.278809 -0.220888 26 102 204
0.129814 0.446416 -0.20282 26 102 204
0.296293 -0.325049 -0.0442406 26 102 204
0.163431 0.237215 -0.218813 26 102 204
0.115322 0.422358 -0.216446 26 102 204
0.263715 -0.198497 -0.216011 26 102 204
0.12298 0.449435 0.220808 26 102 204
0.161743 0.229628 -0.216952 26 102 204
0.289761 -0.329278 -0.204842 26 102 204
0.12866 0.457111 0.139979 26 102 204
0.114803 0.461209 0.240025 26 102 204
0.234541 -0.0915836 -0.216763 26 102 204
0.109227 0.476456 0.21687 26 102 204
0.161964 0.224226 0.230637 26 102 204
0.242469 -0.181737 -0.217268 26 102 204
0.111726 0.453074 -0.0250243 26 102 204
0.157922 0.212882 -0.217338 26 102 204
0.102672 0.482997 0.100161 26 102 204
0.255556 -0.231476 -0.2185 26 102 204
0.280615 -0.326263 -0.13907 26 102 204
0.240411 -0.137351 0.232499 26 102 204
0.277284 -0.316483 -0.197072 26 102 204
0.113591 0.397367 -0.219511 26 102 204
0.1124 0.446096 -0.0258011 26 102 204
0.262658 -0.333559 0.050708 26 102 204
0.273817 -0.303701 0.232225 26 102 204
0.267505 -0.324356 -0.170818 26 102 204
0.175147 0.152088 0.232206 26 102 204
0.263708 -0.259368 -0.218645 26 102 204
0.108978 0.450144 0.152474 26 102 204
0.165345 0.172687 -0.217538 26 102 204
0.26962 -0.32028 0.0406533 26 102 204
0.272141 -0.355158 -0.0846674 26 102 204
0.272014 -0.336064 0.124639 26 102 204
0.110207 0.405684 -0.225965 26 102 204
0.105717 0.433157 -0.2292 26 102 204
0.107177 0.436511 0.0302908 26 102 204
0.0977072 0.442345 -0.0692227 26 102 204
0.107417 0.419678 0.131026 26 102 204
0.267904 -0.346167 -0.0911982 26 102 204
0.280896 -0.350608 -0.0732751 26 102 204
0.0914004 0.466139 0.170348 26 102 204
0.103568 0.41324 0.210083 26 102 204
0.233135 -0.190165 0.238374 26 102 204
0.224144 -0.173944 0.231002 26 102 204
0.211677 -0.131155 0.233677 26 102 204
0.208147 -0.0916838 0.231259 26 102 204
0.275084 -0.390086 0.230945 26 102 204
0.228712 -0.207768 -0.219802 26 102 204
0.0892152 0.439717 -0.0387191 26 102 204
0.150304 0.146984 0.238987 26 102 204
0.134015 0.196264 0.239293 26 102 204
0.184744 -0.0269275 -0.229091 26 102 204
0.154071 0.126628 -0.219481 26 102 204
0.0780751 0.448462 0.093202 26 102 204
0.212823 -0.153361 -0.216786 26 102 204
0.0851378 0.462414 -0.175051 26 102 204
0.250144 -0.318169 -0.192098 26 102 204
0.112946 0.297858 0.233864 26 102 204
0.0689795 0.464505 -0.1584 26 102 204
0.203862 -0.129802 -0.218607 26 102 204
0.194421 -0.0896183 -0.216468 26 102 204
0.268039 -0.416525 0.205681 26 102 204
0.268111 -0.43035 -0.188427 26 102 204
0.253646 -0.353045 -0.171427 26 102 204
0.189059 -0.06966 0.226205 26 102 204
0.222346 -0.216145 -0.215691 26 102 204
0.263746 -0.412361 0.181046 26 102 204
0.153741 0.0678808 -0.217263 26 102 204
0.24577 -0.331326 -0.214774 26 102 204
0.113572 0.268156 0.238105 26 102 204
0.234222 -0.341905 -0.0714222 26 102 204
0.240822 -0.323333 0.225193 26 102 204
0.0722039 0.422236 -0.224574 26 102 204
0.177895 -0.0730812 0.230952 26 102 204
0.073375 0.437922 0.18868 26 102 204
0.0749468 0.405596 0.224979 26 102 204
0.249152 -0.390893 0.232592 26 102 204
0.0672169 0.466354 0.228409 26 102 204
0.0928474 0.325863 0.235375 26 102 204
0.238403 -0.348475 0.041717 26 102 204
0.237304 -0.345138 -0.207326 26 102 204
0.236108 -0.340598 -0.149575 26 102 204
0.234555 -0.338901 -0.112637 26 102 204
0.234942 -0.346411 0.00251278 26 102 204
0.0973757 0.276389 -0.212336 26 102 204
0.227335 -0.340071 -0.169737 26 102 204
0.151797 0.0168027 0.228516 26 102 204
0.212974 -0.28485 -0.216803 26 102 204
0.230706 -0.348723 0.0406398 26 102 204
0.104175 0.23876 0.226555 26 102 204
0.234794 -0.348433 -0.0530365 26 102 204
0.232327 -0.372112 -0.0507761 26 102 204
0.0746564 0.369844 -0.21848 26 102 204
0.233896 -0.366475 -0.186907 26 102 204
0.227207 -0.356431 -0.0977368 26 102 204
0.229038 -0.337437 -0.18524 26 102 204
0.224811 -0.346583 0.134001 26 102 204
0.171028 -0.0984832 -0.216544 26 102 204
0.234221 -0.365216 0.150809 26 102 204
0.0884156 0.297487 0.232068 26 102 204
0.0508593 0.439819 -0.010217 26 102 204
0.108864 0.163814 -0.214452 26 102 204
0.0519325 0.431755 -0.00760387 26 102 204
0.223323 -0.336564 0.168773 26 102 204
0.0567255 0.43534 0.237731 26 102 204
0.0538121 0.421573 0.160763 26 102 204
0.186337 -0.204065 -0.22013 26 102 204
0.0573166 0.397061 -0.215514 26 102 204
0.232579 -0.275285 0.238706 26 102 204
0.0557121 0.408031 0.241674 26 102 204
0.0510743 0.418291 0.240093 26 102 204
0.0464477 0.439896 -0.0686576 26 102 204
0.21841 -0.367873 -0.182643 26 102 204
0.213484 -0.348733 -0.222447 26 102 204
0.151197 -0.0754674 -0.212843 26 102 204
0.20467 -0.32449 -0.218623 26 102 204
0.0380723 0.437288 -0.174936 26 102 204
0.0684895 0.304561 -0.215424 26 102 204
0.0436589 0.442993 0.0337065 26 102 204
0.03895 0.431528 0.111328 26 102 204
0.205788 -0.325433 -0.17878 26 102 204
0.0549535 0.374215 -0.221312 26 102 204
0.180866 -0.215357 0.236557 26 102 204
0.0824559 0.206279 -0.211017 26 102 204
0.156089 -0.111648 -0.213532 26 102 204
0.0419766 0.38268 -0.224865 26 102 204
0.133724 -0.0348984 -0.2157 26 102 204
0.197178 -0.346646 -0.178782 26 102 204
0.0984143 0.132966 0.232426 26 102 204
0.202413 -0.338514 0.0900193 26 102 204
0.133752 -0.0456506 0.229379 26 102 204
0.0918105 0.14426 -0.209627 26 102 204
0.142319 -0.0787601 -0.214665 26 102 204
0.193382 -0.330257 -0.212769 26 102 204
0.0340346 0.414883 -0.214013 26 102 204
0.211576 -0.375119 -0.0999395 26 102 204
0.197362 -0.343357 0.151383 26 102 204
0.179074 -0.359654 0.209074 26 102 204
0.105716 0.0658815 0.232974 26 102 204
0.0239891 0.429895 0.0254087 26 102 204
0.196755 -0.346524 -0.0577446 26 102 204
0.0248415 0.424625 0.116326 26 102 204
0.202061 -0.380441 -0.219847 26 102 204
0.196316 -0.338718 -0.0462125 26 102 204
0.118508 0.00291857 0.228672 26 102 204
0.188183 -0.309314 -0.222095 26 102 204
0.0716997 0.219271 0.234733 26 102 204
0.209214 -0.358737 -0.0112889 26 102 204
0.190202 -0.344787 -0.155644 26 102 204
0.0589368 0.253674 -0.21943 26 102 204
0.184109 -0.349809 0.142471 26 102 204
0.137975 -0.125045 0.231057 26 102 204
0.167306 -0.326012 -0.207355 26 102 204
0.0165232 0.427991 -0.127013 26 102 204
0.18457 -0.346185 0.200466 26 102 204
0.0123211 0.415604 -0.11172 26 102 204
0.114768 -0.052107 -0.209779 26 102 204
0.0700531 0.169619 -0.221339 26 102 204
0.146125 -0.198798 0.231353 26 102 204
0.0199187 0.42364 0.231067 26 102 204
0.176659 -0.342074 0.112152 26 102 204
0.168693 -0.335508 -0.00919012 26 102 204
0.168452 -0.29575 -0.215334 26 102 204
0.18191 -0.345712 0.093774 26 102 204
0.171079 -0.342192 0.0566016 26 102 204
0.0533434 0.213957 0.233769 26 102 204
0.175398 -0.347854 0.000872128 26 102 204
0.00805277 0.426454 -0.215365 26 102 204
0.116414 -0.0895377 0.2289 26 102 204
0.162886 -0.328203 -0.205686 26 102 204
0.0157968 0.389967 0.238254 26 102 204
0.00449423 0.421558 -0.172707 26 102 204
0.176012 -0.361784 -0.206062 26 102 204
0.172316 -0.340136 -0.10005 26 102 204
0.00203119 0.423583 -0.182312 26 102 204
0.00674589 0.435786 0.197112 26 102 204
0.0280639 0.298009 0.233347 26 102 204
0.179593 -0.411841 -0.212162 26 102 204
0.179952 -0.397317 -0.210763 26 102 204
0.0707267 0.100793 -0.210417 26 102 204
0.00945695 0.37199 -0.216446 26 102 204
0.166889 -0.353344 0.133494 26 102 204
-0.00224942 0.430909 -0.192899 26 102 204
0.00674174 0.380296 -0.212806 26 102 204
-0.00895922 0.433943 -0.216045 26 102 204
0.165035 -0.346148 0.0256176 26 102 204
0.118978 -0.14753 -0.212934 26 102 204
0.0724515 0.0592859 -0.212508 26 102 204
-0.00212364 0.434852 -0.213075 26 102 204
0.164615 -0.348532 -0.177349 26 102 204
0.162488 -0.346446 -0.0891189 26 102 204
0.15584 -0.346459 -0.165662 26 102 204
0.0471696 0.16575 -0.209616 26 102 204
0.16631 -0.386019 -0.224587 26 102 204
0.0151661 0.296702 0.23142 26 102 204
0.152515 -0.315606 -0.213336 26 102 204
0.037744 0.185483 -0.214599 26 102 204
0.135016 -0.282626 -0.218444 26 102 204
0.16279 -0.376066 0.239336 26 102 204
0.0362112 0.181816 0.241772 26 102 204
-0.00473861 0.383782 -0.218087 26 102 204
0.151896 -0.329196 0.225416 26 102 204
0.0258861 0.224534 0.234378 26 102 204
-0.0267319 0.45013 -0.115036 26 102 204
0.118045 -0.210366 0.227013 26 102 204
0.140897 -0.342752 -0.1809 26 102 204
-0.0183132 0.376638 -0.210055 26 102 204
0.142477 -0.341403 -0.157913 26 102 204
0.0311464 0.193445 0.237785 26 102 204
0.0142261 0.272728 0.235476 26 102 204
0.0535618 0.0584089 0.231536 26 102 204
0.148353 -0.373489 -0.216398 26 102 204
0.0610162 0.0435054 -0.222937 26 102 204
0.140863 -0.353804 0.0807016 26 102 204
0.115889 -0.183399 0.236848 26 102 204
0.0935476 -0.127406 -0.21134 26 102 204
-0.0236216 0.418019 0.223315 26 102 204
-0.026547 0.425356 0.190183 26 102 204
-0.0288631 0.422199 0.119221 26 102 204
0.000605389 0.271583 0.229006 26 102 204
-0.00684632 0.293354 -0.212123 26 102 204
0.134025 -0.344525 -0.115336 26 102 204
-0.0314764 0.412701 0.11683 26 102 204
0.0359597 0.0948385 -0.206708 26 102 204
0.0554717 0.0125215 0.233193 26 102 204
0.185067 -0.289812 0.0857205 26 102 204
0.132661 -0.341873 0.230622 26 102 204
0.00866259 0.207596 0.230837 26 102 204
0.12548 -0.346999 -0.0702896 26 102 204
0.0050419 0.232939 -0.209487 26 102 204
-0.0283667 0.363687 -0.212254 26 102 204
0.130828 -0.348082 0.16045 26 102 204
0.125315 -0.337845 0.234187 26 102 204
0.0189357 0.141376 -0.208941 26 102 204
-0.0236784 0.316158 0.231555 26 102 204
0.00722479 0.192025 -0.208996 26 102 204
-0.0372371 0.394846 0.234433 26 102 204
0.00268605 0.197536 0.230859 26 102 204
0.0639612 -0.0874983 0.233619 26 102 204
0.226278 -0.205558 0.202705 26 102 204
-0.0233073 0.29851 -0.215077 26 102 204
0.0253086 0.0719533 0.227747 26 102 204
0.014716 0.106732 0.229553 26 102 204
0.119889 -0.356037 0.235119 26 102 204
0.0392079 -0.0153401 -0.211892 26 102 204
-0.0432075 0.410127 -0.197949 26 102 204
0.1119 -0.351566 0.0315648 26 102 204
-0.0484227 0.402158 -0.0173055 26 102 204
0.107653 -0.305766 0.233487 26 102 204
-0.0618488 0.421713 0.230979 26 102 204
-0.0534071 0.391634 -0.206122 26 102 204
0.116961 -0.367316 -0.206078 26 102 204
0.105832 -0.350634 -0.0760995 26 102 204
0.0267693 0.0124495 0.229458 26 102 204
-0.0550562 0.422447 -0.150604 26 102 204
0.109593 -0.357476 0.0560678 26 102 204
0.103348 -0.352125 -0.0296318 26 102 204
0.0383793 -0.0529709 0.231291 26 102 204
0.00688092 0.0986527 0.233077 26 102 204
-0.00873515 0.153298 0.232367 26 102 204
-0.0591175 0.402069 0.0349241 26 102 204
-0.0609542 0.401829 -0.171277 26 102 204
-0.0645959 0.414785 0.197194 26 102 204
0.101151 -0.352566 0.187559 26 102 204
0.0705088 -0.232087 0.233801 26 102 204
-0.0315823 0.231372 0.231155 26 102 204
0.0812426 -0.254405 -0.215785 26 102 204
0.0467085 -0.120226 -0.211703 26 102 204
-0.0168673 0.181423 -0.214062 26 102 204
0.0991559 -0.358915 -0.114417 26 102 204
-0.00562119 0.110177 -0.209133 26 102 204
0.00988992 0.0360782 0.234504 26 102 204
0.121007 -0.389645 -0.111311 26 102 204
0.00329711 0.0732269 -0.208382 26 102 204
-0.0727095 0.401032 -0.0659057 26 102 204
-0.00605583 0.101044 0.232908 26 102 204
0.0735996 -0.254555 -0.221266 26 102 204
0.100607 -0.362437 0.181252 26 102 204
0.0911525 -0.355276 -0.135516 26 102 204
-0.0742581 0.395748 -0.217379 26 102 204
-0.0712144 0.403003 0.227701 26 102 204
0.0903817 -0.359862 -0.0302151 26 102 204
0.0879619 -0.36035 -0.112482 26 102 204
0.0870107 -0.35544 0.215919 26 102 204
0.0998695 -0.363976 0.238574 26 102 204
0.0856818 -0.355458 -0.160764 26 102 204
0.0117273 -0.0290113 -0.20832 26 102 204
-0.0826428 0.407899 -0.196555 26 102 204
0.0797605 -0.361211 0.0607877 26 102 204
0.0432459 -0.172834 -0.213841 26 102 204
-0.0587103 0.265637 0.233768 26 102 204
-0.0870194 0.407838 0.151276 26 102 204
-0.0867246 0.398654 -0.043498 26 102 204
0.0661599 -0.266504 0.234776 26 102 204
-0.0864056 0.386708 -0.224743 26 102 204
-0.0841776 0.369565 -0.213395 26 102 204
0.0766538 -0.342785 -0.222561 26 102 204
-0.0761065 0.334957 0.236381 26 102 204
-0.015578 0.0280511 0.233132 26 102 204
-0.0604483 0.253406 0.23552 26 102 204
0.0707873 -0.356738 0.0763388 26 102 204
0.0628257 -0.327657 -0.229152 26 102 204
0.0696463 -0.312357 0.230567 26 102 204
0.0651332 -0.355711 -0.0486024 26 102 204
-0.0320879 0.10721 -0.214065 26 102 204
0.069108 -0.359357 -0.191406 26 102 204
-0.0323877 0.08241 -0.208294 26 102 204
0.0548913 -0.320989 -0.22083 26 102 204
0.0718589 -0.368533 0.206339 26 102 204
-0.0426904 0.133356 0.236635 26 102 204
-0.0954046 0.367735 -0.19284 26 102 204
-0.0296155 0.0671394 -0.21499 26 102 204
-0.100894 0.368107 0.228966 26 102 204
-0.105583 0.410693 -0.162051 26 102 204
0.0104235 -0.124647 0.234035 26 102 204
0.0702634 -0.389497 0.222129 26 102 204
0.0652435 -0.370404 0.0103718 26 102 204
0.0451928 -0.318011 -0.229476 26 102 204
-0.00735139 -0.0647167 -0.209547 26 102 204
-0.110724 0.390507 0.149565 26 102 204
-0.0328119 0.0475241 -0.208456 26 102 204
-0.107811 0.401028 0.230622 26 102 204
0.0524574 -0.355486 0.187526 26 102 204
0.0509554 -0.363644 0.113049 26 102 204
-0.0670565 0.160031 -0.206766 26 102 204
0.0526081 -0.34121 -0.208196 26 102 204
-0.115412 0.399061 0.246061 26 102 204
-0.105024 0.342324 0.237046 26 102 204
-0.122226 0.420417 0.101299 26 102 204
-0.0253354 -0.0132216 0.233174 26 102 204
-0.0674639 0.177811 -0.214471 26 102 204
0.00811144 -0.159927 -0.212104 26 102 204
0.0490678 -0.367265 0.175502 26 102 204
-0.121248 0.39434 0.0201634 26 102 204
0.0530412 -0.367965 0.150063 26 102 204
-0.0186692 -0.0645935 -0.205627 26 102 204
-0.108815 0.301375 -0.217186 26 102 204
-0.0553952 0.0838326 0.228912 26 102 204
0.0431205 -0.355446 0.175237 26 102 204
0.0133228 -0.219874 -0.214817 26 102 204
-0.033493 -0.017317 0.233421 26 102 204
-0.046951 0.0302439 0.231499 26 102 204
-0.126325 0.388494 -0.134238 26 102 204
-0.10594 0.272058 -0.208406 26 102 204
0.0407843 -0.329335 -0.219729 26 102 204
0.0417474 -0.366864 -0.0299555 26 102 204
-0.0933761 0.237376 -0.213336 26 102 204
0.00345824 -0.204239 -0.21405 26 102 204
0.0452656 -0.380433 -0.215784 26 102 204
-0.12668 0.388235 0.234573 26 102 204
-0.0277705 -0.130557 0.232928 26 102 204
0.0375336 -0.372264 0.223535 26 102 204
-0.122197 0.345206 0.230279 26 102 204
-0.131846 0.383893 0.239546 26 102 204
-0.137649 0.388089 0.117895 26 102 204
-0.105464 0.260065 0.23237 26 102 204
-0.0422807 -0.154927 0.222611 26 102 204
0.0368286 -0.375278 0.0066506 26 102 204
0.0382792 -0.378406 -0.186749 26 102 204
-0.0812427 0.145022 0.228642 26 102 204
0.0395199 -0.40706 0.227841 26 102 204
0.0320233 -0.373631 0.109658 26 102 204
-0.0566133 0.0227566 -0.211666 26 102 204
-0.140058 0.386007 0.0842227 26 102 204
-0.0282441 -0.117402 0.23702 26 102 204
0.0328944 -0.389303 0.15576 26 102 204
-0.00476856 -0.210232 0.231386 26 102 204
-0.0832367 0.113152 -0.208705 26 102 204
-0.00228383 -0.235863 0.233664 26 102 204
-0.0585345 0.00209453 0.233417 26 102 204
-0.0793558 0.0894687 0.233492 26 102 204
-0.137747 0.379855 0.226918 26 102 204
0.00267278 -0.274914 0.230295 26 102 204
-0.0731148 0.0734536 -0.215032 26 102 204
-0.00921483 -0.23522 0.231634 26 102 204
0.0224733 -0.374206 -0.227405 26 102 204
-0.12687 0.282574 -0.211735 26 102 204
-0.150471 0.389613 0.0110854 26 102 204
0.0236247 -0.386207 0.11771 26 102 204
0.0186576 -0.364442 -0.196911 26 102 204
-0.0353411 -0.119747 -0.217611 26 102 204
-0.117549 0.252251 -0.210943 26 102 204
-0.143386 0.344844 0.233167 26 102 204
0.00765226 -0.340902 -0.209073 26 102 204
-0.144881 0.33105 0.23699 26 102 204
-0.0610442 0.0595196 0.228924 26 102 204
-0.0725666 0.00499291 0.23502 26 102 204
0.0148752 -0.374885 -0.203264 26 102 204
0.017069 -0.370146 -0.108883 26 102 204
-0.094487 0.0938377 0.238282 26 102 204
-0.00387495 -0.281436 0.235078 26 102 204
-0.0711376 -0.00545971 0.230147 26 102 204
0.0197083 -0.434007 0.239599 26 102 204
-0.0676269 -0.0283581 0.2323 26 102 204
0.00033675 -0.327586 0.224296 26 102 204
-0.0967398 0.0816687 0.242273 26 102 204
-0.0292268 -0.201919 -0.210018 26 102 204
-0.109769 0.154499 -0.211872 26 102 204
0.0208951 -0.389109 -0.220697 26 102 204
-0.0515705 -0.111346 0.234359 26 102 204
0.0111275 -0.394854 -0.0285269 26 102 204
-0.108807 0.190876 0.234458 26 102 204
-0.104533 0.0907547 -0.205342 26 102 204
-0.164835 0.381344 -0.0591766 26 102 204
-0.164302 0.38352 0.238645 26 102 204
-0.14049 0.260864 -0.21585 26 102 204
-0.113319 0.155795 0.234116 26 102 204
-0.0566174 -0.0973414 0.238952 26 102 204
-0.119007 0.17201 0.234894 26 102 204
-0.16603 0.358575 -0.16511 26 102 204
-0.17185 0.381666 0.217006 26 102 204
-0.0789326 -0.028303 0.232753 26 102 204
-0.000696822 -0.381519 -0.215178 26 102 204
3.35393e-06 -0.380292 -0.208556 26 102 204
-0.0476881 -0.173066 0.234831 26 102 204
-0.176373 0.369581 -0.0211239 26 102 204
-0.00430807 -0.377354 -0.153063 26 102 204
-0.0475864 -0.19678 0.237445 26 102 204
-0.00626901 -0.386811 -0.189138 26 102 204
-0.173446 0.368311 -0.0647399 26 102 204
-0.17744 0.372237 0.233526 26 102 204
-0.0946612 0.00626026 -0.212236 26 102 204
-0.0117439 -0.378248 0.0307603 26 102 204
-0.148856 0.235445 -0.209547 26 102 204
-0.00769293 -0.379768 0.0849606 26 102 204
-0.184668 0.387234 0.243419 26 102 204
-0.0172352 -0.369182 -0.213096 26 102 204
-0.144505 0.205557 0.232583 26 102 204
-0.188808 0.396055 -0.0214353 26 102 204
-0.0370871 -0.279508 0.228879 26 102 204
-0.0146054 -0.387037 -0.186464 26 102 204
-0.0462149 -0.240991 -0.215427 26 102 204
-0.115499 0.0183702 0.239675 26 102 204
-0.0751234 -0.118368 -0.214622 26 102 204
-0.0994015 0.00215957 0.232768 26 102 204
-0.193066 0.380349 0.166978 26 102 204
-0.109532 0.00350944 0.238175 26 102 204
-0.192535 0.375449 -0.143261 26 102 204
-0.179994 0.343947 0.234066 26 102 204
-0.105586 -0.00867278 -0.211912 26 102 204
-0.0189673 -0.388148 -0.247389 26 102 204
-0.0185505 -0.38726 -0.103696 26 102 204
-0.19447 0.394348 -0.22312 26 102 204
-0.0129743 -0.400007 0.115063 26 102 204
-0.193364 0.38391 -0.154098 26 102 204
-0.122503 0.0471198 0.239299 26 102 204
-0.0239915 -0.385428 -0.195913 26 102 204
-0.0328783 -0.359156 0.231351 26 102 204
-0.0258981 -0.385828 -0.221882 26 102 204
-0.0238173 -0.387447 -0.219653 26 102 204
-0.179437 0.262518 0.241822 26 102 204
-0.0108683 -0.386044 0.0347381 26 102 204
-0.0287706 -0.38706 0.161011 26 102 204
-0.200674 0.363611 0.0123324 26 102 204
-0.0656016 -0.236876 -0.216568 26 102 204
-0.0813638 -0.17218 -0.210901 26 102 204
-0.200898 0.369649 0.195643 26 102 204
-0.179089 0.266585 -0.209402 26 102 204
-0.178968 0.269318 -0.216093 26 102 204
-0.192444 0.324138 -0.207116 26 102 204
-0.026867 -0.388944 -0.20524 26 102 204
-0.0387646 -0.375018 -0.0150323 26 102 204
-0.194952 0.339059 0.236565 26 102 204
-0.0344636 -0.391839 0.0666283 26 102 204
-0.203776 0.362673 0.0458186 26 102 204
-0.210067 0.380553 0.108506 26 102 204
-0.0176883 -0.450843 0.22335 26 102 204
-0.0905276 -0.154648 0.23253 26 102 204
-0.184995 0.275046 -0.22102 26 102 204
-0.154891 0.139121 -0.216286 26 102 204
-0.0321511 -0.416059 0.0122772 26 102 204
-0.0403522 -0.391406 -0.0639274 26 102 204
-0.0385019 -0.373527 -0.215577 26 102 204
-0.0430772 -0.395422 0.0653647 26 102 204
-0.0381648 -0.397996 -0.171839 26 102 204
-0.0715431 -0.252449 0.233397 26 102 204
-0.0593909 -0.298544 0.231216 26 102 204
-0.162103 0.125163 -0.213663 26 102 204
-0.0399391 -0.409651 0.0427843 26 102 204
-0.137387 0.00907845 -0.213007 26 102 204
-0.222182 0.387546 0.237338 26 102 204
-0.0384314 -0.426621 0.217895 26 102 204
-0.217276 0.350094 0.236357 26 102 204
-0.223189 0.385474 0.242023 26 102 204
-0.224391 0.339427 0.0189984 26 102 204
-0.242998 0.380111 -0.222695 26 102 204
-0.21519 0.328617 -0.216995 26 102 204
-0.191996 0.226683 0.230983 26 102 204
-0.227884 0.371939 -0.220885 26 102 204
-0.0333029 -0.46872 -0.161468 26 102 204
-0.0423989 -0.42595 -0.0619535 26 102 204
-0.0397266 -0.463773 -0.206122 26 102 204
-0.224546 0.338877 0.225464 26 102 204
-0.105971 -0.182036 -0.224113 26 102 204
-0.137312 -0.0336619 0.235495 26 102 204
-0.0665879 -0.328391 -0.224811 26 102 204
-0.228524 0.372858 0.0570318 26 102 204
-0.12993 -0.0634412 0.236539 26 102 204
-0.224809 0.36191 -0.0979558 26 102 204
-0.209943 0.287319 0.236882 26 102 204
-0.138027 -0.0505954 0.235138 26 102 204
-0.207842 0.215903 0.23689 26 102 204
-0.129539 -0.075588 0.236719 26 102 204
-0.236595 0.382889 0.0838583 26 102 204
-0.0639317 -0.362952 -0.21085 26 102 204
-0.0440197 -0.451751 0.227047 26 102 204
-0.204794 0.213545 -0.218138 26 102 204
-0.0481365 -0.434195 -0.224304 26 102 204
-0.232666 0.357676 -0.0805775 26 102 204
-0.0583877 -0.400681 -0.227723 26 102 204
-0.132853 -0.0965508 -0.221486 26 102 204
-0.254338 0.391817 0.184359 26 102 204
-0.226682 0.345555 0.0259361 26 102 204
-0.0445997 -0.457286 0.216951 26 102 204
-0.0628986 -0.404119 -0.216443 26 102 204
-0.0545812 -0.478525 -0.229414 26 102 204
-0.185371 0.100457 -0.215674 26 102 204
-0.0691934 -0.389567 0.0099359 26 102 204
-0.125656 -0.156233 -0.220454 26 102 204
-0.0690228 -0.40291 -0.116145 26 102 204
-0.0703869 -0.39702 -0.0182048 26 102 204
-0.145964 -0.0726717 -0.203008 26 102 204
-0.0627722 -0.428241 0.215934 26 102 204
-0.243483 0.363558 0.125863 26 102 204
-0.219773 0.259954 0.23517 26 102 204
-0.115924 -0.205621 -0.216671 26 102 204
-0.241113 0.35084 -0.225331 26 102 204
-0.238303 0.295068 -0.180741 26 102 204
-0.256348 0.377582 0.0830852 26 102 204
-0.241533 0.347753 0.0796994 26 102 204
-0.172245 0.00865205 0.234468 26 102 204
-0.140787 -0.132049 -0.218877 26 102 204
-0.195275 0.115434 -0.21711 26 102 204
-0.0891048 -0.350703 -0.20885 26 102 204
-0.0972977 -0.330022 0.227886 26 102 204
-0.253449 0.363133 -0.112932 26 102 204
-0.253585 0.384942 -0.176149 26 102 204
-0.0801867 -0.401441 -0.0123778 26 102 204
-0.249452 0.36446 -0.170469 26 102 204
-0.0830425 -0.411408 -0.0421188 26 102 204
-0.142127 -0.13456 0.232547 26 102 204
-0.0624094 -0.465377 -0.196278 26 102 204
-0.0796429 -0.418916 -0.210929 26 102 204
-0.256742 0.359232 -0.0155435 26 102 204
-0.25648 0.357831 -0.177056 26 102 204
-0.257858 0.352209 0.0081089 26 102 204
-0.240894 0.29375 0.238777 26 102 204
-0.079179 -0.415239 -0.169548 26 102 204
-0.25792 0.365625 -0.0609038 26 102 204
-0.0805979 -0.403022 -0.16496 26 102 204
-0.236888 0.255868 -0.217133 26 102 204
-0.260568 0.375191 -0.219198 26 102 204
-0.0809066 -0.428261 0.23313 26 102 204
-0.0853754 -0.417435 0.0601649 26 102 204
-0.0873726 -0.411907 -0.129848 26 102 204
-0.242878 0.248169 -0.22409 26 102 204
-0.100119 -0.391858 0.232353 26 102 204
-0.0999505 -0.38017 -0.219529 26 102 204
-0.0862658 -0.407746 0.225982 26 102 204
-0.0950484 -0.390294 0.181467 26 102 204
-0.268167 0.360914 0.146291 26 102 204
-0.0960708 -0.379123 -0.208561 26 102 204
-0.204118 0.0675452 -0.213438 26 102 204
-0.265393 0.347108 0.222715 26 102 204
-0.106126 -0.360075 -0.224338 26 102 204
-0.175937 -0.0511444 -0.222419 26 102 204
-0.194882 0.0416828 0.237511 26 102 204
-0.193761 0.018671 -0.213318 26 102 204
-0.244543 0.25817 0.236116 26 102 204
-0.24052 0.217625 -0.214667 26 102 204
-0.233844 0.164784 -0.221771 26 102 204
-0.0958527 -0.421164 -0.127199 26 102 204
-0.14534 -0.185118 0.24712 26 102 204
-0.273708 0.34808 -0.226625 26 102 204
-0.0844756 -0.470279 -0.188253 26 102 204
-0.260415 0.285368 -0.226416 26 102 204
-0.0916611 -0.438355 -0.212035 26 102 204
-0.272643 0.314536 -0.218283 26 102 204
-0.1104 -0.372747 0.225037 26 102 204
-0.24816 0.237053 0.231288 26 102 204
-0.180967 -0.0715412 -0.228783 26 102 204
-0.27766 0.354424 -0.159434 26 102 204
-0.278586 0.360324 -0.0403697 26 102 204
-0.289329 0.374862 -0.0319993 26 102 204
-0.108369 -0.411137 0.0661933 26 102 204
-0.238549 0.16933 -0.217961 26 102 204
-0.2501 0.184675 0.235292 26 102 204
-0.0906967 -0.47806 -0.1817 26 102 204
-0.108603 -0.415205 0.230182 26 102 204
-0.215971 0.04708 -0.210094 26 102 204
-0.278282 0.339013 0.235392 26 102 204
-0.113177 -0.396079 -0.189246 26 102 204
-0.107442 -0.419728 0.186747 26 102 204
-0.291412 0.33651 -0.19662 26 102 204
-0.288321 0.330701 -0.102789 26 102 204
-0.170671 -0.153731 0.234003 26 102 204
-0.287693 0.347567 0.206172 26 102 204
-0.115115 -0.421549 -0.176405 26 102 204
-0.282727 0.321939 -0.212573 26 102 204
-0.189463 -0.0960177 -0.213836 26 102 204
-0.190841 -0.0798441 -0.217542 26 102 204
-0.11779 -0.402694 0.0848639 26 102 204
-0.289525 0.339515 -0.211248 26 102 204
-0.293203 0.356743 -0.229356 26 102 204
-0.113167 -0.432596 0.185766 26 102 204
-0.284523 0.295087 0.238546 26 102 204
-0.123786 -0.38236 0.232888 26 102 204
-0.118874 -0.41821 0.177706 26 102 204
-0.252579 0.156767 0.241864 26 102 204
-0.304543 0.371124 0.00279254 26 102 204
-0.128215 -0.398925 -0.198826 26 102 204
-0.244193 0.126068 0.234037 26 102 204
-0.238651 0.0841252 -0.224509 26 102 204
-0.131938 -0.38784 -0.229868 26 102 204
-0.304539 0.360891 -0.0453118 26 102 204
-0.129651 -0.362425 -0.123334 26 102 204
-0.304756 0.371226 -0.100776 26 102 204
-0.166055 -0.26438 -0.207456 26 102 204
-0.299423 0.361042 -0.155868 26 102 204
-0.304822 0.343793 0.150761 26 102 204
-0.305513 0.332297 0.107823 26 102 204
-0.308109 0.328362 0.0973052 26 102 204
-0.298949 0.327514 -0.00439053 26 102 204
-0.305754 0.318996 0.212961 26 102 204
-0.298016 0.315058 -0.035381 26 102 204
-0.301641 0.314374 0.202136 26 102 204
-0.304452 0.312566 -0.123726 26 102 204
-0.307762 0.33961 -0.164998 26 102 204
-0.300368 0.310094 -0.14457 26 102 204
-0.300481 0.308089 -0.107073 26 102 204
-0.297141 0.320347 -0.172457 26 102 204
-0.29873 0.298561 0.0347167 26 102 204
-0.299952 0.301992 -0.179523 26 102 204
-0.29636 0.293253 0.152007 26 102 204
-0.300491 0.304286 -0.0816703 26 102 204
-0.293759 0.285449 -0.165671 26 102 204
-0.297294 0.303891 0.135934 26 102 204
-0.291118 0.276118 -0.0646969 26 102 204
-0.290558 0.27334 -0.0208058 26 102 204
-0.287954 0.26233 -0.0261811 26 102 204
-0.291217 0.263562 0.142537 26 102 204
-0.289479 0.249578 -0.0797395 26 102 204
-0.290151 0.256887 -0.137945 26 102 204
-0.283615 0.243041 0.121484 26 102 204
-0.291062 0.26304 0.126865 26 102 204
-0.288979 0.270235 0.0476284 26 102 204
-0.282077 0.241175 0.0517182 26 102 204
-0.281987 0.222782 -0.193324 26 102 204
-0.280135 0.216316 -0.0862633 26 102 204
-0.275918 0.210597 0.0303067 26 102 204
-0.278338 0.214899 0.0735802 26 102 204
-0.270907 0.185264 0.0164963 26 102 204
-0.270981 0.179714 0.0190333 26 102 204
-0.243688 0.105496 0.206695 26 102 204
-0.26868 0.183458 0.0922312 26 102 204
-0.267629 0.158839 0.149564 26 102 204
-0.268199 0.170013 -0.0484336 26 102 204
-0.267896 0.168399 0.0641826 26 102 204
-0.266841 0.16268 -0.167396 26 102 204
-0.263151 0.144296 -0.115161 26 102 204
-0.265097 0.148154 -0.069508 26 102 204
-0.263642 0.143 0.119706 26 102 204
-0.257586 0.132232 -0.125187 26 102 204
-0.262457 0.134059 -0.199189 26 102 204
-0.256761 0.127783 0.123991 26 102 204
-0.218438 -0.0274038 0.0132658 26 102 204
-0.25681 0.121992 -0.0491044 26 102 204
-0.254858 0.112297 0.069062 26 102 204
-0.252387 0.093547 0.0699681 26 102 204
-0.255026 0.11041 0.103379 26 102 204
-0.252835 0.103644 -0.0165555 26 102 204
-0.250189 0.113526 0.167662 26 102 204
-0.255596 0.108781 0.103505 26 102 204
-0.249536 0.0904687 0.0807364 26 102 204
-0.249796 0.0896303 0.0609272 26 102 204
-0.245415 0.0777021 0.0412099 26 102 204
-0.245688 0.0800071 0.158904 26 102 204
-0.243113 0.0768163 -0.153283 26 102 204
-0.244601 0.0690619 0.187897 26 102 204
-0.240555 0.0514781 -0.023407 26 102 204
-0.243473 0.0687772 0.14601 26 102 204
-0.24031 0.0522894 -0.0481275 26 102 204
-0.237578 0.0504109 0.108976 26 102 204
-0.23849 0.0405697 0.186723 26 102 204
-0.240141 0.0487503 0.148798 26 102 204
-0.237378 0.0340972 0.00662878 26 102 204
-0.235815 0.0292578 0.221752 26 102 204
-0.235282 0.0155421 0.107353 26 102 204
-0.235933 0.0253732 0.206893 26 102 204
-0.230742 0.0112491 -0.107161 26 102 204
-0.227392 0.00517992 0.124301 26 102 204
-0.229049 0.00120461 -0.115157 26 102 204
-0.223885 -0.011102 -0.0629964 26 102 204
-0.222809 -0.022278 0.0399373 26 102 204
-0.219844 -0.0226696 0.0882807 26 102 204
-0.226212 -0.0285672 -0.150069 26 102 204
-0.21887 -0.0454548 -0.167189 26 102 204
-0.220982 -0.0452904 -0.149754 26 102 204
-0.213365 -0.0529557 -0.0637794 26 102 204
-0.213971 -0.0603727 -0.0649032 26 102 204
-0.213362 -0.073557 0.0609266 26 102 204
-0.208296 -0.0736665 -0.049216 26 102 204
-0.212203 -0.0797566 -0.0962319 26 102 204
-0.209191 -0.0821283 -0.131266 26 102 204
-0.210511 -0.084166 0.189341 26 102 204
-0.207086 -0.0835131 -0.0259523 26 102 204
-0.203479 -0.0813369 -0.171374 26 102 204
-0.205087 -0.0859159 0.182597 26 102 204
-0.206175 -0.0936666 -0.210312 26 102 204
-0.208248 -0.0962766 0.197522 26 102 204
-0.209067 -0.0898427 -0.138117 26 102 204
-0.201949 -0.125156 0.123225 26 102 204
-0.202724 -0.108571 0.137039 26 102 204
-0.202101 -0.0941818 0.211393 26 102 204
-0.202143 -0.103639 0.185902 26 102 204
-0.19912 -0.13162 -0.205445 26 102 204
-0.199366 -0.119184 0.0717295 26 102 204
-0.200187 -0.134042 0.0350356 26 102 204
-0.196539 -0.14029 0.00388227 26 102 204
-0.195063 -0.131144 0.153487 26 102 204
-0.196688 -0.133027 0.135133 26 102 204
-0.193507 -0.148751 -0.175662 26 102 204
-0.196201 -0.146969 -0.166006 26 102 204
-0.192108 -0.153331 -0.17792 26 102 204
-0.190509 -0.15062 0.136375 26 102 204
-0.190575 -0.153713 0.0283839 26 102 204
-0.188157 -0.161746 0.177178 26 102 204
-0.189414 -0.158704 0.0109296 26 102 204
-0.189313 -0.15928 0.153004 26 102 204
-0.184101 -0.172001 0.22526 26 102 204
-0.188833 -0.170735 -0.162847 26 102 204
-0.187115 -0.171863 0.10318 26 102 204
-0.187559 -0.171971 -0.196841 26 102 204
-0.186831 -0.182404 0.0617539 26 102 204
-0.184051 -0.183293 0.0565809 26 102 204
-0.188012 -0.189378 -0.191284 26 102 204
-0.181437 -0.188441 0.0406149 26 102 204
-0.181999 -0.193369 0.0398268 26 102 204
-0.176979 -0.201052 0.159019 26 102 204
-0.180693 -0.199945 0.0216164 26 102 204
-0.181725 -0.204774 -0.0547418 26 102 204
-0.17995 -0.210907 0.0154447 26 102 204
-0.175481 -0.22378 0.0324058 26 102 204
-0.174251 -0.22748 0.0697452 26 102 204
-0.173837 -0.223111 0.145998 26 102 204
-0.170609 -0.226798 0.16011 26 102 204
-0.171743 -0.233086 0.00787805 26 102 204
-0.171339 -0.230974 -0.14577 26 102 204
-0.169355 -0.237842 0.140785 26 102 204
-0.165802 -0.244939 -0.100484 26 102 204
-0.167388 -0.24134 -0.0702889 26 102 204
-0.169323 -0.247541 -0.063325 26 102 204
-0.167526 -0.244086 -0.189256 26 102 204
-0.168 -0.248746 0.0754519 26 102 204
-0.163711 -0.25337 -0.198919 26 102 204
-0.16547 -0.258215 -0.181881 26 102 204
-0.162475 -0.264819 -0.120282 26 102 204
-0.15963 -0.269469 -0.0610826 26 102 204
-0.160292 -0.277466 -0.18423 26 102 204
-0.157833 -0.283636 0.0470344 26 102 204
-0.157881 -0.284816 0.201899 26 102 204
-0.162153 -0.28127 -0.0627097 26 102 204
-0.158388 -0.28403 -0.104243 26 102 204
-0.15482 -0.28542 -0.162244 26 102 204
-0.154006 -0.295699 0.169364 26 102 204
-0.150526 -0.299396 0.201851 26 102 204
-0.153263 -0.301083 0.150043 26 102 204
-0.153555 -0.307883 -0.161529 26 102 204
-0.151229 -0.307923 -0.0653548 26 102 204
-0.151722 -0.3089 0.0698693 26 102 204
-0.151736 -0.314289 -0.197026 26 102 204
-0.145767 -0.305012 -0.20304 26 102 204
-0.146451 -0.325131 0.223993 26 102 204
-0.140773 -0.330849 0.0167752 26 102 204
-0.143927 -0.333563 -0.161694 26 102 204
-0.144304 -0.330791 -0.0880196 26 102 204
-0.143176 -0.3324 -0.106026 26 102 204
-0.138422 -0.347183 -0.134679 26 102 204
-0.141987 -0.340746 -0.160718 26 102 204
-0.142345 -0.348005 -0.0563433 26 102 204
-0.137087 -0.357509 -0.0710817 26 102 204
-0.136718 -0.362386 -0.0471858 26 102 204
-0.133666 -0.374742 -0.192741 26 102 204
-0.138049 -0.377655 -0.0780504 26 102 204
-0.135725 -0.364608 -0.152671 26 102 204
-0.135134 -0.365985 -0.18668 26 102 204
-0.133931 -0.370941 -0.210795 26 102 204
-0.129298 -0.376789 -0.222581 26 102 204
-0.129913 -0.382794 0.180567 26 102 204
-0.129648 -0.387227 0.120297 26 102 204
-0.133366 -0.389396 -0.0831056 26 102 204
-0.128611 -0.405815 -0.0628278 26 102 204
-0.126943 -0.397932 0.12849 26 102 204
-0.125156 -0.398408 -0.119426 26 102 204
-0.123216 -0.403451 0.100898 26 102 204
-0.128561 -0.405752 -0.0329409 26 102 204
-0.121631 -0.408042 0.196575 26 102 204
-0.125042 -0.406014 -0.0537702 26 102 204
-0.121732 -0.419042 0.0288736 26 102 204
-0.1227 -0.418263 -0.163243 26 102 204
-0.123094 -0.422219 0.0964394 26 102 204
-0.126522 -0.440659 -0.024316 26 102 204
-0.121744 -0.438586 -0.212074 26 102 204
-0.124994 -0.426763 -0.174125 26 102 204
-0.308073 0.361792 -0.240542 26 102 204
-0.30885 0.358724 -0.11166 26 102 204
-0.314516 0.365317 -0.181881 26 102 204
-0.315322 0.361077 -0.1308 26 102 204
-0.314522 0.345474 -0.207914 26 102 204
-0.315222 0.359272 -0.213195 26 102 204
-0.324217 0.341093 -0.209471 26 102 204
-0.318831 0.339888 0.213456 26 102 204
-0.141423 -0.397358 -0.0785585 26 102 204
-0.163289 -0.388246 0.0999344 26 102 204
