ply
format ascii 1.0
comment Created by Open3D
element vertex 1024
property double x
property double y
property double z
property uchar red
property uchar green
property uchar blue
end_header
-0.162827 -0.410732 0.0376172 26 102 204
-0.198368 -0.402798 0.00944984 26 102 204
-0.197532 -0.396755 0.0183516 26 102 204
-0.266726 -0.389834 0.0231073 26 102 204
-0.281075 -0.380674 0.0214571 26 102 204
-0.273586 -0.383899 0.0349901 26 102 204
-0.398109 -0.356525 0.0420295 26 102 204
-0.25085 -0.388976 0.0473197 26 102 204
-0.342993 -0.365111 0.0509788 26 102 204
-0.0628762 -0.420267 0.0444436 26 102 204
-0.0517722 -0.431121 0.0177926 26 102 204
-0.0478052 -0.429664 0.0388271 26 102 204
-0.0845262 -0.413538 0.0112711 26 102 204
-0.0706727 -0.420249 0.0391297 26 102 204
-0.46172 -0.334248 0.0553884 26 102 204
-0.0897302 -0.412492 0.0460853 26 102 204
-0.0938911 -0.409463 0.0126917 26 102 204
-0.200151 -0.380365 0.0537111 26 102 204
-0.296588 -0.361776 0.0351473 26 102 204
-0.0484356 -0.40221 0.0194239 26 102 204
-0.0634526 -0.406128 0.0399274 26 102 204
-0.238929 -0.370373 0.0512122 26 102 204
-0.146108 -0.390581 0.0129236 26 102 204
-0.407624 -0.333163 0.0490935 26 102 204
-0.127553 -0.389015 -0.00682658 26 102 204
-0.0528808 -0.39591 0.0248037 26 102 204
-0.133836 -0.391566 0.00217163 26 102 204
-0.205644 -0.367927 0.0151983 26 102 204
-0.0642211 -0.390698 0.0399005 26 102 204
-0.0423409 -0.364236 0.0198297 26 102 204
-0.0880583 -0.379312 0.0482355 26 102 204
-0.06505 -0.388649 0.00568257 26 102 204
-0.412179 -0.315009 0.0636595 26 102 204
-0.0631627 -0.37876 0.00557502 26 102 204
-0.205397 -0.351191 0.0575043 26 102 204
-0.15312 -0.364791 -0.00289084 26 102 204
-0.0282169 -0.380485 0.0319038 26 102 204
-0.31346 -0.322021 0.0162451 26 102 204
-0.0261586 -0.376317 0.0356636 26 102 204
-0.330452 -0.316149 0.00741417 26 102 204
-0.183013 -0.34268 0.0134827 26 102 204
-0.414665 -0.286146 0.0290576 26 102 204
-0.0468489 -0.36851 0.03821 26 102 204
-0.179989 -0.338051 0.0137733 26 102 204
-0.171907 -0.337112 0.0533768 26 102 204
-0.155821 -0.340568 0.0560685 26 102 204
-0.182493 -0.329366 0.0616681 26 102 204
-0.198595 -0.324802 0.0145982 26 102 204
-0.323772 -0.293711 0.0453722 26 102 204
-0.259212 -0.313862 0.0551213 26 102 204
-0.1053 -0.353207 -0.00679658 26 102 204
-0.14676 -0.339173 -0.00218557 26 102 204
-0.296927 -0.306882 0.0647314 26 102 204
-0.410808 -0.274584 0.0403805 26 102 204
-0.117059 -0.32505 0.0558901 26 102 204
-0.294719 -0.304929 0.00611951 26 102 204
-0.218707 -0.315241 0.0296448 26 102 204
-0.110685 -0.353186 0.0370711 26 102 204
-0.415921 -0.274067 0.0472309 26 102 204
-0.117309 -0.340334 0.0407806 26 102 204
-0.0884833 -0.340086 0.0109187 26 102 204
-0.20584 -0.323643 0.00703 26 102 204
-0.21025 -0.305882 0.0133709 26 102 204
-0.155685 -0.316232 0.0188841 26 102 204
-0.113203 -0.327471 0.0414035 26 102 204
0.0432906 -0.361061 0.00387532 26 102 204
-0.080229 -0.329158 0.00645989 26 102 204
-0.199987 -0.301813 0.00620782 26 102 204
-0.0211643 -0.335705 0.0224215 26 102 204
-0.0527004 -0.328109 0.0299936 26 102 204
-0.353696 -0.266305 0.0804917 26 102 204
-0.317493 -0.273882 0.00222195 26 102 204
-0.322834 -0.271437 0.0571201 26 102 204
0.150817 -0.373133 0.00388716 26 102 204
-0.203422 -0.302229 0.00125247 26 102 204
-0.104292 -0.315309 0.015978 26 102 204
-0.200025 -0.29663 0.0133549 26 102 204
-0.202648 -0.295796 0.046965 26 102 204
-0.16463 -0.298767 0.0275973 26 102 204
-0.0644116 -0.320982 0.00863653 26 102 204
-0.12338 -0.308727 0.00777667 26 102 204
-0.0588711 -0.316219 0.00330366 26 102 204
-0.313769 -0.263947 0.000496418 26 102 204
-0.377111 -0.250455 0.0594256 26 102 204
-0.192603 -0.292798 0.0550964 26 102 204
-0.0253534 -0.329758 0.0194293 26 102 204
-0.241177 -0.277736 0.0160158 26 102 204
-0.332692 -0.254878 0.0452788 26 102 204
-0.332411 -0.287226 0.0838757 26 102 204
-0.0427796 -0.327236 -0.00631275 26 102 204
-0.328654 -0.269988 -0.00312311 26 102 204
0.0682234 -0.340666 -0.00936183 26 102 204
-0.0754132 -0.307279 -0.000727982 26 102 204
0.0236713 -0.324862 0.0320251 26 102 204
-0.288479 -0.260415 0.0683822 26 102 204
0.0741182 -0.341824 -0.026214 26 102 204
0.0653796 -0.33158 0.0335552 26 102 204
0.123889 -0.343057 -0.0195156 26 102 204
-0.222947 -0.273781 0.0471855 26 102 204
-0.214386 -0.276193 0.045627 26 102 204
0.0201914 -0.32253 0.0364918 26 102 204
0.0868475 -0.335571 0.0456334 26 102 204
-0.0573571 -0.306897 0.0327872 26 102 204
-0.0305853 -0.307144 0.019172 26 102 204
0.129269 -0.346625 -0.00603215 26 102 204
-0.340954 -0.235439 0.0832924 26 102 204
-0.0292672 -0.307038 -0.0130579 26 102 204
-0.0555882 -0.300867 0.00249898 26 102 204
-0.119522 -0.29028 -0.0171661 26 102 204
-0.0416907 -0.308325 0.0622423 26 102 204
-0.388751 -0.224397 0.0433163 26 102 204
-0.38481 -0.225807 0.0445944 26 102 204
0.25814 -0.357865 -0.0682974 26 102 204
0.219014 -0.352357 0.00259149 26 102 204
-0.226416 -0.26057 0.0702205 26 102 204
0.00311844 -0.307317 0.0447723 26 102 204
-0.247147 -0.247252 0.0521241 26 102 204
-0.415034 -0.21602 0.0108034 26 102 204
-0.0449254 -0.30094 0.0544744 26 102 204
-0.240066 -0.259737 0.0804767 26 102 204
-0.19278 -0.26359 0.052649 26 102 204
0.0653211 -0.309324 0.0125225 26 102 204
-0.347599 -0.227974 0.069738 26 102 204
-0.340466 -0.227798 0.0729751 26 102 204
-0.32313 -0.232243 0.0699778 26 102 204
-0.174139 -0.262061 0.0480934 26 102 204
-0.19944 -0.254754 -0.0110767 26 102 204
-0.313064 -0.232294 0.0754706 26 102 204
-0.0967945 -0.277651 0.0546252 26 102 204
-0.167672 -0.258587 0.00812529 26 102 204
0.0364255 -0.303477 -0.0319238 26 102 204
-0.228885 -0.248042 0.0198784 26 102 204
0.235155 -0.340218 -0.143635 26 102 204
0.246885 -0.34278 -0.0475152 26 102 204
-0.261107 -0.238792 0.00243764 26 102 204
-0.135548 -0.266025 -0.0117 26 102 204
-0.0647581 -0.278024 0.0355334 26 102 204
0.230953 -0.335173 -0.138087 26 102 204
0.219492 -0.331413 -0.00100736 26 102 204
0.0794438 -0.308223 -0.0521369 26 102 204
0.23154 -0.334541 -0.0789407 26 102 204
0.165543 -0.316209 -0.0223322 26 102 204
0.225598 -0.337711 0.00370623 26 102 204
0.205279 -0.332626 0.00625202 26 102 204
-0.0228052 -0.284294 0.0546088 26 102 204
-0.115486 -0.266749 0.0590461 26 102 204
0.116286 -0.312411 0.0435725 26 102 204
0.1263 -0.308186 -0.00142872 26 102 204
0.105282 -0.306781 0.0352836 26 102 204
-0.228557 -0.233255 0.0760594 26 102 204
0.0631544 -0.291844 -0.107124 26 102 204
-0.309804 -0.215479 0.125813 26 102 204
-0.126189 -0.256853 0.0391769 26 102 204
-0.131124 -0.253957 0.0274645 26 102 204
0.171715 -0.316672 -0.00117654 26 102 204
0.193285 -0.323298 -0.128167 26 102 204
0.121257 -0.306081 -0.0737281 26 102 204
-0.16297 -0.243637 0.0686826 26 102 204
-0.193075 -0.238609 0.00325005 26 102 204
-0.0649644 -0.265733 -0.0302509 26 102 204
-0.00892658 -0.276806 0.0323022 26 102 204
0.173581 -0.31914 -0.000266843 26 102 204
0.0954064 -0.298877 -0.0598795 26 102 204
0.0194323 -0.280176 0.0342102 26 102 204
0.00378605 -0.274379 -0.00706507 26 102 204
0.0190225 -0.280348 0.0477745 26 102 204
-0.161964 -0.241702 0.0192663 26 102 204
0.236107 -0.325922 -0.0967736 26 102 204
0.0679069 -0.291952 -0.00893149 26 102 204
-0.0590684 -0.255568 -0.0152179 26 102 204
0.245157 -0.315407 0.0112569 26 102 204
0.248717 -0.327952 -0.141701 26 102 204
0.204553 -0.314632 -0.0830377 26 102 204
-0.29379 -0.21387 -0.0153659 26 102 204
0.107384 -0.289194 -0.0257218 26 102 204
0.184029 -0.304949 0.0334034 26 102 204
0.0424327 -0.271566 -0.0486326 26 102 204
-0.23316 -0.209558 0.0628954 26 102 204
0.146898 -0.291851 -0.00399767 26 102 204
0.245041 -0.312389 -0.120741 26 102 204
-0.198521 -0.216959 0.0736557 26 102 204
0.268311 -0.31942 -0.0565979 26 102 204
0.250685 -0.309516 -0.0219022 26 102 204
0.0937336 -0.300275 -0.00738594 26 102 204
-0.282627 -0.19211 0.0604676 26 102 204
0.00743639 -0.257064 -0.0351632 26 102 204
-0.070984 -0.241669 -0.00425893 26 102 204
-0.178211 -0.214446 0.03709 26 102 204
0.233624 -0.298285 -0.0305834 26 102 204
0.164508 -0.282132 -0.0068902 26 102 204
0.264317 -0.303646 -0.133639 26 102 204
0.191843 -0.285371 -0.0949767 26 102 204
0.144472 -0.276288 0.0318798 26 102 204
-0.0504527 -0.233706 0.0557497 26 102 204
0.182211 -0.278059 -0.0689684 26 102 204
0.205963 -0.285357 0.0371207 26 102 204
0.250289 -0.295112 -0.113468 26 102 204
0.253071 -0.292943 -0.0636264 26 102 204
-0.0914003 -0.217768 0.0078069 26 102 204
0.158969 -0.272304 -0.0178077 26 102 204
0.239029 -0.287986 -0.0954652 26 102 204
-0.324117 -0.164308 0.0667911 26 102 204
-0.181769 -0.197792 -0.000820569 26 102 204
-0.270625 -0.210875 0.0745827 26 102 204
0.0951151 -0.255811 -0.0773863 26 102 204
-0.279309 -0.170105 -0.0173277 26 102 204
0.102379 -0.253133 0.0377948 26 102 204
0.0869826 -0.249197 0.0240884 26 102 204
0.0135272 -0.231426 0.013068 26 102 204
0.166456 -0.262266 0.0297447 26 102 204
0.0820369 -0.238753 0.0261314 26 102 204
0.139664 -0.254058 0.0416003 26 102 204
0.205776 -0.272427 0.0367133 26 102 204
-0.313658 -0.15654 0.035115 26 102 204
0.261511 -0.272507 0.0301129 26 102 204
-0.231183 -0.176978 0.0454013 26 102 204
0.232999 -0.261138 0.0309477 26 102 204
-0.0311377 -0.219181 -0.0478134 26 102 204
0.162803 -0.257549 -0.108919 26 102 204
0.22602 -0.271279 -0.136879 26 102 204
-0.240542 -0.176182 0.0715671 26 102 204
0.163931 -0.255217 0.0411129 26 102 204
-0.360432 -0.138247 0.0831325 26 102 204
-0.127427 -0.192887 0.0553328 26 102 204
0.17524 -0.250157 0.0384767 26 102 204
-0.373687 -0.135671 0.0661644 26 102 204
-0.224391 -0.163855 0.0664687 26 102 204
-0.275486 -0.158885 0.00677137 26 102 204
0.102314 -0.232777 0.0419518 26 102 204
0.130827 -0.226416 -0.00780218 26 102 204
-0.186549 -0.157935 -0.0453782 26 102 204
0.253556 -0.262952 -0.0431515 26 102 204
-0.334837 -0.135606 0.0212997 26 102 204
0.0724826 -0.225445 0.0444673 26 102 204
0.168476 -0.240504 0.0461486 26 102 204
-0.120431 -0.180859 0.024247 26 102 204
-0.144013 -0.175824 0.0362288 26 102 204
0.215618 -0.252416 -0.0626365 26 102 204
0.168743 -0.242903 0.0173485 26 102 204
0.234489 -0.248342 0.00454333 26 102 204
-0.0472995 -0.16814 -0.00235873 26 102 204
-0.145716 -0.167859 0.0145346 26 102 204
-0.188329 -0.156995 0.00840748 26 102 204
-0.00724383 -0.196636 0.0432237 26 102 204
0.166709 -0.23365 0.0495537 26 102 204
-0.290771 -0.1339 0.0506725 26 102 204
0.247151 -0.249696 0.0235285 26 102 204
0.0508023 -0.205917 -0.00197525 26 102 204
0.256319 -0.250804 0.00383435 26 102 204
-0.239355 -0.146602 0.0288149 26 102 204
0.13764 -0.224824 0.0505883 26 102 204
-0.232811 -0.141955 0.0282066 26 102 204
0.216624 -0.227323 0.00487703 26 102 204
0.180059 -0.23051 -0.086916 26 102 204
0.251278 -0.241481 -0.0325658 26 102 204
-0.24112 -0.143173 0.0135369 26 102 204
-0.225043 -0.146832 0.051875 26 102 204
0.234202 -0.239192 0.0162887 26 102 204
-0.119794 -0.164201 -0.0251243 26 102 204
-0.360843 -0.112294 -0.00154315 26 102 204
-0.337386 -0.111176 0.0119946 26 102 204
-0.0143132 -0.185708 0.00961216 26 102 204
-0.343044 -0.11118 0.0417859 26 102 204
-0.325525 -0.121845 -0.00165578 26 102 204
0.145477 -0.219373 0.013373 26 102 204
0.0229683 -0.191206 0.0379535 26 102 204
0.0119398 -0.189362 -0.000990797 26 102 204
0.211972 -0.231228 -0.0142814 26 102 204
0.239567 -0.234523 -0.0271239 26 102 204
-0.276965 -0.129331 0.0709703 26 102 204
0.225796 -0.233068 0.00370997 26 102 204
0.0963307 -0.205496 -0.110683 26 102 204
0.16169 -0.216388 -0.0932877 26 102 204
-0.217763 -0.137852 0.0200417 26 102 204
-0.00208669 -0.180715 0.0462787 26 102 204
0.118809 -0.207775 -0.100254 26 102 204
-0.00799134 -0.180048 0.0523977 26 102 204
0.261247 -0.223674 -0.104973 26 102 204
-0.231729 -0.128832 0.00247963 26 102 204
0.0568463 -0.197037 0.015854 26 102 204
0.17663 -0.216191 -0.0960751 26 102 204
-0.320571 -0.106031 0.0228443 26 102 204
-0.0531265 -0.165409 -0.00739259 26 102 204
-0.0995513 -0.153034 0.0373865 26 102 204
-0.0443792 -0.161099 0.0156139 26 102 204
-0.106083 -0.149802 0.052768 26 102 204
-0.375101 -0.0879922 0.050004 26 102 204
-0.0442968 -0.160592 -0.0220536 26 102 204
-0.379744 -0.0853647 0.0559625 26 102 204
-0.143021 -0.137679 0.0118953 26 102 204
0.262714 -0.223917 -0.123648 26 102 204
0.124676 -0.19643 0.030779 26 102 204
0.256235 -0.221651 0.00708548 26 102 204
-0.211954 -0.125117 -8.74288e-05 26 102 204
0.0889625 -0.181639 0.0418985 26 102 204
-0.325585 -0.090598 0.0126454 26 102 204
-0.307665 -0.096145 0.0214685 26 102 204
-0.309092 -0.0927255 0.078358 26 102 204
-0.341997 -0.0838686 0.0449188 26 102 204
-0.166173 -0.129217 0.0811171 26 102 204
-0.186816 -0.120716 -0.0211321 26 102 204
-0.250726 -0.104607 0.068338 26 102 204
0.112779 -0.181091 -0.089541 26 102 204
0.230605 -0.20338 -0.0416485 26 102 204
-0.0111734 -0.15324 -0.0576172 26 102 204
0.057719 -0.16717 -0.102844 26 102 204
0.204291 -0.192551 0.0176883 26 102 204
0.230268 -0.203187 -0.0762148 26 102 204
0.212937 -0.198509 0.0075053 26 102 204
-0.0896254 -0.133227 0.0158897 26 102 204
0.0781365 -0.166689 0.0488814 26 102 204
0.245219 -0.203444 -0.0369077 26 102 204
0.243786 -0.20141 0.0327361 26 102 204
-0.132105 -0.119225 -0.00514277 26 102 204
-0.142946 -0.114473 -0.0142822 26 102 204
0.031285 -0.151116 0.0375002 26 102 204
-0.00993046 -0.142244 0.0491354 26 102 204
-0.338842 -0.0680591 0.0301923 26 102 204
-0.264631 -0.0797954 0.0262544 26 102 204
0.222286 -0.186865 0.0310826 26 102 204
-0.12852 -0.110462 -0.0102424 26 102 204
0.00341653 -0.136115 0.0435991 26 102 204
0.0321372 -0.141048 0.0459828 26 102 204
0.232795 -0.186751 0.0226022 26 102 204
-0.0675231 -0.11932 -0.0499615 26 102 204
-0.10187 -0.111298 0.0464132 26 102 204
-0.164696 -0.109564 0.0317926 26 102 204
-0.260454 -0.0742044 0.0475005 26 102 204
0.0360823 -0.140325 -0.0774081 26 102 204
-0.255114 -0.0721776 0.0067824 26 102 204
-0.0471645 -0.120133 0.0167748 26 102 204
-0.00212841 -0.126536 0.0552729 26 102 204
-0.0836171 -0.109811 -0.0200866 26 102 204
0.022287 -0.132052 0.0495657 26 102 204
0.243525 -0.177846 0.0321831 26 102 204
-0.425608 -0.217818 0.044154 26 102 204
0.220767 -0.174141 0.00868193 26 102 204
0.142118 -0.154337 0.0282263 26 102 204
0.250776 -0.173248 -0.118257 26 102 204
-0.246073 -0.0596785 0.0140771 26 102 204
0.208913 -0.158459 -0.0803888 26 102 204
0.006877 -0.114148 0.0443059 26 102 204
0.130214 -0.139562 0.0446756 26 102 204
0.261312 -0.164501 0.0318219 26 102 204
0.0499686 -0.121861 0.0542617 26 102 204
0.206236 -0.159756 0.0358981 26 102 204
-0.205855 -0.065878 0.00402475 26 102 204
-0.262168 -0.0465926 0.0725957 26 102 204
-0.215027 -0.0581104 -0.00284549 26 102 204
-0.253072 -0.049227 0.0754678 26 102 204
0.265521 -0.152033 -0.0372234 26 102 204
-0.283356 -0.0411209 0.0781682 26 102 204
0.250475 -0.153297 -0.0559045 26 102 204
0.101867 -0.124299 0.0384584 26 102 204
0.25722 -0.154231 -0.0396285 26 102 204
-0.259113 -0.0411826 0.0766965 26 102 204
-0.0580892 -0.0820591 -0.0435878 26 102 204
-0.328676 -0.0270633 0.0974675 26 102 204
0.037919 -0.101158 0.0352873 26 102 204
0.252344 -0.145086 0.00854499 26 102 204
-0.311494 -0.0219787 0.0439505 26 102 204
0.207819 -0.138625 -0.114323 26 102 204
0.19835 -0.133997 0.0412218 26 102 204
-0.05781 -0.0775836 0.0223549 26 102 204
-0.0900612 -0.0666103 0.0147326 26 102 204
0.0902131 -0.104271 -0.10236 26 102 204
0.198865 -0.131594 0.0304349 26 102 204
0.0989717 -0.112574 0.0555161 26 102 204
0.262641 -0.142233 -0.113266 26 102 204
0.200713 -0.128088 0.0319096 26 102 204
-0.172537 -0.0475153 0.0211256 26 102 204
0.188442 -0.120973 0.033718 26 102 204
0.128975 -0.101907 0.0249045 26 102 204
0.252453 -0.136078 -0.0793993 26 102 204
-0.028085 -0.0733389 -0.0132837 26 102 204
-0.218715 -0.0227807 0.077179 26 102 204
-0.0593614 -0.0613422 0.0545273 26 102 204
0.127023 -0.102414 -0.100936 26 102 204
0.245609 -0.129811 -0.120201 26 102 204
-0.0207405 -0.0670095 -0.102066 26 102 204
0.223594 -0.128402 0.0528602 26 102 204
-0.359381 0.0129252 0.0910942 26 102 204
0.227765 -0.119982 -0.129657 26 102 204
-0.0714014 -0.0543718 -0.0511 26 102 204
0.269341 -0.124568 -0.0697431 26 102 204
0.251548 -0.12233 -0.0235312 26 102 204
-0.0390374 -0.0633961 -0.00291679 26 102 204
-0.193314 -0.0307067 -0.00713282 26 102 204
-0.0028095 -0.0642835 0.00275974 26 102 204
0.166976 -0.10047 0.031477 26 102 204
0.254983 -0.120025 -0.0886685 26 102 204
-0.134494 -0.0362734 0.0724129 26 102 204
0.241668 -0.112676 -0.0738527 26 102 204
0.184827 -0.101915 -0.121878 26 102 204
-0.280636 0.00271291 0.0848147 26 102 204
-0.302464 0.0125536 -0.00924045 26 102 204
-0.239203 -0.00674822 0.0456863 26 102 204
-0.166956 -0.0186576 0.00522722 26 102 204
-0.022761 -0.05291 -0.00374165 26 102 204
-0.323837 0.0141994 -0.0138502 26 102 204
0.277154 -0.118424 -0.0360845 26 102 204
0.246824 -0.111988 -0.0482628 26 102 204
-0.0696137 -0.0395604 0.0157706 26 102 204
0.228849 -0.105149 -0.018778 26 102 204
0.187028 -0.0932664 -0.0482722 26 102 204
-0.202991 -0.0115569 0.045908 26 102 204
0.224403 -0.0997522 -0.0607185 26 102 204
0.218315 -0.099368 -0.100652 26 102 204
0.113423 -0.0770514 0.0349796 26 102 204
-0.0627751 -0.0371434 -0.00367399 26 102 204
0.15734 -0.0839792 0.0188854 26 102 204
-0.281206 0.0133291 0.0059166 26 102 204
-0.0263203 -0.0426129 -0.104228 26 102 204
-0.142146 -0.0218865 0.0149491 26 102 204
0.21728 -0.0980369 0.0365523 26 102 204
0.178844 -0.0908188 0.0181058 26 102 204
0.276738 -0.10813 -0.079901 26 102 204
-0.0370977 -0.0390384 -0.0400043 26 102 204
0.0932501 -0.068356 0.0146559 26 102 204
-0.0975928 -0.0269317 0.0691954 26 102 204
-0.116197 -0.0226804 0.0397048 26 102 204
0.0341632 -0.0538193 -0.119358 26 102 204
-0.333186 0.0271374 0.00122646 26 102 204
-0.260183 0.0120962 0.00848675 26 102 204
-0.205088 -0.00142549 -0.0217198 26 102 204
0.016741 -0.0463326 0.0583338 26 102 204
0.0604325 -0.0567031 -0.0793226 26 102 204
-0.300015 0.0213862 0.0336263 26 102 204
0.25052 -0.100372 -0.126234 26 102 204
0.10868 -0.0712458 -0.0150087 26 102 204
0.141713 -0.0764477 -0.119428 26 102 204
-0.0600457 -0.0304563 -0.0373601 26 102 204
0.222874 -0.0876003 -0.117465 26 102 204
0.102509 -0.0651945 -0.0640029 26 102 204
0.269743 -0.100665 -0.0631209 26 102 204
0.0670981 -0.0580256 -0.0339143 26 102 204
0.0695825 -0.0553153 -0.100581 26 102 204
-0.0622902 -0.0275492 -0.0929699 26 102 204
0.0788112 -0.0588532 -0.0632127 26 102 204
0.0449214 -0.0510211 -0.116497 26 102 204
0.0961349 -0.0608141 -0.0205687 26 102 204
-0.218716 0.00431103 0.00312396 26 102 204
0.0249433 -0.0466616 -0.0880188 26 102 204
0.268742 -0.0981639 0.0317593 26 102 204
0.25441 -0.0974278 -0.115136 26 102 204
0.14225 -0.0696517 0.0399628 26 102 204
0.270297 -0.0994879 -0.0643508 26 102 204
-0.213495 0.00985877 0.0468577 26 102 204
-0.325682 0.0366937 0.0845314 26 102 204
0.311628 -0.129426 -0.059328 26 102 204
0.195 -0.0812827 0.0338409 26 102 204
-0.111563 -0.0112074 0.0431061 26 102 204
0.16684 -0.0736033 -0.108805 26 102 204
-0.138778 -0.00397342 0.0560117 26 102 204
-0.156529 0.000462406 0.0670362 26 102 204
-0.289707 0.0329947 0.0805822 26 102 204
0.0115371 -0.0371182 -0.111421 26 102 204
0.232609 -0.0878657 -0.0769476 26 102 204
0.268339 -0.0831551 -0.0392118 26 102 204
0.250629 -0.0884063 0.00160966 26 102 204
0.283443 -0.0985444 0.000365911 26 102 204
0.270226 -0.0917222 -0.0737884 26 102 204
-0.0911077 -0.0110384 0.00736865 26 102 204
-0.0518778 -0.0178748 -0.0961027 26 102 204
0.0825345 -0.0438859 0.0469959 26 102 204
0.167892 -0.067922 0.0321875 26 102 204
-0.0159568 -0.0253148 -0.126498 26 102 204
-0.0198126 -0.0234292 -0.106906 26 102 204
-0.00689622 -0.0265554 -0.0615565 26 102 204
-0.113106 -0.0019269 -0.0107027 26 102 204
0.251952 -0.249562 -0.00693608 26 102 204
-0.0131835 -0.024014 -0.0215267 26 102 204
-0.0522913 -0.0151177 -0.0377516 26 102 204
-0.116313 -1.62332e-05 -0.0360321 26 102 204
-0.102768 -0.00402468 0.0308973 26 102 204
0.116774 -0.0485633 -0.0994383 26 102 204
0.106212 -0.0462077 -0.100102 26 102 204
-0.0540848 -0.0126841 0.0208755 26 102 204
-0.327015 0.0450078 0.0377816 26 102 204
-0.0369473 -0.0127805 -0.0325076 26 102 204
-0.0506409 -0.0103499 -0.0635077 26 102 204
0.269444 -0.0804258 0.0178028 26 102 204
-0.0910151 -0.000443219 -0.0114072 26 102 204
0.271284 -0.0823022 0.0254101 26 102 204
-0.278143 0.041367 -0.00545903 26 102 204
-0.097403 0.0022005 -0.0682752 26 102 204
0.299825 -0.0864889 -0.0156378 26 102 204
-0.317963 0.0528729 0.0175924 26 102 204
0.0434782 -0.0268413 -0.0288636 26 102 204
0.263077 -0.0757886 -0.104947 26 102 204
-0.068803 -0.00257584 0.057626 26 102 204
0.222473 -0.0647863 -0.0973378 26 102 204
-0.0939011 0.00570522 -0.00507038 26 102 204
0.19429 -0.0558413 -0.117815 26 102 204
0.260563 -0.0714605 -0.118759 26 102 204
-0.0697789 0.00246658 0.00304302 26 102 204
0.232263 -0.0652184 -0.122473 26 102 204
-0.229579 0.0382137 0.00167642 26 102 204
0.160549 -0.0471645 -0.11224 26 102 204
0.254657 -0.0674355 -0.112781 26 102 204
-0.0059666 -0.0136612 -0.103608 26 102 204
-0.0516092 0.00387323 -0.0982927 26 102 204
-0.0837874 0.0098183 -0.103301 26 102 204
0.274027 -0.0703645 -0.0954627 26 102 204
-0.290297 0.0513545 -0.0145174 26 102 204
-0.0481327 0.00478401 -0.0720949 26 102 204
-0.0927358 0.0140532 -0.00634076 26 102 204
-0.114982 0.019103 -0.030382 26 102 204
-0.069039 0.00911601 -0.039088 26 102 204
-0.177199 0.0356217 0.0138015 26 102 204
-0.0593165 0.00849271 -0.0131313 26 102 204
-0.117734 0.0218007 -0.048871 26 102 204
-0.183365 0.0384021 -0.00328618 26 102 204
-0.168752 0.0398416 -0.0111596 26 102 204
-0.233613 0.0529743 0.0438999 26 102 204
-0.0623967 -0.0385712 0.0192849 26 102 204
-0.211276 0.0472588 0.0101635 26 102 204
-0.269847 0.0646638 0.0111168 26 102 204
-0.262075 0.0586544 0.0304691 26 102 204
-0.050852 -0.151454 0.0219351 26 102 204
0.26536 -0.0547757 -0.0518392 26 102 204
-0.23359 0.0550407 -0.00312029 26 102 204
-0.025684 0.0113191 -0.114507 26 102 204
-0.141736 0.0374801 -0.0237015 26 102 204
-0.195848 0.0486508 0.0608567 26 102 204
-0.118319 0.0342602 0.0176255 26 102 204
0.00604633 0.00598896 0.0399471 26 102 204
-0.014227 0.0100702 -0.113702 26 102 204
0.0494035 -0.00198195 -0.116897 26 102 204
0.216884 -0.0447395 -0.0795642 26 102 204
0.276872 -0.0556987 -0.11228 26 102 204
0.0823965 -0.0103075 -0.112747 26 102 204
-0.090065 0.0303593 -0.0616132 26 102 204
-0.0760313 0.0257647 0.0328094 26 102 204
0.114777 -0.0115438 -0.121599 26 102 204
-0.0697349 0.0231956 0.0464247 26 102 204
0.184768 -0.0326986 0.0172107 26 102 204
-0.0128771 -0.0292031 -0.0685791 26 102 204
-0.0658751 0.0283056 -0.0869317 26 102 204
-0.00452856 0.0147012 -0.0444035 26 102 204
-0.062061 0.0279585 -0.0975942 26 102 204
-0.0267262 0.0228036 -0.0873899 26 102 204
-0.039647 0.0242703 -0.101661 26 102 204
0.0119922 0.0117874 -0.0976843 26 102 204
-0.0205585 0.0201067 0.038779 26 102 204
0.268507 -0.0428246 0.00428106 26 102 204
0.230528 -0.0324069 -0.125372 26 102 204
0.213358 -0.0219595 0.0386253 26 102 204
0.276131 -0.0399848 -0.0338192 26 102 204
-0.236518 0.0708099 0.0237657 26 102 204
0.00334813 0.0233202 0.0510621 26 102 204
0.0774489 0.010741 0.0217018 26 102 204
-0.29103 0.0834886 0.0910074 26 102 204
-0.0329695 0.0304083 -0.0447753 26 102 204
0.0241956 0.0199801 -0.10241 26 102 204
0.27208 -0.0382262 -0.113721 26 102 204
0.252987 -0.0317975 -0.12224 26 102 204
0.26801 -0.03287 -0.128528 26 102 204
0.132875 -0.00442948 0.0226445 26 102 204
-0.243988 0.0760389 0.0154618 26 102 204
0.228098 -0.0219672 -0.150411 26 102 204
0.0190944 0.0224783 -0.0692257 26 102 204
0.0539926 0.0153658 -0.0988328 26 102 204
-0.126753 0.0564102 0.0688008 26 102 204
0.307568 -0.0378124 -0.128794 26 102 204
0.233857 -0.0209633 0.019238 26 102 204
0.151135 0.00558559 0.0186514 26 102 204
0.324886 -0.0162715 0.0371061 26 102 204
0.225229 -0.0146341 0.0348584 26 102 204
0.191795 0.236325 -0.0380543 26 102 204
0.0751392 0.0149659 0.0541802 26 102 204
0.0385109 0.0237466 0.0245514 26 102 204
0.242609 -0.0200925 -0.0136059 26 102 204
0.0130596 0.0324075 -0.00765774 26 102 204
0.135701 0.00893951 0.015072 26 102 204
0.0595348 0.0237167 -0.0477237 26 102 204
0.279546 -0.0161306 -0.104688 26 102 204
0.248736 -0.0222192 -0.12433 26 102 204
-0.0924403 0.0576503 0.070489 26 102 204
-0.0711396 0.056486 -0.0137107 26 102 204
-0.190626 0.078858 -5.86045e-05 26 102 204
0.144562 0.00880879 0.0313416 26 102 204
-0.238603 0.0900198 0.0662297 26 102 204
-0.353255 0.115091 0.0416264 26 102 204
-0.0422402 0.0492746 -0.0922229 26 102 204
0.0787937 0.0229844 -0.131793 26 102 204
0.183983 0.00219763 0.0540513 26 102 204
0.195658 0.00421416 0.0693863 26 102 204
-0.00991191 0.0425423 -0.113643 26 102 204
0.221723 -0.0089784 0.0616029 26 102 204
0.0683681 0.0278284 0.0332903 26 102 204
-0.273452 0.107088 0.0816451 26 102 204
-0.294548 0.107188 -0.00533304 26 102 204
-0.254059 0.0997624 0.0266829 26 102 204
0.105176 0.0200294 -0.0966585 26 102 204
-0.190852 0.0856598 0.000977691 26 102 204
-0.262652 0.101381 0.0581736 26 102 204
0.253953 -0.0111855 -0.121019 26 102 204
-0.11484 0.0735585 -0.00442543 26 102 204
0.124464 0.0174438 -0.118901 26 102 204
-0.141116 0.0752904 -0.020532 26 102 204
-0.0692418 0.0624002 -0.0667203 26 102 204
0.250041 -0.005902 0.0168904 26 102 204
-0.0612936 0.0647594 -0.0206839 26 102 204
-0.301494 0.119735 0.0733841 26 102 204
-0.224318 0.101068 0.0122823 26 102 204
0.123992 0.0251206 -0.123805 26 102 204
0.125251 0.0217085 0.0501493 26 102 204
0.0130129 0.0502882 -0.120787 26 102 204
0.0232941 0.049307 -0.0785409 26 102 204
0.177093 0.0157702 0.0173724 26 102 204
0.26068 -0.000458316 0.0367326 26 102 204
-0.290058 0.118399 0.0516998 26 102 204
-0.276074 0.118236 0.0411522 26 102 204
0.0194084 0.0539601 0.0607145 26 102 204
-0.205353 0.104648 0.00952889 26 102 204
0.136676 0.0246518 0.0164221 26 102 204
0.0759999 0.041776 -0.111824 26 102 204
0.0163862 0.0582002 -0.132886 26 102 204
0.247357 0.00161587 -0.139292 26 102 204
0.052293 -0.191787 0.0451196 26 102 204
0.287784 -0.00835246 -0.0320886 26 102 204
0.290451 -0.00177005 -0.122917 26 102 204
0.122198 0.0382755 0.0603131 26 102 204
0.102577 0.0389559 -0.123811 26 102 204
-0.0228458 0.0693346 -0.0124281 26 102 204
-0.0774938 0.0833778 0.00911222 26 102 204
-0.152944 0.0957974 0.0662787 26 102 204
0.120117 0.0404607 -0.120268 26 102 204
0.095175 0.0453453 0.05472 26 102 204
-0.100522 0.0884246 0.0597179 26 102 204
0.194155 0.0285079 0.0455335 26 102 204
-0.190999 0.108661 0.0634684 26 102 204
0.0535694 0.0626604 -0.0730746 26 102 204
0.121509 0.0428243 0.0562713 26 102 204
0.210757 0.0272015 0.050642 26 102 204
-0.335736 0.142851 0.0470717 26 102 204
-0.295732 0.14388 0.0809467 26 102 204
0.322893 0.00277726 -0.127357 26 102 204
0.271128 0.0179315 0.033418 26 102 204
-0.275763 0.132925 -0.00595834 26 102 204
0.251622 0.0306291 0.0262978 26 102 204
-0.241091 0.130462 0.0370822 26 102 204
0.13855 0.0474588 0.0492426 26 102 204
0.266549 0.0205311 0.0304413 26 102 204
0.268341 0.0212065 -0.000857529 26 102 204
-0.119734 0.108857 0.0684088 26 102 204
-0.158332 0.120259 0.0188629 26 102 204
0.310009 0.019944 -0.0290524 26 102 204
0.206781 0.0352904 0.0403397 26 102 204
-0.215713 0.128092 0.0762134 26 102 204
0.022415 0.0823722 0.0504022 26 102 204
-0.293027 0.148618 0.0534403 26 102 204
-0.0558424 0.0987691 -0.00219846 26 102 204
0.298769 0.0200139 0.00506743 26 102 204
-0.0930865 0.106363 0.0634275 26 102 204
0.281388 0.0269602 -0.103673 26 102 204
0.144981 0.0582631 0.0126806 26 102 204
-0.251901 0.147614 0.0939323 26 102 204
0.285522 0.0267806 -0.00229118 26 102 204
0.130425 0.0608362 0.0528494 26 102 204
-0.119573 0.119663 0.0133224 26 102 204
-0.289749 0.163886 0.00613291 26 102 204
0.272385 0.032337 0.0230357 26 102 204
0.275493 0.0303318 0.00893346 26 102 204
0.195653 0.0500987 -0.122057 26 102 204
0.260709 0.0383483 -0.109915 26 102 204
-0.17387 0.135656 0.0681533 26 102 204
0.263329 0.0334137 0.0414694 26 102 204
-0.231988 0.144242 0.0401983 26 102 204
0.0573801 0.0848585 0.0575085 26 102 204
0.278581 0.034693 0.0646743 26 102 204
0.0268235 0.0926095 -0.093613 26 102 204
0.308484 0.0298262 -0.0320283 26 102 204
-0.180403 0.142858 0.0134567 26 102 204
0.139367 0.30065 0.0224708 26 102 204
0.263586 0.0456477 0.00403826 26 102 204
0.209434 0.0553461 -0.104138 26 102 204
0.288491 0.0477201 -0.0148288 26 102 204
0.257516 0.049474 0.00557557 26 102 204
0.228867 0.0573346 0.0678183 26 102 204
0.248582 0.0538519 -0.118466 26 102 204
0.273402 0.0438177 -0.0390815 26 102 204
0.17763 0.0679558 0.0324743 26 102 204
0.227282 0.0576576 0.0222293 26 102 204
0.0850878 0.094848 -0.10011 26 102 204
-0.186607 0.155102 0.000478813 26 102 204
-0.272716 0.172592 0.0137318 26 102 204
-0.247573 0.167085 0.0824022 26 102 204
0.173365 0.0779731 0.0589836 26 102 204
0.274341 0.0633242 0.0224166 26 102 204
-0.144389 0.148257 0.0600857 26 102 204
0.17945 0.0835128 -0.113156 26 102 204
0.191729 0.0774428 0.0438683 26 102 204
-0.179974 0.163187 0.0757481 26 102 204
0.306886 0.055671 -0.0967145 26 102 204
0.309966 0.059871 -0.0674891 26 102 204
-0.0983515 0.151397 0.00200344 26 102 204
0.314753 0.0647566 -0.11259 26 102 204
-0.0733954 0.151831 0.0758216 26 102 204
0.253405 0.0824635 0.0107495 26 102 204
-0.127342 0.166413 0.0232053 26 102 204
0.179701 0.0979309 -0.0958288 26 102 204
-0.192928 0.169011 0.040026 26 102 204
0.319985 0.0610326 -0.121687 26 102 204
-0.0115051 0.140441 -0.00581354 26 102 204
0.0589323 0.127128 0.00516382 26 102 204
0.125491 0.110401 -0.0716936 26 102 204
0.19576 0.0934401 0.0177226 26 102 204
0.0400552 0.130377 -0.0132854 26 102 204
0.246473 0.0857871 -0.0159112 26 102 204
0.223722 0.0953016 -0.101939 26 102 204
0.269843 0.0792409 -0.0923534 26 102 204
-0.10984 0.170694 0.000675212 26 102 204
0.158513 0.109808 0.0333018 26 102 204
0.264275 0.0850399 -0.0606587 26 102 204
-0.162789 0.184322 0.0803047 26 102 204
0.123985 0.11941 0.0304899 26 102 204
-0.0622833 0.165769 0.0165294 26 102 204
0.0887103 0.12971 0.0199691 26 102 204
0.178086 0.107964 -0.0751354 26 102 204
0.317671 0.0807694 0.0027138 26 102 204
0.312884 0.0815621 -0.0529461 26 102 204
0.279368 0.0889151 -0.0125107 26 102 204
0.295934 0.0886832 0.00745663 26 102 204
-0.176916 0.189271 0.00267174 26 102 204
-0.197417 0.193111 -0.000299229 26 102 204
0.260396 0.0953827 -0.0292982 26 102 204
-0.0367023 0.163691 0.0072022 26 102 204
-0.174779 0.194342 0.0375106 26 102 204
0.0421504 0.149534 0.0499658 26 102 204
0.112426 0.133041 -0.0907689 26 102 204
-0.191118 0.200263 0.0455065 26 102 204
-0.136113 0.187548 0.00834119 26 102 204
0.321518 0.0952749 -0.111533 26 102 204
0.296083 0.0987404 0.032891 26 102 204
0.283183 0.105047 -0.0106078 26 102 204
0.294222 0.0982312 -0.106955 26 102 204
0.0310374 0.16347 0.000385694 26 102 204
-0.0388977 0.176395 0.0021246 26 102 204
0.0809074 0.150661 0.0467057 26 102 204
0.0913081 0.143344 0.0463761 26 102 204
0.120997 0.141876 -0.102269 26 102 204
0.117345 0.146919 0.0523334 26 102 204
0.178784 0.135175 -0.082516 26 102 204
-0.00127418 0.175409 0.0536615 26 102 204
0.269776 0.113041 0.00262362 26 102 204
0.248627 0.117772 0.0489705 26 102 204
0.276827 0.115977 -0.0167459 26 102 204
-0.0077606 0.186485 0.0118035 26 102 204
0.192134 0.140449 -0.0743322 26 102 204
0.11699 0.155265 -0.0516076 26 102 204
0.308124 0.112677 -0.038345 26 102 204
-0.242689 0.232671 0.0348741 26 102 204
0.237007 0.132716 -0.0392841 26 102 204
0.26664 0.104044 0.0348177 26 102 204
0.222287 0.138119 -0.00099192 26 102 204
0.282668 0.124466 0.00100494 26 102 204
0.21242 0.141576 0.0488905 26 102 204
0.282094 0.120684 -0.0272276 26 102 204
0.206189 0.145381 -0.0962941 26 102 204
0.329601 0.117801 -0.0110711 26 102 204
0.16205 0.151859 0.0485699 26 102 204
0.274562 0.126234 -0.0909083 26 102 204
0.32813 0.119286 -0.0465184 26 102 204
0.255567 0.138643 0.0518308 26 102 204
0.18319 0.153792 0.0574406 26 102 204
-0.155936 0.232395 0.0289034 26 102 204
0.227098 0.146184 0.036281 26 102 204
-0.175708 0.223465 0.0591382 26 102 204
-0.156633 0.215703 0.0278223 26 102 204
-0.267842 0.256515 0.0758283 26 102 204
0.323548 0.124087 -0.0423652 26 102 204
0.271518 0.1362 -0.014144 26 102 204
-0.260723 0.258108 0.0664026 26 102 204
-0.0905305 0.218818 0.0558142 26 102 204
0.32082 0.131259 0.00695181 26 102 204
-0.167873 0.239006 0.0196629 26 102 204
0.289959 0.13825 0.0466088 26 102 204
-0.27782 0.254523 0.0758054 26 102 204
-0.134539 0.225868 0.065799 26 102 204
-0.274088 0.25966 0.0180436 26 102 204
0.200802 0.154312 -0.0842055 26 102 204
0.17761 0.170827 -0.0116059 26 102 204
0.304132 0.144357 -0.07604 26 102 204
-0.113141 0.225833 0.0617914 26 102 204
-0.00561923 0.209861 0.0418916 26 102 204
0.292056 0.147555 0.0483429 26 102 204
0.0384727 0.203959 0.0053525 26 102 204
0.337239 0.138486 -0.0165444 26 102 204
0.101493 0.191528 -0.0246328 26 102 204
0.296958 0.151648 -0.0345065 26 102 204
0.153643 0.184733 0.0484582 26 102 204
0.224196 0.166781 0.0470357 26 102 204
-0.113896 0.242635 0.00590232 26 102 204
-0.236061 0.267593 0.0129967 26 102 204
-0.226232 0.266481 0.0656617 26 102 204
-0.288021 0.276095 0.0286682 26 102 204
0.306354 0.155232 -0.0706475 26 102 204
0.201496 0.17686 -0.0902508 26 102 204
0.233663 0.174333 -0.0440457 26 102 204
0.23723 0.182555 0.0615131 26 102 204
0.259305 0.168271 -0.0944961 26 102 204
0.316015 0.157307 -0.0757599 26 102 204
-0.11944 0.252469 0.0673142 26 102 204
-0.276321 0.28692 0.0710663 26 102 204
0.328695 0.161903 0.0160723 26 102 204
0.0988436 0.212562 0.00721047 26 102 204
0.289735 0.168074 -0.115954 26 102 204
0.233256 0.183283 -0.0997768 26 102 204
0.253228 0.179118 -0.097295 26 102 204
0.221717 0.18355 0.0400167 26 102 204
-0.184816 0.273741 0.0123946 26 102 204
0.238163 0.182453 -0.104664 26 102 204
0.319528 0.163241 -0.0519165 26 102 204
-0.156036 0.279949 0.0626508 26 102 204
-0.0105249 0.242836 0.0131188 26 102 204
-0.0596011 0.249376 -0.00359776 26 102 204
-0.246069 0.29527 0.0449548 26 102 204
-0.110564 0.266247 0.0501073 26 102 204
-0.0834958 0.258684 -0.00207021 26 102 204
-0.0318462 0.248504 0.0491748 26 102 204
-0.198871 0.285762 0.0276953 26 102 204
-0.0638572 0.251561 0.0294693 26 102 204
-0.0821416 0.259169 0.0411622 26 102 204
-0.181549 0.278344 0.00553589 26 102 204
-0.0515671 0.256624 0.0460787 26 102 204
-0.127411 0.271996 0.052678 26 102 204
-0.158937 0.279062 0.0469186 26 102 204
-0.224827 0.293934 0.0265576 26 102 204
-0.277228 0.306828 0.0362854 26 102 204
0.220117 0.200964 0.0517322 26 102 204
-0.296709 0.316361 0.0583993 26 102 204
0.185316 0.211516 -0.0137432 26 102 204
0.352218 0.179527 -0.0240223 26 102 204
0.126763 0.229926 0.0355272 26 102 204
0.367431 0.178539 -0.0997606 26 102 204
0.335705 0.188363 0.0216367 26 102 204
0.0947992 0.240429 0.0412814 26 102 204
0.145551 0.227218 -0.0435867 26 102 204
0.186588 0.235415 -0.0446192 26 102 204
0.182587 0.223172 -0.0873379 26 102 204
0.265338 0.204267 0.0539493 26 102 204
0.314231 0.192281 0.0459513 26 102 204
0.244843 0.21502 -0.0819962 26 102 204
0.148853 0.236045 -0.0331847 26 102 204
0.155674 0.232852 0.0488381 26 102 204
-0.0581827 0.274 0.031656 26 102 204
-0.146249 0.296938 0.000629524 26 102 204
-0.00159988 0.269401 0.0409995 26 102 204
-0.0557733 0.285314 0.00399167 26 102 204
0.338009 0.202551 -0.0474102 26 102 204
-0.0595989 0.278248 0.0404218 26 102 204
0.150909 0.244426 0.0125224 26 102 204
-0.115681 0.301857 0.074845 26 102 204
0.335084 0.210023 0.0232796 26 102 204
-0.133349 0.308363 0.0144783 26 102 204
0.310572 0.21044 -0.0918155 26 102 204
0.218388 0.233104 0.0159596 26 102 204
-0.0421161 0.281905 0.0496484 26 102 204
-0.117059 0.308294 0.04588 26 102 204
0.179413 0.242589 0.029301 26 102 204
0.345725 0.212141 -0.0722902 26 102 204
-0.193439 0.323762 0.0338764 26 102 204
0.314256 0.221401 -0.0948357 26 102 204
0.293133 0.221277 0.0363645 26 102 204
0.187209 0.240007 -0.0738561 26 102 204
0.203549 0.245577 -0.0691275 26 102 204
0.177893 0.247373 -0.00208409 26 102 204
-0.120473 0.311262 0.0540253 26 102 204
0.304818 0.224713 -0.110691 26 102 204
0.280921 0.23055 -0.0339873 26 102 204
0.213894 0.257374 0.0311962 26 102 204
-0.00447401 0.283899 0.0479234 26 102 204
0.270404 0.234572 -0.00239462 26 102 204
0.121182 0.269023 -0.0164793 26 102 204
0.0384184 0.276139 0.0476671 26 102 204
-0.0749679 0.306548 0.0474823 26 102 204
-0.170377 0.330966 0.0563097 26 102 204
-0.10774 0.319688 0.0454146 26 102 204
0.112 0.272262 -0.00309251 26 102 204
0.351595 0.226297 0.0607451 26 102 204
-0.0698632 0.311596 0.0491506 26 102 204
-0.153786 0.329983 0.00567379 26 102 204
0.295216 0.23518 -0.0469938 26 102 204
0.188723 0.259503 -0.014798 26 102 204
0.226755 0.252173 -0.0398165 26 102 204
0.419412 0.217463 -0.121521 26 102 204
0.212435 0.253475 -0.0184302 26 102 204
0.365397 0.226656 -0.18238 26 102 204
0.347082 0.226122 -0.0982018 26 102 204
-0.16651 0.337283 0.035343 26 102 204
0.265844 0.24383 -0.0541055 26 102 204
-0.0776747 0.318794 0.0684721 26 102 204
0.345011 0.232065 0.00513097 26 102 204
0.106408 0.282399 -0.034799 26 102 204
0.244764 0.254987 -0.0394218 26 102 204
0.361544 0.230671 -0.0882883 26 102 204
0.252631 0.256637 -0.029557 26 102 204
0.351044 0.23672 -0.0770851 26 102 204
0.296074 0.241986 -0.0771109 26 102 204
0.325531 0.241204 -0.0740159 26 102 204
0.242119 0.257293 -0.0133759 26 102 204
0.219712 0.263364 -0.00234672 26 102 204
0.262486 0.257499 -0.0180104 26 102 204
0.30074 0.246969 0.024539 26 102 204
0.26654 0.259338 -0.036438 26 102 204
0.292958 0.251789 -0.0379185 26 102 204
0.168954 0.276565 0.00707499 26 102 204
0.24695 0.262307 -0.00210848 26 102 204
0.036601 0.31504 0.0167246 26 102 204
0.24267 0.270373 -0.00882172 26 102 204
0.0438641 0.301398 0.0118646 26 102 204
-0.0778239 0.33156 0.0511724 26 102 204
-0.185857 0.35766 0.0368879 26 102 204
-0.148959 0.34245 0.0599474 26 102 204
-0.0920741 0.332348 0.0478028 26 102 204
-0.0705427 0.333689 0.0129555 26 102 204
0.376092 0.238888 -0.150365 26 102 204
-0.129083 0.349079 0.0335962 26 102 204
0.189697 0.276663 0.00393765 26 102 204
-0.150883 0.356806 0.0235652 26 102 204
0.0598888 0.308763 0.0323406 26 102 204
-0.0112941 0.32528 0.0288137 26 102 204
-0.146213 0.355921 0.0176626 26 102 204
0.18641 0.289788 -0.0160384 26 102 204
-0.185009 0.36572 0.0691242 26 102 204
-0.0706741 0.349688 0.0369006 26 102 204
0.0538362 0.318419 0.0484137 26 102 204
-0.076427 0.347215 0.0614861 26 102 204
-0.0773145 0.34712 0.00250186 26 102 204
0.104993 0.313938 0.0618124 26 102 204
-0.239919 0.37675 0.0270966 26 102 204
-0.0568389 0.349174 0.0508678 26 102 204
0.108112 0.308771 0.0504945 26 102 204
0.146625 0.309198 0.0134282 26 102 204
-0.233178 0.386492 0.07384 26 102 204
0.116013 0.315013 -0.00465855 26 102 204
-0.171746 0.368234 0.0482497 26 102 204
-0.0966526 0.350552 0.0147112 26 102 204
0.114451 0.311988 0.0281655 26 102 204
-0.0523323 0.349177 0.046651 26 102 204
-0.192996 0.380499 0.0412021 26 102 204
0.146477 0.310702 0.0123126 26 102 204
-0.123457 0.365574 0.0153027 26 102 204
-0.146573 0.386278 0.0576613 26 102 204
-0.154594 0.376798 0.0684175 26 102 204
-0.245746 0.39833 0.051772 26 102 204
0.179116 0.309193 0.020902 26 102 204
-0.208326 0.38843 0.0662172 26 102 204
0.00773406 0.348601 0.010699 26 102 204
-0.0347673 0.353175 0.0563779 26 102 204
0.05548 0.33629 0.00221857 26 102 204
-0.0362142 0.359752 0.00894131 26 102 204
-0.0596284 0.366133 0.0159433 26 102 204
-0.194883 0.396591 0.0253179 26 102 204
0.114482 0.329072 0.0277179 26 102 204
-0.15175 0.382002 0.00640559 26 102 204
0.103914 0.332244 0.010252 26 102 204
-0.235094 0.398516 0.0142153 26 102 204
0.0168442 0.352613 0.0551668 26 102 204
0.0366943 0.356054 0.0528733 26 102 204
-0.0991942 0.381474 0.0578357 26 102 204
-0.0777104 0.378867 0.0293571 26 102 204
0.0684541 0.342606 0.00136659 26 102 204
-0.276734 0.418079 0.0425865 26 102 204
-0.255179 0.412546 0.0349922 26 102 204
-0.248349 0.422839 0.0573013 26 102 204
0.0617944 0.347164 0.045967 26 102 204
-0.012977 0.374617 0.0178476 26 102 204
-0.0885513 0.390399 0.0133468 26 102 204
-0.204741 0.419168 0.0264305 26 102 204
0.114813 0.355521 0.0199426 26 102 204
0.106478 0.347926 0.0334662 26 102 204
0.0744049 0.35717 0.0380241 26 102 204
0.0460028 0.37032 0.001051 26 102 204
0.0789246 0.35795 0.0496118 26 102 204
-0.22676 0.42169 0.0535082 26 102 204
-0.106436 0.403283 0.0351708 26 102 204
-0.0694794 0.392896 0.00931985 26 102 204
0.0896417 0.363229 0.0413017 26 102 204
0.139767 0.356193 0.0164408 26 102 204
-0.226435 0.430125 0.0193021 26 102 204
-0.147997 0.416278 0.0280089 26 102 204
-0.269774 0.443167 0.0358311 26 102 204
-0.0643173 0.399616 0.00233191 26 102 204
-0.24826 0.430209 0.0361272 26 102 204
-0.095675 0.407288 0.0279058 26 102 204
-0.0631714 0.404739 0.0610145 26 102 204
-0.163007 0.425929 0.0282733 26 102 204
-0.043427 0.397379 0.01291 26 102 204
-0.0355927 0.398559 0.0354565 26 102 204
0.131088 0.369962 0.0206894 26 102 204
-0.0801308 0.412122 0.0177629 26 102 204
-0.314414 0.463985 0.0705545 26 102 204
0.0753044 0.380838 0.0366002 26 102 204
0.109315 0.370148 0.00754276 26 102 204
0.112243 0.372353 0.0263184 26 102 204
-0.0615449 0.418231 0.0497979 26 102 204
0.0052247 0.407352 0.0540917 26 102 204
-0.0514797 0.412169 0.0464453 26 102 204
-0.242629 0.442694 0.0451049 26 102 204
-0.153701 0.43704 0.0583472 26 102 204
-0.287344 0.461628 0.0492017 26 102 204
-0.220397 0.458076 0.0228433 26 102 204
0.0495929 0.398122 0.0513479 26 102 204
-0.299621 0.454185 0.0585015 26 102 204
-0.00293214 0.406668 0.0108715 26 102 204
-0.0874241 0.416867 0.021244 26 102 204
-0.246648 0.466229 0.0465163 26 102 204
0.0309099 0.403995 0.0470654 26 102 204
-0.01437 0.405373 0.0147154 26 102 204
0.132586 0.391911 0.0180237 26 102 204
-0.295052 0.476994 0.0380007 26 102 204
-0.290622 0.463342 0.0377905 26 102 204
0.0706247 0.396229 0.0149082 26 102 204
-0.0698532 0.429786 0.0435956 26 102 204
-0.137134 0.442335 0.0220602 26 102 204
-0.0196769 0.416391 0.0270128 26 102 204
0.0384643 0.414966 0.0197749 26 102 204
-0.0340209 0.427491 0.0350283 26 102 204
-0.0993001 0.440776 0.0441781 26 102 204
-0.129317 0.45311 0.0284798 26 102 204
-0.279281 0.474061 0.0367104 26 102 204
