ply
format ascii 1.0
comment Created by Open3D
element vertex 1024
property double x
property double y
property double z
property uchar red
property uchar green
property uchar blue
end_header
0.0624533 -0.210054 0.366374 26 102 204
0.0587699 -0.213124 -0.302301 26 102 204
0.0630633 -0.20625 0.381322 26 102 204
0.063716 -0.202095 0.3806 26 102 204
0.0601643 -0.209138 -0.24961 26 102 204
0.061425 -0.204948 0.0340599 26 102 204
0.0562564 -0.199099 0.17719 26 102 204
0.0586887 -0.206692 -0.356465 26 102 204
0.0610689 -0.194698 0.387395 26 102 204
0.0567418 -0.204889 -0.38921 26 102 204
0.0607694 -0.205726 -0.402659 26 102 204
0.0601915 -0.206518 0.343151 26 102 204
0.0624234 -0.202835 -0.45889 26 102 204
0.0607668 -0.205671 -0.00727904 26 102 204
0.0559196 -0.202116 -0.17223 26 102 204
0.0660842 -0.198702 -0.224547 26 102 204
0.0618442 -0.202401 0.21437 26 102 204
0.0633903 -0.198185 0.428703 26 102 204
0.05341 -0.199197 -0.19997 26 102 204
0.0618615 -0.199702 -0.0982516 26 102 204
0.0624968 -0.200332 -0.0747344 26 102 204
0.0552709 -0.197765 0.309583 26 102 204
0.0573249 -0.199059 0.0834216 26 102 204
0.055175 -0.202019 -0.121112 26 102 204
0.221745 -0.074722 0.463472 26 102 204
0.055333 -0.189656 -0.10125 26 102 204
0.0544499 -0.198436 -0.245036 26 102 204
0.231532 -0.111888 0.470101 26 102 204
0.199789 -0.141259 -0.45523 26 102 204
0.196256 -0.135814 0.470693 26 102 204
0.164999 -0.147529 0.468126 26 102 204
0.145262 -0.146634 -0.47406 26 102 204
0.146874 -0.159514 -0.453504 26 102 204
0.111798 -0.165719 -0.451386 26 102 204
0.124319 -0.167365 -0.442484 26 102 204
0.0892527 -0.178876 0.413742 26 102 204
0.0949776 -0.179002 -0.436168 26 102 204
0.0764127 -0.189058 -0.455246 26 102 204
0.0780379 -0.185852 -0.46874 26 102 204
0.0759619 -0.188375 0.421955 26 102 204
0.0661026 -0.186276 -0.0131601 26 102 204
0.0753031 -0.190859 -0.242944 26 102 204
0.0666817 -0.19178 0.331995 26 102 204
0.0649425 -0.191299 -0.239747 26 102 204
0.0640717 -0.19408 0.392772 26 102 204
0.0643386 -0.192193 -0.0770234 26 102 204
0.0605414 -0.189616 0.441942 26 102 204
0.0654839 -0.191497 -0.0229347 26 102 204
0.0643884 -0.189918 0.080439 26 102 204
0.0597195 -0.192096 -0.19258 26 102 204
0.060223 -0.191767 0.418696 26 102 204
0.0593668 -0.190615 -0.379867 26 102 204
0.0622512 -0.190632 0.210758 26 102 204
0.0720424 -0.189241 0.431829 26 102 204
0.0593046 -0.189086 -0.147742 26 102 204
0.0817975 -0.177594 0.291172 26 102 204
0.0570443 -0.179361 0.267184 26 102 204
0.0654511 -0.184222 0.185246 26 102 204
0.05887 -0.172601 -0.0300562 26 102 204
0.0700554 -0.184604 -0.0365357 26 102 204
0.0664829 -0.19011 -0.305679 26 102 204
0.0549922 -0.186493 -0.283746 26 102 204
0.0615805 -0.190033 -0.22694 26 102 204
0.0671054 -0.190339 0.0511527 26 102 204
0.0633029 -0.190603 -0.108814 26 102 204
0.0588879 -0.190356 0.469022 26 102 204
0.0626702 -0.188023 0.445519 26 102 204
0.0679306 -0.188446 -0.130675 26 102 204
0.171349 -0.145077 -0.477514 26 102 204
0.215199 -0.112634 -0.46441 26 102 204
0.0602754 -0.1906 -0.29335 26 102 204
0.0603334 -0.187842 -0.297017 26 102 204
0.0529247 -0.190003 -0.303175 26 102 204
0.0603151 -0.186131 -0.149803 26 102 204
0.0689012 -0.185492 -0.246453 26 102 204
0.0619912 -0.187957 0.460692 26 102 204
0.0684022 -0.184427 0.0796931 26 102 204
0.0766156 -0.183396 -0.47828 26 102 204
0.105959 -0.163153 -0.435325 26 102 204
0.202914 -0.123136 0.459993 26 102 204
0.0652038 -0.180325 -0.455979 26 102 204
0.0556136 -0.18528 -0.452946 26 102 204
0.0668438 -0.185812 -0.159006 26 102 204
0.0733381 -0.180316 -0.247019 26 102 204
0.0698249 -0.182847 -0.408516 26 102 204
0.0621002 -0.178707 -0.272558 26 102 204
0.0666211 -0.182665 -0.12815 26 102 204
0.071924 -0.181304 -0.343301 26 102 204
0.0605851 -0.185261 -0.0596961 26 102 204
0.222496 -0.119378 -0.428718 26 102 204
0.205099 -0.110313 -0.432055 26 102 204
0.0897541 -0.175023 0.415576 26 102 204
0.0661688 -0.179363 0.0802378 26 102 204
0.18191 -0.133471 0.437952 26 102 204
0.177608 -0.131711 -0.442616 26 102 204
0.235181 -0.106739 0.457885 26 102 204
0.0823602 -0.16602 0.457953 26 102 204
0.0777236 -0.177094 -0.461603 26 102 204
0.0522923 -0.180586 0.0681504 26 102 204
0.0671711 -0.176909 -0.261466 26 102 204
0.0582202 -0.183183 -0.0578721 26 102 204
0.0686177 -0.178314 0.478429 26 102 204
0.0606249 -0.180817 0.0627021 26 102 204
0.0588773 -0.182797 -0.236443 26 102 204
0.244126 -0.103962 -0.474978 26 102 204
0.0591452 -0.183161 0.466623 26 102 204
0.225605 -0.106517 -0.449947 26 102 204
0.144884 -0.140779 -0.457916 26 102 204
0.104609 -0.161222 0.370548 26 102 204
0.194215 -0.124487 -0.439587 26 102 204
0.23819 -0.0943594 -0.484136 26 102 204
0.0622704 -0.17875 0.446295 26 102 204
0.18269 -0.127209 -0.450231 26 102 204
0.0574383 -0.18074 -0.307481 26 102 204
0.0847896 -0.170799 0.482037 26 102 204
0.0639042 -0.176833 0.19932 26 102 204
0.0616977 -0.179209 0.0977241 26 102 204
0.0552074 -0.180031 0.446803 26 102 204
0.0748588 -0.172616 -0.444402 26 102 204
0.0580534 -0.177944 0.136682 26 102 204
0.0599787 -0.178758 -0.000659435 26 102 204
0.213551 -0.112855 -0.446767 26 102 204
0.0612928 -0.182568 -0.376833 26 102 204
0.164818 -0.129184 -0.454454 26 102 204
0.0743222 -0.170896 0.204874 26 102 204
0.0731933 -0.171913 0.37993 26 102 204
0.0684657 -0.173012 -0.37849 26 102 204
0.0647447 -0.172707 -0.363077 26 102 204
0.0704276 -0.174749 -0.18928 26 102 204
0.0687125 -0.17135 -0.132296 26 102 204
0.0666903 -0.174239 0.0874589 26 102 204
0.0555637 -0.169578 0.0454293 26 102 204
0.0654212 -0.173605 -0.170325 26 102 204
0.0630322 -0.171656 0.417559 26 102 204
0.0621603 -0.174622 -0.309453 26 102 204
0.0482728 -0.168675 0.135739 26 102 204
0.261116 -0.0937371 0.471392 26 102 204
0.237438 -0.0990059 -0.451263 26 102 204
0.212124 -0.110021 0.477758 26 102 204
0.201514 -0.111311 -0.458185 26 102 204
0.186293 -0.123119 0.479731 26 102 204
0.185089 -0.10163 0.482936 26 102 204
0.0717637 -0.168935 0.250897 26 102 204
0.0873288 -0.156414 0.48356 26 102 204
0.067003 -0.172085 0.18517 26 102 204
0.0677016 -0.173089 -0.192624 26 102 204
0.0669552 -0.174368 -0.388902 26 102 204
0.0714713 -0.172884 0.0204333 26 102 204
0.0559669 -0.17745 -0.291968 26 102 204
0.0595485 -0.179596 0.302983 26 102 204
0.0553208 -0.169641 0.00973189 26 102 204
0.0582147 -0.177499 0.168149 26 102 204
0.0584859 -0.176931 0.00570465 26 102 204
0.0591069 -0.177974 -0.454268 26 102 204
0.0563895 -0.178205 -0.242901 26 102 204
0.0557727 -0.178225 -0.478479 26 102 204
0.0514303 -0.179201 0.0818213 26 102 204
0.0535518 -0.179113 0.477328 26 102 204
0.0554348 -0.177858 -0.253501 26 102 204
0.0496608 -0.181333 -0.239431 26 102 204
0.0558318 -0.18102 0.357191 26 102 204
0.0544419 -0.176715 0.283657 26 102 204
0.0486841 -0.178505 -0.433694 26 102 204
0.0507503 -0.175393 -0.226656 26 102 204
0.0495024 -0.174741 0.170208 26 102 204
0.0474367 -0.176574 0.00801144 26 102 204
0.0487695 -0.173491 -0.413015 26 102 204
0.0521802 -0.166309 0.0809867 26 102 204
0.0483283 -0.174141 0.081021 26 102 204
0.0488279 -0.170843 0.382215 26 102 204
0.0526736 -0.171058 0.436211 26 102 204
0.0499485 -0.171241 0.203301 26 102 204
0.0475282 -0.170773 0.46144 26 102 204
0.0471729 -0.171021 -0.20871 26 102 204
0.0478849 -0.168658 0.33293 26 102 204
0.0492714 -0.170055 -0.416928 26 102 204
0.0489115 -0.166622 -0.239255 26 102 204
0.0518432 -0.166015 0.49625 26 102 204
0.0422206 -0.165545 0.237265 26 102 204
0.0455687 -0.167158 -0.426248 26 102 204
0.0480614 -0.166387 0.0544251 26 102 204
0.0481054 -0.166924 -0.0610131 26 102 204
0.0498143 -0.165343 0.0518773 26 102 204
0.0484035 -0.164356 -0.455638 26 102 204
0.0458876 -0.164651 0.102133 26 102 204
0.0420421 -0.165192 0.0625733 26 102 204
0.0460815 -0.16351 -0.289156 26 102 204
0.045235 -0.163152 -0.113167 26 102 204
0.0435611 -0.162824 -0.446916 26 102 204
0.0476565 -0.161709 0.457175 26 102 204
0.047842 -0.16218 0.149885 26 102 204
0.0429992 -0.160876 -0.0985109 26 102 204
0.0485522 -0.154288 -0.346682 26 102 204
0.0416553 -0.160369 -0.279968 26 102 204
0.0459205 -0.159616 0.0363058 26 102 204
0.0467363 -0.158351 0.324785 26 102 204
0.0414962 -0.157707 -0.0507369 26 102 204
0.0438205 -0.158528 0.426697 26 102 204
0.0493731 -0.154247 -0.453725 26 102 204
0.041594 -0.158368 0.421536 26 102 204
0.0408149 -0.157678 0.356124 26 102 204
0.0427236 -0.156093 -0.038623 26 102 204
0.041032 -0.157707 -0.401878 26 102 204
0.0412225 -0.156445 0.269126 26 102 204
0.0412344 -0.155249 0.241549 26 102 204
0.0447723 -0.149462 0.206243 26 102 204
0.0422118 -0.154726 0.119929 26 102 204
0.0426795 -0.15404 -0.240223 26 102 204
0.0397084 -0.153263 -0.401047 26 102 204
0.0392 -0.1552 -0.0742456 26 102 204
0.0358177 -0.146916 -0.433314 26 102 204
0.043383 -0.15099 -0.479001 26 102 204
0.0370931 -0.153094 -0.369451 26 102 204
0.0397934 -0.152112 -0.355318 26 102 204
0.040334 -0.149619 -0.163296 26 102 204
0.0393392 -0.148783 0.0671379 26 102 204
0.0391893 -0.151275 0.20859 26 102 204
0.0390692 -0.149603 -0.358708 26 102 204
0.0324704 -0.123108 -0.234813 26 102 204
0.0408764 -0.145556 0.141601 26 102 204
0.037833 -0.147387 -0.163276 26 102 204
0.0403295 -0.144245 0.484307 26 102 204
0.0375277 -0.145596 -0.45561 26 102 204
0.0398298 -0.144827 0.131406 26 102 204
0.0380262 -0.1472 -0.265108 26 102 204
0.0334305 -0.139579 -0.0212366 26 102 204
0.0225806 -0.102975 -0.232389 26 102 204
0.0375274 -0.145465 0.217345 26 102 204
0.133923 -0.101338 0.495361 26 102 204
0.0348446 -0.143807 0.102998 26 102 204
0.035571 -0.14207 -0.459166 26 102 204
0.0354336 -0.143506 -0.0484063 26 102 204
0.0372167 -0.141636 0.219136 26 102 204
0.0376685 -0.140531 -0.272657 26 102 204
0.0354762 -0.14345 -0.0243506 26 102 204
0.0343965 -0.14303 -0.212303 26 102 204
0.0367504 -0.138977 0.394507 26 102 204
0.0345043 -0.141259 -0.401863 26 102 204
0.0342469 -0.140578 0.0330551 26 102 204
0.0364302 -0.136272 0.294921 26 102 204
0.0347114 -0.138104 -0.433736 26 102 204
0.0344787 -0.14019 0.0606938 26 102 204
0.0373867 -0.133618 -0.0537213 26 102 204
0.0329012 -0.138586 0.209082 26 102 204
0.0350695 -0.135713 -0.049434 26 102 204
0.0345706 -0.135657 -0.198778 26 102 204
0.0374999 -0.134299 -0.48726 26 102 204
0.0358391 -0.132411 -0.450933 26 102 204
0.0356751 -0.133259 0.408054 26 102 204
0.0327684 -0.135427 0.359148 26 102 204
0.031709 -0.127777 0.0337697 26 102 204
0.0313892 -0.134423 0.327293 26 102 204
0.0340208 -0.129603 0.23719 26 102 204
0.0304562 -0.128713 0.141489 26 102 204
0.0317063 -0.1309 -0.0340141 26 102 204
0.0318234 -0.126436 -0.12325 26 102 204
0.0315469 -0.130529 0.375938 26 102 204
0.0380716 -0.127253 0.458869 26 102 204
0.0303795 -0.130616 -0.114619 26 102 204
0.030289 -0.128213 -0.0153971 26 102 204
0.0286432 -0.128743 0.273558 26 102 204
0.0335251 -0.125935 -0.259874 26 102 204
0.0338873 -0.125847 -0.360935 26 102 204
0.0328523 -0.125858 -0.495187 26 102 204
0.0305434 -0.125373 0.414097 26 102 204
0.0314525 -0.125224 0.125114 26 102 204
0.028909 -0.125658 -0.094633 26 102 204
0.0315792 -0.12613 -0.0215426 26 102 204
0.0313136 -0.122882 -0.468832 26 102 204
0.0275207 -0.123784 -0.327953 26 102 204
0.0344728 -0.121662 0.502886 26 102 204
0.029507 -0.119402 0.280962 26 102 204
0.0282166 -0.119007 -0.0501426 26 102 204
0.0297968 -0.115315 0.481183 26 102 204
0.0230975 -0.113059 -0.277443 26 102 204
0.0241852 -0.117225 -0.467201 26 102 204
0.0275475 -0.120246 -0.10074 26 102 204
0.0264805 -0.118502 0.19886 26 102 204
0.0333369 -0.135063 -0.11076 26 102 204
0.026173 -0.119101 0.0742729 26 102 204
0.026192 -0.117498 -0.473542 26 102 204
0.0270258 -0.115537 0.0936518 26 102 204
0.0238741 -0.117512 0.162161 26 102 204
0.0247588 -0.11668 -0.295612 26 102 204
0.0252915 -0.116499 0.280966 26 102 204
0.0260847 -0.115582 -0.469222 26 102 204
0.0272311 -0.116426 0.477368 26 102 204
0.023609 -0.114411 -0.276346 26 102 204
0.0239306 -0.117998 0.16544 26 102 204
0.0262944 -0.114203 0.313048 26 102 204
0.0245926 -0.112135 -0.335879 26 102 204
0.0235236 -0.110529 -0.329817 26 102 204
0.0224431 -0.107081 -0.0467447 26 102 204
0.0243876 -0.110888 -0.0870391 26 102 204
0.0222674 -0.109879 0.369309 26 102 204
0.0249612 -0.108858 -0.415036 26 102 204
0.0222533 -0.11033 0.0219902 26 102 204
0.0224781 -0.107885 0.412177 26 102 204
0.0201024 -0.105902 0.339555 26 102 204
0.0220992 -0.103805 0.0566294 26 102 204
0.0222718 -0.106726 -0.131741 26 102 204
0.0208304 -0.106853 -0.059604 26 102 204
0.0205652 -0.104903 -0.470277 26 102 204
0.0200911 -0.103481 -0.307665 26 102 204
0.0214374 -0.106051 0.415668 26 102 204
0.020863 -0.105887 -0.0196371 26 102 204
0.0204385 -0.101693 -0.463237 26 102 204
0.0200737 -0.101597 -0.162509 26 102 204
0.0175626 -0.0999393 -0.0858477 26 102 204
0.0189717 -0.102471 0.290768 26 102 204
0.0207061 -0.0990712 -0.0102615 26 102 204
0.0228122 -0.0998232 0.0623911 26 102 204
0.0176182 -0.101559 -0.139025 26 102 204
0.0183574 -0.100777 0.443659 26 102 204
0.0192913 -0.0963335 -0.448864 26 102 204
0.0187906 -0.0970836 -0.385781 26 102 204
0.017396 -0.0979574 -0.384645 26 102 204
0.0202961 -0.0970763 0.155442 26 102 204
0.01696 -0.0963951 -0.118772 26 102 204
0.0207179 -0.0951758 -0.454269 26 102 204
0.0184901 -0.0968534 0.26734 26 102 204
0.0188542 -0.0985418 -0.0794182 26 102 204
0.0174234 -0.0949513 -0.029804 26 102 204
0.0157647 -0.0950723 0.130662 26 102 204
0.0168654 -0.0951555 0.000660156 26 102 204
0.0167297 -0.0933755 0.0453834 26 102 204
0.0217066 -0.0918711 0.474859 26 102 204
0.0132785 -0.0928935 -0.181377 26 102 204
0.0205829 -0.092398 -0.115501 26 102 204
0.0174333 -0.0904979 0.508433 26 102 204
0.0135488 -0.0925898 -0.000254611 26 102 204
0.0179142 -0.0894496 0.265258 26 102 204
0.0139114 -0.0926768 0.0847045 26 102 204
0.0166121 -0.0912306 -0.00229068 26 102 204
0.0155716 -0.0914718 -0.0863883 26 102 204
0.0192987 -0.0874343 0.473923 26 102 204
0.0145561 -0.0893688 -0.19336 26 102 204
0.00581714 -0.0896958 -0.476517 26 102 204
0.0116794 -0.0865207 -0.0779293 26 102 204
0.0160544 -0.0862591 0.184691 26 102 204
0.0115999 -0.0893061 -0.198599 26 102 204
0.0121581 -0.0866775 0.486275 26 102 204
0.0226298 -0.0769056 -0.320644 26 102 204
0.0131245 -0.0861252 0.362581 26 102 204
0.0125148 -0.0830679 -0.174143 26 102 204
0.0140162 -0.084168 -0.451469 26 102 204
0.01231 -0.0811059 0.106613 26 102 204
0.011173 -0.0827158 0.13105 26 102 204
0.0102208 -0.0821818 -0.492702 26 102 204
0.0103562 -0.0835251 0.472881 26 102 204
0.0116174 -0.0826785 0.345535 26 102 204
0.00861886 -0.0803611 -0.486079 26 102 204
0.010156 -0.0789656 -0.430202 26 102 204
0.0101416 -0.0799918 -0.362193 26 102 204
0.00937357 -0.0804813 0.0380854 26 102 204
0.00816556 -0.0803737 0.502478 26 102 204
0.0105836 -0.0787154 0.368848 26 102 204
0.00828131 -0.0825831 0.297333 26 102 204
0.00877787 -0.0778115 -0.285581 26 102 204
0.0122984 -0.0758943 -0.298741 26 102 204
0.0106098 -0.0809728 0.183569 26 102 204
0.0123475 -0.0752638 -0.294136 26 102 204
0.0102386 -0.0736084 -0.41547 26 102 204
0.00970331 -0.0758471 -0.465999 26 102 204
0.00778806 -0.0746036 0.446197 26 102 204
0.00950245 -0.072997 -0.104982 26 102 204
0.00652691 -0.0730728 -0.36538 26 102 204
0.0148239 -0.0706054 -0.467258 26 102 204
0.00526257 -0.0732017 0.225438 26 102 204
0.00521828 -0.0740776 0.470373 26 102 204
0.00631761 -0.0728683 0.262268 26 102 204
0.0082415 -0.0721039 0.0974294 26 102 204
0.00839256 -0.071463 -0.0212423 26 102 204
0.005125 -0.069943 -0.0912621 26 102 204
0.00824205 -0.0703506 -0.0554512 26 102 204
0.00866763 -0.0689187 0.0950735 26 102 204
0.00461889 -0.0688476 -0.206534 26 102 204
0.00527755 -0.0663019 -0.358569 26 102 204
0.00699487 -0.0685862 -0.364385 26 102 204
0.00589217 -0.0678245 -0.148876 26 102 204
0.00613829 -0.0655381 -0.249407 26 102 204
0.00460851 -0.0682433 -0.126291 26 102 204
0.00394806 -0.0673538 0.389253 26 102 204
0.00725459 -0.0676109 0.259886 26 102 204
0.00367357 -0.0654659 -0.421589 26 102 204
0.00382092 -0.0667076 -0.178455 26 102 204
0.00331897 -0.0646047 -0.162492 26 102 204
0.00520255 -0.0612558 -0.328882 26 102 204
0.00456891 -0.0621431 -0.187642 26 102 204
0.00431127 -0.064177 0.473843 26 102 204
0.00194169 -0.0620011 -0.317344 26 102 204
0.00182392 -0.0615794 -0.141826 26 102 204
0.0077754 -0.0586031 -0.48015 26 102 204
0.0012949 -0.0631003 -0.0355806 26 102 204
0.00443388 -0.0618189 -0.0818333 26 102 204
0.00471851 -0.060889 0.265188 26 102 204
0.0032587 -0.0614385 -0.0636059 26 102 204
0.000657383 -0.0621602 0.0530791 26 102 204
0.00909648 -0.0541079 0.47823 26 102 204
-0.00112663 -0.0582061 -0.419113 26 102 204
0.00250439 -0.0593036 -0.300582 26 102 204
0.00323608 -0.0563614 -0.282204 26 102 204
0.00151924 -0.0607976 0.42063 26 102 204
0.00401763 -0.0554494 -0.363346 26 102 204
0.00287054 -0.0576303 -0.177268 26 102 204
0.0026997 -0.0579065 0.495422 26 102 204
-0.000283688 -0.0572789 0.288385 26 102 204
0.00873582 -0.0682938 -0.350592 26 102 204
0.00274323 -0.0550011 0.361354 26 102 204
0.002001 -0.0574252 0.503443 26 102 204
0.00686726 -0.0513367 0.455128 26 102 204
-0.00101899 -0.0574213 0.35704 26 102 204
0.0552734 -0.103783 -0.453324 26 102 204
-0.000344046 -0.0508789 0.352821 26 102 204
0.00231382 -0.0505326 -0.429764 26 102 204
0.000632361 -0.0514585 -0.426871 26 102 204
-0.00248652 -0.0534115 0.329538 26 102 204
-0.00168991 -0.052302 0.35138 26 102 204
-0.00145706 -0.051925 0.372696 26 102 204
-0.00307748 -0.0500525 -0.155083 26 102 204
-0.00276316 -0.0512358 0.382171 26 102 204
-0.00275932 -0.0496564 0.0238515 26 102 204
-0.00385769 -0.049814 -0.317164 26 102 204
-0.0031283 -0.0470296 0.321262 26 102 204
-0.00364767 -0.0462918 -0.415409 26 102 204
-0.00350603 -0.0494118 0.507664 26 102 204
-0.00478167 -0.048287 0.317799 26 102 204
-0.00282704 -0.0460187 0.240023 26 102 204
-0.00368857 -0.0457502 0.372821 26 102 204
-0.00401812 -0.0446823 0.348057 26 102 204
-0.00188474 -0.0425895 -0.193737 26 102 204
-0.00489914 -0.0424353 0.356801 26 102 204
0.0049572 -0.0503864 0.0795416 26 102 204
-0.00266154 -0.0414077 -0.285326 26 102 204
-0.00200449 -0.0402156 -0.453317 26 102 204
-0.0051426 -0.0398719 -0.388899 26 102 204
-0.00570928 -0.0407122 -0.395615 26 102 204
-0.00590064 -0.0421118 -0.269877 26 102 204
-0.00572993 -0.0401754 -0.251682 26 102 204
-0.00542202 -0.0422104 0.433985 26 102 204
-0.00683178 -0.0401992 0.0740031 26 102 204
-0.00610345 -0.03988 -0.110022 26 102 204
-0.00720205 -0.0406324 0.31014 26 102 204
-0.00641376 -0.0405013 0.471607 26 102 204
-0.00514429 -0.0365509 0.284499 26 102 204
-0.0039562 -0.0340439 -0.0359991 26 102 204
-0.00891352 -0.0368692 -0.187389 26 102 204
-0.00984967 -0.0371657 0.311153 26 102 204
-0.00656387 -0.033953 0.205085 26 102 204
-0.00742495 -0.0335549 -0.317958 26 102 204
-0.00158832 -0.028589 -0.459713 26 102 204
-0.0100486 -0.0348166 0.246594 26 102 204
-0.00767931 -0.0302215 0.0252879 26 102 204
-0.00837048 -0.0285827 -0.118814 26 102 204
-0.0106704 -0.0319787 -0.41831 26 102 204
-0.0102584 -0.0302134 -0.171501 26 102 204
-0.00892474 -0.036168 0.232007 26 102 204
-0.010199 -0.0315641 -0.0458276 26 102 204
-0.0103913 -0.0299607 -0.0402186 26 102 204
-0.00944975 -0.0283837 -0.0581842 26 102 204
-0.00714342 -0.0276059 0.494195 26 102 204
-0.0126643 -0.0291112 -0.179003 26 102 204
-0.0117127 -0.0272481 -0.00597858 26 102 204
-0.012799 -0.0264841 0.00233493 26 102 204
-0.0103058 -0.0310632 0.311343 26 102 204
-0.0145092 -0.0270835 0.264675 26 102 204
0.00276178 -0.0182681 0.503025 26 102 204
-0.0165082 -0.0260771 -0.216523 26 102 204
-0.0158778 -0.0256821 0.229188 26 102 204
0.142371 0.0512164 0.486292 26 102 204
0.107285 0.0310312 0.501068 26 102 204
-0.0152266 -0.022016 -0.291833 26 102 204
-0.0127752 -0.0211093 -0.484755 26 102 204
-0.0142936 -0.0230962 -0.24945 26 102 204
0.034737 0.00207055 -0.466523 26 102 204
0.124296 0.0371988 0.503133 26 102 204
-0.012633 -0.0313408 0.193183 26 102 204
-0.0171229 -0.0258482 0.398813 26 102 204
0.0390644 0.00211847 0.494954 26 102 204
0.0231952 -0.00079426 0.50054 26 102 204
0.127404 0.039413 -0.450443 26 102 204
0.184848 0.0639865 0.491193 26 102 204
0.192272 0.0689383 0.505324 26 102 204
0.174941 0.0563039 0.500083 26 102 204
0.11695 0.0444283 0.485194 26 102 204
0.186208 0.0699515 -0.454862 26 102 204
0.195063 0.0666106 0.502679 26 102 204
0.158345 0.0586272 0.511795 26 102 204
0.201056 0.0464931 -0.478211 26 102 204
-0.0199263 -0.0182116 -0.339794 26 102 204
-0.0184486 -0.0184451 0.270924 26 102 204
-0.01865 -0.0186079 -0.0376481 26 102 204
0.0539772 0.0156992 -0.457804 26 102 204
0.131538 0.0501585 -0.484173 26 102 204
0.157641 0.0617452 -0.469202 26 102 204
-0.0158838 -0.0156225 0.344395 26 102 204
0.0291995 0.00476946 -0.47075 26 102 204
0.0804116 0.0283001 -0.468857 26 102 204
-0.00128202 -0.00669156 0.507068 26 102 204
-0.0171209 -0.0145833 0.385629 26 102 204
0.0521201 0.0172377 0.510635 26 102 204
-0.0204017 -0.0154627 0.506455 26 102 204
-0.022448 -0.0153943 0.18587 26 102 204
0.1755 0.0760931 -0.449961 26 102 204
0.0601722 0.0202273 0.508412 26 102 204
-0.0126884 -0.0229485 0.24013 26 102 204
0.0521813 0.0215523 -0.457739 26 102 204
0.138868 0.0623832 0.468304 26 102 204
0.0956427 0.0390515 0.483133 26 102 204
0.173774 0.0744159 -0.477436 26 102 204
-0.0210269 -0.011384 0.448274 26 102 204
-0.0231142 -0.00951444 -0.0990937 26 102 204
0.133375 0.0584323 -0.447309 26 102 204
0.119919 0.0501629 0.492103 26 102 204
-0.0225864 -0.00913575 0.22051 26 102 204
0.0190443 0.00898568 -0.480492 26 102 204
0.202787 0.0873569 0.488041 26 102 204
0.172893 0.0786005 -0.464273 26 102 204
-0.0230549 -0.00668605 -0.328219 26 102 204
-0.0173132 -0.0034215 -0.470648 26 102 204
0.06609 0.0317865 -0.473671 26 102 204
-0.00138767 0.00289325 0.497172 26 102 204
0.0461753 0.0239149 -0.474493 26 102 204
-0.0162044 -0.000735437 -0.484958 26 102 204
0.0739409 0.0379274 0.507172 26 102 204
0.0644445 0.0285457 0.50223 26 102 204
0.0679235 0.0378876 -0.443187 26 102 204
-0.0271172 0.000789388 -0.40756 26 102 204
0.154409 0.0695719 -0.46394 26 102 204
-0.0253556 -0.000754169 -0.407139 26 102 204
0.130251 0.0639954 -0.461495 26 102 204
0.0733093 0.0431609 -0.458434 26 102 204
0.102517 0.0537965 0.498512 26 102 204
0.149062 0.0756999 -0.453496 26 102 204
0.00927082 -0.0658411 0.286097 26 102 204
0.107846 0.0625523 -0.46673 26 102 204
0.133716 0.064843 -0.455645 26 102 204
0.093875 0.053125 0.47822 26 102 204
0.0804515 0.047124 0.495961 26 102 204
0.090105 0.0523212 0.48605 26 102 204
0.113195 0.0605888 -0.476252 26 102 204
0.092625 0.0509434 0.502603 26 102 204
0.0640407 0.039748 -0.467066 26 102 204
-0.00353156 0.0121067 -0.45979 26 102 204
-0.0225634 0.00332901 -0.473376 26 102 204
0.0556449 0.036324 -0.463123 26 102 204
-0.0285805 0.00216439 -0.0487969 26 102 204
0.142416 0.0813231 0.497492 26 102 204
-0.02232 0.00134813 -0.12704 26 102 204
-0.0264438 0.00234385 -0.0339494 26 102 204
-0.0158649 0.00514085 0.470193 26 102 204
-0.0231074 0.00175096 -0.00246372 26 102 204
-0.0268539 0.00299078 -0.0723787 26 102 204
-0.0277608 0.0083103 -0.157757 26 102 204
-0.0260257 0.00576147 0.0594573 26 102 204
-0.0236948 0.00704039 -0.447328 26 102 204
-0.0269272 0.00667865 0.0951164 26 102 204
-0.0274418 0.00742296 0.281363 26 102 204
-0.0253177 0.00755483 -0.22861 26 102 204
-0.025298 0.00783374 -0.132197 26 102 204
-0.0256217 0.00907738 -0.40232 26 102 204
-0.0280198 0.0112532 0.382297 26 102 204
-0.028132 0.0111714 0.0969832 26 102 204
-0.0297868 0.0097003 0.449462 26 102 204
-0.0278224 0.00882079 0.479461 26 102 204
-0.0273952 0.010666 0.221533 26 102 204
-0.0234712 0.0140717 0.502837 26 102 204
-0.0264971 0.010673 0.236306 26 102 204
-0.0295595 0.013577 -0.0367697 26 102 204
-0.0295293 0.0160373 0.196347 26 102 204
-0.0269044 0.0144247 -0.474366 26 102 204
-0.0328222 0.0124188 0.421324 26 102 204
-0.0254497 0.0193949 -0.49726 26 102 204
-0.0307405 0.0149438 0.507492 26 102 204
-0.0289301 0.0165661 0.21178 26 102 204
-0.0278735 0.0184541 -0.361542 26 102 204
-0.0261989 0.0164059 0.452266 26 102 204
-0.0305108 0.0173839 0.423293 26 102 204
-0.032385 0.0200631 0.298627 26 102 204
-0.0296061 0.0160226 -0.0479217 26 102 204
-0.031802 0.0193317 0.346883 26 102 204
-0.029899 0.0198736 0.106856 26 102 204
-0.030392 0.0199726 0.214603 26 102 204
-0.0261904 0.0211341 -0.44699 26 102 204
-0.0256299 0.0270214 0.501131 26 102 204
-0.0310269 0.0212696 0.099723 26 102 204
-0.0302574 0.0216472 0.170171 26 102 204
-0.0250492 0.0237335 0.467347 26 102 204
-0.0319174 0.0250985 -0.0839119 26 102 204
-0.0333946 0.0240596 0.3812 26 102 204
-0.0344921 0.0243831 -0.255047 26 102 204
-0.032189 0.0244547 -0.120968 26 102 204
-0.03246 0.026028 -0.185252 26 102 204
-0.0324691 0.0268812 -0.353764 26 102 204
-0.031592 0.0267865 0.262708 26 102 204
-0.035012 0.0278833 0.105771 26 102 204
-0.0343127 0.0273051 -0.329041 26 102 204
-0.0334731 0.0283055 0.1338 26 102 204
-0.0260519 0.0300699 -0.470903 26 102 204
-0.0338939 0.0302533 -0.437868 26 102 204
-0.0326198 0.029541 -0.268636 26 102 204
-0.0352986 0.0323298 0.0178425 26 102 204
-0.0334602 0.0308709 -0.169349 26 102 204
-0.0371965 0.0330671 -0.42533 26 102 204
-0.0350986 0.0317131 -0.126492 26 102 204
-0.0378412 0.030872 -0.476124 26 102 204
-0.0370683 0.0313468 0.272266 26 102 204
-0.0348182 0.0347525 -0.408924 26 102 204
-0.0297317 0.0340399 -0.084309 26 102 204
-0.0379987 0.0344985 -0.234829 26 102 204
-0.0344543 0.0347424 0.397442 26 102 204
-0.0368929 0.0368449 -0.110068 26 102 204
-0.0365239 0.0336235 0.0939731 26 102 204
-0.0353533 0.0348632 -0.0134305 26 102 204
-0.0380365 0.0355719 0.211479 26 102 204
-0.038425 0.0355532 -0.00866055 26 102 204
-0.0327658 0.0359038 0.501648 26 102 204
-0.0367195 0.0371387 -0.373118 26 102 204
-0.0363713 0.0392987 -0.440024 26 102 204
-0.037382 0.0385009 0.0765701 26 102 204
-0.0376974 0.0390177 -0.162666 26 102 204
-0.0391189 0.0424442 -0.196905 26 102 204
-0.0393121 0.0395163 -0.214871 26 102 204
-0.0415499 0.0384236 -0.481523 26 102 204
0.0170619 -0.0693103 0.158404 26 102 204
-0.0393692 0.0414711 0.0527131 26 102 204
-0.0444882 0.0426394 0.2251 26 102 204
-0.038408 0.0431389 0.464141 26 102 204
-0.0378184 0.0413315 0.493121 26 102 204
-0.0414657 0.0436654 -0.463961 26 102 204
-0.0393209 0.0447887 -0.222008 26 102 204
-0.0340002 0.0444688 0.508483 26 102 204
-0.0441475 0.0434566 -0.0075435 26 102 204
-0.0367675 0.0453715 -0.450787 26 102 204
-0.0407731 0.0453196 0.156056 26 102 204
-0.039857 0.0467646 0.169415 26 102 204
-0.0404143 0.0459239 0.120347 26 102 204
-0.0425296 0.045697 -0.101888 26 102 204
-0.041096 0.047264 0.209481 26 102 204
-0.0412623 0.0461795 -0.269266 26 102 204
-0.0393954 0.0491722 -0.458086 26 102 204
-0.0417442 0.0463203 -0.393922 26 102 204
-0.0410982 0.0507481 0.0807128 26 102 204
-0.0433081 0.0488928 0.0408906 26 102 204
-0.0425602 0.050247 -0.461426 26 102 204
-0.0420375 0.051487 0.28852 26 102 204
-0.0422534 0.0508507 0.0891438 26 102 204
-0.0438341 0.0520752 -0.146392 26 102 204
-0.0338843 0.0534835 0.474702 26 102 204
-0.0388461 0.0556277 0.360533 26 102 204
-0.0440098 0.0534603 -0.200424 26 102 204
-0.0434316 0.053979 0.166053 26 102 204
-0.0438687 0.055173 -0.0373539 26 102 204
-0.0383406 0.0577471 -0.4388 26 102 204
-0.0443548 0.0552121 -0.0217821 26 102 204
-0.0455423 0.0570024 0.190164 26 102 204
-0.0445655 0.0577372 0.021615 26 102 204
-0.0451935 0.0571437 -0.136468 26 102 204
-0.0452852 0.0566004 0.130473 26 102 204
-0.0456103 0.0582927 0.371315 26 102 204
-0.0441219 0.0606094 0.428657 26 102 204
-0.0377794 0.0453648 -0.436754 26 102 204
-0.0435336 0.0591193 -0.260913 26 102 204
-0.0469772 0.0613059 0.423844 26 102 204
-0.047003 0.0612361 -0.296033 26 102 204
-0.0457226 0.0620021 0.334583 26 102 204
-0.0450543 0.0611263 -0.120842 26 102 204
-0.0459159 0.0608197 -0.353631 26 102 204
-0.045602 0.0624659 -0.407974 26 102 204
-0.0464845 0.0610297 -0.40176 26 102 204
-0.0444771 0.0602673 0.0381915 26 102 204
-0.0474937 0.0621084 -0.321758 26 102 204
-0.046955 0.0632621 0.177327 26 102 204
-0.0459922 0.0627825 0.126185 26 102 204
-0.0486636 0.0643614 0.117871 26 102 204
-0.0474362 0.0643188 0.231557 26 102 204
-0.048197 0.0651103 0.0588973 26 102 204
-0.0509852 0.0685111 -0.035405 26 102 204
-0.0488613 0.0658436 0.129488 26 102 204
-0.0487978 0.0630072 -0.230508 26 102 204
-0.0507008 0.0671017 0.20157 26 102 204
-0.0484373 0.0688309 -0.332814 26 102 204
-0.0497216 0.0680317 -0.380408 26 102 204
-0.047433 0.0710279 -0.439212 26 102 204
-0.0489025 0.0699262 -0.340976 26 102 204
-0.0474833 0.0700339 0.500032 26 102 204
-0.0486577 0.0733318 0.456119 26 102 204
-0.0509315 0.0674347 -0.310722 26 102 204
-0.0506585 0.0712999 -0.459008 26 102 204
-0.0503346 0.072293 -0.346139 26 102 204
-0.0510141 0.0738857 -0.223088 26 102 204
-0.0506548 0.0715028 -0.13078 26 102 204
-0.0516615 0.0727499 -0.4738 26 102 204
-0.0521109 0.0743613 0.292781 26 102 204
-0.05288 0.0747314 -0.358277 26 102 204
-0.0544206 0.0722007 0.471354 26 102 204
-0.0495187 0.076018 0.45775 26 102 204
-0.0508793 0.0789807 0.272422 26 102 204
-0.0530635 0.0762553 -0.133346 26 102 204
-0.0516923 0.0787132 0.511054 26 102 204
-0.0553928 0.0765256 0.145486 26 102 204
-0.0529725 0.0792677 -0.475112 26 102 204
-0.0537199 0.0787363 -0.260844 26 102 204
-0.0540341 0.0789197 -0.457563 26 102 204
-0.0555187 0.0780055 0.226756 26 102 204
-0.0542529 0.0815795 0.0880871 26 102 204
-0.0547364 0.0800048 -0.380177 26 102 204
-0.0539664 0.0824636 0.416249 26 102 204
-0.0556217 0.0807581 -0.120763 26 102 204
-0.0541663 0.0832168 -0.384407 26 102 204
-0.0559979 0.0827752 -0.307839 26 102 204
-0.0553178 0.0835455 0.415974 26 102 204
-0.0556065 0.0836961 -0.00580064 26 102 204
-0.0572647 0.0841332 0.276933 26 102 204
-0.0553197 0.0863135 -0.205266 26 102 204
-0.0566031 0.0848165 0.190136 26 102 204
-0.0567418 0.0859138 0.129511 26 102 204
-0.056314 0.0880291 0.275511 26 102 204
-0.0576792 0.08707 -0.138419 26 102 204
-0.0585029 0.086444 -0.273927 26 102 204
-0.0538721 0.088597 -0.477977 26 102 204
-0.0601468 0.0890527 0.452871 26 102 204
-0.0576533 0.0895267 -0.0151962 26 102 204
-0.0574204 0.0894099 -0.389523 26 102 204
-0.0586003 0.0911497 -0.312742 26 102 204
-0.0595764 0.0913026 0.0233165 26 102 204
-0.0546716 0.0925865 0.475862 26 102 204
-0.0619871 0.092652 0.0616047 26 102 204
-0.0589451 0.0931099 -0.217304 26 102 204
-0.0585461 0.0929916 0.128152 26 102 204
-0.0584441 0.0935473 0.344389 26 102 204
-0.0612012 0.0920078 0.298845 26 102 204
-0.0603224 0.095881 -0.0957621 26 102 204
-0.0589998 0.0960235 0.173303 26 102 204
-0.0589681 0.0963438 0.0606551 26 102 204
-0.0625315 0.0973397 0.148155 26 102 204
-0.0632685 0.098768 0.36079 26 102 204
-0.0605787 0.0992371 0.463265 26 102 204
-0.0603841 0.100725 -0.0290412 26 102 204
-0.060597 0.0990885 -0.374634 26 102 204
-0.0645896 0.0990733 0.315608 26 102 204
-0.064843 0.101146 -0.427281 26 102 204
-0.0636923 0.100898 0.299881 26 102 204
-0.0643814 0.10047 0.118981 26 102 204
-0.0632424 0.103054 0.321443 26 102 204
-0.0625825 0.103967 -0.0942943 26 102 204
-0.0646868 0.0990764 -0.453413 26 102 204
-0.0655293 0.106145 0.273736 26 102 204
-0.0639398 0.104841 -0.347978 26 102 204
-0.0634968 0.106554 -0.414603 26 102 204
-0.0652637 0.103718 -0.477511 26 102 204
-0.0730869 0.10137 -0.494732 26 102 204
-0.068257 0.105981 -0.25828 26 102 204
-0.0618577 0.103399 0.371303 26 102 204
-0.0659624 0.107299 -0.474052 26 102 204
-0.0665008 0.107478 0.144946 26 102 204
-0.0652402 0.110005 -0.20766 26 102 204
-0.0662609 0.107971 -0.0723404 26 102 204
-0.065913 0.110511 0.463852 26 102 204
-0.0560173 0.124205 -0.438243 26 102 204
-0.0675382 0.110252 -0.33618 26 102 204
-0.0676592 0.112205 -0.0833075 26 102 204
-0.0670687 0.112869 0.351633 26 102 204
-0.0601592 0.113429 0.498984 26 102 204
-0.0662046 0.117609 0.160425 26 102 204
-0.0673789 0.113089 -0.068969 26 102 204
-0.0687729 0.113392 -0.00853981 26 102 204
-0.0687099 0.113759 0.45646 26 102 204
-0.0677152 0.114625 0.215124 26 102 204
-0.065303 0.115615 0.488902 26 102 204
-0.0688868 0.116613 -0.248534 26 102 204
-0.0663159 0.115323 -0.00679619 26 102 204
-0.0692735 0.11692 0.123275 26 102 204
-0.0702451 0.1174 -0.223053 26 102 204
-0.0701812 0.117121 -0.3622 26 102 204
-0.0713685 0.117384 0.0162723 26 102 204
-0.0787225 0.113591 -0.158652 26 102 204
-0.0708167 0.117786 -0.0712579 26 102 204
-0.0707125 0.117727 0.0676629 26 102 204
-0.0700064 0.120266 -0.182407 26 102 204
-0.0710025 0.116531 0.090418 26 102 204
-0.0722513 0.121613 0.0537345 26 102 204
-0.0730932 0.121999 -0.0815077 26 102 204
-0.080063 0.12094 -0.384017 26 102 204
-0.0748846 0.12076 -0.245326 26 102 204
-0.0725847 0.121151 0.181868 26 102 204
-0.0710003 0.12092 0.349528 26 102 204
-0.0778031 0.121978 -0.0990598 26 102 204
-0.0686774 0.121356 -0.496771 26 102 204
-0.0728116 0.122077 0.416689 26 102 204
-0.0717533 0.123665 -0.133939 26 102 204
-0.0723361 0.123516 -0.4702 26 102 204
-0.0715572 0.122164 0.21019 26 102 204
-0.0726103 0.124894 0.398489 26 102 204
-0.074239 0.126406 0.155014 26 102 204
-0.075466 0.128501 0.318442 26 102 204
-0.0747702 0.127409 -0.23769 26 102 204
-0.0778164 0.128761 -0.200398 26 102 204
-0.076648 0.128618 0.264679 26 102 204
-0.075438 0.132289 -0.253492 26 102 204
-0.0782248 0.132263 0.0479394 26 102 204
0.0828541 0.203166 0.494867 26 102 204
-0.0783655 0.129397 0.125954 26 102 204
-0.0744955 0.131851 0.0246604 26 102 204
-0.0766873 0.133957 0.502131 26 102 204
-0.0205184 0.161344 -0.481107 26 102 204
-0.0778972 0.137352 0.00794832 26 102 204
-0.0793073 0.136172 -0.0554728 26 102 204
-0.0815659 0.136464 0.459614 26 102 204
-0.0788208 0.14218 -0.465432 26 102 204
-0.0814669 0.139054 -0.124202 26 102 204
-0.0828661 0.138171 0.391032 26 102 204
-0.0795417 0.135743 0.206333 26 102 204
-0.0811682 0.142461 -0.46638 26 102 204
-0.0790327 0.142663 -0.381063 26 102 204
-0.0820902 0.142253 -0.342508 26 102 204
-0.0799836 0.144102 -0.0493261 26 102 204
-0.0825533 0.143997 -0.365967 26 102 204
-0.0846975 0.138535 0.354372 26 102 204
-0.0860373 0.142559 -0.298303 26 102 204
-0.0911177 0.149279 -0.136609 26 102 204
-0.0825657 0.145612 -0.0638349 26 102 204
-0.0811121 0.147762 0.161707 26 102 204
-0.0844031 0.146544 -0.184634 26 102 204
-0.070925 0.137859 0.45548 26 102 204
-0.0835438 0.145563 0.112315 26 102 204
-0.0966283 0.145258 0.241805 26 102 204
-0.0930048 0.139835 -0.390038 26 102 204
-0.0840618 0.150615 -0.0578959 26 102 204
-0.0875299 0.147828 -0.314032 26 102 204
-0.0855847 0.14729 -0.00847577 26 102 204
-0.0840452 0.14588 0.0501779 26 102 204
-0.0895068 0.148774 -0.347026 26 102 204
-0.0824874 0.149617 0.487141 26 102 204
-0.084971 0.146937 -0.330214 26 102 204
-0.0860929 0.148592 0.26564 26 102 204
0.0635825 0.222036 -0.478218 26 102 204
-0.0795663 0.14306 -0.063141 26 102 204
-0.0902904 0.152784 -0.109585 26 102 204
-0.0907679 0.150043 0.000654216 26 102 204
-0.0896205 0.154811 0.226924 26 102 204
-0.0894698 0.155223 0.0901992 26 102 204
-0.0889319 0.15654 0.24857 26 102 204
-0.0896019 0.156749 -0.434447 26 102 204
-0.0885903 0.157949 0.331673 26 102 204
0.0407986 0.219742 0.476753 26 102 204
0.0958601 0.244443 -0.475114 26 102 204
0.0731271 0.234323 -0.455587 26 102 204
0.0777992 0.241116 0.475461 26 102 204
0.0790347 0.24107 -0.45822 26 102 204
0.0722313 0.234285 0.472823 26 102 204
0.0319401 0.218777 0.482175 26 102 204
0.011493 0.209017 0.487457 26 102 204
0.0342594 0.214724 0.478272 26 102 204
0.0216807 0.211343 0.476039 26 102 204
-0.0277003 0.188783 -0.467059 26 102 204
-0.0252738 0.19067 0.462692 26 102 204
-0.0211537 0.194022 -0.462682 26 102 204
-0.0408843 0.188066 0.489636 26 102 204
-0.0564771 0.17895 -0.43819 26 102 204
-0.0662011 0.173264 0.325659 26 102 204
-0.0689094 0.172342 -0.0409705 26 102 204
-0.0690037 0.172857 0.197346 26 102 204
-0.0672095 0.173061 0.0288031 26 102 204
-0.065467 0.16721 0.122602 26 102 204
-0.0699677 0.171646 -0.302298 26 102 204
-0.0682307 0.171641 0.0593768 26 102 204
-0.067136 0.166797 0.113979 26 102 204
-0.0705509 0.169962 -0.114549 26 102 204
-0.070739 0.170917 0.400041 26 102 204
-0.0583994 0.170967 0.467594 26 102 204
-0.0692515 0.164098 -0.145666 26 102 204
-0.0742702 0.168352 -0.258611 26 102 204
-0.0755351 0.170986 -0.366492 26 102 204
-0.0748165 0.168382 -0.114602 26 102 204
-0.0768952 0.168451 -0.3587 26 102 204
-0.0774558 0.167609 -0.255715 26 102 204
-0.0751696 0.168662 0.477675 26 102 204
-0.0792862 0.167536 -0.308761 26 102 204
-0.0776297 0.16408 -0.277238 26 102 204
-0.0720275 0.158141 0.455468 26 102 204
-0.0802739 0.168204 -0.446439 26 102 204
-0.0800755 0.166601 -0.341316 26 102 204
-0.0800821 0.165507 -0.420148 26 102 204
-0.0813436 0.165002 -0.334038 26 102 204
-0.0795256 0.16745 0.109108 26 102 204
-0.0820343 0.166575 0.168058 26 102 204
-0.0818029 0.166318 0.231699 26 102 204
-0.0799323 0.166715 -0.327266 26 102 204
-0.0827722 0.165277 0.0812228 26 102 204
-0.0877729 0.146994 -0.0489335 26 102 204
-0.0841592 0.165379 0.191541 26 102 204
-0.0852597 0.164425 0.0305542 26 102 204
-0.0860104 0.163952 0.226632 26 102 204
-0.0820041 0.163502 -0.186668 26 102 204
-0.0824416 0.159105 -0.240746 26 102 204
-0.0887209 0.16086 -0.274432 26 102 204
-0.0896266 0.163243 0.250354 26 102 204
-0.0868691 0.164449 0.000231356 26 102 204
-0.0887827 0.161537 -0.160997 26 102 204
-0.087098 0.163687 0.335825 26 102 204
0.00217215 0.201269 -0.490246 26 102 204
-0.0834567 0.168547 -0.238373 26 102 204
-0.055407 0.183264 -0.481528 26 102 204
0.0230645 0.212568 0.498726 26 102 204
-0.0853015 0.167597 -0.357511 26 102 204
-0.0868141 0.165285 -0.261539 26 102 204
0.0541483 0.228681 0.488598 26 102 204
-0.067464 0.175142 -0.419054 26 102 204
-0.0860117 0.170081 0.0157489 26 102 204
0.0669295 0.236465 -0.483005 26 102 204
-0.0840035 0.167281 0.0549788 26 102 204
-0.0789834 0.162294 0.255124 26 102 204
-0.0200657 0.197671 0.49118 26 102 204
-0.0877678 0.167424 -0.347681 26 102 204
-0.0813516 0.172143 0.401266 26 102 204
-0.0846744 0.164651 0.0253856 26 102 204
-0.0871719 0.168983 0.109672 26 102 204
-0.0774332 0.173948 0.353866 26 102 204
-0.0892026 0.17091 -0.168521 26 102 204
-0.0745787 0.176412 -0.120764 26 102 204
-0.0746481 0.177403 0.365802 26 102 204
0.0697838 0.243662 -0.421758 26 102 204
-0.090886 0.167515 0.233341 26 102 204
-0.071011 0.177316 0.362881 26 102 204
-0.0735467 0.179267 -0.374889 26 102 204
0.0736794 0.238981 0.42157 26 102 204
-0.0902073 0.171019 -0.242926 26 102 204
-0.0765297 0.177213 -0.355176 26 102 204
-0.0879693 0.169437 0.283958 26 102 204
-0.0908018 0.16999 -0.117681 26 102 204
-0.0869884 0.173475 0.318338 26 102 204
0.0430823 0.231209 -0.434582 26 102 204
-0.0911117 0.168597 -0.387377 26 102 204
-0.074916 0.1766 -0.196681 26 102 204
-0.0701798 0.177531 0.447493 26 102 204
-0.0351284 0.198015 -0.445585 26 102 204
-0.072713 0.181817 -0.484039 26 102 204
0.0800739 0.242623 0.485582 26 102 204
-0.0881639 0.174033 0.0486117 26 102 204
-0.0814995 0.176485 0.308491 26 102 204
-0.090074 0.173933 -0.0326738 26 102 204
0.0104536 0.215435 0.448029 26 102 204
-0.0885329 0.174154 0.0191575 26 102 204
-0.0941478 0.1769 -0.26362 26 102 204
-0.0404826 0.198447 -0.442914 26 102 204
0.0963341 0.261655 -0.454373 26 102 204
-0.0916607 0.175991 -0.0982314 26 102 204
-0.0493086 0.1937 0.480259 26 102 204
-0.0848286 0.180627 -0.161076 26 102 204
-0.0919613 0.176808 -0.469411 26 102 204
-0.0881585 0.180112 -0.323698 26 102 204
-0.0320683 0.204021 -0.466296 26 102 204
0.104542 0.262405 -0.464849 26 102 204
-0.075108 0.184342 -0.160334 26 102 204
-0.0816439 0.183495 -0.151284 26 102 204
-0.0806065 0.181847 0.094652 26 102 204
-0.0753174 0.183701 -0.239037 26 102 204
-0.0842719 0.180187 0.472511 26 102 204
-0.0859268 0.174849 0.25107 26 102 204
-0.0871904 0.179821 0.0630483 26 102 204
-0.0871195 0.17984 0.122216 26 102 204
-0.0872739 0.177894 0.0778281 26 102 204
-0.0831203 0.174402 -0.079947 26 102 204
-0.0933939 0.173846 0.0542705 26 102 204
-0.0918943 0.176126 0.368035 26 102 204
-0.0904736 0.176138 0.214386 26 102 204
-0.0575386 0.192716 0.469692 26 102 204
0.0952784 0.256597 0.464739 26 102 204
-0.0892685 0.167949 -0.180556 26 102 204
-0.0803741 0.184024 -0.463803 26 102 204
-0.0931266 0.167478 -0.213054 26 102 204
0.0277217 0.228605 -0.487441 26 102 204
0.0370409 0.236272 0.453674 26 102 204
0.0329491 0.235299 0.433817 26 102 204
0.0229894 0.232735 0.447459 26 102 204
0.0209733 0.226153 0.441521 26 102 204
0.0127829 0.226956 0.421552 26 102 204
0.00710768 0.228642 0.441449 26 102 204
-0.0246754 0.205327 0.410348 26 102 204
-0.0362035 0.210649 0.466907 26 102 204
-0.0508863 0.197664 0.434113 26 102 204
-0.0699226 0.191017 0.489057 26 102 204
-0.0946889 0.17466 0.0201121 26 102 204
-0.0840635 0.17934 0.419087 26 102 204
-0.0816635 0.181149 0.311541 26 102 204
-0.0840679 0.184451 -0.377871 26 102 204
-0.0863428 0.18146 0.267644 26 102 204
-0.084541 0.182225 0.400573 26 102 204
-0.0885502 0.181579 0.0702716 26 102 204
-0.0865979 0.181476 0.383481 26 102 204
-0.0879549 0.182634 -0.0106812 26 102 204
-0.0886339 0.17939 0.264612 26 102 204
-0.0897361 0.179574 -0.0203562 26 102 204
-0.0964793 0.178834 0.039035 26 102 204
-0.0916852 0.178822 0.14133 26 102 204
-0.0878781 0.176951 -0.150493 26 102 204
-0.095153 0.178978 -0.198022 26 102 204
-0.0957576 0.183343 0.00193124 26 102 204
-0.09388 0.180385 0.229351 26 102 204
-0.0928537 0.183182 -0.234077 26 102 204
-0.091865 0.185719 -0.411849 26 102 204
-0.0920893 0.183487 0.0285384 26 102 204
-0.0896843 0.187294 0.445925 26 102 204
-0.0883677 0.188067 0.392692 26 102 204
-0.0905117 0.186567 0.101548 26 102 204
-0.0877722 0.187354 -0.387908 26 102 204
-0.0843001 0.18472 -0.152166 26 102 204
-0.0894028 0.188364 0.140218 26 102 204
-0.0853138 0.186943 -0.196331 26 102 204
-0.091651 0.182308 -0.44969 26 102 204
-0.0925143 0.185416 0.482616 26 102 204
-0.10152 0.176543 0.419721 26 102 204
-0.0967033 0.186287 0.0235683 26 102 204
-0.0964653 0.188446 -0.371087 26 102 204
-0.0983659 0.186645 -0.0798114 26 102 204
-0.0894834 0.182811 0.0890678 26 102 204
-0.0986151 0.188962 -0.152771 26 102 204
-0.102807 0.186042 -0.299478 26 102 204
-0.095754 0.189931 -0.472825 26 102 204
-0.0991024 0.187848 -0.0270846 26 102 204
-0.0957433 0.186261 0.307375 26 102 204
-0.101533 0.193353 0.196457 26 102 204
-0.092335 0.186597 -0.377742 26 102 204
