ply
format ascii 1.0
comment Created by Open3D
element vertex 1024
property double x
property double y
property double z
property uchar red
property uchar green
property uchar blue
end_header
-0.49513 0.256417 0.116886 26 102 204
-0.495185 0.284085 0.13852 26 102 204
-0.502553 0.261276 -0.163921 26 102 204
-0.502734 0.259621 -0.110891 26 102 204
-0.492897 0.280383 -0.115323 26 102 204
-0.497754 0.262225 0.172629 26 102 204
-0.454532 0.323899 0.0294661 26 102 204
-0.499467 0.242124 0.14692 26 102 204
-0.483062 0.25413 -0.00966904 26 102 204
-0.476208 0.284843 0.0445093 26 102 204
-0.475109 0.282123 -0.0998722 26 102 204
-0.485757 0.278127 0.0366299 26 102 204
-0.487516 0.27045 0.0750765 26 102 204
-0.454388 0.301452 -0.0191574 26 102 204
-0.484177 0.273425 -0.106707 26 102 204
-0.452794 0.293373 -0.0510379 26 102 204
-0.456087 0.309408 -0.0874641 26 102 204
-0.454376 0.310287 0.132417 26 102 204
-0.469228 0.287309 -0.168851 26 102 204
-0.463195 0.286485 0.0197229 26 102 204
-0.461822 0.307692 -0.0139906 26 102 204
-0.474828 0.291425 0.0832507 26 102 204
-0.447651 0.326456 0.00391614 26 102 204
-0.451642 0.314535 -0.0781104 26 102 204
-0.447083 0.3371 -0.152226 26 102 204
-0.43197 0.335152 0.00338266 26 102 204
-0.459312 0.302382 -0.119517 26 102 204
-0.45446 0.324767 -0.109003 26 102 204
-0.445265 0.325491 -0.132855 26 102 204
-0.410136 0.32254 0.156077 26 102 204
-0.426264 0.344544 -0.11404 26 102 204
-0.425155 0.353776 -0.003774 26 102 204
-0.453274 0.2984 0.12589 26 102 204
-0.417372 0.365915 0.121039 26 102 204
-0.437228 0.322545 0.0485306 26 102 204
-0.425974 0.339812 0.0874266 26 102 204
-0.423493 0.34506 -0.0758459 26 102 204
-0.418403 0.356029 0.0299218 26 102 204
-0.449632 0.304548 0.0275088 26 102 204
-0.471921 0.247131 0.150815 26 102 204
-0.456177 0.280294 0.00718975 26 102 204
-0.408819 0.362356 -0.0976309 26 102 204
-0.457901 0.301928 -0.0810228 26 102 204
-0.450625 0.29946 0.14139 26 102 204
-0.461644 0.26424 -0.041641 26 102 204
-0.404451 0.352718 0.0802484 26 102 204
-0.468449 0.238462 -0.19461 26 102 204
-0.412216 0.31575 0.152431 26 102 204
-0.451699 0.266039 -0.188424 26 102 204
-0.388039 0.354174 0.177351 26 102 204
-0.390265 0.353764 0.0633706 26 102 204
-0.394663 0.357794 0.14651 26 102 204
-0.43994 0.257407 0.210028 26 102 204
-0.389021 0.348935 -0.0379975 26 102 204
-0.387804 0.353291 0.0101061 26 102 204
-0.391389 0.342273 -0.140829 26 102 204
-0.387494 0.35616 0.164079 26 102 204
-0.388399 0.346616 0.0385626 26 102 204
-0.46157 0.215195 -0.111916 26 102 204
-0.377635 0.351106 0.133708 26 102 204
-0.463406 0.201664 -0.11032 26 102 204
-0.416788 0.281886 -0.203482 26 102 204
-0.3712 0.343833 -0.0129816 26 102 204
-0.440747 0.235378 -0.201419 26 102 204
-0.450424 0.213405 -0.0408042 26 102 204
-0.372848 0.340053 0.110421 26 102 204
-0.37413 0.339727 0.0940297 26 102 204
-0.452248 0.200887 0.0611132 26 102 204
-0.359278 0.343688 0.165171 26 102 204
-0.368839 0.331806 -0.172175 26 102 204
-0.368824 0.330273 0.1911 26 102 204
-0.417416 0.253557 -0.208091 26 102 204
-0.448826 0.18959 0.214501 26 102 204
-0.437319 0.214566 -0.112633 26 102 204
-0.366509 0.331218 0.101912 26 102 204
-0.35272 0.327432 0.16777 26 102 204
-0.354169 0.333795 0.168913 26 102 204
-0.350768 0.337877 0.0517889 26 102 204
-0.344093 0.334752 0.0249641 26 102 204
-0.44157 0.199183 0.0349689 26 102 204
-0.443687 0.189306 -0.0419719 26 102 204
-0.357261 0.324821 -0.13709 26 102 204
-0.444919 0.177368 0.1697 26 102 204
-0.413394 0.222252 -0.198445 26 102 204
-0.435339 0.192432 0.103258 26 102 204
-0.341903 0.326471 -0.0727096 26 102 204
-0.351393 0.324488 -0.0667051 26 102 204
-0.351614 0.322367 0.195221 26 102 204
-0.42266 0.194356 -0.0933522 26 102 204
-0.357769 0.29982 -0.163154 26 102 204
-0.425387 0.191018 0.105899 26 102 204
-0.338146 0.310569 -0.0442889 26 102 204
-0.341394 0.326189 -0.0846557 26 102 204
-0.373104 0.270601 0.205559 26 102 204
-0.368902 0.294984 -0.201365 26 102 204
-0.356344 0.293962 -0.198897 26 102 204
-0.424136 0.183773 0.00199758 26 102 204
-0.395957 0.22571 -0.21912 26 102 204
-0.337617 0.319209 -0.0964851 26 102 204
-0.335101 0.316931 0.132431 26 102 204
-0.424789 0.167093 0.153748 26 102 204
-0.41241 0.18136 -0.191522 26 102 204
-0.42143 0.170177 -0.208607 26 102 204
-0.382392 0.236658 -0.213252 26 102 204
-0.394314 0.213781 0.194275 26 102 204
-0.377206 0.226383 0.214301 26 102 204
-0.331204 0.312618 0.121722 26 102 204
-0.414454 0.177301 -0.0504039 26 102 204
-0.327792 0.314474 -0.0878923 26 102 204
-0.413001 0.174382 -0.0193521 26 102 204
-0.406507 0.183246 0.0243911 26 102 204
-0.354278 0.2772 -0.202097 26 102 204
-0.396133 0.202882 0.220464 26 102 204
-0.402031 0.177895 0.117035 26 102 204
-0.325769 0.306725 -0.116211 26 102 204
-0.367569 0.2451 -0.210886 26 102 204
-0.329817 0.31142 0.0325599 26 102 204
-0.320009 0.30935 -0.0861839 26 102 204
-0.342475 0.263269 -0.20287 26 102 204
-0.388273 0.189542 -0.183502 26 102 204
-0.321859 0.303823 -0.0598505 26 102 204
-0.342197 0.278315 0.221992 26 102 204
-0.380048 0.200934 0.150979 26 102 204
-0.381274 0.191773 0.141774 26 102 204
-0.389646 0.19413 -0.19817 26 102 204
-0.386972 0.195152 0.126432 26 102 204
-0.323904 0.29027 -0.109082 26 102 204
-0.408897 0.152722 0.119317 26 102 204
-0.319746 0.306882 0.0727837 26 102 204
-0.37828 0.200105 0.209389 26 102 204
-0.311493 0.297545 -0.0874175 26 102 204
-0.384378 0.187951 0.213065 26 102 204
-0.327837 0.275925 -0.199578 26 102 204
-0.313469 0.294579 -0.162553 26 102 204
-0.392491 0.166231 -0.224743 26 102 204
-0.395055 0.155423 -0.0899916 26 102 204
-0.342127 0.246386 -0.20849 26 102 204
-0.329502 0.263676 0.216339 26 102 204
-0.371261 0.194684 -0.223087 26 102 204
-0.388203 0.14586 0.22419 26 102 204
-0.361495 0.210501 0.214476 26 102 204
-0.354467 0.22312 0.216112 26 102 204
-0.385457 0.151882 -0.0431175 26 102 204
-0.333648 0.263739 0.219518 26 102 204
-0.301896 0.297377 -0.0571585 26 102 204
-0.395653 0.150507 -0.174365 26 102 204
-0.312685 0.281128 -0.187503 26 102 204
-0.384055 0.160619 -0.217941 26 102 204
-0.32473 0.287653 -0.207923 26 102 204
-0.381067 0.166914 0.146217 26 102 204
-0.335052 0.236018 -0.116301 26 102 204
-0.391412 0.161666 0.211785 26 102 204
-0.375564 0.172346 0.137317 26 102 204
-0.380178 0.158107 -0.179374 26 102 204
-0.367794 0.175477 0.217989 26 102 204
-0.340338 0.221014 -0.19658 26 102 204
-0.380149 0.155269 -0.142584 26 102 204
-0.367342 0.174107 -0.172229 26 102 204
-0.371014 0.172529 -0.206081 26 102 204
-0.368348 0.163678 -0.187042 26 102 204
-0.3633 0.172784 0.210734 26 102 204
-0.301204 0.288112 -0.0666079 26 102 204
-0.377275 0.144002 0.164876 26 102 204
-0.352901 0.187458 0.156195 26 102 204
-0.373403 0.183189 0.190773 26 102 204
-0.368451 0.156278 0.187089 26 102 204
-0.368236 0.175553 -0.19967 26 102 204
-0.322468 0.230014 -0.215503 26 102 204
-0.358206 0.170283 -0.209694 26 102 204
-0.370125 0.158589 0.197661 26 102 204
-0.369624 0.160915 0.227396 26 102 204
-0.366313 0.156355 -0.0282875 26 102 204
-0.372168 0.140991 0.0643909 26 102 204
-0.341391 0.191305 0.194601 26 102 204
-0.359948 0.154715 0.144787 26 102 204
-0.374946 0.128748 -0.211996 26 102 204
-0.349794 0.180625 -0.22459 26 102 204
-0.358947 0.161078 -0.197746 26 102 204
-0.272908 0.292934 -0.0357093 26 102 204
-0.331155 0.206805 0.170789 26 102 204
-0.320223 0.220162 -0.205363 26 102 204
-0.297915 0.257248 -0.165884 26 102 204
-0.313957 0.227184 -0.178251 26 102 204
-0.348197 0.166023 0.230273 26 102 204
-0.388622 0.175794 -0.201777 26 102 204
-0.349855 0.160321 0.107709 26 102 204
-0.350214 0.171396 0.235647 26 102 204
-0.332942 0.194851 -0.181166 26 102 204
-0.346187 0.144151 -0.146821 26 102 204
-0.348725 0.166732 -0.161305 26 102 204
-0.339016 0.20298 -0.200213 26 102 204
-0.381839 0.194775 0.197284 26 102 204
-0.34689 0.158895 -0.203493 26 102 204
-0.33431 0.178711 0.196183 26 102 204
-0.375993 0.106879 0.226849 26 102 204
-0.360073 0.133235 -0.213782 26 102 204
-0.304397 0.225992 -0.221184 26 102 204
-0.25639 0.294847 0.0207663 26 102 204
-0.302034 0.224679 -0.214729 26 102 204
-0.366436 0.12499 -0.00574554 26 102 204
-0.304573 0.213038 0.194879 26 102 204
-0.340114 0.161208 -0.214591 26 102 204
-0.332422 0.17822 0.157078 26 102 204
-0.335194 0.158819 -0.177009 26 102 204
-0.344535 0.145097 -0.184775 26 102 204
-0.252098 0.287793 -0.0994388 26 102 204
-0.354582 0.121707 -0.183363 26 102 204
-0.348174 0.134954 -0.000355842 26 102 204
-0.353604 0.144647 0.207255 26 102 204
-0.363359 0.107308 0.197923 26 102 204
-0.347703 0.13279 -0.0924666 26 102 204
-0.317233 0.176708 -0.206442 26 102 204
-0.253536 0.28602 -0.165803 26 102 204
-0.248402 0.290123 -0.0153087 26 102 204
-0.342859 0.131756 0.207015 26 102 204
-0.249963 0.280057 0.180117 26 102 204
-0.347246 0.121159 0.219868 26 102 204
-0.246616 0.291829 -0.0667204 26 102 204
-0.261044 0.289822 -0.190992 26 102 204
-0.243301 0.283493 -0.0369885 26 102 204
-0.321348 0.154704 0.208704 26 102 204
-0.352626 0.110904 0.196416 26 102 204
-0.265403 0.249746 -0.154407 26 102 204
-0.294448 0.199684 0.217714 26 102 204
-0.245135 0.268493 0.186227 26 102 204
-0.346357 0.101352 0.167359 26 102 204
-0.277993 0.226641 -0.195528 26 102 204
-0.34757 0.0596002 -0.16399 26 102 204
-0.313031 0.175585 0.186506 26 102 204
-0.339066 0.117031 0.165701 26 102 204
-0.292526 0.182851 0.195726 26 102 204
-0.236431 0.343274 -0.145879 26 102 204
-0.238897 0.28572 0.0342092 26 102 204
-0.318285 0.122633 -0.209557 26 102 204
-0.335935 0.115427 -0.202067 26 102 204
-0.296617 0.182337 0.215972 26 102 204
-0.284798 0.191803 0.194455 26 102 204
-0.300359 0.172663 0.229817 26 102 204
-0.338338 0.104169 -0.122693 26 102 204
-0.271242 0.204962 -0.183353 26 102 204
-0.323032 0.109632 -0.195287 26 102 204
-0.30292 0.181783 0.167735 26 102 204
-0.291844 0.180539 0.182742 26 102 204
-0.34867 0.0835736 -0.204597 26 102 204
-0.331462 0.114422 -0.0956772 26 102 204
-0.273253 0.212549 -0.183281 26 102 204
-0.273969 0.216984 0.193717 26 102 204
-0.296588 0.168536 -0.170362 26 102 204
-0.267523 0.236412 -0.20045 26 102 204
-0.282681 0.178179 0.169418 26 102 204
-0.272377 0.198319 -0.165605 26 102 204
-0.316745 0.140536 -0.209769 26 102 204
-0.32525 0.112161 0.0256786 26 102 204
-0.300811 0.158322 0.20377 26 102 204
-0.296028 0.160991 -0.224779 26 102 204
-0.228803 0.267463 0.114362 26 102 204
-0.276888 0.193473 -0.204012 26 102 204
-0.304731 0.13615 0.154385 26 102 204
-0.309445 0.131388 0.229686 26 102 204
-0.322126 0.114584 -0.0249389 26 102 204
-0.321859 0.111362 0.193547 26 102 204
-0.309377 0.123556 0.153744 26 102 204
-0.312454 0.132766 -0.173183 26 102 204
-0.305195 0.135849 0.174261 26 102 204
-0.292055 0.157518 0.186257 26 102 204
-0.279972 0.179825 -0.19721 26 102 204
-0.319978 0.113053 -0.0859286 26 102 204
-0.316184 0.123361 0.180847 26 102 204
-0.225519 0.267093 -0.10596 26 102 204
-0.33261 0.0856045 0.223151 26 102 204
-0.230999 0.264861 0.221122 26 102 204
-0.275345 0.179838 0.127893 26 102 204
-0.300576 0.144727 -0.214773 26 102 204
-0.31355 0.112317 0.203138 26 102 204
-0.292691 0.147096 -0.136275 26 102 204
-0.269863 0.185081 -0.170477 26 102 204
-0.300799 0.133831 -0.19567 26 102 204
-0.209125 0.281128 0.137441 26 102 204
-0.278826 0.169401 0.20119 26 102 204
-0.266509 0.186119 -0.208564 26 102 204
-0.323007 0.0811539 -0.217287 26 102 204
-0.234914 0.249365 0.203046 26 102 204
-0.215331 0.27101 0.0964038 26 102 204
-0.310606 0.11015 0.142949 26 102 204
-0.297408 0.164426 0.127538 26 102 204
-0.301761 0.12242 -0.157516 26 102 204
-0.267479 0.175605 -0.18959 26 102 204
-0.284537 0.164107 -0.19594 26 102 204
-0.284439 0.167502 -0.22678 26 102 204
-0.208904 0.271503 0.0288555 26 102 204
-0.286152 0.141154 -0.181866 26 102 204
-0.298106 0.114699 0.232757 26 102 204
-0.300262 0.10482 -0.21322 26 102 204
-0.277142 0.16833 0.156298 26 102 204
-0.268259 0.165624 -0.1727 26 102 204
-0.305748 0.106877 -0.113279 26 102 204
-0.288513 0.135911 -0.207278 26 102 204
-0.221566 0.246464 0.150534 26 102 204
-0.303209 0.104294 -0.00103347 26 102 204
-0.291899 0.121129 -0.153002 26 102 204
-0.210405 0.247689 -0.069317 26 102 204
-0.275295 0.142197 -0.201314 26 102 204
-0.300776 0.1144 0.161562 26 102 204
-0.281515 0.131105 0.194254 26 102 204
-0.261594 0.176609 0.22523 26 102 204
-0.250195 0.165702 0.207149 26 102 204
-0.273669 0.145882 0.173314 26 102 204
-0.281838 0.126637 -0.105814 26 102 204
-0.296297 0.104824 -0.20218 26 102 204
-0.275479 0.137834 0.208816 26 102 204
-0.316937 0.0706344 0.209837 26 102 204
-0.300352 0.101837 0.185824 26 102 204
-0.241345 0.18034 0.221299 26 102 204
-0.28581 0.111359 0.213148 26 102 204
-0.29583 0.0985043 -0.214912 26 102 204
-0.294381 0.100024 -0.219271 26 102 204
-0.287296 0.115309 0.21285 26 102 204
-0.268805 0.159726 -0.209591 26 102 204
-0.305745 0.0856857 0.0912924 26 102 204
-0.297663 0.0799081 0.226552 26 102 204
-0.246131 0.286523 0.171231 26 102 204
-0.189011 0.273657 0.0335163 26 102 204
-0.304644 0.0710198 0.208303 26 102 204
-0.311533 0.102479 -0.227396 26 102 204
-0.309091 0.0785297 -0.235783 26 102 204
-0.261188 0.144942 0.196598 26 102 204
-0.298194 0.0901704 -0.141154 26 102 204
-0.257429 0.150607 0.136867 26 102 204
-0.196392 0.256352 -0.102798 26 102 204
-0.210634 0.214018 -0.223842 26 102 204
-0.255479 0.171831 0.223772 26 102 204
-0.260527 0.137174 -0.200828 26 102 204
-0.185302 0.263278 0.0491567 26 102 204
-0.269955 0.12097 0.135152 26 102 204
-0.297957 0.125024 -0.211003 26 102 204
-0.264712 0.132185 -0.191555 26 102 204
-0.284152 0.109029 0.157137 26 102 204
-0.262139 0.130832 -0.197851 26 102 204
-0.280721 0.109009 -0.206572 26 102 204
-0.18613 0.261896 -0.0441088 26 102 204
-0.19034 0.257739 -0.0490236 26 102 204
-0.183475 0.267278 0.1564 26 102 204
-0.184519 0.256985 -0.138342 26 102 204
-0.267743 0.117128 0.176194 26 102 204
-0.263068 0.128582 0.188254 26 102 204
-0.187061 0.25269 0.140517 26 102 204
-0.186748 0.245742 -0.164836 26 102 204
-0.287412 0.0815807 -0.205171 26 102 204
-0.292709 0.0752452 0.0961067 26 102 204
-0.263739 0.117665 -0.217255 26 102 204
-0.280365 0.0964504 0.207994 26 102 204
-0.182714 0.246068 -0.0913721 26 102 204
-0.292202 0.0791778 0.0918947 26 102 204
-0.243984 0.154813 0.148641 26 102 204
-0.273895 0.101124 0.236653 26 102 204
-0.271964 0.0980023 0.190153 26 102 204
-0.284922 0.0698856 0.0911193 26 102 204
-0.23266 0.15944 0.200348 26 102 204
-0.170634 0.251887 -0.0448205 26 102 204
-0.276402 0.0942639 0.177527 26 102 204
-0.23316 0.153216 0.217114 26 102 204
-0.171209 0.257361 -0.0400301 26 102 204
-0.264231 0.0988996 0.18087 26 102 204
-0.25804 0.114835 0.183863 26 102 204
-0.264709 0.119356 -0.168705 26 102 204
-0.266386 0.0984418 -0.206286 26 102 204
-0.224369 0.184214 0.150452 26 102 204
-0.254583 0.114808 -0.199138 26 102 204
-0.24656 0.130558 0.144975 26 102 204
-0.273454 0.0773088 0.0268041 26 102 204
-0.179609 0.231865 0.205956 26 102 204
-0.214055 0.18374 0.229226 26 102 204
-0.243723 0.120156 0.220249 26 102 204
-0.279056 0.0917644 -0.231893 26 102 204
-0.233867 0.150726 0.218592 26 102 204
-0.268269 0.0781782 0.117647 26 102 204
-0.256776 0.0929653 0.186865 26 102 204
-0.262036 0.0864741 0.191387 26 102 204
-0.20895 0.174061 0.212462 26 102 204
-0.234229 0.130226 0.211398 26 102 204
-0.275239 0.0668112 0.0734377 26 102 204
-0.245382 0.117511 0.147425 26 102 204
-0.266067 0.0817951 0.151876 26 102 204
-0.250351 0.0964327 0.184239 26 102 204
-0.237699 0.122328 -0.212929 26 102 204
-0.265031 0.0794489 0.0309051 26 102 204
-0.262195 0.0810852 0.146423 26 102 204
-0.25324 0.0909438 -0.137654 26 102 204
-0.243615 0.10132 -0.146253 26 102 204
-0.254985 0.0897185 -0.195615 26 102 204
-0.262618 0.0685726 -0.200096 26 102 204
-0.238942 0.108698 0.208396 26 102 204
-0.218689 0.141338 0.169645 26 102 204
-0.169579 0.245918 0.172589 26 102 204
-0.251405 0.0856954 0.174321 26 102 204
-0.21144 0.144138 -0.089459 26 102 204
-0.226306 0.113172 0.170006 26 102 204
-0.259863 0.0707537 0.139346 26 102 204
-0.248245 0.0807624 0.213856 26 102 204
-0.215914 0.137067 -0.178678 26 102 204
-0.256237 0.069284 -0.062675 26 102 204
-0.150508 0.255083 0.133941 26 102 204
-0.212631 0.162014 -0.158624 26 102 204
-0.243556 0.0970245 0.164547 26 102 204
-0.238018 0.09763 -0.175 26 102 204
-0.247524 0.0827618 -0.212297 26 102 204
-0.232284 0.116099 0.193694 26 102 204
-0.237517 0.0915904 -0.172826 26 102 204
-0.254195 0.0693621 0.0376379 26 102 204
-0.22855 0.111549 -0.197109 26 102 204
-0.244927 0.0851054 0.138474 26 102 204
-0.225635 0.102848 -0.215796 26 102 204
-0.243341 0.0737347 -0.192195 26 102 204
-0.244342 0.0653063 -0.0138426 26 102 204
-0.22626 0.097911 0.220282 26 102 204
-0.191339 0.147061 0.177853 26 102 204
-0.223952 0.0896334 -0.185618 26 102 204
-0.219635 0.0891309 -0.182779 26 102 204
-0.233502 0.0740055 -0.165751 26 102 204
-0.218318 0.0964951 0.215666 26 102 204
-0.217382 0.100009 -0.0337353 26 102 204
-0.215617 0.0936667 0.21967 26 102 204
-0.229837 0.0724963 0.19251 26 102 204
-0.165654 0.155998 -0.213826 26 102 204
-0.221927 0.0656984 -0.136857 26 102 204
-0.220161 0.0564801 -0.164494 26 102 204
-0.217802 0.0675238 -0.208706 26 102 204
-0.102407 0.252086 0.0691876 26 102 204
-0.213046 0.0530111 0.101637 26 102 204
-0.215632 0.047621 0.138035 26 102 204
-0.14643 0.149673 0.209018 26 102 204
-0.152916 0.137044 -0.210037 26 102 204
-0.083081 0.242807 0.0446723 26 102 204
-0.195094 0.0404835 -0.157426 26 102 204
-0.195815 0.0396794 -0.0942771 26 102 204
-0.0725819 0.239381 0.00340038 26 102 204
-0.0685191 0.230387 0.0158494 26 102 204
-0.0677726 0.238297 0.0152456 26 102 204
-0.117983 0.150007 -0.205048 26 102 204
-0.267938 0.0845034 0.20676 26 102 204
-0.143133 0.0870315 -0.208525 26 102 204
-0.0623333 0.231399 -0.088521 26 102 204
-0.166012 0.0559454 -0.19107 26 102 204
-0.0678629 0.205539 0.141018 26 102 204
-0.101858 0.144052 0.194729 26 102 204
-0.077454 0.188489 -0.171497 26 102 204
-0.190389 0.0258202 -0.204776 26 102 204
-0.134708 0.0657004 0.216697 26 102 204
-0.169892 0.0226543 -0.107971 26 102 204
-0.140632 0.0514003 0.187784 26 102 204
-0.157989 0.0224872 0.208452 26 102 204
-0.0372286 0.236683 0.0109013 26 102 204
-0.0305817 0.216887 -0.0213647 26 102 204
-0.0389226 0.2115 0.125573 26 102 204
-0.117052 0.0764803 0.190628 26 102 204
-0.151567 0.0122184 0.157729 26 102 204
-0.144234 0.0428664 -0.190135 26 102 204
-0.113516 0.0732146 -0.192444 26 102 204
-0.114827 0.048174 -0.20391 26 102 204
-0.0159637 0.214369 0.0344628 26 102 204
-0.0857888 0.0919291 0.207799 26 102 204
-0.078775 0.0999126 -0.196738 26 102 204
-0.0262702 0.169586 0.176042 26 102 204
-0.0694088 0.146036 -0.183914 26 102 204
-0.130484 0.0448814 -0.204519 26 102 204
-0.0291796 0.153335 -0.158134 26 102 204
0.00146909 0.208287 -0.0520786 26 102 204
-0.108445 0.0209816 -0.199961 26 102 204
-0.111325 0.0226516 0.204301 26 102 204
-0.0121557 0.170476 0.150775 26 102 204
0.00558914 0.20356 -0.0730712 26 102 204
-0.000530041 0.178413 0.150274 26 102 204
-0.0537031 0.0966813 0.192239 26 102 204
0.00933511 0.189934 -0.0204011 26 102 204
-0.0940322 0.0124619 0.198977 26 102 204
0.0208077 0.200149 -0.0214731 26 102 204
-0.109392 -0.0172631 -0.0192954 26 102 204
0.0209891 0.191228 -0.0594036 26 102 204
0.0237611 0.190194 0.0613793 26 102 204
-0.0523134 0.0811125 -0.197652 26 102 204
-0.0996164 0.00548198 -0.18706 26 102 204
-0.0946923 -0.0277081 0.109057 26 102 204
-0.0252228 0.0958441 0.19279 26 102 204
-0.0973683 -0.0287828 0.104885 26 102 204
0.0292146 0.183288 0.108291 26 102 204
0.0278264 0.174506 -0.12297 26 102 204
-0.0651894 -0.0118618 0.148088 26 102 204
0.0365515 0.180093 0.130351 26 102 204
-0.0938514 -0.0265524 -0.0498935 26 102 204
0.00874958 0.12862 0.159569 26 102 204
-0.0843665 -0.0331728 0.169068 26 102 204
-0.0213899 0.054179 0.200113 26 102 204
0.0311838 0.147189 -0.15233 26 102 204
-0.00153831 0.0566123 0.187368 26 102 204
-0.0411264 0.0172972 0.187323 26 102 204
-0.0323256 0.0439739 -0.20183 26 102 204
-0.0609196 -0.0405639 0.0809195 26 102 204
-0.0430034 0.00522574 0.190135 26 102 204
-0.0584747 -0.0449824 0.177419 26 102 204
-0.0528214 -0.0491653 -0.124947 26 102 204
0.0807024 0.153178 -0.0748621 26 102 204
0.0717543 0.148105 -0.0891448 26 102 204
0.06983 0.12785 0.147194 26 102 204
0.0704211 0.154965 -0.0347746 26 102 204
-0.0249702 -0.04725 -0.1906 26 102 204
-0.0316365 -0.0608801 0.128346 26 102 204
-0.022145 -0.0614832 -0.0571528 26 102 204
0.0116954 -0.0106848 -0.194014 26 102 204
-0.0182942 -0.0432321 -0.143473 26 102 204
0.100752 0.127007 -0.117602 26 102 204
0.104157 0.136978 -0.0543065 26 102 204
0.0986751 0.134951 -0.000592455 26 102 204
-0.00046115 -0.049403 0.187599 26 102 204
0.10901 0.135024 0.0784013 26 102 204
0.0306219 0.0265608 -0.186555 26 102 204
0.0617463 0.0574861 -0.181787 26 102 204
0.0592501 0.0287807 -0.186467 26 102 204
0.0215935 -0.0336859 -0.196835 26 102 204
-0.00337969 -0.0705798 -0.102391 26 102 204
0.0750783 0.0472516 0.193471 26 102 204
-0.00338708 -0.0755582 0.10836 26 102 204
0.0580216 0.0160882 -0.180681 26 102 204
0.0907851 0.0680526 0.16217 26 102 204
0.100882 0.0797818 -0.10773 26 102 204
0.0139461 -0.0769829 0.197897 26 102 204
0.030171 -0.0911615 0.148026 26 102 204
0.102457 0.0684128 -0.14865 26 102 204
0.0163298 -0.0891475 -0.105428 26 102 204
0.0197419 -0.0885922 -0.093126 26 102 204
0.109325 0.062091 -0.13413 26 102 204
0.0911412 0.0397008 -0.17133 26 102 204
0.111832 0.0566872 -0.152196 26 102 204
0.0490863 -0.0568994 -0.204346 26 102 204
0.0624565 -0.0371069 -0.188511 26 102 204
0.0314725 -0.0839535 -0.197754 26 102 204
0.0254116 -0.0918501 -0.0165752 26 102 204
0.0619144 -0.0273238 0.191975 26 102 204
0.132419 0.085393 -0.119494 26 102 204
0.0610749 -0.0345144 -0.160753 26 102 204
-0.0624784 -0.0399682 0.190536 26 102 204
0.0374156 -0.0981917 0.020211 26 102 204
0.136823 0.0460132 0.160261 26 102 204
0.124815 0.0586053 0.144433 26 102 204
0.117437 0.0197642 0.184194 26 102 204
0.0587942 -0.0748757 0.197912 26 102 204
0.047822 -0.0966569 0.200378 26 102 204
0.137008 0.0557441 0.0393784 26 102 204
0.134494 0.0538443 0.0726939 26 102 204
0.0980411 -0.0104218 -0.192438 26 102 204
0.139255 0.0326279 0.0363468 26 102 204
0.128453 0.0624967 -0.0491707 26 102 204
0.131475 0.0273208 0.163973 26 102 204
0.0481925 -0.0900316 0.199235 26 102 204
0.130475 0.0379182 0.165872 26 102 204
0.132597 0.0246918 -0.119744 26 102 204
0.149296 0.0219494 -0.073604 26 102 204
0.127121 -0.00958297 0.185873 26 102 204
0.149228 0.0402255 -0.0116234 26 102 204
0.142988 0.0436371 -0.142233 26 102 204
0.139997 0.0141425 -0.179809 26 102 204
0.148008 0.0394664 -0.0286133 26 102 204
0.147089 0.0245803 0.074781 26 102 204
0.130143 -0.00791399 -0.192442 26 102 204
0.154321 0.0383977 0.00443824 26 102 204
0.101692 -0.0920657 0.206605 26 102 204
0.156179 0.0262847 -0.0321442 26 102 204
0.122107 -0.0169064 0.190943 26 102 204
0.151032 0.0285023 -0.00296477 26 102 204
0.14272 0.00134995 0.182105 26 102 204
0.157995 0.0321051 0.0163933 26 102 204
0.11439 -0.0423315 0.175507 26 102 204
0.0633334 -0.111333 0.0934103 26 102 204
0.170894 0.0280376 -0.0619455 26 102 204
0.152302 0.0199509 0.180281 26 102 204
0.152223 0.0104384 -0.174907 26 102 204
0.0968801 -0.101741 0.204317 26 102 204
0.125476 -0.0296357 -0.179364 26 102 204
0.153691 0.00409012 -0.17276 26 102 204
0.174496 0.0246498 0.133993 26 102 204
0.172311 0.0177081 0.10376 26 102 204
0.16853 0.0127707 -0.170942 26 102 204
0.164875 0.00930644 0.180164 26 102 204
0.185271 0.0221093 -0.040407 26 102 204
0.178826 0.0305501 -0.107923 26 102 204
0.0948347 -0.133916 0.118144 26 102 204
0.11685 -0.0991082 -0.200652 26 102 204
0.0937458 -0.130852 -0.0117654 26 102 204
0.165304 -0.0162018 0.207462 26 102 204
0.155514 -0.0485634 0.206017 26 102 204
0.0950294 -0.136725 0.04077 26 102 204
0.0968216 -0.136897 -0.0050023 26 102 204
0.119373 -0.105311 -0.187454 26 102 204
0.118193 -0.139963 -0.024835 26 102 204
0.191932 -0.00787161 -0.0452352 26 102 204
0.129359 -0.150957 0.101447 26 102 204
0.131175 -0.123591 -0.204573 26 102 204
0.143756 -0.156175 0.209224 26 102 204
0.127951 -0.150617 -0.148734 26 102 204
0.193233 -0.0237105 0.188664 26 102 204
0.123037 -0.15093 -0.0472068 26 102 204
0.209442 -0.022035 -0.0487623 26 102 204
0.207358 -0.0233767 -0.0609643 26 102 204
0.145078 -0.147643 -0.185976 26 102 204
0.134086 -0.153232 -0.118188 26 102 204
0.129771 -0.154294 -0.0252927 26 102 204
0.144506 -0.123536 -0.203503 26 102 204
0.177543 -0.0812296 -0.200907 26 102 204
0.210178 -0.0388523 0.210754 26 102 204
0.202372 -0.0452022 -0.202871 26 102 204
0.155838 -0.139295 -0.200557 26 102 204
0.130254 -0.158976 0.132934 26 102 204
0.205757 -0.0542151 -0.167606 26 102 204
0.216242 -0.049172 0.153738 26 102 204
0.214102 -0.0309093 -0.160806 26 102 204
0.153773 -0.166067 0.0176174 26 102 204
0.223742 -0.0462178 -0.0222683 26 102 204
0.193831 -0.0852424 -0.207501 26 102 204
0.161157 -0.156871 -0.186521 26 102 204
0.238389 -0.0443844 -0.106274 26 102 204
0.232144 -0.0466839 -0.14611 26 102 204
0.230019 -0.0576957 -0.18348 26 102 204
0.238894 -0.0498886 0.100934 26 102 204
0.225806 -0.0906413 -0.147455 26 102 204
0.219516 -0.106581 -0.195651 26 102 204
0.165251 -0.172909 -0.125037 26 102 204
0.174792 -0.171321 0.194013 26 102 204
0.230412 -0.088937 -0.123944 26 102 204
0.169956 -0.17445 -0.15189 26 102 204
0.206245 -0.122676 0.00137369 26 102 204
0.173812 -0.178173 -0.111968 26 102 204
0.183161 -0.163521 -0.153859 26 102 204
0.196754 -0.144614 -0.19031 26 102 204
0.240816 -0.0531544 -0.0425284 26 102 204
0.219367 -0.10492 -0.170526 26 102 204
0.232405 -0.0796343 0.033479 26 102 204
0.220354 -0.101646 -0.186768 26 102 204
0.245302 -0.0637784 0.0731083 26 102 204
0.173697 -0.181077 0.114244 26 102 204
0.184349 -0.168612 0.190025 26 102 204
0.245361 -0.0593521 0.120413 26 102 204
0.202407 -0.137918 0.142214 26 102 204
0.222491 -0.108469 0.161707 26 102 204
0.234823 -0.0802255 -0.190615 26 102 204
0.183717 -0.181055 0.0700986 26 102 204
0.230136 -0.0912315 0.134701 26 102 204
0.193458 -0.147541 -0.117425 26 102 204
0.223044 -0.100821 0.199198 26 102 204
0.235444 -0.0890099 0.191277 26 102 204
0.247017 -0.0770046 0.188257 26 102 204
0.192965 -0.176711 -0.157596 26 102 204
0.222572 -0.112281 0.205594 26 102 204
0.18761 -0.170368 -0.177203 26 102 204
0.190128 -0.178751 0.17723 26 102 204
0.188804 -0.186752 0.215092 26 102 204
0.199734 -0.170594 0.190285 26 102 204
0.201905 -0.170005 -0.130123 26 102 204
0.260757 -0.06525 0.0388143 26 102 204
0.205903 -0.166652 0.173458 26 102 204
0.25919 -0.0636441 -0.011263 26 102 204
0.192784 -0.181327 0.177319 26 102 204
0.238723 -0.118988 -0.210133 26 102 204
0.259907 -0.0652409 0.159795 26 102 204
0.229954 -0.120587 -0.195251 26 102 204
0.241326 -0.112305 -0.0325501 26 102 204
0.203844 -0.178654 -0.181654 26 102 204
0.246566 -0.110443 -0.185685 26 102 204
0.238884 -0.108059 0.13295 26 102 204
0.256763 -0.0835868 0.189822 26 102 204
0.249476 -0.100259 -0.041093 26 102 204
0.253739 -0.0990362 -0.131594 26 102 204
0.206083 -0.168864 0.207312 26 102 204
0.224173 -0.15316 0.209421 26 102 204
0.217502 -0.159254 -0.194717 26 102 204
0.196719 -0.192291 -0.156604 26 102 204
0.268247 -0.0771062 -0.0449211 26 102 204
0.262179 -0.091578 0.00821172 26 102 204
0.313899 -0.242889 -0.184635 26 102 204
0.200293 -0.19619 0.0513253 26 102 204
0.19323 -0.205651 0.188067 26 102 204
0.245291 -0.127653 0.178326 26 102 204
0.246528 -0.111374 -0.19881 26 102 204
0.239128 -0.133952 -0.179204 26 102 204
0.243154 -0.136822 -0.162757 26 102 204
0.26049 -0.103226 -0.183627 26 102 204
0.263141 -0.136261 -0.14486 26 102 204
0.245933 -0.1333 0.19358 26 102 204
0.209251 -0.169887 0.17101 26 102 204
0.255611 -0.120361 0.17982 26 102 204
0.239525 -0.143896 0.198985 26 102 204
0.230807 -0.131388 -0.144637 26 102 204
0.320827 -0.129433 0.101714 26 102 204
0.263597 -0.131698 -0.196946 26 102 204
0.225571 -0.16083 0.193837 26 102 204
0.262972 -0.117111 -0.0794557 26 102 204
0.254194 -0.126873 -0.165397 26 102 204
0.225691 -0.205044 -0.143465 26 102 204
0.232799 -0.166693 -0.190133 26 102 204
0.208716 -0.208481 -0.144171 26 102 204
0.289548 -0.0836794 -0.116523 26 102 204
0.236112 -0.192814 -0.172261 26 102 204
0.251527 -0.14476 -0.207739 26 102 204
0.231078 -0.185154 -0.203912 26 102 204
0.282166 -0.0988002 -0.1671 26 102 204
0.24895 -0.160178 0.205717 26 102 204
0.270506 -0.13669 -0.177675 26 102 204
0.230859 -0.223158 0.218446 26 102 204
0.236183 -0.185836 -0.203655 26 102 204
0.220743 -0.223765 0.210044 26 102 204
0.296376 -0.0860259 0.0711498 26 102 204
0.298217 -0.0932257 -0.167379 26 102 204
0.221943 -0.207213 0.0944805 26 102 204
0.223546 -0.218234 0.0150524 26 102 204
0.256503 -0.164292 0.169911 26 102 204
0.232638 -0.226378 0.214521 26 102 204
0.244537 -0.189054 0.186806 26 102 204
0.23406 -0.218297 0.210779 26 102 204
0.226426 -0.218519 -0.21652 26 102 204
0.250722 -0.170785 0.213272 26 102 204
0.222273 -0.220245 0.0382696 26 102 204
0.280094 -0.136394 0.147806 26 102 204
0.272962 -0.16527 -0.141205 26 102 204
0.305157 -0.100824 -0.167315 26 102 204
0.227492 -0.215888 -0.191576 26 102 204
0.254778 -0.182552 0.196806 26 102 204
0.23754 -0.218526 0.20821 26 102 204
0.304181 -0.105176 0.158128 26 102 204
0.237535 -0.20758 0.150511 26 102 204
0.307377 -0.103577 0.172712 26 102 204
0.247929 -0.199826 0.198059 26 102 204
0.228128 -0.237211 0.197815 26 102 204
0.235171 -0.218323 -0.148504 26 102 204
0.261537 -0.179044 0.208148 26 102 204
0.2378 -0.217747 0.190147 26 102 204
0.285706 -0.149779 -0.0763396 26 102 204
0.308254 -0.10952 0.0745847 26 102 204
0.25125 -0.168785 -0.188107 26 102 204
0.276961 -0.156126 0.12709 26 102 204
0.258761 -0.194764 0.160304 26 102 204
0.263032 -0.240735 0.226483 26 102 204
0.295672 -0.138677 0.0161132 26 102 204
0.228709 -0.249027 0.204065 26 102 204
0.315004 -0.102168 0.167512 26 102 204
0.308493 -0.109838 0.176093 26 102 204
0.286732 -0.15531 -0.159797 26 102 204
0.289872 -0.155345 -0.195027 26 102 204
0.249184 -0.213804 0.212128 26 102 204
0.277134 -0.173769 0.178044 26 102 204
0.324722 -0.101378 0.165144 26 102 204
0.278458 -0.17301 0.193965 26 102 204
0.252965 -0.222421 0.193635 26 102 204
0.261065 -0.216695 0.208666 26 102 204
0.297436 -0.138173 -0.214 26 102 204
0.321272 -0.111815 -0.149182 26 102 204
0.249155 -0.217094 0.192624 26 102 204
0.252848 -0.239431 0.201412 26 102 204
0.276068 -0.189021 0.201905 26 102 204
0.281006 -0.186668 -0.174127 26 102 204
0.267455 -0.213948 -0.193069 26 102 204
0.266851 -0.179484 0.204662 26 102 204
0.332996 -0.106348 -0.00567979 26 102 204
0.277305 -0.186717 -0.204072 26 102 204
0.306512 -0.14224 0.196885 26 102 204
0.255257 -0.23362 -0.184652 26 102 204
0.258574 -0.222562 -0.131336 26 102 204
0.260385 -0.243063 -0.159388 26 102 204
0.242011 -0.264333 -0.20098 26 102 204
0.297148 -0.18475 0.142953 26 102 204
0.30236 -0.165587 -0.13796 26 102 204
0.25751 -0.24965 0.128044 26 102 204
0.310688 -0.156772 -0.188125 26 102 204
0.276717 -0.209044 -0.195139 26 102 204
0.259616 -0.242491 0.207183 26 102 204
0.272865 -0.218416 -0.195029 26 102 204
0.332161 -0.125619 0.181936 26 102 204
0.257781 -0.248992 0.0165988 26 102 204
0.32345 -0.15266 -0.199382 26 102 204
0.306273 -0.166356 -0.199108 26 102 204
0.282645 -0.208894 -0.176702 26 102 204
0.295898 -0.188782 -0.197189 26 102 204
0.337211 -0.121743 -0.138911 26 102 204
0.267746 -0.246861 -0.189129 26 102 204
0.273984 -0.237551 -0.208328 26 102 204
0.292887 -0.193695 0.168423 26 102 204
0.310431 -0.168026 -0.185822 26 102 204
0.291468 -0.202479 0.224565 26 102 204
0.302035 -0.198114 -0.182068 26 102 204
0.322327 -0.15601 0.163079 26 102 204
0.266738 -0.24622 -0.0508166 26 102 204
0.289256 -0.214844 0.15187 26 102 204
0.342425 -0.125566 0.052554 26 102 204
0.311542 -0.175233 -0.190885 26 102 204
0.278286 -0.234283 -0.121043 26 102 204
0.322955 -0.166426 0.179093 26 102 204
0.323049 -0.169379 0.2007 26 102 204
0.34823 -0.114483 -0.0024602 26 102 204
0.292913 -0.198248 0.207515 26 102 204
0.271372 -0.260902 0.180727 26 102 204
0.321514 -0.170103 -0.203918 26 102 204
0.309476 -0.188332 -0.188833 26 102 204
0.336154 -0.148016 0.186021 26 102 204
0.296652 -0.224794 0.206388 26 102 204
0.282321 -0.238756 -0.185523 26 102 204
0.327668 -0.162291 0.121703 26 102 204
0.353084 -0.126287 0.0698017 26 102 204
0.361501 -0.116906 0.0353187 26 102 204
0.330675 -0.161081 0.206842 26 102 204
0.323506 -0.179823 0.212864 26 102 204
0.277247 -0.243675 0.201971 26 102 204
0.317874 -0.187313 0.128603 26 102 204
0.348201 -0.137058 -0.0330869 26 102 204
0.272124 -0.265841 -0.162621 26 102 204
0.285499 -0.246165 0.212445 26 102 204
0.282093 -0.247862 -0.170095 26 102 204
0.302405 -0.217727 0.177585 26 102 204
0.312448 -0.201244 0.146548 26 102 204
0.319541 -0.186734 0.1719 26 102 204
0.354037 -0.132994 -0.121123 26 102 204
0.278756 -0.259312 -0.115761 26 102 204
0.328004 -0.181043 0.197844 26 102 204
0.292555 -0.258559 0.205045 26 102 204
0.339236 -0.166646 0.179459 26 102 204
0.293642 -0.237205 0.213486 26 102 204
0.281311 -0.263054 0.00834408 26 102 204
0.320178 -0.208611 0.181107 26 102 204
0.315513 -0.212598 0.156531 26 102 204
0.305677 -0.239507 0.133025 26 102 204
0.370872 -0.208397 -0.208212 26 102 204
0.361467 -0.13805 0.0350269 26 102 204
0.307996 -0.259032 0.204165 26 102 204
0.320317 -0.206051 0.146004 26 102 204
0.308433 -0.228448 0.209692 26 102 204
0.323875 -0.197853 -0.167974 26 102 204
0.35137 -0.149128 0.172179 26 102 204
0.343318 -0.171271 -0.166886 26 102 204
0.29776 -0.254291 0.215413 26 102 204
0.346715 -0.174268 0.194744 26 102 204
0.328855 -0.19961 0.126806 26 102 204
0.284972 -0.270163 -0.017271 26 102 204
0.348035 -0.194672 -0.201202 26 102 204
0.320333 -0.213178 -0.18167 26 102 204
0.343386 -0.176654 -0.121191 26 102 204
0.34512 -0.190972 -0.208692 26 102 204
0.300427 -0.257008 -0.143405 26 102 204
0.300191 -0.259355 0.207027 26 102 204
0.307514 -0.240908 0.172742 26 102 204
0.330789 -0.209814 0.206654 26 102 204
0.338811 -0.196028 -0.171965 26 102 204
0.341727 -0.219541 0.182667 26 102 204
0.33531 -0.210704 -0.214132 26 102 204
0.337019 -0.206054 0.170828 26 102 204
0.360287 -0.162983 -0.0917269 26 102 204
0.339508 -0.199038 -0.163101 26 102 204
0.306825 -0.26894 -0.122763 26 102 204
0.349715 -0.190174 0.158198 26 102 204
0.319395 -0.240681 0.181671 26 102 204
0.32337 -0.245514 0.216598 26 102 204
0.375808 -0.155559 -0.107161 26 102 204
0.36319 -0.174939 -0.0729138 26 102 204
0.37422 -0.148884 -0.0663388 26 102 204
0.31454 -0.283006 -0.17639 26 102 204
0.355671 -0.213599 -0.126059 26 102 204
0.327402 -0.244658 0.154849 26 102 204
0.309509 -0.27004 0.140288 26 102 204
0.364253 -0.205272 -0.195121 26 102 204
0.316819 -0.265228 -0.182172 26 102 204
0.405148 -0.159299 -0.0321404 26 102 204
0.372576 -0.180545 0.14276 26 102 204
0.320912 -0.257002 -0.170518 26 102 204
0.368463 -0.184084 -0.19107 26 102 204
0.312954 -0.27563 -0.00196373 26 102 204
0.360508 -0.212426 -0.132961 26 102 204
0.345647 -0.235577 0.19286 26 102 204
0.379244 -0.171306 0.120037 26 102 204
0.332488 -0.270216 0.171256 26 102 204
0.325207 -0.277943 -0.0927462 26 102 204
0.364309 -0.220202 0.146858 26 102 204
0.327065 -0.282971 -0.0203905 26 102 204
0.388186 -0.211368 -0.00961349 26 102 204
0.35876 -0.231477 0.186275 26 102 204
0.352306 -0.245873 -0.17845 26 102 204
0.348182 -0.240121 -0.180711 26 102 204
0.357822 -0.229957 0.187533 26 102 204
0.355485 -0.237567 -0.171087 26 102 204
0.353275 -0.258069 -0.138094 26 102 204
0.356198 -0.240301 -0.168595 26 102 204
0.36887 -0.228849 -0.156371 26 102 204
0.330256 -0.284963 0.0542848 26 102 204
0.346459 -0.281458 0.18888 26 102 204
0.339119 -0.285057 0.000870294 26 102 204
0.336831 -0.277269 -0.180143 26 102 204
0.348872 -0.258982 -0.16269 26 102 204
0.38521 -0.209426 -0.146054 26 102 204
0.369497 -0.236074 -0.179037 26 102 204
0.381369 -0.225582 -0.149469 26 102 204
0.405996 -0.18103 -0.0575381 26 102 204
0.373166 -0.245415 -0.139083 26 102 204
0.355929 -0.280731 0.1823 26 102 204
0.339359 -0.298572 0.155774 26 102 204
0.34378 -0.289599 -0.203454 26 102 204
0.341667 -0.288867 0.0776452 26 102 204
0.41033 -0.17863 -0.0118154 26 102 204
0.360824 -0.282394 0.172464 26 102 204
0.355637 -0.278683 -0.184498 26 102 204
0.391165 -0.229128 -0.147807 26 102 204
0.364984 -0.261406 0.13786 26 102 204
0.361928 -0.269821 0.172016 26 102 204
0.378818 -0.249853 -0.172969 26 102 204
0.366721 -0.27362 0.199268 26 102 204
0.356888 -0.291048 -0.0958062 26 102 204
0.374011 -0.272111 0.160613 26 102 204
0.362655 -0.277132 -0.155846 26 102 204
0.41265 -0.199186 -0.0714376 26 102 204
0.421319 -0.194918 0.0976625 26 102 204
0.38219 -0.24627 -0.181919 26 102 204
0.367241 -0.278982 -0.179634 26 102 204
0.368463 -0.280462 0.172906 26 102 204
0.373653 -0.265665 -0.14073 26 102 204
0.361221 -0.301386 -0.086306 26 102 204
0.381278 -0.264732 0.190996 26 102 204
0.367411 -0.293267 0.15193 26 102 204
0.379721 -0.26816 0.201809 26 102 204
0.382826 -0.266103 -0.155007 26 102 204
0.423963 -0.20736 -0.0124867 26 102 204
0.361394 -0.305252 -0.136996 26 102 204
0.426232 -0.191663 -0.0195853 26 102 204
0.358844 -0.300223 -0.177201 26 102 204
0.363874 -0.297106 0.175512 26 102 204
0.379921 -0.286513 0.189953 26 102 204
0.366175 -0.30379 0.171654 26 102 204
0.420717 -0.223933 -0.130453 26 102 204
0.433657 -0.206749 -0.0407858 26 102 204
0.373833 -0.298021 0.194361 26 102 204
0.421423 -0.229313 0.1551 26 102 204
0.434925 -0.218183 0.0456955 26 102 204
0.429529 -0.215691 0.120408 26 102 204
0.372126 -0.309955 -0.160957 26 102 204
0.426478 -0.222406 -0.161338 26 102 204
0.427941 -0.227676 -0.0291947 26 102 204
0.412228 -0.254917 -0.14191 26 102 204
0.411595 -0.241225 -0.133572 26 102 204
0.422807 -0.231059 -0.164458 26 102 204
0.394306 -0.287846 0.133718 26 102 204
0.417302 -0.252809 0.171524 26 102 204
0.428158 -0.244433 0.0974292 26 102 204
0.43161 -0.229945 0.0486358 26 102 204
0.394149 -0.298359 -0.129541 26 102 204
0.390703 -0.300079 0.167817 26 102 204
0.417214 -0.265844 -0.0904684 26 102 204
0.435601 -0.238345 -0.156033 26 102 204
0.392324 -0.307699 0.170412 26 102 204
0.398284 -0.306868 -0.152755 26 102 204
0.441047 -0.239615 -0.148787 26 102 204
0.413338 -0.306711 -0.0622895 26 102 204
0.437903 -0.263935 0.104271 26 102 204
0.439304 -0.25269 -0.101236 26 102 204
0.437133 -0.2511 0.110154 26 102 204
0.405157 -0.300102 0.059804 26 102 204
0.393202 -0.323005 0.0194295 26 102 204
0.405804 -0.30378 0.00848836 26 102 204
0.406942 -0.305221 -0.083573 26 102 204
0.42214 -0.287952 0.107336 26 102 204
0.408357 -0.291667 0.0700639 26 102 204
0.420581 -0.292306 0.10062 26 102 204
0.408746 -0.32413 0.125584 26 102 204
0.399769 -0.324727 -0.110993 26 102 204
0.402098 -0.314759 0.0112955 26 102 204
0.412422 -0.297044 -0.0347039 26 102 204
0.416655 -0.307683 -0.0884313 26 102 204
0.446436 -0.253894 0.044008 26 102 204
0.430098 -0.285613 -0.027488 26 102 204
0.441976 -0.28263 -0.0625876 26 102 204
0.421289 -0.305732 -0.0224627 26 102 204
0.415594 -0.296485 0.0104408 26 102 204
0.396016 -0.335662 0.143129 26 102 204
0.451769 -0.258823 -0.00613179 26 102 204
0.446387 -0.252179 0.131731 26 102 204
0.437694 -0.27178 -0.0827617 26 102 204
0.449851 -0.273043 0.111264 26 102 204
0.462267 -0.247265 0.00136675 26 102 204
0.405088 -0.330583 0.0566815 26 102 204
0.450339 -0.267664 0.0475796 26 102 204
0.418935 -0.320898 -0.0699217 26 102 204
0.414251 -0.324569 0.0621719 26 102 204
0.421987 -0.321203 0.13335 26 102 204
0.430403 -0.299797 -0.0686478 26 102 204
0.44243 -0.278204 -0.0928961 26 102 204
0.433423 -0.299722 0.0363634 26 102 204
0.424629 -0.309731 0.023165 26 102 204
0.432761 -0.306111 0.081342 26 102 204
0.442028 -0.297139 0.0793856 26 102 204
0.453442 -0.275379 -0.03475 26 102 204
0.426639 -0.323107 0.00480298 26 102 204
0.412463 -0.329844 -0.0649588 26 102 204
0.444116 -0.283896 -0.063893 26 102 204
0.451931 -0.277587 0.0276381 26 102 204
0.436741 -0.299916 -0.0421144 26 102 204
0.423341 -0.313021 -0.045467 26 102 204
0.426027 -0.311939 -0.126342 26 102 204
0.439745 -0.295002 -0.100253 26 102 204
0.445612 -0.289766 -0.0037207 26 102 204
0.438853 -0.324625 0.0312056 26 102 204
0.439116 -0.297922 -0.00611893 26 102 204
0.443072 -0.298887 -0.0542203 26 102 204
0.44186 -0.30107 0.0121575 26 102 204
0.449058 -0.281166 0.030051 26 102 204
0.434652 -0.306269 -0.0450703 26 102 204
0.445175 -0.288681 0.0328409 26 102 204
0.42813 -0.307048 -0.0151512 26 102 204
0.417073 -0.347168 0.00342024 26 102 204
0.443386 -0.293025 0.0640474 26 102 204
0.41144 -0.347104 -0.0512258 26 102 204
0.429197 -0.327807 -0.0447743 26 102 204
0.423276 -0.359933 0.0664842 26 102 204
0.448817 -0.31392 0.0279686 26 102 204
0.447415 -0.317196 0.0074623 26 102 204
0.455814 -0.314083 0.0413553 26 102 204
0.420895 -0.345716 -0.0681953 26 102 204
0.43032 -0.344642 0.0837601 26 102 204
0.442432 -0.326316 0.135049 26 102 204
0.445954 -0.316912 -0.027253 26 102 204
0.43848 -0.356982 -0.0208481 26 102 204
0.458804 -0.301361 -0.0219282 26 102 204
0.456862 -0.331494 0.0174748 26 102 204
0.453381 -0.317254 0.010824 26 102 204
