ply
format ascii 1.0
comment Created by Open3D
element vertex 1024
property double x
property double y
property double z
property uchar red
property uchar green
property uchar blue
end_header
-0.0274164 -0.171582 -0.0785051 26 102 204
-0.0196241 -0.171055 -0.0579062 26 102 204
-0.0303124 -0.170144 -0.0756179 26 102 204
-0.0297885 -0.16983 -0.0274106 26 102 204
-0.0103281 -0.168959 -0.0230399 26 102 204
-0.0188307 -0.166921 -0.0146041 26 102 204
-0.02087 -0.170928 0.021855 26 102 204
0.00885627 -0.172192 0.0465671 26 102 204
-0.00930369 -0.162402 -0.128669 26 102 204
0.00108901 -0.173551 0.0713877 26 102 204
0.014481 -0.170537 -0.116962 26 102 204
-0.0314215 -0.165487 0.105298 26 102 204
-0.0398082 -0.168464 0.139433 26 102 204
-0.0186023 -0.16472 0.162874 26 102 204
0.00957648 -0.171244 0.160033 26 102 204
-0.00713487 -0.169224 0.186669 26 102 204
-0.0414452 -0.16548 0.178901 26 102 204
-0.00530837 -0.157832 0.190752 26 102 204
-0.0183705 -0.163849 0.227477 26 102 204
0.0310689 -0.169654 0.177513 26 102 204
-0.00689379 -0.166175 -0.000597598 26 102 204
0.00301251 -0.160019 0.06398 26 102 204
-0.0482722 -0.151509 0.209458 26 102 204
-0.0425732 -0.156718 0.22399 26 102 204
0.0234903 -0.159469 0.178045 26 102 204
0.0297322 -0.156673 0.378194 26 102 204
-0.0429158 -0.150986 0.139551 26 102 204
0.0488193 -0.155711 0.147798 26 102 204
-0.0431627 -0.148674 0.314321 26 102 204
-0.0312244 -0.145455 0.358578 26 102 204
0.0154086 -0.144869 0.20583 26 102 204
-0.0847112 -0.141614 0.185204 26 102 204
0.0371173 -0.149834 0.0344053 26 102 204
-0.00100635 -0.147598 0.199347 26 102 204
-0.0576158 -0.142921 0.11289 26 102 204
-0.059346 -0.141952 0.244277 26 102 204
-0.0741581 -0.141979 0.246095 26 102 204
-0.085574 -0.137815 0.248878 26 102 204
-0.0209154 -0.145087 0.0108979 26 102 204
0.0170599 -0.143292 0.274341 26 102 204
0.0371788 -0.139794 0.228514 26 102 204
0.0242243 -0.141091 0.159645 26 102 204
0.0130282 -0.141995 0.0859121 26 102 204
0.0125229 -0.142152 0.13534 26 102 204
-0.0135083 -0.138052 0.0775568 26 102 204
-0.00848858 -0.137202 0.37057 26 102 204
-0.0260851 -0.137904 0.0350951 26 102 204
-0.0466111 -0.135346 0.38698 26 102 204
-0.00970298 -0.136584 0.195984 26 102 204
-0.015489 -0.135899 0.0873477 26 102 204
-0.0388465 -0.128975 0.0680973 26 102 204
-0.0288316 -0.131282 0.387334 26 102 204
-0.0750106 -0.127904 0.248878 26 102 204
-0.00289017 -0.132367 0.141838 26 102 204
-0.0103512 -0.121606 -0.0530989 26 102 204
-0.0641568 -0.128258 0.238877 26 102 204
-0.0173861 -0.129175 0.307268 26 102 204
0.00927604 -0.135617 -0.0519252 26 102 204
0.0151545 -0.130183 -0.0781023 26 102 204
0.0402374 -0.131946 0.283762 26 102 204
0.00962822 -0.130964 0.0677897 26 102 204
0.0461835 -0.128985 0.122073 26 102 204
-0.0611366 -0.120572 0.128729 26 102 204
0.0419434 -0.128922 0.0483908 26 102 204
0.0442582 -0.126444 0.0642708 26 102 204
-0.00693741 -0.124305 -0.11267 26 102 204
-0.0342995 -0.119426 -0.0490029 26 102 204
0.0240605 -0.129547 0.00190714 26 102 204
-0.0877025 -0.115022 0.230624 26 102 204
0.0111642 -0.124085 -0.0325826 26 102 204
0.0492764 -0.129067 0.0895876 26 102 204
0.0340502 -0.119571 0.00387544 26 102 204
0.0110521 -0.122587 0.0557424 26 102 204
-0.0193782 -0.11818 0.344168 26 102 204
0.0236559 -0.114075 0.0847952 26 102 204
0.0513696 -0.117264 -0.0907298 26 102 204
0.0328342 -0.118153 0.104698 26 102 204
-0.139771 -0.105703 0.177933 26 102 204
-0.102892 -0.112817 0.107109 26 102 204
0.0311433 -0.117498 0.416604 26 102 204
0.0120761 -0.111427 0.0708622 26 102 204
-0.0146904 -0.10956 0.299249 26 102 204
-0.0777459 -0.107578 0.241895 26 102 204
-0.0701641 -0.105166 0.212668 26 102 204
0.0138418 -0.108868 0.0789898 26 102 204
-0.00295649 -0.106082 0.332361 26 102 204
0.0277854 -0.108948 0.12043 26 102 204
-0.00269981 -0.104787 0.12298 26 102 204
-0.0530275 -0.100489 0.088414 26 102 204
-0.0721554 -0.102191 -0.108401 26 102 204
0.039899 -0.108866 0.161023 26 102 204
0.0347267 -0.104535 0.351274 26 102 204
0.0407537 -0.105319 0.179897 26 102 204
-0.0905395 -0.0940545 0.184891 26 102 204
0.0125945 -0.101777 0.134565 26 102 204
-0.106083 -0.103037 0.150633 26 102 204
-0.0218905 -0.0922445 0.0773115 26 102 204
0.0454635 -0.0997953 0.284 26 102 204
0.0382346 -0.0950668 0.394036 26 102 204
0.00691782 -0.0952502 -0.140508 26 102 204
0.045452 -0.0962968 -0.117228 26 102 204
-0.102149 -0.0940177 -0.0261555 26 102 204
-0.0396112 -0.0861768 -0.102271 26 102 204
0.0977734 -0.104681 -0.0132356 26 102 204
-0.0555236 -0.0901471 -0.0740474 26 102 204
0.090676 -0.0955562 -0.0698548 26 102 204
0.0716079 -0.0960077 -0.0741859 26 102 204
-0.0924438 -0.0870383 -0.0742279 26 102 204
0.067256 -0.095687 -0.0830307 26 102 204
0.0380965 -0.093987 -0.0613463 26 102 204
0.0049432 -0.0934474 -0.0564237 26 102 204
0.0753289 -0.0987875 -0.0367955 26 102 204
0.0896024 -0.0967075 -0.0458339 26 102 204
-0.0865046 -0.0844029 -0.0172054 26 102 204
-0.0618667 -0.0894604 -0.000180604 26 102 204
0.0356143 -0.0933357 0.0101003 26 102 204
0.0912554 -0.0954954 -0.003908 26 102 204
0.03532 -0.0922698 -0.00118756 26 102 204
0.0920419 -0.0973164 0.00710053 26 102 204
0.0295161 -0.0909264 0.0125403 26 102 204
-0.115252 -0.0839171 0.0154654 26 102 204
-0.10659 -0.0851761 0.02401 26 102 204
0.104871 -0.0949624 0.0167786 26 102 204
-0.0198012 -0.09125 0.0223862 26 102 204
0.00667545 -0.0915629 0.0380217 26 102 204
-0.039599 -0.0880034 0.048487 26 102 204
-0.0195942 -0.0912055 0.063021 26 102 204
-0.0836995 -0.0894894 0.0569846 26 102 204
0.107688 -0.0998523 0.0672026 26 102 204
0.0150057 -0.0920572 0.0792371 26 102 204
0.0189853 -0.0956124 0.0865737 26 102 204
0.0730378 -0.0967298 0.101615 26 102 204
0.0495252 -0.0944753 0.0974189 26 102 204
-0.00262921 -0.092524 0.0893931 26 102 204
-0.120834 -0.0887532 0.120433 26 102 204
-0.104321 -0.0883379 0.114159 26 102 204
-0.0489405 -0.0912078 0.173622 26 102 204
-0.0922072 -0.0903889 0.129321 26 102 204
-0.135682 -0.0854378 0.139765 26 102 204
0.0479574 -0.0938315 0.149672 26 102 204
0.0152495 -0.0932027 0.161308 26 102 204
0.00468575 -0.0935962 0.173514 26 102 204
-0.0684876 -0.0880483 0.191071 26 102 204
-0.0989354 -0.0872274 0.180012 26 102 204
0.103336 -0.0963413 0.193302 26 102 204
-0.0634856 -0.088085 0.178314 26 102 204
-0.0762993 -0.0873191 0.190372 26 102 204
0.105814 -0.0944395 0.237062 26 102 204
-0.173703 -0.0856024 0.208936 26 102 204
0.177216 -0.102019 0.215771 26 102 204
-0.0712285 -0.088853 0.211916 26 102 204
-0.146852 -0.0830805 0.224066 26 102 204
0.158235 -0.09683 0.260391 26 102 204
0.151521 -0.0985026 0.230341 26 102 204
-0.0341213 -0.0901666 0.223417 26 102 204
-0.0602547 -0.0868369 0.232527 26 102 204
-0.127282 -0.0877443 0.239174 26 102 204
-0.167082 -0.0833971 0.240599 26 102 204
0.105044 -0.100083 0.234908 26 102 204
0.0474474 -0.094456 0.252801 26 102 204
0.0659721 -0.0953106 0.253202 26 102 204
0.130486 -0.100181 0.262019 26 102 204
-0.0778038 -0.0891774 0.258405 26 102 204
0.0878189 -0.0930607 0.242514 26 102 204
-0.11941 -0.0824864 0.19927 26 102 204
0.0872162 -0.0943547 0.258713 26 102 204
-0.0549334 -0.0900407 0.278747 26 102 204
-0.0134597 -0.0933244 0.269361 26 102 204
-0.0639336 -0.0893351 0.28629 26 102 204
0.0112835 -0.0913863 0.297033 26 102 204
-0.0843062 -0.0890225 0.289738 26 102 204
-0.158375 -0.0804255 0.309677 26 102 204
0.177166 -0.104832 0.332692 26 102 204
-0.0395513 -0.0876566 0.347726 26 102 204
-0.0820388 -0.0822752 0.395121 26 102 204
-0.0923395 -0.0863011 0.334649 26 102 204
0.0854686 -0.0968038 0.322685 26 102 204
0.114308 -0.0971593 0.331853 26 102 204
-0.120528 -0.0848372 0.331036 26 102 204
0.111028 -0.0972956 0.341809 26 102 204
0.179454 -0.101941 0.351908 26 102 204
0.0836363 -0.0983465 0.35044 26 102 204
0.0364027 -0.0933575 0.350774 26 102 204
-0.0131062 -0.0893081 0.352892 26 102 204
-0.0752374 -0.0859891 0.363701 26 102 204
0.115157 -0.0953029 0.369478 26 102 204
-0.183868 -0.0816026 0.39606 26 102 204
-0.156448 -0.0794026 0.375139 26 102 204
0.0855155 -0.0932337 0.371866 26 102 204
0.102451 -0.0959642 0.384398 26 102 204
-0.157533 -0.0813229 0.377616 26 102 204
-0.0090197 -0.0896388 0.382846 26 102 204
0.117896 -0.0943149 0.380809 26 102 204
-0.103781 -0.0866591 0.38851 26 102 204
-0.191917 -0.0799286 0.390185 26 102 204
-0.149074 -0.0819495 0.409589 26 102 204
0.118118 -0.0954882 0.408342 26 102 204
-0.0481362 -0.0888093 0.418856 26 102 204
0.00998991 -0.0882942 0.419494 26 102 204
-0.159634 -0.0800861 0.428051 26 102 204
0.114989 -0.0946102 0.4124 26 102 204
0.0557055 -0.0922827 0.403515 26 102 204
-0.0450953 -0.0878968 0.431623 26 102 204
-0.0358374 -0.0816455 0.371119 26 102 204
-0.0027224 -0.086425 0.43765 26 102 204
-0.129682 -0.082359 0.444779 26 102 204
-0.117318 -0.0823901 0.443709 26 102 204
0.0624595 -0.0864536 0.417481 26 102 204
-0.0201989 -0.0872664 0.445742 26 102 204
-0.11408 -0.082972 0.449836 26 102 204
-0.114947 -0.0761762 0.45489 26 102 204
0.0382597 -0.0896844 0.45834 26 102 204
0.162312 -0.0985505 0.44304 26 102 204
-0.0522171 -0.086603 0.470968 26 102 204
-0.0147947 -0.0847606 0.477005 26 102 204
0.0652487 -0.0938392 0.472368 26 102 204
0.02005 -0.0887322 0.478203 26 102 204
-0.110966 -0.0815484 0.432348 26 102 204
0.112303 -0.0905796 0.490158 26 102 204
-0.15351 -0.0810604 -0.275975 26 102 204
0.121729 -0.0988535 0.094904 26 102 204
0.128713 -0.0975082 0.0946351 26 102 204
-0.0311031 -0.0887346 0.51362 26 102 204
-0.181571 -0.0774436 -0.241975 26 102 204
0.173279 -0.0996347 0.00386022 26 102 204
-0.0543125 -0.0873058 -0.0258051 26 102 204
-0.127464 -0.0822656 -0.20597 26 102 204
0.166108 -0.1009 -0.138434 26 102 204
0.15498 -0.0898013 0.227479 26 102 204
0.158774 -0.0953754 0.0737419 26 102 204
0.146279 -0.0961539 0.211385 26 102 204
-0.0588018 -0.086656 0.136987 26 102 204
-0.0904961 -0.0839796 0.180106 26 102 204
0.157827 -0.0955845 0.224833 26 102 204
-0.0678518 -0.0844799 0.238216 26 102 204
-0.109844 -0.0826486 0.250106 26 102 204
-0.182205 -0.0769485 0.216421 26 102 204
-0.179218 -0.0782762 0.228959 26 102 204
-0.16873 -0.0802081 0.212485 26 102 204
-0.0810168 -0.084848 0.251214 26 102 204
0.166798 -0.0963764 0.19372 26 102 204
-0.124124 -0.0822261 0.262531 26 102 204
-0.193108 -0.0760024 0.277165 26 102 204
0.101175 -0.0931272 0.23256 26 102 204
-0.189798 -0.077901 0.277177 26 102 204
-0.0349602 -0.0818291 0.255351 26 102 204
0.113449 -0.0939652 0.234986 26 102 204
-0.136406 -0.0816309 0.25398 26 102 204
-0.000502231 -0.0894929 0.255154 26 102 204
0.0258974 -0.0902995 0.250674 26 102 204
0.108064 -0.0930961 0.253483 26 102 204
0.107583 -0.0924204 0.265547 26 102 204
-0.010465 -0.0883515 0.269382 26 102 204
-0.146872 -0.0788151 0.250506 26 102 204
0.0593797 -0.0920883 0.25947 26 102 204
-0.0718583 -0.0832513 0.246876 26 102 204
0.0437979 -0.0934037 0.23792 26 102 204
-0.0890976 -0.0833803 0.24804 26 102 204
0.0288426 -0.091362 0.248746 26 102 204
0.0919255 -0.0891995 0.219045 26 102 204
0.0347317 -0.0923015 0.235438 26 102 204
-0.117609 -0.0830807 0.253095 26 102 204
0.127553 -0.0920241 0.225055 26 102 204
-0.0441863 -0.0893544 0.199843 26 102 204
0.0707126 -0.0955406 0.222861 26 102 204
0.0734304 -0.0951685 0.182082 26 102 204
-0.030218 -0.0900006 0.159917 26 102 204
-0.00898166 -0.0884462 0.101677 26 102 204
0.00766955 -0.0925419 0.111569 26 102 204
0.0616498 -0.0918226 0.497106 26 102 204
0.0962878 -0.0952659 0.169468 26 102 204
0.166156 -0.0982182 -0.190586 26 102 204
-0.182629 -0.0778455 -0.115681 26 102 204
-0.169777 -0.0813378 -0.344895 26 102 204
-0.159803 -0.0783795 -0.244404 26 102 204
0.154129 -0.0967788 0.0437572 26 102 204
-0.105558 -0.0837041 0.50835 26 102 204
0.178353 -0.0961249 -0.150452 26 102 204
-0.141949 -0.0797681 -0.290013 26 102 204
-0.185591 -0.0759164 -0.442365 26 102 204
-0.107372 -0.0816881 -0.0761739 26 102 204
-0.160717 -0.0785313 -0.396431 26 102 204
-0.16644 -0.077714 -0.239356 26 102 204
0.187486 -0.0978021 0.135389 26 102 204
-0.153568 -0.0773492 -0.136672 26 102 204
0.145064 -0.09579 -0.157658 26 102 204
0.17824 -0.0952456 -0.0348642 26 102 204
-0.165654 -0.0748702 -0.165999 26 102 204
0.173397 -0.0973044 0.202884 26 102 204
0.181622 -0.0953674 0.171982 26 102 204
0.161699 -0.09334 -0.403481 26 102 204
0.163824 -0.0934668 -0.0818418 26 102 204
0.173916 -0.0962988 0.484474 26 102 204
0.169923 -0.0914002 0.468245 26 102 204
-0.134722 -0.0747777 0.245147 26 102 204
0.0137536 -0.0877732 0.100511 26 102 204
-0.144819 -0.0762206 -0.16286 26 102 204
0.139137 -0.0940799 0.0615225 26 102 204
0.159102 -0.0991817 0.432184 26 102 204
-0.127092 -0.0758853 0.111195 26 102 204
0.157652 -0.0943309 0.0664002 26 102 204
0.160874 -0.0938518 0.333134 26 102 204
0.14364 -0.082641 -0.0279433 26 102 204
-0.213454 -0.0722972 0.450814 26 102 204
-0.200718 -0.0716817 0.441979 26 102 204
0.178313 -0.0926904 0.0840928 26 102 204
-0.190078 -0.0716782 -0.30011 26 102 204
0.156627 -0.091516 0.0338746 26 102 204
0.147612 -0.089995 0.453637 26 102 204
-0.151783 -0.0714645 -0.129858 26 102 204
-0.162164 -0.0705661 -0.244592 26 102 204
0.159579 -0.0892392 -0.00662349 26 102 204
0.155392 -0.0884599 -0.0799458 26 102 204
-0.218467 -0.0666061 -0.181677 26 102 204
-0.161031 -0.0686333 -0.452532 26 102 204
0.159487 -0.0869526 -0.353434 26 102 204
0.173632 -0.0890507 -0.265368 26 102 204
0.146277 -0.0868618 0.0592119 26 102 204
0.174622 -0.0908152 0.220627 26 102 204
-0.192187 -0.0653699 -0.391474 26 102 204
0.179451 -0.0823457 0.0799334 26 102 204
0.128393 -0.085675 -0.225419 26 102 204
0.18433 -0.0907994 -0.00806348 26 102 204
-0.151381 -0.0688966 0.0579125 26 102 204
0.188091 -0.092874 0.140666 26 102 204
0.182546 -0.0873445 0.0748713 26 102 204
-0.156866 -0.0697787 0.280027 26 102 204
-0.159667 -0.0707552 -0.18579 26 102 204
0.179877 -0.089096 0.314004 26 102 204
-0.146172 -0.0685958 -0.227053 26 102 204
-0.161054 -0.0690786 -0.0344462 26 102 204
0.150433 -0.0844718 -0.214461 26 102 204
-0.169978 -0.065069 -0.290024 26 102 204
-0.165888 -0.0692704 0.0478231 26 102 204
0.151566 -0.0835245 -0.398487 26 102 204
0.145921 -0.0821594 -0.268737 26 102 204
-0.184593 -0.0635038 -0.394037 26 102 204
-0.175076 -0.065887 -0.31684 26 102 204
0.166961 -0.0869801 0.50935 26 102 204
-0.124911 -0.067573 0.507718 26 102 204
0.140119 -0.0835438 0.26278 26 102 204
-0.202403 -0.0603642 0.0669264 26 102 204
0.165162 -0.0716427 -0.0416181 26 102 204
-0.205541 -0.0622042 0.460169 26 102 204
-0.126699 -0.0676357 0.182259 26 102 204
0.144592 -0.0785558 -0.0753324 26 102 204
-0.0885768 -0.0690597 0.0328328 26 102 204
0.184809 -0.0859594 0.0350495 26 102 204
0.143738 -0.0823271 -0.176363 26 102 204
-0.144104 -0.0662382 0.233468 26 102 204
-0.0665302 -0.0699545 0.134637 26 102 204
0.174528 -0.0859821 0.119507 26 102 204
0.127666 -0.0809214 -0.404738 26 102 204
-0.170839 -0.0639057 0.18971 26 102 204
0.159211 -0.0767892 0.456085 26 102 204
0.0723039 -0.0750288 0.00813845 26 102 204
0.10708 -0.078421 0.00341809 26 102 204
-0.20077 -0.058961 0.249711 26 102 204
-0.141289 -0.0632304 0.347689 26 102 204
-0.210373 -0.0590752 0.269893 26 102 204
0.18573 -0.0749452 0.239981 26 102 204
0.0521982 -0.0740486 0.019877 26 102 204
0.156407 -0.0772748 -0.362826 26 102 204
0.151215 -0.0801072 -0.256917 26 102 204
-0.142679 -0.0615902 -0.245179 26 102 204
0.155058 -0.0774438 -0.436979 26 102 204
0.114499 -0.0772129 0.023012 26 102 204
0.157403 -0.0800061 -0.143528 26 102 204
-0.0992225 -0.0648436 0.0595573 26 102 204
-0.148973 -0.0608249 0.171344 26 102 204
0.173701 -0.0799113 -0.259978 26 102 204
-0.207285 -0.0537387 0.157032 26 102 204
-0.186459 -0.0559721 -0.482559 26 102 204
-0.120482 -0.0620811 0.0529215 26 102 204
-0.135366 -0.0608169 0.0406855 26 102 204
0.163559 -0.0769697 -0.181995 26 102 204
-0.137737 -0.0595424 -0.03036 26 102 204
0.0113181 -0.0705049 0.0315097 26 102 204
-0.158024 -0.0570731 -0.126126 26 102 204
-0.168215 -0.0564207 -0.494106 26 102 204
-0.0353031 -0.0614135 0.0587821 26 102 204
0.000843761 -0.0663647 0.0539107 26 102 204
0.171175 -0.0728711 0.327072 26 102 204
0.123452 -0.0704638 0.0341904 26 102 204
0.150819 -0.0721645 -0.322327 26 102 204
0.171028 -0.069091 -0.254836 26 102 204
-0.0359211 -0.0622306 0.0350407 26 102 204
0.154307 -0.070612 -0.272621 26 102 204
0.180696 -0.0750952 0.0517128 26 102 204
-0.203994 -0.052269 0.241532 26 102 204
-0.196807 -0.0462674 -0.316026 26 102 204
-0.215739 -0.0489914 0.482628 26 102 204
0.157725 -0.0666268 0.50009 26 102 204
-0.0334272 -0.0578385 0.113919 26 102 204
0.173619 -0.0669769 0.362692 26 102 204
-0.181298 -0.0501145 -0.281031 26 102 204
0.18061 -0.0692682 0.192717 26 102 204
-0.202173 -0.0475328 -0.321602 26 102 204
-0.177919 -0.0501825 0.198427 26 102 204
-0.211092 -0.046969 0.421068 26 102 204
-0.183284 -0.0463104 0.512574 26 102 204
-0.13782 -0.0495477 -0.244179 26 102 204
0.16674 -0.0671377 0.406036 26 102 204
0.144645 -0.065088 0.0574999 26 102 204
0.157782 -0.0657886 0.00074972 26 102 204
-0.188879 -0.0451645 0.297609 26 102 204
0.180231 -0.0686313 0.195751 26 102 204
0.138904 -0.064445 -0.184246 26 102 204
0.144416 -0.0646228 -0.185736 26 102 204
-0.0414944 -0.0542147 0.080738 26 102 204
-0.215053 -0.0422025 0.349654 26 102 204
-0.183426 -0.0451599 -0.185237 26 102 204
-0.192465 -0.0429974 0.410633 26 102 204
0.137797 -0.0622449 -0.0448227 26 102 204
0.142169 -0.062063 -0.133356 26 102 204
0.18137 -0.0649579 0.0955868 26 102 204
-0.205779 -0.0411133 0.222981 26 102 204
-0.148144 -0.0448591 0.504496 26 102 204
-0.208632 -0.0405833 0.199217 26 102 204
-0.175095 -0.0429386 -0.122913 26 102 204
-0.0428929 -0.0496459 0.0211676 26 102 204
-0.0248284 -0.0526996 0.0190547 26 102 204
-0.168964 -0.0440411 0.302545 26 102 204
-0.15763 -0.0432353 -0.218116 26 102 204
-0.0231055 -0.0511178 0.0779538 26 102 204
0.150991 -0.0584178 -0.339807 26 102 204
0.17984 -0.0603355 0.0571836 26 102 204
-0.199202 -0.0369484 0.49443 26 102 204
0.182121 -0.0588179 0.299446 26 102 204
-0.161315 -0.0424283 0.0490664 26 102 204
-0.194387 -0.0381025 -0.150035 26 102 204
-0.216029 -0.0433429 -0.00159557 26 102 204
-0.177715 -0.0390634 -0.269334 26 102 204
-0.109036 -0.0410988 0.257105 26 102 204
-0.187595 -0.0373189 0.00882501 26 102 204
-0.180814 -0.0367934 -0.352408 26 102 204
-0.172977 -0.040434 0.184207 26 102 204
-0.181362 -0.0395816 -0.395003 26 102 204
-0.161769 -0.037362 -0.325496 26 102 204
-0.178055 -0.0363249 -0.337672 26 102 204
0.159021 -0.0505781 -0.366762 26 102 204
-0.199595 -0.03431 -0.0166929 26 102 204
-0.201102 -0.0315411 -0.237519 26 102 204
0.173485 -0.0529826 -0.272924 26 102 204
-0.209206 -0.0317409 0.151461 26 102 204
-0.167996 -0.0321357 -0.211875 26 102 204
-0.203558 -0.0311116 0.0683263 26 102 204
-0.205281 -0.031734 0.439906 26 102 204
-0.214399 -0.0283112 -0.079599 26 102 204
-0.207968 -0.0278752 -0.0127363 26 102 204
-0.195711 -0.0275893 0.458688 26 102 204
0.182315 -0.049044 0.420107 26 102 204
-0.187678 -0.0318959 -0.0197242 26 102 204
-0.197571 -0.0302206 -0.119579 26 102 204
0.183242 -0.04976 -0.00780104 26 102 204
-0.199514 -0.0270648 -0.21512 26 102 204
-0.192035 -0.0306421 -0.0185025 26 102 204
0.173012 -0.0453067 -0.122795 26 102 204
-0.203876 -0.0268683 -0.116024 26 102 204
0.182036 -0.0494582 -0.0298687 26 102 204
-0.186877 -0.027439 -0.185208 26 102 204
0.172751 -0.045156 0.0363607 26 102 204
-0.165547 -0.026132 -0.233177 26 102 204
0.117187 -0.0369724 0.501514 26 102 204
0.154098 -0.0385985 -0.265487 26 102 204
0.178039 -0.0440434 0.0817915 26 102 204
-0.119226 -0.0265573 0.184551 26 102 204
-0.113674 -0.0269537 0.515104 26 102 204
0.193109 -0.0449936 0.293013 26 102 204
0.18094 -0.0434202 0.0202891 26 102 204
0.183956 -0.0426094 -0.0191092 26 102 204
-0.19969 -0.0176771 0.461675 26 102 204
0.00759022 -0.0324006 -0.0210622 26 102 204
-0.198318 -0.0246801 -0.0800997 26 102 204
-0.20736 -0.0139245 0.242445 26 102 204
0.185111 -0.0370866 0.103062 26 102 204
0.179745 -0.0401691 -0.202525 26 102 204
-0.201617 -0.0175792 0.093392 26 102 204
-0.189505 -0.0164533 -0.2941 26 102 204
0.170832 -0.0375769 0.0167298 26 102 204
-0.188977 -0.0181256 -0.149672 26 102 204
-0.182515 -0.0189008 0.475624 26 102 204
-0.165999 -0.0171372 -0.457987 26 102 204
0.180576 -0.0382572 0.144084 26 102 204
-0.185719 -0.0177815 0.361082 26 102 204
0.165047 -0.0367052 -0.321047 26 102 204
-0.169171 -0.0202656 -0.223132 26 102 204
0.172326 -0.036569 -0.0594111 26 102 204
0.0228279 -0.0598063 0.118297 26 102 204
-0.191016 -0.0153007 0.470201 26 102 204
0.0575753 -0.0316464 0.512014 26 102 204
0.174977 -0.0370812 -0.12178 26 102 204
-0.196716 -0.0146785 0.387894 26 102 204
0.171979 -0.0329881 0.0969136 26 102 204
-0.179522 -0.0149734 0.169401 26 102 204
-0.185454 -0.0106017 -0.219343 26 102 204
-0.179789 -0.0108043 -0.33313 26 102 204
0.160934 -0.0304504 0.439166 26 102 204
0.00619221 -0.0229788 0.114609 26 102 204
-0.180369 -0.00994222 -0.120099 26 102 204
0.153438 -0.0285468 -0.256663 26 102 204
0.143253 -0.0279177 -0.255544 26 102 204
0.172313 -0.0297334 0.171451 26 102 204
-0.118982 -0.0117737 -0.222796 26 102 204
0.0493117 -0.0212415 0.182606 26 102 204
-0.0129988 -0.0167625 0.206365 26 102 204
-0.121258 -0.0104816 0.24339 26 102 204
-0.0710271 -0.0141531 0.223398 26 102 204
-0.00750308 -0.0163256 0.170626 26 102 204
0.0637334 -0.0168564 -0.217347 26 102 204
-0.127525 -0.0126888 0.163076 26 102 204
0.0935916 -0.0205092 0.113237 26 102 204
0.117717 -0.0212329 0.18331 26 102 204
-0.00479972 -0.013101 0.16668 26 102 204
-0.108562 -0.0080079 0.155128 26 102 204
-0.116235 -0.00986638 0.15366 26 102 204
0.141685 -0.0228305 0.128472 26 102 204
0.0448904 -0.0190106 0.134229 26 102 204
0.127927 -0.0250191 0.133631 26 102 204
0.0817216 -0.0203778 0.118195 26 102 204
0.0182827 -0.0167674 0.0947558 26 102 204
-0.188274 -0.0031637 0.10877 26 102 204
-0.126035 -0.00983704 0.100152 26 102 204
0.114634 -0.022445 0.096321 26 102 204
0.118612 -0.0214663 0.0993592 26 102 204
0.103158 -0.02237 0.0833262 26 102 204
-0.0385408 -0.0123695 0.088744 26 102 204
-0.0649636 -0.0109496 0.0873787 26 102 204
-0.165106 -0.00832224 0.0789864 26 102 204
0.00307545 -0.0156001 0.0874306 26 102 204
0.0642257 -0.0192301 0.0892692 26 102 204
0.0638072 -0.0199213 0.103755 26 102 204
-0.131731 -0.0102082 0.0905345 26 102 204
0.152682 -0.0222576 0.0789506 26 102 204
-0.157109 -0.00618725 0.0897512 26 102 204
-0.149409 -0.0053595 0.0866752 26 102 204
0.0165627 -0.0150377 0.0890857 26 102 204
-0.10983 -0.00762516 0.0962192 26 102 204
-0.147105 -0.00453855 0.0861231 26 102 204
0.0245183 -0.0141822 0.0833032 26 102 204
-0.00548916 -0.0115973 0.0660242 26 102 204
-0.0198471 -0.0125616 0.0798514 26 102 204
-0.0484551 -0.00894862 0.0808712 26 102 204
0.0512478 -0.0158775 0.0757001 26 102 204
0.133901 -0.0198659 0.0921396 26 102 204
-0.00260618 -0.0128512 0.0877127 26 102 204
-0.0975633 -0.00527278 0.0876568 26 102 204
0.047531 -0.0150617 0.0967281 26 102 204
0.0608848 -0.0109867 0.134158 26 102 204
-0.0129598 -0.0106095 0.136179 26 102 204
0.112349 -0.0188708 0.128234 26 102 204
0.0212372 -0.0139129 -0.257964 26 102 204
0.0512528 -0.0145877 0.135091 26 102 204
0.0929451 -0.0182636 0.134799 26 102 204
0.0747001 -0.0138192 -0.238218 26 102 204
-0.183985 -0.00126427 -0.0986286 26 102 204
0.126021 -0.0185624 -0.239583 26 102 204
-0.128754 -0.00508484 0.290929 26 102 204
0.128834 -0.0192234 -0.232181 26 102 204
-0.203996 0.00144728 0.105329 26 102 204
-0.162329 -0.00132906 0.0447428 26 102 204
-0.16458 -0.00163577 -0.334326 26 102 204
0.0434199 -0.0145505 -0.310502 26 102 204
0.132114 -0.0199143 -0.298565 26 102 204
-0.0189975 -0.00745572 0.0597073 26 102 204
-0.00686755 -0.00985844 0.0652401 26 102 204
0.137086 -0.0194225 -0.169688 26 102 204
-0.117728 -0.00367222 -0.306656 26 102 204
-0.0886478 -0.00427475 -0.345461 26 102 204
-0.216465 0.00160402 0.469957 26 102 204
0.127199 -0.0184984 -0.14229 26 102 204
-0.0534123 -0.00354687 0.0410549 26 102 204
0.185877 -0.0225436 0.250157 26 102 204
0.131747 -0.0143831 -0.123774 26 102 204
-0.050408 -0.00666091 0.510489 26 102 204
-0.0634445 -0.00319966 0.511838 26 102 204
0.138053 -0.0172686 -0.161587 26 102 204
-0.112704 0.00163455 -0.272301 26 102 204
-0.163265 0.00210931 -0.132666 26 102 204
0.114329 -0.0137729 -0.180103 26 102 204
-0.103145 -0.00057603 -0.127949 26 102 204
-0.159035 0.00211278 -0.102103 26 102 204
0.131813 -0.00823846 -0.128949 26 102 204
-0.158467 0.00284595 -0.101781 26 102 204
-0.17823 0.00576293 -0.106567 26 102 204
0.112786 -0.00882764 -0.112528 26 102 204
0.101382 0.0113744 -0.101838 26 102 204
0.114297 -0.00911086 -0.0823108 26 102 204
0.0678086 -0.00716084 -0.0800563 26 102 204
-0.106705 0.00332645 -0.0616084 26 102 204
0.123211 -0.00475746 -0.0617665 26 102 204
-0.0874559 -0.00241272 -0.0640859 26 102 204
0.000496924 -0.00776446 -0.0559649 26 102 204
-0.023582 -0.0047173 -0.0604716 26 102 204
-0.0509197 -0.0008421 -0.0424395 26 102 204
-0.0674813 -0.00164247 -0.041083 26 102 204
0.0520031 -0.00935102 -0.0268626 26 102 204
-0.00230087 -0.00559244 -0.025717 26 102 204
-0.100715 0.00124361 -0.0271751 26 102 204
0.104955 -0.0137445 -0.0256346 26 102 204
-0.145324 0.00620552 -0.0430101 26 102 204
-0.128731 0.00202078 -0.0159811 26 102 204
0.00342801 -0.00425346 -0.0229963 26 102 204
0.133665 -0.0142568 -0.0175989 26 102 204
0.0891479 -0.0071885 -0.0158299 26 102 204
-0.0839268 0.00190327 -0.0226152 26 102 204
-0.132535 -0.00138698 0.00728616 26 102 204
-0.127614 0.00014065 0.00857505 26 102 204
-0.0493674 -0.0019038 0.0189805 26 102 204
-0.00913135 -0.00300731 0.024657 26 102 204
-0.153459 0.00587152 0.0283645 26 102 204
0.0512597 -0.00703421 0.0353403 26 102 204
0.106089 -0.00397447 0.0245148 26 102 204
-0.0610108 -0.000490016 0.033778 26 102 204
-0.164424 0.00603071 0.0326821 26 102 204
-0.00561587 -0.00245328 0.0395499 26 102 204
0.0953329 -0.00765141 0.0415017 26 102 204
-0.113609 0.0023655 0.0466153 26 102 204
0.0426271 -0.00418541 0.0464988 26 102 204
-0.0804102 0.000450427 0.0568814 26 102 204
-0.0979773 0.00952136 0.0545819 26 102 204
-0.0126513 -0.000863679 0.052982 26 102 204
-0.164447 0.00789755 0.0656992 26 102 204
-0.166319 0.00943523 0.0714685 26 102 204
0.022867 -0.00447545 0.0707101 26 102 204
-0.196472 0.0214064 0.0697182 26 102 204
-0.123615 0.00529238 0.0648621 26 102 204
0.0298388 -0.00494206 0.0768258 26 102 204
-0.161694 0.00586368 0.0966209 26 102 204
0.0437564 -0.0042989 0.0933711 26 102 204
-0.190919 0.00767403 0.11354 26 102 204
-0.180415 0.00896399 0.107787 26 102 204
-0.181722 0.0108177 0.121629 26 102 204
-0.157277 0.00587663 0.139949 26 102 204
-0.100848 0.00314991 0.141681 26 102 204
-0.119577 0.00687396 0.197843 26 102 204
0.125184 -0.0109285 0.192143 26 102 204
-0.173848 0.0107444 0.220439 26 102 204
-0.1832 0.0107509 0.331154 26 102 204
-0.16029 0.00468657 0.347742 26 102 204
-0.184066 0.0119148 0.42852 26 102 204
-0.186381 0.00838516 0.417299 26 102 204
0.0534596 -0.00353454 0.122539 26 102 204
-0.117134 0.000493585 0.268037 26 102 204
-0.191703 0.00519941 -0.216395 26 102 204
-0.051762 -0.00304193 -0.175485 26 102 204
-0.0920193 0.00594469 -0.193984 26 102 204
0.163012 -0.0150365 -0.214335 26 102 204
-0.138713 0.00342808 -0.188199 26 102 204
-0.132284 0.000382218 0.503533 26 102 204
-0.098246 -0.00225768 -0.177528 26 102 204
-0.0510116 -0.00374964 0.072218 26 102 204
0.00352052 -0.0036133 -0.203315 26 102 204
-0.179561 0.00588019 -0.18544 26 102 204
0.155141 -0.0184606 0.18494 26 102 204
-0.144477 0.0110253 -0.176799 26 102 204
0.0741267 -0.00813042 -0.206575 26 102 204
0.0269263 -0.00691592 -0.248711 26 102 204
0.00129528 -0.00658956 0.511507 26 102 204
0.0269568 -0.00654389 -0.224939 26 102 204
0.111062 -0.00246094 -0.147979 26 102 204
-0.111522 0.00432234 -0.186557 26 102 204
0.15519 -0.0151987 0.193176 26 102 204
0.0969792 -0.0133632 0.438214 26 102 204
-0.151563 0.00354551 0.291639 26 102 204
-0.034258 -0.00250541 -0.232777 26 102 204
0.130055 -0.0143457 -0.162877 26 102 204
0.0984933 -0.0106245 -0.177876 26 102 204
-0.114004 0.000572041 0.282771 26 102 204
0.169966 -0.022397 -0.191405 26 102 204
0.101001 -0.0136571 0.100174 26 102 204
-0.142689 0.00220218 0.331096 26 102 204
-0.168638 0.00566077 0.398796 26 102 204
-0.167591 0.00524905 0.229467 26 102 204
0.0864718 -0.00766382 -0.309756 26 102 204
-0.172246 0.0107757 -0.236344 26 102 204
0.148251 -0.0146639 0.261795 26 102 204
0.157392 -0.0158722 0.270874 26 102 204
-0.150551 0.00442523 0.251979 26 102 204
0.151391 -0.0152539 0.44847 26 102 204
0.132366 -0.0126446 0.0463348 26 102 204
-0.172968 0.00721419 0.467493 26 102 204
-0.148982 0.00962515 -0.302476 26 102 204
-0.189518 0.00858643 0.266224 26 102 204
-0.153976 0.00772015 0.0703493 26 102 204
0.0640284 -0.0081541 -0.121612 26 102 204
0.156253 -0.0162499 0.14028 26 102 204
-0.183092 0.00910299 0.246814 26 102 204
-0.173078 0.00449554 0.364647 26 102 204
0.166539 -0.0106147 0.270673 26 102 204
0.128868 -0.0120605 0.0955871 26 102 204
-0.185446 0.00803438 0.164881 26 102 204
-0.0873636 0.00304952 0.134235 26 102 204
-0.168121 0.00263103 0.252727 26 102 204
-0.187278 0.00455744 0.239937 26 102 204
-0.168248 0.00827612 0.426251 26 102 204
-0.145555 0.00347773 0.336175 26 102 204
-0.157676 0.00679427 0.0866853 26 102 204
-0.183482 0.00734297 -0.197536 26 102 204
-0.126278 0.00513737 -0.228778 26 102 204
0.00620328 -0.00426676 -0.199983 26 102 204
-0.0621606 0.00228244 -0.232172 26 102 204
-0.184698 0.00919917 0.267988 26 102 204
-0.209908 0.00996152 -0.224553 26 102 204
-0.189226 0.00938903 0.345683 26 102 204
-0.187575 0.00858175 0.137662 26 102 204
-0.209105 0.0106275 0.259553 26 102 204
-0.155892 0.00594458 -0.238694 26 102 204
-0.0134325 0.000696531 -0.200683 26 102 204
-0.188947 0.0146784 -0.207474 26 102 204
-0.157523 0.0113515 -0.211242 26 102 204
0.0303632 0.00212094 -0.220925 26 102 204
0.175223 -0.00612013 -0.198552 26 102 204
-0.00693781 0.0104915 -0.220852 26 102 204
-0.123743 0.0103703 -0.223192 26 102 204
-0.119878 0.0124564 -0.212249 26 102 204
-0.0200352 0.00518159 -0.205804 26 102 204
0.0430627 0.00219564 -0.20605 26 102 204
-0.011028 0.013217 -0.198543 26 102 204
0.144495 0.00148727 -0.208403 26 102 204
0.104895 0.00357866 -0.196711 26 102 204
-0.0619748 0.0118859 -0.218038 26 102 204
0.0242168 0.00813781 -0.208891 26 102 204
0.0278125 0.0104634 -0.189315 26 102 204
-0.0381561 0.0156533 -0.18838 26 102 204
-0.121339 0.0209561 -0.194432 26 102 204
-0.00763571 0.0103261 -0.201365 26 102 204
-0.173861 0.0221622 -0.201976 26 102 204
-0.170568 0.0183721 -0.207652 26 102 204
0.183214 0.00470962 -0.180078 26 102 204
-0.120005 0.0219586 -0.214757 26 102 204
0.13005 0.0208969 -0.18611 26 102 204
-0.135756 0.0297282 -0.194335 26 102 204
-0.17779 0.028662 -0.200715 26 102 204
-0.102766 0.0256462 -0.197524 26 102 204
0.041761 0.0165956 -0.189962 26 102 204
-0.0218748 0.0230453 -0.195983 26 102 204
-0.185754 0.0318934 -0.210059 26 102 204
0.142255 0.0158086 -0.194765 26 102 204
-0.093437 0.0279267 -0.207196 26 102 204
-0.124004 0.0293122 -0.235236 26 102 204
0.0339312 0.0246166 -0.200043 26 102 204
0.0210372 0.0225865 -0.20351 26 102 204
-0.176804 0.0368013 -0.201133 26 102 204
-0.132394 0.0291115 -0.20489 26 102 204
0.186911 0.017298 -0.208906 26 102 204
0.0446569 0.0219329 -0.213488 26 102 204
0.186217 0.0173723 -0.184025 26 102 204
-0.0138359 0.0281385 -0.187578 26 102 204
0.0947587 0.0221502 -0.190865 26 102 204
0.0558268 0.0295135 -0.203341 26 102 204
0.00292995 0.02892 -0.208512 26 102 204
-0.17512 0.041534 -0.192629 26 102 204
0.146921 0.0240013 -0.200069 26 102 204
-0.0448653 0.0418641 -0.201462 26 102 204
-0.0902075 0.0407496 -0.206889 26 102 204
0.126519 0.0277706 -0.21488 26 102 204
-0.0732135 0.0415718 -0.204989 26 102 204
-0.00263911 0.0351978 -0.218093 26 102 204
-0.0384281 0.0479985 -0.21297 26 102 204
-0.155492 0.0471688 -0.190398 26 102 204
-0.0772003 0.0453167 -0.20662 26 102 204
-0.124752 0.0436524 -0.218316 26 102 204
-0.0703098 0.0437634 -0.217417 26 102 204
0.110393 0.0397391 -0.214532 26 102 204
0.174443 0.0429336 -0.212857 26 102 204
-0.0900035 0.0583481 -0.195057 26 102 204
-0.0166859 0.0408353 -0.204383 26 102 204
0.0401323 0.0460248 -0.213257 26 102 204
0.0971064 0.0467034 -0.216794 26 102 204
-0.105855 0.0592432 -0.209617 26 102 204
0.158565 0.0391451 -0.195866 26 102 204
-0.170063 0.0590409 -0.208786 26 102 204
-0.0267656 0.05514 -0.213158 26 102 204
-0.188427 0.0620567 -0.203663 26 102 204
-0.0649751 0.0551867 -0.202414 26 102 204
-0.131902 0.0619903 -0.20267 26 102 204
0.183693 0.0480456 -0.192286 26 102 204
0.0814962 0.0520976 -0.209377 26 102 204
0.15299 0.0474527 -0.204242 26 102 204
-0.146714 0.064144 -0.208384 26 102 204
-0.068734 0.0691691 -0.23018 26 102 204
-0.129366 0.0396222 -0.235083 26 102 204
0.032441 0.0588864 -0.23116 26 102 204
-0.0910029 0.0617749 -0.233847 26 102 204
0.160895 0.0563874 -0.207454 26 102 204
0.0831706 0.0554021 -0.19582 26 102 204
0.179604 0.0570976 -0.206571 26 102 204
-0.0646983 0.0655742 -0.199865 26 102 204
-0.120408 0.0685658 -0.213328 26 102 204
-0.126108 0.0767673 -0.222772 26 102 204
-0.131965 0.0666184 -0.200223 26 102 204
-0.047884 0.0695046 -0.198975 26 102 204
-0.187342 0.0733857 -0.213862 26 102 204
-0.158903 0.0732064 -0.223052 26 102 204
-0.189807 0.0732961 -0.222616 26 102 204
-0.121138 0.07752 -0.203901 26 102 204
-0.177167 0.0448446 -0.244087 26 102 204
-0.111413 0.0817454 -0.227713 26 102 204
-0.142027 0.077884 -0.211699 26 102 204
0.0446291 0.0733384 -0.229868 26 102 204
-0.168371 0.0848853 -0.217616 26 102 204
0.0784089 0.0746112 -0.220598 26 102 204
0.123915 0.0736766 -0.23822 26 102 204
0.165592 0.0730205 -0.215586 26 102 204
0.178806 0.0802672 -0.225171 26 102 204
0.0738251 0.086821 -0.223403 26 102 204
0.165142 0.0798 -0.21416 26 102 204
-0.0482212 0.0802089 -0.227633 26 102 204
0.0295538 0.0909425 -0.21823 26 102 204
-0.0492597 0.0974851 -0.220335 26 102 204
0.188823 0.0858137 -0.205429 26 102 204
-0.150391 0.101254 -0.210165 26 102 204
-0.000621651 0.101417 -0.209692 26 102 204
-0.152449 0.106832 -0.233654 26 102 204
0.197861 0.0899383 -0.181873 26 102 204
-0.122391 0.104879 -0.227364 26 102 204
0.166561 0.0973837 -0.185937 26 102 204
-0.0995447 0.108518 -0.237446 26 102 204
-0.0345581 0.102614 -0.22429 26 102 204
-0.0119384 0.105972 -0.224911 26 102 204
0.11344 0.100591 -0.23487 26 102 204
0.198958 0.0920969 -0.228057 26 102 204
0.0472463 0.104146 -0.235979 26 102 204
-0.0508761 0.109128 -0.225333 26 102 204
-0.112378 0.117001 -0.234081 26 102 204
0.190522 0.106491 -0.198239 26 102 204
0.066651 0.106638 -0.231217 26 102 204
0.160823 0.108886 -0.224598 26 102 204
0.0792106 0.11447 -0.222747 26 102 204
0.0567453 0.115631 -0.227313 26 102 204
0.155434 0.117707 -0.209202 26 102 204
0.169787 0.11254 -0.220558 26 102 204
-0.157199 0.126392 -0.215759 26 102 204
0.105157 0.11639 -0.230898 26 102 204
-0.13088 0.131298 -0.237676 26 102 204
-0.172319 0.131324 -0.225815 26 102 204
-0.0988789 0.132403 -0.255652 26 102 204
0.115604 0.121568 -0.211121 26 102 204
0.200925 0.116944 -0.233003 26 102 204
0.0781143 0.122935 -0.233756 26 102 204
-0.0509777 0.133214 -0.209098 26 102 204
0.0970733 0.126768 -0.219773 26 102 204
0.155834 0.131913 -0.228722 26 102 204
0.0156529 0.131898 -0.239835 26 102 204
-0.0687573 0.136112 -0.277867 26 102 204
0.0473807 0.132204 -0.243326 26 102 204
0.0244839 0.135262 -0.235324 26 102 204
-0.14027 0.144929 -0.232317 26 102 204
-0.125139 0.142838 -0.244266 26 102 204
0.184557 0.127267 -0.234859 26 102 204
0.177568 0.125681 -0.238757 26 102 204
0.0106564 0.158715 -0.291267 26 102 204
-0.107763 0.150923 -0.263361 26 102 204
-0.103169 0.149823 -0.23232 26 102 204
0.137522 0.134949 -0.261738 26 102 204
-0.105445 0.148825 -0.248772 26 102 204
0.0990934 0.142055 -0.229535 26 102 204
-0.0766835 0.149647 -0.204919 26 102 204
-0.0943817 0.159006 -0.220097 26 102 204
-0.149772 0.154502 -0.231956 26 102 204
-0.125503 0.158501 -0.234167 26 102 204
0.172455 0.151884 -0.223209 26 102 204
0.100919 0.145039 -0.1949 26 102 204
-0.134032 0.158419 -0.23149 26 102 204
0.0799224 0.152103 -0.233261 26 102 204
0.166932 0.152617 -0.229269 26 102 204
-0.0663813 0.160042 -0.227591 26 102 204
0.17579 0.151186 -0.196797 26 102 204
0.177441 0.151252 -0.252684 26 102 204
-0.0840638 0.172909 -0.238495 26 102 204
0.0996923 0.155327 -0.203499 26 102 204
-0.00927063 0.165556 -0.233273 26 102 204
0.0608182 0.163733 -0.264487 26 102 204
-0.123669 0.174191 -0.258862 26 102 204
0.0715321 0.165567 -0.238515 26 102 204
0.0637292 0.166555 -0.230735 26 102 204
0.192383 0.161991 -0.226278 26 102 204
0.184322 0.160053 -0.227628 26 102 204
-0.0801628 0.178895 -0.227402 26 102 204
-0.0545097 0.180163 -0.225641 26 102 204
0.0290136 0.176283 -0.218989 26 102 204
0.0425714 0.178521 -0.226278 26 102 204
0.0137493 0.180476 -0.224405 26 102 204
0.0817247 0.171073 -0.337618 26 102 204
0.0795394 0.179424 -0.328688 26 102 204
0.0301899 0.186313 -0.218379 26 102 204
-0.0877394 0.192789 -0.267064 26 102 204
0.116055 0.182302 -0.172906 26 102 204
0.196072 0.178281 -0.320957 26 102 204
-0.0487349 0.19444 -0.259959 26 102 204
0.0893134 0.178309 -0.075849 26 102 204
0.00182127 0.194064 -0.32284 26 102 204
0.0709276 0.192478 -0.216957 26 102 204
0.190461 0.188407 -0.320962 26 102 204
0.105589 0.184984 -0.286897 26 102 204
0.0145243 0.1962 -0.276181 26 102 204
0.148265 0.190902 -0.291573 26 102 204
0.164659 0.191232 -0.206926 26 102 204
0.0254454 0.199938 -0.318073 26 102 204
0.164481 0.187496 -0.246388 26 102 204
-0.0123779 0.199772 -0.256226 26 102 204
0.0546516 0.197528 -0.313963 26 102 204
0.0693543 0.190257 -0.251035 26 102 204
0.0222338 0.200775 -0.22164 26 102 204
0.156606 0.194998 -0.311626 26 102 204
0.0971911 0.19872 -0.203064 26 102 204
0.160995 0.192333 -0.226908 26 102 204
0.00254161 0.207148 -0.0426782 26 102 204
0.160997 0.196065 -0.151652 26 102 204
0.181607 0.194147 -0.236513 26 102 204
0.0805789 0.2023 -0.165065 26 102 204
0.025233 0.200623 -0.0255536 26 102 204
0.0591368 0.206026 -0.0924883 26 102 204
0.102217 0.205003 -0.215195 26 102 204
0.179792 0.199133 -0.272196 26 102 204
0.130408 0.200791 -0.210979 26 102 204
0.091859 0.20217 -0.285035 26 102 204
0.102893 0.197248 0.0222039 26 102 204
0.0148604 0.2147 -0.201748 26 102 204
0.10626 0.204225 -0.0915307 26 102 204
0.0393912 0.209508 -0.0542059 26 102 204
-0.0326961 0.216536 -0.316864 26 102 204
0.086046 0.209889 -0.14753 26 102 204
0.00909327 0.212889 -0.0832307 26 102 204
0.0336196 0.211641 -0.0742478 26 102 204
-0.0803247 0.218086 -0.281556 26 102 204
0.0554166 0.210958 -0.0586773 26 102 204
0.101478 0.207933 0.0344814 26 102 204
0.105104 0.205217 -0.257057 26 102 204
0.139959 0.197953 -0.153439 26 102 204
0.130876 0.206392 -0.043247 26 102 204
0.0529139 0.212715 0.0368053 26 102 204
0.145253 0.203627 -0.0851318 26 102 204
-0.0204496 0.206823 -0.218682 26 102 204
0.0236569 0.214789 -0.264531 26 102 204
0.124213 0.20923 0.0227522 26 102 204
-0.0837075 0.219451 0.0258209 26 102 204
0.089144 0.208039 -0.2525 26 102 204
0.036518 0.211162 -0.23734 26 102 204
0.0815528 0.211175 -0.244299 26 102 204
0.129978 0.20491 -0.0797422 26 102 204
0.0179654 0.214747 -0.00524982 26 102 204
0.103197 0.210681 0.00323958 26 102 204
0.010816 0.207986 -0.221205 26 102 204
0.18171 0.201838 -0.313419 26 102 204
0.128309 0.196639 -0.330853 26 102 204
0.0724319 0.212638 -0.191121 26 102 204
0.0672395 0.213824 -0.218771 26 102 204
0.0517114 0.211254 -0.16777 26 102 204
0.105944 0.214142 0.0394077 26 102 204
0.197086 0.204526 -0.313289 26 102 204
0.13267 0.213265 -0.010821 26 102 204
0.165411 0.208754 -0.312627 26 102 204
-0.0469473 0.214295 -0.26352 26 102 204
0.143179 0.208499 -0.229108 26 102 204
0.213158 0.203015 -0.246122 26 102 204
0.0855793 0.207991 -0.197025 26 102 204
0.0845714 0.213502 -0.336911 26 102 204
-0.0359633 0.221371 0.00426662 26 102 204
0.137047 0.212461 0.0269772 26 102 204
0.195544 0.211484 -0.223457 26 102 204
0.129104 0.209328 -0.238901 26 102 204
0.100636 0.210077 -0.192965 26 102 204
0.214153 0.200461 -0.290464 26 102 204
-0.0633189 0.222428 -0.242404 26 102 204
0.0392776 0.218109 -0.265566 26 102 204
0.189769 0.209256 -0.231407 26 102 204
0.140809 0.212745 -0.220769 26 102 204
0.00641657 0.219245 -0.284452 26 102 204
0.105773 0.215996 -0.117471 26 102 204
0.0151422 0.218393 0.0649426 26 102 204
0.00954148 0.217791 0.0654622 26 102 204
0.139572 0.214837 -0.0227063 26 102 204
0.0341154 0.219172 0.00310672 26 102 204
0.112674 0.212309 -0.370168 26 102 204
0.0444586 0.215568 -0.101234 26 102 204
0.162585 0.211938 -0.211674 26 102 204
0.113457 0.213748 -0.0168626 26 102 204
-0.023874 0.224082 0.0321999 26 102 204
-0.0378373 0.224489 -0.182957 26 102 204
0.0359408 0.222947 0.033756 26 102 204
-0.0468582 0.226147 0.0379231 26 102 204
-0.0218342 0.224826 0.0634993 26 102 204
0.0956735 0.213249 -0.244496 26 102 204
0.118447 0.222526 -0.283094 26 102 204
0.123871 0.214611 -0.133651 26 102 204
0.129356 0.220984 -0.23703 26 102 204
0.00608111 0.227386 -0.45377 26 102 204
0.108744 0.220262 0.0281322 26 102 204
0.0451867 0.22875 -0.400618 26 102 204
0.133579 0.217699 0.0492122 26 102 204
0.131607 0.218749 -0.0980201 26 102 204
0.10693 0.222979 0.0524097 26 102 204
-0.0336631 0.232562 -0.0713532 26 102 204
0.121576 0.224654 -0.212334 26 102 204
0.119589 0.222874 -0.152425 26 102 204
-0.0415963 0.231391 0.0283343 26 102 204
0.0768092 0.225356 0.0595232 26 102 204
0.103113 0.21513 -0.374984 26 102 204
0.129418 0.219919 0.0803371 26 102 204
-9.28671e-05 0.232317 0.0535379 26 102 204
0.00566424 0.230623 -0.394757 26 102 204
0.0469151 0.228496 -0.338296 26 102 204
-0.000382535 0.234452 0.0257103 26 102 204
0.0961369 0.227518 0.0369219 26 102 204
0.0978128 0.226214 0.0428331 26 102 204
-0.0449502 0.235029 -0.0263234 26 102 204
0.0925326 0.228406 -0.365552 26 102 204
0.0971035 0.221407 -0.405984 26 102 204
0.109498 0.226579 -0.161083 26 102 204
-0.022131 0.240359 0.0428718 26 102 204
-0.00243603 0.239801 -0.129719 26 102 204
0.0252227 0.234784 -0.15206 26 102 204
0.0877498 0.228969 -0.166012 26 102 204
-0.0380501 0.240028 -0.140763 26 102 204
0.0204581 0.232814 0.060692 26 102 204
0.00129501 0.233151 0.0743342 26 102 204
0.0984362 0.232488 -0.142128 26 102 204
-0.0434684 0.240792 0.0431931 26 102 204
0.0759036 0.23723 0.0629971 26 102 204
0.0310203 0.241105 0.0827672 26 102 204
-0.0174579 0.232521 0.0804513 26 102 204
-0.0242261 0.253971 0.0743193 26 102 204
