ply
format ascii 1.0
comment Created by Open3D
element vertex 1024
property double x
property double y
property double z
property uchar red
property uchar green
property uchar blue
end_header
0.206386 -0.460919 -0.0368323 26 102 204
0.214103 -0.454559 -0.138837 26 102 204
0.221242 -0.459044 -0.00436652 26 102 204
0.204453 -0.458274 0.108207 26 102 204
0.19254 -0.463041 0.0422276 26 102 204
0.201208 -0.459275 -0.0957146 26 102 204
0.208772 -0.457174 0.114111 26 102 204
0.21888 -0.454629 -0.0697113 26 102 204
0.220141 -0.447883 0.144829 26 102 204
0.225378 -0.447137 -0.160479 26 102 204
0.218805 -0.447803 -0.165984 26 102 204
0.212626 -0.444078 -0.129352 26 102 204
0.221266 -0.443511 0.0176374 26 102 204
0.221086 -0.450834 0.0415244 26 102 204
0.170972 -0.46115 0.135718 26 102 204
0.159236 -0.465978 -0.0972183 26 102 204
0.163201 -0.469495 -0.0285721 26 102 204
0.153426 -0.468296 -0.0960167 26 102 204
0.153174 -0.472987 -0.0655983 26 102 204
0.243849 -0.434314 -0.104676 26 102 204
0.131007 -0.48194 0.101239 26 102 204
0.155051 -0.464542 0.0150277 26 102 204
0.221738 -0.435933 -0.023933 26 102 204
0.142268 -0.465202 0.0111023 26 102 204
0.172193 -0.458875 -0.0367127 26 102 204
0.16125 -0.460585 -0.131294 26 102 204
0.145178 -0.466662 -0.0743053 26 102 204
0.120784 -0.474352 -0.145017 26 102 204
0.178855 -0.455437 -0.158213 26 102 204
0.0766985 -0.49055 -0.136654 26 102 204
0.0753006 -0.475168 -0.0346939 26 102 204
0.0738177 -0.483626 -0.0217256 26 102 204
0.211079 -0.431334 -0.0775268 26 102 204
0.220104 -0.431772 0.0886919 26 102 204
0.065244 -0.486161 0.00488584 26 102 204
0.119654 -0.463639 0.142572 26 102 204
0.062727 -0.479166 -0.01842 26 102 204
0.203908 -0.435709 0.143081 26 102 204
0.2218 -0.427602 0.0128307 26 102 204
0.210558 -0.427093 -0.109606 26 102 204
0.110581 -0.470198 0.155081 26 102 204
0.218506 -0.4242 -0.158023 26 102 204
0.207281 -0.426565 0.0173185 26 102 204
0.0307725 -0.48734 0.104755 26 102 204
0.205856 -0.420084 0.110254 26 102 204
0.207338 -0.417754 0.0669192 26 102 204
0.213546 -0.414155 -0.136258 26 102 204
0.02149 -0.48108 -0.0577755 26 102 204
0.215792 -0.416127 -0.0843843 26 102 204
0.127479 -0.441064 -0.160517 26 102 204
0.0268658 -0.476237 0.000833816 26 102 204
0.211198 -0.410695 0.0750142 26 102 204
0.194555 -0.434674 -0.160393 26 102 204
0.220719 -0.408133 -0.0464383 26 102 204
0.0729041 -0.451631 -0.125552 26 102 204
0.14199 -0.426362 0.0459922 26 102 204
0.213616 -0.40692 -0.156499 26 102 204
0.191713 -0.406377 0.0413537 26 102 204
0.000311508 -0.475905 0.0838803 26 102 204
0.227162 -0.397696 -0.1603 26 102 204
0.0227451 -0.470477 -0.137137 26 102 204
0.0364271 -0.468772 -0.163911 26 102 204
0.0260304 -0.459228 0.13321 26 102 204
0.11621 -0.421409 0.154824 26 102 204
0.204208 -0.386407 0.0359542 26 102 204
0.204351 -0.380092 -0.0450512 26 102 204
0.196122 -0.385627 -0.0427923 26 102 204
0.203011 -0.378713 0.0137018 26 102 204
0.192367 -0.385267 -0.086084 26 102 204
0.0465431 -0.425501 0.0424673 26 102 204
0.0141783 -0.449448 0.130305 26 102 204
0.0335522 -0.426495 0.0693829 26 102 204
0.0301192 -0.431848 -0.103067 26 102 204
0.065713 -0.424061 -0.0138777 26 102 204
0.0246538 -0.429282 0.0981133 26 102 204
0.0781168 -0.413717 -0.0202776 26 102 204
0.0580729 -0.413387 0.0622396 26 102 204
0.0397569 -0.417398 0.0632445 26 102 204
0.0709262 -0.406732 -0.00814112 26 102 204
0.170707 -0.372778 -0.127654 26 102 204
0.0510098 -0.418621 -0.0220977 26 102 204
0.0390433 -0.41806 -0.135853 26 102 204
0.0160183 -0.415699 -0.145304 26 102 204
0.038044 -0.413407 -0.133626 26 102 204
0.24595 -0.339813 -0.14114 26 102 204
0.0584155 -0.40671 0.0808152 26 102 204
0.0454512 -0.416279 -0.0106815 26 102 204
0.143965 -0.363878 -0.162881 26 102 204
0.0329936 -0.408081 0.149347 26 102 204
0.271661 -0.327813 0.153187 26 102 204
0.0989188 -0.3844 0.124516 26 102 204
0.181202 -0.35228 0.0518637 26 102 204
0.180238 -0.350527 -0.133381 26 102 204
0.0581292 -0.405266 0.13515 26 102 204
0.158516 -0.361583 0.152256 26 102 204
0.210383 -0.342558 -0.13217 26 102 204
0.0306307 -0.40807 -0.151506 26 102 204
0.217559 -0.333937 0.135894 26 102 204
0.0288445 -0.401129 -0.153688 26 102 204
0.0932263 -0.393819 0.00506236 26 102 204
0.0218776 -0.404627 0.136337 26 102 204
0.159914 -0.355346 0.15949 26 102 204
0.254305 -0.313423 -0.134069 26 102 204
0.0437657 -0.392272 0.152519 26 102 204
0.199117 -0.336503 0.148263 26 102 204
0.20203 -0.328101 0.152376 26 102 204
0.247898 -0.312609 -0.159972 26 102 204
0.116658 -0.362005 -0.0720059 26 102 204
0.0977015 -0.364954 -0.153069 26 102 204
0.189425 -0.327443 0.15881 26 102 204
0.0827709 -0.366101 -0.101807 26 102 204
0.239156 -0.310391 -0.153134 26 102 204
0.141038 -0.345396 -0.146479 26 102 204
0.0320149 -0.385718 -0.146186 26 102 204
0.103922 -0.355567 -0.154811 26 102 204
0.0834248 -0.362699 0.124242 26 102 204
0.0991602 -0.357511 0.109985 26 102 204
0.226108 -0.307446 0.13638 26 102 204
0.206815 -0.321217 -0.158287 26 102 204
0.120511 -0.349087 -0.118065 26 102 204
0.0426802 -0.374103 -0.160077 26 102 204
-0.00107684 -0.38731 0.084922 26 102 204
0.185975 -0.328403 0.166034 26 102 204
0.222115 -0.307614 -0.151921 26 102 204
0.0821258 -0.354539 0.155059 26 102 204
0.137138 -0.33287 -0.124176 26 102 204
0.237963 -0.290254 -0.138151 26 102 204
0.119771 -0.33808 -0.0762108 26 102 204
0.117335 -0.342517 -0.153883 26 102 204
0.241563 -0.291385 -0.169685 26 102 204
0.114124 -0.337475 0.132995 26 102 204
0.258013 -0.288335 -0.144565 26 102 204
0.134655 -0.330016 0.109522 26 102 204
0.106595 -0.338861 0.148982 26 102 204
0.157105 -0.311665 0.113298 26 102 204
0.0332598 -0.362131 0.143922 26 102 204
0.207775 -0.295959 -0.149983 26 102 204
0.0850928 -0.339809 -0.0861884 26 102 204
0.0474825 -0.346476 0.0879463 26 102 204
-0.0285183 -0.38078 -0.105379 26 102 204
0.100236 -0.339779 0.12466 26 102 204
0.222881 -0.285946 -0.132999 26 102 204
0.0935666 -0.341074 -0.163482 26 102 204
0.107155 -0.329285 -0.134303 26 102 204
0.0841147 -0.334408 -0.147959 26 102 204
0.232514 -0.301914 -0.148642 26 102 204
0.073632 -0.346759 0.0819208 26 102 204
0.0866804 -0.33602 0.0887368 26 102 204
0.251719 -0.273142 0.131875 26 102 204
0.237683 -0.283955 0.129787 26 102 204
-0.0322018 -0.373882 0.102574 26 102 204
0.0181864 -0.360754 -0.143416 26 102 204
0.26613 -0.262734 0.140859 26 102 204
0.121141 -0.330842 0.103567 26 102 204
0.00639112 -0.357041 0.141423 26 102 204
-0.0156522 -0.371062 -0.150765 26 102 204
0.0835988 -0.326301 0.14082 26 102 204
0.250032 -0.267312 0.146679 26 102 204
0.0526589 -0.333026 -0.163034 26 102 204
0.104508 -0.325834 0.147527 26 102 204
0.22307 -0.279425 0.129747 26 102 204
-0.00789571 -0.36101 0.12687 26 102 204
0.144204 -0.300352 -0.161937 26 102 204
0.228886 -0.267485 0.132187 26 102 204
0.0961698 -0.31892 -0.00665298 26 102 204
0.108108 -0.310701 -0.168951 26 102 204
0.101401 -0.312599 -0.13967 26 102 204
0.133127 -0.303406 -0.127829 26 102 204
0.0954873 -0.31486 -0.154294 26 102 204
0.103263 -0.313101 -0.0508351 26 102 204
0.174565 -0.285035 -0.149133 26 102 204
0.124394 -0.305392 -0.0933213 26 102 204
0.102367 -0.30725 0.116595 26 102 204
0.132841 -0.299923 0.0610512 26 102 204
0.120825 -0.297249 -0.142699 26 102 204
0.133115 -0.287053 -0.0235043 26 102 204
-0.0426828 -0.355299 -0.0470733 26 102 204
0.150101 -0.282438 -0.104153 26 102 204
0.0953493 -0.297136 0.139667 26 102 204
0.244493 -0.24198 0.131043 26 102 204
0.122492 -0.283637 -0.125853 26 102 204
0.228409 -0.246104 0.148606 26 102 204
0.136632 -0.281484 -0.124988 26 102 204
0.217806 -0.247062 0.138928 26 102 204
0.258398 -0.233549 -0.142566 26 102 204
0.241089 -0.233291 -0.149965 26 102 204
0.283397 -0.223759 0.133702 26 102 204
0.217165 -0.245195 -0.152187 26 102 204
0.0720477 -0.291874 0.10224 26 102 204
0.0934462 -0.285877 -0.118085 26 102 204
0.186093 -0.251125 -0.106657 26 102 204
0.113016 -0.279205 0.134363 26 102 204
0.256159 -0.22917 0.125996 26 102 204
0.19215 -0.245135 0.123213 26 102 204
0.230951 -0.232834 -0.124437 26 102 204
-0.0666714 -0.337147 -0.0208661 26 102 204
-0.04598 -0.326422 0.0547878 26 102 204
0.183127 -0.266954 -0.132323 26 102 204
0.14163 -0.259588 -0.104675 26 102 204
0.126831 -0.260805 0.141742 26 102 204
0.228108 -0.227075 -0.155624 26 102 204
0.062559 -0.283783 -0.163095 26 102 204
0.113197 -0.26465 0.116767 26 102 204
0.0602603 -0.282795 -0.128775 26 102 204
0.224831 -0.223078 0.119415 26 102 204
-0.0109044 -0.305494 0.146731 26 102 204
0.148864 -0.248872 -0.0878126 26 102 204
0.116039 -0.258462 0.111125 26 102 204
0.0405397 -0.282211 0.129646 26 102 204
-0.0316227 -0.307165 -0.0898702 26 102 204
0.20993 -0.225313 -0.160121 26 102 204
0.0386304 -0.279041 -0.151782 26 102 204
0.214206 -0.21495 0.12443 26 102 204
0.187162 -0.22422 0.128424 26 102 204
0.16124 -0.232088 -0.159342 26 102 204
0.226585 -0.209117 0.130338 26 102 204
0.229404 -0.20556 0.134368 26 102 204
0.0174351 -0.284731 -0.156288 26 102 204
0.070791 -0.259424 -0.15349 26 102 204
0.0473792 -0.275033 0.148689 26 102 204
0.104725 -0.252887 -0.15107 26 102 204
0.203319 -0.20968 -0.139182 26 102 204
0.139582 -0.232065 0.131137 26 102 204
0.100946 -0.2473 -0.133342 26 102 204
0.110214 -0.240628 -0.130484 26 102 204
0.0959029 -0.246846 -0.133256 26 102 204
0.169886 -0.221859 0.124352 26 102 204
0.0731601 -0.271212 -0.164281 26 102 204
0.206278 -0.237834 -0.133272 26 102 204
-0.066727 -0.305679 0.0988014 26 102 204
0.215942 -0.196389 0.145766 26 102 204
-0.0343325 -0.294556 0.114864 26 102 204
-0.027909 -0.284326 0.132793 26 102 204
0.0856716 -0.245992 -0.147614 26 102 204
0.165411 -0.214976 -0.172181 26 102 204
0.214278 -0.194622 0.14441 26 102 204
0.014985 -0.271368 0.131072 26 102 204
0.2284 -0.188305 -0.145715 26 102 204
0.0223533 -0.262065 0.147478 26 102 204
0.16672 -0.207977 0.133443 26 102 204
0.139853 -0.218182 -0.138703 26 102 204
0.222614 -0.191745 -0.15228 26 102 204
-0.0784492 -0.291045 0.117064 26 102 204
0.0655151 -0.239414 0.0904948 26 102 204
0.0431589 -0.247212 -0.0958253 26 102 204
0.156128 -0.234586 0.0211185 26 102 204
-0.0407827 -0.28395 -0.0808129 26 102 204
0.0706446 -0.236552 0.0953292 26 102 204
0.119641 -0.225393 0.138649 26 102 204
0.187317 -0.190086 0.138335 26 102 204
-0.0756548 -0.284038 0.0853391 26 102 204
0.194483 -0.183573 -0.168994 26 102 204
0.217877 -0.173824 -0.127306 26 102 204
0.259863 -0.154191 -0.156274 26 102 204
0.0913299 -0.217825 0.127753 26 102 204
0.264913 -0.148552 -0.159725 26 102 204
-0.109789 -0.279202 0.0507683 26 102 204
0.216251 -0.160693 0.140143 26 102 204
0.0450478 -0.225209 0.131568 26 102 204
0.219226 -0.16258 0.1348 26 102 204
0.116442 -0.197091 -0.0954324 26 102 204
-0.132668 -0.290375 0.0737252 26 102 204
0.16654 -0.176532 0.119526 26 102 204
0.10984 -0.195908 0.139253 26 102 204
0.197436 -0.169892 0.136501 26 102 204
0.135008 -0.187714 -0.155644 26 102 204
0.134055 -0.190053 0.1335 26 102 204
-0.114927 -0.279673 -0.117176 26 102 204
0.063375 -0.208715 0.153696 26 102 204
0.00437486 -0.236039 0.14781 26 102 204
0.0637204 -0.212694 0.145699 26 102 204
0.143325 -0.179891 0.0740762 26 102 204
-0.082391 -0.263582 -0.124537 26 102 204
-0.0419338 -0.244059 -0.15048 26 102 204
0.218196 -0.152164 -0.14807 26 102 204
-0.0547687 -0.248271 -0.129292 26 102 204
0.202015 -0.154669 0.134937 26 102 204
0.120061 -0.184653 0.140286 26 102 204
-0.0657542 -0.249729 -0.0118613 26 102 204
-0.0400687 -0.244076 0.0961316 26 102 204
-0.0462926 -0.245909 -0.0194248 26 102 204
-0.12468 -0.274364 -0.0991956 26 102 204
-0.144217 -0.280197 -0.0789683 26 102 204
0.0374582 -0.210986 -0.154085 26 102 204
-0.12394 -0.259024 0.106868 26 102 204
-0.0279613 -0.227785 0.135801 26 102 204
-0.154413 -0.268262 -0.0780804 26 102 204
0.0149274 -0.214541 -0.157416 26 102 204
0.0721645 -0.184785 0.0340349 26 102 204
0.131126 -0.164509 0.0327729 26 102 204
0.144861 -0.162438 0.150515 26 102 204
0.134016 -0.163402 0.10505 26 102 204
0.0194029 -0.212798 -0.153393 26 102 204
-0.086231 -0.241308 0.127371 26 102 204
-0.0262705 -0.219024 0.125114 26 102 204
-0.0273648 -0.221486 -0.0772079 26 102 204
-0.160234 -0.268479 0.041563 26 102 204
0.148854 -0.151103 -0.128482 26 102 204
-0.114075 -0.245391 0.11929 26 102 204
0.181224 -0.138475 0.160433 26 102 204
0.18358 -0.133482 -0.156326 26 102 204
0.117595 -0.160721 -0.0271705 26 102 204
-0.128619 -0.249498 0.0787374 26 102 204
-0.114419 -0.240805 0.114143 26 102 204
-0.108891 -0.240866 -0.0847597 26 102 204
0.144174 -0.141609 0.112212 26 102 204
0.100528 -0.156405 0.121666 26 102 204
-0.00662667 -0.203616 0.152896 26 102 204
-0.0833207 -0.233022 -0.124779 26 102 204
0.171126 -0.128793 0.159921 26 102 204
0.104468 -0.160486 -0.123766 26 102 204
0.194003 -0.12748 0.132969 26 102 204
0.193217 -0.120824 0.137846 26 102 204
0.117776 -0.154163 0.104717 26 102 204
0.0914925 -0.160729 -0.157068 26 102 204
-0.151977 -0.254656 -0.0347473 26 102 204
0.17215 -0.131801 -0.136415 26 102 204
0.0731733 -0.156976 0.139315 26 102 204
0.0138813 -0.185735 -0.138876 26 102 204
-0.0336934 -0.200544 -0.14418 26 102 204
-0.0414133 -0.203956 0.145859 26 102 204
-0.175699 -0.246481 0.0557856 26 102 204
-0.166237 -0.245193 -0.0210332 26 102 204
0.141751 -0.13221 -0.146403 26 102 204
-0.148416 -0.238174 0.0306683 26 102 204
0.128947 -0.128843 0.0723422 26 102 204
0.12205 -0.134835 0.0178335 26 102 204
0.116218 -0.132735 0.0874774 26 102 204
0.0500028 -0.158614 0.163122 26 102 204
-0.16448 -0.236752 0.000687324 26 102 204
-0.143459 -0.232548 0.0798483 26 102 204
0.108945 -0.144502 -0.150712 26 102 204
0.105428 -0.164696 0.158071 26 102 204
-0.172839 -0.231315 -0.0289948 26 102 204
0.108584 -0.127334 0.0357498 26 102 204
-0.108011 -0.20533 0.0996239 26 102 204
0.115644 -0.125097 -0.0629047 26 102 204
-0.162791 -0.226554 -0.0878568 26 102 204
-0.157424 -0.224469 -0.00147426 26 102 204
-0.160373 -0.22147 -0.0903432 26 102 204
0.0236976 -0.159605 0.156605 26 102 204
-0.139739 -0.221614 0.00545592 26 102 204
-0.175381 -0.229536 -0.0289959 26 102 204
0.0627264 -0.148475 0.159555 26 102 204
-0.174352 -0.228447 0.0413855 26 102 204
0.112092 -0.126643 0.0715513 26 102 204
0.116434 -0.116785 0.0463208 26 102 204
0.139984 -0.107104 -0.156005 26 102 204
0.0717794 -0.131352 0.158098 26 102 204
0.125679 -0.108557 -0.14363 26 102 204
0.127881 -0.10784 -0.0982593 26 102 204
-0.123157 -0.209999 0.0869703 26 102 204
0.134277 -0.109452 -0.139043 26 102 204
-0.130013 -0.198469 0.129797 26 102 204
-0.0959166 -0.182034 -0.14198 26 102 204
-0.00430315 -0.148002 -0.153791 26 102 204
0.106792 -0.107404 -0.108166 26 102 204
-0.0563498 -0.163672 -0.151643 26 102 204
-0.159015 -0.192696 0.0401615 26 102 204
0.111496 -0.100705 -0.0955766 26 102 204
0.101264 -0.10054 0.114796 26 102 204
-0.0574595 -0.156616 -0.148066 26 102 204
-0.159611 -0.195669 0.111593 26 102 204
-0.0914069 -0.167677 0.121167 26 102 204
-0.207483 -0.208035 -0.0124518 26 102 204
0.113688 -0.0887901 0.105482 26 102 204
0.10777 -0.094148 0.154447 26 102 204
0.0386096 -0.112727 0.157947 26 102 204
0.106197 -0.0921914 0.0788312 26 102 204
0.106269 -0.089861 0.0534177 26 102 204
0.00591818 -0.121831 0.16281 26 102 204
-0.206125 -0.193877 0.0244323 26 102 204
0.112361 -0.0824399 0.159902 26 102 204
0.109873 -0.0812226 -0.0830446 26 102 204
-0.037589 -0.132704 0.149293 26 102 204
-0.171011 -0.181376 0.0179549 26 102 204
0.0900061 -0.0827762 0.0195898 26 102 204
-0.195482 -0.183129 -0.0911061 26 102 204
0.0760213 -0.087229 0.0619594 26 102 204
0.116468 -0.0709518 -0.12421 26 102 204
-0.00185143 -0.121405 -0.144673 26 102 204
-0.122779 -0.153473 -0.132341 26 102 204
0.117285 -0.0620659 -0.136896 26 102 204
0.0917059 -0.072745 0.00882959 26 102 204
0.0988483 -0.0646223 0.119574 26 102 204
0.0923757 -0.0695875 0.155331 26 102 204
0.0870762 -0.0715303 -0.0429689 26 102 204
0.141916 -0.0515235 -0.119114 26 102 204
-0.161348 -0.162378 0.0638585 26 102 204
-0.0947401 -0.133012 0.136981 26 102 204
0.11161 -0.0612867 -0.142267 26 102 204
0.116261 -0.0677052 -0.0752894 26 102 204
-0.19367 -0.171176 -0.102128 26 102 204
-0.0349956 -0.113745 -0.15947 26 102 204
-0.168331 -0.158596 -0.0442282 26 102 204
0.110515 -0.0549648 0.101341 26 102 204
0.099434 -0.0573729 -0.0519752 26 102 204
0.131283 -0.0462135 -0.147092 26 102 204
-0.161538 -0.150623 -0.0849906 26 102 204
-0.155251 -0.146145 -0.0708176 26 102 204
-0.184233 -0.15932 -0.00176041 26 102 204
-0.237709 -0.178987 0.0564616 26 102 204
0.0979364 -0.0508461 -0.0353628 26 102 204
-0.200913 -0.170411 -0.0778141 26 102 204
-0.216791 -0.165868 -0.0294162 26 102 204
-0.127359 -0.139529 -0.13451 26 102 204
0.096703 -0.0508958 -0.0795701 26 102 204
0.0944401 -0.0539029 -0.158349 26 102 204
-0.159661 -0.160359 0.101257 26 102 204
-0.206 -0.159485 -0.0130003 26 102 204
-0.191899 -0.148952 0.0663122 26 102 204
-0.009493 -0.0866029 -0.153639 26 102 204
0.098376 -0.0466289 -0.00330919 26 102 204
0.0188791 -0.0705064 -0.160853 26 102 204
-0.213936 -0.155691 0.00532938 26 102 204
0.0463614 -0.0684738 0.153469 26 102 204
0.142937 -0.0238735 -0.144343 26 102 204
-0.127891 -0.123795 -0.126927 26 102 204
-0.0265291 -0.0837463 -0.159377 26 102 204
-0.158042 -0.141246 0.0942353 26 102 204
-0.219287 -0.152154 0.0122567 26 102 204
0.0841169 -0.0411169 0.0737605 26 102 204
0.0828847 -0.0402922 -0.0323216 26 102 204
0.0919438 -0.0352329 0.0193807 26 102 204
-0.110925 -0.107658 0.135043 26 102 204
-0.121411 -0.112012 -0.133295 26 102 204
-0.187278 -0.13212 -0.0701249 26 102 204
-0.163661 -0.127312 -0.00352761 26 102 204
0.0867153 -0.033669 -0.0530978 26 102 204
-0.0443784 -0.0804845 0.150401 26 102 204
-0.0698015 -0.091319 -0.154696 26 102 204
0.0745711 -0.0365516 0.0581719 26 102 204
0.0698863 -0.0378141 -0.125844 26 102 204
-0.198789 -0.133797 -0.0794087 26 102 204
-0.0412882 -0.083728 0.154555 26 102 204
-0.162515 -0.121279 0.103877 26 102 204
0.120808 -0.0603409 -0.104985 26 102 204
-0.125773 -0.105615 -0.120382 26 102 204
-0.131334 -0.108656 0.125522 26 102 204
0.07551 -0.0295145 -0.0420609 26 102 204
0.127246 -0.00599419 -0.149026 26 102 204
-0.0412476 -0.0707047 -0.154905 26 102 204
0.111785 -0.0131316 -0.147507 26 102 204
0.0625894 -0.0273957 -0.113631 26 102 204
-0.0583169 -0.074811 0.0507167 26 102 204
-0.0775408 -0.0807707 0.152413 26 102 204
-0.0546524 -0.0706228 -0.0131925 26 102 204
0.0730314 -0.0269722 0.0935763 26 102 204
0.0689016 -0.0225527 0.0617167 26 102 204
-0.0677136 -0.0776204 0.147945 26 102 204
0.102413 -0.0116621 -0.128659 26 102 204
0.0915281 -0.0128531 -0.171205 26 102 204
-0.228394 -0.126148 -0.0224039 26 102 204
-0.207506 -0.123444 -0.0869295 26 102 204
-0.212866 -0.126558 -0.0503376 26 102 204
-0.0463538 -0.0616454 0.122114 26 102 204
0.0598172 -0.0293692 0.150379 26 102 204
-0.0547812 -0.0652199 0.149935 26 102 204
-0.0525212 -0.0621866 0.125253 26 102 204
-0.201807 -0.11017 -0.115614 26 102 204
-0.0254123 -0.0527889 0.131972 26 102 204
0.122177 0.0132381 0.118808 26 102 204
-0.218176 -0.122152 0.00677731 26 102 204
-0.0399934 -0.0532282 -0.121255 26 102 204
-0.225401 -0.119428 0.00941247 26 102 204
-0.0417249 -0.0508524 -0.0604491 26 102 204
-0.0486618 -0.0554458 -0.0507504 26 102 204
-0.0441173 -0.0587087 -0.0919959 26 102 204
0.080978 -0.00547073 0.0546414 26 102 204
-0.08292 -0.0641761 -0.113614 26 102 204
0.121629 0.00962974 0.146552 26 102 204
-0.169845 -0.094446 -0.125775 26 102 204
0.0487033 -0.0122481 0.140661 26 102 204
-0.0931222 -0.0648335 -0.142553 26 102 204
0.124971 0.012781 -0.157079 26 102 204
0.0819719 -0.0104654 0.0337779 26 102 204
0.0227416 -0.0218907 0.0610446 26 102 204
0.00675448 -0.026541 -0.00670726 26 102 204
-0.0218368 -0.0368391 -0.00915699 26 102 204
-0.0448231 -0.0388455 -0.00112702 26 102 204
-0.0148779 -0.0316729 0.107291 26 102 204
-0.0341954 -0.0389358 -0.122509 26 102 204
0.0499582 -0.00638593 -0.114731 26 102 204
0.134319 0.0298731 -0.156285 26 102 204
0.0525442 -0.0027422 0.0709601 26 102 204
-0.0276878 -0.0293122 -0.141064 26 102 204
-0.051373 -0.0386292 0.129514 26 102 204
-0.022313 -0.034469 -0.028616 26 102 204
0.103127 0.0234981 0.142247 26 102 204
-0.216957 -0.0904272 0.0686807 26 102 204
-0.211119 -0.0935182 -0.0938742 26 102 204
0.0690923 0.00955209 0.0654906 26 102 204
0.033916 0.00607184 0.0680337 26 102 204
0.0411616 0.00327279 -0.0313729 26 102 204
-0.049791 -0.0288473 0.0593839 26 102 204
-0.0162666 -0.0102713 -0.0669424 26 102 204
-0.205863 -0.081854 0.122629 26 102 204
-0.177183 -0.0745773 0.111343 26 102 204
-0.137102 -0.0584796 -0.0777959 26 102 204
0.113659 0.0444063 0.148765 26 102 204
-0.210085 -0.0863487 0.0449017 26 102 204
0.0430505 0.00951013 0.129189 26 102 204
0.0676004 0.0181786 0.0992609 26 102 204
-0.185224 -0.081596 -0.0379821 26 102 204
0.0588426 0.0173389 0.0682313 26 102 204
0.0678935 0.0243975 0.0248111 26 102 204
0.00415597 -0.00176222 0.0751756 26 102 204
0.00778876 -0.00026126 0.0159802 26 102 204
0.0454758 0.0301233 0.127378 26 102 204
0.0169156 0.00660927 -0.049498 26 102 204
0.0745657 0.0224768 -0.157494 26 102 204
-0.116597 -0.0448845 -0.119091 26 102 204
0.0342764 0.00993497 0.0865533 26 102 204
0.0539779 0.0297675 -0.04497 26 102 204
0.04321 0.0175278 0.0765025 26 102 204
-0.225723 -0.0791013 0.00972591 26 102 204
-0.207699 -0.0759233 0.00140025 26 102 204
-0.143826 -0.0493429 0.15106 26 102 204
-0.213363 -0.0909047 0.00567344 26 102 204
-0.217071 -0.0790197 0.0163973 26 102 204
-0.217799 -0.0840175 0.072616 26 102 204
0.0750292 0.0278889 -0.149127 26 102 204
-0.0879589 -0.0295139 0.141521 26 102 204
0.0694881 0.0272175 -0.139172 26 102 204
-0.218985 -0.0760085 -0.0961078 26 102 204
0.0755094 0.0291447 0.1298 26 102 204
0.0528163 0.0299204 0.0234822 26 102 204
0.10656 0.0478133 0.149762 26 102 204
0.104384 0.0464292 -0.161514 26 102 204
0.0646116 0.0307682 0.113792 26 102 204
0.0616656 0.0371281 -0.150315 26 102 204
-0.0567656 -0.0121285 0.13685 26 102 204
-0.0429788 -0.00577785 0.156788 26 102 204
-0.0515433 -0.00536634 0.150597 26 102 204
-0.0968974 -0.0232911 -0.114814 26 102 204
0.044735 0.0316592 -0.0250006 26 102 204
0.104136 0.0471427 0.130628 26 102 204
0.000531719 0.0219625 -0.147824 26 102 204
-0.0147128 0.0132117 0.142524 26 102 204
-0.0957875 -0.0129947 0.141996 26 102 204
0.0496175 0.0391835 -0.118695 26 102 204
-0.0287126 0.0205126 -0.166025 26 102 204
-0.227384 -0.0568319 0.00364378 26 102 204
-0.0233961 0.0199698 -0.151867 26 102 204
0.0294767 0.0400433 -0.137229 26 102 204
-0.108007 -0.0122972 -0.146018 26 102 204
-0.030281 0.0157319 0.154152 26 102 204
-0.0999804 -0.00633154 0.149741 26 102 204
0.0174055 0.0467137 0.151526 26 102 204
-0.211842 -0.0419953 0.107752 26 102 204
-0.162731 -0.0211222 -0.129117 26 102 204
0.025145 0.0419982 0.0956001 26 102 204
-0.227629 -0.0434895 -0.0768074 26 102 204
-0.19169 -0.0305856 -0.112926 26 102 204
0.0406896 0.0594944 0.0545581 26 102 204
0.0507656 0.0581334 -0.0454115 26 102 204
0.0404972 0.0524423 0.0580887 26 102 204
-0.207767 -0.0369895 0.1211 26 102 204
0.0382549 0.0562236 0.00458991 26 102 204
0.0405913 0.0654359 0.0411273 26 102 204
0.0414199 0.058646 0.074076 26 102 204
0.0825599 0.0804232 -0.131434 26 102 204
0.0229884 0.0668639 -0.0468247 26 102 204
-0.00650435 0.0709058 -0.154933 26 102 204
0.030117 0.0802763 -0.165375 26 102 204
-0.0872101 0.0260713 -0.151079 26 102 204
0.0351053 0.0699749 -0.0389837 26 102 204
-0.221072 -0.0242845 0.0515292 26 102 204
0.0318189 0.0640908 -0.00588858 26 102 204
0.0134813 0.070567 -0.0697898 26 102 204
0.0518232 0.0830645 -0.13074 26 102 204
0.0281582 0.0726245 0.143874 26 102 204
0.0486312 0.0761152 -0.148868 26 102 204
-0.219931 -0.02147 -0.061751 26 102 204
-0.192493 -0.0121824 0.0971073 26 102 204
-0.203487 -0.0120754 0.0103534 26 102 204
-0.180216 -0.00592941 0.128271 26 102 204
-0.183373 -0.00224892 0.0285875 26 102 204
-0.174729 -0.000538623 -0.0742568 26 102 204
-0.153329 0.00864538 0.135392 26 102 204
-0.00499694 0.0588717 0.15262 26 102 204
-0.158083 0.00488226 0.142776 26 102 204
-0.172692 0.00550037 0.152338 26 102 204
-0.129108 0.0184072 -0.147671 26 102 204
0.0420895 0.0874281 0.00685624 26 102 204
-0.210185 -0.0112295 0.0583792 26 102 204
0.0375398 0.0762823 0.0403063 26 102 204
-0.114558 0.0282818 -0.158874 26 102 204
0.0392119 0.0862906 0.135584 26 102 204
0.0391536 0.0844453 0.0162737 26 102 204
-0.130045 0.0215123 -0.154094 26 102 204
-0.206655 -0.00380604 0.0890278 26 102 204
-0.174744 0.0212533 0.13026 26 102 204
0.0108781 0.0804848 0.15057 26 102 204
0.0468026 0.111465 0.0815843 26 102 204
0.0331676 0.0875873 -0.118744 26 102 204
0.0455096 0.0935024 0.0699162 26 102 204
-0.200076 0.013797 0.123347 26 102 204
-0.0212277 0.071941 -0.157063 26 102 204
-0.0392715 0.0614918 0.152264 26 102 204
0.0250774 0.0889194 -0.160217 26 102 204
0.025865 0.0906495 0.0389854 26 102 204
-0.0272329 0.0768707 -0.155939 26 102 204
-0.167013 0.0237752 0.135982 26 102 204
0.0407421 0.109862 -0.0956455 26 102 204
0.0296958 0.101732 0.0783492 26 102 204
-0.145557 0.0476589 0.133264 26 102 204
0.0329739 0.105649 -0.0849132 26 102 204
-0.0577591 0.0864627 -0.160432 26 102 204
0.0502931 0.117415 -0.150845 26 102 204
0.0234786 0.109214 0.0942138 26 102 204
-0.21176 0.0256005 -0.0906382 26 102 204
0.00187844 0.111067 -0.0981992 26 102 204
0.029705 0.122125 -0.0290969 26 102 204
-0.218372 0.0271669 -0.0161869 26 102 204
0.0359664 0.124102 -0.128157 26 102 204
0.0475917 0.124039 0.111216 26 102 204
-0.207314 0.03789 0.0310745 26 102 204
0.0292601 0.120517 -0.0997697 26 102 204
0.0824697 0.150295 0.093031 26 102 204
0.0285589 0.122066 0.13255 26 102 204
-0.0326605 0.0995552 0.146973 26 102 204
0.00708282 0.112692 0.0812963 26 102 204
-0.0722984 0.0871304 -0.156622 26 102 204
-0.00456075 0.112101 0.0623394 26 102 204
0.0744995 0.137618 -0.133687 26 102 204
0.00895778 0.123266 0.0294877 26 102 204
-0.0961781 0.081776 -0.162438 26 102 204
0.0242411 0.124313 -0.148361 26 102 204
-0.172467 0.0554682 -0.14527 26 102 204
-0.211326 0.0415725 -0.0316128 26 102 204
0.0424862 0.134406 -0.125464 26 102 204
-0.213322 0.0413141 -0.0470383 26 102 204
0.0770879 0.151141 -0.146557 26 102 204
0.000450262 0.121795 -0.065275 26 102 204
0.0322948 0.132066 0.137937 26 102 204
0.00984167 0.135897 0.134864 26 102 204
0.0100792 0.134783 -0.00445116 26 102 204
-0.137211 0.0850012 0.157549 26 102 204
0.0178358 0.138011 0.125119 26 102 204
0.0104198 0.136088 -0.00229871 26 102 204
-0.122524 0.0851581 0.150111 26 102 204
0.014711 0.142721 0.110059 26 102 204
-0.00298713 0.136291 -0.14257 26 102 204
-0.104597 0.100262 0.128574 26 102 204
-0.0120858 0.134235 -0.055047 26 102 204
-0.100401 0.0968364 0.160956 26 102 204
0.0145013 0.148676 -0.0474192 26 102 204
-0.102689 0.101425 0.14748 26 102 204
0.0562947 0.165867 -0.15392 26 102 204
-0.0702932 0.112323 0.144584 26 102 204
-0.00501867 0.151732 0.0988319 26 102 204
-0.178537 0.0852232 -0.119544 26 102 204
-0.0529073 0.133757 -0.152516 26 102 204
-0.180598 0.0893529 0.122617 26 102 204
0.0178819 0.160136 0.0567737 26 102 204
0.0149467 0.159544 -0.0734435 26 102 204
-0.176023 0.0943518 0.136323 26 102 204
0.00976217 0.159675 -0.038437 26 102 204
-0.16739 0.0992051 -0.157889 26 102 204
-0.157256 0.0998728 -0.0910878 26 102 204
-0.20298 0.0847683 0.0651344 26 102 204
-0.16924 0.104406 0.0969684 26 102 204
0.0205075 0.169684 0.0585011 26 102 204
-0.168324 0.0996838 0.104808 26 102 204
-0.191178 0.094776 0.0201476 26 102 204
0.00490042 0.168128 0.0905281 26 102 204
-0.170677 0.100914 0.131747 26 102 204
0.0807751 0.192043 -0.146402 26 102 204
-0.174775 0.101011 -0.0321619 26 102 204
-0.18114 0.101883 -0.0627891 26 102 204
-0.045581 0.153515 0.157407 26 102 204
-0.0388692 0.15663 0.158623 26 102 204
-0.167783 0.127035 -0.124135 26 102 204
-0.15303 0.114463 -0.142844 26 102 204
0.0253543 0.181481 0.137502 26 102 204
0.0410904 0.192829 0.0441779 26 102 204
0.0109489 0.178882 -0.150192 26 102 204
-0.176803 0.107891 0.0467817 26 102 204
-0.00364331 0.16988 -0.144951 26 102 204
0.0169722 0.181896 -0.0879741 26 102 204
0.0273917 0.18569 0.0532259 26 102 204
-0.173697 0.112483 0.121006 26 102 204
-0.190675 0.110729 0.0604396 26 102 204
-0.129416 0.134704 -0.156066 26 102 204
-0.173001 0.115905 0.0974877 26 102 204
-0.0125317 0.178336 -0.129292 26 102 204
0.00684178 0.187504 -0.0739163 26 102 204
-0.00642681 0.177852 0.153486 26 102 204
0.00955206 0.188514 0.137216 26 102 204
0.0121705 0.194891 -0.130727 26 102 204
-0.164819 0.122618 0.129249 26 102 204
0.0188088 0.196986 -0.0974913 26 102 204
-0.0947873 0.152447 -0.150638 26 102 204
0.0414042 0.210491 0.105459 26 102 204
-0.180916 0.124374 0.110443 26 102 204
-0.192481 0.123534 -0.0715011 26 102 204
-0.14367 0.135026 0.13859 26 102 204
0.0309426 0.204368 0.0357742 26 102 204
-0.170244 0.128458 -0.15252 26 102 204
-0.17117 0.134316 -0.0108216 26 102 204
-0.0957743 0.156677 0.14916 26 102 204
-0.171288 0.132227 -0.0681811 26 102 204
-0.164529 0.132968 0.137921 26 102 204
-0.167745 0.133257 0.0818982 26 102 204
-0.144772 0.144046 0.129852 26 102 204
0.0334078 0.206438 -0.140538 26 102 204
0.02586 0.209258 -0.0114922 26 102 204
-0.167502 0.132579 0.0944326 26 102 204
-0.151813 0.139631 0.0895596 26 102 204
-0.175715 0.143037 0.037729 26 102 204
-0.166683 0.139907 -0.0119665 26 102 204
0.141724 0.190928 -0.0309343 26 102 204
0.0217115 0.211399 0.136579 26 102 204
-0.15244 0.147098 0.0483908 26 102 204
-0.165153 0.144513 -0.0793645 26 102 204
-0.152597 0.147559 0.0131629 26 102 204
-0.135522 0.153519 0.131004 26 102 204
-0.100867 0.168837 -0.143803 26 102 204
-0.00798968 0.202 -0.0552505 26 102 204
-0.134535 0.163471 0.0260849 26 102 204
-0.13637 0.160975 -0.148363 26 102 204
-0.127062 0.16301 0.0964805 26 102 204
-0.0694911 0.185898 -0.142222 26 102 204
-0.0642818 0.188985 -0.142038 26 102 204
-0.133519 0.16186 -0.00566358 26 102 204
-0.0544366 0.189903 -0.0862874 26 102 204
-0.0405568 0.198035 -0.0736305 26 102 204
-0.138363 0.16486 -0.0761676 26 102 204
-0.0125437 0.20871 0.101045 26 102 204
-0.0835212 0.186191 -0.10067 26 102 204
-0.0406047 0.207708 -0.13649 26 102 204
-0.00128547 0.216781 -0.146516 26 102 204
0.0115069 0.221627 -0.141395 26 102 204
-0.0132707 0.212919 0.119931 26 102 204
-0.00264596 0.217866 0.106998 26 102 204
-0.0477475 0.206722 -0.139081 26 102 204
0.0128358 0.226508 -0.139455 26 102 204
0.0353595 0.234832 0.135814 26 102 204
0.00384263 0.225083 0.136854 26 102 204
-0.0182273 0.219696 0.135454 26 102 204
-0.135482 0.176472 0.107501 26 102 204
-0.0087582 0.222752 0.131342 26 102 204
-0.153727 0.167587 -0.0432769 26 102 204
0.000540934 0.234344 0.112431 26 102 204
0.0143953 0.232905 -0.0301193 26 102 204
0.0132593 0.237987 -0.070138 26 102 204
0.00307215 0.235603 0.13929 26 102 204
-0.145395 0.189593 -0.0944168 26 102 204
-0.0520242 0.212337 -0.112729 26 102 204
-0.0631322 0.210564 -0.142775 26 102 204
-0.0858078 0.201472 -0.106803 26 102 204
0.000267514 0.238861 -0.148231 26 102 204
-0.136404 0.1907 0.113533 26 102 204
-0.138742 0.18252 0.0259385 26 102 204
-0.0834874 0.210749 -0.146962 26 102 204
-0.0147009 0.239027 -0.150118 26 102 204
-0.0590281 0.220382 0.130439 26 102 204
-0.00934601 0.237269 0.0352107 26 102 204
-0.0112685 0.237447 -0.0712997 26 102 204
-0.0346658 0.226118 -0.0791407 26 102 204
-0.0200242 0.236625 0.0986534 26 102 204
-0.119227 0.197271 0.135358 26 102 204
-0.0794454 0.214702 -0.0612101 26 102 204
0.0254817 0.254662 0.133332 26 102 204
0.0315797 0.25799 0.0758944 26 102 204
0.0400219 0.260531 -0.138191 26 102 204
0.0786036 0.279352 0.143281 26 102 204
-0.0638858 0.225504 -0.137402 26 102 204
-0.0274601 0.238347 -0.0456267 26 102 204
0.0838717 0.280122 0.119922 26 102 204
0.00745227 0.253582 -0.139821 26 102 204
0.0728248 0.277357 0.115229 26 102 204
0.0932091 0.289335 -0.163783 26 102 204
-0.142195 0.197536 0.0908222 26 102 204
-0.0847465 0.220644 0.0981201 26 102 204
0.00818677 0.256583 -0.110207 26 102 204
-0.148736 0.198972 0.0481621 26 102 204
0.0270583 0.266388 -0.106594 26 102 204
-0.0836496 0.222957 -0.141168 26 102 204
-0.117533 0.202743 0.0944543 26 102 204
-0.120185 0.208634 0.132442 26 102 204
0.0479516 0.276554 -0.14219 26 102 204
0.06126 0.281051 -0.116221 26 102 204
0.00170469 0.260958 -0.15812 26 102 204
0.0735792 0.290555 0.134845 26 102 204
0.0264389 0.271406 0.0969935 26 102 204
0.0121674 0.271303 0.139399 26 102 204
0.0913525 0.296921 0.127555 26 102 204
-0.064695 0.239901 0.142177 26 102 204
0.0752368 0.295973 0.147831 26 102 204
0.0396562 0.285649 0.134012 26 102 204
0.0277443 0.282631 0.102418 26 102 204
-0.0757914 0.242024 -0.108437 26 102 204
0.0225252 0.278869 -0.0618555 26 102 204
-0.0888764 0.238861 0.136865 26 102 204
0.0722322 0.300318 -0.134111 26 102 204
0.0205683 0.27724 -0.148612 26 102 204
-0.0182539 0.266816 0.147148 26 102 204
0.0212757 0.286303 0.134178 26 102 204
-0.00375849 0.273666 -0.143292 26 102 204
-0.00383093 0.271967 -0.117592 26 102 204
0.0145977 0.280926 -0.117961 26 102 204
0.0788084 0.308731 0.160871 26 102 204
-0.0897139 0.24199 0.099763 26 102 204
-0.174763 0.209839 0.0298667 26 102 204
-0.000626356 0.286436 0.157254 26 102 204
0.00393863 0.286707 -0.039129 26 102 204
-0.0028015 0.284977 -0.133904 26 102 204
-0.0983388 0.249191 -0.151154 26 102 204
-0.0674908 0.261825 0.133004 26 102 204
-0.0240349 0.283873 0.105597 26 102 204
-0.00506901 0.287128 -0.152469 26 102 204
0.108624 0.329592 0.136655 26 102 204
0.0500177 0.313767 0.135077 26 102 204
0.00102507 0.303496 -0.0639933 26 102 204
0.116522 0.339875 -0.14095 26 102 204
0.0903674 0.332604 0.143135 26 102 204
-0.106212 0.260453 0.0364874 26 102 204
0.10555 0.339576 -0.133914 26 102 204
0.0111433 0.304868 -0.0612457 26 102 204
0.0362669 0.315225 0.122042 26 102 204
0.00558887 0.292263 -0.0530815 26 102 204
-0.0373533 0.29841 0.136067 26 102 204
-0.0289365 0.291589 -0.146418 26 102 204
-0.0903859 0.272955 -0.134242 26 102 204
0.112067 0.349171 -0.149388 26 102 204
0.103682 0.333481 0.154169 26 102 204
0.0787644 0.342579 0.153955 26 102 204
0.0450545 0.329558 -0.154769 26 102 204
-0.0396184 0.303111 -0.136969 26 102 204
0.0603494 0.336631 0.139882 26 102 204
0.0471685 0.328688 -0.164908 26 102 204
-0.0533418 0.295683 0.151725 26 102 204
-0.148673 0.258222 -0.0779592 26 102 204
-0.0393878 0.307877 0.15469 26 102 204
-0.12161 0.279437 -0.140713 26 102 204
0.0301244 0.329623 0.127569 26 102 204
-0.131105 0.275047 0.00359314 26 102 204
0.105527 0.363214 -0.139803 26 102 204
0.00650315 0.325273 -0.148049 26 102 204
-0.0343488 0.316873 -0.131173 26 102 204
-0.115243 0.286784 -0.0618082 26 102 204
0.0112527 0.332819 0.151678 26 102 204
-0.137214 0.275518 -0.00270888 26 102 204
-0.111371 0.290568 0.126926 26 102 204
-0.117242 0.303377 -0.146357 26 102 204
-0.0778274 0.302573 -0.11681 26 102 204
-0.0794798 0.313566 0.034414 26 102 204
-0.0968729 0.29887 -0.133783 26 102 204
-0.153744 0.275857 0.0246195 26 102 204
-0.138639 0.286963 0.0103121 26 102 204
-0.0688982 0.315095 -0.144909 26 102 204
-0.110333 0.29865 -0.0575023 26 102 204
-0.133448 0.291341 0.0618203 26 102 204
-0.111185 0.299216 0.132501 26 102 204
-0.0335523 0.332904 0.0413422 26 102 204
-0.0427194 0.327219 0.128196 26 102 204
-0.0593626 0.326709 -0.105105 26 102 204
-0.0332205 0.337671 0.0524263 26 102 204
0.0718068 0.372841 -0.139352 26 102 204
-0.121753 0.308897 -0.142007 26 102 204
-0.0405141 0.333847 -0.144395 26 102 204
-0.0611065 0.328387 -0.150366 26 102 204
-0.127969 0.304183 -0.055938 26 102 204
-0.0860643 0.343333 -0.11356 26 102 204
0.0710207 0.376473 -0.13795 26 102 204
-0.0851617 0.331956 0.130235 26 102 204
-0.0479323 0.342552 -0.151515 26 102 204
-0.0683083 0.331974 -0.130028 26 102 204
-0.123975 0.314942 0.00263918 26 102 204
-0.152635 0.30567 -0.0535506 26 102 204
-0.0180494 0.354398 0.136728 26 102 204
-0.124 0.319513 -0.0949404 26 102 204
-0.127688 0.302324 0.0769649 26 102 204
-0.14417 0.360326 -0.142659 26 102 204
-0.117921 0.325219 0.137382 26 102 204
-0.0348475 0.354264 -0.0159398 26 102 204
-0.145836 0.311713 0.0577792 26 102 204
-0.151119 0.349158 0.154631 26 102 204
-0.127824 0.318735 0.0251192 26 102 204
0.0681314 0.399271 -0.125753 26 102 204
-0.122951 0.327472 0.0194658 26 102 204
-0.0295478 0.372057 0.141332 26 102 204
0.00624935 0.381361 -0.150906 26 102 204
-0.0865719 0.345763 0.0974959 26 102 204
-0.150156 0.32352 0.108705 26 102 204
0.0468245 0.398059 0.147256 26 102 204
-0.160458 0.322859 0.063047 26 102 204
-0.0500383 0.369482 -0.144538 26 102 204
-0.140336 0.331606 -0.017354 26 102 204
-0.15749 0.325914 -0.089377 26 102 204
-0.035532 0.37174 0.1332 26 102 204
-0.0474847 0.370223 -0.134054 26 102 204
-0.0296073 0.379321 -0.109646 26 102 204
-0.0501413 0.368296 -0.140732 26 102 204
-0.112667 0.350317 -0.00775346 26 102 204
-0.0887795 0.358691 0.117242 26 102 204
-0.0886719 0.369149 0.133961 26 102 204
-0.111706 0.355785 0.0889109 26 102 204
-0.118941 0.349911 -0.129053 26 102 204
0.0471907 0.41272 -0.151754 26 102 204
0.0487405 0.414421 -0.136752 26 102 204
-0.161635 0.34103 0.140875 26 102 204
-0.0965415 0.36559 -0.141739 26 102 204
-0.139368 0.343368 -0.123477 26 102 204
0.0383641 0.412148 0.12884 26 102 204
-0.124721 0.35595 -0.0931449 26 102 204
-0.133038 0.352541 -0.0758647 26 102 204
0.0408948 0.417412 0.142086 26 102 204
-0.110409 0.365513 -0.128815 26 102 204
-0.128328 0.365073 0.0723959 26 102 204
-0.150192 0.346505 0.0249625 26 102 204
0.0121917 0.415268 0.130382 26 102 204
-0.155029 0.355188 0.0289624 26 102 204
-0.141954 0.355834 -0.00258195 26 102 204
-0.148164 0.354778 -0.152558 26 102 204
-0.119055 0.370238 -0.110168 26 102 204
-0.119791 0.366853 -0.089414 26 102 204
-0.131903 0.365178 -0.113282 26 102 204
0.00808132 0.412459 -0.126676 26 102 204
0.0312985 0.431539 0.123166 26 102 204
-0.0905747 0.385142 0.130144 26 102 204
-0.0388215 0.405604 -0.144717 26 102 204
-0.034319 0.412098 0.12209 26 102 204
-0.132104 0.369767 0.0181354 26 102 204
-0.130662 0.369881 -0.0667546 26 102 204
-0.105477 0.384472 0.140814 26 102 204
0.00142656 0.427277 -0.120162 26 102 204
-0.132679 0.376703 0.124112 26 102 204
-0.144954 0.372417 -0.0991367 26 102 204
-0.133054 0.378688 -0.117553 26 102 204
-0.128827 0.383096 0.143372 26 102 204
-0.162481 0.372343 -0.143422 26 102 204
-0.0419533 0.413878 0.119485 26 102 204
-0.153131 0.371003 -0.0201643 26 102 204
-0.137732 0.380682 -0.0459184 26 102 204
-0.121597 0.381357 -0.00533295 26 102 204
-0.1131 0.381904 -0.0878947 26 102 204
-0.14852 0.379785 -0.0056984 26 102 204
-0.0114124 0.428593 0.0834584 26 102 204
-0.156177 0.383686 0.119028 26 102 204
-0.12023 0.390771 0.114779 26 102 204
-0.144899 0.385106 0.122507 26 102 204
-0.0642207 0.413099 0.0489294 26 102 204
-0.156151 0.380802 0.056938 26 102 204
-0.165902 0.375634 -0.0299823 26 102 204
-0.0514182 0.42164 -0.119157 26 102 204
-0.192952 0.365878 0.142886 26 102 204
-0.0875849 0.412377 -0.103139 26 102 204
-0.0997629 0.409932 0.0683381 26 102 204
-0.0965394 0.409832 -0.139465 26 102 204
-0.134506 0.393566 -0.0158008 26 102 204
-0.116981 0.398586 -0.115867 26 102 204
-0.11735 0.402616 -0.0099171 26 102 204
-0.156534 0.389337 0.125849 26 102 204
-0.155377 0.393255 -0.0983626 26 102 204
-0.144049 0.394188 0.121294 26 102 204
-0.0575823 0.424811 0.100643 26 102 204
-0.0954243 0.412536 -0.00793974 26 102 204
-0.0580966 0.426388 0.0943714 26 102 204
-0.0606086 0.43902 -0.0320408 26 102 204
-0.0866068 0.422899 0.100792 26 102 204
-0.056426 0.432275 -0.0977004 26 102 204
-0.0649751 0.430864 0.0922795 26 102 204
-0.141127 0.406726 -0.16125 26 102 204
-0.0582496 0.435976 -0.0325784 26 102 204
-0.0834617 0.432396 0.0375742 26 102 204
-0.101141 0.428334 -0.016432 26 102 204
-0.0866631 0.428399 -0.0428023 26 102 204
-0.0931119 0.426032 0.0869192 26 102 204
-0.132791 0.424536 0.0901474 26 102 204
-0.168277 0.411244 -0.0444004 26 102 204
-0.138691 0.430671 -0.0744877 26 102 204
-0.180808 0.411269 0.134221 26 102 204
-0.0652634 0.454039 -0.0989177 26 102 204
-0.108404 0.449088 0.0656788 26 102 204
-0.116301 0.437031 -0.135657 26 102 204
-0.137723 0.432215 0.0455319 26 102 204
-0.072639 0.447119 -0.138611 26 102 204
-0.106392 0.442513 -0.143995 26 102 204
-0.055436 0.460991 0.128958 26 102 204
-0.114438 0.44129 0.0233978 26 102 204
-0.0750492 0.433712 -0.0604171 26 102 204
-0.108617 0.445986 0.103029 26 102 204
-0.113729 0.446318 0.0312408 26 102 204
-0.105462 0.448086 0.113488 26 102 204
-0.125106 0.438949 -0.143339 26 102 204
-0.0843686 0.457809 0.0510457 26 102 204
-0.0544051 0.467147 0.0990751 26 102 204
-0.149685 0.431069 -0.131958 26 102 204
-0.153053 0.43698 -0.0402342 26 102 204
-0.144512 0.436798 -0.111153 26 102 204
-0.10907 0.444137 -0.0244288 26 102 204
-0.111308 0.449956 0.133453 26 102 204
-0.141544 0.437086 0.0528016 26 102 204
-0.123298 0.440263 -0.0823949 26 102 204
-0.0752863 0.46082 -0.0893952 26 102 204
-0.100562 0.452327 -0.0564438 26 102 204
-0.0774758 0.46173 -0.113897 26 102 204
-0.141112 0.442566 0.0444484 26 102 204
-0.109038 0.451009 0.0724116 26 102 204
-0.086865 0.467006 -0.155936 26 102 204
-0.127479 0.446596 -0.0133271 26 102 204
-0.0650057 0.47246 0.0421737 26 102 204
-0.140764 0.445906 -0.0822097 26 102 204
-0.119715 0.456037 0.114585 26 102 204
-0.0802281 0.467826 0.0834202 26 102 204
-0.14772 0.442438 0.111077 26 102 204
-0.0941691 0.468362 0.0603384 26 102 204
-0.0854962 0.466886 0.057161 26 102 204
-0.110612 0.457487 -0.0228319 26 102 204
-0.0729847 0.485279 0.0963305 26 102 204
-0.118379 0.454424 -0.087848 26 102 204
-0.134563 0.463245 -0.0432094 26 102 204
-0.157095 0.451732 -0.0920171 26 102 204
-0.180868 0.437696 -0.100663 26 102 204
-0.123134 0.458702 0.0596494 26 102 204
-0.129185 0.458704 0.127965 26 102 204
-0.102177 0.468039 0.0499425 26 102 204
-0.113816 0.46374 0.00576099 26 102 204
-0.10148 0.471705 0.0461935 26 102 204
-0.0946657 0.473543 0.134756 26 102 204
-0.084776 0.478198 0.0540215 26 102 204
