ply
format ascii 1.0
comment Created by Open3D
element vertex 1024
property double x
property double y
property double z
property uchar red
property uchar green
property uchar blue
end_header
-0.376458 -0.303376 -0.147186 26 102 204
-0.346424 -0.30217 -0.156258 26 102 204
-0.295382 -0.0796547 -0.148053 26 102 204
-0.300608 -0.126005 -0.149894 26 102 204
-0.305954 -0.188031 -0.157762 26 102 204
-0.230545 0.136744 -0.151983 26 102 204
-0.261355 0.0444276 -0.151364 26 102 204
-0.192914 0.251751 -0.154137 26 102 204
-0.247353 0.130857 -0.150165 26 102 204
-0.219609 0.145973 -0.148733 26 102 204
-0.237436 0.111305 -0.147147 26 102 204
-0.22041 0.189001 -0.150522 26 102 204
-0.307633 -0.147524 -0.152814 26 102 204
-0.213631 0.185123 -0.146253 26 102 204
-0.296596 -0.173219 -0.149949 26 102 204
-0.304608 -0.202838 -0.149746 26 102 204
-0.222745 0.169894 -0.160564 26 102 204
-0.288749 -0.154704 -0.14706 26 102 204
-0.298371 -0.24726 -0.14638 26 102 204
-0.308177 -0.187473 -0.150454 26 102 204
-0.338019 -0.25447 -0.1512 26 102 204
-0.266195 -0.13675 -0.147559 26 102 204
-0.2586 -0.0359875 -0.149088 26 102 204
-0.287241 -0.056657 -0.150828 26 102 204
-0.243951 0.0241778 -0.148739 26 102 204
-0.176553 0.285813 -0.147305 26 102 204
-0.277189 -0.254914 -0.148285 26 102 204
-0.266538 -0.0806721 -0.152656 26 102 204
-0.289243 -0.057704 -0.146412 26 102 204
-0.292698 -0.195432 -0.151764 26 102 204
-0.144296 0.331971 -0.143902 26 102 204
-0.219981 -0.0807749 -0.150167 26 102 204
-0.161968 0.129308 -0.139548 26 102 204
-0.24526 -0.104356 -0.150397 26 102 204
-0.284068 -0.269302 -0.143851 26 102 204
-0.240305 0.0221753 -0.150577 26 102 204
-0.213777 0.0949521 -0.148745 26 102 204
-0.206627 0.0837929 -0.148179 26 102 204
-0.204552 0.0159191 -0.148972 26 102 204
-0.260259 -0.133261 -0.15303 26 102 204
-0.143451 0.385624 -0.148323 26 102 204
-0.241581 -0.147869 -0.149957 26 102 204
-0.212981 0.25735 -0.150432 26 102 204
-0.20602 -0.109447 -0.15186 26 102 204
-0.390198 -0.428469 -0.15156 26 102 204
-0.36233 -0.368908 -0.135618 26 102 204
-0.304861 0.0121133 -0.150486 26 102 204
-0.130665 0.168334 -0.145103 26 102 204
-0.182237 8.37806e-05 -0.147462 26 102 204
-0.249121 0.260191 -0.148397 26 102 204
-0.165781 0.178125 -0.147632 26 102 204
-0.152373 0.203522 -0.149121 26 102 204
-0.278907 -0.362923 -0.152747 26 102 204
-0.292179 0.00390339 -0.151287 26 102 204
-0.14035 0.303341 -0.146623 26 102 204
-0.198655 0.131933 -0.145488 26 102 204
-0.25125 -0.057388 -0.145951 26 102 204
-0.339867 0.00357941 -0.144295 26 102 204
-0.134168 0.254891 -0.14411 26 102 204
-0.16575 0.1193 -0.143975 26 102 204
-0.229783 0.281604 -0.143241 26 102 204
-0.174885 0.122414 -0.146073 26 102 204
-0.290738 0.021094 -0.144228 26 102 204
-0.260776 -0.357773 -0.143418 26 102 204
-0.201299 -0.0937788 -0.141454 26 102 204
-0.200943 -0.0986891 -0.151141 26 102 204
-0.227439 -0.0304826 -0.140046 26 102 204
-0.165937 0.0525114 -0.141934 26 102 204
-0.189197 0.0218231 -0.146651 26 102 204
-0.23903 -0.208121 -0.141351 26 102 204
-0.232213 -0.0976783 -0.131661 26 102 204
-0.258606 -0.0813944 -0.141719 26 102 204
-0.15705 0.0679068 -0.140648 26 102 204
-0.278627 -0.339301 -0.140645 26 102 204
-0.209224 -0.110201 -0.139672 26 102 204
-0.354387 -0.221405 -0.146766 26 102 204
-0.196869 -0.096821 -0.142229 26 102 204
-0.167126 0.0664045 -0.145966 26 102 204
-0.257689 -0.341088 -0.141307 26 102 204
-0.14743 0.0390461 -0.13417 26 102 204
-0.166324 0.0181509 -0.141809 26 102 204
-0.175552 -0.0793866 -0.139166 26 102 204
-0.176745 -0.112246 -0.140062 26 102 204
-0.110619 0.329348 -0.138911 26 102 204
-0.133504 0.135197 -0.141397 26 102 204
-0.301188 -0.104716 -0.139657 26 102 204
-0.361913 -0.25479 -0.140649 26 102 204
-0.380475 -0.122809 -0.140406 26 102 204
-0.155782 0.0486057 -0.141202 26 102 204
-0.152645 0.245338 -0.13783 26 102 204
-0.128739 0.18479 -0.138069 26 102 204
-0.183402 -0.154934 -0.137277 26 102 204
-0.118467 0.335127 -0.135101 26 102 204
-0.127603 0.33832 -0.144345 26 102 204
-0.299422 -0.23272 -0.136203 26 102 204
-0.070889 0.313917 -0.137351 26 102 204
-0.168767 -0.0738448 -0.137962 26 102 204
-0.360212 -0.114142 -0.132897 26 102 204
-0.133976 0.0837419 -0.132073 26 102 204
-0.329182 -0.304762 -0.134714 26 102 204
-0.239642 -0.325381 -0.127595 26 102 204
-0.130293 0.360201 -0.13472 26 102 204
-0.192075 -0.202449 -0.136963 26 102 204
-0.183797 0.276306 -0.132051 26 102 204
-0.147148 -0.0738827 -0.134124 26 102 204
-0.106606 0.134108 -0.134541 26 102 204
-0.147706 0.0113611 -0.133152 26 102 204
-0.132613 0.085905 -0.133213 26 102 204
-0.113858 0.111804 -0.130762 26 102 204
-0.166535 -0.174893 -0.132073 26 102 204
-0.0928688 0.211408 -0.129965 26 102 204
-0.150184 -0.0434114 -0.134497 26 102 204
-0.190356 -0.202853 -0.131773 26 102 204
-0.197857 -0.182715 -0.127059 26 102 204
-0.0831268 0.382368 -0.133562 26 102 204
-0.15348 -0.0752172 -0.133547 26 102 204
-0.0986462 0.177297 -0.130084 26 102 204
-0.0370041 0.374498 -0.131273 26 102 204
-0.125146 0.192733 -0.131486 26 102 204
-0.289596 -0.00258161 -0.130875 26 102 204
-0.108299 0.0151209 -0.132179 26 102 204
-0.179606 -0.227538 -0.133829 26 102 204
-0.0578152 0.232499 -0.128993 26 102 204
-0.30846 -0.247007 -0.125097 26 102 204
-0.0730827 0.251865 -0.128268 26 102 204
-0.159195 -0.306008 -0.128788 26 102 204
-0.0502394 0.347306 -0.12724 26 102 204
-0.0614471 0.226753 -0.129591 26 102 204
-0.0961246 0.03611 -0.130257 26 102 204
-0.200663 -0.34966 -0.125803 26 102 204
-0.0448635 0.329081 -0.126495 26 102 204
-0.248095 0.214295 -0.127854 26 102 204
-0.0202732 0.239166 -0.128427 26 102 204
-0.287706 -0.345794 -0.1254 26 102 204
-0.0431273 0.206245 -0.12391 26 102 204
-0.217695 0.282756 -0.126182 26 102 204
-0.160349 -0.258402 -0.125893 26 102 204
-0.0223089 0.277847 -0.123944 26 102 204
-0.0749649 0.0990837 -0.125522 26 102 204
-0.177371 -0.213609 -0.124748 26 102 204
-0.165912 -0.152011 -0.126941 26 102 204
0.068584 0.35792 -0.122622 26 102 204
-0.00737869 0.301652 -0.119532 26 102 204
-0.120703 -0.255568 -0.122969 26 102 204
-0.0258461 0.0514798 -0.123623 26 102 204
-0.0182002 0.224821 -0.121629 26 102 204
-0.0762811 0.0771123 -0.123891 26 102 204
-0.189762 -0.361646 -0.124006 26 102 204
-0.0890145 -0.045034 -0.123786 26 102 204
-0.068778 -0.0117102 -0.127053 26 102 204
-0.038446 0.344362 -0.124592 26 102 204
-0.0907727 0.0421429 -0.121131 26 102 204
-0.0439335 0.190652 -0.121259 26 102 204
-0.131506 -0.0683325 -0.120748 26 102 204
-0.0760187 0.0928378 -0.119402 26 102 204
-0.0884864 0.0211063 -0.123268 26 102 204
-0.0450319 0.114773 -0.12009 26 102 204
-0.0824246 -0.0509838 -0.121027 26 102 204
-0.0456821 0.140616 -0.120652 26 102 204
-0.0778193 -0.0924711 -0.121965 26 102 204
-0.0403466 0.0641035 -0.122534 26 102 204
-0.0465283 0.289014 -0.130127 26 102 204
-0.00318878 0.229712 -0.119512 26 102 204
-0.0228616 0.1508 -0.11912 26 102 204
-0.0231451 0.268229 -0.11884 26 102 204
-0.0639524 -0.0557901 -0.124265 26 102 204
0.0772406 0.304302 -0.122496 26 102 204
-0.337157 -0.241552 -0.120696 26 102 204
-0.0600846 -0.105988 -0.117504 26 102 204
-0.29293 0.0262989 -0.118695 26 102 204
-0.215743 0.386786 -0.117982 26 102 204
-0.0559816 -0.223089 -0.120736 26 102 204
0.0136272 0.309921 -0.116084 26 102 204
-0.224951 0.295996 -0.117702 26 102 204
-0.294417 -0.121076 -0.116222 26 102 204
-0.127606 -0.371109 -0.116386 26 102 204
-0.309519 -0.228405 -0.116633 26 102 204
-0.102899 0.178171 -0.111425 26 102 204
0.014003 0.0999427 -0.121106 26 102 204
-0.257743 -0.090633 -0.117198 26 102 204
-0.252876 -0.219969 -0.119305 26 102 204
-0.0647655 -0.252858 -0.119561 26 102 204
-0.188907 0.114261 -0.114409 26 102 204
-0.18402 0.245616 -0.112359 26 102 204
0.0845867 0.21803 -0.114045 26 102 204
-0.0223873 -0.0347533 -0.11874 26 102 204
0.142352 0.313367 -0.112602 26 102 204
-0.137362 0.315373 -0.123107 26 102 204
0.135816 0.1944 -0.11162 26 102 204
0.0333463 0.264269 -0.111163 26 102 204
0.0172087 0.0613403 -0.112103 26 102 204
-0.287219 -0.202088 -0.112236 26 102 204
-0.322594 -0.202801 -0.112248 26 102 204
-0.162748 0.227817 -0.109651 26 102 204
-0.299856 -0.260173 -0.111297 26 102 204
-0.229388 0.0229317 -0.110906 26 102 204
-0.110424 0.348084 -0.114391 26 102 204
-0.227034 -0.185257 -0.108894 26 102 204
-0.230208 -0.300131 -0.109438 26 102 204
-0.180695 0.14975 -0.110174 26 102 204
-0.139739 0.0489929 -0.111185 26 102 204
-0.152701 -0.0868803 -0.115422 26 102 204
-0.261628 0.130496 -0.112414 26 102 204
-0.106169 0.0924101 -0.107342 26 102 204
-0.0342906 -0.23057 -0.102736 26 102 204
0.101092 0.304509 -0.104209 26 102 204
-0.000931624 0.289976 -0.101788 26 102 204
-0.147551 -0.207698 -0.103202 26 102 204
0.0405642 -0.00860888 -0.109353 26 102 204
-0.13433 0.00826479 -0.106937 26 102 204
-0.110969 0.257832 -0.113755 26 102 204
-0.0572495 0.307489 -0.103905 26 102 204
0.104813 0.205996 -0.103024 26 102 204
0.0044546 -0.0129547 -0.109667 26 102 204
-0.00247179 -0.164891 -0.100848 26 102 204
-0.0461285 0.177133 -0.11131 26 102 204
0.0705971 0.108076 -0.103405 26 102 204
-0.0350801 0.144554 -0.103664 26 102 204
-0.0357957 0.110571 -0.0900986 26 102 204
-0.0582993 -0.0595441 -0.104805 26 102 204
-0.106158 0.020612 -0.0854745 26 102 204
0.0258907 0.194077 -0.102721 26 102 204
0.061324 0.207318 -0.0983738 26 102 204
-0.123726 0.0914551 -0.104481 26 102 204
-0.0959931 0.0267256 -0.100137 26 102 204
-0.0544251 0.208099 -0.0991534 26 102 204
-0.136048 -0.0420844 -0.100432 26 102 204
-0.166424 0.266976 -0.105081 26 102 204
-0.0478925 0.110973 -0.101354 26 102 204
-0.044217 0.110742 -0.0972794 26 102 204
0.0108551 0.0176514 -0.103716 26 102 204
-0.0390821 -0.191781 -0.0979268 26 102 204
0.0172506 0.104327 -0.0986187 26 102 204
0.0113944 -0.150301 -0.0911645 26 102 204
0.0074704 0.0703283 -0.102424 26 102 204
0.0133299 0.069581 -0.100663 26 102 204
0.0233693 0.0318999 -0.107359 26 102 204
0.0212104 0.110989 -0.0986687 26 102 204
0.104831 0.222653 -0.0998264 26 102 204
0.0623084 0.0895595 -0.100113 26 102 204
0.0852507 0.205628 -0.0924172 26 102 204
0.0550067 0.0147953 -0.100578 26 102 204
0.0970442 0.151729 -0.0989504 26 102 204
0.179886 0.265516 -0.0990668 26 102 204
0.133844 0.193605 -0.0928835 26 102 204
0.160599 0.24607 -0.105942 26 102 204
0.147924 0.199992 -0.107135 26 102 204
0.0578386 -0.188924 -0.101445 26 102 204
0.136291 0.17144 -0.101302 26 102 204
0.175034 0.242886 -0.0970399 26 102 204
0.0838975 -0.155717 -0.104507 26 102 204
0.17277 0.230701 -0.0970016 26 102 204
0.137604 0.106418 -0.106937 26 102 204
0.149703 0.0283454 -0.101984 26 102 204
0.111378 -0.0320931 -0.101024 26 102 204
0.156203 0.000434355 -0.0910312 26 102 204
0.141025 0.182883 -0.101106 26 102 204
0.128205 -0.0296136 -0.0979097 26 102 204
0.126485 0.0923171 -0.112657 26 102 204
-0.206486 -0.259715 -0.0970725 26 102 204
-0.440449 -0.305388 -0.0936883 26 102 204
0.0595115 0.239627 -0.0932907 26 102 204
0.125876 0.0474411 -0.104712 26 102 204
0.0493313 -0.296265 -0.0940662 26 102 204
0.119562 -0.0334774 -0.0957017 26 102 204
-0.102917 0.368591 -0.101874 26 102 204
0.126852 0.0407198 -0.0991393 26 102 204
0.164653 0.176497 -0.0929121 26 102 204
0.121775 -0.0284396 -0.0975129 26 102 204
0.056868 -0.173179 -0.0939902 26 102 204
0.148095 0.158229 -0.093339 26 102 204
0.0393563 -0.303317 -0.094075 26 102 204
0.112147 -0.07283 -0.0969803 26 102 204
-0.173392 0.180241 -0.0911524 26 102 204
0.0973151 -0.108621 -0.0910962 26 102 204
0.11987 0.031873 -0.09308 26 102 204
0.133659 0.0631943 -0.0929536 26 102 204
0.138151 0.0310956 -0.094509 26 102 204
0.135154 0.0758779 -0.0957506 26 102 204
0.0344883 -0.316236 -0.0862338 26 102 204
0.124143 0.103419 -0.091134 26 102 204
0.0639616 -0.189469 -0.081361 26 102 204
-0.0174062 -0.209434 -0.0899907 26 102 204
0.0777696 -0.0984967 -0.0867237 26 102 204
-0.00543446 -0.414828 -0.0915967 26 102 204
-0.187497 0.323492 -0.0833376 26 102 204
-0.260975 0.242169 -0.0865042 26 102 204
0.10429 0.00994096 -0.104459 26 102 204
0.0810274 -0.266718 -0.0945284 26 102 204
-0.165998 0.35264 -0.0871196 26 102 204
-0.386503 -0.296303 -0.0913288 26 102 204
-0.272335 0.259059 -0.0860377 26 102 204
0.0485235 0.320373 -0.085571 26 102 204
0.0761739 -0.195116 -0.0915446 26 102 204
0.114057 0.0439487 -0.113335 26 102 204
0.135424 0.144685 -0.0920456 26 102 204
0.15093 0.151297 -0.0945611 26 102 204
0.125223 0.15111 -0.0957476 26 102 204
0.155003 0.159479 -0.097928 26 102 204
0.10712 0.024563 -0.0880866 26 102 204
0.0641247 -0.20189 -0.0856135 26 102 204
0.118445 0.0649685 -0.0970121 26 102 204
0.0631295 -0.246741 -0.0879631 26 102 204
0.0311866 -0.306753 -0.0848896 26 102 204
0.0805232 -0.158501 -0.0894043 26 102 204
0.113193 -0.0511427 -0.0820074 26 102 204
0.131395 0.10528 -0.0814521 26 102 204
-0.134719 -0.210971 -0.0842043 26 102 204
0.05493 -0.218744 -0.0953858 26 102 204
0.0965425 -0.176543 -0.0870245 26 102 204
0.175077 0.119378 -0.0830778 26 102 204
0.128755 0.0059654 -0.0832521 26 102 204
0.0530817 0.340584 -0.0796345 26 102 204
0.178042 0.329722 -0.083269 26 102 204
0.119993 0.135634 -0.0817065 26 102 204
-0.347364 -0.384976 -0.099017 26 102 204
0.189277 0.228553 -0.07728 26 102 204
-0.377018 -0.348439 -0.0898888 26 102 204
0.0478371 -0.3594 -0.0884743 26 102 204
-0.426364 -0.306281 -0.078717 26 102 204
0.021263 -0.214419 -0.0872697 26 102 204
0.0963071 0.308461 -0.0750202 26 102 204
0.147925 0.167528 -0.0775554 26 102 204
0.00839299 -0.254027 -0.0834757 26 102 204
0.116889 0.276407 -0.0764997 26 102 204
0.0206513 -0.351126 -0.0809925 26 102 204
0.045302 -0.208105 -0.0791154 26 102 204
0.186903 0.221753 -0.0839079 26 102 204
0.0135271 -0.0976746 -0.0769051 26 102 204
0.0783397 -0.140373 -0.0897055 26 102 204
0.161292 0.233405 -0.0757637 26 102 204
0.123297 0.00309236 -0.0761498 26 102 204
0.0879465 -0.0252291 -0.0837385 26 102 204
0.10162 0.001182 -0.0742715 26 102 204
0.161614 0.150695 -0.0733566 26 102 204
0.100994 0.0843553 -0.0816217 26 102 204
0.134543 0.19069 -0.0801861 26 102 204
0.0341665 -0.23039 -0.0790023 26 102 204
0.101122 0.0708633 -0.0925739 26 102 204
-0.12495 0.382238 -0.0718694 26 102 204
0.114006 -0.076765 -0.0736156 26 102 204
-0.230395 0.307795 -0.0757519 26 102 204
-0.19088 0.345289 -0.0689221 26 102 204
-0.349694 -0.342253 -0.0712538 26 102 204
-0.372703 -0.360107 -0.0799022 26 102 204
0.129912 0.118553 -0.0814569 26 102 204
0.124623 0.163769 -0.0815199 26 102 204
-0.366908 -0.285885 -0.083568 26 102 204
0.102252 0.212454 -0.0709269 26 102 204
0.0681644 -0.0458172 -0.0696688 26 102 204
0.128603 0.231577 -0.0689259 26 102 204
0.12785 0.066599 -0.0684868 26 102 204
-0.173937 0.339109 -0.0686165 26 102 204
0.139459 0.118685 -0.0758363 26 102 204
-0.401721 -0.279602 -0.0717398 26 102 204
0.0637983 -0.137676 -0.0734104 26 102 204
0.089293 -0.000620389 -0.0728254 26 102 204
0.132702 0.0388545 -0.064138 26 102 204
0.100147 0.0349456 -0.0784325 26 102 204
0.00927244 -0.162071 -0.0813306 26 102 204
0.138735 0.081464 -0.0679018 26 102 204
0.070008 -0.0857549 -0.0646621 26 102 204
0.152 0.16753 -0.0632622 26 102 204
0.0959864 0.0696538 -0.0647401 26 102 204
0.118425 0.12868 -0.0578323 26 102 204
0.0619131 -0.315523 -0.0586473 26 102 204
0.0557637 -0.211156 -0.0662572 26 102 204
0.134611 0.0196527 -0.0677686 26 102 204
0.0197273 -0.229089 -0.0648006 26 102 204
0.156342 0.269682 -0.0676395 26 102 204
0.125505 0.198517 -0.0563816 26 102 204
0.167163 0.236398 -0.0633345 26 102 204
0.141768 0.168617 -0.0586136 26 102 204
0.0665978 -0.0662803 -0.0600824 26 102 204
0.113188 0.126183 -0.0676995 26 102 204
-0.349947 -0.283446 -0.0551927 26 102 204
-0.298764 -0.274885 -0.0602725 26 102 204
0.148163 0.100058 -0.0547788 26 102 204
0.0447365 -0.209366 -0.0653905 26 102 204
0.161236 0.2674 -0.0603001 26 102 204
0.0759139 -0.0547625 -0.0526352 26 102 204
0.174046 0.222466 -0.048926 26 102 204
0.0893165 -0.326518 -0.0483438 26 102 204
0.14855 0.24313 -0.0546297 26 102 204
0.188642 0.280219 -0.0648968 26 102 204
-0.18415 0.335968 -0.0510409 26 102 204
0.151784 0.226066 -0.0529877 26 102 204
0.0853572 -0.289886 -0.0529982 26 102 204
0.0912454 -0.0781879 -0.0489542 26 102 204
0.105584 0.07467 -0.0514968 26 102 204
0.147273 0.233879 -0.0442321 26 102 204
0.12274 0.00138656 -0.0482809 26 102 204
-0.347262 -0.320036 -0.0545712 26 102 204
0.149025 0.230394 -0.0542036 26 102 204
0.101476 0.00694745 -0.0463488 26 102 204
0.0956727 -0.176707 -0.0446673 26 102 204
0.1464 0.264328 -0.0443897 26 102 204
0.0416334 -0.167985 -0.0498099 26 102 204
0.189579 0.297631 -0.0406709 26 102 204
-0.00155225 -0.23019 -0.0441844 26 102 204
0.0450075 -0.237988 -0.0401617 26 102 204
0.0952524 0.0884227 -0.0479055 26 102 204
0.0876752 0.0379387 -0.0412932 26 102 204
0.1019 0.0244755 -0.0443321 26 102 204
0.0672214 -0.0565554 -0.0421631 26 102 204
-0.291433 -0.20429 -0.0379357 26 102 204
0.0981632 -0.13324 -0.037807 26 102 204
-0.0734587 0.311103 -0.035568 26 102 204
0.112405 -0.0559176 -0.0360077 26 102 204
0.110543 0.0401327 -0.0369918 26 102 204
-0.206383 0.325789 -0.0366764 26 102 204
0.147778 0.124474 -0.0399875 26 102 204
0.103578 -0.0563207 -0.0407173 26 102 204
0.157633 0.149767 -0.0429076 26 102 204
0.138129 0.113096 -0.0382469 26 102 204
0.0123809 -0.225969 -0.0377665 26 102 204
0.0527987 -0.180514 -0.0431846 26 102 204
0.129743 0.151804 -0.0358086 26 102 204
0.126415 0.221958 -0.0392425 26 102 204
0.0540775 -0.103633 -0.0365794 26 102 204
0.159609 0.189854 -0.0367999 26 102 204
0.0981248 -0.134454 -0.0395513 26 102 204
0.16323 0.268975 -0.0437158 26 102 204
0.115317 0.306395 -0.036096 26 102 204
0.185631 0.257201 -0.0399962 26 102 204
0.0797689 -0.186712 -0.040624 26 102 204
0.159616 0.269033 -0.0355734 26 102 204
0.0889949 0.021 -0.0405072 26 102 204
0.186254 0.346979 -0.0377917 26 102 204
0.0948933 0.0617774 -0.0469158 26 102 204
0.073662 -0.211658 -0.0381392 26 102 204
-0.139233 -0.270636 -0.0342988 26 102 204
0.146616 0.287395 -0.0337821 26 102 204
0.100161 -0.111804 -0.0334288 26 102 204
0.153367 0.0449835 -0.0431326 26 102 204
0.0601749 -0.253327 -0.0351314 26 102 204
-0.099431 0.34131 -0.0315444 26 102 204
-0.301913 -0.228704 -0.0376891 26 102 204
0.105006 -0.133155 -0.034875 26 102 204
0.0094342 0.316239 -0.0306938 26 102 204
0.153322 0.241257 -0.030397 26 102 204
-0.076477 0.0173841 -0.0693564 26 102 204
0.163882 0.216767 -0.0293123 26 102 204
0.0304306 0.35071 -0.0312816 26 102 204
0.0981579 -0.0402899 -0.0317035 26 102 204
-0.0396297 -0.217196 -0.0361569 26 102 204
0.169887 0.293846 -0.027737 26 102 204
-0.127007 -0.237473 -0.0372127 26 102 204
0.119328 0.0268333 -0.0277729 26 102 204
0.160904 0.332138 -0.0294697 26 102 204
0.132892 0.12931 -0.0270324 26 102 204
0.12364 0.0779121 -0.0305166 26 102 204
0.0911512 -0.180517 -0.0287175 26 102 204
0.111865 0.22629 -0.0241019 26 102 204
0.117032 0.328792 -0.0253015 26 102 204
0.108519 0.0660331 -0.0277385 26 102 204
-0.361301 -0.289412 -0.0322089 26 102 204
0.0858606 0.000669097 -0.0265734 26 102 204
-0.0621491 -0.192084 -0.0377174 26 102 204
0.108378 -0.136485 -0.0245964 26 102 204
0.00580227 -0.293683 -0.0261744 26 102 204
0.0796128 -0.109514 -0.0226114 26 102 204
0.13707 0.000640222 -0.0287815 26 102 204
0.152644 0.0670275 -0.0202441 26 102 204
0.0792867 0.0478768 -0.0245922 26 102 204
0.0729791 -0.257775 -0.0246399 26 102 204
0.132652 0.011398 -0.0219319 26 102 204
0.0667481 -0.2634 -0.0238504 26 102 204
0.126409 0.0256278 -0.01743 26 102 204
0.0690868 -0.318673 -0.0208143 26 102 204
0.192316 0.276264 -0.014634 26 102 204
0.156163 0.0304557 -0.0168987 26 102 204
0.171479 0.246451 -0.0186138 26 102 204
0.197748 0.27505 -0.0142311 26 102 204
0.0829835 -0.211343 -0.0199793 26 102 204
0.0351082 -0.291482 -0.0155949 26 102 204
0.061461 -0.0368419 -0.0132226 26 102 204
0.16295 0.305665 -0.0157487 26 102 204
-0.00504045 -0.307041 -0.0172008 26 102 204
0.138417 0.10999 -0.0133936 26 102 204
0.153601 0.329493 -0.0169073 26 102 204
0.149392 0.261441 -0.0131652 26 102 204
0.118017 -0.0548183 -0.0199075 26 102 204
0.11117 -0.0926972 -0.0135313 26 102 204
0.0749643 -0.146183 -0.0173836 26 102 204
0.133572 0.0593303 -0.0109596 26 102 204
0.156461 0.190564 -0.011918 26 102 204
0.124942 0.144151 -0.0129542 26 102 204
0.0693094 -0.0501825 -0.0134762 26 102 204
-0.0690145 -0.233537 -0.0106694 26 102 204
0.0575208 -0.282699 -0.0131509 26 102 204
0.0228071 -0.310323 -0.0120362 26 102 204
0.106851 0.0163429 -0.0112142 26 102 204
-0.257353 -0.287953 -0.0103768 26 102 204
0.0841033 -0.200436 -0.0107552 26 102 204
0.125154 0.00844704 -0.0112536 26 102 204
0.114558 0.291223 -0.0100948 26 102 204
0.17611 0.197812 -0.0124892 26 102 204
0.1938 0.276846 -0.00796986 26 102 204
0.18665 0.334285 -0.00973271 26 102 204
0.0893172 -0.0355295 -0.00809749 26 102 204
0.168075 0.319815 -0.0091934 26 102 204
0.0816782 -0.0308346 -0.00583356 26 102 204
0.123029 0.0472971 -0.0051929 26 102 204
0.122536 0.0491299 -0.0052339 26 102 204
-0.267137 -0.257817 -0.00625328 26 102 204
0.0310473 -0.296762 -0.00795245 26 102 204
0.105321 0.0968518 0.0175271 26 102 204
0.152193 0.0578992 -0.00421149 26 102 204
0.013523 0.229541 -0.00297539 26 102 204
-0.0695049 0.317687 -0.00348983 26 102 204
0.149613 0.135974 -0.00206478 26 102 204
0.131367 0.19862 -0.0020524 26 102 204
-0.118357 -0.274164 -0.0024933 26 102 204
0.0362552 -0.147233 -0.00107737 26 102 204
-0.329923 -0.27234 -0.00502237 26 102 204
0.141782 0.0898814 -0.00193508 26 102 204
0.0722597 -0.054825 -0.000316364 26 102 204
0.149421 0.231136 -0.0003346 26 102 204
0.0339022 -0.250266 0.000590614 26 102 204
0.107711 0.104701 0.000454539 26 102 204
0.105758 -0.0494331 0.000340948 26 102 204
0.114693 0.125335 -0.000942196 26 102 204
0.114971 0.101348 0.00210418 26 102 204
-0.299719 -0.292989 0.00105304 26 102 204
0.159199 0.175345 0.00237057 26 102 204
-0.0175048 -0.19794 0.000144583 26 102 204
0.103513 0.00739299 0.00285655 26 102 204
0.118682 0.202862 0.00418168 26 102 204
0.0959493 -0.0696604 0.00457164 26 102 204
0.124564 0.0695029 0.0051407 26 102 204
0.112095 0.137891 0.00493187 26 102 204
0.0670752 0.319183 0.00575128 26 102 204
0.201739 0.249255 0.00667417 26 102 204
0.0443574 -0.308125 0.00769072 26 102 204
0.0591759 -0.0419581 -0.0427694 26 102 204
0.0697364 -0.290891 0.00602097 26 102 204
0.124391 0.0500403 0.0128216 26 102 204
0.121487 0.0787218 0.00778246 26 102 204
0.167435 0.197463 0.00618851 26 102 204
0.138249 0.0827137 0.00851091 26 102 204
0.133767 0.229863 0.00959924 26 102 204
0.128235 0.0571516 0.0111622 26 102 204
0.160974 0.281034 0.0118348 26 102 204
-0.0998283 0.253325 0.0111472 26 102 204
0.144038 0.0822486 0.0114804 26 102 204
0.17742 0.249057 0.0138176 26 102 204
0.0614745 -0.254617 0.0122973 26 102 204
0.115687 0.129738 0.0121387 26 102 204
0.0602773 0.0233728 0.0127518 26 102 204
0.102284 0.181703 0.0135906 26 102 204
0.179628 0.231764 0.0139562 26 102 204
0.0847103 0.0507483 0.0139586 26 102 204
0.128997 0.0169648 0.0136042 26 102 204
-0.0200951 -0.302909 0.0142789 26 102 204
0.0453866 -0.259965 0.0154399 26 102 204
-0.110495 0.314072 0.0173048 26 102 204
0.111942 -0.00550652 0.0146592 26 102 204
0.115165 -0.0736859 0.0151317 26 102 204
0.14033 0.179875 0.0169379 26 102 204
0.199818 0.244964 0.0173368 26 102 204
0.0402603 -0.233464 0.0163863 26 102 204
0.00349664 -0.266514 0.0192724 26 102 204
0.0139997 -0.202978 0.0176523 26 102 204
0.132537 0.308229 0.0172387 26 102 204
0.0938516 0.102192 0.0173462 26 102 204
0.118815 -0.0370316 0.0218629 26 102 204
0.0717046 0.0713716 0.0193346 26 102 204
0.197638 0.259645 0.0185761 26 102 204
-0.252242 -0.240349 0.0195591 26 102 204
0.0747037 -0.096355 0.0180878 26 102 204
0.113262 0.130526 0.0202728 26 102 204
0.131573 0.109152 0.0213584 26 102 204
0.144758 0.155726 0.019465 26 102 204
-0.213078 -0.270289 0.0215057 26 102 204
0.119862 0.0668703 0.0201827 26 102 204
0.188683 0.285734 0.021932 26 102 204
0.11342 -0.0744374 0.0196347 26 102 204
-0.281821 -0.213907 0.0226602 26 102 204
0.00480302 -0.230831 0.024468 26 102 204
0.067524 -0.260798 0.0194836 26 102 204
0.0943439 -0.10018 0.0214654 26 102 204
0.0406643 -0.295675 0.0192798 26 102 204
-0.189823 -0.24536 0.0234997 26 102 204
0.130404 0.0196121 0.0244788 26 102 204
0.114081 0.143434 0.0268344 26 102 204
0.0633268 -0.237932 0.0257187 26 102 204
0.0776727 -0.218643 0.0239309 26 102 204
0.0984643 0.00849902 0.0275418 26 102 204
-0.271604 -0.228103 0.0287426 26 102 204
0.102671 -0.0884442 0.0264779 26 102 204
0.00199639 -0.284398 0.0272787 26 102 204
0.043083 -0.188225 0.0277419 26 102 204
-0.0906641 -0.264393 0.0276543 26 102 204
-0.291526 -0.185137 0.030647 26 102 204
-0.128121 -0.258192 0.0316248 26 102 204
0.115244 -0.054589 0.0294135 26 102 204
0.139527 0.201875 0.0305489 26 102 204
-0.245463 -0.233625 0.0314228 26 102 204
0.19285 0.222522 0.0316135 26 102 204
0.0606373 -0.112965 0.0315876 26 102 204
0.0513118 -0.27619 0.0336965 26 102 204
-0.200477 -0.260581 0.0347809 26 102 204
0.142099 0.0513695 0.0331094 26 102 204
0.0545266 -0.0709968 0.0337791 26 102 204
0.10409 -0.0790555 0.0342679 26 102 204
0.111153 -0.0371128 0.0359077 26 102 204
0.133784 0.0965748 0.0360177 26 102 204
0.0774415 -0.00273346 0.0358303 26 102 204
0.136477 0.017764 0.0357207 26 102 204
-0.137079 0.334385 0.0381394 26 102 204
0.0788507 -0.200442 0.0367883 26 102 204
0.159896 0.113249 0.0374722 26 102 204
-0.140421 -0.224246 0.0388857 26 102 204
0.0704789 -0.100017 0.0386955 26 102 204
-0.05058 0.306542 0.0388806 26 102 204
0.0967086 0.17383 0.03793 26 102 204
0.099188 -0.090138 0.0478492 26 102 204
0.0586004 -0.236827 0.0388101 26 102 204
0.188709 0.262235 0.0402877 26 102 204
0.114357 0.012704 0.03782 26 102 204
0.0903706 -0.0395353 0.0426197 26 102 204
0.0829745 0.0365238 0.0401155 26 102 204
0.152953 0.174 0.0389781 26 102 204
-0.264533 -0.262226 0.0420788 26 102 204
0.18356 0.310599 0.0447117 26 102 204
0.0868225 0.049295 0.0412629 26 102 204
0.151888 0.365867 0.0514431 26 102 204
0.171436 0.135955 0.0565043 26 102 204
0.125611 0.0730898 0.045222 26 102 204
0.0923604 -0.156855 0.0741982 26 102 204
0.154414 0.123529 0.0463666 26 102 204
0.117555 0.0604431 0.0450801 26 102 204
0.186849 0.291371 0.0447979 26 102 204
0.138804 0.272001 0.0463789 26 102 204
0.110932 0.0268193 0.0446334 26 102 204
0.118264 -0.00566632 0.046795 26 102 204
0.166335 0.297796 0.050175 26 102 204
0.119591 0.0140855 0.0475639 26 102 204
0.0981099 -0.0540912 0.048758 26 102 204
0.0607771 -0.191795 0.0486996 26 102 204
-0.0332467 -0.290743 0.0505012 26 102 204
-0.0304688 -0.322 0.0528484 26 102 204
-0.231543 0.215789 0.0504825 26 102 204
0.154846 0.232543 0.0519529 26 102 204
-0.197037 -0.241979 0.0525297 26 102 204
-0.0180369 -0.232446 0.0511538 26 102 204
0.099281 -0.134456 0.0537711 26 102 204
0.0530498 -0.174999 0.0599019 26 102 204
0.0258467 -0.221883 0.0572456 26 102 204
0.0836574 0.334558 0.0525328 26 102 204
-0.152208 -0.311963 0.0526383 26 102 204
0.0495021 -0.1679 0.0530401 26 102 204
0.154781 0.228438 0.0538953 26 102 204
-0.286873 -0.270609 0.0550368 26 102 204
0.0172256 -0.214413 0.0588597 26 102 204
0.0534196 -0.256736 0.0520257 26 102 204
0.126925 0.0800428 0.0560499 26 102 204
0.0594392 -0.206552 0.0576783 26 102 204
-0.0169396 0.278004 0.055153 26 102 204
0.0803746 -0.0414721 0.0654623 26 102 204
0.0699802 -0.0828786 0.0566042 26 102 204
-0.0596989 -0.249359 0.0573332 26 102 204
-0.0182308 0.277174 0.0552064 26 102 204
0.105155 0.287297 0.0641123 26 102 204
-0.0492879 0.294441 0.0585076 26 102 204
0.0993768 -0.0527573 0.0547974 26 102 204
0.0169233 0.282314 0.0551906 26 102 204
0.179149 0.186476 0.058298 26 102 204
0.134576 0.0563553 0.0602461 26 102 204
0.0960189 -0.116261 0.0579989 26 102 204
0.0311722 -0.20857 0.0580768 26 102 204
0.159873 0.207218 0.0598394 26 102 204
0.0539903 -0.264743 0.0628481 26 102 204
0.0972364 0.0785052 0.0587675 26 102 204
0.157427 0.227515 0.0626635 26 102 204
0.0543082 -0.316004 0.0599391 26 102 204
0.178042 0.239838 0.0633813 26 102 204
0.0227495 0.246238 0.0634686 26 102 204
-0.266528 -0.233455 0.0637897 26 102 204
-0.344719 -0.290085 0.0743943 26 102 204
0.112431 0.0363297 0.0644582 26 102 204
-0.133647 0.294675 0.0632066 26 102 204
0.0447863 -0.252013 0.0641965 26 102 204
0.0957423 0.025441 0.0678331 26 102 204
0.0682381 0.0268584 0.0682352 26 102 204
0.0345045 -0.252521 0.065878 26 102 204
-0.161742 0.342758 0.070829 26 102 204
-0.188189 -0.292391 0.0683177 26 102 204
-0.139893 0.351344 0.0705354 26 102 204
-0.104207 0.29807 0.0718927 26 102 204
0.08526 -0.103348 0.0700229 26 102 204
0.184431 0.265023 0.0720804 26 102 204
0.129546 0.0788468 0.071973 26 102 204
0.066437 -0.278975 0.0733941 26 102 204
-0.300822 -0.27905 0.0770912 26 102 204
0.0280521 -0.327354 0.0791478 26 102 204
-0.0593494 -0.27767 0.0767616 26 102 204
0.0956426 0.1489 0.0755114 26 102 204
0.0929635 -0.122427 0.0748124 26 102 204
-0.00715453 -0.363706 0.0765698 26 102 204
0.143609 0.156168 0.0768772 26 102 204
-0.0848751 -0.243754 0.0781145 26 102 204
0.0677432 0.0162744 0.0818306 26 102 204
0.13482 0.198347 0.0808331 26 102 204
0.0147926 -0.0361203 0.078411 26 102 204
-0.0121232 0.303591 0.0795031 26 102 204
0.149192 0.209466 0.0896927 26 102 204
-0.143257 0.323901 0.0802115 26 102 204
0.0997135 0.000945387 0.0789476 26 102 204
-0.0440071 -0.200528 0.0827671 26 102 204
0.0553302 -0.0779041 0.0837316 26 102 204
-0.0228217 -0.199577 0.0809084 26 102 204
0.121211 0.134148 0.0826113 26 102 204
0.112211 0.118986 0.0811233 26 102 204
-0.0711375 -0.299081 0.0917145 26 102 204
-0.0461237 -0.227141 0.0825209 26 102 204
0.124449 -0.0277377 0.083971 26 102 204
-0.0395951 -0.331682 0.0900455 26 102 204
-0.197155 -0.212487 0.0870572 26 102 204
0.121194 0.0536838 0.0838259 26 102 204
-0.017611 -0.275784 0.083116 26 102 204
0.151447 0.290535 0.0899784 26 102 204
0.0599886 -0.046277 0.0865821 26 102 204
0.0175875 -0.150777 0.0944225 26 102 204
-0.351455 -0.273855 0.088207 26 102 204
0.0872795 0.0263969 0.0874911 26 102 204
-0.235692 -0.22446 0.0891938 26 102 204
0.117797 0.142282 0.0876631 26 102 204
-0.107026 -0.257284 0.0781012 26 102 204
0.0383191 0.27726 0.082345 26 102 204
0.0411182 -0.239317 0.0907561 26 102 204
0.0478587 -0.194165 0.0983745 26 102 204
0.0682572 0.0128261 0.0870795 26 102 204
0.142418 0.0985403 0.0903789 26 102 204
0.0311926 -0.0104977 0.0880394 26 102 204
0.191238 0.204559 0.101824 26 102 204
-0.0261592 0.291036 0.0944438 26 102 204
-0.00321981 -0.251894 0.0918407 26 102 204
0.140446 0.269739 0.0911387 26 102 204
0.103295 0.0148105 0.0964139 26 102 204
0.148178 0.225198 0.0887338 26 102 204
0.127018 0.13629 0.0886386 26 102 204
0.132123 0.205471 0.0959466 26 102 204
0.204305 0.287451 0.0944322 26 102 204
0.13908 0.249479 0.0949804 26 102 204
0.157309 0.204845 0.0918759 26 102 204
0.181729 0.255268 0.0842704 26 102 204
0.0704338 -0.227406 0.095436 26 102 204
0.0882531 -0.232221 0.103691 26 102 204
0.0368603 -0.0838309 0.0951997 26 102 204
0.0728042 -0.311954 0.0977553 26 102 204
0.0458704 -0.339818 0.0962921 26 102 204
0.115193 0.100448 0.0960912 26 102 204
-0.218689 0.3296 0.102212 26 102 204
0.11079 -0.134142 0.100919 26 102 204
0.118721 0.157345 0.10114 26 102 204
-0.0634549 0.272085 0.102778 26 102 204
0.0529238 -0.185076 0.10124 26 102 204
-0.120281 -0.204489 0.10177 26 102 204
-0.0437898 -0.248834 0.0982817 26 102 204
-0.227432 -0.2454 0.103461 26 102 204
-0.0600487 -0.25701 0.097914 26 102 204
-0.0458993 0.221026 0.0936794 26 102 204
0.0372133 -0.114838 0.104662 26 102 204
0.164364 0.189667 0.100174 26 102 204
-0.131254 -0.274428 0.108349 26 102 204
0.130588 0.167372 0.102731 26 102 204
-0.00722339 -0.354218 0.10043 26 102 204
0.118075 -0.0798777 0.109084 26 102 204
0.11411 0.167723 0.105043 26 102 204
0.145552 -0.0116048 0.110059 26 102 204
0.0648021 -0.235524 0.104065 26 102 204
0.0373187 -0.0621033 0.104563 26 102 204
0.200654 0.268736 0.113218 26 102 204
0.179879 0.106584 0.129383 26 102 204
0.0439443 -0.27546 0.107123 26 102 204
0.0333425 -0.328888 0.111088 26 102 204
0.13622 -0.0204621 0.113055 26 102 204
0.0590694 -0.213383 0.111396 26 102 204
0.10858 -0.111087 0.110243 26 102 204
0.0965911 -0.0403391 0.108441 26 102 204
0.167075 0.242289 0.119208 26 102 204
0.152496 0.257754 0.112018 26 102 204
0.10985 -0.000472109 0.107919 26 102 204
0.108844 0.0433072 0.107682 26 102 204
0.03945 -0.167746 0.110156 26 102 204
0.184257 0.310012 0.109784 26 102 204
-0.049898 -0.0591212 0.105451 26 102 204
0.150618 0.163333 0.113277 26 102 204
0.119452 0.242702 0.105627 26 102 204
0.0796988 -0.19294 0.112898 26 102 204
-0.0183293 -0.341367 0.111723 26 102 204
0.107678 0.113548 0.119038 26 102 204
0.0457426 -0.103496 0.106523 26 102 204
0.0659507 0.301935 0.111614 26 102 204
-0.0118395 -0.3243 0.108978 26 102 204
0.0616906 -0.104712 0.112886 26 102 204
0.097774 -0.380311 0.109235 26 102 204
0.0997989 0.322572 0.119193 26 102 204
0.171351 0.154169 0.10912 26 102 204
0.13636 0.140714 0.111257 26 102 204
0.0244316 -0.214189 0.109774 26 102 204
0.142222 0.221591 0.110767 26 102 204
-0.129664 0.322114 0.114967 26 102 204
0.00577847 -0.337147 0.115523 26 102 204
0.104546 0.219942 0.110735 26 102 204
0.152151 0.301656 0.116389 26 102 204
0.0828216 -0.112393 0.111563 26 102 204
0.0461418 -0.161727 0.112871 26 102 204
0.0805639 0.284071 0.111304 26 102 204
0.0644435 -0.0316021 0.112381 26 102 204
0.147001 0.221363 0.108198 26 102 204
0.147404 0.215505 0.116883 26 102 204
0.108546 0.0295753 0.113237 26 102 204
0.0454859 -0.301059 0.116089 26 102 204
0.15248 0.130185 0.115171 26 102 204
0.0644499 -0.0697366 0.118106 26 102 204
0.135352 0.0890163 0.109975 26 102 204
0.124973 0.0394957 0.110908 26 102 204
0.00472875 -0.234893 0.119997 26 102 204
0.138513 0.232431 0.120583 26 102 204
0.146021 0.187805 0.116779 26 102 204
0.0735584 -0.0104696 0.125345 26 102 204
0.153691 0.256848 0.117426 26 102 204
0.0162409 -0.234694 0.115655 26 102 204
-0.25385 -0.25454 0.118154 26 102 204
0.208712 0.306902 0.116487 26 102 204
0.0149346 -0.160655 0.114314 26 102 204
0.0478303 -0.178594 0.117727 26 102 204
0.12322 0.25883 0.117269 26 102 204
0.0287178 -0.160996 0.11425 26 102 204
0.0776636 -0.158097 0.121147 26 102 204
0.0466021 -0.135852 0.114912 26 102 204
0.191549 0.205103 0.119969 26 102 204
0.0764155 -0.067449 0.117231 26 102 204
0.0996055 0.1004 0.126615 26 102 204
0.180207 0.229603 0.121848 26 102 204
0.0484644 -0.217501 0.123594 26 102 204
0.0766463 -0.140189 0.114856 26 102 204
0.0899885 -0.155594 0.113704 26 102 204
0.169708 0.215276 0.116213 26 102 204
0.145689 0.0857653 0.119496 26 102 204
0.103225 -0.0214562 0.117161 26 102 204
0.0834195 -0.105039 0.121634 26 102 204
0.1499 0.025922 0.13039 26 102 204
0.118499 0.0674392 0.127318 26 102 204
0.122438 0.0873833 0.122358 26 102 204
-0.0426041 -0.208227 0.123627 26 102 204
0.162966 0.245279 0.124669 26 102 204
0.127521 0.214212 0.121224 26 102 204
-0.233585 -0.272067 0.12139 26 102 204
0.0822388 -0.125646 0.117964 26 102 204
-0.0186411 -0.292127 0.127044 26 102 204
0.0567887 -0.0402949 0.126976 26 102 204
0.165942 0.215187 0.123504 26 102 204
0.0410924 -0.116948 0.127999 26 102 204
0.0759313 -0.0075387 0.128162 26 102 204
0.187859 0.301787 0.139535 26 102 204
0.0916158 -0.100231 0.127316 26 102 204
0.0389572 -0.164515 0.124923 26 102 204
0.0362895 -0.260621 0.124324 26 102 204
0.151999 0.287613 0.116056 26 102 204
0.0668083 -0.2336 0.131989 26 102 204
0.124033 -0.0730498 0.12543 26 102 204
-0.144529 0.308141 0.125135 26 102 204
-0.313199 -0.223625 0.127695 26 102 204
-0.275768 -0.0355818 0.129986 26 102 204
0.0947867 -0.348755 0.124207 26 102 204
-0.292379 -0.0877444 0.128418 26 102 204
-0.100106 -0.361591 0.125712 26 102 204
0.178326 0.124851 0.131846 26 102 204
-0.126926 0.334851 0.133242 26 102 204
-0.166237 0.280031 0.132971 26 102 204
-0.215664 0.113532 0.135629 26 102 204
0.156821 -0.00849195 0.128316 26 102 204
-0.218065 0.0935813 0.133782 26 102 204
-0.195331 0.106051 0.130647 26 102 204
-0.201874 0.0111853 0.135023 26 102 204
-0.208844 0.0281694 0.123128 26 102 204
-0.2303 -0.0684833 0.124689 26 102 204
-0.196619 0.137009 0.134879 26 102 204
-0.191609 0.102084 0.130135 26 102 204
-0.243362 -0.109122 0.121639 26 102 204
-0.24632 -0.123007 0.131533 26 102 204
-0.208574 -0.0967998 0.132236 26 102 204
-0.204724 -0.0122291 0.132862 26 102 204
-0.218965 -0.071245 0.134548 26 102 204
-0.15562 0.20527 0.129947 26 102 204
-0.186875 0.0240295 0.131287 26 102 204
-0.175792 0.0138498 0.131656 26 102 204
0.169653 0.0660869 0.117498 26 102 204
-0.276419 -0.288108 0.13681 26 102 204
-0.158661 -0.0175874 0.13004 26 102 204
-0.180547 -0.0911774 0.132043 26 102 204
-0.140849 0.0483888 0.131824 26 102 204
-0.0531587 0.22417 0.12563 26 102 204
-0.112075 0.0324179 0.12093 26 102 204
-0.0626829 0.240141 0.138752 26 102 204
-0.0834284 0.0502747 0.130929 26 102 204
-0.0801067 0.0217556 0.127596 26 102 204
-0.0163228 0.163149 0.127083 26 102 204
-0.115062 -0.26414 0.131298 26 102 204
-0.0304458 0.014523 0.131446 26 102 204
0.0188567 0.142981 0.131262 26 102 204
-0.0347993 -0.0164114 0.132168 26 102 204
-0.043718 -0.124233 0.135393 26 102 204
-0.00243398 -0.0245022 0.139198 26 102 204
0.0543335 0.165392 0.128277 26 102 204
0.0142838 0.0597638 0.135644 26 102 204
0.0878909 0.232381 0.13141 26 102 204
0.0128633 0.231888 0.138389 26 102 204
0.0356838 0.079693 0.133481 26 102 204
-0.0549136 -0.253005 0.131242 26 102 204
-0.00973639 -0.0343607 0.135374 26 102 204
0.0794397 0.130831 0.126042 26 102 204
0.0367728 0.0388157 0.127355 26 102 204
0.0860527 0.181543 0.126611 26 102 204
0.072295 0.243857 0.136134 26 102 204
0.119954 0.277221 0.123784 26 102 204
0.0571814 0.149642 0.135763 26 102 204
0.0857117 0.142109 0.127005 26 102 204
0.130861 0.242617 0.134525 26 102 204
0.15256 0.297498 0.130617 26 102 204
0.122159 0.158542 0.12367 26 102 204
0.119981 0.139315 0.127328 26 102 204
-0.123087 0.328042 0.132415 26 102 204
0.14543 0.0547405 0.125485 26 102 204
-0.188584 0.303767 0.138047 26 102 204
0.0675484 -0.0432436 0.129164 26 102 204
0.0283029 -0.229694 0.129256 26 102 204
0.0819974 0.113336 0.135188 26 102 204
0.0601248 -0.0480494 0.126889 26 102 204
-0.171524 0.3152 0.134303 26 102 204
0.0813591 -0.0922684 0.131782 26 102 204
0.132842 0.0175378 0.128173 26 102 204
0.0540687 -0.191948 0.137587 26 102 204
-0.246027 -0.0856545 0.132184 26 102 204
0.0228289 -0.321525 0.135429 26 102 204
0.209946 0.295403 0.131021 26 102 204
0.184742 0.272187 0.124538 26 102 204
0.0936317 0.0601604 0.126431 26 102 204
0.180565 0.245254 0.122709 26 102 204
0.0833424 -0.15403 0.13762 26 102 204
0.147274 0.117813 0.129629 26 102 204
0.146044 0.134785 0.13611 26 102 204
-0.220871 -0.260676 0.143648 26 102 204
0.177313 0.207652 0.136918 26 102 204
-0.131813 -0.274602 0.140204 26 102 204
-0.132208 0.325433 0.137267 26 102 204
-0.003589 -0.441241 0.144491 26 102 204
0.161332 0.0925142 0.130504 26 102 204
0.100974 -0.194235 0.141066 26 102 204
0.12715 -0.0297003 0.144549 26 102 204
-0.251657 -0.177244 0.134272 26 102 204
-0.126174 0.33839 0.129475 26 102 204
-0.164956 0.303332 0.143645 26 102 204
-0.152186 0.18657 0.143688 26 102 204
0.127038 -0.0939946 0.134526 26 102 204
-0.234574 -0.0963427 0.141772 26 102 204
-0.237031 -0.270532 0.128269 26 102 204
0.063223 -0.311247 0.142716 26 102 204
-0.224999 -0.38463 0.14287 26 102 204
-0.153226 0.0500443 0.144404 26 102 204
-0.0834155 -0.405809 0.142788 26 102 204
-0.226668 -0.304472 0.137466 26 102 204
-0.0909003 -0.316012 0.146177 26 102 204
0.0507619 -0.365926 0.146643 26 102 204
0.0994325 -0.106373 0.147408 26 102 204
0.0856383 -0.205785 0.142462 26 102 204
0.114932 -0.00835083 0.159199 26 102 204
-0.0372222 -0.337895 0.147113 26 102 204
-0.0214699 -0.343153 0.13463 26 102 204
0.212441 0.244008 0.139967 26 102 204
-0.176288 0.114374 0.143665 26 102 204
0.133499 -0.0558066 0.152641 26 102 204
-0.207066 -0.285349 0.14817 26 102 204
-0.0679395 0.29233 0.156384 26 102 204
0.0678431 -0.285938 0.138541 26 102 204
-0.220058 -0.283982 0.146278 26 102 204
-0.109783 -0.310097 0.149178 26 102 204
-0.0469117 -0.363874 0.144962 26 102 204
0.150278 0.104804 0.150487 26 102 204
0.0800082 -0.112934 0.148113 26 102 204
0.159468 0.117987 0.147972 26 102 204
0.187558 0.289224 0.147645 26 102 204
0.0621299 -0.171428 0.143805 26 102 204
0.0204758 -0.279932 0.140086 26 102 204
0.138306 0.244898 0.153254 26 102 204
0.0304401 -0.248629 0.153166 26 102 204
0.0721062 -0.0946593 0.153138 26 102 204
0.121066 0.0442892 0.146494 26 102 204
0.103015 -0.0170793 0.145628 26 102 204
0.0744224 -0.161279 0.145363 26 102 204
0.099585 -0.110644 0.151778 26 102 204
0.0463668 -0.248087 0.141053 26 102 204
0.0653579 -0.227391 0.128424 26 102 204
0.130749 0.0621405 0.159199 26 102 204
0.117748 0.0112716 0.15236 26 102 204
0.012988 -0.32863 0.147747 26 102 204
0.141816 0.0578037 0.146763 26 102 204
0.145976 0.291003 0.15109 26 102 204
0.127149 0.00489607 0.157567 26 102 204
0.130147 0.0379525 0.149632 26 102 204
-0.00895557 -0.313741 0.144687 26 102 204
0.177441 0.209153 0.160644 26 102 204
0.117261 -0.107358 0.149401 26 102 204
0.144163 0.036407 0.135061 26 102 204
0.0503219 -0.0631337 0.145295 26 102 204
0.125816 -0.052149 0.156185 26 102 204
0.153411 0.145665 0.166887 26 102 204
0.0885412 -0.188837 0.151945 26 102 204
0.0888436 -0.133095 0.150043 26 102 204
0.0496063 -0.283292 0.153411 26 102 204
0.0608468 -0.2865 0.15835 26 102 204
0.0418545 -0.32331 0.159635 26 102 204
0.0718254 -0.21268 0.152273 26 102 204
0.0761298 -0.175283 0.151998 26 102 204
0.147992 0.108986 0.166316 26 102 204
0.198002 0.210739 0.140933 26 102 204
0.169764 0.141377 0.159758 26 102 204
0.200221 0.28913 0.157067 26 102 204
0.181003 0.194457 0.155214 26 102 204
0.0864932 -0.208452 0.155807 26 102 204
