ply
format ascii 1.0
comment Created by Open3D
element vertex 1024
property double x
property double y
property double z
property uchar red
property uchar green
property uchar blue
end_header
0.386968 0.275811 0.0911321 26 102 204
-0.0303441 0.50728 0.0972095 26 102 204
0.038148 0.454785 0.0977566 26 102 204
0.389282 0.281953 0.0906289 26 102 204
0.113936 0.437093 0.0877367 26 102 204
0.431919 0.25139 0.0801291 26 102 204
0.363253 0.303486 0.0804492 26 102 204
0.0496221 0.452445 0.102482 26 102 204
0.425262 0.257201 0.0952072 26 102 204
0.435798 0.253777 0.0982642 26 102 204
0.0796494 0.444257 0.0902075 26 102 204
0.449368 0.237765 0.0840436 26 102 204
0.145834 0.411131 0.094006 26 102 204
-0.00831074 0.501575 0.081611 26 102 204
-0.0234529 0.492585 0.0984961 26 102 204
0.07603 0.467864 0.0916815 26 102 204
-0.0195619 0.498703 0.108256 26 102 204
0.441399 0.234335 0.0844127 26 102 204
0.0238413 0.480855 0.119638 26 102 204
0.339558 0.314706 0.106831 26 102 204
0.432196 0.246175 0.118155 26 102 204
0.163428 0.38659 0.115732 26 102 204
0.0938245 0.425527 0.0832467 26 102 204
0.467817 0.217554 0.112623 26 102 204
-0.042714 0.497984 0.0812713 26 102 204
0.230984 0.337337 0.116978 26 102 204
0.435984 0.236105 0.0874235 26 102 204
0.401049 0.261132 0.0765531 26 102 204
0.125901 0.400427 0.0796573 26 102 204
-0.0206222 0.481714 0.132834 26 102 204
0.433854 0.238525 0.105126 26 102 204
0.230447 0.337383 0.103828 26 102 204
0.208357 0.354078 0.11577 26 102 204
0.305291 0.299178 0.124865 26 102 204
0.242003 0.329221 0.0754922 26 102 204
0.378421 0.249961 0.0908374 26 102 204
-0.0249774 0.469997 0.0611392 26 102 204
0.322062 0.282359 0.0599851 26 102 204
0.212339 0.33208 0.0578329 26 102 204
0.278725 0.30731 0.113315 26 102 204
0.401054 0.229832 0.0730416 26 102 204
0.440161 0.203581 0.0924625 26 102 204
-0.0665849 0.489536 0.105309 26 102 204
0.201676 0.339562 0.0498053 26 102 204
0.232899 0.325842 0.0445891 26 102 204
0.323281 0.266098 0.104933 26 102 204
0.271407 0.301085 0.0703962 26 102 204
0.251017 0.324966 0.0353165 26 102 204
0.0917973 0.395928 0.0440596 26 102 204
0.223175 0.319821 0.0643684 26 102 204
-0.00578733 0.452752 0.0567841 26 102 204
0.414914 0.222709 0.0908793 26 102 204
0.0314261 0.430752 0.0617044 26 102 204
0.327946 0.264803 0.0513225 26 102 204
0.193772 0.345559 0.107936 26 102 204
0.258457 0.29997 0.0937803 26 102 204
0.00257136 0.436252 0.0623815 26 102 204
0.023381 0.426285 0.0493377 26 102 204
-0.0571164 0.476226 0.116383 26 102 204
0.403617 0.219226 0.0624676 26 102 204
0.387875 0.243829 0.034005 26 102 204
0.0842943 0.388455 0.0743405 26 102 204
-0.0526598 0.475141 0.135983 26 102 204
0.0641631 0.40075 0.104621 26 102 204
0.127179 0.374859 0.0447408 26 102 204
0.123178 0.372593 0.111864 26 102 204
0.25619 0.29043 0.0531484 26 102 204
0.103559 0.359329 0.0387572 26 102 204
0.399118 0.230261 0.0697676 26 102 204
0.0478549 0.411258 0.109559 26 102 204
0.29089 0.270157 0.0948866 26 102 204
0.183797 0.328085 0.0432463 26 102 204
0.0113983 0.421064 0.104324 26 102 204
0.330407 0.238165 0.0318323 26 102 204
0.347286 0.243884 0.100203 26 102 204
0.155695 0.338394 0.0462034 26 102 204
0.242796 0.290114 0.0790357 26 102 204
0.238051 0.289853 0.101937 26 102 204
0.166551 0.328694 0.078776 26 102 204
0.183539 0.315221 0.07141 26 102 204
-0.0609033 0.461104 0.0401091 26 102 204
-0.0270715 0.433263 0.0315543 26 102 204
-0.00646812 0.446727 0.0458152 26 102 204
0.362722 0.213191 0.110077 26 102 204
0.0426023 0.394961 0.0321236 26 102 204
-0.0188354 0.420508 0.110859 26 102 204
0.025542 0.402457 0.120525 26 102 204
0.0225188 0.39605 0.115217 26 102 204
0.415019 0.18483 0.139661 26 102 204
0.393062 0.200112 0.0569042 26 102 204
-0.0144887 0.42334 0.115941 26 102 204
-0.0664958 0.440392 0.0150968 26 102 204
0.27384 0.256956 0.122769 26 102 204
-0.0786222 0.447568 0.134103 26 102 204
0.417662 0.178665 0.0961971 26 102 204
0.132397 0.327963 0.0222147 26 102 204
0.139903 0.321746 0.109341 26 102 204
0.39956 0.175333 0.120991 26 102 204
-0.089646 0.449311 0.0956915 26 102 204
0.450633 0.146964 0.123476 26 102 204
-0.0910804 0.447083 0.0176262 26 102 204
0.418139 0.150018 0.0620187 26 102 204
0.29629 0.222522 0.0355504 26 102 204
0.260361 0.241935 0.0732762 26 102 204
-0.0249087 0.396885 0.125814 26 102 204
0.0816298 0.345485 0.0205603 26 102 204
0.00876467 0.386332 0.13187 26 102 204
-0.0821113 0.438173 0.0545983 26 102 204
0.198779 0.278605 0.0164229 26 102 204
0.354344 0.182201 0.114631 26 102 204
0.096518 0.339186 0.0821744 26 102 204
-0.0126753 0.39826 0.124342 26 102 204
0.10168 0.332236 0.000970206 26 102 204
0.273209 0.243603 0.119623 26 102 204
0.0118904 0.371787 0.131726 26 102 204
0.00985015 0.372471 0.0814227 26 102 204
0.0631708 0.346591 0.0156981 26 102 204
0.0713715 0.339007 0.0485508 26 102 204
0.123029 0.311329 0.0345754 26 102 204
0.140955 0.289934 0.106379 26 102 204
0.0741808 0.345532 0.0887903 26 102 204
0.167571 0.28384 0.0989926 26 102 204
0.426434 0.136992 0.166773 26 102 204
0.241177 0.249467 -0.0144084 26 102 204
0.0154945 0.366413 0.112856 26 102 204
-0.0874142 0.426218 0.107534 26 102 204
0.0677654 0.337331 0.0426711 26 102 204
0.100463 0.317994 0.034393 26 102 204
-0.0930787 0.416411 0.154048 26 102 204
0.239098 0.232157 0.11175 26 102 204
0.343859 0.177342 0.128338 26 102 204
0.077648 0.32701 0.092743 26 102 204
0.344221 0.17842 0.13313 26 102 204
0.285273 0.208465 0.0407007 26 102 204
0.40249 0.137939 0.110287 26 102 204
-0.00599366 0.367071 0.124665 26 102 204
-0.102667 0.422439 0.154564 26 102 204
0.336148 0.18836 -0.0272554 26 102 204
0.294592 0.197814 0.00620892 26 102 204
0.281274 0.203928 0.110117 26 102 204
0.295198 0.196426 0.028231 26 102 204
0.049665 0.334813 0.0165909 26 102 204
0.284901 0.199807 0.00382267 26 102 204
0.217548 0.239514 0.103833 26 102 204
0.395734 0.130053 0.131664 26 102 204
0.0410933 0.337087 0.00213579 26 102 204
-0.0460849 0.381753 0.132504 26 102 204
-0.0596831 0.38308 0.106206 26 102 204
0.283276 0.198246 -0.00357119 26 102 204
0.385656 0.129367 0.111655 26 102 204
-0.121655 0.418916 0.142943 26 102 204
0.339289 0.163569 0.0315988 26 102 204
0.417534 0.120027 0.0859779 26 102 204
0.301617 0.173342 0.116878 26 102 204
0.345284 0.154873 0.0449265 26 102 204
0.349212 0.149717 0.11653 26 102 204
0.386478 0.125739 -0.0280805 26 102 204
0.401667 0.123943 -0.0211406 26 102 204
-0.0878996 0.402046 0.103872 26 102 204
0.41772 0.115531 0.0866292 26 102 204
0.346421 0.161592 -0.016562 26 102 204
0.182396 0.244753 -0.0151133 26 102 204
0.287867 0.187522 0.110607 26 102 204
-0.130033 0.415367 0.0381895 26 102 204
-0.106235 0.397049 -0.0353241 26 102 204
0.061589 0.308824 -0.0206541 26 102 204
0.298974 0.173912 0.10349 26 102 204
0.328817 0.150868 0.187254 26 102 204
-0.137138 0.408471 0.146397 26 102 204
-0.121738 0.416549 -0.04041 26 102 204
-0.117452 0.400327 0.201373 26 102 204
0.109627 0.273112 0.108521 26 102 204
-0.145057 0.412093 -0.00299 26 102 204
0.361822 0.125494 -0.0422973 26 102 204
-0.13132 0.402438 0.0588575 26 102 204
0.317583 0.154263 0.205601 26 102 204
0.40689 0.0984585 0.0388558 26 102 204
0.365087 0.128732 0.213938 26 102 204
0.402592 0.0959044 -0.0163576 26 102 204
0.361128 0.137813 -0.0327352 26 102 204
0.38836 0.109168 0.206278 26 102 204
-0.115595 0.382739 0.105187 26 102 204
0.31743 0.142383 0.150034 26 102 204
0.152671 0.238734 0.0921127 26 102 204
-0.133348 0.395632 0.123516 26 102 204
-0.0218542 0.338835 -0.0326529 26 102 204
0.275651 0.165546 0.0972843 26 102 204
-0.120948 0.384926 -0.0343978 26 102 204
0.396696 0.102362 -0.0252939 26 102 204
0.35931 0.116976 0.163134 26 102 204
-0.130471 0.388858 0.149919 26 102 204
-0.122034 0.373165 -0.0420272 26 102 204
0.107488 0.256836 0.119446 26 102 204
0.323485 0.133656 -0.0329005 26 102 204
-0.140875 0.391003 0.0761184 26 102 204
0.00282573 0.317855 0.11335 26 102 204
0.256341 0.172322 -0.0296982 26 102 204
-0.119516 0.376827 0.123407 26 102 204
0.391269 0.0947759 0.0658213 26 102 204
0.265394 0.160423 0.110596 26 102 204
0.312406 0.132709 0.115882 26 102 204
0.354898 0.132242 -0.0314062 26 102 204
0.313278 0.133668 -0.0275757 26 102 204
-0.142423 0.384832 0.097441 26 102 204
0.397774 0.0868131 -0.00727009 26 102 204
0.377116 0.102096 -0.0299232 26 102 204
0.355768 0.158421 0.0718985 26 102 204
-0.0859462 0.349477 0.143639 26 102 204
-0.149376 0.387116 0.171348 26 102 204
0.239101 0.168752 0.115743 26 102 204
0.0276345 0.290125 -0.0291438 26 102 204
0.358822 0.0971344 0.107921 26 102 204
-0.158105 0.384681 -0.00941927 26 102 204
0.0861286 0.253902 -0.0389563 26 102 204
-0.143318 0.378587 -0.0107412 26 102 204
0.283903 0.139581 -0.0361138 26 102 204
0.390436 0.0808607 -0.0597158 26 102 204
0.401082 0.0715858 0.00204745 26 102 204
0.107091 0.228049 -0.036177 26 102 204
0.201189 0.176696 0.118849 26 102 204
-0.16176 0.371326 -0.0301185 26 102 204
-0.00612147 0.290419 0.137399 26 102 204
-0.120558 0.345564 0.114818 26 102 204
0.219686 0.160754 -0.0598944 26 102 204
-0.0360003 0.303731 -0.0415494 26 102 204
0.404827 0.0541685 0.0971875 26 102 204
0.39603 0.064726 0.0421021 26 102 204
0.385162 0.0605864 0.112006 26 102 204
0.3805 0.0601978 -0.039717 26 102 204
0.352958 0.082235 0.111884 26 102 204
0.402038 0.0540266 -0.0454053 26 102 204
0.24988 0.131531 0.114732 26 102 204
0.0965342 0.223562 -0.0367674 26 102 204
0.133242 0.19216 -0.0400839 26 102 204
0.119163 0.199681 -0.0366867 26 102 204
0.387995 0.0409618 0.0899801 26 102 204
0.0700954 0.221465 -0.0363038 26 102 204
-0.168203 0.353347 0.041397 26 102 204
0.244598 0.122987 -0.034229 26 102 204
-0.171266 0.359999 -0.000269575 26 102 204
0.312692 0.0814613 0.12372 26 102 204
0.27729 0.102226 -0.0393953 26 102 204
0.315531 0.0796841 0.113222 26 102 204
0.377518 0.0414061 -0.00679207 26 102 204
-0.133788 0.326462 0.113727 26 102 204
0.278638 0.0870908 0.113923 26 102 204
0.186193 0.141647 0.131002 26 102 204
-0.114698 0.313828 0.127978 26 102 204
0.217365 0.126691 0.118654 26 102 204
0.222105 0.125158 -0.0361529 26 102 204
0.201556 0.133378 0.121722 26 102 204
-0.158666 0.329594 -0.0185496 26 102 204
0.141725 0.164429 -0.048414 26 102 204
-0.113394 0.30326 0.12529 26 102 204
-0.102861 0.298045 -0.0419778 26 102 204
0.129454 0.159033 -0.0346855 26 102 204
-0.0723236 0.279342 -0.0375039 26 102 204
0.171085 0.135335 0.120633 26 102 204
-0.18207 0.335683 -0.0377962 26 102 204
0.37357 0.0277446 -5.80572e-06 26 102 204
0.22555 0.102402 0.119814 26 102 204
-0.0156312 0.241378 0.127158 26 102 204
0.113483 0.165062 -0.0374154 26 102 204
0.383926 0.0170593 0.00765326 26 102 204
0.373717 0.0157573 0.0219694 26 102 204
0.396418 0.0158472 0.0908475 26 102 204
0.185822 0.124564 -0.0396786 26 102 204
0.355984 0.0229061 -0.0318304 26 102 204
0.253749 0.0739794 -0.0439084 26 102 204
0.234762 0.0858404 -0.0401947 26 102 204
0.37954 0.035634 0.0707746 26 102 204
0.193329 0.117092 0.119087 26 102 204
-0.0603819 0.257728 0.123496 26 102 204
0.388465 0.00471922 0.119106 26 102 204
0.103759 0.149313 -0.0514394 26 102 204
-0.0811329 0.25539 0.131872 26 102 204
0.307307 0.0312502 -0.0278104 26 102 204
-0.0744873 0.24853 0.120492 26 102 204
-0.177646 0.307698 0.119039 26 102 204
0.226938 0.0795885 -0.0617533 26 102 204
0.347571 -0.00704192 0.129286 26 102 204
-0.183825 0.302524 0.137676 26 102 204
-0.160058 0.288047 0.131654 26 102 204
-0.0675388 0.233785 0.12608 26 102 204
-0.132684 0.288404 -0.0540414 26 102 204
-0.219442 0.277827 0.00941984 26 102 204
-0.0891352 0.209941 -0.0591796 26 102 204
0.15362 0.0876461 -0.0449109 26 102 204
0.0187568 0.163744 0.129545 26 102 204
0.213236 0.0463351 -0.0555168 26 102 204
0.203712 0.0503729 -0.0548372 26 102 204
-0.22634 0.293453 -0.0513624 26 102 204
0.240753 0.0205506 -0.0550046 26 102 204
0.337804 -0.0367693 -0.0510396 26 102 204
0.31947 -0.0299244 -0.0676521 26 102 204
0.322203 -0.000341709 -0.0691807 26 102 204
0.00252575 0.152583 0.130491 26 102 204
0.0296502 0.145059 0.129767 26 102 204
0.0237335 0.140348 0.130273 26 102 204
-0.198541 0.262821 0.127706 26 102 204
0.295211 -0.0184441 0.120941 26 102 204
-0.209606 0.259151 0.138338 26 102 204
0.134805 0.0683834 0.127629 26 102 204
-0.0341037 0.168113 0.132507 26 102 204
0.333391 -0.0395344 -0.0464345 26 102 204
0.347227 -0.0365118 0.110026 26 102 204
0.292431 -0.0213612 0.137568 26 102 204
-0.22069 0.273907 -0.0688834 26 102 204
0.283637 -0.00904704 -0.0892743 26 102 204
0.341389 -0.0498924 -0.0874523 26 102 204
0.00325806 0.141849 -0.066761 26 102 204
0.131195 0.06428 -0.0637148 26 102 204
0.0765007 0.0847857 -0.0805376 26 102 204
-0.0250004 0.160215 -0.349873 26 102 204
-0.195092 0.242743 -0.119791 26 102 204
-0.19185 0.25781 -0.121065 26 102 204
0.101679 0.0720988 -0.120834 26 102 204
-0.00204204 0.13163 -0.200263 26 102 204
0.295199 -0.0343836 -0.135197 26 102 204
-0.0425784 0.161742 -0.180068 26 102 204
-0.155548 0.221325 -0.129835 26 102 204
0.325052 -0.0539854 -0.158949 26 102 204
0.263895 -0.0158041 -0.114631 26 102 204
0.331181 -0.060652 -0.0808701 26 102 204
0.0600057 0.0935929 -0.190767 26 102 204
-0.0434491 0.148475 -0.215243 26 102 204
-0.185293 0.228328 -0.0158005 26 102 204
-0.207451 0.240729 -0.180066 26 102 204
0.313793 -0.0359107 -0.106535 26 102 204
-0.130351 0.201112 -0.151663 26 102 204
-0.168008 0.228784 -0.215803 26 102 204
-0.187117 0.247977 -0.182229 26 102 204
0.271942 -0.0360487 -0.16956 26 102 204
-0.0146306 0.141408 -0.211302 26 102 204
-0.0818512 0.172354 -0.10997 26 102 204
0.0865223 0.0706603 -0.196649 26 102 204
0.24825 -0.0185992 -0.239654 26 102 204
0.26607 -0.0321224 -0.204693 26 102 204
0.124944 0.0453673 -0.213001 26 102 204
-0.175904 0.231421 -0.178421 26 102 204
-0.136276 0.207608 -0.248058 26 102 204
0.0892077 0.0667715 -0.197723 26 102 204
0.0821509 0.0614674 -0.190649 26 102 204
0.222831 0.00477208 -0.24289 26 102 204
0.188191 0.0137489 -0.13245 26 102 204
-0.166413 0.22475 -0.226276 26 102 204
0.210295 -0.00202217 -0.146916 26 102 204
-0.176303 0.223287 0.141378 26 102 204
0.0967096 0.0612051 -0.157248 26 102 204
0.109897 0.0550291 -0.0888376 26 102 204
-0.145557 0.227505 -0.272013 26 102 204
0.207551 -0.165309 -0.272198 26 102 204
0.0662024 0.0781571 -0.106587 26 102 204
0.323522 -0.0603376 -0.032107 26 102 204
-0.1807 0.21513 -0.236955 26 102 204
-0.215944 0.239409 -0.117811 26 102 204
-0.229269 0.239156 -0.105169 26 102 204
-0.100414 0.166214 -0.112706 26 102 204
0.0348142 0.0893795 -0.26211 26 102 204
-0.138749 0.1969 -0.120875 26 102 204
-0.0840182 0.161992 -0.105764 26 102 204
-0.17374 0.217485 0.124176 26 102 204
0.309436 -0.0643796 -0.12963 26 102 204
0.242842 -0.00763478 -0.0914032 26 102 204
0.206337 -0.00469908 -0.164048 26 102 204
0.151301 0.01933 -0.140674 26 102 204
-0.108933 0.179515 -0.19933 26 102 204
0.195107 0.0187176 -0.242169 26 102 204
0.13142 0.0287311 -0.179272 26 102 204
-0.134099 0.188996 -0.204912 26 102 204
-0.207727 0.226448 -0.126205 26 102 204
0.318855 -0.0817074 -0.140988 26 102 204
-0.163575 0.20647 -0.223223 26 102 204
-0.209554 0.229515 -0.109366 26 102 204
0.11402 0.0413454 -0.157259 26 102 204
0.319099 -0.08319 -0.0376164 26 102 204
-0.165053 0.198898 -0.241422 26 102 204
0.328867 -0.0889904 0.0146499 26 102 204
-0.200041 0.198115 -0.289904 26 102 204
0.324896 -0.064398 -0.0887966 26 102 204
-0.124985 0.166401 -0.120942 26 102 204
-0.201007 0.217007 -0.250487 26 102 204
-0.0698003 0.148603 -0.324224 26 102 204
-0.0511642 0.141898 -0.173108 26 102 204
-0.12452 0.17769 -0.26628 26 102 204
0.0619076 0.0734462 -0.100668 26 102 204
-0.229896 0.225179 -0.113561 26 102 204
-0.023128 0.115746 -0.344907 26 102 204
0.31841 -0.0823929 -0.146542 26 102 204
0.190587 -0.00813685 -0.299109 26 102 204
-0.063669 0.133407 -0.0877793 26 102 204
-0.0924407 0.15093 -0.0859252 26 102 204
-0.194243 0.207629 0.135401 26 102 204
-0.144798 0.172863 -0.309222 26 102 204
0.113085 0.0277593 -0.302483 26 102 204
0.0407043 0.0732701 -0.131835 26 102 204
0.00722264 0.0942644 -0.212834 26 102 204
0.327425 -0.0909292 -0.0585138 26 102 204
0.147783 0.0293571 0.12888 26 102 204
0.053566 0.061022 -0.0753081 26 102 204
0.178734 -0.0086981 -0.0900628 26 102 204
-0.163682 0.18452 -0.0915622 26 102 204
0.328111 -0.0928929 -0.0465195 26 102 204
-0.0533447 0.127023 -0.155573 26 102 204
0.123279 0.0172248 -0.298996 26 102 204
-0.215616 0.212613 -0.12746 26 102 204
-0.190104 0.194692 -0.272757 26 102 204
-0.22006 0.209964 -0.130293 26 102 204
-0.0893126 0.137474 -0.18782 26 102 204
0.0775376 0.0438792 -0.244392 26 102 204
0.0115662 0.068183 -0.0930827 26 102 204
0.305494 -0.0878358 -0.0576889 26 102 204
0.295637 -0.0815624 -0.0976292 26 102 204
-0.112972 0.152157 -0.117503 26 102 204
0.206587 -0.0367583 -0.0892072 26 102 204
0.245459 -0.0633628 -0.172887 26 102 204
-0.13592 0.156545 -0.381986 26 102 204
-0.0040127 0.087513 -0.34878 26 102 204
0.150197 -0.00851059 -0.103757 26 102 204
0.106961 0.0214358 -0.0858632 26 102 204
0.139916 0.000771139 -0.294457 26 102 204
0.19013 -0.0311374 -0.223993 26 102 204
0.109785 0.0293425 0.126204 26 102 204
0.147358 -0.00325424 -0.223328 26 102 204
0.11554 0.0137536 -0.331229 26 102 204
0.131488 0.0025146 -0.0897577 26 102 204
0.275237 -0.0701117 -0.151483 26 102 204
0.161662 -0.013578 -0.0790263 26 102 204
0.283828 -0.056602 0.117919 26 102 204
-0.151434 0.164 -0.31169 26 102 204
-0.234904 0.210022 -0.156994 26 102 204
-0.131305 0.154483 -0.319206 26 102 204
-0.200275 0.190942 -0.052037 26 102 204
-0.0307447 0.0906095 -0.173348 26 102 204
0.097784 0.0140431 -0.232145 26 102 204
-0.204876 0.192678 -0.267513 26 102 204
-0.183761 0.174827 -0.250928 26 102 204
-0.189623 0.181351 -0.214187 26 102 204
0.022467 0.0571837 -0.201297 26 102 204
-0.146668 0.14913 -0.189411 26 102 204
0.279302 -0.0857116 0.0667267 26 102 204
-0.212993 0.183358 -0.244438 26 102 204
0.038934 0.0454174 -0.338495 26 102 204
0.288258 -0.103042 -0.329068 26 102 204
0.122967 -0.00158063 -0.245592 26 102 204
0.141973 -0.0148377 -0.327401 26 102 204
0.139082 -0.0174612 -0.355651 26 102 204
0.213341 -0.0537574 -0.241 26 102 204
0.13053 -0.00990342 -0.256683 26 102 204
-0.16211 0.157984 -0.164674 26 102 204
-0.195059 0.183093 -0.0616461 26 102 204
0.0298016 0.0471092 -0.223514 26 102 204
-0.107351 0.124736 -0.110918 26 102 204
0.29157 -0.0738184 -0.00591681 26 102 204
-0.198187 0.17177 0.051136 26 102 204
0.0182343 0.0540608 -0.273715 26 102 204
0.210463 -0.0591097 -0.0751703 26 102 204
0.312251 -0.116431 -0.073353 26 102 204
-0.186545 0.175112 0.131245 26 102 204
0.0181537 0.0457774 -0.143584 26 102 204
-0.0643546 0.100782 -0.32203 26 102 204
0.0385604 0.0345845 -0.369528 26 102 204
0.233382 -0.0781054 -0.10309 26 102 204
0.0313418 0.0400459 -0.35112 26 102 204
-0.118326 0.128138 -0.255977 26 102 204
-0.132098 0.120753 -0.292791 26 102 204
-0.130779 0.141604 -0.218771 26 102 204
-0.102178 0.116184 -0.0320626 26 102 204
0.241977 -0.0851201 -0.0920559 26 102 204
-0.101939 0.110839 -0.0755971 26 102 204
0.236544 -0.065429 -0.197701 26 102 204
0.1249 -0.027396 -0.20953 26 102 204
0.150357 -0.0324571 -0.0890883 26 102 204
-0.121862 0.128234 -0.339595 26 102 204
0.247517 -0.0869133 -0.360018 26 102 204
0.136318 -0.0239353 -0.0908191 26 102 204
0.166078 -0.0448091 -0.233556 26 102 204
0.206956 -0.0700692 -0.248607 26 102 204
0.19988 -0.0663771 -0.0935588 26 102 204
-0.059386 0.0910521 -0.346136 26 102 204
0.0838725 0.00664849 -0.113759 26 102 204
0.222397 -0.083032 -0.0869319 26 102 204
-0.0523718 0.0841388 -0.373405 26 102 204
0.227083 -0.0807904 -0.319995 26 102 204
-0.15731 0.142554 -0.139865 26 102 204
-0.23488 0.177896 0.116958 26 102 204
-0.0676849 0.0962039 -0.301856 26 102 204
0.0380141 0.0359344 -0.0973831 26 102 204
-0.0720354 0.0896425 -0.0554038 26 102 204
-0.0484454 0.0808975 -0.0875433 26 102 204
-0.138609 0.130884 -0.333555 26 102 204
-0.204242 0.157968 -0.0942434 26 102 204
0.27698 -0.116565 -0.0652393 26 102 204
-0.09112 0.106014 -0.361512 26 102 204
-0.223796 0.17906 -0.0777029 26 102 204
-0.0321611 0.0628244 -0.166239 26 102 204
-0.0668523 0.0793926 -0.0765664 26 102 204
-0.0422571 0.0673067 -0.348491 26 102 204
-0.126263 0.11772 -0.370908 26 102 204
0.261181 -0.108152 0.12004 26 102 204
-0.0667254 0.0829233 -0.0717201 26 102 204
0.161972 -0.0555922 -0.0678831 26 102 204
-0.184687 0.140733 -0.0951775 26 102 204
0.26449 -0.111696 0.0163655 26 102 204
-0.112013 0.104005 -0.336196 26 102 204
0.24109 -0.102 -0.0721687 26 102 204
0.1853 -0.0704278 -0.346243 26 102 204
-0.112953 0.119179 -0.420457 26 102 204
0.23099 -0.100564 -0.0679403 26 102 204
-0.202517 0.151599 -0.148384 26 102 204
-0.130364 0.10498 -0.382488 26 102 204
0.256898 -0.120069 0.136082 26 102 204
0.220112 -0.0995283 0.0430095 26 102 204
-0.16639 0.125272 -0.0639246 26 102 204
0.283995 -0.136844 -0.0263745 26 102 204
-0.220506 0.146643 -0.204931 26 102 204
0.15619 -0.0715602 -0.0664707 26 102 204
-0.214776 0.148571 -0.109783 26 102 204
0.19211 -0.0919838 -0.0753152 26 102 204
0.0982863 -0.0370046 0.119213 26 102 204
0.171122 -0.0832316 -0.054168 26 102 204
0.134781 -0.0711015 -0.134172 26 102 204
0.00868617 0.00305994 -0.354174 26 102 204
0.194788 -0.108318 -0.121609 26 102 204
0.219583 -0.110041 -0.0725076 26 102 204
0.156057 -0.083427 -0.0730999 26 102 204
0.211371 -0.116752 -0.106774 26 102 204
0.161828 -0.0908845 0.134768 26 102 204
-0.148878 0.0952169 -0.420073 26 102 204
0.214924 -0.116447 -0.161572 26 102 204
-0.217693 0.129959 -0.191305 26 102 204
-0.206851 0.127425 -0.0809403 26 102 204
-0.198115 0.116682 -0.339483 26 102 204
0.250758 -0.133745 -0.06764 26 102 204
-0.229264 0.135781 -0.171207 26 102 204
0.247601 -0.145551 -0.179514 26 102 204
-0.213687 0.126078 -0.320524 26 102 204
-0.0373223 0.0187828 -0.0670055 26 102 204
0.225055 -0.127834 -0.107175 26 102 204
-0.144248 0.0961424 -0.360296 26 102 204
-0.18949 0.108498 -0.335017 26 102 204
-0.0820467 0.0515218 -0.382395 26 102 204
0.257861 -0.147079 -0.00865736 26 102 204
0.240226 -0.145304 -0.149187 26 102 204
0.254872 -0.148344 0.0464657 26 102 204
-0.257181 0.139899 -0.124044 26 102 204
-0.107501 0.0556144 -0.363558 26 102 204
-0.242606 0.127606 0.121618 26 102 204
0.260732 -0.163371 0.126741 26 102 204
-0.230723 0.120897 0.138373 26 102 204
-0.24819 0.130595 -0.119744 26 102 204
0.249618 -0.143452 0.122963 26 102 204
0.0530549 -0.038555 -0.0703186 26 102 204
0.200422 -0.123614 -0.0959548 26 102 204
-0.283442 0.14582 -0.0182129 26 102 204
0.190472 -0.12767 -0.0972226 26 102 204
-0.101141 0.0472116 -0.126831 26 102 204
0.0711472 -0.0603409 -0.0616604 26 102 204
-0.11706 0.0492598 -0.057021 26 102 204
-0.268139 0.13599 -0.0206194 26 102 204
-0.247887 0.12277 -0.234197 26 102 204
-0.191774 0.0879733 -0.260628 26 102 204
-0.266614 0.105694 0.115479 26 102 204
-0.246313 0.119367 -0.14678 26 102 204
0.193313 -0.132565 -0.0119765 26 102 204
-0.17456 0.0776902 -0.333676 26 102 204
-0.198111 -0.207803 0.0757603 26 102 204
-0.148479 0.057614 -0.370388 26 102 204
0.0807298 -0.0713979 -0.170274 26 102 204
0.0223875 -0.0398407 -0.341515 26 102 204
0.0399116 -0.0519409 -0.124841 26 102 204
-0.0256291 -0.148252 -0.0824362 26 102 204
0.102375 -0.0856379 -0.21062 26 102 204
-0.0129242 -0.0204539 -0.308405 26 102 204
-0.302049 0.139331 -0.050452 26 102 204
-0.0868205 0.0210381 -0.273496 26 102 204
-0.0306601 -0.00966327 -0.0747727 26 102 204
0.248109 -0.17072 -0.0581829 26 102 204
0.269264 -0.181429 0.0752213 26 102 204
0.0660495 -0.0712003 -0.283541 26 102 204
0.039313 -0.0568625 0.127586 26 102 204
0.00704511 -0.0371741 -0.108217 26 102 204
-0.311553 0.144851 0.114139 26 102 204
-0.187946 0.0637866 -0.213532 26 102 204
-0.0737105 -0.00220957 -0.191641 26 102 204
0.0197428 -0.0505749 -0.0871613 26 102 204
-0.00111291 -0.035138 0.110143 26 102 204
-0.121561 0.0212864 -0.0659959 26 102 204
-0.000657856 -0.0455909 0.126378 26 102 204
-0.247125 0.0995751 0.0254518 26 102 204
0.0631629 -0.0813467 -0.0410181 26 102 204
-0.234 0.0851793 -0.0604684 26 102 204
0.264881 -0.190694 -0.0884495 26 102 204
-0.187541 0.0450953 -0.0635279 26 102 204
0.0781684 -0.103072 -0.047461 26 102 204
-0.236098 0.0850546 -0.0583464 26 102 204
-0.305478 0.121598 0.00459386 26 102 204
-0.181849 0.05085 -0.0590298 26 102 204
-0.219825 0.0691617 -0.08069 26 102 204
0.175386 -0.167978 -0.0513009 26 102 204
-0.168327 0.0402098 -0.0659199 26 102 204
-0.306836 0.118749 -0.0754748 26 102 204
-0.0242342 -0.0424802 -0.0390964 26 102 204
-0.178652 0.0421176 0.130808 26 102 204
-0.197778 0.0623823 0.124843 26 102 204
-0.268563 0.0935257 -0.0331215 26 102 204
-0.268253 0.0910384 -0.066007 26 102 204
0.178673 -0.165405 -0.0384284 26 102 204
0.0852471 -0.111759 -0.0513904 26 102 204
0.0132233 -0.0701136 -0.0407081 26 102 204
-0.0971979 -0.0119699 0.127274 26 102 204
0.0982366 -0.12225 0.12142 26 102 204
-0.312515 0.11412 0.0513795 26 102 204
0.169137 -0.163865 -0.045268 26 102 204
0.0857089 -0.118329 0.117084 26 102 204
0.200608 -0.179923 -0.0433657 26 102 204
-0.265196 0.0817201 0.141971 26 102 204
-0.0464913 -0.0437106 -0.0470419 26 102 204
0.132024 -0.145018 0.129597 26 102 204
-0.296726 0.101886 -0.0164886 26 102 204
-0.277321 0.0901715 0.114428 26 102 204
0.205736 -0.18607 -0.0361782 26 102 204
0.0835428 -0.120351 -0.0484597 26 102 204
-0.146717 0.0152493 0.125827 26 102 204
-0.167861 0.0188145 -0.0416315 26 102 204
0.175118 -0.172496 -0.0484231 26 102 204
0.168926 -0.163685 0.116485 26 102 204
0.0901737 -0.130745 0.120754 26 102 204
-0.0791037 -0.0443344 0.123779 26 102 204
0.233992 -0.214032 -0.0172936 26 102 204
-0.307994 0.0894232 0.140021 26 102 204
-0.115082 -0.0202904 -0.036475 26 102 204
-0.167694 0.0114006 0.117997 26 102 204
0.143919 -0.175072 0.119948 26 102 204
0.235444 -0.217315 0.0780958 26 102 204
-0.245445 0.0516544 -0.00119388 26 102 204
-0.313406 0.0849209 0.133241 26 102 204
-0.0244229 -0.0872456 0.119373 26 102 204
0.213768 -0.216527 0.0283237 26 102 204
0.239325 -0.23315 0.100455 26 102 204
-0.317625 0.0807321 0.106746 26 102 204
0.238471 -0.225585 0.0749815 26 102 204
-0.277898 0.0609488 0.00193658 26 102 204
-0.0171322 -0.0846768 0.118738 26 102 204
-0.317007 0.078103 -0.0389133 26 102 204
0.236883 -0.234761 -0.0265047 26 102 204
0.140513 -0.184103 0.112109 26 102 204
-0.292638 0.0676405 0.123274 26 102 204
0.227505 -0.231448 0.112954 26 102 204
0.217173 -0.233232 0.101224 26 102 204
0.149301 -0.181822 -0.0529268 26 102 204
-0.203572 0.00961885 -0.04304 26 102 204
-0.20524 0.011904 -0.0490166 26 102 204
-0.257689 0.03878 0.194913 26 102 204
0.201397 -0.223439 -0.0311939 26 102 204
-0.325089 0.0712445 0.00293454 26 102 204
-0.0668373 -0.0744447 0.118645 26 102 204
-0.129489 -0.0343011 -0.0332735 26 102 204
-0.304829 0.051761 0.110058 26 102 204
-0.0349311 -0.0910861 -0.0444123 26 102 204
0.242493 -0.248101 -0.0627545 26 102 204
-0.034959 -0.097544 -0.0395317 26 102 204
-0.312126 0.0604354 0.136766 26 102 204
-0.145676 -0.0424221 0.123192 26 102 204
0.177514 -0.207497 -0.0295217 26 102 204
0.219513 -0.242059 0.0554732 26 102 204
0.203477 -0.236428 0.115397 26 102 204
0.168283 -0.207519 0.0887052 26 102 204
0.141225 -0.198524 0.111461 26 102 204
0.0303641 -0.146919 0.113419 26 102 204
0.0580424 -0.150783 0.10572 26 102 204
0.0234064 -0.140857 0.117794 26 102 204
-0.16444 -0.032993 0.0060011 26 102 204
0.219974 -0.255937 -0.0343283 26 102 204
0.0115046 -0.136021 0.123995 26 102 204
0.191617 -0.241061 -0.0570325 26 102 204
0.0203983 -0.145543 -0.0397167 26 102 204
0.0609554 -0.171549 -0.0345426 26 102 204
-0.313647 0.0454208 -0.102657 26 102 204
-0.318181 0.0453325 -0.0327061 26 102 204
0.214398 -0.250932 0.0461417 26 102 204
-0.224815 -0.00860407 -0.0342392 26 102 204
-0.201805 -0.0222785 -0.0394542 26 102 204
0.212353 -0.256798 0.0573934 26 102 204
0.214111 -0.254576 -0.00362836 26 102 204
-0.251882 0.00526452 -0.0376063 26 102 204
-0.260844 0.0044254 0.113649 26 102 204
-0.0387835 -0.124186 -0.0319764 26 102 204
-0.330494 0.0440974 0.137107 26 102 204
-0.226367 -0.0169707 0.119226 26 102 204
-0.366972 -0.136078 -0.00802727 26 102 204
0.215865 -0.266185 0.0311064 26 102 204
0.217642 -0.267305 0.0872604 26 102 204
0.0528544 -0.182406 -0.0371857 26 102 204
-0.155459 -0.0648562 -0.0359412 26 102 204
-0.034298 -0.130345 0.122122 26 102 204
0.144702 -0.236151 0.118679 26 102 204
-0.327144 0.02786 0.0912101 26 102 204
0.132546 -0.228125 0.133852 26 102 204
-0.0385536 -0.138346 0.122999 26 102 204
0.145842 -0.241785 -0.0394882 26 102 204
-0.150329 -0.0759465 0.127129 26 102 204
0.200195 -0.27924 0.0034196 26 102 204
-0.211596 -0.044306 -0.0348562 26 102 204
0.0134876 -0.174785 0.140865 26 102 204
-0.239366 -0.0346987 0.121889 26 102 204
-0.0967721 -0.108301 0.122185 26 102 204
0.103749 -0.228784 0.0304628 26 102 204
0.0315087 -0.19654 -0.0318844 26 102 204
-0.356122 0.0284844 0.0781779 26 102 204
-0.350703 0.0283546 0.0980223 26 102 204
0.058933 -0.209809 -0.0343689 26 102 204
-0.280418 -0.0147283 0.132154 26 102 204
0.18001 -0.27779 -0.0531782 26 102 204
-0.0244138 -0.165761 -0.0406029 26 102 204
-0.355554 0.0245756 0.088943 26 102 204
-0.191118 -0.074423 -0.0306797 26 102 204
-0.357356 0.0160606 0.154175 26 102 204
-0.160548 -0.0911672 0.127728 26 102 204
0.0229121 -0.197183 -0.0355146 26 102 204
-0.345304 0.00693066 -0.0299593 26 102 204
-0.363448 0.0145663 0.0168002 26 102 204
-0.0439901 -0.162917 0.125644 26 102 204
0.169855 -0.287333 0.0195728 26 102 204
0.197362 -0.29767 0.0457325 26 102 204
0.194411 -0.296556 0.118525 26 102 204
-0.353315 0.00707542 0.13344 26 102 204
-0.0562285 -0.16308 -0.0353379 26 102 204
0.174295 -0.291839 -0.0273919 26 102 204
0.122708 -0.264012 0.128245 26 102 204
-0.0338819 -0.174217 0.125112 26 102 204
0.174559 -0.297854 -0.0425965 26 102 204
0.187873 -0.302187 0.12252 26 102 204
-0.225557 -0.0731115 0.138107 26 102 204
-0.376436 0.0120464 0.188437 26 102 204
0.147785 -0.283203 0.139169 26 102 204
0.198331 -0.297707 0.148386 26 102 204
0.168269 -0.301388 0.146825 26 102 204
-0.359899 -0.00869794 0.0629603 26 102 204
-0.370116 0.00200554 0.0526469 26 102 204
0.172959 -0.306095 -0.0246724 26 102 204
-0.348543 -0.0197315 -0.0166557 26 102 204
0.168657 -0.306669 0.115632 26 102 204
-0.353142 -0.00631572 0.233009 26 102 204
-0.345892 -0.0158342 0.215823 26 102 204
0.146061 -0.289879 -0.0278263 26 102 204
0.139712 -0.295246 0.211494 26 102 204
-0.344214 -0.0239339 0.229391 26 102 204
0.168562 -0.317794 0.0231267 26 102 204
-0.00190609 -0.216958 -0.0392277 26 102 204
-0.382537 -0.00509706 0.27858 26 102 204
-0.366897 -0.019086 0.157721 26 102 204
0.150861 -0.307611 0.230572 26 102 204
0.174804 -0.311567 -0.0489424 26 102 204
-0.0264993 -0.212919 -0.0282311 26 102 204
0.175167 -0.321836 0.168982 26 102 204
-0.258374 -0.0781308 -0.0408315 26 102 204
0.133578 -0.298129 0.105051 26 102 204
-0.0056606 -0.228842 0.127939 26 102 204
0.171212 -0.324066 -0.0336111 26 102 204
-0.367449 -0.0241777 0.192019 26 102 204
-0.349904 -0.0230623 0.151087 26 102 204
-0.383675 -0.0134082 0.158873 26 102 204
0.166612 -0.323153 -0.0259324 26 102 204
-0.108474 -0.173497 0.133133 26 102 204
0.063762 -0.270429 -0.025208 26 102 204
-0.382431 -0.0249384 0.177693 26 102 204
-0.323447 -0.0707996 0.120886 26 102 204
0.0520819 -0.279978 0.136908 26 102 204
0.0437177 -0.276059 -0.0374752 26 102 204
-0.380296 -0.0329282 0.0774389 26 102 204
-0.368199 -0.0411124 -0.00267509 26 102 204
-0.334349 -0.0619471 0.131608 26 102 204
0.143463 -0.33829 0.0745368 26 102 204
-0.388243 -0.0323344 0.0377617 26 102 204
-0.379281 -0.0400111 -0.032911 26 102 204
-0.3852 -0.032682 0.151046 26 102 204
-0.348313 -0.0579145 -0.0396431 26 102 204
0.0806484 -0.299086 -0.0441161 26 102 204
-0.0378292 -0.235171 -0.0268218 26 102 204
-0.388248 -0.0330911 -0.0240849 26 102 204
-0.0384432 -0.238679 -0.028688 26 102 204
-0.33701 -0.0675459 0.107476 26 102 204
-0.301641 -0.0849429 -0.0303059 26 102 204
-0.38129 -0.0433738 0.038117 26 102 204
-0.0533388 -0.235578 -0.0265194 26 102 204
-0.310608 -0.0877365 -0.0305606 26 102 204
-0.117009 -0.199647 0.109278 26 102 204
0.151936 -0.354395 0.120711 26 102 204
0.114154 -0.326892 0.0445484 26 102 204
-0.110505 -0.20688 -0.0323457 26 102 204
0.0307052 -0.266258 0.116424 26 102 204
-0.380608 -0.0517201 -0.0275382 26 102 204
-0.196943 -0.150806 -0.0299194 26 102 204
-0.379045 -0.0598494 -0.0302421 26 102 204
-0.211799 -0.152373 -0.0293347 26 102 204
-0.387333 -0.0573089 0.0857479 26 102 204
0.151289 -0.348652 -0.166622 26 102 204
-0.303604 -0.103791 0.122364 26 102 204
-0.0596923 -0.247135 -0.0342733 26 102 204
0.0888239 -0.301445 -0.220641 26 102 204
-0.294369 -0.112045 -0.0321233 26 102 204
0.157713 -0.359259 -0.0799914 26 102 204
-0.287947 -0.120822 0.0129251 26 102 204
-0.140368 -0.207073 -0.0280954 26 102 204
-0.334056 -0.0909834 0.104599 26 102 204
0.0561803 -0.322806 0.108656 26 102 204
-0.259196 -0.140051 -0.0269075 26 102 204
0.132907 -0.353309 -0.0101251 26 102 204
0.0532223 -0.316095 0.111683 26 102 204
-0.224665 -0.163623 0.121059 26 102 204
0.0565905 -0.329388 -0.0206655 26 102 204
-0.169244 -0.196142 0.111302 26 102 204
-0.151633 -0.206464 -0.0287326 26 102 204
0.143954 -0.370968 0.00689233 26 102 204
0.118422 -0.354915 -0.10712 26 102 204
-0.409458 -0.0580201 0.0880967 26 102 204
0.134669 -0.370073 -0.0131976 26 102 204
0.0257477 -0.306445 0.109473 26 102 204
-0.182546 -0.19235 0.108524 26 102 204
-0.385628 -0.0767528 0.103643 26 102 204
-0.276816 -0.138339 -0.0235039 26 102 204
0.105162 -0.370953 0.0920141 26 102 204
-0.143522 -0.224257 0.112659 26 102 204
0.0291828 -0.30823 0.119664 26 102 204
-0.0225998 -0.289452 0.128726 26 102 204
-0.215829 -0.183458 -0.0183965 26 102 204
-0.0495994 -0.284151 -0.0225901 26 102 204
0.0105111 -0.306273 -0.0236206 26 102 204
-0.411568 -0.0817197 0.0181515 26 102 204
-0.000705688 -0.313016 -0.0184657 26 102 204
-0.349357 -0.123673 -0.00855588 26 102 204
-0.174152 -0.214202 -0.0228122 26 102 204
0.0545216 -0.332852 0.0617955 26 102 204
0.146508 -0.390891 0.0572492 26 102 204
-0.0860786 -0.264336 0.115079 26 102 204
-0.388312 -0.0957146 -0.0191152 26 102 204
-0.276688 -0.166074 0.114003 26 102 204
-0.363678 -0.115037 -0.025217 26 102 204
-0.353196 -0.122489 -0.0222433 26 102 204
-0.397622 -0.110928 0.0934746 26 102 204
-0.235546 -0.185663 -0.0222797 26 102 204
-0.313927 -0.138698 0.1089 26 102 204
-0.0532136 -0.294513 -0.0198868 26 102 204
-0.0507608 -0.295959 -0.036364 26 102 204
-0.389229 -0.100498 -0.0366061 26 102 204
0.00675092 -0.329368 0.110377 26 102 204
-0.41018 -0.0916327 0.0635939 26 102 204
0.127613 -0.395845 0.106003 26 102 204
-0.0297122 -0.305937 0.0884979 26 102 204
0.0694898 -0.358271 0.0743229 26 102 204
0.131708 -0.405061 0.140292 26 102 204
-0.0128477 -0.325661 0.10176 26 102 204
-0.138585 -0.247134 -0.0241983 26 102 204
-0.347517 -0.133214 0.0943971 26 102 204
-0.389654 -0.111429 0.0269356 26 102 204
-0.0793164 -0.287798 0.11982 26 102 204
-0.293389 -0.172113 -0.0157532 26 102 204
0.0830184 -0.384819 0.10182 26 102 204
0.103435 -0.385481 0.109474 26 102 204
-0.303058 -0.164146 0.0942346 26 102 204
-0.405159 -0.107913 0.0741106 26 102 204
0.0251147 -0.35327 0.045064 26 102 204
-0.250641 -0.206189 0.101205 26 102 204
-0.202421 -0.22529 0.1139 26 102 204
-0.292801 -0.177562 0.0492536 26 102 204
-0.299338 -0.202756 0.00406307 26 102 204
-0.274674 -0.190624 -0.0156619 26 102 204
-0.265128 -0.19607 -0.0189555 26 102 204
-0.389225 -0.122021 0.128088 26 102 204
-0.111824 -0.297871 -0.000714755 26 102 204
-0.352148 -0.154544 0.0541894 26 102 204
-0.129677 -0.287911 -0.0205006 26 102 204
-0.350345 -0.153305 0.0141855 26 102 204
-0.294322 -0.21284 0.111004 26 102 204
-0.410556 -0.131045 0.0810526 26 102 204
-0.178266 -0.263201 0.0195291 26 102 204
0.089649 -0.408011 0.00396562 26 102 204
-0.125062 -0.292182 -0.00618853 26 102 204
-0.404558 -0.14648 0.117513 26 102 204
-0.347422 -0.17051 0.0337139 26 102 204
0.00807684 -0.366521 0.0222753 26 102 204
0.0745838 -0.403629 0.0140611 26 102 204
0.0734867 -0.398234 -0.0076604 26 102 204
-0.356949 -0.154778 0.1146 26 102 204
-0.0267658 -0.352548 0.00403585 26 102 204
-0.212613 -0.239006 0.000462657 26 102 204
0.0643879 -0.403441 -0.00499795 26 102 204
-0.0153517 -0.35667 0.110836 26 102 204
-0.214117 -0.255007 0.109393 26 102 204
-0.172297 -0.270347 0.000479047 26 102 204
-0.0940604 -0.303937 0.104831 26 102 204
-0.150894 -0.281843 0.101465 26 102 204
-0.350754 -0.163647 0.141822 26 102 204
0.0760812 -0.417378 -0.0128748 26 102 204
-0.0433636 -0.345203 -0.00309048 26 102 204
0.0481107 -0.394546 0.00405397 26 102 204
0.0363793 -0.393459 0.0982774 26 102 204
-0.420094 -0.132636 0.124359 26 102 204
-0.00289048 -0.372492 -0.00205562 26 102 204
-0.354187 -0.17614 0.112336 26 102 204
-0.15469 -0.289776 0.0080804 26 102 204
0.0833728 -0.430523 0.100088 26 102 204
-0.0323191 -0.358228 0.0151144 26 102 204
0.0918322 -0.427868 0.114218 26 102 204
-0.00698342 -0.378002 0.0142777 26 102 204
-0.321399 -0.196436 0.124664 26 102 204
0.0876903 -0.429226 0.146753 26 102 204
-0.430573 -0.142614 0.0171691 26 102 204
-0.0532561 -0.364197 0.107805 26 102 204
-0.082606 -0.345951 0.115139 26 102 204
-0.390874 -0.16608 -0.126681 26 102 204
-0.0349856 -0.368146 0.097827 26 102 204
-0.429979 -0.150587 0.066495 26 102 204
0.0393347 -0.424518 0.128437 26 102 204
-0.39008 -0.168812 0.118257 26 102 204
0.100316 -0.453017 0.0285356 26 102 204
-0.39929 -0.17298 0.00715874 26 102 204
-0.101278 -0.349493 0.0192666 26 102 204
-0.408906 -0.214181 0.0445154 26 102 204
-0.155377 -0.309972 0.103214 26 102 204
-0.112059 -0.340187 0.0134995 26 102 204
-0.283642 -0.25911 0.0331953 26 102 204
0.103867 -0.453844 0.0314442 26 102 204
-0.00644336 -0.401177 0.0158452 26 102 204
-0.379165 -0.193929 0.0073093 26 102 204
-0.126252 -0.335659 0.0291842 26 102 204
-0.293339 -0.221248 0.0174467 26 102 204
0.119898 -0.458635 0.0955904 26 102 204
-0.268281 -0.261047 0.0793203 26 102 204
-0.0339221 -0.382864 0.0132893 26 102 204
-0.408051 -0.177734 0.111144 26 102 204
-0.0673565 -0.377591 0.0752218 26 102 204
0.0284321 -0.432813 0.047019 26 102 204
-0.102503 -0.36057 0.0274045 26 102 204
0.0961265 -0.460573 0.120665 26 102 204
0.0453693 -0.443121 0.0977632 26 102 204
-0.16013 -0.328041 0.0844586 26 102 204
-0.168649 -0.325394 0.0210876 26 102 204
-0.0056866 -0.405191 0.121716 26 102 204
0.0106723 -0.416995 0.118557 26 102 204
-0.416702 -0.191086 0.0404769 26 102 204
-0.143029 -0.36074 -0.000902863 26 102 204
-0.108508 -0.375605 0.0912025 26 102 204
-0.102727 -0.372638 0.0266057 26 102 204
0.0177107 -0.434987 0.12768 26 102 204
0.104688 -0.468691 0.0572269 26 102 204
-0.197688 -0.309891 0.0656957 26 102 204
0.0431962 -0.45675 0.0739245 26 102 204
-0.0117683 -0.414908 0.0949201 26 102 204
-0.255892 -0.285324 0.0418738 26 102 204
0.014444 -0.438844 0.0545503 26 102 204
-0.187602 -0.343224 0.0751938 26 102 204
-0.268518 -0.281764 0.097048 26 102 204
-0.386207 -0.21266 0.0551076 26 102 204
-0.317053 -0.251354 0.103536 26 102 204
-0.270968 -0.287285 0.0659785 26 102 204
-0.17465 -0.337428 0.0594317 26 102 204
-0.262105 -0.284974 0.116646 26 102 204
0.074456 -0.47491 0.106684 26 102 204
-0.446572 -0.184991 0.0873584 26 102 204
-0.125529 -0.369765 0.0791749 26 102 204
-0.169536 -0.338188 0.0874564 26 102 204
-0.331093 -0.253029 0.0657926 26 102 204
-0.285505 -0.290147 0.135331 26 102 204
-0.106099 -0.388942 0.0644615 26 102 204
-0.409012 -0.20632 0.0701898 26 102 204
0.0625157 -0.47166 0.117123 26 102 204
-0.0428598 -0.417034 0.114101 26 102 204
-0.363711 -0.238421 0.106372 26 102 204
-0.0215092 -0.431852 0.115479 26 102 204
-0.0908268 -0.400127 0.122121 26 102 204
-0.217167 -0.3258 0.0572421 26 102 204
-0.437941 -0.201422 0.0577148 26 102 204
-0.452659 -0.172495 -0.0120533 26 102 204
-0.42348 -0.218969 0.0557427 26 102 204
0.0408511 -0.463943 0.133922 26 102 204
0.0397799 -0.465588 0.115071 26 102 204
-0.397431 -0.228601 0.0794505 26 102 204
0.0717151 -0.485521 0.13026 26 102 204
-0.383984 -0.235622 0.134913 26 102 204
-0.435232 -0.204196 0.0764534 26 102 204
-0.341621 -0.25688 0.0858146 26 102 204
-0.0373641 -0.437417 0.0661463 26 102 204
-0.161546 -0.363093 0.113313 26 102 204
-0.263165 -0.325377 0.114983 26 102 204
-0.186307 -0.34909 0.0695478 26 102 204
-0.016268 -0.451409 0.110138 26 102 204
-0.396184 -0.247466 0.0547683 26 102 204
-0.109063 -0.404375 0.0687601 26 102 204
-0.0200671 -0.458211 0.112843 26 102 204
-0.157504 -0.390923 0.131663 26 102 204
-0.292491 -0.325782 0.0626383 26 102 204
-0.257833 -0.327244 0.119998 26 102 204
-0.456274 -0.212507 0.0731233 26 102 204
-0.211638 -0.348001 0.0684846 26 102 204
-0.157514 -0.387698 0.101939 26 102 204
0.0185545 -0.499313 0.12887 26 102 204
-0.331404 -0.299154 0.0819477 26 102 204
-0.00594784 -0.475552 0.0764186 26 102 204
-0.387957 -0.256521 0.0669576 26 102 204
-0.236106 -0.358259 0.0732503 26 102 204
-0.244655 -0.363707 0.0772061 26 102 204
-0.00432841 -0.473225 0.093395 26 102 204
-0.397216 -0.264722 0.123586 26 102 204
-0.196848 -0.375375 0.10015 26 102 204
-0.0050793 -0.485218 0.103996 26 102 204
0.0303157 -0.499305 0.0777232 26 102 204
-0.189556 -0.372531 0.106807 26 102 204
0.0691004 -0.513651 0.0874782 26 102 204
-0.226037 -0.359318 0.0871825 26 102 204
-0.357187 -0.288053 0.108035 26 102 204
-0.251374 -0.354185 0.109635 26 102 204
-0.474647 -0.218242 0.09191 26 102 204
-0.467612 -0.223095 0.109739 26 102 204
-0.352825 -0.289619 0.0943974 26 102 204
-0.299275 -0.293847 0.0881672 26 102 204
-0.258017 -0.335554 0.123804 26 102 204
-0.206407 -0.369525 0.10817 26 102 204
-0.172934 -0.392263 0.103933 26 102 204
-0.0220289 -0.472566 0.0998148 26 102 204
-0.404436 -0.267068 0.12474 26 102 204
-0.333684 -0.298963 0.102709 26 102 204
-0.447703 -0.241346 0.119166 26 102 204
