ply
format ascii 1.0
comment Created by Open3D
element vertex 1024
property double x
property double y
property double z
property uchar red
property uchar green
property uchar blue
end_header
-0.0566016 -0.364888 -0.304441 26 102 204
-0.0540078 -0.362172 -0.318142 26 102 204
-0.0515785 -0.361119 -0.398789 26 102 204
-0.0588761 -0.356633 -0.235636 26 102 204
-0.0694687 -0.357691 0.102732 26 102 204
-0.0621255 -0.362051 0.133001 26 102 204
-0.0614854 -0.357759 -0.291136 26 102 204
-0.0339266 -0.354756 -0.351922 26 102 204
-0.0603026 -0.354699 0.263992 26 102 204
-0.0704244 -0.349206 0.117877 26 102 204
-0.0662748 -0.349659 -0.154751 26 102 204
-0.0774131 -0.340193 -0.451971 26 102 204
-0.07877 -0.339819 -0.00587526 26 102 204
-0.0922121 -0.335616 -0.361624 26 102 204
-0.0781663 -0.333672 0.449145 26 102 204
-0.0928675 -0.326867 0.436905 26 102 204
-0.0865952 -0.332902 0.179887 26 102 204
-0.0928625 -0.325912 0.210092 26 102 204
-0.0887262 -0.321344 -0.271447 26 102 204
-0.10096 -0.308595 -0.325492 26 102 204
-0.115466 -0.295913 -0.394102 26 102 204
-0.128007 -0.280733 -0.375947 26 102 204
-0.156463 -0.238528 -0.418572 26 102 204
-0.148507 -0.252112 -0.463643 26 102 204
-0.174762 -0.229127 -0.291467 26 102 204
-0.171766 -0.223095 -0.462943 26 102 204
-0.194953 -0.212303 -0.351059 26 102 204
-0.229291 -0.158846 0.403687 26 102 204
-0.256831 -0.136062 -0.454274 26 102 204
-0.241887 -0.141217 -0.469792 26 102 204
-0.256746 -0.124029 -0.410971 26 102 204
-0.27392 -0.112809 0.443918 26 102 204
-0.304696 -0.0689559 0.187193 26 102 204
-0.310406 -0.0657865 0.331597 26 102 204
-0.315926 -0.060821 0.209425 26 102 204
-0.317133 -0.0623305 -0.24311 26 102 204
-0.329458 -0.0552015 -0.415573 26 102 204
-0.324056 -0.0586663 -0.0974381 26 102 204
-0.333701 -0.0549774 0.056162 26 102 204
-0.327687 -0.0522745 0.237697 26 102 204
-0.32605 -0.0526798 0.425196 26 102 204
-0.329217 -0.0464381 0.322651 26 102 204
-0.324447 -0.0465543 0.301243 26 102 204
-0.330481 -0.0466997 0.104677 26 102 204
-0.332507 -0.0429972 0.292898 26 102 204
-0.336608 -0.0489589 0.316361 26 102 204
-0.338086 -0.0367525 -0.388402 26 102 204
-0.344113 -0.0298552 -0.460106 26 102 204
-0.3481 -0.0377585 0.0380375 26 102 204
-0.347316 -0.0295378 -0.446671 26 102 204
-0.347944 -0.0215639 0.401397 26 102 204
-0.343952 -0.0286491 -0.36319 26 102 204
-0.349017 -0.0234835 0.12808 26 102 204
-0.353483 -0.0191461 0.453543 26 102 204
-0.346317 -0.0188629 0.251225 26 102 204
-0.350084 -0.0243302 0.12769 26 102 204
-0.351468 -0.0168395 0.0953252 26 102 204
-0.35005 -0.0245453 0.127681 26 102 204
-0.345356 -0.0306743 0.250222 26 102 204
-0.346324 -0.0275914 -0.144928 26 102 204
-0.351913 -0.0139985 -0.109619 26 102 204
-0.349781 -0.0219979 0.110694 26 102 204
-0.331004 -0.0350579 0.0705256 26 102 204
-0.351275 -0.0213415 0.137374 26 102 204
-0.355816 0.00279495 0.091834 26 102 204
-0.355974 -0.0122582 -0.500657 26 102 204
-0.344827 -0.0247342 -0.23717 26 102 204
-0.230183 -0.161873 -0.498947 26 102 204
-0.313714 -0.0525197 -0.490423 26 102 204
-0.355893 -0.00467718 0.189875 26 102 204
-0.0654981 -0.354273 -0.329864 26 102 204
-0.354074 -0.0065184 0.369992 26 102 204
-0.358194 -0.0103805 0.131309 26 102 204
-0.103301 -0.294968 -0.498278 26 102 204
-0.0674953 -0.331839 -0.493498 26 102 204
-0.352693 -0.00502598 0.267687 26 102 204
-0.344358 -0.0132374 0.0288446 26 102 204
-0.0334006 -0.372062 -0.0703299 26 102 204
-0.341167 -0.0121219 -0.00260306 26 102 204
-0.354548 -0.0203402 0.146241 26 102 204
-0.0481321 -0.356329 -0.462369 26 102 204
-0.0703949 -0.338759 0.492946 26 102 204
-0.0525749 -0.351689 -0.432867 26 102 204
-0.126395 -0.266009 -0.504205 26 102 204
-0.0426416 -0.36028 0.112196 26 102 204
-0.0602181 -0.348328 -0.441541 26 102 204
-0.0476464 -0.352313 -0.35705 26 102 204
-0.0586104 -0.348854 0.326951 26 102 204
-0.0600809 -0.342571 0.27234 26 102 204
-0.0692944 -0.335513 0.25487 26 102 204
-0.0718892 -0.330404 0.200422 26 102 204
-0.0810377 -0.323788 -0.107584 26 102 204
-0.0734681 -0.319622 -0.394145 26 102 204
-0.0777267 -0.324258 -0.419614 26 102 204
-0.0875726 -0.313886 -0.419628 26 102 204
-0.0828193 -0.317235 -0.362656 26 102 204
-0.0935625 -0.307655 -0.384988 26 102 204
-0.0968426 -0.307472 0.200244 26 102 204
-0.091348 -0.305595 0.0658465 26 102 204
-0.105449 -0.300761 0.449131 26 102 204
-0.106435 -0.293607 0.250469 26 102 204
-0.0957588 -0.297559 0.339591 26 102 204
-0.112828 -0.289973 0.00428751 26 102 204
-0.113845 -0.287085 -0.45213 26 102 204
-0.107357 -0.285994 -0.0167982 26 102 204
-0.125688 -0.271986 0.00630116 26 102 204
-0.116476 -0.27467 -0.0430387 26 102 204
-0.136703 -0.264956 0.142545 26 102 204
-0.126215 -0.26838 0.353982 26 102 204
-0.132315 -0.260406 0.170546 26 102 204
-0.137194 -0.256361 0.332108 26 102 204
-0.138256 -0.257035 0.419394 26 102 204
-0.143372 -0.247289 0.112754 26 102 204
-0.14336 -0.248334 0.30257 26 102 204
-0.130903 -0.256784 0.462874 26 102 204
-0.146267 -0.249944 -0.281576 26 102 204
-0.150976 -0.241187 0.457123 26 102 204
-0.143096 -0.246167 0.310185 26 102 204
-0.151043 -0.241286 0.0930382 26 102 204
-0.153891 -0.240985 -0.509137 26 102 204
-0.153201 -0.232514 -0.0706589 26 102 204
-0.156413 -0.238073 0.156646 26 102 204
-0.159019 -0.230105 -0.273938 26 102 204
-0.163412 -0.233418 -0.264431 26 102 204
-0.162494 -0.227494 -0.0825205 26 102 204
-0.163851 -0.223068 0.170348 26 102 204
-0.172488 -0.227158 -0.35705 26 102 204
-0.174818 -0.216724 -0.405723 26 102 204
-0.173977 -0.218218 -0.0821976 26 102 204
-0.178436 -0.213285 0.0594711 26 102 204
-0.179935 -0.211399 0.364875 26 102 204
-0.185815 -0.202354 0.0858866 26 102 204
-0.186015 -0.201797 0.0869738 26 102 204
-0.18805 -0.20032 -0.282672 26 102 204
-0.189275 -0.19427 0.482765 26 102 204
-0.194161 -0.190535 0.248248 26 102 204
-0.198062 -0.186635 0.0441984 26 102 204
-0.202543 -0.182382 -0.474484 26 102 204
-0.209996 -0.179227 -0.466643 26 102 204
-0.203017 -0.183745 0.174073 26 102 204
-0.2143 -0.178853 -0.190032 26 102 204
-0.211453 -0.174127 -0.343013 26 102 204
-0.206658 -0.177028 0.0607645 26 102 204
-0.208923 -0.174034 0.493212 26 102 204
-0.214386 -0.171051 -0.17515 26 102 204
-0.21098 -0.174348 0.247318 26 102 204
-0.21549 -0.16666 0.110441 26 102 204
-0.228177 -0.16266 0.376454 26 102 204
-0.216277 -0.163898 -0.386542 26 102 204
-0.215672 -0.16494 0.2141 26 102 204
-0.225671 -0.163523 -0.144793 26 102 204
-0.224211 -0.163544 -0.467846 26 102 204
-0.231967 -0.148308 -0.086283 26 102 204
-0.229294 -0.148927 0.349281 26 102 204
-0.232051 -0.148943 -0.270254 26 102 204
-0.240598 -0.138405 -0.269237 26 102 204
-0.243626 -0.137624 -0.436372 26 102 204
-0.247067 -0.133381 -0.223024 26 102 204
-0.256991 -0.123265 -0.468825 26 102 204
-0.257837 -0.123064 -0.240747 26 102 204
-0.254955 -0.123161 -0.457805 26 102 204
-0.25875 -0.121526 -0.124138 26 102 204
-0.26352 -0.116303 -0.119287 26 102 204
-0.265124 -0.110083 0.0801427 26 102 204
-0.272979 -0.0991337 0.449606 26 102 204
-0.269999 -0.107218 -0.0692029 26 102 204
-0.293507 -0.0911002 -0.2732 26 102 204
-0.285101 -0.0845507 -0.205104 26 102 204
-0.286558 -0.0830745 -0.277857 26 102 204
-0.291731 -0.0853838 0.468767 26 102 204
-0.295729 -0.0737802 -0.234222 26 102 204
-0.295363 -0.0789344 0.430761 26 102 204
-0.301925 -0.0680549 0.0769951 26 102 204
-0.301496 -0.066002 0.0901817 26 102 204
-0.30286 -0.063395 0.29939 26 102 204
-0.307652 -0.059586 0.271432 26 102 204
-0.320623 -0.0433855 0.150013 26 102 204
-0.312818 -0.0432936 0.172923 26 102 204
-0.325259 -0.035611 -0.191699 26 102 204
-0.32905 -0.0394352 -0.204058 26 102 204
-0.330518 -0.0287767 -0.410873 26 102 204
-0.332636 -0.0256964 -0.390432 26 102 204
-0.341149 -0.0270848 0.32461 26 102 204
-0.34721 -0.0130391 0.326726 26 102 204
-0.34599 -0.0134349 0.394952 26 102 204
-0.171531 -0.224123 0.379877 26 102 204
-0.343826 -0.016754 -0.42287 26 102 204
-0.340712 -0.00519813 0.0794989 26 102 204
-0.049877 -0.355122 -0.206752 26 102 204
-0.325019 -0.0250623 -0.399122 26 102 204
-0.354995 0.00514455 -0.423186 26 102 204
-0.153981 -0.229781 -0.500645 26 102 204
-0.172292 -0.21095 -0.415298 26 102 204
-0.16402 -0.215096 0.381181 26 102 204
-0.00452805 -0.395903 0.459336 26 102 204
-0.300059 -0.0580985 0.495499 26 102 204
-0.304895 -0.0368715 -0.324197 26 102 204
-0.143674 -0.230488 0.374269 26 102 204
-0.165303 -0.198515 0.404436 26 102 204
-0.325984 -0.0247132 -0.34201 26 102 204
-0.342281 0.00556984 0.482163 26 102 204
0.0392943 -0.455631 0.505124 26 102 204
-0.317874 -0.0175328 0.295536 26 102 204
-0.0457423 -0.341895 0.300116 26 102 204
-0.031946 -0.355209 0.493226 26 102 204
-0.067376 -0.290187 -0.408698 26 102 204
-0.336096 -0.00960383 -0.347742 26 102 204
-0.169079 -0.198859 0.385309 26 102 204
-0.207773 -0.12878 -0.364098 26 102 204
-0.126082 -0.224274 0.493045 26 102 204
-0.0886043 -0.267695 -0.514703 26 102 204
0.00973468 -0.360162 0.485964 26 102 204
-0.332383 0.0091364 0.00570289 26 102 204
-0.0602594 -0.321127 -0.0552354 26 102 204
-0.314461 -0.000877543 -0.0233371 26 102 204
-0.325464 0.0019591 0.110581 26 102 204
-0.329763 0.0151394 -0.159703 26 102 204
-0.332363 0.0208204 0.139 26 102 204
-0.178975 -0.158032 -0.388104 26 102 204
-0.0317595 -0.333809 0.483831 26 102 204
-0.148466 -0.193606 -0.420018 26 102 204
-0.196845 -0.120319 -0.446897 26 102 204
-0.312758 -0.00404218 -0.291779 26 102 204
-0.313306 0.00334528 0.0903941 26 102 204
-0.0524455 -0.320768 0.220796 26 102 204
-0.19408 -0.1286 0.363845 26 102 204
-0.106535 -0.233143 -0.371052 26 102 204
-0.322737 0.0150269 -0.350728 26 102 204
0.0147562 -0.374675 -0.410229 26 102 204
-0.165172 -0.161294 0.49825 26 102 204
-0.172369 -0.154908 0.492704 26 102 204
-0.322078 0.0211262 0.414806 26 102 204
-0.318822 0.024147 0.00152333 26 102 204
-0.305484 0.00416878 0.195844 26 102 204
-0.307528 0.0126548 0.46664 26 102 204
-0.0274126 -0.326045 -0.156473 26 102 204
-0.0412775 -0.317377 0.214662 26 102 204
-0.318021 0.0207564 -0.132413 26 102 204
-0.129534 -0.194332 -0.382977 26 102 204
-0.298056 2.99281e-05 -0.217918 26 102 204
-0.0399939 -0.315923 0.166329 26 102 204
-0.185819 -0.129612 -0.503587 26 102 204
-0.291289 -0.00287209 -0.0363561 26 102 204
-0.108609 -0.210574 0.497574 26 102 204
-0.211327 -0.0943194 0.48696 26 102 204
-0.142073 -0.176235 0.501638 26 102 204
-0.174916 -0.136262 0.376948 26 102 204
-0.190799 -0.113482 0.362178 26 102 204
-0.142294 -0.16415 -0.42891 26 102 204
-0.137946 -0.173762 -0.362553 26 102 204
-0.281556 -0.000191234 0.201646 26 102 204
-0.0132822 -0.315232 -0.247139 26 102 204
-0.0164871 -0.325096 0.248737 26 102 204
-0.287501 0.0139949 0.451322 26 102 204
-0.232442 -0.0479698 0.498558 26 102 204
-0.301831 0.0206858 -0.498942 26 102 204
-0.296902 0.0206358 0.216542 26 102 204
-0.280991 0.00898367 0.156623 26 102 204
-0.301177 0.0318087 0.203777 26 102 204
-0.0893766 -0.225825 -0.502037 26 102 204
0.00174869 -0.318258 -0.0394267 26 102 204
-0.00418447 -0.334603 -0.357951 26 102 204
-0.150082 -0.144789 -0.36966 26 102 204
-0.0043189 -0.316492 -0.370228 26 102 204
-0.0236018 -0.302272 -0.491154 26 102 204
-0.0307928 -0.308271 0.495786 26 102 204
-0.0102955 -0.31149 -0.0525188 26 102 204
-0.295971 0.0358666 0.505211 26 102 204
-0.288583 0.0273257 0.294741 26 102 204
-0.277409 0.0124781 0.329664 26 102 204
-0.122519 -0.173587 0.498187 26 102 204
-0.125216 -0.161155 -0.348682 26 102 204
-0.0204033 -0.28723 0.502217 26 102 204
-0.267121 0.00613386 -0.154906 26 102 204
-0.294046 0.0351906 0.342389 26 102 204
0.00699652 -0.312254 0.415044 26 102 204
-0.282234 0.0316007 0.214522 26 102 204
0.00228721 -0.31416 0.0263851 26 102 204
-0.278505 0.0241443 0.13164 26 102 204
-0.273738 0.0237732 0.413148 26 102 204
-0.28902 0.0529677 0.0621579 26 102 204
-0.196995 -0.0707426 -0.383427 26 102 204
0.00678299 -0.306733 0.130542 26 102 204
-0.281797 0.0392645 -0.491515 26 102 204
-0.157409 -0.109631 0.363974 26 102 204
-0.25891 0.0110113 -0.173505 26 102 204
-0.133125 -0.132498 0.48237 26 102 204
-0.262815 0.0166007 -0.309635 26 102 204
-0.260849 0.018988 0.334434 26 102 204
-0.0866269 -0.187031 0.492683 26 102 204
-0.257521 0.0176703 0.333877 26 102 204
-0.279595 0.0353216 -0.482078 26 102 204
0.0328622 -0.329778 -0.459155 26 102 204
-0.273887 0.0263141 -0.446711 26 102 204
-0.272263 0.0341871 0.247115 26 102 204
-0.273116 0.0306672 0.441725 26 102 204
0.0179768 -0.300999 0.158394 26 102 204
-0.043842 -0.222356 -0.437485 26 102 204
-0.263669 0.0276255 0.431539 26 102 204
-0.00192916 -0.282137 -0.295401 26 102 204
-0.104061 -0.148763 0.494963 26 102 204
-0.255955 0.0293262 -0.402335 26 102 204
-0.108518 -0.146822 -0.383842 26 102 204
-0.0604581 -0.191241 -0.497231 26 102 204
0.0330328 -0.295072 -0.0798773 26 102 204
0.0372453 -0.299403 -0.479154 26 102 204
0.0161333 -0.293415 0.377707 26 102 204
0.0200673 -0.293983 -0.310221 26 102 204
0.0202074 -0.28531 0.487478 26 102 204
0.0110174 -0.290961 -0.152001 26 102 204
0.00532935 -0.280306 0.362598 26 102 204
-0.00439843 -0.265773 -0.423661 26 102 204
-0.00286894 -0.267832 0.454157 26 102 204
-0.170382 -0.100781 -0.273117 26 102 204
-0.0205609 -0.251132 0.454555 26 102 204
-0.0212831 -0.249312 0.425737 26 102 204
-0.00499457 -0.243677 0.465644 26 102 204
-0.024466 -0.226385 0.481876 26 102 204
-0.0568348 -0.210749 -0.419585 26 102 204
-0.0596959 -0.195297 -0.424199 26 102 204
-0.0623034 -0.205465 -0.43212 26 102 204
-0.0804488 -0.172487 0.378258 26 102 204
-0.0927391 -0.16461 0.446523 26 102 204
-0.100356 -0.144062 0.443174 26 102 204
-0.117616 -0.117896 -0.406129 26 102 204
-0.126404 -0.112976 -0.344426 26 102 204
-0.137556 -0.102749 0.468301 26 102 204
-0.147895 -0.103236 0.356073 26 102 204
-0.148477 -0.0923811 -0.372389 26 102 204
-0.151302 -0.0849671 -0.458432 26 102 204
-0.154135 -0.0805778 0.424015 26 102 204
-0.158081 -0.0753095 -0.395674 26 102 204
-0.155532 -0.104476 0.420071 26 102 204
-0.171558 -0.0710055 0.451461 26 102 204
-0.184656 -0.0511009 -0.441775 26 102 204
-0.179884 -0.0566513 -0.402228 26 102 204
-0.188133 -0.0477835 -0.392283 26 102 204
-0.192174 -0.0456216 -0.481064 26 102 204
-0.21128 -0.020308 0.456974 26 102 204
-0.20586 -0.0270664 -0.382346 26 102 204
-0.140525 -0.113592 -0.416396 26 102 204
-0.206636 -0.0297729 0.449349 26 102 204
-0.210901 -0.023563 0.372307 26 102 204
-0.231247 0.00508056 -0.258676 26 102 204
-0.233744 0.000705506 -0.497442 26 102 204
-0.268997 0.0520163 -0.479014 26 102 204
0.0341774 -0.30356 0.480202 26 102 204
-0.236288 0.01623 0.185983 26 102 204
-0.24093 0.0297572 -0.447759 26 102 204
-0.224465 0.0187236 -0.243395 26 102 204
-0.231656 0.0224477 -0.43092 26 102 204
0.0292799 -0.277091 -0.102943 26 102 204
0.0231997 -0.281753 -0.49409 26 102 204
0.0349919 -0.27646 0.0835398 26 102 204
0.0339491 -0.273932 -0.0380288 26 102 204
0.00363446 -0.248948 0.478363 26 102 204
0.0480778 -0.266757 -0.376714 26 102 204
-0.250908 0.0677508 0.349464 26 102 204
-0.223129 0.0342074 0.161606 26 102 204
-0.0247647 -0.193223 -0.5016 26 102 204
-0.22063 0.032614 -0.0516533 26 102 204
-0.2373 0.0501971 -0.400213 26 102 204
-0.226684 0.0532075 0.389133 26 102 204
-0.214192 0.0307225 -0.504064 26 102 204
0.0566874 -0.284361 -0.460527 26 102 204
-0.213771 0.0376308 -0.30797 26 102 204
-0.225363 0.0478888 0.420814 26 102 204
-0.206668 0.0321932 -0.230083 26 102 204
-0.220091 0.0450827 -0.124894 26 102 204
-0.237732 0.0663774 0.498376 26 102 204
-0.212242 0.0400011 -0.293017 26 102 204
-0.220812 0.0573062 -0.500438 26 102 204
0.0556848 -0.273382 0.135963 26 102 204
0.0405846 -0.256924 0.504629 26 102 204
-0.20992 0.0396726 0.126268 26 102 204
-0.0200488 -0.16988 0.505548 26 102 204
-0.168556 -0.00448327 0.505152 26 102 204
-0.207523 0.044252 -0.225515 26 102 204
-0.205651 0.0469509 0.138568 26 102 204
-0.0783268 -0.0996002 -0.503387 26 102 204
0.0608919 -0.259567 0.251447 26 102 204
-0.13947 -0.0253747 0.507583 26 102 204
0.0521334 -0.257495 -0.28917 26 102 204
-0.145262 -0.0123031 0.501091 26 102 204
-0.214996 0.0619723 -0.195437 26 102 204
-0.215637 0.0651348 0.401779 26 102 204
-0.196244 0.0491367 -0.358496 26 102 204
0.0197905 -0.213889 -0.513713 26 102 204
-0.20247 0.0528521 -0.0292669 26 102 204
-0.19976 0.0530607 0.146313 26 102 204
-0.106825 -0.056398 -0.501962 26 102 204
-0.201999 0.0630023 0.0606566 26 102 204
-0.183282 0.0367811 0.504055 26 102 204
0.0597746 -0.252937 -0.119162 26 102 204
-0.00393948 -0.17297 0.503194 26 102 204
0.0706721 -0.257956 0.410579 26 102 204
0.0690667 -0.259637 0.504364 26 102 204
0.0245867 -0.284127 0.476306 26 102 204
-0.203011 0.0612462 0.0840562 26 102 204
-0.179332 0.0378749 -0.174608 26 102 204
-0.200068 0.0672548 -0.17077 26 102 204
0.0580228 -0.250437 0.061355 26 102 204
-0.173235 0.0293322 -0.50232 26 102 204
0.066631 -0.247151 0.465377 26 102 204
-0.204762 0.0735706 -0.409262 26 102 204
0.0720744 -0.249767 0.060835 26 102 204
0.0754433 -0.248816 0.303311 26 102 204
-0.186489 0.0568381 -0.370145 26 102 204
-0.217649 0.100358 0.463891 26 102 204
0.0344925 -0.18511 -0.506624 26 102 204
-0.184118 0.0608948 -0.135918 26 102 204
0.0735957 -0.246453 0.452655 26 102 204
-0.182664 0.0552067 0.0972545 26 102 204
-0.182792 0.0585872 -0.0494625 26 102 204
-0.194818 0.0750259 -0.367434 26 102 204
0.0803955 -0.234576 0.482567 26 102 204
0.0294625 -0.182077 -0.501125 26 102 204
-0.201261 0.106385 -0.499538 26 102 204
-0.17837 0.0556908 -0.508052 26 102 204
-0.171349 0.0550659 -0.497061 26 102 204
-0.104497 -0.0136895 0.501343 26 102 204
-0.213332 0.105973 0.415662 26 102 204
0.0844064 -0.23574 0.310655 26 102 204
-0.204657 0.103758 0.385979 26 102 204
-0.174257 0.0600613 -0.10159 26 102 204
-0.185485 0.0814851 -0.410442 26 102 204
0.0863295 -0.227547 -0.0737763 26 102 204
0.0833776 -0.236036 -0.0738594 26 102 204
-0.111878 -0.00764253 0.50012 26 102 204
-0.196512 0.0958042 0.370036 26 102 204
0.081336 -0.228638 -0.279262 26 102 204
-0.117263 0.0100797 -0.503148 26 102 204
-0.130462 0.028398 0.502396 26 102 204
-0.1817 0.0989534 0.408101 26 102 204
-0.173814 0.0890718 -0.167497 26 102 204
-0.172942 0.0790337 0.05079 26 102 204
-0.186547 0.0960901 0.501933 26 102 204
0.101813 -0.217823 0.283494 26 102 204
0.0938656 -0.219017 -0.357795 26 102 204
0.0343761 -0.154272 0.498615 26 102 204
-0.0373549 -0.0687968 -0.504637 26 102 204
-0.0109863 -0.0885089 -0.501036 26 102 204
-0.200221 0.118344 -0.490967 26 102 204
-0.160928 0.0833467 0.0796017 26 102 204
0.103117 -0.235161 0.396969 26 102 204
0.094504 -0.222253 -0.435831 26 102 204
-0.0193546 -0.0775377 -0.502788 26 102 204
-0.160696 0.0901924 0.0439904 26 102 204
0.104918 -0.21657 0.354001 26 102 204
0.100947 -0.216562 -0.408663 26 102 204
-0.0595418 -0.022776 -0.498822 26 102 204
-0.0295314 -0.0566392 0.501988 26 102 204
-0.155525 0.0939461 0.309858 26 102 204
-0.148538 0.0866476 -0.364328 26 102 204
0.0542951 -0.14952 -0.499514 26 102 204
-0.155971 0.097729 -0.317006 26 102 204
-0.151946 0.0917697 -0.33786 26 102 204
-0.208547 0.094452 0.259314 26 102 204
-0.0806744 0.0139123 0.503687 26 102 204
-0.152206 0.0958711 0.0266275 26 102 204
-0.127405 0.0732392 -0.503579 26 102 204
0.0932136 -0.224391 0.246206 26 102 204
-0.167655 0.116321 -0.503692 26 102 204
-0.151888 0.102616 0.266615 26 102 204
-0.172594 0.0861874 0.250996 26 102 204
-0.145735 0.0978211 -0.316446 26 102 204
-0.164716 0.126469 0.499023 26 102 204
-0.153845 0.106378 -0.236593 26 102 204
-0.158167 0.113564 0.241363 26 102 204
-0.116475 0.0593409 -0.505935 26 102 204
0.119835 -0.196014 -0.136066 26 102 204
-0.170009 0.14008 0.439004 26 102 204
0.11972 -0.203315 0.116278 26 102 204
-0.148985 0.114265 -0.300202 26 102 204
0.120063 -0.200083 0.0430246 26 102 204
-0.0860052 0.0501507 -0.50258 26 102 204
-0.150467 0.118629 0.167298 26 102 204
-0.142392 0.11434 -0.273222 26 102 204
-0.152054 0.125098 -0.464171 26 102 204
-0.15859 0.131354 -0.492398 26 102 204
-0.092489 0.0668178 0.508283 26 102 204
-0.013459 -0.0400612 0.494279 26 102 204
-0.120601 0.0945562 -0.494598 26 102 204
0.0841634 -0.148349 0.501929 26 102 204
0.130634 -0.200121 -0.48336 26 102 204
0.12039 -0.189657 -0.508574 26 102 204
-0.0327409 -0.0107281 -0.50183 26 102 204
-0.126356 0.104634 0.499274 26 102 204
-0.134594 0.115769 -0.299475 26 102 204
-0.134418 0.123243 -0.180191 26 102 204
0.0824816 -0.138113 0.499441 26 102 204
0.126157 -0.19401 -0.288263 26 102 204
0.130569 -0.195067 -0.164741 26 102 204
-0.00671793 -0.0331264 -0.50103 26 102 204
0.130779 -0.19878 0.245895 26 102 204
0.131949 -0.176379 -0.505297 26 102 204
0.0187058 -0.0441555 0.506226 26 102 204
-0.012574 -0.00969308 -0.500136 26 102 204
-0.12099 0.119307 0.0059364 26 102 204
-0.128056 0.177981 -0.47722 26 102 204
-0.164626 0.10799 0.362618 26 102 204
0.142165 -0.191844 0.158143 26 102 204
0.0512196 -0.0894679 -0.506123 26 102 204
0.142596 -0.177187 -0.0112977 26 102 204
0.147145 -0.191015 -0.420013 26 102 204
-0.0638158 0.0308734 -0.502785 26 102 204
-0.126728 0.133931 -0.500738 26 102 204
-0.135023 0.141214 -0.0207223 26 102 204
-0.10231 0.168482 0.409406 26 102 204
0.143722 -0.191523 0.145482 26 102 204
-0.113101 0.123718 0.0657961 26 102 204
-0.110127 0.130475 -0.444395 26 102 204
0.0527336 -0.0604275 0.504489 26 102 204
-0.111824 0.128709 -0.24307 26 102 204
0.147898 -0.173566 -0.227641 26 102 204
-0.120988 0.150615 -0.502503 26 102 204
0.155418 -0.18087 0.05562 26 102 204
-0.14184 0.174384 -0.495486 26 102 204
0.148548 -0.172507 -0.395288 26 102 204
0.154491 -0.16 -0.0335072 26 102 204
-0.0498016 0.0668517 -0.501263 26 102 204
0.00829685 0.00469601 -0.504499 26 102 204
0.0507076 -0.0385289 0.502402 26 102 204
0.151576 -0.154904 0.498134 26 102 204
-0.0589601 0.0942693 -0.501102 26 102 204
0.166043 -0.178165 0.247003 26 102 204
-0.112538 0.153419 0.444345 26 102 204
-0.0246813 0.102563 0.435739 26 102 204
-0.104737 0.143995 -0.13649 26 102 204
-0.105359 0.144306 0.101687 26 102 204
-0.104998 0.14934 0.283555 26 102 204
0.170713 -0.154101 0.172388 26 102 204
0.158921 -0.154085 0.437402 26 102 204
0.166589 -0.162652 0.488242 26 102 204
0.164754 -0.161219 -0.153871 26 102 204
0.141146 -0.189331 -0.119547 26 102 204
0.169789 -0.156301 -0.269359 26 102 204
0.170402 -0.166754 0.387093 26 102 204
-0.114795 0.150921 -0.285191 26 102 204
-0.106518 0.162953 -0.406513 26 102 204
-0.124609 0.184187 -0.496128 26 102 204
-0.094231 0.153933 0.23406 26 102 204
0.172197 -0.136697 0.382214 26 102 204
0.180844 -0.154632 0.318606 26 102 204
-0.0970956 0.158192 0.181534 26 102 204
0.063279 -0.0234651 0.509562 26 102 204
0.168182 -0.150279 -0.395695 26 102 204
-0.0886904 0.151935 -0.117501 26 102 204
-0.0875381 0.152794 0.0576248 26 102 204
-0.0890067 0.155653 0.139393 26 102 204
0.181667 -0.145286 -0.264145 26 102 204
-0.0822622 0.153661 0.48822 26 102 204
0.146605 -0.130085 -0.509122 26 102 204
0.0533058 0.00161098 -0.502551 26 102 204
0.117699 -0.0707979 0.50319 26 102 204
-0.0463086 0.121998 0.50282 26 102 204
0.055633 -0.016173 0.508271 26 102 204
0.182749 -0.162493 0.288861 26 102 204
-0.0829607 0.155923 0.169204 26 102 204
-0.0849269 0.163309 -0.042812 26 102 204
-0.0868398 0.162648 -0.170815 26 102 204
0.182383 -0.151542 -0.0682728 26 102 204
-0.0918464 0.17355 -0.486544 26 102 204
0.1871 -0.149239 0.38221 26 102 204
-0.0790439 0.161326 0.151559 26 102 204
-0.061621 0.144671 -0.501746 26 102 204
-0.0606902 0.134702 -0.500052 26 102 204
-0.0610481 0.158789 -0.503639 26 102 204
0.188521 -0.153453 -0.110601 26 102 204
-0.0383951 0.118862 -0.49997 26 102 204
0.193096 -0.143457 0.495208 26 102 204
0.190656 -0.150691 -0.120587 26 102 204
-0.0700171 0.162031 -0.141398 26 102 204
-0.0737034 0.16755 0.414685 26 102 204
-0.0697608 0.165364 0.259646 26 102 204
-0.0692769 0.166149 0.331581 26 102 204
-0.0895221 0.195337 -0.496917 26 102 204
0.0500991 0.0235208 0.498228 26 102 204
-0.0785199 0.182055 0.500504 26 102 204
-0.0881763 0.196658 0.338477 26 102 204
-0.061268 0.157432 0.488923 26 102 204
-0.0746901 0.176759 0.463224 26 102 204
0.0972729 -0.0236827 -0.495984 26 102 204
-0.0740193 0.184388 0.471509 26 102 204
0.163273 -0.107834 -0.501989 26 102 204
0.123153 -0.0581664 -0.502376 26 102 204
0.197786 -0.141269 -0.460537 26 102 204
-0.0607429 0.173543 0.140621 26 102 204
-0.0683544 0.182084 -0.0590662 26 102 204
-0.06867 0.181229 -0.470632 26 102 204
0.201576 -0.130283 -0.404648 26 102 204
0.113664 -0.0355748 0.50423 26 102 204
0.144495 -0.0614459 -0.505059 26 102 204
0.120944 -0.0246835 0.507166 26 102 204
0.20472 -0.133772 0.125673 26 102 204
-0.0565665 0.180757 -0.44615 26 102 204
-0.101898 0.213652 0.490781 26 102 204
-0.0608811 0.177254 0.388281 26 102 204
0.210544 -0.133914 -0.339134 26 102 204
0.207608 -0.125799 -0.0985527 26 102 204
-0.053376 0.183144 0.239977 26 102 204
-0.050742 0.194652 -0.128391 26 102 204
0.212601 -0.13147 0.494518 26 102 204
-0.0290163 0.176889 -0.500049 26 102 204
0.221215 -0.140637 0.50207 26 102 204
0.218905 -0.129822 -0.319885 26 102 204
0.218539 -0.139465 0.198853 26 102 204
0.170277 -0.0698029 -0.49949 26 102 204
-0.056387 0.197592 0.315397 26 102 204
-0.0821255 0.2168 -0.474625 26 102 204
-0.0167689 0.155679 0.501187 26 102 204
-0.0504227 0.199649 -0.499391 26 102 204
0.104919 0.018085 -0.499801 26 102 204
-0.0803583 0.22716 -0.493022 26 102 204
0.219464 -0.127822 0.37665 26 102 204
-0.0401589 0.190253 0.02843 26 102 204
0.164181 -0.0539008 0.501337 26 102 204
-0.0451003 0.188095 0.236928 26 102 204
-0.041869 0.184033 0.293131 26 102 204
-0.00662014 0.157143 0.507797 26 102 204
0.209788 -0.121614 -0.484957 26 102 204
0.000941512 0.144614 0.502099 26 102 204
0.218734 -0.10687 -0.010172 26 102 204
0.21659 -0.121587 -0.266921 26 102 204
-0.0428725 0.197114 0.195137 26 102 204
0.224127 -0.114194 0.0259288 26 102 204
0.225492 -0.11547 -0.0167183 26 102 204
-0.0561445 0.221055 -0.118242 26 102 204
-0.0365258 0.195346 0.243772 26 102 204
0.226186 -0.107155 -0.171652 26 102 204
-0.0366541 0.20203 0.266379 26 102 204
-0.0190903 0.173147 -0.492877 26 102 204
-0.0328804 0.199342 0.175388 26 102 204
0.230165 -0.102929 -0.22497 26 102 204
-0.0446137 0.205748 -0.396216 26 102 204
0.112058 0.0296534 -0.503363 26 102 204
0.120172 0.033337 -0.503335 26 102 204
-0.0319336 0.232937 -0.502874 26 102 204
-0.0198404 0.209629 -0.0896025 26 102 204
-0.0223304 0.210536 -0.503592 26 102 204
0.159862 -0.0171657 0.504376 26 102 204
0.218549 -0.0676098 0.48569 26 102 204
-0.021023 0.195489 0.50624 26 102 204
0.236709 -0.103997 -0.0582834 26 102 204
-0.0321015 0.209783 0.232024 26 102 204
-0.040332 0.224178 -0.349659 26 102 204
-0.0208234 0.202152 0.251662 26 102 204
-0.0281913 0.204601 0.152028 26 102 204
0.240739 -0.115323 -0.25248 26 102 204
-0.0445546 0.228875 0.352229 26 102 204
-0.0114258 0.192819 0.506294 26 102 204
0.243379 -0.0869888 0.480668 26 102 204
0.241259 -0.102688 -0.480436 26 102 204
-0.0309285 0.215266 -0.342963 26 102 204
0.129874 0.0325887 0.496587 26 102 204
0.248128 -0.111677 -0.0356201 26 102 204
-0.0477722 0.2513 0.475551 26 102 204
0.246902 -0.106781 -0.0506376 26 102 204
-0.0478181 0.238721 -0.490874 26 102 204
0.181182 -0.0246931 0.504252 26 102 204
0.173337 -0.0134724 0.505761 26 102 204
-0.023082 0.208208 -0.274209 26 102 204
-0.0165093 0.20962 -0.26146 26 102 204
-0.0246283 0.221923 -0.433214 26 102 204
-0.054697 0.250069 -0.506933 26 102 204
-0.0255666 0.219615 -0.49994 26 102 204
-0.0409912 0.245709 0.493558 26 102 204
-0.0334943 0.221608 0.502629 26 102 204
0.243582 -0.089775 -0.503244 26 102 204
0.0556106 0.125381 -0.496359 26 102 204
0.0243722 0.161847 0.502023 26 102 204
-0.0377815 0.245143 0.505653 26 102 204
-0.0155764 0.211956 -0.401874 26 102 204
-0.0256106 0.2316 -0.180865 26 102 204
-0.0199765 0.223514 -0.376856 26 102 204
0.198779 0.142329 -0.170659 26 102 204
0.253397 -0.0816241 -0.495759 26 102 204
-0.0241109 0.220771 -0.233721 26 102 204
0.263283 -0.106858 -0.435043 26 102 204
-0.0365833 0.245439 -0.503006 26 102 204
-0.029766 0.247238 -0.486543 26 102 204
-0.0164653 0.221263 -0.315841 26 102 204
0.00929965 0.196906 0.503785 26 102 204
-0.0117803 0.222801 0.47193 26 102 204
0.260172 -0.0979466 0.370384 26 102 204
0.260663 -0.08842 -0.342047 26 102 204
0.0241254 0.172523 -0.498896 26 102 204
-0.00827153 0.222711 0.06485 26 102 204
0.255906 -0.0896073 -0.429018 26 102 204
0.0837292 0.127288 -0.49648 26 102 204
0.241052 -0.0644449 0.509416 26 102 204
0.0674218 0.151466 0.493747 26 102 204
0.114775 0.0815722 0.504611 26 102 204
-0.0368741 0.226537 -0.524761 26 102 204
-0.00798431 0.226092 0.186129 26 102 204
-0.0167779 0.231387 -0.501752 26 102 204
0.26219 -0.0845639 0.106427 26 102 204
0.141333 0.0590796 0.504528 26 102 204
0.14736 0.0477932 -0.503068 26 102 204
0.123885 0.0778857 -0.49314 26 102 204
0.155186 0.0441676 -0.498506 26 102 204
0.0803412 0.13599 0.500342 26 102 204
0.00127485 0.229215 -0.245391 26 102 204
0.264769 -0.0785116 -0.105138 26 102 204
-0.00657452 0.250499 0.0430396 26 102 204
0.00447056 0.229323 -0.0515515 26 102 204
0.266986 -0.0806878 -0.304174 26 102 204
0.272883 -0.0772774 -0.503078 26 102 204
0.00964308 0.237744 0.0179505 26 102 204
0.000762172 0.233346 -0.144427 26 102 204
0.275744 -0.0814297 -0.0283581 26 102 204
0.260673 -0.0778399 -0.504039 26 102 204
0.15176 0.0640259 -0.503918 26 102 204
0.298817 -0.131114 0.506154 26 102 204
0.00102792 0.238143 0.0408407 26 102 204
0.151097 0.0780221 -0.50567 26 102 204
0.0689339 0.179086 0.505957 26 102 204
0.0152584 0.236143 0.061457 26 102 204
-0.0090922 0.274185 -0.504992 26 102 204
0.0120615 0.245749 -0.247679 26 102 204
0.0150941 0.233701 0.26052 26 102 204
0.274347 -0.0822444 0.489218 26 102 204
0.275946 -0.0884687 -0.274622 26 102 204
-0.0199903 0.277956 0.500314 26 102 204
0.28738 -0.0767196 0.160127 26 102 204
0.2852 -0.069407 0.493606 26 102 204
0.283087 -0.0728328 0.460044 26 102 204
0.0230587 0.240549 0.0495256 26 102 204
0.0700371 0.183232 0.46558 26 102 204
0.0402228 0.216067 -0.499498 26 102 204
0.023183 0.244108 0.373589 26 102 204
0.281114 -0.0526628 -0.343979 26 102 204
0.282646 -0.0505216 0.459429 26 102 204
0.199329 0.0438525 0.500399 26 102 204
0.0252414 0.237941 -0.376219 26 102 204
0.283902 -0.059928 0.184343 26 102 204
0.011024 0.265111 0.403935 26 102 204
0.272861 -0.0393923 0.171473 26 102 204
0.0187974 0.264334 0.450113 26 102 204
0.0472555 0.241781 -0.504756 26 102 204
0.295436 -0.05918 0.303874 26 102 204
0.295845 -0.0547159 -0.329911 26 102 204
0.0301801 0.241514 -0.305739 26 102 204
0.283224 -0.043456 -0.10995 26 102 204
0.00775486 0.290517 -0.470366 26 102 204
0.0223442 0.298237 0.321518 26 102 204
0.0338708 0.269835 -0.0904362 26 102 204
0.060737 0.252078 -0.49515 26 102 204
0.118936 0.163904 -0.503708 26 102 204
0.0349276 0.2704 -0.504044 26 102 204
0.257526 -0.00415658 -0.345322 26 102 204
0.0403139 0.261852 -0.268827 26 102 204
0.314061 -0.0455082 0.0402132 26 102 204
0.306915 -0.0418268 -0.0257421 26 102 204
0.30164 -0.0386941 -0.260435 26 102 204
0.293116 -0.0283011 -0.324835 26 102 204
0.293197 -0.0297004 -0.388579 26 102 204
0.292187 -0.0278406 0.342699 26 102 204
0.292071 -0.0257619 -0.366188 26 102 204
0.280268 -0.00955424 0.426762 26 102 204
0.282192 -0.00608646 -0.35363 26 102 204
0.263681 0.000915945 -0.386577 26 102 204
0.277068 -0.0159779 0.385124 26 102 204
0.262478 0.00816584 0.390335 26 102 204
0.251666 0.0170337 -0.396349 26 102 204
0.244806 0.0323605 -0.331482 26 102 204
0.230336 0.0532965 -0.343731 26 102 204
0.209187 0.0792184 -0.408292 26 102 204
0.212769 0.0709556 0.399319 26 102 204
0.202213 0.0872213 0.4358 26 102 204
0.21141 0.0671915 0.49256 26 102 204
0.212781 0.0605759 -0.424534 26 102 204
0.184679 0.0975666 -0.361595 26 102 204
0.168041 0.122649 0.407979 26 102 204
0.136155 0.159192 -0.430541 26 102 204
0.123997 0.172333 0.441355 26 102 204
0.0660426 0.231995 -0.483254 26 102 204
0.048209 0.262467 -0.248249 26 102 204
0.0168265 0.305182 -0.145095 26 102 204
0.0146047 0.296383 -0.185691 26 102 204
0.0364463 0.274771 -0.0190392 26 102 204
0.292562 -0.0258382 -0.400608 26 102 204
0.299502 -0.0271131 0.468963 26 102 204
0.25135 0.0341801 0.50522 26 102 204
0.253991 0.0354552 0.493021 26 102 204
0.0528272 0.271534 0.232465 26 102 204
0.049889 0.285599 -0.160438 26 102 204
0.100765 0.222539 0.503828 26 102 204
0.110356 0.20875 0.498916 26 102 204
0.0637698 0.26306 0.436468 26 102 204
0.0713099 0.249019 0.0973848 26 102 204
0.192279 0.113337 -0.503459 26 102 204
0.0556717 0.28686 -0.443604 26 102 204
0.0451533 0.285118 -0.254605 26 102 204
0.0678248 0.251003 -0.130895 26 102 204
0.0774675 0.260863 -0.491806 26 102 204
0.0568133 0.268367 0.0339815 26 102 204
0.0684403 0.271471 0.437698 26 102 204
0.0613406 0.272261 0.00109738 26 102 204
0.0549122 0.276522 -0.333708 26 102 204
0.0442759 0.286766 0.0145429 26 102 204
0.0499032 0.279193 0.2281 26 102 204
0.0578851 0.291628 0.356145 26 102 204
0.0624961 0.276393 0.0252299 26 102 204
0.0450589 0.293415 0.158897 26 102 204
0.0325835 0.309771 0.458687 26 102 204
0.0307289 0.312969 0.444592 26 102 204
0.0408676 0.306143 0.114581 26 102 204
0.026538 0.317641 0.318384 26 102 204
0.330233 -0.031632 -0.222922 26 102 204
0.0248228 0.321734 -0.39545 26 102 204
0.0705129 0.276649 -0.0638416 26 102 204
0.297319 -0.0131392 -0.498178 26 102 204
0.334211 -0.0376124 -0.106065 26 102 204
0.280478 0.026747 0.508756 26 102 204
0.0537041 0.293025 -0.491307 26 102 204
0.0393879 0.328102 -0.297832 26 102 204
0.0323376 0.326761 -0.446097 26 102 204
0.0377799 0.323265 0.0966884 26 102 204
0.0435582 0.328189 0.328204 26 102 204
0.054571 0.295995 0.173385 26 102 204
0.0478339 0.319573 -0.200055 26 102 204
0.261117 0.0548622 -0.495023 26 102 204
0.340324 -0.0313448 0.292742 26 102 204
0.309679 0.00604217 0.323202 26 102 204
0.081385 0.287001 0.479489 26 102 204
0.236416 0.155417 0.500705 26 102 204
0.043948 0.340646 -0.11106 26 102 204
0.33994 -0.0224888 0.1694 26 102 204
0.0846403 0.301705 -0.0643609 26 102 204
0.0343122 0.332301 -0.194352 26 102 204
0.0564685 0.319057 -0.482852 26 102 204
0.0362931 0.336477 -0.322571 26 102 204
0.0609835 0.32064 0.343608 26 102 204
0.0719943 0.310236 0.446868 26 102 204
0.0396108 0.346121 -0.396025 26 102 204
0.343957 -0.00653649 0.27464 26 102 204
0.349816 -0.014274 -0.191616 26 102 204
0.116917 0.266808 0.504814 26 102 204
0.0871396 0.300476 0.50352 26 102 204
0.344514 -0.0110141 0.0319182 26 102 204
0.0506787 0.344175 0.0189995 26 102 204
0.2491 0.124025 -0.505292 26 102 204
0.328999 0.00452962 -0.136874 26 102 204
0.0579553 0.348965 -0.143783 26 102 204
0.247494 0.109518 0.508932 26 102 204
0.060881 0.335457 -0.0357668 26 102 204
0.0771083 0.333326 0.335664 26 102 204
0.0761227 0.325372 0.167826 26 102 204
0.333278 0.0304537 -0.433984 26 102 204
0.179219 0.216428 -0.496742 26 102 204
0.0943125 0.324398 -0.500102 26 102 204
0.0475362 0.353351 -0.368372 26 102 204
0.0687264 0.358749 0.13401 26 102 204
0.0830933 0.334307 0.104569 26 102 204
0.366142 0.010975 0.316778 26 102 204
0.371609 0.00329489 -0.44687 26 102 204
0.363237 0.0123394 -0.370496 26 102 204
0.0774207 0.354056 0.442149 26 102 204
0.379537 -0.0018229 -0.459713 26 102 204
0.381568 0.00248901 0.195312 26 102 204
0.367762 0.0190783 -0.368687 26 102 204
0.348108 0.0440374 -0.499603 26 102 204
0.390114 -0.00816845 0.39168 26 102 204
0.384781 0.00550549 0.270046 26 102 204
0.294555 0.118051 -0.390792 26 102 204
0.311623 0.0894363 -0.49829 26 102 204
0.0754035 0.362981 0.285744 26 102 204
0.381681 0.00806974 0.397262 26 102 204
0.101201 0.340717 -0.0578001 26 102 204
0.318903 0.0823078 -0.496458 26 102 204
0.25072 0.177924 0.505125 26 102 204
0.170471 0.263995 -0.501294 26 102 204
0.391218 0.0106003 -0.492199 26 102 204
0.102739 0.354679 -0.446983 26 102 204
0.10096 0.339178 0.494074 26 102 204
0.106199 0.348771 -0.302381 26 102 204
0.313498 0.100959 0.500384 26 102 204
0.382124 0.0278197 0.491557 26 102 204
0.141105 0.308583 -0.317752 26 102 204
0.0929785 0.36465 -0.324404 26 102 204
0.391659 0.0193301 0.405927 26 102 204
0.381278 0.0257175 0.0408173 26 102 204
0.37651 0.0327813 0.391002 26 102 204
0.378612 0.0324544 -0.396701 26 102 204
0.364304 0.0464442 -0.32297 26 102 204
0.363587 0.0173154 -0.228549 26 102 204
0.373898 0.0383946 -0.290062 26 102 204
0.37021 0.0461964 0.456046 26 102 204
0.375788 0.0352459 0.152943 26 102 204
0.368751 0.0393289 -0.426674 26 102 204
0.371063 0.0406147 0.122612 26 102 204
0.358013 0.0553588 -0.371946 26 102 204
0.345109 0.0701373 0.462176 26 102 204
0.365644 0.0519992 -0.174734 26 102 204
0.355736 0.0644426 -0.268984 26 102 204
0.347029 0.0754516 -0.302823 26 102 204
0.356278 0.0602958 -0.438426 26 102 204
0.344501 0.0772491 0.497447 26 102 204
0.341334 0.0799387 -0.0280948 26 102 204
0.332212 0.0862906 0.383254 26 102 204
0.325736 0.104019 -0.452038 26 102 204
0.312779 0.112672 0.460177 26 102 204
0.302952 0.126399 -0.329522 26 102 204
0.290306 0.130939 -0.413484 26 102 204
0.294316 0.140554 0.377838 26 102 204
0.284934 0.139226 -0.411586 26 102 204
0.287307 0.135004 -0.420026 26 102 204
0.283078 0.136049 0.347588 26 102 204
0.287106 0.13468 -0.434381 26 102 204
0.283451 0.147086 0.294865 26 102 204
0.282098 0.145183 -0.469687 26 102 204
0.271354 0.161635 0.421702 26 102 204
0.261624 0.177162 0.458475 26 102 204
0.247389 0.183872 0.485075 26 102 204
0.258861 0.172578 -0.497171 26 102 204
0.258455 0.180877 0.462882 26 102 204
0.24718 0.19282 0.474345 26 102 204
0.246537 0.189832 -0.467452 26 102 204
0.24191 0.196013 -0.470541 26 102 204
0.23251 0.193581 -0.467689 26 102 204
0.225661 0.222384 0.287672 26 102 204
0.223107 0.216435 0.381387 26 102 204
0.219362 0.230115 0.343732 26 102 204
0.194979 0.238835 0.460829 26 102 204
0.196983 0.229268 -0.450064 26 102 204
0.2048 0.233991 -0.451156 26 102 204
0.195722 0.242631 0.428447 26 102 204
0.184187 0.261411 0.314244 26 102 204
0.169679 0.272973 0.02452 26 102 204
0.173933 0.259192 -0.446726 26 102 204
0.155253 0.290027 -0.185355 26 102 204
0.155777 0.293332 -0.410728 26 102 204
0.128092 0.313175 -0.281297 26 102 204
0.14033 0.314491 0.350992 26 102 204
0.133569 0.318489 -0.0844005 26 102 204
0.116993 0.319079 -0.173723 26 102 204
0.122527 0.330651 0.00193996 26 102 204
0.114542 0.337308 -0.276699 26 102 204
0.114878 0.342632 0.426234 26 102 204
0.117136 0.346286 0.477648 26 102 204
0.0915303 0.353854 -0.0421232 26 102 204
0.101692 0.356799 0.199367 26 102 204
0.0976219 0.353395 0.21312 26 102 204
0.0871526 0.366657 0.424126 26 102 204
0.0494512 0.356147 -0.356055 26 102 204
0.197529 0.226911 0.491796 26 102 204
0.10174 0.344543 0.00431093 26 102 204
0.111592 0.340122 0.0535999 26 102 204
0.1139 0.348837 -0.0377664 26 102 204
0.386862 0.027285 -0.178293 26 102 204
0.383925 0.02737 0.258333 26 102 204
0.373753 0.0391459 0.258586 26 102 204
0.378512 0.0327728 -0.14605 26 102 204
0.369603 0.0440639 -0.00350782 26 102 204
0.3683 0.0436273 -0.263924 26 102 204
0.363346 0.0504162 -0.0193944 26 102 204
0.366082 0.0565677 0.238086 26 102 204
0.356731 0.0632685 -0.341759 26 102 204
0.355487 0.0651937 -0.200062 26 102 204
0.352914 0.0676197 -0.295422 26 102 204
0.347792 0.0703375 0.0283671 26 102 204
0.341003 0.0788118 -0.298606 26 102 204
0.337819 0.0919003 -0.424896 26 102 204
0.333649 0.0855394 -0.0482607 26 102 204
0.335796 0.0882097 0.347358 26 102 204
0.336941 0.0888539 0.265057 26 102 204
0.326447 0.0979756 -0.275738 26 102 204
0.32519 0.0961827 -0.22444 26 102 204
0.332222 0.0963194 0.178533 26 102 204
0.328429 0.0972704 0.0792114 26 102 204
0.336608 0.0927083 -0.162435 26 102 204
0.328064 0.100153 0.0796295 26 102 204
0.317278 0.108298 0.288873 26 102 204
0.314894 0.111731 0.187591 26 102 204
0.320647 0.108435 0.304856 26 102 204
0.323524 0.110176 0.109432 26 102 204
0.323581 0.114585 0.419198 26 102 204
0.312652 0.122256 0.378736 26 102 204
0.312571 0.125369 0.0879095 26 102 204
0.305742 0.126351 0.376753 26 102 204
0.302915 0.133796 -0.409243 26 102 204
0.293998 0.124477 -0.144951 26 102 204
0.300119 0.138864 0.45068 26 102 204
0.293103 0.140489 0.0516599 26 102 204
0.298669 0.144954 0.345506 26 102 204
0.291661 0.143636 0.372052 26 102 204
0.28767 0.154426 0.0231946 26 102 204
0.280614 0.153614 -0.244298 26 102 204
0.279659 0.166246 -0.123458 26 102 204
0.273529 0.166072 0.283289 26 102 204
0.274261 0.169264 -0.404943 26 102 204
0.275013 0.176522 0.19562 26 102 204
0.247779 0.171782 0.215312 26 102 204
0.265229 0.180303 -0.332741 26 102 204
0.257706 0.18311 -0.239988 26 102 204
0.260407 0.190348 0.389633 26 102 204
0.246734 0.190606 0.349043 26 102 204
0.255307 0.193186 -0.0262336 26 102 204
0.236902 0.19956 0.311817 26 102 204
0.236328 0.200769 -0.30143 26 102 204
0.23642 0.200086 0.395203 26 102 204
0.230152 0.209819 0.409269 26 102 204
0.225068 0.220024 -0.259243 26 102 204
0.218884 0.222919 0.350359 26 102 204
0.220254 0.227316 -0.412511 26 102 204
0.202366 0.238382 0.144105 26 102 204
0.213946 0.239675 0.281269 26 102 204
0.203024 0.240638 0.373188 26 102 204
0.191179 0.257188 -0.379173 26 102 204
0.190531 0.257318 -0.345888 26 102 204
0.188736 0.270769 0.447483 26 102 204
0.185034 0.276213 -0.186494 26 102 204
0.182386 0.276009 0.0773004 26 102 204
0.180141 0.282439 -0.169346 26 102 204
0.171564 0.284207 0.274589 26 102 204
0.169279 0.289065 0.406763 26 102 204
0.164402 0.29124 -0.0741176 26 102 204
0.166796 0.290844 -0.158622 26 102 204
0.155264 0.301199 0.22815 26 102 204
0.147025 0.306326 0.157276 26 102 204
0.146342 0.306038 0.204155 26 102 204
0.141502 0.312402 0.323441 26 102 204
0.140621 0.314351 -0.0258679 26 102 204
