ply
format ascii 1.0
comment Created by Open3D
element vertex 1024
property double x
property double y
property double z
property uchar red
property uchar green
property uchar blue
end_header
-0.0111724 0.380349 0.153128 26 102 204
-0.00865536 0.373716 -0.121172 26 102 204
-0.00980614 0.379866 -0.189337 26 102 204
-0.00704986 0.379071 0.210084 26 102 204
-0.00901596 0.377316 0.146585 26 102 204
-0.00800241 0.375432 0.126047 26 102 204
-0.0091313 0.375921 -0.145582 26 102 204
-0.0129099 0.371903 0.0806277 26 102 204
-0.309247 0.32277 -0.213823 26 102 204
-0.249536 0.340671 0.212175 26 102 204
-0.290784 0.331022 -0.21262 26 102 204
-0.0204596 0.37099 -0.00564802 26 102 204
-0.0239185 0.367869 -0.105652 26 102 204
-0.0130462 0.371136 0.0843762 26 102 204
-0.00737809 0.371303 0.18668 26 102 204
-0.0205597 0.36952 -0.00474547 26 102 204
-0.421641 0.322891 -0.214978 26 102 204
-0.0237318 0.369132 -0.0493775 26 102 204
-0.257426 0.331492 0.207218 26 102 204
-0.207346 0.342299 -0.220705 26 102 204
-0.0148855 0.371948 -0.0100023 26 102 204
-0.0138195 0.371827 0.107221 26 102 204
-0.0191704 0.365054 -0.184063 26 102 204
-0.0151473 0.367751 0.144019 26 102 204
-0.012397 0.368262 0.240333 26 102 204
-0.0228996 0.370847 0.116573 26 102 204
-0.365786 0.321787 0.227941 26 102 204
-0.366359 0.323397 -0.216028 26 102 204
-0.212406 0.341017 -0.210493 26 102 204
-0.0164915 0.369388 -0.213833 26 102 204
-0.161108 0.348873 0.230693 26 102 204
-0.0200035 0.363663 -0.0510669 26 102 204
-0.0261767 0.35996 -0.0336729 26 102 204
-0.00890838 0.366177 -0.159619 26 102 204
-0.0177035 0.366193 0.168194 26 102 204
-0.171817 0.344041 0.222722 26 102 204
-0.0180808 0.366707 -0.0744653 26 102 204
-0.0124088 0.364284 0.140366 26 102 204
-0.0225532 0.364708 0.0390549 26 102 204
-0.0179861 0.362938 0.0997755 26 102 204
-0.0248505 0.361724 -0.0355704 26 102 204
-0.115982 0.349842 -0.206953 26 102 204
-0.0191493 0.367731 0.187432 26 102 204
-0.022635 0.361741 -0.232602 26 102 204
-0.294695 0.320868 0.219371 26 102 204
-0.0929167 0.349214 -0.21512 26 102 204
-0.395161 0.308935 -0.206399 26 102 204
-0.172715 0.339696 -0.202866 26 102 204
-0.0216105 0.360111 -0.236447 26 102 204
-0.0202633 0.358579 -0.0192641 26 102 204
-0.371363 0.319096 -0.209671 26 102 204
-0.0104605 0.35962 0.207085 26 102 204
-0.0745332 0.349182 -0.206186 26 102 204
-0.149267 0.331088 0.210727 26 102 204
-0.0219044 0.359712 0.0421914 26 102 204
-0.02282 0.355942 0.137228 26 102 204
-0.0195502 0.356508 -0.0437529 26 102 204
-0.321454 0.316127 0.226748 26 102 204
-0.282818 0.31447 -0.211063 26 102 204
-0.161873 0.334635 -0.210823 26 102 204
-0.0580566 0.345163 0.207928 26 102 204
-0.0376388 0.345321 -0.0223746 26 102 204
-0.0432349 0.350825 -0.0735259 26 102 204
-0.0198105 0.350822 0.15804 26 102 204
-0.0275325 0.352017 0.102452 26 102 204
-0.402326 0.293525 0.210917 26 102 204
-0.0528043 0.348227 0.210446 26 102 204
-0.00878863 0.354199 0.15103 26 102 204
-0.0472775 0.347484 0.184655 26 102 204
-0.0269355 0.352042 0.153463 26 102 204
-0.0689214 0.344321 0.221016 26 102 204
-0.428978 0.295013 0.214401 26 102 204
-0.0139442 0.348588 0.011949 26 102 204
-0.0208848 0.349328 0.107749 26 102 204
-0.163804 0.33249 -0.202078 26 102 204
-0.443629 0.291213 -0.19772 26 102 204
-0.0350144 0.345126 -0.17967 26 102 204
-0.44287 0.292404 0.219574 26 102 204
-0.0307415 0.347889 -0.0411255 26 102 204
-0.0158789 0.348642 0.219268 26 102 204
-0.0159056 0.345637 -0.169968 26 102 204
-0.11426 0.333555 -0.202442 26 102 204
-0.00866261 0.347102 0.0659698 26 102 204
-0.0139026 0.34782 0.027617 26 102 204
-0.0123335 0.335821 0.208213 26 102 204
-0.00437624 0.347129 0.103041 26 102 204
-0.297625 0.309395 0.221558 26 102 204
-0.408233 0.24768 -0.200012 26 102 204
-0.0163251 0.344415 -0.210148 26 102 204
-0.111933 0.328824 -0.208792 26 102 204
-0.0196532 0.344733 -0.211527 26 102 204
-0.0149338 0.34815 -0.131562 26 102 204
-0.250584 0.308429 -0.216375 26 102 204
-0.0526374 0.339042 -0.225199 26 102 204
-0.0539404 0.33765 -0.208222 26 102 204
-0.010822 0.343513 -0.000232786 26 102 204
-0.00554762 0.340774 0.243648 26 102 204
-0.00985575 0.344689 0.0320356 26 102 204
0.00950717 0.348145 -0.170378 26 102 204
-0.261273 0.309234 -0.203518 26 102 204
-0.0312925 0.334288 -0.185543 26 102 204
-0.0109432 0.340932 -0.208457 26 102 204
-0.0151375 0.339602 -0.051549 26 102 204
-0.200832 0.311342 -0.201896 26 102 204
-0.0124916 0.340966 -0.142848 26 102 204
-0.0262062 0.332551 -0.0429006 26 102 204
-0.00858135 0.334674 -0.161839 26 102 204
-0.0208148 0.339268 0.0733322 26 102 204
-0.340335 0.290526 0.218482 26 102 204
-0.289885 0.293072 -0.207207 26 102 204
-0.311133 0.290876 0.226169 26 102 204
-0.289882 0.300217 -0.207244 26 102 204
-0.0196607 0.338915 -0.0908821 26 102 204
-0.0102007 0.33223 0.019726 26 102 204
-0.0136077 0.338446 -0.0560927 26 102 204
-0.239379 0.302657 0.195223 26 102 204
-0.00511956 0.333031 0.034096 26 102 204
-0.0140353 0.333944 -0.161734 26 102 204
-0.439466 0.253391 -0.202478 26 102 204
-0.0126117 0.330647 0.0702342 26 102 204
-0.0166816 0.321873 -0.0397572 26 102 204
-0.00502096 0.332486 0.0969284 26 102 204
-0.00857511 0.32928 -0.233068 26 102 204
-0.00194758 0.330535 0.237166 26 102 204
-0.0137384 0.325736 -0.200237 26 102 204
-0.00998498 0.324634 0.109445 26 102 204
-0.00719293 0.325377 -0.0934854 26 102 204
-0.0104907 0.324982 -0.148161 26 102 204
-0.00409309 0.327444 0.171703 26 102 204
-0.00347635 0.32262 -0.141851 26 102 204
-0.00748024 0.320436 -0.150506 26 102 204
-0.00986398 0.321639 0.181286 26 102 204
-0.00873069 0.319409 0.0230224 26 102 204
-0.00722316 0.317427 -0.106677 26 102 204
-0.00950237 0.318913 -0.223335 26 102 204
-0.0143154 0.313725 -0.0616963 26 102 204
-0.00682346 0.313604 -0.0600119 26 102 204
-0.00921259 0.31219 0.133688 26 102 204
-0.0056961 0.317627 0.169018 26 102 204
-0.0101798 0.314743 -0.169664 26 102 204
-0.00881605 0.312054 0.0362145 26 102 204
-0.00419944 0.313393 -0.188571 26 102 204
-0.0109679 0.312329 -0.0353824 26 102 204
-0.00918934 0.30818 -0.179308 26 102 204
-0.00268536 0.310514 -0.157118 26 102 204
-0.0031039 0.30592 0.0718333 26 102 204
-0.00906946 0.303609 -0.0314052 26 102 204
-0.0131756 0.307753 0.157523 26 102 204
-0.0150018 0.305893 -0.100161 26 102 204
-0.00455951 0.307627 -0.178721 26 102 204
-0.00386002 0.307762 0.00998538 26 102 204
-0.0129348 0.304922 -0.202379 26 102 204
-0.0106481 0.306182 0.0227527 26 102 204
-0.0114323 0.3061 -0.0361295 26 102 204
-0.0112251 0.302482 0.0685586 26 102 204
-0.00946832 0.299481 -0.198374 26 102 204
-0.00379789 0.302939 0.202472 26 102 204
-0.0149136 0.323396 -0.110986 26 102 204
-0.00620187 0.297358 -0.0835748 26 102 204
-0.0157303 0.305078 -0.0129412 26 102 204
-0.00624425 0.298146 0.174276 26 102 204
-0.0121039 0.299066 -0.0711989 26 102 204
0.00185624 0.300171 0.164068 26 102 204
-0.00891974 0.302313 0.122201 26 102 204
-0.000537986 0.299176 -0.0134665 26 102 204
-0.00632721 0.297475 -0.115668 26 102 204
0.00249895 0.296046 0.237479 26 102 204
0.00404968 0.295809 0.149404 26 102 204
-0.00384836 0.297032 0.192196 26 102 204
-0.00523566 0.296462 0.234602 26 102 204
-0.00102878 0.287914 -0.122795 26 102 204
-0.0156383 0.295403 -0.0316328 26 102 204
-0.0047638 0.290715 -0.199047 26 102 204
-0.00634415 0.286999 0.118791 26 102 204
0.0016122 0.290159 0.0345931 26 102 204
-0.0114266 0.289216 -0.192149 26 102 204
-0.00270551 0.288341 -0.15332 26 102 204
-0.00285878 0.290799 -0.138697 26 102 204
-0.00539921 0.286598 0.172611 26 102 204
-0.0260421 0.296854 0.15426 26 102 204
0.00230351 0.285975 0.160558 26 102 204
-0.0100168 0.28749 0.222816 26 102 204
-0.0144261 0.283899 -0.130323 26 102 204
-0.00743237 0.282598 0.213946 26 102 204
-0.000463496 0.284188 -0.159427 26 102 204
-0.00149626 0.282758 0.180337 26 102 204
0.00520062 0.281821 0.261239 26 102 204
0.00169757 0.279424 0.180591 26 102 204
-0.00204817 0.278043 0.0608002 26 102 204
-0.00725946 0.279319 0.168145 26 102 204
0.00263043 0.275928 -0.0733509 26 102 204
0.00323689 0.275859 0.205687 26 102 204
0.00781616 0.276123 0.226608 26 102 204
0.00532835 0.275901 0.256312 26 102 204
-0.00351322 0.274279 -0.101442 26 102 204
0.00186107 0.273005 -0.179437 26 102 204
0.0039711 0.269764 0.0741594 26 102 204
-0.0136701 0.265427 -0.124196 26 102 204
-0.00111922 0.265933 0.0911029 26 102 204
-0.00730755 0.270202 -0.216829 26 102 204
0.00564109 0.268107 0.166931 26 102 204
0.00120884 0.265415 0.0832801 26 102 204
-0.0219615 0.259572 -0.165472 26 102 204
-0.00748504 0.263687 -0.108395 26 102 204
-0.00145891 0.26179 0.202576 26 102 204
-0.00392765 0.261455 -0.197335 26 102 204
-0.00251657 0.261319 0.00675159 26 102 204
-0.00382127 0.25993 -0.117323 26 102 204
0.00241162 0.259921 0.128002 26 102 204
-0.000630695 0.256663 0.11755 26 102 204
-0.00250248 0.256949 -0.230339 26 102 204
-0.00314816 0.254272 -0.0516564 26 102 204
0.0102605 0.25505 0.246707 26 102 204
0.00455631 0.252473 0.0324084 26 102 204
0.00686619 0.252022 -0.241701 26 102 204
-0.0101562 0.248863 -0.038249 26 102 204
0.00420933 0.245927 0.0228396 26 102 204
0.00449619 0.242945 0.160607 26 102 204
0.00486293 0.246318 0.0434987 26 102 204
0.000534018 0.244425 0.210781 26 102 204
0.00678818 0.241955 -0.0980888 26 102 204
-0.019723 0.236545 0.0208048 26 102 204
-0.00575548 0.238299 -0.0639298 26 102 204
0.0053268 0.23778 -0.191584 26 102 204
0.0058905 0.239036 0.12708 26 102 204
0.0129165 0.236501 0.25393 26 102 204
0.00220625 0.239317 -0.236245 26 102 204
0.00806599 0.234477 0.154412 26 102 204
0.00288038 0.232432 -0.0687798 26 102 204
0.00407541 0.22932 -0.0976155 26 102 204
0.0070271 0.231832 0.121096 26 102 204
-0.0068121 0.225247 0.125808 26 102 204
-0.0275532 0.220791 0.00364403 26 102 204
-0.00405756 0.222018 0.12369 26 102 204
-0.00449299 0.223825 -0.194932 26 102 204
-0.0029125 0.222667 0.035808 26 102 204
0.00498194 0.217648 0.0745329 26 102 204
-0.0111622 0.217012 0.051246 26 102 204
0.00718827 0.221226 -0.00844933 26 102 204
-0.00711389 0.216786 -0.0200848 26 102 204
-0.000983187 0.216202 0.00587171 26 102 204
0.00470991 0.218317 0.235596 26 102 204
0.00455297 0.212967 0.198182 26 102 204
-0.0298967 0.210386 -0.157646 26 102 204
0.00471433 0.212565 0.0839022 26 102 204
0.0124649 0.214076 0.196478 26 102 204
0.00341272 0.211554 0.085577 26 102 204
0.0020416 0.209178 0.142799 26 102 204
0.00725582 0.214617 0.111659 26 102 204
0.00692664 0.212536 -0.0599993 26 102 204
0.00431204 0.211839 0.160438 26 102 204
-0.00491293 0.208032 0.0485403 26 102 204
0.00562281 0.210325 -0.159961 26 102 204
-0.00198807 0.205438 -0.140182 26 102 204
0.00791591 0.198898 -0.243725 26 102 204
-0.000656468 0.204401 -0.0426251 26 102 204
-0.000212008 0.203932 -0.0735033 26 102 204
0.0105249 0.205454 0.0709312 26 102 204
0.00687566 0.200978 0.0608942 26 102 204
0.00545235 0.202312 -0.120933 26 102 204
-0.00366049 0.199837 -0.0905287 26 102 204
0.0053796 0.199604 -0.0899007 26 102 204
0.00666428 0.198064 0.00326339 26 102 204
0.000935091 0.197566 -0.0249611 26 102 204
0.0114626 0.196975 0.0188023 26 102 204
0.00342203 0.197232 -0.144517 26 102 204
-0.0315643 0.188956 -0.141157 26 102 204
0.0107081 0.193046 -0.0917402 26 102 204
0.00206236 0.193014 -0.114248 26 102 204
0.00165927 0.192661 -0.0943241 26 102 204
-0.00375197 0.190905 0.0158023 26 102 204
0.0101493 0.191336 0.177093 26 102 204
-0.0074021 0.191002 0.0994545 26 102 204
0.0111295 0.190642 0.263955 26 102 204
0.00490988 0.183965 -0.115822 26 102 204
0.00676735 0.186826 0.0510277 26 102 204
0.00430284 0.183968 0.0506881 26 102 204
0.00827426 0.184088 -0.0357952 26 102 204
0.0165528 0.185235 0.2494 26 102 204
0.0106117 0.182158 0.261573 26 102 204
0.00904456 0.179619 0.16175 26 102 204
0.00496585 0.180369 0.0743869 26 102 204
0.0113306 0.17784 0.0475767 26 102 204
0.00278992 0.17498 0.00383449 26 102 204
0.00670108 0.175317 -0.200454 26 102 204
0.0120914 0.178305 -0.164672 26 102 204
0.0127103 0.170599 0.0910243 26 102 204
0.00469404 0.173612 0.19159 26 102 204
0.0148161 0.173476 0.252147 26 102 204
-0.00127851 0.170058 -0.0861378 26 102 204
0.00610723 0.168223 -0.0321571 26 102 204
0.00756668 0.168733 -0.175588 26 102 204
0.00632583 0.166546 0.146786 26 102 204
0.00884342 0.165232 0.161783 26 102 204
0.00860336 0.165731 0.128309 26 102 204
0.0104918 0.163965 0.0332158 26 102 204
0.0101254 0.165279 -0.044976 26 102 204
0.00943285 0.16225 -0.151764 26 102 204
0.0143003 0.162965 0.162658 26 102 204
0.0121882 0.160823 -0.203148 26 102 204
0.0153441 0.163414 0.226601 26 102 204
0.0104938 0.157976 0.173326 26 102 204
0.00537288 0.156943 -0.0625185 26 102 204
0.00328258 0.155642 -0.118018 26 102 204
0.0117716 0.155709 -0.220115 26 102 204
0.000422856 0.157026 -0.0575858 26 102 204
0.0104836 0.156008 0.19167 26 102 204
-0.0306565 0.148605 -0.152382 26 102 204
0.0135605 0.150951 -0.115322 26 102 204
0.00530206 0.148064 0.0586717 26 102 204
0.00215319 0.14632 -0.118054 26 102 204
0.00744809 0.147603 0.112445 26 102 204
0.0024732 0.146275 -0.149725 26 102 204
0.00779369 0.147513 0.171948 26 102 204
0.00695516 0.146177 0.0796751 26 102 204
-0.0133075 0.14036 0.0647516 26 102 204
0.014727 0.144876 0.134303 26 102 204
-0.00464942 0.144752 -0.055488 26 102 204
0.0124066 0.141948 0.226379 26 102 204
0.00845531 0.14012 0.00460363 26 102 204
-0.00403006 0.13657 0.126006 26 102 204
0.0123585 0.14005 -0.132182 26 102 204
0.00842415 0.137229 -0.0333898 26 102 204
0.00665551 0.137207 -0.183616 26 102 204
0.00158811 0.135138 0.0252074 26 102 204
0.00764343 0.132788 -0.0729261 26 102 204
0.00737945 0.133672 0.06106 26 102 204
0.00628584 0.132371 -0.0321805 26 102 204
0.0145385 0.13587 -0.186633 26 102 204
0.0106918 0.132177 -0.232687 26 102 204
0.0109962 0.13182 -0.0235387 26 102 204
0.0134197 0.132031 -0.0993454 26 102 204
0.0112355 0.130751 -0.117462 26 102 204
0.0108697 0.128522 -0.0266864 26 102 204
0.0178672 0.128701 -0.176846 26 102 204
0.0100014 0.131637 -0.190151 26 102 204
0.0176325 0.129263 -0.219131 26 102 204
-0.0137642 0.129635 -0.165279 26 102 204
0.0168087 0.134104 0.188106 26 102 204
0.00991517 0.123345 -0.0490221 26 102 204
0.00565812 0.124268 -0.0859643 26 102 204
0.0119461 0.123848 -0.200434 26 102 204
0.00718459 0.12307 -0.00669117 26 102 204
0.0173769 0.125835 0.171012 26 102 204
0.00217233 0.120209 -0.13099 26 102 204
0.00268059 0.119473 -0.206571 26 102 204
0.01264 0.122041 0.0464341 26 102 204
0.0155702 0.122598 0.265202 26 102 204
0.0131851 0.119071 0.226049 26 102 204
-0.035877 0.103938 0.241063 26 102 204
0.016071 0.120906 -0.172549 26 102 204
0.0139427 0.115972 -0.0998559 26 102 204
0.0118718 0.119594 -0.239493 26 102 204
0.0161736 0.112209 0.222562 26 102 204
0.0149484 0.115571 -0.0560729 26 102 204
0.00856077 0.110839 0.000712466 26 102 204
0.0185345 0.111848 0.254729 26 102 204
0.000414773 0.107375 -0.101349 26 102 204
0.0203668 0.108041 0.248908 26 102 204
0.0142259 0.109772 0.0541997 26 102 204
-0.024189 0.104072 -0.141377 26 102 204
0.0102174 0.110966 0.216646 26 102 204
0.011217 0.104667 0.222008 26 102 204
0.00841595 0.10434 0.12897 26 102 204
0.0120683 0.102624 0.191561 26 102 204
0.00379585 0.0996544 -0.203137 26 102 204
0.0171431 0.101415 -0.236012 26 102 204
0.0164223 0.100902 -0.144399 26 102 204
0.0139836 0.0975981 0.0506502 26 102 204
0.0127138 0.0974832 -0.16544 26 102 204
0.017409 0.0938537 0.141651 26 102 204
0.00378656 0.0924087 -0.0591684 26 102 204
0.0218004 0.0952748 0.206933 26 102 204
0.0148831 0.0963589 0.250652 26 102 204
0.00728761 0.091593 -0.14997 26 102 204
0.0150769 0.0921495 -0.116749 26 102 204
0.0186976 0.090509 0.111272 26 102 204
0.00191227 0.0885729 -0.0565806 26 102 204
0.00889583 0.0855986 -0.155524 26 102 204
0.014946 0.0859981 -0.0589637 26 102 204
0.0160682 0.0859603 -0.110716 26 102 204
0.0196729 0.0842267 -0.160224 26 102 204
0.0171919 0.084548 -0.183859 26 102 204
0.0164454 0.0853531 -0.144045 26 102 204
0.015472 0.0823716 -0.0246239 26 102 204
0.00646365 0.0791397 -0.106988 26 102 204
0.0179787 0.0804793 -0.108336 26 102 204
0.0173807 0.0797798 -0.00712505 26 102 204
-0.00491041 0.0781532 -0.174969 26 102 204
0.00914512 0.0813777 0.0470189 26 102 204
0.0199643 0.0768604 0.041916 26 102 204
0.0209869 0.0780709 0.18165 26 102 204
0.0159986 0.0764673 -0.229756 26 102 204
0.00899346 0.0744956 -0.185496 26 102 204
0.0140344 0.0738163 0.115077 26 102 204
0.0199524 0.0722106 0.0949573 26 102 204
0.0143486 0.0719902 0.233678 26 102 204
0.013628 0.0700048 -0.0139752 26 102 204
0.0148407 0.071669 -0.164383 26 102 204
0.0193706 0.073425 0.0380533 26 102 204
0.0177002 0.0707322 0.023186 26 102 204
0.0112495 0.0706193 -0.200544 26 102 204
-0.0358036 0.0614477 -0.00947664 26 102 204
0.0120345 0.0689025 0.0232596 26 102 204
0.0168078 0.0696483 0.0587956 26 102 204
0.0224137 0.0686888 0.239056 26 102 204
0.00619387 0.0663055 0.0371753 26 102 204
0.0144714 0.0657459 -0.106905 26 102 204
0.0166081 0.0666093 0.257057 26 102 204
0.0197597 0.0673089 -0.0982089 26 102 204
0.0187007 0.0678314 0.250566 26 102 204
0.0179444 0.0635894 -0.00858542 26 102 204
0.0152847 0.0665429 0.159139 26 102 204
0.0109468 0.0615624 -0.18412 26 102 204
0.0209414 0.0605973 -0.143391 26 102 204
0.0187447 0.0600458 0.0691798 26 102 204
0.00919439 0.0601876 -0.0713817 26 102 204
0.0201074 0.0560074 -0.0505818 26 102 204
0.00876468 0.0570571 -0.00408948 26 102 204
0.0227868 0.055798 0.121548 26 102 204
0.0177699 0.0568176 -0.220974 26 102 204
0.0187802 0.0584728 -0.0321384 26 102 204
0.0138069 0.084564 0.100015 26 102 204
0.019807 0.0536463 -0.197067 26 102 204
0.0207092 0.0517854 -0.223359 26 102 204
0.0150246 0.0484588 0.124382 26 102 204
0.0166437 0.0478661 -0.0551672 26 102 204
0.0210045 0.0486235 0.219583 26 102 204
0.0117502 0.045451 -0.0577208 26 102 204
0.0242087 0.0452344 0.215277 26 102 204
0.0175395 0.0463479 0.0307577 26 102 204
0.0183789 0.0461632 -0.0450451 26 102 204
0.0218552 0.0465944 -0.213144 26 102 204
0.0199426 0.0431909 0.184804 26 102 204
0.0116959 0.0414477 0.0243202 26 102 204
0.0236931 0.0430938 0.197468 26 102 204
0.0175819 0.0382664 0.114749 26 102 204
0.00414333 0.0383145 0.0778171 26 102 204
0.0155243 0.0439981 -0.0507395 26 102 204
-0.016217 0.0328298 0.0575362 26 102 204
0.018209 0.0382136 -0.0632673 26 102 204
0.0211471 0.0358964 -0.178577 26 102 204
-0.00215763 0.218358 0.0151422 26 102 204
0.0212837 0.0368383 -0.234421 26 102 204
0.0235946 0.0335888 0.244557 26 102 204
0.0211159 0.0365921 -0.0406635 26 102 204
0.0167147 0.0325709 -0.109304 26 102 204
0.0191322 0.0316465 -0.0346433 26 102 204
0.0211203 0.0314718 0.0229335 26 102 204
-0.0273855 0.0288904 0.0184539 26 102 204
0.0123732 0.0281614 0.0260903 26 102 204
0.0163594 0.0280414 -0.000775655 26 102 204
0.0215862 0.0274285 0.00405834 26 102 204
0.0137167 0.0276425 -0.0414137 26 102 204
0.0184385 0.0305325 -0.11627 26 102 204
0.0197979 0.026469 -0.136868 26 102 204
0.0153077 0.0246413 -0.188707 26 102 204
0.0179524 0.0263629 0.151808 26 102 204
0.0114261 0.0226067 -0.0565141 26 102 204
0.0160966 0.0233612 0.114216 26 102 204
0.0213345 0.0241875 -0.129925 26 102 204
0.00416197 0.0200286 -0.103595 26 102 204
0.0230237 0.0285595 -0.0775072 26 102 204
0.0138128 0.0190402 -0.0224557 26 102 204
0.0165007 0.0185261 -0.0357419 26 102 204
0.0156411 0.117132 -0.00216833 26 102 204
0.0153403 0.0218048 -0.0558073 26 102 204
0.0204108 0.0191492 -0.076025 26 102 204
0.00269371 0.015717 -0.167232 26 102 204
0.0108618 0.0184113 0.0217458 26 102 204
-0.0110401 0.0133442 -0.0601397 26 102 204
0.0269476 0.0173012 0.0708813 26 102 204
0.0329015 0.0218684 0.23058 26 102 204
0.0100241 0.0157956 -0.0723083 26 102 204
0.028664 0.0164191 0.232912 26 102 204
0.0130783 0.0145242 0.13205 26 102 204
-0.0218485 0.0118564 0.0343234 26 102 204
0.0261391 0.0145657 0.205921 26 102 204
0.0229188 0.0148392 0.187965 26 102 204
0.0090795 0.0120333 -0.204463 26 102 204
0.0135291 0.0118544 0.155913 26 102 204
0.00331508 0.010858 0.00600859 26 102 204
0.00735505 0.0133911 -0.042507 26 102 204
-0.00529917 0.0109013 0.0912317 26 102 204
0.0232548 0.0124821 0.00666354 26 102 204
0.0011857 0.00965707 -0.00400427 26 102 204
0.00765507 0.0109048 -0.0779121 26 102 204
0.0229914 0.0142773 -0.068851 26 102 204
0.00885012 0.0101353 0.0439764 26 102 204
0.0146036 0.0111567 0.0827906 26 102 204
0.0106152 0.00904948 0.0485055 26 102 204
0.0224377 0.0118206 -0.235176 26 102 204
0.0259924 0.0117141 0.210375 26 102 204
0.00573138 0.00787995 0.144958 26 102 204
0.0135081 0.00881947 0.117361 26 102 204
0.0274748 0.0115102 0.173538 26 102 204
0.0191494 0.0136818 -0.142891 26 102 204
0.018189 0.0080957 -0.168953 26 102 204
0.0175192 0.00989966 -0.156096 26 102 204
-0.000944685 0.0102977 0.0507318 26 102 204
0.0164204 0.00650371 0.0609114 26 102 204
0.0255156 0.00945279 -0.0796346 26 102 204
0.0128134 0.00634548 0.164282 26 102 204
0.0219799 0.00764116 0.12979 26 102 204
0.0219562 0.00541516 0.10743 26 102 204
0.0332035 -0.121815 0.226432 26 102 204
0.0269103 0.00924112 0.235758 26 102 204
0.0366891 -0.114431 0.115801 26 102 204
0.0200718 0.0056941 -0.073753 26 102 204
0.012762 0.000599558 -0.167454 26 102 204
0.02134 0.00303162 -0.0840939 26 102 204
0.0254957 0.0026465 0.205117 26 102 204
0.00765084 -0.000713296 0.098792 26 102 204
0.0114687 9.86931e-05 -0.0562848 26 102 204
0.0202205 -0.00240269 -0.206254 26 102 204
0.0216909 0.000552834 0.00364737 26 102 204
0.0209048 -0.00145364 0.16392 26 102 204
0.0216455 0.000251407 -0.0739816 26 102 204
0.0230255 0.000108086 -0.121498 26 102 204
0.00979676 -0.00275848 -0.0380682 26 102 204
0.0202733 -0.0013469 0.00373476 26 102 204
0.00927517 -0.00608688 0.0622508 26 102 204
0.00907592 -0.00647552 -0.00876212 26 102 204
0.0114536 -0.00590247 0.106352 26 102 204
0.00530233 0.21422 -0.0950967 26 102 204
0.0126655 -0.00977739 -0.0654123 26 102 204
0.0115583 -0.0066141 -0.167776 26 102 204
0.0142095 -0.0115421 -0.132137 26 102 204
0.00686621 -0.00905604 -0.0852475 26 102 204
0.014645 -0.00796113 -0.151731 26 102 204
0.0113789 -0.00956062 0.167129 26 102 204
0.00985477 -0.0108694 0.0526793 26 102 204
0.00958629 -0.0115823 0.203748 26 102 204
0.00186008 -0.0139 0.159875 26 102 204
0.00148823 -0.0133228 -0.0280049 26 102 204
0.0302507 -0.00957336 0.160183 26 102 204
0.0167093 -0.015166 -0.0567949 26 102 204
0.0240774 -0.0137349 0.169304 26 102 204
0.0218972 -0.0201926 0.208578 26 102 204
0.0269877 0.00297742 0.122086 26 102 204
0.0108227 -0.0188781 0.0122644 26 102 204
0.0215803 -0.0204262 -0.134106 26 102 204
0.0120776 -0.0216365 0.104275 26 102 204
0.0202028 -0.0199616 -0.177275 26 102 204
0.00218526 -0.023503 0.0691055 26 102 204
0.0132357 -0.0262519 -0.203787 26 102 204
0.0323666 -0.022972 0.256929 26 102 204
0.0320158 -0.0213819 0.236547 26 102 204
0.0235768 -0.025092 0.120941 26 102 204
0.0273394 -0.0229189 0.0302301 26 102 204
0.0345924 -0.0241292 0.24599 26 102 204
0.0160765 -0.0296981 0.20472 26 102 204
0.0278793 -0.0363362 -0.0816733 26 102 204
0.0042191 -0.0304613 0.00115249 26 102 204
0.0195671 -0.028971 -0.00106236 26 102 204
0.0268763 -0.0262934 -0.0824283 26 102 204
0.0216947 -0.0295565 -0.125309 26 102 204
0.0270902 -0.0277124 0.0133383 26 102 204
0.0274075 -0.0275908 -0.0954679 26 102 204
0.0344497 -0.0292359 0.230273 26 102 204
0.0266834 -0.0302967 0.147835 26 102 204
0.0240132 -0.0327551 -0.176253 26 102 204
0.0271683 -0.0294416 -0.184732 26 102 204
0.00362266 -0.0354083 -0.0959065 26 102 204
0.0371269 -0.0716242 0.22128 26 102 204
0.0282847 -0.032226 -0.173392 26 102 204
0.0227231 -0.038866 0.244847 26 102 204
-0.196994 -0.127885 -0.207465 26 102 204
0.0273883 -0.0338947 0.0902088 26 102 204
0.027017 -0.0372468 0.175949 26 102 204
0.0301276 -0.0361855 0.0748239 26 102 204
0.0317073 -0.0370937 -0.179717 26 102 204
0.0210981 -0.0541869 -0.0176558 26 102 204
0.0248211 -0.0370727 -0.00202123 26 102 204
0.0293943 -0.037435 0.00282147 26 102 204
0.0233278 -0.0385483 -0.180147 26 102 204
0.0311402 -0.0382147 0.216079 26 102 204
0.0321454 -0.0409498 0.223459 26 102 204
0.024146 -0.0387107 0.0281953 26 102 204
0.0230835 -0.0415049 -0.048719 26 102 204
0.020272 -0.0437329 -0.0346171 26 102 204
0.027419 -0.0406037 -0.0535931 26 102 204
0.0306633 -0.0437691 0.0442176 26 102 204
0.0270088 -0.0407577 -0.23126 26 102 204
0.0300844 -0.0430057 0.0695257 26 102 204
0.0369033 -0.0410389 0.252322 26 102 204
0.034774 -0.0444184 0.213068 26 102 204
0.0282008 -0.0454919 0.243717 26 102 204
0.020613 -0.0480081 -0.163577 26 102 204
0.0361358 -0.0475447 0.246955 26 102 204
0.0111845 -0.0468649 -0.0200953 26 102 204
0.0310184 -0.0468551 0.0414832 26 102 204
0.0298754 -0.0487183 -0.0539836 26 102 204
0.0314732 -0.0480182 0.226023 26 102 204
0.0332017 -0.0494001 0.260944 26 102 204
0.0257508 -0.0498533 -0.015522 26 102 204
0.0280171 -0.0509892 0.0104838 26 102 204
0.0221801 -0.0744858 0.237396 26 102 204
0.0302296 -0.0534795 0.152105 26 102 204
0.0221783 -0.0527861 -0.0624348 26 102 204
0.0345983 -0.053423 0.175176 26 102 204
0.0102796 -0.0581036 -0.204173 26 102 204
0.0313136 -0.054895 -0.0311012 26 102 204
0.0262201 -0.0543706 -0.10554 26 102 204
0.0236305 -0.0533845 -0.0386036 26 102 204
0.0198629 -0.0571383 -0.0809672 26 102 204
0.0272567 -0.0542791 0.0836132 26 102 204
0.0304916 -0.0583277 0.06219 26 102 204
0.0315177 -0.0560115 0.191668 26 102 204
0.0299395 -0.0597539 0.0471669 26 102 204
0.0307148 -0.0586964 2.14034e-06 26 102 204
-0.0198643 -0.0634593 -0.00312496 26 102 204
0.0322706 -0.0618645 0.133865 26 102 204
0.0264053 -0.0603485 0.0156757 26 102 204
0.032144 -0.060625 -0.240715 26 102 204
0.0350434 -0.0599475 0.166167 26 102 204
0.0318044 -0.0614377 -0.00696686 26 102 204
0.0192647 -0.0645726 -0.122823 26 102 204
0.0322673 -0.0620245 0.178995 26 102 204
0.0247511 -0.0643418 -0.0192564 26 102 204
0.0293245 -0.0614182 -0.22962 26 102 204
0.0194866 -0.0654708 -0.096498 26 102 204
0.0326585 -0.0644189 0.119811 26 102 204
0.0307867 -0.0656118 -0.236396 26 102 204
0.0308166 -0.062556 0.207426 26 102 204
0.0320012 -0.0731474 -0.00581779 26 102 204
0.0269734 -0.0708406 -0.00644632 26 102 204
0.0306819 -0.0692508 0.193015 26 102 204
0.0280874 -0.0702849 -0.104089 26 102 204
0.028998 -0.071616 0.237998 26 102 204
0.0346537 -0.0707169 -0.177067 26 102 204
0.0296297 -0.0743759 0.0177981 26 102 204
0.0353181 -0.0754795 0.221555 26 102 204
0.0320435 -0.0769545 -0.126376 26 102 204
0.0295884 -0.0840389 -0.233122 26 102 204
0.0316042 -0.0781642 0.174384 26 102 204
0.0382345 -0.0766795 0.245715 26 102 204
0.026749 -0.0882733 0.0181954 26 102 204
0.0280348 -0.0787437 -0.0300442 26 102 204
0.034963 -0.0910545 0.10085 26 102 204
0.0361561 -0.0819442 -0.0467537 26 102 204
0.033702 -0.0833332 0.18197 26 102 204
0.0273132 -0.0852886 -0.14681 26 102 204
0.0240605 -0.0849683 -0.0259013 26 102 204
0.0250318 -0.0866902 0.103808 26 102 204
0.0304982 -0.0859323 0.102627 26 102 204
0.0267368 -0.0888875 0.0664198 26 102 204
0.0253523 -0.0880724 0.152865 26 102 204
0.0351263 -0.0876432 -0.221369 26 102 204
0.0189664 -0.0904438 -0.136345 26 102 204
0.0301518 -0.0898073 0.144641 26 102 204
0.0381449 -0.0929869 0.233935 26 102 204
0.022155 -0.0919737 -0.124558 26 102 204
-0.0178438 -0.0989138 -0.0364285 26 102 204
0.0355973 -0.0910398 -0.176422 26 102 204
-0.00120417 -0.0980261 -0.0865571 26 102 204
0.0357736 -0.0928876 0.134365 26 102 204
0.028553 -0.0950313 0.217314 26 102 204
0.0324198 -0.0955741 0.234729 26 102 204
0.00627275 -0.0965868 -0.0156245 26 102 204
0.0304123 -0.0969559 0.103108 26 102 204
0.0344685 -0.094513 -0.0317424 26 102 204
0.0283689 -0.0980829 0.0879887 26 102 204
0.0338846 -0.0995126 0.115006 26 102 204
0.0300881 -0.0973929 -0.171458 26 102 204
0.023251 -0.102734 0.146276 26 102 204
0.0365812 -0.102284 0.233056 26 102 204
0.0263371 -0.105521 -0.100178 26 102 204
0.0362996 -0.103445 0.218209 26 102 204
0.0281376 -0.106531 -0.0758988 26 102 204
0.03297 -0.10853 -0.203673 26 102 204
0.0387282 -0.109146 -0.168866 26 102 204
0.0353253 -0.109272 -0.000208696 26 102 204
0.026168 -0.118626 -0.0419265 26 102 204
0.0134344 -0.115329 0.0870826 26 102 204
0.0350663 -0.111711 -0.125736 26 102 204
0.0306533 -0.110427 -0.0437213 26 102 204
0.0342637 -0.113429 -0.0803677 26 102 204
0.0332426 -0.114489 0.0416876 26 102 204
0.0404518 -0.116554 0.221203 26 102 204
0.0387414 -0.116544 -0.213864 26 102 204
0.0361555 -0.116763 -0.195544 26 102 204
0.0353391 -0.115952 0.0326102 26 102 204
0.00529524 -0.121365 -0.0720352 26 102 204
0.00403438 -0.122571 -0.131716 26 102 204
0.0275654 -0.124444 -0.0938182 26 102 204
0.0320242 -0.121489 0.123722 26 102 204
0.0294679 -0.128464 -0.0180461 26 102 204
0.0364422 -0.123972 -0.077934 26 102 204
0.0314229 -0.127412 -0.0583501 26 102 204
0.0413411 -0.126895 0.246235 26 102 204
0.0409887 -0.123017 0.0883277 26 102 204
0.0351346 -0.124647 0.0592394 26 102 204
0.0303695 -0.128157 -0.191056 26 102 204
0.040983 -0.12903 0.189375 26 102 204
0.038325 -0.131983 -0.207414 26 102 204
0.0320035 -0.134795 0.115918 26 102 204
0.040904 -0.140232 -0.0996217 26 102 204
0.0164635 -0.136361 0.0682021 26 102 204
0.0366935 -0.138787 -0.187481 26 102 204
0.0449386 -0.130539 0.127324 26 102 204
0.0251895 -0.137408 -0.0905203 26 102 204
0.0415815 -0.139119 0.170528 26 102 204
0.0217805 -0.143701 -0.0513656 26 102 204
0.0290889 -0.139855 0.0502189 26 102 204
0.0406384 -0.146501 0.196688 26 102 204
0.0115708 -0.14887 -0.168388 26 102 204
0.0254317 -0.149946 -0.0414447 26 102 204
0.0154876 -0.149483 -0.00265795 26 102 204
0.038007 -0.15095 0.0754347 26 102 204
0.010939 -0.151325 -0.0466017 26 102 204
0.0408365 -0.155485 -0.235545 26 102 204
0.031182 -0.152997 -0.0604578 26 102 204
0.0441905 -0.150672 0.193011 26 102 204
0.0256161 -0.155253 -0.0215023 26 102 204
0.039672 -0.152056 -0.160963 26 102 204
0.0010775 -0.157762 0.0530596 26 102 204
0.0352805 -0.163939 -0.198111 26 102 204
0.0394907 -0.156377 0.0541561 26 102 204
0.0451363 -0.155354 0.187597 26 102 204
0.041459 -0.153544 0.248575 26 102 204
0.0349001 -0.162523 -0.000310752 26 102 204
0.0363254 -0.159273 0.135102 26 102 204
0.0420448 -0.158744 0.0539529 26 102 204
0.0414561 -0.161471 0.0921473 26 102 204
0.0434643 -0.161134 0.119146 26 102 204
0.0420966 -0.165597 0.0389358 26 102 204
-0.0023652 -0.168122 0.0645976 26 102 204
0.0449832 -0.168587 0.152112 26 102 204
0.0309987 -0.166023 0.216665 26 102 204
0.0495674 -0.166897 0.260921 26 102 204
0.0373982 -0.168541 -0.0559545 26 102 204
0.0432387 -0.169172 0.227965 26 102 204
0.0430815 -0.170218 -0.13134 26 102 204
0.0421377 -0.174196 0.125861 26 102 204
0.0451634 -0.173899 -0.158644 26 102 204
0.0372262 -0.176465 -0.0688768 26 102 204
0.0377563 -0.176977 -0.000664219 26 102 204
0.0417281 -0.177973 0.0387116 26 102 204
0.0464604 -0.178386 0.255825 26 102 204
0.010737 -0.179733 -0.0918704 26 102 204
0.0426825 -0.179683 0.0872074 26 102 204
0.0376023 -0.181456 -0.140569 26 102 204
0.0419773 -0.179887 0.125625 26 102 204
0.04404 -0.181968 -0.191588 26 102 204
0.0353406 -0.183238 0.00465825 26 102 204
0.0447818 -0.179355 0.0627092 26 102 204
0.0533012 -0.181419 0.252121 26 102 204
0.0463001 -0.183768 0.228333 26 102 204
0.0427714 -0.186161 0.217042 26 102 204
-0.000143259 -0.185076 -0.165009 26 102 204
0.0423758 -0.184325 -0.147279 26 102 204
0.0473039 -0.184286 -0.208778 26 102 204
0.0511509 -0.1845 0.187642 26 102 204
0.044156 -0.185017 0.105301 26 102 204
0.0401308 -0.185056 -0.0736234 26 102 204
0.045355 -0.189561 0.151445 26 102 204
0.0132701 -0.192002 0.0381264 26 102 204
0.0324312 -0.188607 -0.149424 26 102 204
0.0330679 -0.192039 0.0598931 26 102 204
0.0434605 -0.190524 -0.230461 26 102 204
0.0359793 -0.190686 -0.0356728 26 102 204
0.0494055 -0.191992 -0.204335 26 102 204
0.0359894 -0.192859 0.0203459 26 102 204
0.0429092 -0.188941 -0.203355 26 102 204
0.0423818 -0.192009 -0.191327 26 102 204
0.0369617 -0.19472 -0.0013538 26 102 204
0.0579307 -0.188894 0.230667 26 102 204
0.0493733 -0.194812 -0.200497 26 102 204
0.0393702 -0.196939 0.0987727 26 102 204
0.0552032 -0.19516 0.242386 26 102 204
0.0429735 -0.196013 0.105979 26 102 204
0.0377046 -0.19881 0.0453739 26 102 204
0.0457583 -0.196735 0.149284 26 102 204
0.0427164 -0.197895 0.0742752 26 102 204
0.0469174 -0.198279 -0.0985196 26 102 204
0.0448272 -0.20018 -0.197216 26 102 204
0.0461661 -0.202288 -0.185817 26 102 204
0.0460956 -0.196445 -0.226443 26 102 204
0.0459647 -0.205333 -0.0319796 26 102 204
0.0455317 -0.199477 0.24624 26 102 204
0.0410687 -0.206575 -0.173931 26 102 204
0.037589 -0.206694 0.146988 26 102 204
0.0374091 -0.209563 0.091038 26 102 204
0.047263 -0.20823 0.133324 26 102 204
0.0413087 -0.208307 0.148302 26 102 204
0.0348114 -0.204217 -0.0796175 26 102 204
0.0415664 -0.210614 0.0803093 26 102 204
0.0508327 -0.213973 -0.231358 26 102 204
0.0414017 -0.215375 -0.221239 26 102 204
0.0386551 -0.2182 0.0189339 26 102 204
0.0445866 -0.21381 -0.0798127 26 102 204
0.0409267 -0.219495 -0.119908 26 102 204
0.0403869 -0.218832 -0.20649 26 102 204
0.0399371 -0.218193 -0.137529 26 102 204
0.0431508 -0.219819 -0.187809 26 102 204
0.036102 -0.203911 0.141441 26 102 204
0.0352995 -0.221332 0.156411 26 102 204
0.0457881 -0.224316 -0.0944079 26 102 204
0.0398577 -0.226866 0.194601 26 102 204
0.0498246 -0.224291 -0.16277 26 102 204
0.0502615 -0.230099 0.211839 26 102 204
0.0440293 -0.228371 0.206821 26 102 204
0.0482763 -0.229237 0.178173 26 102 204
0.0358147 -0.234138 0.0399331 26 102 204
0.0428855 -0.219419 -0.154233 26 102 204
0.02765 -0.236702 -0.144595 26 102 204
0.0443263 -0.239032 -0.025853 26 102 204
0.0405717 -0.236097 0.182825 26 102 204
0.0446412 -0.237569 0.170005 26 102 204
0.0510259 -0.234486 0.225218 26 102 204
0.0504141 -0.242065 -0.155103 26 102 204
0.0511432 -0.241634 -0.143874 26 102 204
0.0379374 -0.245166 -0.135829 26 102 204
0.0423802 -0.242006 -0.097505 26 102 204
0.0436602 -0.243485 -0.195183 26 102 204
0.0500963 -0.24274 -0.177473 26 102 204
0.0342912 -0.244477 -0.165854 26 102 204
0.0414328 -0.247993 0.134652 26 102 204
0.0498185 -0.243612 0.0344029 26 102 204
0.0414237 -0.244696 0.00306809 26 102 204
0.0517128 -0.248128 -0.20267 26 102 204
0.0358246 -0.248577 0.0605327 26 102 204
0.0479409 -0.249852 -0.164763 26 102 204
0.0434195 -0.253094 0.0658007 26 102 204
0.0126051 -0.251184 -0.184679 26 102 204
0.0465706 -0.2513 0.081251 26 102 204
0.0517193 -0.249802 -0.235241 26 102 204
0.0526669 -0.250248 0.117826 26 102 204
0.0425926 -0.256551 -0.177466 26 102 204
0.0411344 -0.255339 -0.0359177 26 102 204
0.0440217 -0.25458 0.0586221 26 102 204
0.0327119 -0.287147 -0.155692 26 102 204
0.0279156 -0.259127 0.170056 26 102 204
0.0539946 -0.258773 -0.170225 26 102 204
0.060195 -0.256962 0.229884 26 102 204
0.0450059 -0.259528 0.111906 26 102 204
0.0463377 -0.2609 -0.172863 26 102 204
0.0499728 -0.262121 -0.171373 26 102 204
0.0511489 -0.263902 -0.0741094 26 102 204
0.0570278 -0.262704 0.208268 26 102 204
0.0501442 -0.264451 -0.174939 26 102 204
0.055987 -0.265371 0.0606815 26 102 204
0.051532 -0.26683 -0.210549 26 102 204
0.055991 -0.265929 0.212158 26 102 204
0.0487816 -0.268194 0.109367 26 102 204
0.0560385 -0.27071 0.232101 26 102 204
0.0555579 -0.272336 0.117486 26 102 204
0.0606354 -0.27107 0.22455 26 102 204
0.0550973 -0.274343 -0.239221 26 102 204
0.0540437 -0.274179 0.207566 26 102 204
0.0444984 -0.274809 -0.115539 26 102 204
0.0432459 -0.27615 -0.15538 26 102 204
0.0436091 -0.276967 0.0048414 26 102 204
0.0554383 -0.277174 0.170593 26 102 204
0.0446278 -0.279818 0.0189633 26 102 204
0.0536342 -0.282174 -0.010575 26 102 204
0.0493759 -0.282345 0.136467 26 102 204
0.0499276 -0.28196 -0.0694781 26 102 204
0.0493297 -0.28054 -0.0984285 26 102 204
0.0486165 -0.283059 -0.0826549 26 102 204
0.0459349 -0.285447 0.144652 26 102 204
0.0481961 -0.285198 -0.171823 26 102 204
0.0477365 -0.287742 0.129684 26 102 204
0.0437785 -0.288349 0.0818933 26 102 204
0.0586849 -0.290514 0.19562 26 102 204
0.0473643 -0.290276 -0.0127917 26 102 204
0.0527577 -0.28792 -0.146685 26 102 204
0.0495011 -0.290773 0.10064 26 102 204
0.0542399 -0.292505 -0.0976399 26 102 204
0.043321 -0.296052 0.214195 26 102 204
0.0558829 -0.294013 -0.0669529 26 102 204
0.0471513 -0.294378 -0.124987 26 102 204
0.0588631 -0.296188 -0.0264597 26 102 204
0.0492444 -0.297092 -0.0354944 26 102 204
0.0502729 -0.292391 -0.14636 26 102 204
0.0526312 -0.298139 -0.135206 26 102 204
0.0590212 -0.299491 -0.19686 26 102 204
0.0569112 -0.298853 -0.212966 26 102 204
0.055903 -0.302108 -0.0425203 26 102 204
0.0512105 -0.301334 0.182136 26 102 204
0.0533617 -0.302268 0.213302 26 102 204
0.0555513 -0.300829 -0.193065 26 102 204
0.0466021 -0.301565 0.113513 26 102 204
0.0484251 -0.303728 0.116682 26 102 204
0.0361503 -0.303427 -0.167763 26 102 204
0.0571293 -0.30106 0.0776432 26 102 204
0.0523239 -0.302111 -0.175646 26 102 204
0.0507213 -0.306672 0.0225823 26 102 204
0.0534197 -0.305537 -0.0463161 26 102 204
0.0611041 -0.304047 -0.241576 26 102 204
0.0500006 -0.307757 0.0308502 26 102 204
0.0424156 -0.309945 0.11076 26 102 204
0.0585742 -0.31085 -0.182631 26 102 204
0.0591387 -0.314323 -0.208084 26 102 204
0.050619 -0.31504 -0.178144 26 102 204
0.0619365 -0.309665 -0.0836492 26 102 204
0.0613576 -0.315446 0.228781 26 102 204
0.0395742 -0.315497 -0.185267 26 102 204
0.0613078 -0.314818 0.222578 26 102 204
0.0631751 -0.317815 0.182622 26 102 204
0.056746 -0.315146 -0.0477068 26 102 204
0.0565189 -0.318937 0.0761072 26 102 204
0.0665509 -0.318357 0.15551 26 102 204
0.0610603 -0.312382 -0.12617 26 102 204
0.0549849 -0.320375 0.153707 26 102 204
0.0528157 -0.323579 -0.173963 26 102 204
0.0654223 -0.328001 0.0231735 26 102 204
0.0601419 -0.323637 -0.223781 26 102 204
0.0647562 -0.31902 -0.103985 26 102 204
0.0644666 -0.324488 0.186976 26 102 204
0.068037 -0.325256 0.161109 26 102 204
-0.23141 -0.363535 -0.209738 26 102 204
-0.186057 -0.356977 0.217961 26 102 204
-0.17508 -0.356366 0.211074 26 102 204
-0.166895 -0.357679 -0.210282 26 102 204
-0.15986 -0.353406 -0.211354 26 102 204
-0.0325556 -0.338752 0.214666 26 102 204
-0.19607 -0.358431 0.230024 26 102 204
0.0671118 -0.324295 -0.205234 26 102 204
0.0597309 -0.327643 -0.230484 26 102 204
0.0646527 -0.327014 -0.132119 26 102 204
0.0527482 -0.325165 0.104335 26 102 204
0.0662392 -0.323329 -0.242455 26 102 204
-0.00695901 -0.339573 -0.199537 26 102 204
0.0016318 -0.332912 0.224033 26 102 204
-0.00480693 -0.331721 -0.197625 26 102 204
0.0374413 -0.329001 -0.0792238 26 102 204
0.0484865 -0.329378 0.0366552 26 102 204
0.0335608 -0.329506 0.0284528 26 102 204
0.0369117 -0.325342 0.0067412 26 102 204
0.041845 -0.329447 0.00123209 26 102 204
0.0379997 -0.327841 0.0176397 26 102 204
0.057167 -0.326489 0.188717 26 102 204
0.0561196 -0.328187 0.025652 26 102 204
0.0413185 -0.340225 0.161866 26 102 204
0.0124846 -0.334223 -0.201561 26 102 204
-0.0691413 -0.348805 -0.207935 26 102 204
-0.22925 -0.361147 -0.205474 26 102 204
0.0684418 -0.328602 -0.18014 26 102 204
-0.333384 -0.375201 0.22701 26 102 204
0.0647347 -0.32919 0.166096 26 102 204
0.0366873 -0.333922 -0.167985 26 102 204
0.0374132 -0.33721 -0.197379 26 102 204
0.0604049 -0.331324 5.80172e-05 26 102 204
-0.00103147 -0.338672 -0.21199 26 102 204
-0.116594 -0.34691 -0.215302 26 102 204
-0.160337 -0.358734 -0.205289 26 102 204
0.057569 -0.332107 0.232803 26 102 204
0.0379302 -0.338541 -0.219597 26 102 204
-0.204867 -0.36754 -0.223228 26 102 204
-0.289341 -0.374743 -0.226005 26 102 204
0.0356365 -0.336318 0.0269715 26 102 204
0.0413846 -0.333666 0.137637 26 102 204
0.0306444 -0.333361 -0.140055 26 102 204
0.0440554 -0.337093 0.125323 26 102 204
0.0614549 -0.331614 0.1097 26 102 204
0.0404672 -0.340514 0.188524 26 102 204
0.0649444 -0.338723 -0.126734 26 102 204
-0.346384 -0.377907 -0.227397 26 102 204
0.0244315 -0.334293 0.219884 26 102 204
-0.136833 -0.359161 0.219515 26 102 204
0.0545149 -0.333982 0.198209 26 102 204
0.0616075 -0.33618 -0.0416727 26 102 204
0.0576474 -0.334874 0.108971 26 102 204
0.053583 -0.338331 0.11825 26 102 204
-0.0143849 -0.345583 0.201221 26 102 204
0.0512453 -0.336248 0.174627 26 102 204
-0.20123 -0.368652 -0.211762 26 102 204
0.046529 -0.34292 0.0372305 26 102 204
-0.167613 -0.365808 -0.221093 26 102 204
0.0602954 -0.337194 -0.175566 26 102 204
-0.0519251 -0.352047 0.206869 26 102 204
0.0573298 -0.332106 -0.0605866 26 102 204
-0.314818 -0.382508 0.201038 26 102 204
0.0588378 -0.347187 0.0912493 26 102 204
0.0550344 -0.338917 0.182435 26 102 204
0.0439369 -0.351168 -0.198463 26 102 204
0.0524127 -0.337748 -0.0737044 26 102 204
0.0362553 -0.348944 -0.0998623 26 102 204
0.0621833 -0.344884 0.0153027 26 102 204
0.0792491 -0.323496 -0.234659 26 102 204
0.0622254 -0.341372 -0.161149 26 102 204
-0.289598 -0.382754 -0.207848 26 102 204
0.060135 -0.339962 -0.0493564 26 102 204
-0.183454 -0.372038 -0.207364 26 102 204
-0.152261 -0.370177 -0.215552 26 102 204
0.0633555 -0.344065 -0.154051 26 102 204
-0.00147862 -0.351297 0.211741 26 102 204
0.0682921 -0.341741 -0.126772 26 102 204
-0.310699 -0.382746 -0.22465 26 102 204
-0.144845 -0.373366 -0.203903 26 102 204
0.0541975 -0.345119 0.16658 26 102 204
-0.352424 -0.392763 0.215728 26 102 204
0.0641396 -0.34601 0.0270331 26 102 204
-0.0435853 -0.363698 -0.214082 26 102 204
0.0723321 -0.347848 0.158377 26 102 204
0.062353 -0.349853 -0.0013934 26 102 204
0.0639442 -0.351188 -0.253214 26 102 204
0.0677881 -0.342718 -0.019572 26 102 204
-0.135425 -0.376287 0.220337 26 102 204
-0.192118 -0.377878 -0.221951 26 102 204
-0.0325376 -0.360261 -0.207183 26 102 204
0.059506 -0.348198 -0.126679 26 102 204
0.066369 -0.352343 0.0882696 26 102 204
0.0610692 -0.349581 -0.189312 26 102 204
0.0622305 -0.350984 0.121273 26 102 204
0.0508029 -0.355608 -0.0315915 26 102 204
-0.296979 -0.397308 -0.207982 26 102 204
-0.332929 -0.402408 0.214809 26 102 204
-0.370303 -0.402444 0.233444 26 102 204
0.0636576 -0.353924 -0.196932 26 102 204
0.0570863 -0.353443 0.228296 26 102 204
0.0443579 -0.365724 0.114391 26 102 204
0.0507236 -0.356208 0.209003 26 102 204
0.0657087 -0.351874 -0.131056 26 102 204
0.064424 -0.353352 0.0590585 26 102 204
0.0659166 -0.351059 0.244522 26 102 204
0.0634139 -0.354026 -0.0246551 26 102 204
0.0677411 -0.353471 0.231487 26 102 204
0.0598656 -0.357096 -0.0969192 26 102 204
0.0640277 -0.35702 0.212221 26 102 204
0.0668285 -0.359139 -0.149564 26 102 204
0.0671456 -0.360437 -0.186564 26 102 204
