ply
format ascii 1.0
comment Created by Open3D
element vertex 1024
property double x
property double y
property double z
property uchar red
property uchar green
property uchar blue
end_header
0.348549 0.0445414 -0.422464 26 102 204
0.341292 0.105598 -0.390954 26 102 204
0.371163 0.0504765 -0.413692 26 102 204
0.392886 -0.102256 0.0568517 26 102 204
0.40378 -0.117328 -0.1282 26 102 204
0.356026 0.0618618 -0.38839 26 102 204
0.387274 -0.114067 0.0820089 26 102 204
0.32364 0.146377 -0.395458 26 102 204
0.30102 0.329218 -0.365153 26 102 204
0.298408 0.115863 -0.405886 26 102 204
0.209104 0.441654 -0.459034 26 102 204
0.329168 0.194005 -0.330815 26 102 204
0.280597 0.3787 -0.45859 26 102 204
0.274261 0.423728 -0.365409 26 102 204
0.368305 -0.0801091 -0.327274 26 102 204
0.366381 -0.0549098 -0.429773 26 102 204
0.242668 0.405882 -0.3779 26 102 204
0.254543 0.403745 -0.411457 26 102 204
0.24455 0.429943 -0.375935 26 102 204
0.311009 0.180249 -0.317423 26 102 204
0.272697 0.404523 -0.459639 26 102 204
0.354668 -0.0109574 -0.425628 26 102 204
0.327765 0.164189 -0.319954 26 102 204
0.299159 0.319926 -0.439493 26 102 204
0.325109 0.158127 -0.293288 26 102 204
0.385431 -0.136084 -0.256559 26 102 204
0.274912 0.294579 -0.450362 26 102 204
0.247173 0.369072 -0.450535 26 102 204
0.369246 -0.134683 -0.192254 26 102 204
0.374516 -0.0985237 0.114916 26 102 204
0.274887 0.424991 -0.297395 26 102 204
0.365054 -0.0798549 -0.452611 26 102 204
0.363943 -0.083011 -0.224298 26 102 204
0.281348 0.284111 -0.393206 26 102 204
0.260488 0.327256 -0.316643 26 102 204
0.31165 0.124074 -0.448807 26 102 204
0.248088 0.455116 0.104643 26 102 204
0.235052 0.415503 -0.294971 26 102 204
0.346752 -0.0615113 -0.261618 26 102 204
0.26074 0.395874 -0.443287 26 102 204
0.362818 -0.107239 -0.397764 26 102 204
0.246211 0.434053 -0.26482 26 102 204
0.279322 0.201832 -0.330579 26 102 204
0.237644 0.426637 0.222209 26 102 204
0.344235 -0.0517578 -0.187051 26 102 204
0.201687 0.466107 0.152863 26 102 204
0.346206 -0.0704254 -0.421139 26 102 204
0.24418 0.367109 0.178948 26 102 204
0.247806 0.313847 -0.352434 26 102 204
0.356817 -0.104525 -0.0498058 26 102 204
0.353031 -0.0748437 -0.4692 26 102 204
0.263503 0.303492 -0.312103 26 102 204
0.2224 0.433468 -0.365112 26 102 204
0.263125 0.351127 0.0873611 26 102 204
0.293582 0.123851 0.202529 26 102 204
0.350948 -0.094046 -0.218416 26 102 204
0.268829 0.297979 -0.407552 26 102 204
0.353637 -0.106391 0.0439233 26 102 204
0.236736 0.406711 -0.358463 26 102 204
0.238932 0.426044 -0.31979 26 102 204
0.347727 -0.079888 0.210551 26 102 204
0.239308 0.265121 -0.319049 26 102 204
0.251259 0.318185 -0.337952 26 102 204
0.261876 0.309182 -0.393999 26 102 204
0.259057 0.320987 -0.358323 26 102 204
0.277576 0.215991 -0.368423 26 102 204
0.288407 0.20501 -0.380221 26 102 204
0.264346 0.22318 -0.350536 26 102 204
0.287577 0.176282 -0.373187 26 102 204
0.286377 0.171533 -0.401566 26 102 204
0.293632 0.127496 -0.370311 26 102 204
0.276995 0.179121 -0.293845 26 102 204
0.260372 0.320236 -0.359064 26 102 204
0.285568 0.154647 -0.295334 26 102 204
0.344753 -0.11394 -0.20971 26 102 204
0.256048 0.335116 -0.461183 26 102 204
0.23529 0.353213 -0.435287 26 102 204
0.259818 0.276093 0.215552 26 102 204
0.279005 0.068708 0.199738 26 102 204
0.324911 -0.0888758 -0.431565 26 102 204
0.320941 -0.0721349 -0.442169 26 102 204
0.323943 -0.10178 -0.44171 26 102 204
0.327277 -0.144063 -0.378489 26 102 204
0.333158 -0.124872 -0.0898283 26 102 204
0.213077 0.368391 -0.465752 26 102 204
0.312319 -0.0793367 -0.447015 26 102 204
0.309286 -0.0847832 -0.412265 26 102 204
0.302812 -0.0333655 -0.425781 26 102 204
0.250796 0.245699 -0.225062 26 102 204
0.322607 -0.144994 -0.366586 26 102 204
0.25402 0.21258 -0.253476 26 102 204
0.182054 0.46274 0.211325 26 102 204
0.206386 0.418587 -0.289312 26 102 204
0.219069 0.335391 -0.486224 26 102 204
0.210952 0.427718 -0.141662 26 102 204
0.189783 0.438917 -0.458447 26 102 204
0.239485 0.158565 -0.451532 26 102 204
0.287941 -0.0411036 0.180501 26 102 204
0.304255 -0.115023 -0.017106 26 102 204
0.300076 -0.109812 -0.0169387 26 102 204
0.215171 0.333181 0.0180653 26 102 204
0.218602 0.301581 0.0890095 26 102 204
0.214817 0.299824 0.0888773 26 102 204
0.2193 0.27635 0.177553 26 102 204
0.212035 0.281399 0.146457 26 102 204
0.219519 0.273745 0.0717813 26 102 204
0.230332 0.26755 0.089525 26 102 204
0.221504 0.259449 -0.321301 26 102 204
0.23162 0.253597 0.0904646 26 102 204
0.225258 0.245067 -0.064254 26 102 204
0.238042 0.23296 0.188938 26 102 204
0.227163 0.221833 -0.000563233 26 102 204
0.210273 0.219556 -0.0623317 26 102 204
0.23462 0.206986 -0.415051 26 102 204
0.242494 0.1972 -0.164662 26 102 204
0.244198 0.184403 0.0883388 26 102 204
0.248248 0.184201 -0.0143376 26 102 204
0.248871 0.168707 0.0119286 26 102 204
0.234272 0.163208 0.194152 26 102 204
0.248761 0.160125 -0.0916232 26 102 204
0.251195 0.170235 -0.102169 26 102 204
0.249958 0.166648 0.00313063 26 102 204
0.244471 0.156712 -0.0936715 26 102 204
0.251196 0.145462 0.160663 26 102 204
0.240276 0.132569 -0.11559 26 102 204
0.26247 0.129739 0.131705 26 102 204
0.263279 0.115831 0.147077 26 102 204
0.27429 0.0277353 0.23212 26 102 204
0.275395 0.0464676 -0.438154 26 102 204
0.27466 0.0385325 0.216383 26 102 204
0.292555 -0.0140773 0.203058 26 102 204
0.296779 -0.0471073 -0.466108 26 102 204
0.298733 -0.0520261 -0.0251427 26 102 204
0.294384 -0.0605722 -0.213402 26 102 204
0.297026 -0.0650084 -0.168506 26 102 204
0.288609 -0.0623338 -0.353742 26 102 204
0.297186 -0.0808918 -0.420018 26 102 204
0.296243 -0.0785996 0.207089 26 102 204
0.300826 -0.0719142 0.225072 26 102 204
0.296068 -0.0956963 -0.320751 26 102 204
0.309968 -0.103932 0.0900924 26 102 204
0.319846 -0.151228 0.10959 26 102 204
0.297507 -0.0929946 -0.0899322 26 102 204
0.274142 -0.00470181 0.205361 26 102 204
0.20875 0.400263 -0.0151298 26 102 204
0.205776 0.391958 -0.31128 26 102 204
0.176144 0.409828 0.161509 26 102 204
0.197545 0.395505 0.214975 26 102 204
0.190769 0.38073 0.128163 26 102 204
0.192963 0.369472 0.149892 26 102 204
0.19187 0.373523 0.155321 26 102 204
0.199214 0.327494 0.110668 26 102 204
0.177772 0.407289 0.155334 26 102 204
0.244631 0.14362 -0.469692 26 102 204
0.194256 0.377076 0.0972011 26 102 204
0.194317 0.367312 -0.0119923 26 102 204
0.187478 0.35746 0.117233 26 102 204
0.194498 0.332214 -0.193803 26 102 204
0.202139 0.347686 -0.420029 26 102 204
0.206168 0.321974 0.0659855 26 102 204
0.200096 0.320394 0.203756 26 102 204
0.207008 0.305557 -0.31941 26 102 204
0.203219 0.310071 -0.0322132 26 102 204
0.209189 0.307454 0.140488 26 102 204
0.189654 0.319946 0.183038 26 102 204
0.195804 0.310677 -0.0798462 26 102 204
0.208386 0.296611 -0.368822 26 102 204
0.2112 0.288155 -0.366499 26 102 204
0.202678 0.291113 -0.0368754 26 102 204
0.203209 0.288224 -0.385457 26 102 204
0.207188 0.28113 0.103592 26 102 204
0.216986 0.265503 -0.287546 26 102 204
0.217363 0.269999 -0.139643 26 102 204
0.18473 0.278902 -0.136263 26 102 204
0.211498 0.253786 -0.0315182 26 102 204
0.220759 0.243179 -0.242889 26 102 204
0.218023 0.231217 -0.0945282 26 102 204
0.211938 0.238937 0.222435 26 102 204
0.210193 0.223311 -0.373463 26 102 204
0.225601 0.233212 -0.362636 26 102 204
0.223093 0.196408 0.229391 26 102 204
0.228461 0.193167 0.195177 26 102 204
0.231553 0.176361 -0.403456 26 102 204
0.228733 0.181049 0.196168 26 102 204
0.237064 0.166202 0.089198 26 102 204
0.235196 0.16338 -0.200561 26 102 204
0.221112 0.189693 -0.440109 26 102 204
0.23328 0.160347 -0.369783 26 102 204
0.23497 0.14517 -0.416189 26 102 204
0.233463 0.151312 -0.285484 26 102 204
0.240267 0.124565 0.20416 26 102 204
0.248317 0.114459 0.23066 26 102 204
0.231559 0.126063 -0.148339 26 102 204
0.229036 0.082688 0.16582 26 102 204
0.233141 0.167828 0.0288776 26 102 204
0.258073 0.0578431 0.175103 26 102 204
0.250171 0.0658346 0.194344 26 102 204
0.255094 0.0496721 -0.462376 26 102 204
0.261564 0.0376828 -0.0912833 26 102 204
0.255224 0.02937 -0.0241223 26 102 204
0.265508 0.00744681 -0.123434 26 102 204
0.265404 0.00659677 -0.334487 26 102 204
0.268096 -0.0115392 0.140691 26 102 204
0.274784 -0.0365937 -0.0388307 26 102 204
0.279832 -0.041658 0.103328 26 102 204
0.281292 -0.0918376 0.217059 26 102 204
0.282953 -0.072503 0.231481 26 102 204
0.28518 -0.0619381 -0.413294 26 102 204
0.299165 -0.143192 0.226218 26 102 204
0.216298 0.236273 0.0384573 26 102 204
0.325479 -0.31369 0.202706 26 102 204
0.299468 -0.214449 0.0113395 26 102 204
0.319067 -0.277411 0.120405 26 102 204
0.231612 0.135741 0.0778403 26 102 204
0.188434 0.346297 0.149192 26 102 204
0.269101 -0.0293118 -0.135457 26 102 204
0.250578 0.0399743 0.155968 26 102 204
0.317377 -0.28744 0.212371 26 102 204
0.264114 -0.0474969 -0.458619 26 102 204
0.258585 -0.0132611 0.0638189 26 102 204
0.294523 -0.208733 0.119957 26 102 204
0.241947 0.0339043 0.107838 26 102 204
0.216262 0.126508 0.10308 26 102 204
0.23064 -0.0265774 -0.219482 26 102 204
0.239397 0.0407191 0.0461255 26 102 204
0.262802 -0.18378 0.138367 26 102 204
0.251366 -0.0361603 -0.110113 26 102 204
0.241525 0.00488572 0.119866 26 102 204
0.162042 0.39474 0.172402 26 102 204
0.249209 -0.0384219 0.179531 26 102 204
0.211419 0.13715 0.238405 26 102 204
0.270744 -0.187481 0.229239 26 102 204
0.154946 0.338003 0.0358452 26 102 204
0.207079 0.165701 0.115997 26 102 204
0.193968 0.19934 0.182868 26 102 204
0.201536 0.161285 -0.433832 26 102 204
0.207126 0.115378 0.106255 26 102 204
0.162146 0.348428 0.105204 26 102 204
0.239236 -0.0392408 0.0538121 26 102 204
0.184026 0.366359 0.148816 26 102 204
0.240288 -0.0387662 -0.219246 26 102 204
0.300332 -0.31168 0.236024 26 102 204
0.289904 -0.285839 0.104079 26 102 204
0.197015 0.166533 0.0884283 26 102 204
0.177936 0.23675 0.230265 26 102 204
0.242827 -0.0676341 0.0671875 26 102 204
0.23737 -0.00839261 0.233082 26 102 204
0.233795 -0.018644 0.0472035 26 102 204
0.25578 -0.138214 0.212969 26 102 204
0.252945 -0.138086 0.172878 26 102 204
0.24489 -0.10588 0.204314 26 102 204
0.230372 -0.0521174 0.163434 26 102 204
0.230687 -0.0415766 0.00510811 26 102 204
0.236493 -0.0772248 0.200884 26 102 204
0.209194 0.0546666 0.100973 26 102 204
0.151168 0.32976 0.0705094 26 102 204
0.185827 0.171438 0.179755 26 102 204
0.145704 0.33015 0.236577 26 102 204
0.146449 0.363957 0.0829314 26 102 204
0.272371 -0.253533 0.096995 26 102 204
0.186167 0.139167 0.0898216 26 102 204
0.277998 -0.309367 0.135785 26 102 204
0.141169 0.365819 0.213957 26 102 204
0.178586 0.165346 0.224181 26 102 204
0.159073 0.248123 0.160716 26 102 204
0.225939 -0.0618351 0.22598 26 102 204
0.187406 0.0673375 0.178821 26 102 204
0.157984 0.221935 0.21686 26 102 204
0.171823 0.193286 0.0779676 26 102 204
0.21577 -0.0169589 0.218845 26 102 204
0.125678 0.392833 0.22986 26 102 204
0.173108 0.184936 0.0664995 26 102 204
0.221039 -0.0488812 -0.364919 26 102 204
0.210237 0.00197519 0.128091 26 102 204
0.225218 -0.0915541 0.143365 26 102 204
0.141439 0.329889 0.116348 26 102 204
0.213556 -0.096983 0.0893034 26 102 204
0.233575 -0.124876 0.137275 26 102 204
0.243181 -0.186743 0.117245 26 102 204
0.238035 -0.191701 0.0915701 26 102 204
0.157984 0.178459 0.0936276 26 102 204
0.20347 -0.0130129 0.25169 26 102 204
0.230524 -0.160342 0.236751 26 102 204
0.283533 -0.356957 0.253496 26 102 204
0.256118 -0.276617 0.067856 26 102 204
0.151968 0.190785 0.127777 26 102 204
0.206401 -0.0690702 0.0597843 26 102 204
0.163113 0.153831 0.140159 26 102 204
0.144567 0.244536 0.176387 26 102 204
0.244357 -0.267364 0.113871 26 102 204
0.272943 -0.372423 0.161092 26 102 204
0.209585 -0.064022 0.049716 26 102 204
0.256869 -0.296029 0.0850777 26 102 204
0.200131 -0.0439814 -0.346101 26 102 204
0.205635 -0.108178 0.226241 26 102 204
0.214775 -0.11249 0.192201 26 102 204
0.216747 -0.127094 0.169082 26 102 204
0.113365 0.324528 0.152454 26 102 204
0.201713 -0.10515 0.16312 26 102 204
0.201168 -0.0656438 0.0531267 26 102 204
0.234361 -0.205721 0.204131 26 102 204
0.178761 0.0297475 0.223015 26 102 204
0.197805 -0.0436408 0.0545921 26 102 204
0.20954 -0.12008 0.192282 26 102 204
0.142946 0.188845 0.11121 26 102 204
0.207617 -0.116772 0.176179 26 102 204
0.189498 -0.0372434 0.106645 26 102 204
0.115474 0.29063 0.229662 26 102 204
0.188893 -0.0125145 0.0897778 26 102 204
0.135551 0.215336 0.209113 26 102 204
0.166202 0.100603 0.0842428 26 102 204
0.114588 0.313302 0.079566 26 102 204
0.200203 -0.0787929 0.239234 26 102 204
0.201904 -0.100136 0.107704 26 102 204
0.237038 -0.296328 0.230167 26 102 204
0.229964 -0.239068 0.110632 26 102 204
0.17224 0.0282415 0.223037 26 102 204
0.179912 -0.0136617 0.195461 26 102 204
0.178696 -0.0269889 0.0914948 26 102 204
0.179248 -0.0325357 -0.385675 26 102 204
0.0886675 0.375124 0.0799974 26 102 204
0.186401 -0.0807549 0.244851 26 102 204
0.150199 0.0639747 0.099187 26 102 204
0.187234 -0.103155 0.0860439 26 102 204
0.10096 0.279035 0.17533 26 102 204
0.200165 -0.142294 0.223773 26 102 204
0.0852804 0.352638 0.158716 26 102 204
0.0990239 0.289918 0.169743 26 102 204
0.195246 -0.144967 0.113407 26 102 204
0.0738533 0.340706 0.131061 26 102 204
0.149314 0.0855763 0.0760421 26 102 204
0.123288 0.154056 0.210833 26 102 204
0.151195 0.0498527 0.0780852 26 102 204
0.125237 0.185071 0.199304 26 102 204
0.23139 -0.368236 0.224419 26 102 204
0.162388 -0.0524804 0.113567 26 102 204
0.0756743 0.371504 0.237027 26 102 204
0.207381 -0.264379 0.226709 26 102 204
0.181807 -0.181231 0.0850976 26 102 204
0.131742 0.100369 0.229902 26 102 204
0.1178 0.11016 0.105145 26 102 204
0.122642 0.0763042 0.103804 26 102 204
0.158539 0.420662 0.0866257 26 102 204
0.215289 -0.336568 0.237143 26 102 204
0.143238 -0.0360626 -0.381068 26 102 204
0.0868623 0.243749 0.0848106 26 102 204
0.175834 -0.169254 0.237712 26 102 204
0.165318 -0.123552 0.0835021 26 102 204
0.0750344 0.26823 0.238589 26 102 204
0.191932 -0.274058 0.0983171 26 102 204
0.0845927 0.235543 0.204928 26 102 204
0.157244 -0.103912 0.108182 26 102 204
0.150023 -0.0543351 -0.110642 26 102 204
0.191845 -0.291158 0.116877 26 102 204
0.212975 -0.364114 0.179072 26 102 204
0.071245 0.28149 0.0872241 26 102 204
0.10941 0.0909218 0.140156 26 102 204
0.0770527 0.251038 0.0799285 26 102 204
0.175867 -0.215919 0.225075 26 102 204
0.0711741 0.267937 0.113524 26 102 204
0.194906 -0.305632 0.168628 26 102 204
0.180039 -0.238676 0.128481 26 102 204
0.124394 0.0182639 0.0893784 26 102 204
0.136432 -0.0554758 -0.24089 26 102 204
0.0541771 0.338968 0.213118 26 102 204
0.145228 -0.102361 0.149629 26 102 204
0.0915589 0.146916 0.157042 26 102 204
0.117657 0.0254848 0.226612 26 102 204
0.106596 0.0775364 0.124659 26 102 204
0.0835475 0.178844 0.089461 26 102 204
0.165705 -0.244643 0.137652 26 102 204
0.0571138 0.285688 0.193998 26 102 204
0.0643505 0.267649 0.116546 26 102 204
0.0635877 0.290077 0.137972 26 102 204
0.134313 -0.0661066 -0.206909 26 102 204
0.0455883 0.348785 0.0964841 26 102 204
0.107856 0.0452311 0.144615 26 102 204
0.0500385 0.316172 0.0915724 26 102 204
0.117913 0.00809167 0.0753888 26 102 204
0.138912 -0.103075 0.0558604 26 102 204
0.172915 -0.246457 0.0904639 26 102 204
0.191368 -0.346708 0.221677 26 102 204
0.125021 -0.0483959 -0.271746 26 102 204
0.149067 -0.151891 0.113198 26 102 204
0.102222 0.0928827 0.225616 26 102 204
0.125458 -0.0536436 -0.376454 26 102 204
0.156288 -0.198685 0.231212 26 102 204
0.12232 -0.057708 -0.0244575 26 102 204
0.179803 -0.303376 0.243556 26 102 204
0.168477 -0.2815 0.111567 26 102 204
0.134297 -0.104371 0.0672741 26 102 204
0.133633 -0.0974043 0.229289 26 102 204
0.0994042 0.0503941 0.16183 26 102 204
0.0396066 0.331572 0.201189 26 102 204
0.122281 -0.0532826 0.0993516 26 102 204
0.172141 -0.3194 0.161513 26 102 204
0.132458 -0.0998896 0.0609614 26 102 204
0.0850259 0.107049 0.0927131 26 102 204
0.0371043 0.328408 0.219129 26 102 204
0.113348 -0.0303569 0.0942526 26 102 204
0.162862 -0.270501 0.233645 26 102 204
0.174806 -0.328295 0.220165 26 102 204
0.087952 0.0756283 0.1248 26 102 204
0.104949 -0.00180897 0.11025 26 102 204
0.0895678 0.0539245 0.229101 26 102 204
0.0296448 0.327727 0.231539 26 102 204
0.0498779 0.216487 0.0918995 26 102 204
0.0666952 0.2002 0.0913311 26 102 204
0.173427 -0.339121 0.117925 26 102 204
0.142049 -0.20782 0.182037 26 102 204
0.0749753 0.0911266 0.126747 26 102 204
0.06992 0.12811 0.224024 26 102 204
0.00873956 0.36465 0.0623476 26 102 204
0.0771911 0.0782518 0.116686 26 102 204
0.140251 -0.212221 0.197119 26 102 204
0.104705 -0.0618245 -0.205684 26 102 204
0.0165419 0.32569 0.230676 26 102 204
0.135678 -0.197702 0.167474 26 102 204
0.11674 -0.111619 0.0925857 26 102 204
0.058584 0.201181 0.134987 26 102 204
0.0436327 0.219654 0.101763 26 102 204
0.0713417 0.0854721 0.100405 26 102 204
0.107035 -0.0856979 0.140142 26 102 204
0.165852 -0.35175 0.108242 26 102 204
0.0565211 0.140688 0.10891 26 102 204
0.0100626 0.318501 0.24237 26 102 204
0.169274 -0.378246 0.22624 26 102 204
0.145047 -0.266529 0.0983594 26 102 204
0.110718 -0.108021 0.216896 26 102 204
0.0955006 -0.05697 0.149957 26 102 204
0.0753159 0.03973 0.0953928 26 102 204
0.0940059 -0.00883637 0.180026 26 102 204
0.0940746 -0.0684702 0.180755 26 102 204
0.0966244 -0.0731149 -0.127446 26 102 204
0.0405569 0.188202 0.0913055 26 102 204
0.124435 -0.202114 0.219682 26 102 204
0.00198076 0.327446 0.0444943 26 102 204
0.11975 -0.184538 0.133911 26 102 204
0.0905207 -0.0785364 0.0923548 26 102 204
0.010519 0.293664 0.226639 26 102 204
0.0907398 -0.0772226 0.0632762 26 102 204
0.0819073 0.00198424 0.123396 26 102 204
0.117865 -0.205691 0.142637 26 102 204
0.144115 -0.32693 0.113525 26 102 204
0.0859115 -0.0667019 -0.126027 26 102 204
0.0393643 0.150538 0.240516 26 102 204
0.0753156 -0.00771577 0.142219 26 102 204
0.0929666 -0.0942383 0.118259 26 102 204
0.120468 -0.226175 0.1424 26 102 204
0.218239 -0.449987 0.199947 26 102 204
0.0811914 -0.0475362 0.211658 26 102 204
0.0304551 0.166154 0.0948953 26 102 204
0.0812721 -0.079518 -0.17241 26 102 204
0.0767576 -0.062087 -0.405622 26 102 204
0.0795867 -0.0802022 0.226296 26 102 204
0.124936 -0.289097 0.169735 26 102 204
0.0794037 -0.0844713 -0.400024 26 102 204
0.120193 -0.254596 0.229222 26 102 204
0.11192 -0.213348 0.0863514 26 102 204
-0.00947946 0.309815 0.060295 26 102 204
0.131347 -0.322033 0.180169 26 102 204
0.0500304 0.0522883 0.160358 26 102 204
0.0338992 0.183172 0.0949223 26 102 204
0.0784673 -0.0947322 0.188604 26 102 204
0.0816026 -0.114508 0.12032 26 102 204
0.0631536 -0.0669898 0.214175 26 102 204
0.078822 -0.0922351 0.222295 26 102 204
0.0731103 -0.0851982 0.149055 26 102 204
0.072932 -0.0834617 0.162737 26 102 204
0.125118 -0.337128 0.163545 26 102 204
0.0677542 -0.0756574 -0.360255 26 102 204
0.0329463 0.0798884 0.2304 26 102 204
0.0948958 -0.218681 0.1449 26 102 204
0.0588183 -0.0435719 0.192054 26 102 204
0.0555821 -0.0565579 0.168029 26 102 204
0.0618988 -0.0693285 0.0436691 26 102 204
-0.0256682 0.321383 0.138972 26 102 204
0.0579401 -0.071275 -0.39067 26 102 204
-0.00718318 0.219092 0.193147 26 102 204
0.00892594 0.167134 0.0906536 26 102 204
0.0619076 -0.117587 0.0967886 26 102 204
0.100979 -0.30253 0.0912208 26 102 204
-0.0116457 0.206282 0.0981733 26 102 204
0.0535359 -0.0888068 0.133595 26 102 204
0.0922453 -0.290651 0.22247 26 102 204
0.0573894 -0.162679 0.122329 26 102 204
-0.0496833 0.337884 0.110535 26 102 204
0.0481643 -0.110328 0.156333 26 102 204
0.0160786 0.0242375 0.216052 26 102 204
0.00616656 0.101437 0.150362 26 102 204
-0.0417806 0.292171 0.0475565 26 102 204
0.0770089 -0.242045 0.214472 26 102 204
-0.0352832 0.234874 0.069714 26 102 204
0.0357392 -0.0976401 0.0128261 26 102 204
0.0332124 -0.0887313 0.0469473 26 102 204
0.0398492 -0.0949624 0.230196 26 102 204
-0.0257581 0.17244 0.152395 26 102 204
-0.0112166 0.0989984 0.0846763 26 102 204
0.0811498 -0.310147 0.229418 26 102 204
0.0553633 -0.205936 0.235752 26 102 204
0.0705281 -0.291253 0.107389 26 102 204
0.0239718 -0.0870931 -0.0170873 26 102 204
0.0302499 -0.121002 0.105571 26 102 204
0.036378 -0.146094 0.0831146 26 102 204
0.0391201 -0.152154 0.224622 26 102 204
0.0552268 -0.222855 0.144472 26 102 204
0.00415258 -0.0028742 0.0978111 26 102 204
0.052492 -0.223629 0.149351 26 102 204
-0.0153511 -0.219296 0.175018 26 102 204
-0.03813 0.160633 0.184624 26 102 204
0.0270075 -0.132971 0.213781 26 102 204
0.0476755 -0.231669 0.116593 26 102 204
0.0122817 -0.111485 0.125255 26 102 204
-0.028706 0.102622 0.206505 26 102 204
0.0400067 -0.224161 0.0839545 26 102 204
0.066564 -0.325362 0.114825 26 102 204
0.00827711 -0.0754323 -0.126937 26 102 204
0.00488762 -0.0568493 0.023073 26 102 204
-0.00954546 0.0184152 0.179435 26 102 204
0.0412927 -0.237896 0.111017 26 102 204
0.00552064 -0.0600173 -0.340485 26 102 204
0.0242005 -0.177865 0.0791552 26 102 204
0.0013904 -0.0685313 0.154787 26 102 204
-0.0865728 0.32827 0.157616 26 102 204
0.0103787 -0.117239 0.173824 26 102 204
-0.029321 0.0683063 0.108488 26 102 204
0.0352953 -0.241669 0.118199 26 102 204
0.0305606 -0.196177 0.237072 26 102 204
-0.0433228 0.0869233 0.117203 26 102 204
-0.000756044 -0.0931668 0.0717325 26 102 204
-0.00309599 -0.0837086 0.0727886 26 102 204
-0.0810777 0.250302 0.221304 26 102 204
0.023699 -0.234418 0.0817852 26 102 204
0.019519 -0.204407 0.101301 26 102 204
-0.0644555 0.17778 0.200319 26 102 204
-0.0944155 0.296728 0.0582353 26 102 204
0.0496253 -0.378406 0.0921671 26 102 204
0.0252827 -0.283142 0.154242 26 102 204
-0.0108264 -0.0888396 0.220934 26 102 204
-0.0983785 0.264796 0.0546645 26 102 204
-0.043193 -0.0233634 0.173855 26 102 204
0.012498 -0.226623 0.207679 26 102 204
-0.0352656 -0.0490501 0.10192 26 102 204
-0.00291083 -0.175907 0.176618 26 102 204
0.000594216 -0.210012 0.106026 26 102 204
-0.000660518 -0.18727 0.0925297 26 102 204
0.0184464 -0.284282 0.0846257 26 102 204
-0.0260331 -0.0895515 0.0734766 26 102 204
-0.0100638 -0.149358 0.0660704 26 102 204
-0.0796366 0.162199 0.14142 26 102 204
-0.110174 0.302879 0.152261 26 102 204
-0.101883 0.262371 0.115368 26 102 204
-0.0900114 0.21027 0.22649 26 102 204
-0.0228147 -0.0987652 -0.204571 26 102 204
-0.0162585 -0.159619 0.208432 26 102 204
-0.0426161 -0.0236141 0.177382 26 102 204
0.0136405 -0.286606 0.0861985 26 102 204
-0.00559711 -0.272868 0.216435 26 102 204
-0.0281978 -0.104651 -0.0941534 26 102 204
-0.0880576 0.125055 0.0721692 26 102 204
-0.0381445 -0.0636649 0.147189 26 102 204
-0.0778372 0.100284 0.135181 26 102 204
-0.0363322 -0.0842123 -0.398813 26 102 204
-0.0304201 -0.128358 0.225215 26 102 204
-0.035236 -0.0940302 -0.0111973 26 102 204
0.00908521 -0.305273 0.0733421 26 102 204
-0.0477115 -0.0614248 0.138472 26 102 204
-0.102955 0.198806 0.170487 26 102 204
-0.0412281 -0.0916586 0.00200414 26 102 204
-0.043396 -0.0690612 0.18742 26 102 204
-0.0579533 -0.0148623 0.100696 26 102 204
-0.165118 -0.202851 -0.477904 26 102 204
0.0199596 -0.378362 0.167789 26 102 204
-0.0432171 -0.0984593 -0.00036291 26 102 204
-0.188092 0.0893422 0.0858431 26 102 204
-0.0667246 -0.00591947 0.226316 26 102 204
-0.00297425 -0.29921 0.194712 26 102 204
-0.0682302 -0.00150511 0.159329 26 102 204
-0.00318013 -0.292479 0.23409 26 102 204
-0.0579398 -0.0495858 0.0883831 26 102 204
-0.00564966 -0.296005 0.189256 26 102 204
-0.0312467 -0.186834 0.200472 26 102 204
-0.000495135 -0.313694 0.149563 26 102 204
-0.054351 -0.0841608 0.141588 26 102 204
-0.06726 -0.0349321 0.230689 26 102 204
-0.0587934 -0.0694779 0.168475 26 102 204
-0.0643666 -0.0421269 0.0793104 26 102 204
-0.06637 -0.0233929 0.23459 26 102 204
-0.102406 0.112039 0.100004 26 102 204
-0.0438716 -0.153343 0.0986836 26 102 204
-0.138641 0.268345 0.236405 26 102 204
-0.0552282 -0.112791 0.100908 26 102 204
-0.021877 -0.297046 0.0997453 26 102 204
-0.0626404 -0.0971493 -0.139281 26 102 204
-0.083165 -0.00599437 0.236825 26 102 204
-0.011982 -0.327354 0.089576 26 102 204
-0.0350793 -0.223657 0.112497 26 102 204
-0.145235 0.298565 0.120306 26 102 204
-0.025064 -0.276066 0.220621 26 102 204
-0.0990218 0.0139158 0.235247 26 102 204
-0.064575 -0.118924 0.12439 26 102 204
-0.15102 0.30806 0.108661 26 102 204
-0.0813634 -0.0335055 0.108462 26 102 204
-0.114727 0.135349 0.159463 26 102 204
-0.00352876 -0.403128 0.130988 26 102 204
-0.0298365 -0.265876 0.126708 26 102 204
-0.0950713 0.0224824 0.0710381 26 102 204
-0.0429637 -0.223321 0.13801 26 102 204
-0.00868843 -0.365059 0.088206 26 102 204
-0.146661 0.239361 0.173239 26 102 204
-0.0478366 -0.236078 0.218731 26 102 204
0.00125255 -0.425171 0.097318 26 102 204
-0.0677701 -0.134175 0.0752545 26 102 204
-0.0627821 -0.138485 0.217789 26 102 204
-0.139765 0.199386 0.234373 26 102 204
-0.0675524 -0.139594 0.0789335 26 102 204
-0.0912536 -0.0284074 0.221273 26 102 204
-0.0151761 -0.384089 0.128121 26 102 204
-0.0188826 -0.320842 0.216296 26 102 204
-0.0159213 -0.367191 0.165355 26 102 204
-0.00559634 -0.390092 0.155744 26 102 204
-0.0245542 -0.374465 0.125005 26 102 204
-0.140833 0.246525 0.117079 26 102 204
-0.0521159 -0.14998 0.247131 26 102 204
-0.0614264 -0.168851 0.163225 26 102 204
-0.0819352 -0.108673 -0.106064 26 102 204
-0.143018 0.17334 0.227693 26 102 204
-0.0784085 -0.110869 0.151864 26 102 204
-0.110043 0.020439 0.132648 26 102 204
-0.124994 0.0727407 0.199919 26 102 204
-0.0504614 -0.241711 0.0885462 26 102 204
-0.0856302 -0.0934955 -0.406967 26 102 204
-0.150331 0.180973 0.191099 26 102 204
-0.0926726 -0.0848957 -0.106705 26 102 204
-0.0937569 -0.0834424 -0.0498646 26 102 204
-0.0820897 -0.143619 0.21159 26 102 204
-0.0245454 -0.385408 0.109821 26 102 204
-0.111084 -0.00875692 0.0849256 26 102 204
-0.139185 0.0882745 0.110264 26 102 204
-0.0596914 -0.247474 0.244001 26 102 204
-0.10527 -0.0594591 0.205622 26 102 204
-0.146076 0.163905 0.239654 26 102 204
-0.175116 0.251224 0.116683 26 102 204
-0.172796 0.215437 0.193504 26 102 204
-0.0448578 -0.356261 0.219825 26 102 204
-0.184964 0.276889 0.136921 26 102 204
-0.153612 0.129873 0.105975 26 102 204
-0.151175 0.136362 0.199266 26 102 204
-0.108099 -0.0768016 0.0965962 26 102 204
-0.0570438 -0.302246 0.119308 26 102 204
-0.10833 -0.0602867 0.141023 26 102 204
-0.064612 -0.279759 0.0938081 26 102 204
-0.0681611 -0.251937 0.0871155 26 102 204
-0.0662783 -0.272294 0.113618 26 102 204
-0.0532438 -0.307408 0.225896 26 102 204
-0.0623903 -0.286682 0.0763768 26 102 204
-0.051122 -0.359136 0.222438 26 102 204
-0.140651 0.0418464 0.0986034 26 102 204
-0.0749881 -0.25218 0.217821 26 102 204
-0.192875 0.257444 0.233233 26 102 204
-0.148733 0.0513855 0.234773 26 102 204
-0.0570032 -0.333407 0.228462 26 102 204
-0.167493 0.137858 0.233864 26 102 204
-0.164782 0.1398 0.157031 26 102 204
-0.0648366 -0.321277 0.16357 26 102 204
-0.203149 0.276222 0.0959917 26 102 204
-0.178699 0.173287 0.166805 26 102 204
-0.194346 0.236649 0.109495 26 102 204
-0.079202 -0.246412 0.112775 26 102 204
-0.0894224 -0.240593 0.202993 26 102 204
-0.0489728 -0.415142 0.154023 26 102 204
-0.108402 -0.170029 0.215432 26 102 204
-0.202467 0.264787 0.151151 26 102 204
-0.189336 0.190765 0.0631291 26 102 204
-0.24808 0.223784 -0.111923 26 102 204
-0.131399 -0.0936395 0.0583908 26 102 204
-0.0791596 -0.301627 0.182189 26 102 204
-0.210664 0.277798 0.116663 26 102 204
-0.103084 -0.212166 0.0935557 26 102 204
-0.178813 0.1191 0.130472 26 102 204
-0.201623 0.211556 0.0426726 26 102 204
-0.153308 -0.00420083 0.21335 26 102 204
-0.0639828 -0.411352 0.162126 26 102 204
-0.116017 -0.196979 0.147284 26 102 204
-0.0907606 -0.286293 0.236799 26 102 204
-0.16579 0.0244072 0.0943717 26 102 204
-0.204281 0.201495 0.0680046 26 102 204
-0.189663 0.117239 0.099252 26 102 204
-0.142903 -0.0876452 0.088756 26 102 204
-0.148755 -0.0482304 0.124381 26 102 204
-0.130198 -0.19226 0.238261 26 102 204
-0.135812 -0.12585 0.0162268 26 102 204
-0.0980789 -0.299039 0.0915538 26 102 204
-0.191711 0.11199 0.209074 26 102 204
-0.134978 -0.134086 0.225931 26 102 204
-0.169625 0.00765573 0.175518 26 102 204
-0.214075 0.212295 0.167272 26 102 204
-0.111141 -0.275035 0.0896623 26 102 204
-0.122442 -0.223955 0.11162 26 102 204
-0.156691 -0.046356 0.163477 26 102 204
-0.175266 0.0300633 0.127579 26 102 204
-0.0854292 -0.373404 0.114379 26 102 204
-0.182176 0.0459326 0.211264 26 102 204
-0.205491 0.169813 0.0581373 26 102 204
-0.224592 0.229264 0.0836419 26 102 204
-0.0737256 -0.427376 0.100068 26 102 204
-0.190895 0.0870861 0.178139 26 102 204
-0.211996 0.190311 0.115836 26 102 204
-0.189687 0.0584005 0.168233 26 102 204
-0.183378 0.0333367 0.107443 26 102 204
-0.228498 0.226659 0.0876479 26 102 204
-0.0834059 -0.397829 0.100481 26 102 204
-0.169434 -0.038059 0.105146 26 102 204
-0.125791 -0.254203 0.200003 26 102 204
-0.132642 -0.210472 0.11442 26 102 204
-0.136346 -0.202329 0.108627 26 102 204
-0.130628 -0.219953 0.150793 26 102 204
-0.173383 -0.0416511 0.0932433 26 102 204
-0.143558 -0.16784 0.127169 26 102 204
-0.123769 -0.271076 0.075971 26 102 204
-0.248328 0.262413 0.204352 26 102 204
-0.14543 -0.171688 -0.321523 26 102 204
-0.0942406 -0.384185 0.210614 26 102 204
-0.127808 -0.25591 0.0940476 26 102 204
-0.204726 0.0929945 0.0762749 26 102 204
-0.159819 -0.122383 0.164612 26 102 204
-0.195486 0.0350784 0.0788755 26 102 204
-0.105532 -0.358341 0.213744 26 102 204
-0.131335 -0.237281 0.126665 26 102 204
-0.17911 -0.0511183 0.235739 26 102 204
-0.244846 0.239749 0.0940422 26 102 204
-0.105536 -0.390639 0.169256 26 102 204
-0.128716 -0.297587 0.152631 26 102 204
-0.206856 0.0495885 0.172303 26 102 204
-0.1038 -0.42011 0.192559 26 102 204
-0.129352 -0.306663 0.0738679 26 102 204
-0.139146 -0.285285 0.186882 26 102 204
-0.165608 -0.131225 0.0879741 26 102 204
-0.242244 0.208357 0.131366 26 102 204
-0.109162 -0.377248 0.0913861 26 102 204
-0.142392 -0.243175 0.228519 26 102 204
-0.21575 0.0661744 0.197645 26 102 204
-0.200129 -0.0064621 0.187813 26 102 204
-0.146666 -0.226566 0.158776 26 102 204
-0.152109 -0.187996 0.229474 26 102 204
-0.238085 0.167048 0.105382 26 102 204
-0.257538 0.225627 0.019501 26 102 204
-0.210238 0.0339379 0.253174 26 102 204
-0.182758 -0.123654 0.0339305 26 102 204
-0.259975 0.25328 0.111661 26 102 204
-0.21022 0.0211928 0.133524 26 102 204
-0.146752 -0.248359 0.151774 26 102 204
-0.161121 -0.210287 0.158761 26 102 204
-0.220459 0.0567448 0.0778699 26 102 204
-0.116827 -0.420619 0.157104 26 102 204
-0.212609 0.0159397 0.148787 26 102 204
-0.221202 0.0576956 0.120167 26 102 204
-0.114823 -0.398698 0.0879893 26 102 204
-0.174297 -0.127779 0.0606227 26 102 204
-0.263917 0.262546 0.0661447 26 102 204
-0.278503 0.316777 0.223605 26 102 204
-0.138579 -0.378305 0.243492 26 102 204
-0.199177 -0.0749634 0.0245991 26 102 204
-0.185703 -0.119275 -0.295988 26 102 204
-0.173157 -0.168038 0.188097 26 102 204
-0.212738 0.00908268 0.0742901 26 102 204
-0.177576 -0.179983 0.0910551 26 102 204
-0.217462 0.0311478 0.126852 26 102 204
-0.229596 0.0419473 -0.350716 26 102 204
-0.172996 -0.1783 0.163102 26 102 204
-0.132795 -0.328806 0.20904 26 102 204
-0.2497 0.151645 0.189429 26 102 204
-0.196161 -0.0763497 0.142698 26 102 204
-0.270573 0.213533 0.179833 26 102 204
-0.271558 0.241753 0.0783044 26 102 204
-0.19965 -0.101335 -0.248243 26 102 204
-0.274274 0.27165 0.157243 26 102 204
-0.241437 0.0847959 -0.452491 26 102 204
-0.142053 -0.315325 0.167554 26 102 204
-0.276172 0.264338 0.177183 26 102 204
-0.286761 0.294308 0.181062 26 102 204
-0.281313 0.257739 0.0391971 26 102 204
-0.27261 0.228876 0.217337 26 102 204
-0.208159 0.0331301 0.233973 26 102 204
-0.249876 0.117183 0.202511 26 102 204
-0.202185 -0.0423092 0.188293 26 102 204
-0.208735 -0.0745205 0.184577 26 102 204
-0.22607 0.0284813 0.20669 26 102 204
-0.204371 -0.0835879 0.121054 26 102 204
-0.207291 -0.0812609 0.090583 26 102 204
-0.201537 -0.124144 0.185903 26 102 204
-0.202128 -0.090156 0.0965084 26 102 204
-0.219187 -0.0133539 0.0504202 26 102 204
-0.203517 -0.100959 -0.204653 26 102 204
-0.154552 -0.32015 0.180172 26 102 204
-0.180251 -0.207914 0.178333 26 102 204
-0.140268 -0.348422 0.118163 26 102 204
-0.28797 0.266342 0.222664 26 102 204
-0.127952 -0.390614 0.223905 26 102 204
-0.197961 -0.145111 -0.396664 26 102 204
-0.226545 0.0275817 0.201303 26 102 204
-0.146359 -0.372337 0.197533 26 102 204
-0.193239 -0.171283 0.0387377 26 102 204
-0.305009 0.362624 0.180224 26 102 204
-0.286813 0.254327 -0.470709 26 102 204
-0.210646 -0.134898 -0.399879 26 102 204
-0.216005 -0.109294 0.202966 26 102 204
-0.297275 0.275476 -0.407265 26 102 204
-0.185613 -0.248019 0.167218 26 102 204
-0.208469 -0.14607 0.167009 26 102 204
-0.203912 -0.147925 0.184063 26 102 204
-0.252763 0.0847888 -0.491656 26 102 204
-0.206033 -0.134972 -0.0731096 26 102 204
-0.148544 -0.37794 0.177604 26 102 204
-0.27646 0.15441 0.165465 26 102 204
-0.230621 -0.0909809 0.230809 26 102 204
-0.203025 -0.151179 -0.480749 26 102 204
-0.24968 0.0314505 0.208387 26 102 204
-0.225769 -0.0839234 0.121499 26 102 204
-0.27157 0.1222 -0.133201 26 102 204
-0.203477 -0.140189 0.0193954 26 102 204
-0.269395 0.0908986 0.20361 26 102 204
-0.207914 -0.220621 -0.454978 26 102 204
-0.312712 0.294497 -0.4145 26 102 204
-0.318424 0.322782 -0.470657 26 102 204
-0.220225 -0.1503 -0.432547 26 102 204
-0.216972 -0.141139 -0.4074 26 102 204
-0.22787 -0.130343 0.0485099 26 102 204
-0.239921 -0.0171312 -0.169159 26 102 204
-0.309114 0.27388 0.228328 26 102 204
-0.224752 -0.0950415 0.205897 26 102 204
-0.278915 0.0806626 0.111714 26 102 204
-0.328376 0.327611 0.19863 26 102 204
-0.200867 -0.239058 0.202153 26 102 204
-0.2124 -0.192209 0.230403 26 102 204
-0.215911 -0.12974 -0.286974 26 102 204
-0.218778 -0.149878 -0.450314 26 102 204
-0.220994 -0.173958 -0.312885 26 102 204
-0.319772 0.292349 0.185925 26 102 204
-0.202522 -0.21117 -0.0372459 26 102 204
-0.222136 -0.14485 -0.282971 26 102 204
-0.255992 -0.0567165 0.173145 26 102 204
-0.197918 -0.321033 -0.0772195 26 102 204
-0.230245 -0.150661 -0.450674 26 102 204
-0.324832 0.267391 0.209174 26 102 204
-0.234168 -0.123367 -0.464698 26 102 204
-0.303616 0.274893 0.167944 26 102 204
-0.300319 0.181913 -0.359638 26 102 204
-0.295403 0.200617 0.196625 26 102 204
-0.302357 0.172334 -0.408255 26 102 204
-0.299037 0.137295 -0.0414137 26 102 204
-0.296018 0.142858 -0.40609 26 102 204
-0.302103 0.152686 -0.419454 26 102 204
-0.287257 0.130359 0.208173 26 102 204
-0.281707 0.126065 0.202024 26 102 204
-0.287807 0.0900683 0.0815818 26 102 204
-0.286553 0.0899661 -0.0531121 26 102 204
-0.260172 0.0782196 -0.407644 26 102 204
-0.282639 0.0675787 -0.0636749 26 102 204
-0.278465 0.0321049 -0.27193 26 102 204
-0.275499 0.0465812 -0.0644093 26 102 204
-0.277049 0.0280022 -0.443009 26 102 204
-0.272513 0.0187295 0.212644 26 102 204
-0.263188 0.0336965 0.00316941 26 102 204
-0.273312 0.0163524 0.151926 26 102 204
-0.26325 -0.00765347 -0.300078 26 102 204
-0.257006 -0.0139896 -0.278184 26 102 204
-0.258018 -0.0151118 -0.276645 26 102 204
-0.259856 -0.0539034 -0.116674 26 102 204
-0.257286 -0.0538769 -0.402583 26 102 204
-0.256133 -0.0756535 -0.401314 26 102 204
-0.248006 -0.0556028 -0.315181 26 102 204
-0.253978 -0.0762585 -0.427968 26 102 204
-0.256302 -0.0652024 -0.0354783 26 102 204
-0.249206 -0.0826292 0.19684 26 102 204
-0.242966 -0.0715645 -0.399268 26 102 204
-0.243061 -0.0974546 -0.0301336 26 102 204
-0.244476 -0.0989873 -0.178816 26 102 204
-0.237052 -0.0811662 0.141056 26 102 204
-0.237654 -0.109025 -0.00938942 26 102 204
-0.231073 -0.111026 -0.240716 26 102 204
-0.235929 -0.125366 -0.273358 26 102 204
-0.23395 -0.20482 0.143561 26 102 204
-0.220408 -0.118605 -0.227285 26 102 204
-0.235982 -0.140408 -0.271032 26 102 204
-0.237107 -0.142157 -0.350232 26 102 204
-0.211066 -0.280672 0.00275924 26 102 204
-0.214334 -0.124707 -0.296306 26 102 204
-0.232798 -0.146983 -0.162825 26 102 204
-0.226167 -0.150264 0.0991551 26 102 204
-0.232801 -0.156506 0.159826 26 102 204
-0.234208 -0.165789 -0.182306 26 102 204
-0.237905 -0.171835 0.00550219 26 102 204
-0.210902 -0.172038 0.112103 26 102 204
-0.220035 -0.160834 -0.384467 26 102 204
-0.223482 -0.173358 -0.162226 26 102 204
-0.224981 -0.18059 -0.0987946 26 102 204
-0.225729 -0.182802 -0.236427 26 102 204
-0.233752 -0.195727 -0.407713 26 102 204
-0.227348 -0.187068 -0.349228 26 102 204
-0.221716 -0.188358 0.216309 26 102 204
-0.225414 -0.193795 -0.432348 26 102 204
-0.210816 -0.273728 0.11359 26 102 204
-0.201697 -0.208281 -0.0254584 26 102 204
-0.205241 -0.209415 -0.0707142 26 102 204
-0.19289 -0.318156 0.109818 26 102 204
-0.234841 -0.107107 -0.0210118 26 102 204
-0.326218 0.300701 0.190165 26 102 204
-0.196305 -0.313409 0.127394 26 102 204
-0.24921 -0.0940489 0.172639 26 102 204
-0.319838 0.228577 0.201181 26 102 204
-0.307934 0.21342 0.145313 26 102 204
-0.306126 0.192144 0.207428 26 102 204
-0.307713 0.196173 0.0805302 26 102 204
-0.297467 0.179655 0.0962203 26 102 204
-0.298185 0.141963 0.0584367 26 102 204
-0.285885 0.146719 0.205824 26 102 204
-0.295377 0.12288 -0.0796274 26 102 204
-0.292005 0.111172 -0.045608 26 102 204
-0.283736 0.109166 -0.0336634 26 102 204
-0.286203 0.0878458 -0.0267399 26 102 204
-0.28682 0.077152 -0.159151 26 102 204
-0.278456 0.0632867 -0.238298 26 102 204
-0.274261 0.0543742 -0.210912 26 102 204
-0.232628 -0.139242 0.126889 26 102 204
-0.241549 -0.118339 -0.360746 26 102 204
-0.3261 0.268749 -0.478462 26 102 204
-0.274702 0.0486379 -0.426132 26 102 204
-0.2346 -0.172849 -0.454112 26 102 204
-0.333319 0.281602 -0.446258 26 102 204
-0.237433 -0.150504 -0.26307 26 102 204
-0.267024 0.104927 -0.45093 26 102 204
-0.332604 0.289489 -0.472454 26 102 204
-0.340051 0.296284 -0.436333 26 102 204
-0.229219 -0.250674 -0.00570938 26 102 204
-0.329457 0.232866 -0.266614 26 102 204
-0.221445 -0.247525 0.175466 26 102 204
-0.236495 -0.143238 -0.453246 26 102 204
-0.234169 -0.26178 -0.0873537 26 102 204
-0.324678 0.208229 -0.190913 26 102 204
-0.2324 -0.212097 -0.396385 26 102 204
-0.306849 0.108848 -0.25731 26 102 204
-0.319992 0.170144 -0.445838 26 102 204
-0.334319 0.260374 -0.346865 26 102 204
-0.238703 -0.143425 -0.187 26 102 204
-0.204487 -0.31131 0.158065 26 102 204
-0.243818 -0.214608 0.18062 26 102 204
-0.328081 0.231111 0.214068 26 102 204
-0.239452 -0.22259 -0.0768781 26 102 204
-0.347068 0.262956 -0.0804637 26 102 204
-0.312924 0.101023 -0.180269 26 102 204
-0.256684 -0.107867 0.213706 26 102 204
-0.354363 0.318737 0.216814 26 102 204
-0.334973 0.217867 0.228273 26 102 204
-0.252829 -0.221943 -0.128288 26 102 204
-0.24048 -0.24191 0.0438985 26 102 204
-0.284843 -0.0500141 0.233292 26 102 204
-0.248943 -0.209775 -0.236189 26 102 204
-0.359468 0.305362 -0.243914 26 102 204
-0.263183 -0.137248 0.216828 26 102 204
-0.366213 0.273453 -0.488382 26 102 204
-0.265112 -0.0711916 -0.451401 26 102 204
-0.343055 0.158271 0.214597 26 102 204
-0.364758 0.308542 0.194575 26 102 204
-0.367507 0.26311 -0.199279 26 102 204
-0.336003 0.0815218 0.212979 26 102 204
-0.320889 -0.0330405 0.227827 26 102 204
-0.337171 0.0573127 -0.297429 26 102 204
-0.349174 0.203577 -0.327574 26 102 204
-0.352238 0.15648 -0.407866 26 102 204
-0.32999 0.0805875 -0.349372 26 102 204
-0.343081 0.0698599 -0.44236 26 102 204
-0.322937 0.0202543 -0.390036 26 102 204
-0.31159 -0.0297006 -0.347945 26 102 204
-0.338038 0.0799288 -0.344942 26 102 204
-0.315874 -0.00825714 -0.367446 26 102 204
-0.30031 -0.129864 0.237166 26 102 204
-0.298511 -0.10117 -0.383193 26 102 204
-0.295682 -0.0376976 -0.359431 26 102 204
-0.280023 -0.193274 -0.326557 26 102 204
-0.384253 0.274446 -0.201394 26 102 204
-0.26329 -0.288323 -0.0244638 26 102 204
-0.34134 0.0930509 -0.425699 26 102 204
-0.280087 -0.180381 -0.169096 26 102 204
-0.3197 -0.0603288 -0.329034 26 102 204
-0.346134 0.0775472 -0.302247 26 102 204
-0.305937 -0.0995794 -0.420327 26 102 204
-0.328981 -0.0158854 -0.295498 26 102 204
-0.361012 0.154277 0.202925 26 102 204
-0.344926 0.173243 0.165536 26 102 204
-0.359594 0.180284 -0.384801 26 102 204
-0.294868 -0.208453 -0.298361 26 102 204
-0.299071 -0.170775 -0.315217 26 102 204
-0.332671 -0.0229828 -0.334184 26 102 204
-0.407986 0.314537 -0.452905 26 102 204
-0.298569 -0.22675 -0.408482 26 102 204
-0.290202 -0.227592 -0.169285 26 102 204
-0.390243 0.251914 -0.346202 26 102 204
-0.303695 -0.215917 -0.393958 26 102 204
-0.300077 -0.263786 0.213126 26 102 204
-0.336451 -0.0426936 -0.443737 26 102 204
-0.297449 -0.303296 -0.362351 26 102 204
-0.38463 0.14767 -0.455361 26 102 204
-0.421273 0.293554 -0.439707 26 102 204
-0.364777 0.0283812 -0.384229 26 102 204
-0.363075 0.0196711 -0.334443 26 102 204
-0.374594 0.0938664 -0.364642 26 102 204
-0.401544 0.206687 -0.384873 26 102 204
-0.330191 -0.141353 -0.429856 26 102 204
-0.316136 -0.139292 -0.434236 26 102 204
-0.386144 0.256561 -0.332074 26 102 204
-0.423519 0.305156 -0.451662 26 102 204
-0.410931 0.303386 -0.41767 26 102 204
-0.378101 0.109583 -0.442259 26 102 204
-0.321794 -0.202315 -0.392726 26 102 204
-0.38946 0.155156 -0.346913 26 102 204
-0.344016 -0.0898707 -0.418946 26 102 204
-0.356816 0.102271 -0.428829 26 102 204
-0.317641 -0.137637 -0.424685 26 102 204
-0.353079 -0.0645343 -0.415542 26 102 204
-0.332752 -0.122538 -0.372537 26 102 204
-0.311316 -0.221248 -0.34739 26 102 204
-0.319105 -0.231995 -0.407511 26 102 204
-0.325499 -0.197459 -0.417474 26 102 204
