ply
format ascii 1.0
comment Created by Open3D
element vertex 1024
property double x
property double y
property double z
property uchar red
property uchar green
property uchar blue
end_header
-0.101217 0.226408 0.0166147 26 102 204
-0.0952004 0.243984 0.0173434 26 102 204
-0.0971913 0.238209 0.0156555 26 102 204
-0.102854 0.227774 0.0181134 26 102 204
-0.090111 0.228961 0.0147111 26 102 204
-0.0968832 0.227841 0.0172969 26 102 204
-0.0901219 0.210816 0.0137104 26 102 204
-0.100226 0.222378 0.0210387 26 102 204
-0.0893559 0.227118 0.0218481 26 102 204
-0.0935371 0.222854 0.0173246 26 102 204
-0.0813732 0.216023 0.0190958 26 102 204
-0.0822126 0.215808 0.0167239 26 102 204
-0.0812961 0.214597 0.0144852 26 102 204
-0.0818365 0.21484 0.0172868 26 102 204
-0.0783253 0.210506 0.0183153 26 102 204
-0.0904374 0.211716 0.00976512 26 102 204
-0.081653 0.209485 0.0202157 26 102 204
-0.0939661 0.206808 0.0146017 26 102 204
-0.0770346 0.2036 0.0202896 26 102 204
-0.0649294 0.183437 0.0156249 26 102 204
-0.0883799 0.20334 0.0139615 26 102 204
-0.0734994 0.200417 0.0166521 26 102 204
-0.0784943 0.197602 0.0173898 26 102 204
-0.06834 0.203287 -0.00594999 26 102 204
-0.0707714 0.196106 0.0142358 26 102 204
-0.0681354 0.198327 0.00936715 26 102 204
-0.0790661 0.196693 0.0218505 26 102 204
-0.0796147 0.191443 0.016116 26 102 204
-0.113281 0.187926 0.0198399 26 102 204
-0.0867415 0.187735 0.0131589 26 102 204
-0.0764622 0.189683 0.0175083 26 102 204
-0.0686112 0.18662 0.0132414 26 102 204
-0.0792349 0.188145 0.0183892 26 102 204
-0.0881313 0.190046 0.00747738 26 102 204
-0.063627 0.181418 0.0112524 26 102 204
-0.0865634 0.186591 0.0174141 26 102 204
-0.0656707 0.182517 0.0173987 26 102 204
-0.100432 0.182851 0.0170532 26 102 204
-0.0695041 0.177725 0.0067878 26 102 204
-0.0766468 0.17921 0.0203221 26 102 204
-0.0941557 0.173354 0.00810461 26 102 204
-0.102186 0.175704 0.0186836 26 102 204
-0.0660122 0.176273 0.0207211 26 102 204
-0.0622047 0.179523 0.0172821 26 102 204
-0.0606811 0.173103 0.0141088 26 102 204
-0.0653819 0.169039 0.0175159 26 102 204
-0.104668 0.160035 0.0184883 26 102 204
-0.0607424 0.165351 0.0109913 26 102 204
-0.0677594 0.163624 0.0147818 26 102 204
-0.0997522 0.162613 0.0172158 26 102 204
-0.0684944 0.165808 0.0215688 26 102 204
-0.13375 0.164166 0.0261207 26 102 204
-0.131005 0.160806 0.0241143 26 102 204
-0.0498463 0.161843 0.0241412 26 102 204
-0.137577 0.163564 0.0240965 26 102 204
-0.0626893 0.162331 0.0109811 26 102 204
-0.137108 0.158291 0.0231937 26 102 204
-0.112119 0.159226 0.0203354 26 102 204
-0.148738 0.153587 0.0257964 26 102 204
-0.114514 0.145887 0.0205191 26 102 204
-0.106257 0.155652 0.0168952 26 102 204
-0.0653598 0.15656 0.0161807 26 102 204
-0.0413044 0.152325 0.014782 26 102 204
-0.0604142 0.154929 0.0112647 26 102 204
-0.050498 0.15141 0.0202226 26 102 204
-0.0416822 0.153074 0.0133831 26 102 204
-0.0986582 0.156337 0.0138857 26 102 204
-0.0556297 0.151471 0.0238149 26 102 204
-0.107354 0.151108 0.0233189 26 102 204
-0.0583738 0.152916 0.0228001 26 102 204
-0.0618799 0.150269 0.0131879 26 102 204
-0.0524564 0.147396 0.0220263 26 102 204
-0.0569267 0.1474 0.0215111 26 102 204
-0.0854598 0.147801 0.0153813 26 102 204
-0.0684446 0.143715 0.0207355 26 102 204
-0.10216 0.146481 0.0148284 26 102 204
-0.0678851 0.146868 0.0137265 26 102 204
-0.0912546 0.142631 0.0088937 26 102 204
-0.0922153 0.143251 0.00216287 26 102 204
-0.0678787 0.145731 0.0265153 26 102 204
-0.0877376 0.144035 0.0198533 26 102 204
-0.128148 0.143715 0.0263574 26 102 204
-0.0665304 0.142753 0.0293051 26 102 204
-0.105712 0.140247 0.0261646 26 102 204
-0.0566627 0.14105 0.0199773 26 102 204
-0.0513483 0.141376 0.00917358 26 102 204
-0.0928166 0.136147 0.0289553 26 102 204
-0.129012 0.138441 0.0267567 26 102 204
-0.100677 0.137211 0.0285532 26 102 204
-0.115386 0.138351 0.00968776 26 102 204
-0.102635 0.132256 0.015129 26 102 204
-0.0942921 0.137758 0.00900429 26 102 204
-0.126183 0.13715 0.0196196 26 102 204
-0.135175 0.129032 0.018343 26 102 204
-0.127094 0.136251 0.0193671 26 102 204
-0.0416374 0.136376 0.0286362 26 102 204
-0.0732611 0.136233 0.0184513 26 102 204
-0.0427863 0.132952 0.0324696 26 102 204
-0.0785811 0.131488 0.0226556 26 102 204
-0.0788603 0.1288 0.0196034 26 102 204
-0.0504008 0.134103 0.022341 26 102 204
-0.0823397 0.131891 0.011022 26 102 204
-0.110918 0.131689 0.0248112 26 102 204
-0.0643925 0.13222 0.00897078 26 102 204
-0.0645733 0.132025 0.0138392 26 102 204
-0.0883246 0.126635 0.0295549 26 102 204
-0.0870627 0.127244 -0.00220658 26 102 204
-0.0880456 0.130312 0.0131369 26 102 204
-0.0736377 0.128399 0.0137369 26 102 204
-0.100946 0.130912 0.0205924 26 102 204
-0.0939293 0.129865 0.0296882 26 102 204
-0.13214 0.124149 0.0310988 26 102 204
-0.0467085 0.13139 0.0199829 26 102 204
-0.0703868 0.128806 0.0322437 26 102 204
-0.0921209 0.130938 0.00886964 26 102 204
-0.0713843 0.126186 0.00781224 26 102 204
-0.116807 0.125367 0.0147093 26 102 204
-0.0619999 0.127463 0.00697507 26 102 204
-0.0592065 0.128269 0.0155705 26 102 204
-0.0628991 0.127294 0.0255023 26 102 204
-0.0288152 0.127519 0.012782 26 102 204
-0.115767 0.124952 0.0049902 26 102 204
-0.0382261 0.127966 0.0259157 26 102 204
-0.0837923 0.127736 0.00264163 26 102 204
-0.0788087 0.128224 0.000995263 26 102 204
-0.0676802 0.124573 0.00634697 26 102 204
-0.0900621 0.126904 0.0257699 26 102 204
-0.0806142 0.127025 0.014194 26 102 204
-0.0692721 0.122455 0.0158977 26 102 204
-0.10299 0.122722 0.0157614 26 102 204
-0.063534 0.126012 0.0199218 26 102 204
-0.0621524 0.125429 0.0111958 26 102 204
-0.103199 0.125476 0.0309402 26 102 204
-0.0607383 0.122766 -0.00228134 26 102 204
-0.0549612 0.123676 0.00462991 26 102 204
-0.062791 0.118704 0.0196683 26 102 204
-0.0261664 0.120479 0.00900765 26 102 204
-0.0662356 0.121571 0.0080351 26 102 204
-0.106382 0.124239 0.0028692 26 102 204
-0.0902167 0.121914 -0.000819617 26 102 204
-0.0903914 0.123698 0.00484218 26 102 204
-0.0720397 0.121541 0.0211545 26 102 204
-0.0437811 0.120884 0.0282964 26 102 204
-0.092652 0.119644 0.0262292 26 102 204
-0.104029 0.117604 0.00564254 26 102 204
-0.0228221 0.120519 0.0243689 26 102 204
-0.0381454 0.11929 0.00792626 26 102 204
-0.0471053 0.119015 0.0255235 26 102 204
-0.111532 0.116763 0.017283 26 102 204
-0.0190562 0.116227 0.00882114 26 102 204
-0.0953887 0.118714 0.00620359 26 102 204
-0.121773 0.117182 0.0137992 26 102 204
-0.0502816 0.116273 0.0156041 26 102 204
-0.0538717 0.117098 0.0329522 26 102 204
-0.0532025 0.114852 0.0121711 26 102 204
-0.104329 0.114074 -0.00198927 26 102 204
-0.0917439 0.115142 0.00770577 26 102 204
-0.120242 0.113164 0.00962961 26 102 204
-0.124368 0.114476 0.0100606 26 102 204
-0.102683 0.11737 0.0177639 26 102 204
-0.0560721 0.116068 0.0322739 26 102 204
-0.066563 0.114936 0.0301826 26 102 204
-0.062524 0.113333 0.0358859 26 102 204
-0.12349 0.115774 0.016099 26 102 204
-0.112001 0.112411 0.00169287 26 102 204
-0.0410652 0.115161 0.0110196 26 102 204
-0.0894042 0.106735 0.0250776 26 102 204
-0.0568181 0.11012 0.0283789 26 102 204
-0.0460279 0.110201 0.0269749 26 102 204
-0.0867196 0.114005 0.00882525 26 102 204
-0.0800251 0.112684 0.0224781 26 102 204
-0.0820308 0.109868 0.0152343 26 102 204
-0.0321465 0.112345 0.0154211 26 102 204
-0.102128 0.110373 0.00650959 26 102 204
-0.0616806 0.111862 0.00830905 26 102 204
-0.0603211 0.104596 -0.00203855 26 102 204
-0.113591 0.110374 0.0105459 26 102 204
-0.0819104 0.109462 0.00813419 26 102 204
-0.0577548 0.109775 0.0194978 26 102 204
-0.109707 0.111724 0.0019913 26 102 204
-0.0963739 0.105876 0.0203133 26 102 204
-0.020079 -0.0843054 -0.00502682 26 102 204
-0.0921805 0.098527 0.00515617 26 102 204
-0.0405639 0.106266 0.0109936 26 102 204
-0.0525074 0.109462 0.0070357 26 102 204
-0.0531034 0.109421 0.0131354 26 102 204
-0.116765 0.107108 0.0139144 26 102 204
-0.0882441 0.103914 0.0231787 26 102 204
-0.0904392 0.104036 0.00198851 26 102 204
-0.123388 0.106627 0.0245648 26 102 204
-0.0601713 0.105904 0.00754749 26 102 204
-0.115342 0.10644 0.0179756 26 102 204
-0.0946547 0.103614 0.0193049 26 102 204
-0.0908711 0.0943609 0.00207767 26 102 204
-0.0975105 0.101126 0.0161499 26 102 204
-0.125659 0.105061 0.00747788 26 102 204
-0.117605 0.102421 0.0147732 26 102 204
-0.058703 0.101583 0.0213621 26 102 204
-0.113701 0.10355 0.0194618 26 102 204
-0.0512957 0.101526 0.0236593 26 102 204
-0.112821 0.103562 0.0145147 26 102 204
-0.0298931 0.102147 0.00762722 26 102 204
-0.0410441 0.101475 0.00894354 26 102 204
-0.110056 0.0900294 -0.00727816 26 102 204
-0.079587 0.0989647 0.0133177 26 102 204
-0.0921708 0.0973623 0.00163681 26 102 204
-0.0694296 0.0945127 0.00513818 26 102 204
-0.0665432 0.0945016 0.00877907 26 102 204
-0.0616918 0.0903029 0.00708319 26 102 204
-0.0658219 0.0912438 0.00661686 26 102 204
-0.0497353 0.0937653 0.0143326 26 102 204
-0.0587445 0.0870013 0.00276161 26 102 204
-0.0620447 0.0953941 0.0132013 26 102 204
-0.0498473 0.0905199 0.0113302 26 102 204
-0.0449745 0.0755632 0.0119337 26 102 204
-0.0440669 0.0871969 0.00394413 26 102 204
-0.0641807 0.0888598 -0.000551654 26 102 204
-0.0718653 0.0883456 0.0089413 26 102 204
-0.0572771 0.0876356 0.00951753 26 102 204
-0.0480861 0.0864747 -0.00330387 26 102 204
-0.0493801 0.0860064 0.00695956 26 102 204
-0.0551971 0.0850717 -0.0112856 26 102 204
-0.0728289 0.0835896 -0.00345168 26 102 204
-0.0763182 0.0818723 -0.00865816 26 102 204
-0.0818831 0.0804858 0.000175035 26 102 204
-0.0477379 0.0774733 -0.0258582 26 102 204
-0.0981889 0.077872 0.00512347 26 102 204
-0.111961 0.0787777 0.00693265 26 102 204
-0.119992 0.0751867 0.00448091 26 102 204
-0.0327065 0.0773658 0.00666839 26 102 204
-0.0627099 0.0742572 -0.00138098 26 102 204
-0.0280792 0.0720595 0.0144306 26 102 204
-0.0631363 0.0711829 -0.00659132 26 102 204
-0.0316101 0.0708257 -0.0167752 26 102 204
-0.039017 0.0702488 0.00935151 26 102 204
-0.0299231 0.0625607 0.00913161 26 102 204
-0.0810865 0.0626461 0.00737015 26 102 204
-0.0594662 0.065056 0.00157248 26 102 204
-0.0508768 0.0662818 0.001772 26 102 204
-0.0421083 0.0997871 0.0113094 26 102 204
-0.0514356 0.0669778 -0.00843264 26 102 204
-0.0442014 0.0643085 0.00172733 26 102 204
-0.029895 0.071056 0.0133568 26 102 204
-0.0317345 0.0622884 -0.0153381 26 102 204
-0.0334228 0.0622132 0.00629459 26 102 204
-0.0513887 0.0613085 0.00593434 26 102 204
-0.0620557 0.0611744 -0.0105052 26 102 204
-0.0658156 0.060797 -0.0105353 26 102 204
-0.0413566 0.0595023 -0.00105259 26 102 204
-0.0491962 0.0587943 -0.0059159 26 102 204
-0.0880605 0.0574527 -0.00886003 26 102 204
-0.0894598 0.054693 -0.0114356 26 102 204
-0.04612 0.0541156 -0.00712688 26 102 204
-0.0585892 0.0561383 0.00494518 26 102 204
-0.0606618 0.053997 -0.0169767 26 102 204
-0.0266571 0.0547353 -0.0249459 26 102 204
-0.0473067 0.0496937 -0.00901154 26 102 204
-0.021227 0.0495329 -0.0181834 26 102 204
-0.0304174 0.0503909 -0.0362085 26 102 204
-0.0434642 0.050403 -0.0198315 26 102 204
-0.0337678 0.0464072 -0.0230318 26 102 204
-0.0386755 0.0475724 -0.0291615 26 102 204
-0.0409858 0.0501599 -0.0422266 26 102 204
-0.0341687 0.0479194 -0.0290786 26 102 204
-0.0494701 0.0473452 -0.0279342 26 102 204
-0.0243162 0.0467215 -0.0386563 26 102 204
-0.0234354 0.0391928 -0.0417686 26 102 204
-0.0200273 0.041656 -0.0479874 26 102 204
-0.0369771 0.0453387 -0.0494626 26 102 204
-0.0277636 0.0460474 -0.0351407 26 102 204
-0.0531026 0.0464962 0.00813956 26 102 204
-0.0734803 0.0472802 -0.0150942 26 102 204
-0.048259 0.0468836 -0.0017847 26 102 204
-0.0300266 0.0497598 -0.0589704 26 102 204
-0.0465791 0.0432847 -0.0118762 26 102 204
-0.0466934 0.0441793 -0.000333337 26 102 204
-0.0693773 0.0435645 -0.00174924 26 102 204
-0.0295178 0.0425617 -0.047996 26 102 204
-0.0243348 0.0432488 -0.0574343 26 102 204
-0.0539664 0.0380713 -0.0184362 26 102 204
-0.0224649 0.039905 0.00516794 26 102 204
-0.0871734 0.0396557 -0.00172859 26 102 204
-0.0574898 0.0371697 -0.0163311 26 102 204
-0.0520741 0.0380404 -0.0131803 26 102 204
-0.0579783 0.0389615 -0.0134171 26 102 204
-0.0403826 0.0320399 -0.020813 26 102 204
-0.0462929 0.0377683 -0.0340079 26 102 204
-0.0336692 0.0374798 -0.0249744 26 102 204
-0.0255498 0.0417077 0.0076125 26 102 204
-0.0304334 0.0353724 0.000277403 26 102 204
-0.0331809 0.0381144 -0.0110772 26 102 204
-0.0376235 0.0327938 -0.00941438 26 102 204
-0.0382852 0.0352206 -0.0166889 26 102 204
-0.0206163 0.0325508 -0.0372007 26 102 204
-0.046507 0.0312965 -0.0088401 26 102 204
-0.0171246 0.0316284 -0.0106543 26 102 204
-0.057394 0.0335279 -0.0239846 26 102 204
-0.0640486 0.0305325 -0.013587 26 102 204
0.00108355 0.0307235 -0.0279418 26 102 204
-0.0402565 0.0319495 -0.0242042 26 102 204
-0.03906 0.0325022 -0.0116421 26 102 204
-0.0564023 0.0309281 -0.0180517 26 102 204
-0.0164679 0.0323341 -0.0522893 26 102 204
-0.0226419 0.0302434 -0.0129041 26 102 204
-0.0133314 0.031563 -0.0161363 26 102 204
-0.00754769 0.0293605 -0.0220293 26 102 204
-0.0384958 0.0291025 -0.0219293 26 102 204
-0.0873999 0.0280597 -0.0151275 26 102 204
-0.0293708 0.0273356 -0.00615075 26 102 204
-0.06132 0.0274669 -0.0180739 26 102 204
-0.0172652 0.0274791 -0.0154216 26 102 204
-0.0163675 0.0331755 -0.0153463 26 102 204
-0.00624535 0.0266428 -0.0164136 26 102 204
-0.0265076 0.0270928 -0.0174984 26 102 204
-0.0182957 0.0317509 -0.0516313 26 102 204
-0.0955392 0.0272827 -0.0188276 26 102 204
-0.0309465 0.0240195 -0.0243832 26 102 204
-0.0185287 0.0240617 -0.0352947 26 102 204
0.0157554 0.0267286 -0.00828651 26 102 204
-0.0322269 0.0269876 -0.0193432 26 102 204
-0.0400249 0.027879 -0.0208713 26 102 204
-0.00856759 0.0274297 -0.0266306 26 102 204
0.016935 0.0252425 -0.0335231 26 102 204
-0.0164331 0.0280861 -0.0150889 26 102 204
0.0038569 0.0206679 -0.0180704 26 102 204
-0.0520669 0.0215585 -0.00767427 26 102 204
-0.0197176 0.0199475 -0.018254 26 102 204
-0.0167817 0.0244024 -0.0106855 26 102 204
-0.032771 0.0203894 -0.0355267 26 102 204
-0.0557152 0.0204653 -0.0176448 26 102 204
-0.0174747 0.0218305 -0.022667 26 102 204
-0.0206182 0.0211903 -0.0383551 26 102 204
-0.0338837 0.0211695 -0.0260118 26 102 204
-0.0236113 0.0212208 -0.0476162 26 102 204
-0.015751 0.0184297 -0.00321451 26 102 204
-0.0410892 0.0194671 -0.0306934 26 102 204
-0.0426153 0.01951 -0.00866713 26 102 204
0.0547036 0.0252803 -0.010697 26 102 204
-0.0232354 0.0201953 -0.035792 26 102 204
0.0283785 0.0212904 -0.013001 26 102 204
0.020531 0.0188448 -0.0248799 26 102 204
0.0305488 0.0175544 -0.0168269 26 102 204
-0.0374616 0.0159921 -0.025315 26 102 204
0.0591831 0.0190865 -0.0220627 26 102 204
0.000876825 0.0183809 -0.00750466 26 102 204
0.017201 0.0237238 -0.000379809 26 102 204
0.0727618 0.0216362 -0.00430808 26 102 204
0.0333786 0.0163436 -0.00173059 26 102 204
0.0685246 0.0203251 -0.00172588 26 102 204
-0.0356241 0.0208943 0.00643751 26 102 204
-0.0754664 0.0175083 -0.00705584 26 102 204
0.0320134 0.0215971 -0.0249349 26 102 204
-0.0444375 0.0180833 -0.0304827 26 102 204
-0.052339 0.0159232 -0.00991789 26 102 204
-0.0580378 0.0245826 -0.0114323 26 102 204
-0.0498726 0.0171484 -0.015573 26 102 204
-0.00545138 0.0168286 -0.0233143 26 102 204
0.0797651 0.0187991 -0.00739203 26 102 204
-0.00528205 0.017444 -0.0165365 26 102 204
0.0655659 0.0186249 0.0156352 26 102 204
-0.042028 0.0155934 -0.0136787 26 102 204
0.0835037 0.020091 -0.0214832 26 102 204
0.0823252 0.0185446 -0.0133963 26 102 204
0.029141 0.0210765 -0.0399171 26 102 204
0.0410453 0.0179669 -0.0233229 26 102 204
0.0925064 0.0200691 -0.0147368 26 102 204
-0.0166085 0.0140003 -0.00438009 26 102 204
0.100772 0.0200193 0.0163303 26 102 204
0.0585987 0.0121616 0.0100512 26 102 204
0.0777561 0.0165639 -0.0154489 26 102 204
0.151479 0.00955078 -0.00156192 26 102 204
0.149331 0.0150157 0.00168543 26 102 204
0.142473 0.0160544 0.0106417 26 102 204
0.139868 0.0232454 0.0015983 26 102 204
-0.00707312 0.0370089 0.00598773 26 102 204
0.307744 0.0110364 -0.000266362 26 102 204
0.160812 0.0145712 -0.000880788 26 102 204
0.0210002 0.0105989 0.0040908 26 102 204
0.218812 0.0182241 0.00218687 26 102 204
0.239567 0.0157274 0.000741575 26 102 204
0.200079 0.010731 0.00544238 26 102 204
0.0269551 0.00992412 -0.000522131 26 102 204
-0.00628982 0.0111359 -0.0122795 26 102 204
0.27311 0.0145312 0.00434748 26 102 204
-0.00196893 0.014342 0.0230879 26 102 204
0.075548 0.0101615 -0.00198252 26 102 204
0.313597 0.0170907 0.00074753 26 102 204
0.0472092 0.0109379 -0.00139428 26 102 204
-0.0383349 0.0117074 -0.0214177 26 102 204
0.39991 0.0220765 0.00411329 26 102 204
-0.035674 0.0115633 -0.0111718 26 102 204
0.226253 0.0183475 -0.00222529 26 102 204
0.00659027 0.00794195 -0.0152512 26 102 204
0.137932 0.0137683 -0.0156514 26 102 204
0.43715 0.0187288 -0.00239886 26 102 204
0.00292948 0.00922405 0.0080354 26 102 204
0.211849 0.00532034 -0.000359628 26 102 204
0.39084 0.022922 0.00969873 26 102 204
0.275085 0.0193029 0.0180912 26 102 204
0.226484 0.012639 0.00867909 26 102 204
0.352364 0.0161839 0.0025836 26 102 204
-0.0211666 0.00936609 0.0101219 26 102 204
0.323903 0.0221626 0.0144006 26 102 204
0.415858 0.0233389 0.00546717 26 102 204
0.337606 0.0146172 0.00170729 26 102 204
0.0488937 0.00833348 0.0171713 26 102 204
0.222678 0.0138368 -0.00310515 26 102 204
0.392039 0.00531508 -0.00301432 26 102 204
0.448556 0.0101228 0.00111956 26 102 204
-0.0391065 0.0090061 -0.0101249 26 102 204
0.363247 0.0113689 0.0055103 26 102 204
0.091775 0.00787125 -0.0188285 26 102 204
0.249993 0.0141327 -0.0114821 26 102 204
0.170885 0.0135765 -0.0172273 26 102 204
-0.0570038 0.00657819 -0.0207527 26 102 204
0.301031 0.00927575 0.00632635 26 102 204
-0.00622865 0.00780772 -0.00633935 26 102 204
0.0964548 0.0113051 0.0218369 26 102 204
0.392838 0.0149695 0.000839683 26 102 204
-0.0182185 0.00753741 -0.0229292 26 102 204
-0.0444967 0.00503653 -0.0184784 26 102 204
0.452765 0.0206741 0.00129494 26 102 204
-0.0294785 0.00521223 -0.0316749 26 102 204
-0.0598396 0.00537878 -0.0221523 26 102 204
0.0093541 0.00386577 -0.03297 26 102 204
0.408798 0.0185885 0.0178047 26 102 204
0.347458 0.0133593 0.00330391 26 102 204
-0.0503582 0.00589065 -0.0299341 26 102 204
-0.034811 0.00632078 -0.0290545 26 102 204
-0.0400987 0.00240754 -0.000329485 26 102 204
-0.0108095 0.00509021 -0.0170421 26 102 204
0.0736649 0.00633532 -0.00533163 26 102 204
0.398523 0.0173652 0.0201597 26 102 204
-0.0611919 0.00617723 0.000434056 26 102 204
0.320273 0.0145124 0.00180326 26 102 204
0.355491 0.00937634 0.00661069 26 102 204
0.189997 0.00542509 -0.0130088 26 102 204
-0.00137101 0.00500727 -0.0269251 26 102 204
-0.0358404 0.0338258 0.00120211 26 102 204
-0.0451797 0.00257694 -0.00205531 26 102 204
0.2608 0.00483285 -0.00973795 26 102 204
0.312714 0.00859139 -0.0072207 26 102 204
-0.0664618 0.00148792 -0.0218563 26 102 204
0.0466024 0.00369192 -0.014729 26 102 204
0.0108081 0.00344957 -0.0059449 26 102 204
0.381693 0.00774692 0.00134527 26 102 204
0.281715 -0.00136161 -0.00164478 26 102 204
0.430564 0.0104842 0.0161906 26 102 204
0.0052034 0.00204333 -0.0350477 26 102 204
-0.0875584 0.000781321 0.019154 26 102 204
0.161969 0.00493384 0.0137633 26 102 204
-0.0480207 0.00137107 -0.0224621 26 102 204
0.15253 0.000724662 0.0033161 26 102 204
-0.0890084 -0.00111515 -0.0168403 26 102 204
0.14201 0.00385866 0.0047039 26 102 204
-0.101019 -0.00045277 -0.016373 26 102 204
0.0184921 0.00181226 -0.00724361 26 102 204
-0.0429643 3.58818e-05 -0.00682081 26 102 204
0.271984 0.0101225 -0.0126594 26 102 204
-0.055414 -0.000394237 -0.0162576 26 102 204
-0.00183058 0.00063211 -0.000551434 26 102 204
0.401488 0.00107905 0.000596092 26 102 204
0.0483085 -0.00162222 -0.0168188 26 102 204
-0.0124359 -0.00246685 0.00187792 26 102 204
0.106908 -0.000653243 -0.0054946 26 102 204
0.148745 0.00277251 -0.00215431 26 102 204
-0.0515962 -0.00120728 0.0184214 26 102 204
0.132511 0.00141514 -0.012222 26 102 204
0.234466 0.00280027 -0.0129934 26 102 204
0.379039 0.0024559 0.0254787 26 102 204
0.0398156 0.00826857 -0.00522697 26 102 204
0.399852 0.000966079 -0.00020494 26 102 204
0.0956321 -0.000280066 -0.0141193 26 102 204
-0.0410104 -0.00155042 0.00220618 26 102 204
0.328939 0.00268039 -0.00578087 26 102 204
0.242334 0.00228091 0.0205967 26 102 204
-0.0233533 -0.00255778 -0.0122626 26 102 204
-0.041815 0.0183099 0.0107408 26 102 204
0.331039 0.00407089 0.00977949 26 102 204
0.0394644 -0.00103702 -0.0162934 26 102 204
0.431899 0.00308454 -0.00151 26 102 204
-0.040527 -0.0012379 -0.0263808 26 102 204
0.0892817 -0.000234924 0.0135886 26 102 204
0.00527508 -0.00183475 -0.0131026 26 102 204
-0.0799623 -0.00297028 0.00328571 26 102 204
0.27744 0.00458987 -0.0175541 26 102 204
0.0868533 -0.000537457 -0.00795227 26 102 204
0.110387 0.000303209 0.0103116 26 102 204
0.218434 -0.00177322 0.00519102 26 102 204
0.15368 -0.000896723 -0.0172455 26 102 204
0.024756 -0.000675839 -0.0361106 26 102 204
0.224997 0.0077116 0.023913 26 102 204
0.362605 0.000128851 0.00641737 26 102 204
-0.0481252 0.00420862 0.0137691 26 102 204
0.051527 0.000416409 0.000138103 26 102 204
0.415576 0.00081411 0.00164975 26 102 204
0.208103 -0.000183877 -0.00902877 26 102 204
0.371947 0.0024561 -0.00414137 26 102 204
-0.0523362 0.00224519 -0.0182428 26 102 204
0.130574 -0.000259558 -0.00234442 26 102 204
0.397327 0.00362824 0.0247806 26 102 204
0.438051 0.00369195 0.0108036 26 102 204
0.0668689 -0.00144649 -0.0265686 26 102 204
0.127029 0.000490296 -0.00196611 26 102 204
-0.0478066 -0.00243699 0.000585682 26 102 204
0.0892343 -0.00237854 -0.0199061 26 102 204
0.136086 -0.00022119 0.00103585 26 102 204
0.480292 0.00910819 0.0215113 26 102 204
-0.0416166 0.000104672 0.00954034 26 102 204
0.0186752 -0.00200639 0.013085 26 102 204
0.210478 -6.81549e-05 0.0165977 26 102 204
0.061395 -0.00166163 -0.0221304 26 102 204
-0.038524 -0.00417064 -0.0193088 26 102 204
0.0594077 -0.00144433 0.0149441 26 102 204
0.219991 -0.00118753 -0.0017159 26 102 204
0.215498 0.000594484 -0.00512549 26 102 204
0.423338 -0.00123381 -0.00307418 26 102 204
0.153685 -0.00109825 0.0139493 26 102 204
0.0598401 -0.00220664 -0.0142738 26 102 204
0.158212 -0.000374664 0.0209232 26 102 204
0.437449 -0.00128127 0.00565962 26 102 204
0.00708394 -0.00415642 -0.00437425 26 102 204
0.398692 0.00550046 0.0130469 26 102 204
0.417956 -0.000302864 0.00420177 26 102 204
-0.0931395 -0.00554392 -0.00160498 26 102 204
0.455157 0.00104707 0.00155484 26 102 204
0.305326 -0.00646869 -0.00953185 26 102 204
-0.0329965 -0.00478089 0.00993719 26 102 204
-0.0791718 -0.00597353 -0.0252834 26 102 204
-0.0702591 -0.0036954 0.0170913 26 102 204
-0.0424451 -0.0063009 -0.00503537 26 102 204
0.208657 -0.00423418 -0.0180778 26 102 204
0.41712 0.00166599 0.0128471 26 102 204
-0.0584457 -0.00751892 -0.000175689 26 102 204
0.398833 -0.00443692 -0.000790592 26 102 204
-0.0213056 -0.00600991 0.0011824 26 102 204
0.122036 -0.00414922 -0.00428498 26 102 204
0.181876 -0.00571278 -0.00224398 26 102 204
0.192449 -0.00358825 -0.00961122 26 102 204
-0.0313036 -0.00800201 -0.00788106 26 102 204
0.031077 -0.00612818 -0.00684117 26 102 204
0.427818 -0.00408853 0.002089 26 102 204
0.439548 0.00210027 0.000183283 26 102 204
0.00955518 -0.0146292 -0.00486361 26 102 204
0.033108 -0.00696371 0.0245997 26 102 204
0.217812 0.000453252 0.0190564 26 102 204
0.14104 -0.00420029 0.0186679 26 102 204
0.286804 0.00333352 -0.00463133 26 102 204
0.384201 1.19139e-05 0.00202915 26 102 204
-0.0226056 -0.0070215 -0.00646052 26 102 204
0.0269516 -0.00758265 -0.000193986 26 102 204
-0.0887253 -0.0061107 -0.00211551 26 102 204
0.410916 -0.0100211 -0.00215131 26 102 204
-0.0437527 -0.00740577 -0.0154885 26 102 204
0.338879 -0.00667123 0.00656974 26 102 204
0.453662 -0.00967456 -0.00114731 26 102 204
-0.0398938 -0.00782581 -0.00322721 26 102 204
0.440615 -0.00363229 0.000332056 26 102 204
-0.0457161 -0.00786031 -0.0100362 26 102 204
0.264279 -0.00566127 -0.00938896 26 102 204
-0.0720695 -0.00715229 -0.0309831 26 102 204
0.403937 -0.0035762 0.00102355 26 102 204
0.367764 0.000181884 0.00598221 26 102 204
0.433095 0.00209186 0.00891615 26 102 204
0.190347 -0.0124096 0.00899489 26 102 204
0.293481 -0.00340403 0.0127037 26 102 204
-0.014216 -0.00793363 0.00160987 26 102 204
-0.0803843 -0.0818493 -0.00582891 26 102 204
-0.0424177 -0.00983515 -0.0147932 26 102 204
0.230351 -0.00768717 0.00950214 26 102 204
0.0710147 -0.00485556 0.0238157 26 102 204
-0.0539798 -0.00973046 -0.0177639 26 102 204
0.0402565 -0.00669755 0.0245317 26 102 204
0.258615 -0.00179125 0.017632 26 102 204
0.138654 -0.00564766 -0.0153377 26 102 204
-0.0554019 -0.00807619 0.00549201 26 102 204
-0.0322633 -0.0100328 0.0165026 26 102 204
0.380022 -0.00669071 -0.00144044 26 102 204
0.445331 -0.00171028 0.00621821 26 102 204
-0.0116011 -0.00866036 -0.0174596 26 102 204
0.346769 -1.63689e-05 0.0220313 26 102 204
0.207102 -0.00438197 0.000563075 26 102 204
-0.0296145 -0.0113091 -0.0185748 26 102 204
-0.0786552 -0.00617138 0.0117094 26 102 204
-0.0338894 -0.00987827 -0.0325673 26 102 204
-0.00848078 -0.00848909 0.0146601 26 102 204
0.226026 -0.00275042 0.012903 26 102 204
-0.00268545 -0.0101915 -0.00596314 26 102 204
-0.0198974 -0.010101 0.0205126 26 102 204
0.0918228 -0.00647967 -0.0158851 26 102 204
-0.0552055 -0.0114327 -0.0099875 26 102 204
0.350122 -0.00318127 0.00799169 26 102 204
0.00625775 -0.0103637 -0.0275206 26 102 204
0.0721109 -0.00969752 0.0223796 26 102 204
0.151339 -0.0114506 -0.0116661 26 102 204
-0.0581119 -0.0108339 -0.0185219 26 102 204
-0.102087 -0.0144482 -0.0231472 26 102 204
-0.0206432 -0.0121955 -0.0177579 26 102 204
0.229277 -0.0248803 0.00798179 26 102 204
-0.0324821 -0.0125597 -0.00368218 26 102 204
0.215822 -0.0084444 0.0125679 26 102 204
-0.00949259 -0.0131166 0.00829328 26 102 204
0.392792 -0.00106254 0.00946475 26 102 204
-0.0404031 -0.0122263 -0.0214102 26 102 204
0.0252474 -0.0110276 -0.0153055 26 102 204
0.102801 -0.0138474 -0.0130926 26 102 204
0.272891 -0.00984923 0.0046186 26 102 204
0.00687746 -0.0134763 0.0110355 26 102 204
0.155519 -0.0104044 0.0178107 26 102 204
0.0765783 -0.00987876 0.022255 26 102 204
-0.0346297 -0.0127027 -0.00534853 26 102 204
0.0683164 -0.0107515 -0.0266329 26 102 204
0.00631271 -0.0152403 0.00827033 26 102 204
-0.0336977 -0.0157484 -0.0152151 26 102 204
0.305369 -0.00959193 0.011651 26 102 204
0.442635 -0.00100902 0.0101064 26 102 204
-0.0355963 -0.0149657 0.00815397 26 102 204
0.151052 -0.0106069 -0.016409 26 102 204
0.357869 -0.00102065 0.0141585 26 102 204
0.282743 -0.00380211 0.00448613 26 102 204
-0.0382676 -0.0129018 0.00070713 26 102 204
-0.0389601 -0.0150091 0.0123882 26 102 204
0.282017 -0.0331564 0.00385117 26 102 204
-0.0559155 -0.0153205 -0.0220191 26 102 204
0.154683 -0.00692085 0.0190983 26 102 204
-0.00741298 -0.0154751 0.00227803 26 102 204
0.0997928 -0.0105759 0.0205327 26 102 204
0.0238817 -0.0137221 -0.0138664 26 102 204
0.190421 -0.0115883 -0.00786257 26 102 204
0.300365 -0.00756775 0.00559322 26 102 204
0.0866598 -0.0133001 0.00996728 26 102 204
0.183007 -0.0117714 -0.0111439 26 102 204
0.0230198 -0.01294 -0.00543444 26 102 204
0.12316 -0.0154599 -0.0056777 26 102 204
-0.033516 -0.0143423 -0.0272311 26 102 204
0.414311 -0.0148722 0.000956191 26 102 204
-0.000256475 -0.0160039 -0.010268 26 102 204
0.20841 -0.0103825 0.0165115 26 102 204
0.241234 -0.0172476 0.00314856 26 102 204
0.375893 -0.0134373 0.00412913 26 102 204
0.399952 -0.00373839 0.00878596 26 102 204
0.326938 -0.00750216 0.0105478 26 102 204
0.180356 -0.0106346 0.0133901 26 102 204
0.00508647 -0.0164652 0.0033348 26 102 204
0.143474 -0.0132739 -0.00875552 26 102 204
0.0185924 -0.0176653 0.0136816 26 102 204
0.174686 -0.0143027 -0.0086912 26 102 204
-0.0379129 -0.0161657 0.00292172 26 102 204
0.364222 -0.0118173 0.0037147 26 102 204
0.307693 -0.0128308 0.00506891 26 102 204
-0.0228544 -0.0184359 -0.000955858 26 102 204
-0.0405747 -0.0172261 -0.0209978 26 102 204
0.145413 -0.0133663 -0.000181095 26 102 204
-0.10655 -0.0161859 -0.00789308 26 102 204
0.0653716 -0.0149606 0.00956294 26 102 204
0.154185 -0.017132 0.00741748 26 102 204
-0.0355819 -0.0178576 -0.0166654 26 102 204
0.351071 -0.0163919 0.00391903 26 102 204
0.182452 -0.0160552 -0.00549084 26 102 204
0.322089 -0.0109598 0.0132265 26 102 204
0.108925 -0.0125805 -0.017021 26 102 204
0.0402423 -0.0162214 0.0147335 26 102 204
0.242258 -0.0191845 0.00277018 26 102 204
0.0482759 -0.0175998 0.0158735 26 102 204
0.0306486 -0.0196217 -0.0174459 26 102 204
0.146306 -0.0177609 0.00249785 26 102 204
0.145536 -0.0146931 0.00371026 26 102 204
0.090892 -0.0165117 0.0129282 26 102 204
0.0779765 -0.0178495 0.00700522 26 102 204
0.0936063 -0.0190772 -0.016639 26 102 204
0.130887 -0.0180192 -0.000926332 26 102 204
0.0748449 -0.0218473 -0.00847362 26 102 204
0.10565 -0.0176565 0.00388386 26 102 204
-0.0169143 -0.0221077 -0.0141098 26 102 204
0.0712971 -0.0168893 -0.0118122 26 102 204
-0.0504484 -0.0219289 0.00203587 26 102 204
-0.0308925 -0.0241563 -0.0233183 26 102 204
0.0664744 -0.024022 0.00104139 26 102 204
0.0493957 -0.0266355 -0.000718738 26 102 204
0.0628873 -0.0265798 -0.0089496 26 102 204
0.0522511 -0.0256038 -0.0200977 26 102 204
0.0390112 -0.02494 -0.0161044 26 102 204
0.0157483 -0.0208432 -0.0169603 26 102 204
-0.0222602 -0.0546356 0.0022681 26 102 204
-0.0553917 -0.0241367 -0.0072212 26 102 204
0.0177726 -0.0277322 -0.024857 26 102 204
0.0191135 -0.0291327 -0.0265506 26 102 204
-0.0287636 -0.0303474 -0.033849 26 102 204
0.0205785 -0.0273679 -0.0341083 26 102 204
-0.052731 -0.0279723 -0.00717113 26 102 204
-0.0446641 -0.0288656 -0.0301419 26 102 204
-0.02204 -0.0317594 -0.0358733 26 102 204
-0.0397347 -0.0317747 -0.0242627 26 102 204
0.00755653 -0.0288537 -0.0241506 26 102 204
0.0136481 -0.0282051 -0.0143124 26 102 204
-0.00809871 -0.0352527 -0.0188551 26 102 204
-0.0526922 -0.0310478 -0.0233766 26 102 204
0.00371377 -0.0317416 -0.0291379 26 102 204
-0.0278198 -0.0310517 -0.0254112 26 102 204
-0.0226803 -0.0273716 -0.0115129 26 102 204
-0.0444296 -0.0323938 -0.0229724 26 102 204
-0.0218081 -0.0314408 -0.0363626 26 102 204
-0.0618294 -0.0323062 -0.0260763 26 102 204
-0.0223138 -0.034225 -0.0228723 26 102 204
-0.0375552 -0.0331765 -0.0257922 26 102 204
0.0262511 -0.0308751 -0.024211 26 102 204
-0.0131446 -0.0334106 -0.00762556 26 102 204
-0.015157 -0.0328713 -0.0390928 26 102 204
-0.0111022 -0.034525 -0.00852692 26 102 204
-0.0100759 -0.0285412 -0.018088 26 102 204
-0.0242149 -0.0338844 -0.0416214 26 102 204
-0.00163285 -0.0318165 -0.0257344 26 102 204
-0.0371371 -0.0377951 -0.0255395 26 102 204
-0.0169737 -0.0378823 -0.0152911 26 102 204
-0.0502523 -0.0342385 -0.0284364 26 102 204
-0.0341339 -0.0399417 -0.0129232 26 102 204
-0.00326998 -0.0344962 -0.0101093 26 102 204
-0.0990518 -0.0397847 -0.00701253 26 102 204
-0.0179416 -0.0404583 -0.0187334 26 102 204
-0.0645596 -0.0405238 -0.0155327 26 102 204
-0.0263899 -0.0397894 -0.0407494 26 102 204
-0.0829284 -0.0428116 -0.0155353 26 102 204
-0.0396166 -0.0414798 -0.0105925 26 102 204
-0.0305543 -0.0399657 -0.0332605 26 102 204
-0.0470754 -0.0409107 0.00284041 26 102 204
-0.035725 -0.0421052 -0.0203648 26 102 204
-0.0442769 -0.0431076 -0.0112355 26 102 204
-0.0628713 -0.0420954 -0.0200865 26 102 204
-0.00907167 -0.0430354 -0.0242594 26 102 204
-0.0800194 -0.0442131 -0.0149048 26 102 204
-0.0485437 -0.0442381 -0.0146942 26 102 204
-0.0181553 -0.0439475 -0.0146623 26 102 204
-0.0222584 -0.0450395 -0.0127057 26 102 204
-0.0414866 -0.0458019 -0.0185049 26 102 204
-0.00022381 -0.0431295 -0.0287961 26 102 204
-0.115684 -0.0476013 -0.00885842 26 102 204
-0.0361121 -0.047453 -0.0118197 26 102 204
-0.0637703 -0.0474471 -0.0135593 26 102 204
0.00941056 -0.0448474 -0.0102771 26 102 204
-0.0860356 -0.0479423 -0.00732657 26 102 204
-0.0414153 -0.0488957 -0.0216919 26 102 204
-0.0860235 -0.0479542 -0.0110395 26 102 204
-0.063203 -0.0491157 -0.0129604 26 102 204
-0.0551433 -0.0514647 -0.0160769 26 102 204
-0.0189688 -0.0483832 -0.00474891 26 102 204
-0.0580884 -0.0465427 -0.0119831 26 102 204
-0.0100886 -0.0490024 0.00947639 26 102 204
-0.0192665 -0.048539 -0.000540009 26 102 204
-0.0366666 -0.0527726 -0.005888 26 102 204
-0.0652752 -0.0558417 -0.0108282 26 102 204
-0.0322578 -0.0527213 -0.00174203 26 102 204
-0.0132376 -0.0559965 -0.00790093 26 102 204
-0.0449254 -0.0527229 -0.00369174 26 102 204
-0.0398851 -0.0556718 -0.0201327 26 102 204
-9.68964e-05 -0.0528672 0.00364625 26 102 204
-0.0400524 -0.0602987 -0.0190109 26 102 204
-0.0212319 -0.0574586 -0.00310372 26 102 204
-0.0265849 -0.0590943 -0.0149156 26 102 204
-0.0528056 -0.0592041 -0.0110386 26 102 204
-0.013162 -0.058939 -0.00907278 26 102 204
-0.0416529 -0.0620557 -0.0125333 26 102 204
-0.0589133 -0.0636193 -0.00554655 26 102 204
-0.0253792 -0.0599915 -0.0174679 26 102 204
-0.0167145 -0.0618717 -0.00213687 26 102 204
-0.0403647 -0.0636609 0.0122402 26 102 204
-0.0667116 -0.0670152 -0.0046669 26 102 204
-0.0532257 -0.0648434 -0.00140287 26 102 204
-0.0974818 -0.0659216 -0.00592228 26 102 204
-0.0237211 -0.0652721 -0.00149865 26 102 204
-0.0672922 -0.0679489 0.00761721 26 102 204
-0.00117119 -0.0666604 -0.0088505 26 102 204
-0.01646 -0.0677063 -0.0103326 26 102 204
-0.0384088 -0.0682571 -0.00848172 26 102 204
-0.0485844 -0.0678241 -0.0149738 26 102 204
-0.0646679 -0.069858 -0.00539027 26 102 204
-0.0169433 -0.068209 0.00249932 26 102 204
-0.0292409 -0.0706912 -0.0187022 26 102 204
-0.087121 -0.071265 -0.00882255 26 102 204
-0.0948017 -0.0721887 0.00301697 26 102 204
-0.0249019 -0.0726215 -0.0197803 26 102 204
-0.0307174 -0.0712513 0.0182448 26 102 204
-0.0698803 -0.0735838 0.0127889 26 102 204
-0.110442 -0.0748429 0.00238106 26 102 204
-0.0931049 -0.0725678 0.00537607 26 102 204
-0.0107209 -0.0742784 0.00945814 26 102 204
-0.0387784 -0.0742578 0.0038003 26 102 204
-0.055456 -0.0760877 -0.00619086 26 102 204
-0.0437702 -0.0764419 -0.0011472 26 102 204
-0.0680224 -0.0721423 0.011464 26 102 204
-0.0778451 -0.0763618 0.000774011 26 102 204
-0.0418287 -0.0760605 -0.0176002 26 102 204
-0.0292772 -0.0784332 0.00626627 26 102 204
-0.0442552 -0.0747741 -0.0109258 26 102 204
-0.0433428 -0.0788639 0.0114707 26 102 204
-0.0624574 -0.076808 -0.0143229 26 102 204
-0.0682821 -0.0777906 -0.00596116 26 102 204
-0.043112 -0.0731284 -0.0393078 26 102 204
-0.0263944 -0.08032 0.0278216 26 102 204
-0.0521321 -0.0812149 0.0152211 26 102 204
-0.0326187 -0.0789001 -0.0272871 26 102 204
-0.0739039 -0.0643731 0.0158801 26 102 204
-0.0566578 -0.0827991 0.0199955 26 102 204
-0.0518199 -0.0837714 -0.0076899 26 102 204
-0.104392 -0.0830836 0.00680494 26 102 204
-0.0947573 -0.0845971 0.0143355 26 102 204
-0.0564373 -0.084911 0.0234257 26 102 204
-0.034886 -0.0869575 0.00309957 26 102 204
-0.0538543 -0.0870728 0.00674202 26 102 204
-0.0380304 -0.0843318 -0.0344723 26 102 204
-0.0781114 -0.0922583 0.012463 26 102 204
-0.0931936 -0.0902414 0.0133164 26 102 204
-0.0714746 -0.0885515 0.00219644 26 102 204
-0.0184892 -0.0899623 0.0167874 26 102 204
-0.0976289 -0.0865699 0.00136818 26 102 204
-0.025336 -0.0896907 -0.00573896 26 102 204
-0.10562 -0.0924129 0.014198 26 102 204
-0.0935011 -0.0922482 0.0048172 26 102 204
-0.120363 -0.0937094 0.0125415 26 102 204
-0.0467345 -0.0948017 0.0164919 26 102 204
-0.0838725 -0.0951994 0.0202714 26 102 204
-0.0549994 -0.0939256 -0.00693868 26 102 204
-0.0853801 -0.0959519 0.0143728 26 102 204
-0.0245038 -0.0922433 0.0109206 26 102 204
-0.0594571 -0.0934024 -0.0113553 26 102 204
-0.0337907 -0.0922863 0.0173311 26 102 204
-0.0262201 -0.0937132 0.0133439 26 102 204
-0.058515 -0.0958661 0.0130167 26 102 204
-0.0636215 -0.0968284 0.0148218 26 102 204
-0.0353148 -0.09721 0.0135493 26 102 204
-0.0216405 -0.0969765 0.0186763 26 102 204
-0.115908 -0.0966203 0.0133843 26 102 204
-0.049909 -0.099874 -0.00966413 26 102 204
-0.0370155 -0.101353 0.00347204 26 102 204
-0.0746156 -0.10318 0.0208316 26 102 204
-0.00473004 -0.10047 0.0245919 26 102 204
-0.0730958 -0.101221 0.0176221 26 102 204
-0.042564 -0.10064 0.0245872 26 102 204
-0.0686669 -0.10228 0.00236468 26 102 204
-0.0260269 -0.101656 0.0235132 26 102 204
-0.0615798 -0.101373 -0.00133627 26 102 204
-0.111778 -0.106408 0.00505087 26 102 204
-0.0360794 -0.102315 0.00371351 26 102 204
-0.0741517 -0.103182 0.00480755 26 102 204
-0.0550695 -0.104311 0.0155489 26 102 204
-0.0488045 -0.105449 -0.00442667 26 102 204
-0.0283512 -0.106224 0.0180044 26 102 204
-0.10666 -0.10542 0.0158175 26 102 204
-0.0696445 -0.107846 0.0161927 26 102 204
-0.0633845 -0.110688 -0.00992935 26 102 204
-0.0178793 -0.110793 0.0224147 26 102 204
-0.107701 -0.104529 0.0166576 26 102 204
-0.0677562 -0.109746 0.00587711 26 102 204
-0.0541247 -0.110184 0.00369054 26 102 204
-0.0532261 -0.109343 -0.00176538 26 102 204
-0.0278234 -0.112186 0.023954 26 102 204
-0.0462368 -0.113991 0.00122852 26 102 204
-0.0997867 -0.108118 0.00992317 26 102 204
-0.0458958 -0.112667 0.0156957 26 102 204
-0.100598 -0.1121 0.0285117 26 102 204
-0.0436965 -0.111148 0.0142693 26 102 204
-0.0584656 -0.111715 0.0158342 26 102 204
-0.091134 -0.115181 0.022196 26 102 204
-0.031191 -0.115598 0.0234449 26 102 204
-0.0133025 -0.113937 0.0244921 26 102 204
-0.0557591 -0.116603 0.00513394 26 102 204
-0.0674656 -0.109961 0.00227618 26 102 204
-0.0150386 -0.1149 0.00607618 26 102 204
-0.0571871 -0.113773 0.00913238 26 102 204
-0.0660795 -0.116077 0.020477 26 102 204
-0.0566837 -0.117315 0.028378 26 102 204
-0.104185 -0.116839 0.0150579 26 102 204
-0.0903443 -0.120409 0.00387555 26 102 204
-0.070829 -0.116277 0.0275305 26 102 204
-0.0388477 -0.117475 0.02357 26 102 204
-0.0795771 -0.115331 0.0200644 26 102 204
-0.0650027 -0.115101 -4.2361e-05 26 102 204
-0.103379 -0.11811 0.0213461 26 102 204
-0.0893841 -0.120084 0.0116765 26 102 204
-0.0766553 -0.108962 0.0103473 26 102 204
-0.078151 -0.118107 0.0140025 26 102 204
-0.040465 -0.118126 0.0257499 26 102 204
-0.0625343 -0.119772 0.0199344 26 102 204
-0.100386 -0.118681 0.00342666 26 102 204
-0.120033 -0.12005 0.014525 26 102 204
-0.0563756 -0.119957 0.016737 26 102 204
-0.0465133 -0.119634 0.0163648 26 102 204
-0.0725041 -0.119147 0.00312382 26 102 204
-0.0848472 -0.121365 0.0067063 26 102 204
-0.103925 -0.117884 0.0179199 26 102 204
-0.0269057 -0.119968 0.0114225 26 102 204
-0.064755 -0.119751 0.0204191 26 102 204
-0.0605368 -0.125079 0.0274454 26 102 204
-0.0624583 -0.123004 0.00471567 26 102 204
-0.0533661 -0.124942 0.0145876 26 102 204
-0.074115 -0.121488 0.0160988 26 102 204
-0.107301 -0.124067 0.0156009 26 102 204
-0.062716 -0.123881 0.00523228 26 102 204
-0.0461849 -0.1248 0.0196861 26 102 204
-0.0827928 -0.123551 0.0243555 26 102 204
-0.058865 -0.125778 -0.00694659 26 102 204
-0.0256078 -0.124239 0.0169866 26 102 204
-0.0274618 -0.127526 0.0131437 26 102 204
-0.0301258 -0.125371 0.00585849 26 102 204
-0.0526606 -0.126187 0.004548 26 102 204
-0.0230854 -0.125895 0.00580367 26 102 204
-0.10161 -0.126954 0.0251852 26 102 204
-0.0522071 -0.125684 0.018185 26 102 204
-0.0887445 -0.123612 0.0245221 26 102 204
-0.113678 -0.127972 0.0161257 26 102 204
-0.0939273 -0.130026 0.0247953 26 102 204
-0.0978061 -0.130202 0.0101411 26 102 204
-0.00670708 -0.12841 0.00529247 26 102 204
-0.0208207 -0.127415 0.0142199 26 102 204
-0.104898 -0.127982 0.0172852 26 102 204
-0.0899601 -0.126364 0.0167907 26 102 204
-0.0462003 -0.126452 0.0122784 26 102 204
-0.0564468 -0.12837 0.0109958 26 102 204
-0.0909173 -0.128512 0.0133945 26 102 204
-0.0439995 -0.129192 0.0104714 26 102 204
-0.113733 -0.129725 0.0180959 26 102 204
-0.0799418 -0.130428 0.0267373 26 102 204
-0.0736715 -0.128844 0.0215578 26 102 204
-0.0862644 -0.134812 0.0329044 26 102 204
-0.0865245 -0.129556 0.0264238 26 102 204
-0.0306739 -0.129815 0.0271095 26 102 204
-0.0267602 -0.131827 0.00521015 26 102 204
-0.0496482 -0.130433 0.0152131 26 102 204
-0.0636963 -0.132617 0.0149342 26 102 204
-0.0650143 -0.130169 0.0135546 26 102 204
-0.0635979 -0.131947 0.0251076 26 102 204
-0.05483 -0.133255 0.0105967 26 102 204
-0.102521 -0.132556 0.0160115 26 102 204
-0.0575092 -0.134554 0.0123236 26 102 204
-0.0794772 -0.132007 0.0128141 26 102 204
-0.085849 -0.13419 0.0125693 26 102 204
-0.0565936 -0.135959 0.0209335 26 102 204
-0.0159635 -0.137981 0.0109877 26 102 204
-0.042241 -0.136699 0.0169989 26 102 204
-0.0593978 -0.136335 0.0309409 26 102 204
-0.0483484 -0.139597 0.0233137 26 102 204
-0.104677 -0.125347 0.0171971 26 102 204
-0.102037 -0.130123 0.0227223 26 102 204
-0.119194 -0.126015 0.0214552 26 102 204
-0.0306645 -0.136958 0.0137191 26 102 204
-0.112298 -0.148207 0.0282358 26 102 204
-0.0730572 -0.139262 0.00984682 26 102 204
-0.109854 -0.139455 0.0218487 26 102 204
-0.0903545 -0.142834 0.0237114 26 102 204
-0.105385 -0.142111 0.0331177 26 102 204
-0.0457401 -0.139594 0.0223847 26 102 204
-0.102671 -0.142495 0.0179397 26 102 204
-0.0851094 -0.142212 0.0283888 26 102 204
-0.0702984 -0.141696 -0.000716895 26 102 204
-0.0513672 -0.143273 0.0150674 26 102 204
-0.119498 -0.142019 0.0213594 26 102 204
-0.100146 -0.135508 0.0179481 26 102 204
-0.0731085 -0.143294 0.0146826 26 102 204
-0.0493185 -0.152352 0.0188146 26 102 204
-0.0366209 -0.149733 0.0104186 26 102 204
-0.115554 -0.149813 0.0234036 26 102 204
-0.0474482 -0.148742 0.0154857 26 102 204
-0.0401306 -0.148051 0.014462 26 102 204
-0.0556934 -0.147462 0.0272645 26 102 204
-0.0775112 -0.153738 0.0216835 26 102 204
-0.0711482 -0.151779 0.01361 26 102 204
-0.0462644 -0.152218 0.0206435 26 102 204
-0.115016 -0.150895 0.0190152 26 102 204
-0.041308 -0.15392 0.00931131 26 102 204
-0.0952132 -0.148266 0.0174614 26 102 204
-0.114773 -0.166887 0.0206429 26 102 204
-0.105268 -0.149365 0.0229204 26 102 204
-0.0990952 -0.159367 0.0265901 26 102 204
-0.0327978 -0.147309 0.0150246 26 102 204
-0.0658186 -0.159483 0.0254986 26 102 204
-0.0934354 -0.158529 0.0193041 26 102 204
-0.0618028 -0.161244 0.0134732 26 102 204
-0.0863866 -0.140603 0.0115097 26 102 204
-0.110461 -0.152002 0.0191981 26 102 204
-0.0639204 -0.166652 0.00948914 26 102 204
-0.0519214 -0.16219 0.0146661 26 102 204
-0.0496237 -0.166687 0.0105507 26 102 204
-0.085536 -0.165877 0.0183048 26 102 204
-0.0742864 -0.165132 0.0151207 26 102 204
-0.0922989 -0.168704 0.0203414 26 102 204
-0.0509865 -0.13179 0.00958965 26 102 204
-0.0736915 -0.175436 0.0248479 26 102 204
-0.0933039 -0.171655 0.0237799 26 102 204
-0.0935047 -0.174898 0.0248223 26 102 204
-0.0588926 -0.171447 0.0160116 26 102 204
-0.0426979 -0.180403 0.0142848 26 102 204
-0.0960594 -0.182179 0.0260922 26 102 204
-0.0417607 -0.180982 0.0147251 26 102 204
-0.0466111 -0.180713 0.0122742 26 102 204
-0.044395 -0.186555 0.00191869 26 102 204
-0.0603702 -0.193709 0.010215 26 102 204
-0.0567407 -0.182405 0.0128621 26 102 204
-0.0472628 -0.190873 0.0143638 26 102 204
-0.0447727 -0.188128 0.0142928 26 102 204
-0.0401814 -0.196606 0.016241 26 102 204
-0.0670775 -0.195329 0.0104525 26 102 204
-0.0573016 -0.196452 0.0182835 26 102 204
-0.0536763 -0.1919 0.0141166 26 102 204
-0.0568637 -0.199472 0.0175863 26 102 204
-0.0506532 -0.194106 0.0137351 26 102 204
-0.0393475 -0.195604 0.0119801 26 102 204
-0.0692278 -0.19996 0.0184613 26 102 204
-0.05133 -0.19784 0.0135452 26 102 204
-0.0480688 -0.202607 0.0146492 26 102 204
-0.0524229 -0.210271 0.0152454 26 102 204
-0.0505926 -0.209372 0.0129199 26 102 204
-0.0700278 -0.214129 0.0189623 26 102 204
-0.0634788 -0.209372 0.0150206 26 102 204
-0.0402376 -0.21319 0.00927634 26 102 204
-0.0585396 -0.218663 0.0179784 26 102 204
-0.0572226 -0.212929 0.016139 26 102 204
-0.0693802 -0.227773 0.0172069 26 102 204
-0.0648551 -0.220848 0.0185032 26 102 204
-0.0763625 -0.235047 0.0177223 26 102 204
-0.0646502 -0.227722 0.0173305 26 102 204
-0.0693518 -0.229481 0.0150357 26 102 204
-0.0693164 -0.237128 0.0175757 26 102 204
-0.0581955 -0.236562 0.0129954 26 102 204
-0.0716931 -0.236529 0.0134765 26 102 204
-0.0816762 -0.247926 0.012336 26 102 204
