ply
format ascii 1.0
comment Created by Open3D
element vertex 1024
property double x
property double y
property double z
property uchar red
property uchar green
property uchar blue
end_header
-0.504726 0.218346 0.00836401 26 102 204
-0.497302 0.253739 0.022619 26 102 204
-0.49849 0.233981 0.0707026 26 102 204
-0.500886 0.226397 -0.305104 26 102 204
-0.497584 0.208948 -0.343138 26 102 204
-0.501322 0.207507 0.40598 26 102 204
-0.494931 0.203222 -0.0463171 26 102 204
-0.491188 0.209661 0.111533 26 102 204
-0.49178 0.194458 0.324727 26 102 204
-0.504875 0.175418 0.186651 26 102 204
-0.538883 -0.178465 -0.190263 26 102 204
-0.504639 0.222907 -0.12534 26 102 204
-0.493338 0.207217 0.06346 26 102 204
-0.489159 0.162708 -0.275035 26 102 204
-0.514517 -0.0180445 -0.320211 26 102 204
-0.487804 0.170823 -0.241678 26 102 204
-0.488432 0.181735 -0.217297 26 102 204
-0.492148 0.19927 -0.364258 26 102 204
-0.519093 -0.188363 -0.131119 26 102 204
-0.509864 -0.090245 0.238676 26 102 204
-0.517449 -0.129872 0.350507 26 102 204
-0.483677 0.185497 0.37081 26 102 204
-0.487896 0.160852 0.192709 26 102 204
-0.475212 0.195735 0.267276 26 102 204
-0.476973 0.196671 0.180377 26 102 204
-0.485005 0.156665 0.39396 26 102 204
-0.512614 -0.120224 0.390639 26 102 204
-0.4858 0.206906 -0.31698 26 102 204
-0.504118 -0.030168 0.320792 26 102 204
-0.481872 0.138948 0.259222 26 102 204
-0.482701 0.113377 0.383717 26 102 204
-0.495301 -0.0469793 0.25471 26 102 204
-0.486656 0.0635242 0.267134 26 102 204
-0.514943 -0.234216 -0.286473 26 102 204
-0.500539 -0.0882564 -0.229744 26 102 204
-0.492691 -0.121014 0.0770147 26 102 204
-0.471316 0.171321 -0.14219 26 102 204
-0.46598 0.157639 0.272753 26 102 204
-0.510112 -0.150639 -0.114015 26 102 204
-0.500184 -0.0757495 0.279696 26 102 204
-0.49539 -0.088753 0.195238 26 102 204
-0.502866 -0.161983 0.0191223 26 102 204
-0.484025 0.062162 -0.193896 26 102 204
-0.485713 -0.0188571 -0.323277 26 102 204
-0.468056 0.182905 0.251524 26 102 204
-0.469737 0.194683 0.162122 26 102 204
-0.465571 0.182543 0.057737 26 102 204
-0.465087 0.173494 0.0291091 26 102 204
-0.471436 0.165764 0.296708 26 102 204
-0.489035 0.158636 -0.275908 26 102 204
-0.464082 0.15598 0.212861 26 102 204
-0.45701 0.213991 0.430451 26 102 204
-0.490768 -0.00608211 0.366253 26 102 204
-0.510341 -0.235169 0.027679 26 102 204
-0.476212 0.142613 -0.0745153 26 102 204
-0.500989 -0.164714 0.181833 26 102 204
-0.483095 0.0919524 -0.25988 26 102 204
-0.465987 0.163451 0.0198166 26 102 204
-0.459827 0.199855 0.343001 26 102 204
-0.460168 0.186195 0.200347 26 102 204
-0.456903 0.203886 -0.204879 26 102 204
-0.516172 -0.256255 -0.475663 26 102 204
-0.504996 -0.204731 -0.106352 26 102 204
-0.466567 0.192004 -0.0824181 26 102 204
-0.502032 -0.24807 -0.0118747 26 102 204
-0.465364 0.174686 0.123137 26 102 204
-0.465419 0.12518 -0.30038 26 102 204
-0.457443 0.158857 -0.39642 26 102 204
-0.454218 0.20117 0.306004 26 102 204
-0.444271 0.238857 -0.308298 26 102 204
-0.460437 0.135258 -0.176345 26 102 204
-0.454759 0.170222 -0.266829 26 102 204
-0.492877 -0.150826 0.407375 26 102 204
-0.445995 0.193768 0.22756 26 102 204
-0.447809 0.2172 -0.381689 26 102 204
-0.442657 0.222707 -0.403457 26 102 204
-0.469328 -0.0315464 -0.149174 26 102 204
-0.446652 0.163308 -0.46015 26 102 204
-0.450071 0.143947 0.119476 26 102 204
-0.439078 0.200416 -0.406617 26 102 204
-0.43454 0.211842 -0.0010383 26 102 204
-0.4848 -0.163129 0.356153 26 102 204
-0.490981 -0.237352 0.393958 26 102 204
-0.467277 -0.0395598 0.0196934 26 102 204
-0.445856 0.133749 0.0805528 26 102 204
-0.455958 0.0223713 -0.13997 26 102 204
-0.445329 0.0794165 0.33567 26 102 204
-0.465986 -0.0421785 0.0337738 26 102 204
-0.456718 -0.048657 -0.192783 26 102 204
-0.479607 -0.174614 0.378558 26 102 204
-0.426277 0.200797 0.309862 26 102 204
-0.450294 0.0940205 0.402029 26 102 204
-0.43136 0.222077 0.314482 26 102 204
-0.465651 -0.0770707 -0.110768 26 102 204
-0.42791 0.203994 0.0501902 26 102 204
-0.458648 -0.092473 -0.15821 26 102 204
-0.476741 -0.244472 -0.282807 26 102 204
-0.482344 -0.255482 0.345399 26 102 204
-0.476024 -0.254684 -0.0445599 26 102 204
-0.445861 0.0514268 0.310575 26 102 204
-0.458212 -0.0931232 0.267724 26 102 204
-0.440329 0.0643324 -0.0910603 26 102 204
-0.436893 0.0786873 -0.00504802 26 102 204
-0.472103 -0.278645 -0.047644 26 102 204
-0.473468 -0.250822 -0.0333623 26 102 204
-0.425037 0.190101 -0.179983 26 102 204
-0.467739 -0.217607 0.289888 26 102 204
-0.467684 -0.237555 0.0640208 26 102 204
-0.424244 0.18383 0.372334 26 102 204
-0.454595 -0.154216 -0.269569 26 102 204
-0.455715 -0.197054 -0.270154 26 102 204
-0.421285 0.21283 -0.115471 26 102 204
-0.43918 0.0430649 0.330846 26 102 204
-0.468437 -0.225672 0.0553799 26 102 204
-0.460773 -0.187779 -0.298882 26 102 204
-0.465644 -0.229081 -0.291764 26 102 204
-0.460714 -0.197077 -0.424023 26 102 204
-0.417911 0.199252 0.0550266 26 102 204
-0.470012 -0.255596 0.401131 26 102 204
-0.421756 0.139521 0.187504 26 102 204
-0.439533 -0.0223567 0.136619 26 102 204
-0.448885 -0.115354 -0.153114 26 102 204
-0.444396 -0.0401384 -0.109473 26 102 204
-0.454482 -0.188703 -0.194108 26 102 204
-0.432246 -0.00885786 -0.141941 26 102 204
-0.415054 0.156916 -0.116425 26 102 204
-0.435196 0.00671215 -0.072528 26 102 204
-0.435097 -0.0967406 0.243098 26 102 204
-0.450446 -0.203827 -0.0791675 26 102 204
-0.42681 0.0624712 0.140897 26 102 204
-0.450523 -0.152049 -0.249764 26 102 204
-0.415647 0.151143 0.0155548 26 102 204
-0.423287 0.127504 -0.198669 26 102 204
-0.411748 0.211121 -0.220341 26 102 204
-0.454943 -0.250843 0.158243 26 102 204
-0.42265 0.0977133 0.323289 26 102 204
-0.456185 -0.208119 -0.396358 26 102 204
-0.411146 0.155764 -0.141083 26 102 204
-0.437553 -0.0945491 -0.229779 26 102 204
-0.41979 0.0393651 0.379638 26 102 204
-0.41896 0.0732194 -0.195336 26 102 204
-0.449419 -0.173404 0.386809 26 102 204
-0.426371 0.00659579 0.311917 26 102 204
-0.417466 0.0780876 -0.20028 26 102 204
-0.429781 -0.0368979 -0.194632 26 102 204
-0.437074 -0.0870003 -0.17944 26 102 204
-0.450002 -0.222845 -0.4263 26 102 204
-0.415728 0.188191 0.0717904 26 102 204
-0.432915 -0.103303 0.272764 26 102 204
-0.421705 0.0479524 0.29624 26 102 204
-0.396061 0.208069 0.268242 26 102 204
-0.397822 0.163945 -0.429066 26 102 204
-0.429969 -0.137859 -0.176077 26 102 204
-0.395818 0.184882 -0.277971 26 102 204
-0.436115 -0.19231 -0.251887 26 102 204
-0.423519 -0.136403 0.115193 26 102 204
-0.387671 0.186744 0.204827 26 102 204
-0.431244 -0.193137 -0.4433 26 102 204
-0.444566 -0.32853 -0.0147085 26 102 204
-0.418856 -0.16232 0.0977497 26 102 204
-0.411402 -0.0403084 0.388264 26 102 204
-0.392787 0.183962 -0.0594608 26 102 204
-0.428346 -0.26807 -0.124082 26 102 204
-0.378191 0.209735 0.138253 26 102 204
-0.420048 -0.14972 0.40838 26 102 204
-0.420517 -0.191741 0.158993 26 102 204
-0.407026 -0.153251 0.30332 26 102 204
-0.365614 0.188838 -0.257164 26 102 204
-0.361299 0.209957 0.0451297 26 102 204
-0.367339 0.188291 -0.0431436 26 102 204
-0.407381 -0.195444 0.237575 26 102 204
-0.37347 0.231927 0.249402 26 102 204
-0.360315 0.191271 -0.211246 26 102 204
-0.368594 0.216181 0.156967 26 102 204
-0.394299 -0.117079 0.393555 26 102 204
-0.39729 -0.14739 0.357275 26 102 204
-0.354745 0.160183 0.397931 26 102 204
-0.393173 -0.162635 0.133281 26 102 204
-0.352039 0.208161 -0.095775 26 102 204
-0.35582 0.167856 -0.0284204 26 102 204
-0.348959 0.173694 0.207474 26 102 204
-0.35703 0.171537 0.381344 26 102 204
-0.34241 0.191621 -0.223789 26 102 204
-0.353964 0.198487 -0.311785 26 102 204
-0.346806 0.163584 -0.0174659 26 102 204
-0.342798 0.203677 0.319547 26 102 204
-0.339988 0.185783 -0.318706 26 102 204
-0.336707 0.182218 0.0848443 26 102 204
-0.383476 -0.305036 0.055634 26 102 204
-0.369928 -0.16461 -0.0992152 26 102 204
-0.377204 -0.242009 -0.0826144 26 102 204
-0.369386 -0.169855 -0.119382 26 102 204
-0.319419 0.21077 0.270492 26 102 204
-0.313728 0.204265 -0.260145 26 102 204
-0.318496 0.19449 0.39054 26 102 204
-0.321585 0.2049 0.020484 26 102 204
-0.358378 -0.189223 0.18945 26 102 204
-0.314845 0.194249 -0.439951 26 102 204
-0.333047 0.0963374 -0.270464 26 102 204
-0.372297 -0.141145 0.285279 26 102 204
-0.304883 0.212038 -0.284328 26 102 204
-0.347461 -0.123488 0.18052 26 102 204
-0.350478 -0.206118 0.317822 26 102 204
-0.339786 -0.179696 -0.06404 26 102 204
-0.301284 0.19221 -0.247685 26 102 204
-0.298733 0.198202 -0.400036 26 102 204
-0.304348 0.173303 -0.0104039 26 102 204
-0.293186 0.210577 0.199247 26 102 204
-0.336859 -0.212669 -0.0766604 26 102 204
-0.294371 0.163604 0.0919637 26 102 204
-0.288266 0.183085 -0.440991 26 102 204
-0.283046 0.20801 -0.129405 26 102 204
-0.294585 0.166737 -0.464728 26 102 204
-0.282962 0.182366 -0.220509 26 102 204
-0.311908 -0.168693 0.199866 26 102 204
-0.2774 0.191092 -0.476518 26 102 204
-0.272095 0.217278 -0.461616 26 102 204
-0.334108 -0.238737 0.0433846 26 102 204
-0.340271 -0.288367 0.000401631 26 102 204
-0.274576 0.198822 0.324452 26 102 204
-0.267746 0.221256 -0.157213 26 102 204
-0.336702 -0.319322 -0.0821246 26 102 204
-0.341485 -0.33678 -0.0166655 26 102 204
-0.321526 -0.277841 0.0284682 26 102 204
-0.286445 0.211997 0.3839 26 102 204
-0.318551 -0.296232 0.390465 26 102 204
-0.271114 0.173585 0.198514 26 102 204
-0.26572 0.197261 -0.00640703 26 102 204
-0.267599 0.209661 -0.338 26 102 204
-0.309118 -0.20647 0.370772 26 102 204
-0.303448 -0.195583 0.326005 26 102 204
-0.260148 0.202371 -0.255336 26 102 204
-0.262222 0.177865 -0.349737 26 102 204
-0.25816 0.177198 -0.0167595 26 102 204
-0.271583 0.179345 -0.249609 26 102 204
-0.25337 0.190932 0.0391573 26 102 204
-0.259697 0.170078 0.320962 26 102 204
-0.253058 0.169064 -0.0881153 26 102 204
-0.257085 0.176558 -0.431915 26 102 204
-0.28411 -0.208448 0.285893 26 102 204
-0.282904 -0.201423 -0.069631 26 102 204
-0.242715 0.191733 -0.278094 26 102 204
-0.234714 0.170082 -0.112117 26 102 204
-0.268685 0.219417 -0.427431 26 102 204
-0.237132 0.175992 0.133261 26 102 204
-0.282699 -0.236843 0.34501 26 102 204
-0.264385 -0.180233 0.343895 26 102 204
-0.272979 -0.18863 -0.00945881 26 102 204
-0.225023 0.189565 -0.39654 26 102 204
-0.222669 0.179772 -0.298136 26 102 204
-0.222807 0.189659 -0.0820161 26 102 204
-0.211164 0.183835 0.091186 26 102 204
-0.205423 0.176319 -0.0159209 26 102 204
-0.267806 -0.346317 -0.070461 26 102 204
-0.245664 -0.172099 -0.0629521 26 102 204
-0.243731 -0.171102 -0.0951472 26 102 204
-0.246771 -0.124128 -0.144184 26 102 204
-0.23971 -0.169997 -0.038531 26 102 204
-0.234577 -0.10648 0.10391 26 102 204
-0.230041 -0.101531 -0.042425 26 102 204
-0.229327 -0.0715973 0.194345 26 102 204
-0.222956 -0.0427211 0.194537 26 102 204
-0.223287 -0.0466717 0.102146 26 102 204
-0.222297 -0.0350316 0.162799 26 102 204
-0.220772 -0.031424 0.106953 26 102 204
-0.212856 -0.0186569 0.339376 26 102 204
-0.203155 0.192475 -0.0347393 26 102 204
-0.197399 0.20395 0.18164 26 102 204
-0.228237 0.187432 0.0818589 26 102 204
-0.242543 -0.128448 0.340646 26 102 204
-0.203237 0.173366 -0.0658444 26 102 204
-0.195419 0.173058 -0.130779 26 102 204
-0.215101 0.0324326 -0.0931319 26 102 204
-0.233812 -0.0770562 0.15631 26 102 204
-0.214149 0.0377526 0.184514 26 102 204
-0.212497 0.029756 -0.0951484 26 102 204
-0.210899 0.0841007 -0.0792823 26 102 204
-0.218557 0.0199606 -0.0369921 26 102 204
-0.208446 0.0738745 0.079237 26 102 204
-0.218453 -0.0498782 -0.00307002 26 102 204
-0.220095 -0.0503347 0.0770678 26 102 204
-0.206017 0.0860368 0.0804598 26 102 204
-0.202028 0.0706359 0.198712 26 102 204
-0.203449 0.0821766 0.198581 26 102 204
-0.201426 0.108809 0.0604283 26 102 204
-0.191692 0.189114 0.329721 26 102 204
-0.202447 0.0812213 -0.0893298 26 102 204
-0.189001 0.199863 0.0975256 26 102 204
-0.191137 0.187631 0.323603 26 102 204
-0.203236 0.0611183 0.366099 26 102 204
-0.197871 0.131385 0.368262 26 102 204
-0.196292 0.180816 -0.327719 26 102 204
-0.198276 0.15134 0.333064 26 102 204
-0.206514 0.0653466 0.0907408 26 102 204
-0.202982 0.0709156 0.262536 26 102 204
-0.199625 0.0835346 -0.129534 26 102 204
-0.202003 0.0808367 0.169945 26 102 204
-0.199502 0.102087 0.108359 26 102 204
-0.195733 0.114533 0.271909 26 102 204
-0.193647 0.13917 -0.0576394 26 102 204
-0.196209 0.112154 0.210493 26 102 204
-0.193688 0.139162 -0.108941 26 102 204
-0.198686 0.130134 0.11304 26 102 204
-0.197345 0.122131 -0.0668027 26 102 204
-0.202868 0.108919 -0.0104049 26 102 204
-0.193981 0.165551 0.0916383 26 102 204
-0.193792 0.162139 0.0934835 26 102 204
-0.191611 0.160435 -0.427514 26 102 204
-0.198789 0.174872 -0.366133 26 102 204
-0.258684 -0.341352 0.0398734 26 102 204
-0.226011 -0.0919397 0.0696829 26 102 204
-0.222679 -0.0961309 0.128162 26 102 204
-0.227545 -0.0805349 -0.168622 26 102 204
-0.22081 -0.0831736 -0.0203052 26 102 204
-0.217165 -0.057349 0.10367 26 102 204
-0.238844 -0.107993 0.1731 26 102 204
-0.215315 -0.0670616 0.261515 26 102 204
-0.20967 0.00152315 -0.0920712 26 102 204
-0.21409 -0.0416901 -0.0209831 26 102 204
-0.212091 0.0130867 0.0611177 26 102 204
-0.209171 0.00836708 -0.0522995 26 102 204
-0.210842 0.00767932 -0.142083 26 102 204
-0.211704 -0.0294963 -0.111802 26 102 204
-0.194964 0.114645 0.00570075 26 102 204
-0.216354 -0.074634 -0.0947494 26 102 204
-0.201299 0.0932856 -0.0301887 26 102 204
-0.203205 0.0279376 0.126095 26 102 204
-0.187987 0.1849 -0.142896 26 102 204
-0.188355 0.144115 0.0684802 26 102 204
-0.224917 -0.177703 0.0587243 26 102 204
-0.186258 0.177031 -0.0326928 26 102 204
-0.187698 0.142337 0.0682575 26 102 204
-0.209139 -0.0379246 -0.100512 26 102 204
-0.18274 0.201274 -0.335772 26 102 204
-0.206609 -0.0264667 0.0318243 26 102 204
-0.221689 -0.259134 0.108622 26 102 204
-0.228639 -0.255441 0.0708606 26 102 204
-0.235677 -0.354959 0.0635511 26 102 204
-0.247033 -0.397563 -0.059692 26 102 204
-0.178758 0.187326 -0.125341 26 102 204
-0.216679 -0.159409 0.0963342 26 102 204
-0.237918 -0.380623 -0.0791168 26 102 204
-0.190845 0.0124399 0.0831292 26 102 204
-0.186633 0.114783 -0.0657117 26 102 204
-0.189417 0.0234613 0.0981985 26 102 204
-0.181115 0.133864 -0.115035 26 102 204
-0.177055 0.160857 -0.00587115 26 102 204
-0.176662 0.140178 0.352133 26 102 204
-0.212681 -0.204754 0.0423298 26 102 204
-0.173712 0.15535 0.238011 26 102 204
-0.171229 0.16811 0.254895 26 102 204
-0.170213 0.167677 -0.385134 26 102 204
-0.188994 -0.0144074 -0.102946 26 102 204
-0.170188 0.169551 -0.466554 26 102 204
-0.163464 0.2177 0.146708 26 102 204
-0.210127 -0.223981 -0.085946 26 102 204
-0.160801 0.181026 -0.433379 26 102 204
-0.185355 -0.0643273 0.0945977 26 102 204
-0.160898 0.180077 -0.0470703 26 102 204
-0.169473 0.0735186 0.0647675 26 102 204
-0.186797 -0.0823739 0.0838254 26 102 204
-0.21575 -0.29523 -0.0924052 26 102 204
-0.184045 -0.0548708 0.0473182 26 102 204
-0.209774 -0.290461 0.0694101 26 102 204
-0.161949 0.138243 -0.00285587 26 102 204
-0.157401 0.177316 -0.156472 26 102 204
-0.159874 0.119831 0.016568 26 102 204
-0.162002 0.0900334 -0.039044 26 102 204
-0.163431 0.140337 -0.0790688 26 102 204
-0.206328 -0.317599 0.285873 26 102 204
-0.150609 0.199354 -0.111925 26 102 204
-0.15199 0.180789 -0.459247 26 102 204
-0.166077 0.0359196 0.0885054 26 102 204
-0.212482 -0.375812 0.337077 26 102 204
-0.159876 0.138233 0.0970203 26 102 204
-0.156131 0.121477 -0.0917039 26 102 204
-0.206685 -0.370967 0.119729 26 102 204
-0.220722 -0.342882 0.0647246 26 102 204
-0.14212 0.189807 0.174756 26 102 204
-0.147294 0.185444 -0.170207 26 102 204
-0.145593 0.161024 0.160821 26 102 204
-0.191478 -0.260631 0.0896959 26 102 204
-0.1412 0.191875 -0.373475 26 102 204
-0.141532 0.171913 -0.185913 26 102 204
-0.134241 0.204089 -0.399711 26 102 204
-0.141208 0.17078 0.232936 26 102 204
-0.135261 0.172422 0.120623 26 102 204
-0.134141 0.160865 0.0524129 26 102 204
-0.207304 -0.361325 0.148275 26 102 204
-0.141433 0.0991686 0.158181 26 102 204
-0.202194 -0.416661 -0.403448 26 102 204
-0.128548 0.193876 0.0757483 26 102 204
-0.130875 0.165197 0.0758403 26 102 204
-0.130472 0.149769 0.0302808 26 102 204
-0.127782 0.17731 -0.0857147 26 102 204
-0.139844 0.0480655 0.0625636 26 102 204
-0.130969 0.212842 -0.130152 26 102 204
-0.125092 0.200849 0.427422 26 102 204
-0.125411 0.160481 -0.361838 26 102 204
-0.116 0.189096 0.107123 26 102 204
-0.118997 0.190271 -0.134556 26 102 204
-0.1307 0.198698 0.0562186 26 102 204
-0.117747 0.174665 0.202247 26 102 204
-0.12235 0.131506 0.0234414 26 102 204
-0.143173 -0.08985 0.0700921 26 102 204
-0.116277 0.152854 0.181243 26 102 204
-0.20512 0.188566 0.335802 26 102 204
-0.132327 -0.0182044 -0.0825407 26 102 204
-0.13901 -0.0762458 -0.0734038 26 102 204
-0.12036 0.0716567 0.0987219 26 102 204
-0.112131 0.15446 0.341802 26 102 204
-0.129595 -0.0607634 -0.0852893 26 102 204
-0.143967 -0.191123 -0.0684525 26 102 204
-0.113075 0.0531242 -0.0872012 26 102 204
-0.15496 -0.325387 -0.0776747 26 102 204
-0.155656 -0.339694 -0.112596 26 102 204
-0.0971291 0.211841 -0.386766 26 102 204
-0.0901464 0.199277 0.0795325 26 102 204
-0.0919776 0.174445 -0.276562 26 102 204
-0.0890309 0.192926 0.199461 26 102 204
-0.0963335 0.164769 -0.459132 26 102 204
-0.102682 0.0869432 -0.0870374 26 102 204
-0.0950873 0.161824 -0.241771 26 102 204
-0.156268 -0.357444 -0.0824324 26 102 204
-0.0864787 0.202428 -0.0488979 26 102 204
-0.132862 -0.249242 -0.0942682 26 102 204
-0.133476 -0.244995 -0.0887047 26 102 204
-0.111824 -0.0493737 -0.0732094 26 102 204
-0.084401 0.140888 0.320262 26 102 204
-0.0856079 0.168971 -0.0398464 26 102 204
-0.0826588 0.179184 -0.347473 26 102 204
-0.0799493 0.153815 0.108404 26 102 204
-0.0818159 0.0909046 0.0898404 26 102 204
-0.0750601 0.183546 -0.0756632 26 102 204
-0.143771 -0.433009 -0.00160947 26 102 204
-0.12474 -0.260178 0.346142 26 102 204
-0.0742376 0.148404 0.121981 26 102 204
-0.070664 0.14452 0.0031354 26 102 204
-0.12058 -0.339594 -0.0880459 26 102 204
-0.0683453 0.171846 -0.28311 26 102 204
-0.0861519 -0.0392078 -0.070737 26 102 204
-0.0675937 0.153138 -0.343441 26 102 204
-0.0962083 -0.128474 -0.0796874 26 102 204
-0.0628922 0.140857 -0.0413161 26 102 204
-0.10957 -0.290086 -0.0723332 26 102 204
-0.063917 0.0863709 -0.0621603 26 102 204
-0.0873373 -0.0985484 0.0724649 26 102 204
-0.0547574 0.203688 -0.37308 26 102 204
-0.095115 -0.164526 -0.0645872 26 102 204
-0.0502242 0.167617 -0.118449 26 102 204
-0.0927999 -0.234769 -0.0556477 26 102 204
-0.0477562 0.157201 0.00749732 26 102 204
-0.0667169 -0.0423503 -0.0871226 26 102 204
-0.0760228 -0.111392 -0.00466474 26 102 204
-0.0439867 0.158053 -0.369819 26 102 204
-0.104793 -0.120511 -0.132788 26 102 204
-0.0774576 -0.177718 -0.105821 26 102 204
-0.0678887 -0.182331 -0.0538324 26 102 204
-0.0526063 -0.0469289 0.0737604 26 102 204
-0.0735527 -0.157052 -0.0773621 26 102 204
-0.0758352 -0.168931 0.0628427 26 102 204
-0.0792052 -0.208768 -0.0684393 26 102 204
-0.0974561 -0.367536 0.0187801 26 102 204
-0.0638828 -0.0764022 0.0807978 26 102 204
-0.0725749 -0.163695 -0.0736023 26 102 204
-0.103829 -0.363132 0.0547295 26 102 204
-0.038157 0.145322 -0.0402939 26 102 204
-0.0690653 -0.140582 -0.0695494 26 102 204
-0.0382985 0.107392 0.114735 26 102 204
-0.0294483 0.193041 -0.39668 26 102 204
-0.0737249 -0.205647 -0.0436676 26 102 204
-0.0275099 0.159018 -0.0827316 26 102 204
-0.0289974 0.169078 0.0730515 26 102 204
-0.0321308 0.134191 -0.0832984 26 102 204
-0.0236397 0.187543 -0.00403286 26 102 204
-0.0364783 0.159913 -0.0844675 26 102 204
-0.0252129 0.162222 -0.12469 26 102 204
-0.0853767 -0.386907 -0.0644203 26 102 204
-0.067752 -0.208359 0.0909903 26 102 204
-0.0248995 0.170398 -0.181162 26 102 204
-0.0646937 -0.154101 0.387169 26 102 204
-0.0223555 0.151638 -0.309061 26 102 204
-0.0131071 0.188363 -0.0519029 26 102 204
-0.0205844 0.155278 -0.092447 26 102 204
-0.0583438 -0.150647 -0.120236 26 102 204
-0.0205579 0.185701 0.00742695 26 102 204
-0.0170027 0.172886 0.0724552 26 102 204
-0.008741 0.178665 -0.182056 26 102 204
-0.0123291 0.161415 0.0198368 26 102 204
-0.0345711 0.184288 0.243373 26 102 204
-0.0639035 -0.322469 -0.0233221 26 102 204
-0.00679613 0.203992 -0.419396 26 102 204
-0.0215915 0.175857 -0.18347 26 102 204
-0.0142961 0.119114 0.275362 26 102 204
-0.00603517 0.148107 0.00756177 26 102 204
0.00235374 0.205999 -0.316096 26 102 204
-0.00861702 0.156894 -0.351041 26 102 204
-0.0409277 -0.295616 -0.100761 26 102 204
-0.0315607 -0.121385 -0.0336977 26 102 204
-0.00539224 0.160973 0.203033 26 102 204
-0.0457565 -0.294231 -0.0838694 26 102 204
0.000997966 0.169485 -0.288634 26 102 204
0.00657748 0.194164 -0.0996701 26 102 204
0.0129648 0.182366 0.0481062 26 102 204
-0.023201 -0.120565 -0.0848504 26 102 204
0.00731849 0.106651 0.109263 26 102 204
-0.0286178 -0.243574 -0.0760566 26 102 204
0.0209836 0.17745 -0.0151421 26 102 204
0.0197047 0.153192 -0.24624 26 102 204
0.0226937 0.180085 -0.100071 26 102 204
0.02122 0.138272 0.282395 26 102 204
-0.030704 -0.296653 -0.03242 26 102 204
0.0206475 0.154456 -0.0994133 26 102 204
-0.00145766 -0.118981 -0.0621855 26 102 204
0.0379763 0.190929 -0.321873 26 102 204
-0.0242498 -0.302979 -0.0754969 26 102 204
0.002833 -0.112673 0.0731066 26 102 204
0.0343598 0.149836 -0.414765 26 102 204
0.00482268 -0.0626838 -0.027107 26 102 204
0.00253823 -0.158753 0.0803051 26 102 204
0.0419774 0.178291 -0.22291 26 102 204
-0.0254415 -0.392878 0.0442338 26 102 204
0.039709 0.107235 0.333047 26 102 204
0.046052 0.19323 -0.310691 26 102 204
0.0460684 0.150727 0.176201 26 102 204
0.0523606 0.154465 -0.271032 26 102 204
0.0476226 0.148735 -0.178091 26 102 204
0.0558829 0.159156 -0.230465 26 102 204
0.0570653 0.168714 -0.222619 26 102 204
0.016318 -0.176588 -0.0456704 26 102 204
0.0612546 0.206997 -0.444131 26 102 204
0.0413951 -0.0423315 0.0938652 26 102 204
0.00173485 -0.365522 -0.0463361 26 102 204
0.028988 -0.146166 -0.0489833 26 102 204
0.0602711 0.0969469 -0.0752318 26 102 204
-0.0843173 -0.299895 0.362162 26 102 204
0.0347664 -0.108761 0.0357962 26 102 204
0.0647536 0.10832 -0.0473535 26 102 204
0.0358393 -0.149546 -0.05157 26 102 204
0.068074 0.11348 0.149568 26 102 204
0.0301104 -0.25477 0.109712 26 102 204
0.0738851 0.146145 -0.0229651 26 102 204
0.0716258 0.131559 -0.0446281 26 102 204
0.0305599 -0.260571 -0.0551633 26 102 204
0.0748174 0.143423 0.11883 26 102 204
0.0806399 0.136663 0.0999275 26 102 204
0.0508756 -0.147042 0.0564671 26 102 204
0.0293728 -0.302841 0.0556919 26 102 204
0.091593 0.197555 -0.455899 26 102 204
0.0865936 0.152935 0.244853 26 102 204
0.0904542 0.130525 0.374641 26 102 204
0.0765093 0.103844 -0.0695972 26 102 204
0.0539955 -0.0906636 0.0591685 26 102 204
0.0722998 0.0258596 0.0924009 26 102 204
0.0938238 0.157082 -0.425827 26 102 204
0.0862883 0.17961 0.0323522 26 102 204
0.0903488 0.177535 -0.451464 26 102 204
0.0745776 -0.0200943 0.383998 26 102 204
0.0939672 0.17508 -0.051248 26 102 204
0.0868215 0.143079 -0.00231528 26 102 204
0.0941784 0.177209 0.236569 26 102 204
0.032612 -0.333845 0.0556417 26 102 204
0.037834 -0.287911 -0.0741102 26 102 204
0.10996 0.169706 -0.423559 26 102 204
0.0828605 0.0563849 0.0705249 26 102 204
0.0877192 0.0665673 0.0680506 26 102 204
0.101066 0.165785 0.160987 26 102 204
0.0287979 -0.440603 -0.347604 26 102 204
0.094333 0.117651 0.0862141 26 102 204
0.0705457 -0.420511 0.117348 26 102 204
0.105221 0.147352 -0.23825 26 102 204
0.0972804 0.113275 0.354758 26 102 204
0.0390961 -0.355801 -0.376386 26 102 204
0.109648 0.138432 0.188488 26 102 204
0.0584842 -0.2195 0.00300385 26 102 204
0.0828942 -0.173951 0.0962557 26 102 204
0.103951 0.133212 -0.396163 26 102 204
0.053816 -0.299465 -0.0949726 26 102 204
0.110808 0.147853 0.0077137 26 102 204
0.069906 -0.167663 -0.414389 26 102 204
0.035556 -0.395048 -0.0671635 26 102 204
0.064698 -0.252699 0.0554375 26 102 204
0.109937 0.157466 -0.32637 26 102 204
0.058194 -0.333766 -0.0782821 26 102 204
0.050442 -0.38958 0.0387511 26 102 204
0.115938 0.159221 0.400314 26 102 204
0.0629481 -0.290342 -0.092539 26 102 204
0.115758 0.152616 -0.151407 26 102 204
0.055201 -0.430736 0.0607081 26 102 204
0.12057 0.146066 -0.111858 26 102 204
0.120524 0.159557 -0.3788 26 102 204
0.114179 0.0923335 -0.0893474 26 102 204
0.112286 0.0345368 -0.082409 26 102 204
0.124646 0.166863 -0.0861404 26 102 204
0.13226 0.166774 -0.180185 26 102 204
0.122991 0.135618 -0.0239093 26 102 204
0.0697904 -0.2888 -0.068312 26 102 204
0.127315 0.121511 -0.0718229 26 102 204
0.130043 0.180746 -0.0445413 26 102 204
0.124764 0.119164 0.0825314 26 102 204
0.12163 0.124067 0.355116 26 102 204
0.0769097 -0.28821 -0.0768901 26 102 204
0.094945 -0.171638 0.360136 26 102 204
0.133237 0.167595 -0.135509 26 102 204
0.0979234 -0.159555 0.0179584 26 102 204
0.128865 -0.0198091 0.112868 26 102 204
0.139044 0.17046 0.0150245 26 102 204
0.0771231 -0.335234 0.0530081 26 102 204
0.0764829 -0.384001 0.376367 26 102 204
0.0901096 -0.313345 0.0867096 26 102 204
0.13884 0.171633 -0.4519 26 102 204
0.0966162 -0.201529 0.351535 26 102 204
0.0882382 -0.241438 0.0765265 26 102 204
0.142669 0.143087 0.241021 26 102 204
0.151016 0.166979 0.0814464 26 102 204
0.130467 0.0300239 0.101209 26 102 204
0.0718574 -0.392303 0.091001 26 102 204
0.113712 -0.124344 -0.0715375 26 102 204
0.13663 0.0663842 0.0995802 26 102 204
0.0714572 -0.43756 -0.079905 26 102 204
0.107931 -0.176036 -0.0749947 26 102 204
0.240679 -0.249385 0.293373 26 102 204
0.124152 -0.0495054 0.112456 26 102 204
0.0883139 -0.353003 -0.0846701 26 102 204
0.149924 0.128951 -0.350954 26 102 204
0.14835 0.11408 0.355089 26 102 204
0.160019 0.176166 0.0885046 26 102 204
0.101541 -0.319174 0.384866 26 102 204
0.149425 0.0981139 0.0281655 26 102 204
0.14296 0.0197552 -0.0769201 26 102 204
0.162552 0.144858 -0.352338 26 102 204
0.104808 -0.32695 -0.0867305 26 102 204
0.153725 0.115081 0.0941835 26 102 204
0.161958 0.163198 -0.146635 26 102 204
0.0863025 -0.443908 -0.0962709 26 102 204
0.158257 0.104865 0.113975 26 102 204
0.16204 0.129816 0.162797 26 102 204
0.172835 0.13546 0.242625 26 102 204
0.177638 0.146024 0.00204435 26 102 204
0.165946 0.16149 0.279386 26 102 204
0.17466 0.148668 -0.167571 26 102 204
0.164356 0.11265 -0.0692446 26 102 204
0.173017 0.148823 0.0471447 26 102 204
0.174787 0.158941 -0.0451035 26 102 204
0.140015 -0.140016 0.0259788 26 102 204
0.14156 -0.116299 0.0286335 26 102 204
0.119664 -0.318142 -0.0656121 26 102 204
0.168844 0.114265 -0.248613 26 102 204
0.107773 -0.425146 -0.0675501 26 102 204
0.118499 -0.386643 -0.0794903 26 102 204
0.205328 0.106123 -0.0794797 26 102 204
0.118396 -0.384649 0.257017 26 102 204
0.181943 0.140926 0.0704219 26 102 204
0.184653 0.121662 -0.153438 26 102 204
0.112725 -0.449956 -0.109328 26 102 204
0.185854 0.146339 -0.0696532 26 102 204
0.182012 0.0860806 0.0562306 26 102 204
0.162923 -0.0123449 0.0940407 26 102 204
0.180856 0.112375 -0.0257953 26 102 204
0.186329 0.0987523 0.0803382 26 102 204
0.112821 -0.428697 -0.0483063 26 102 204
0.1813 0.129047 0.00195356 26 102 204
0.128188 -0.385253 0.162965 26 102 204
0.17653 0.109024 -0.0795613 26 102 204
0.189003 0.120117 -0.163697 26 102 204
0.193499 0.173315 0.397512 26 102 204
0.187061 0.116173 0.307921 26 102 204
0.187241 0.0908517 -0.0401704 26 102 204
0.130036 -0.395166 0.261802 26 102 204
0.200531 0.139666 -0.0115578 26 102 204
0.198684 0.15231 -0.137747 26 102 204
0.20922 0.144962 0.168556 26 102 204
0.134423 -0.424329 0.00401529 26 102 204
0.206238 0.133088 0.0495846 26 102 204
0.208856 0.136485 0.0335083 26 102 204
0.197824 0.171923 -0.0435928 26 102 204
0.143749 -0.380479 -0.114433 26 102 204
0.167106 -0.143185 -0.0529728 26 102 204
0.203001 0.093874 0.40212 26 102 204
0.166823 -0.216314 0.102559 26 102 204
0.144618 -0.380417 0.116652 26 102 204
0.203135 0.0961844 -0.0523276 26 102 204
0.209114 0.127812 -0.375503 26 102 204
0.205381 0.0953602 -0.125896 26 102 204
0.161127 -0.237906 0.0951155 26 102 204
0.174672 -0.148022 0.106273 26 102 204
0.165015 -0.370136 0.128219 26 102 204
0.17394 -0.242283 0.117389 26 102 204
0.212449 0.0786257 -0.0977197 26 102 204
0.213052 0.125223 -0.25272 26 102 204
0.221581 0.134927 -0.141761 26 102 204
0.1793 -0.206552 0.354599 26 102 204
0.225946 0.119656 0.0509863 26 102 204
0.221202 0.143266 -0.307387 26 102 204
0.187132 -0.140136 0.114112 26 102 204
0.224758 0.123456 0.0317346 26 102 204
0.239914 0.122643 0.0911292 26 102 204
0.186325 -0.203659 0.111377 26 102 204
0.227416 0.159352 -0.234102 26 102 204
0.176336 -0.32317 0.141987 26 102 204
0.232144 0.145891 -0.358916 26 102 204
0.23142 0.116568 0.157252 26 102 204
0.160279 -0.459989 0.0939084 26 102 204
0.212412 -0.0215581 -0.0392136 26 102 204
0.237573 0.112959 -0.0113832 26 102 204
0.241683 0.121241 0.3475 26 102 204
0.234362 0.11226 -0.0683469 26 102 204
0.228331 0.0918252 0.000382123 26 102 204
0.241843 0.16059 -0.360597 26 102 204
0.172541 -0.448522 0.122615 26 102 204
0.244104 0.105636 -0.125397 26 102 204
0.181958 -0.334666 0.0996962 26 102 204
0.174408 -0.386312 0.132008 26 102 204
0.204485 -0.192533 0.112969 26 102 204
0.196282 -0.299297 0.158268 26 102 204
0.239178 0.103522 -0.0409913 26 102 204
0.203651 -0.271488 0.252186 26 102 204
0.247549 0.133917 -0.369643 26 102 204
0.248685 0.0714604 0.179845 26 102 204
0.246293 0.102861 0.0318803 26 102 204
0.200726 -0.225406 0.123408 26 102 204
0.200976 -0.247181 0.110331 26 102 204
0.244417 0.101071 -0.353446 26 102 204
0.251684 0.137592 -0.0427009 26 102 204
0.24518 0.0434354 -0.0714696 26 102 204
0.198016 -0.376467 0.109547 26 102 204
0.219346 -0.149283 0.1212 26 102 204
0.21354 -0.221854 0.113627 26 102 204
0.220022 -0.187074 0.137957 26 102 204
0.241874 -0.0395552 0.194274 26 102 204
0.255992 0.139474 -0.292058 26 102 204
0.239062 -0.00186048 0.109587 26 102 204
0.234918 -0.0387399 -0.113263 26 102 204
0.215016 -0.249083 -0.0969658 26 102 204
0.25248 0.0944024 0.0396207 26 102 204
0.23498 -0.0812566 0.145043 26 102 204
0.261739 0.114255 0.149564 26 102 204
0.240572 -0.0386643 0.118375 26 102 204
0.23461 -0.118535 -0.0960016 26 102 204
0.266692 0.0974874 0.210466 26 102 204
0.221117 -0.264544 0.143651 26 102 204
0.265993 0.0981594 0.153898 26 102 204
0.24588 -0.10115 0.19708 26 102 204
0.217744 -0.354569 0.141849 26 102 204
0.221536 -0.319583 0.0886352 26 102 204
0.276059 0.135408 -0.0336396 26 102 204
0.26448 0.068147 0.121337 26 102 204
0.269294 0.116688 -0.287642 26 102 204
0.275977 0.101834 -0.232707 26 102 204
0.27713 0.116553 -0.381677 26 102 204
0.240191 -0.23206 0.188699 26 102 204
0.221442 -0.347256 -0.0859083 26 102 204
0.274785 0.102575 -0.126883 26 102 204
0.284868 0.152938 -0.425555 26 102 204
0.280934 0.070785 0.218579 26 102 204
0.266634 0.0251231 0.128624 26 102 204
0.285024 0.127704 -0.255037 26 102 204
0.206833 -0.358369 -0.114401 26 102 204
0.281597 0.139984 -0.0468581 26 102 204
0.282432 0.128279 -0.287195 26 102 204
0.278934 0.0735578 0.415499 26 102 204
0.290695 0.149493 -0.359361 26 102 204
0.243457 -0.218689 0.394775 26 102 204
0.283785 0.126583 -0.278036 26 102 204
0.286398 0.108868 0.266679 26 102 204
0.245694 -0.255415 0.245032 26 102 204
0.299517 0.157063 -0.000683884 26 102 204
0.285503 0.102037 0.126127 26 102 204
0.292499 0.150161 -0.370666 26 102 204
0.286115 0.100141 -0.147441 26 102 204
0.296696 0.148843 0.216906 26 102 204
0.288862 0.0437835 0.246789 26 102 204
0.269285 -0.139399 0.159951 26 102 204
0.306356 0.124896 -0.183539 26 102 204
0.262038 -0.132961 0.375101 26 102 204
0.296308 0.129897 0.343937 26 102 204
0.230438 -0.435529 0.108862 26 102 204
0.304416 0.150597 0.0888521 26 102 204
0.248613 -0.407991 0.0287038 26 102 204
0.304771 0.127751 -0.377511 26 102 204
0.249618 -0.34016 0.127312 26 102 204
0.24889 -0.329951 0.129059 26 102 204
0.263769 -0.182291 0.132468 26 102 204
0.273059 -0.148188 0.221786 26 102 204
0.301943 0.110587 -0.0398856 26 102 204
0.307363 0.112933 -0.0173085 26 102 204
0.306451 0.154402 -0.385692 26 102 204
0.301374 0.0643118 0.0288632 26 102 204
0.278808 -0.143366 0.170898 26 102 204
0.365236 0.101554 0.126746 26 102 204
0.268046 -0.246383 0.101324 26 102 204
0.246145 -0.436473 0.086556 26 102 204
0.249734 -0.396444 0.134535 26 102 204
0.283083 -0.132334 0.234173 26 102 204
0.311456 0.100391 0.183306 26 102 204
0.315314 0.111915 -0.105666 26 102 204
0.269795 -0.253346 0.155309 26 102 204
0.314623 0.113408 -0.100242 26 102 204
0.316733 0.0996638 0.0105068 26 102 204
0.249443 -0.42935 -0.0794835 26 102 204
0.325304 0.125804 0.423119 26 102 204
0.32768 0.0987589 0.383591 26 102 204
0.329619 0.155228 -0.150403 26 102 204
0.329623 0.128208 0.353958 26 102 204
0.287524 -0.166506 0.191537 26 102 204
0.318705 0.0716913 0.330464 26 102 204
0.348003 0.112599 -0.407919 26 102 204
0.326274 0.110073 -0.381864 26 102 204
0.335559 0.122645 -0.460612 26 102 204
0.338905 0.148296 -0.424952 26 102 204
0.337173 0.0987297 -0.0802116 26 102 204
0.33442 0.0843037 0.325258 26 102 204
0.304381 -0.165168 0.344594 26 102 204
0.334442 0.114381 0.00073917 26 102 204
0.341812 0.0943984 -0.140562 26 102 204
0.341523 0.0912892 0.0828778 26 102 204
0.305259 -0.158805 0.159825 26 102 204
0.34373 0.0970896 -0.247831 26 102 204
0.342415 0.116959 0.0979113 26 102 204
0.342821 0.10342 -0.332942 26 102 204
0.34733 0.117179 -0.179073 26 102 204
0.339763 0.0889564 -0.237355 26 102 204
0.346342 0.13391 -0.340474 26 102 204
0.343579 0.113868 0.168297 26 102 204
0.351058 0.126739 -0.373851 26 102 204
0.335753 0.0902846 -0.39554 26 102 204
0.352871 0.116918 -0.426086 26 102 204
0.352209 0.147334 0.295968 26 102 204
0.35416 0.148493 -0.464437 26 102 204
0.285466 -0.383484 0.126418 26 102 204
0.350748 0.101184 -0.293257 26 102 204
0.307113 -0.261391 0.210188 26 102 204
0.329747 -0.419797 0.17207 26 102 204
0.346236 0.111826 0.236268 26 102 204
0.357148 0.117457 0.314491 26 102 204
0.297257 -0.385718 -0.101779 26 102 204
0.292006 -0.373246 0.127969 26 102 204
0.327064 -0.397014 -0.316559 26 102 204
0.368266 0.136509 -0.430598 26 102 204
0.365328 0.0976192 -0.0794174 26 102 204
0.350801 -0.0243046 0.184399 26 102 204
0.378936 0.120042 -0.0530821 26 102 204
0.375163 0.109751 -0.294361 26 102 204
0.340399 -0.208754 0.0501164 26 102 204
0.374606 0.141112 -0.181031 26 102 204
0.368993 0.114476 -0.00122198 26 102 204
0.307674 -0.437216 0.130682 26 102 204
0.370181 0.0889215 0.0886562 26 102 204
0.367383 0.0816225 0.0759017 26 102 204
0.348912 -0.14517 0.204522 26 102 204
0.307862 -0.348439 0.0895231 26 102 204
0.314417 -0.374654 0.12131 26 102 204
0.300487 -0.446922 -0.0259206 26 102 204
0.379651 0.129161 0.312686 26 102 204
0.379932 0.132436 -0.241487 26 102 204
0.379909 0.086552 0.127681 26 102 204
0.379804 0.0845591 0.336683 26 102 204
0.381188 0.0890905 0.188779 26 102 204
0.38043 0.0803137 0.302042 26 102 204
0.353908 -0.163484 0.36588 26 102 204
0.399332 0.117178 0.124742 26 102 204
0.36625 -0.0850702 0.265247 26 102 204
0.331692 -0.366008 0.128481 26 102 204
0.398116 0.114551 0.277263 26 102 204
0.391977 0.111691 0.256684 26 102 204
0.393709 0.0978547 -0.101234 26 102 204
0.341279 -0.342873 0.0985926 26 102 204
0.409006 0.113644 -0.437969 26 102 204
0.399752 0.0972428 -0.240168 26 102 204
0.349612 -0.315861 0.414785 26 102 204
0.356502 -0.236096 0.162365 26 102 204
0.398609 0.0815469 -0.109723 26 102 204
0.345282 -0.335625 0.0734887 26 102 204
0.359029 -0.309637 0.111882 26 102 204
0.407872 0.0898735 0.119833 26 102 204
0.340602 -0.395896 -0.15529 26 102 204
0.411481 0.130988 -0.183396 26 102 204
0.413412 0.0888502 0.101698 26 102 204
0.402509 0.0584846 0.207245 26 102 204
0.378319 -0.357956 0.058001 26 102 204
0.412827 0.0935676 -0.0621978 26 102 204
0.410485 0.110085 -0.209342 26 102 204
0.416593 0.120379 -0.213935 26 102 204
0.342591 -0.452177 -0.282871 26 102 204
0.413334 0.0973864 0.279682 26 102 204
0.420981 0.115478 -0.0630475 26 102 204
0.380459 -0.242374 0.196965 26 102 204
0.421726 0.0869424 0.404125 26 102 204
0.408543 -0.0295798 0.388308 26 102 204
0.376588 -0.248355 0.200973 26 102 204
0.427481 0.129212 -0.405226 26 102 204
0.367819 -0.389056 -0.163808 26 102 204
0.431736 0.10076 0.0545445 26 102 204
0.35883 -0.435109 -0.33153 26 102 204
0.431512 0.0672341 0.242051 26 102 204
0.404789 -0.207081 0.209737 26 102 204
0.37422 -0.39536 -0.0675337 26 102 204
0.420739 -0.110068 0.234464 26 102 204
0.43816 0.106404 0.308432 26 102 204
0.433301 0.110555 -0.413387 26 102 204
0.373128 -0.42257 -0.0471949 26 102 204
0.440696 0.0446577 0.160422 26 102 204
0.382352 -0.416436 0.15612 26 102 204
0.413377 -0.156207 0.181313 26 102 204
0.446176 0.0941663 -0.0978056 26 102 204
0.449096 0.0831731 -0.150423 26 102 204
0.449695 0.0643882 0.141246 26 102 204
0.459487 0.109515 -0.234216 26 102 204
0.46601 0.134096 -0.427027 26 102 204
0.437604 -0.0909377 0.347038 26 102 204
0.454603 0.0747186 -0.243964 26 102 204
0.401734 -0.414133 -0.423248 26 102 204
0.454988 0.0476109 0.373543 26 102 204
0.469122 0.121629 -0.400048 26 102 204
0.414342 -0.326905 -0.22976 26 102 204
0.462902 0.0949062 0.134989 26 102 204
0.400291 -0.383864 0.288939 26 102 204
0.455941 0.0396875 0.38 26 102 204
0.43885 -0.15946 -0.253053 26 102 204
0.406519 -0.389589 -0.434409 26 102 204
0.407102 -0.417877 -0.406943 26 102 204
0.464354 0.0508686 -0.343208 26 102 204
0.474785 0.109854 -0.14394 26 102 204
0.479839 0.11867 -0.30679 26 102 204
0.424154 -0.302095 0.210061 26 102 204
0.438208 -0.188388 0.101686 26 102 204
0.4675 0.025854 0.374233 26 102 204
0.415058 -0.378818 -0.340104 26 102 204
0.479782 0.120004 -0.388699 26 102 204
0.453076 -0.0758284 -0.435927 26 102 204
0.463424 0.0051734 0.125044 26 102 204
0.469106 0.0884204 -0.0891572 26 102 204
0.475614 0.0883746 0.423678 26 102 204
0.458195 -0.0376416 -0.0153958 26 102 204
0.472416 0.104636 -0.182653 26 102 204
0.419191 -0.413813 -0.426003 26 102 204
0.459693 -0.0219004 0.116308 26 102 204
0.45728 -0.0344064 0.00654486 26 102 204
0.486153 0.102168 -0.316631 26 102 204
0.471131 0.0413049 0.269634 26 102 204
0.439856 -0.186688 0.37393 26 102 204
0.443351 -0.0949735 0.329291 26 102 204
0.468131 0.0262569 0.192264 26 102 204
0.472828 0.067599 -0.227464 26 102 204
0.413808 -0.376542 -0.189813 26 102 204
0.43354 -0.243872 0.374891 26 102 204
0.464568 -0.0302326 0.254895 26 102 204
0.458282 -0.0977602 -0.122578 26 102 204
0.436531 -0.287413 -0.328522 26 102 204
0.466612 -0.0326682 0.346769 26 102 204
0.433023 -0.267001 -0.100127 26 102 204
0.476656 0.11941 -0.13147 26 102 204
0.457128 -0.0755136 -0.103649 26 102 204
0.476124 0.0439189 0.144482 26 102 204
0.432402 -0.329219 -0.141507 26 102 204
0.459473 -0.101989 0.118191 26 102 204
0.479676 0.0825816 0.348522 26 102 204
0.464372 -0.0880055 0.184177 26 102 204
0.44461 -0.22413 -0.0170369 26 102 204
0.450706 -0.198039 0.393059 26 102 204
0.437879 -0.304026 -0.155478 26 102 204
0.445226 -0.18121 0.0373281 26 102 204
0.475877 -0.00119972 0.400412 26 102 204
0.492013 0.147737 -0.43321 26 102 204
0.450961 -0.208513 0.201015 26 102 204
0.48342 0.0720111 -0.220921 26 102 204
0.487451 0.0360023 0.123691 26 102 204
0.436728 -0.289524 -0.328454 26 102 204
0.483231 0.0617204 0.197599 26 102 204
0.489394 0.106451 -0.289279 26 102 204
0.451259 -0.196569 -0.0842481 26 102 204
0.464584 -0.114591 -0.197971 26 102 204
0.488952 0.0746294 -0.259904 26 102 204
0.489084 0.0626934 0.165656 26 102 204
0.459876 -0.151902 -0.0737133 26 102 204
0.45289 -0.214846 -0.305089 26 102 204
0.487594 0.0532747 -0.10711 26 102 204
0.44048 -0.311916 0.0319667 26 102 204
0.444094 -0.299374 -0.30458 26 102 204
0.473216 -0.07813 -0.286453 26 102 204
0.468093 -0.0957966 -0.215378 26 102 204
0.485239 0.00025238 -0.41251 26 102 204
0.477104 -0.0385964 -0.247323 26 102 204
0.455249 -0.277326 0.203655 26 102 204
0.489345 0.0021073 0.36892 26 102 204
0.50481 0.110896 -0.414326 26 102 204
0.437843 -0.34048 -0.194533 26 102 204
0.448521 -0.311538 0.354524 26 102 204
0.478194 -0.0277665 -0.279576 26 102 204
0.497312 0.0698588 -0.119514 26 102 204
0.447125 -0.3268 -0.108427 26 102 204
0.492215 0.058696 0.0506494 26 102 204
0.484753 -0.0237472 0.244405 26 102 204
0.498029 0.0859791 0.100376 26 102 204
0.494465 0.0531103 0.256089 26 102 204
0.484374 0.00551466 0.210175 26 102 204
0.492287 0.0352337 -0.243157 26 102 204
0.500458 0.0275412 0.279655 26 102 204
0.494634 0.0664164 0.0376908 26 102 204
0.505718 0.0518181 -0.297616 26 102 204
0.460483 -0.240992 0.261714 26 102 204
0.496872 0.0784503 -0.428896 26 102 204
0.475454 -0.0770823 0.21688 26 102 204
0.501057 0.0769107 -0.22157 26 102 204
0.502248 0.0664546 0.195065 26 102 204
0.453776 -0.272971 -0.0797093 26 102 204
0.501749 0.0654291 0.284711 26 102 204
0.484771 0.0282557 -0.120585 26 102 204
0.501302 0.0744073 -0.04752 26 102 204
0.50623 0.0815707 -0.401535 26 102 204
0.450808 -0.323142 -0.106014 26 102 204
0.45359 -0.32749 0.184 26 102 204
0.496559 0.0972583 -0.153869 26 102 204
0.500578 0.0524268 0.352713 26 102 204
0.498211 0.0732873 -0.0332059 26 102 204
0.509092 0.0722402 -0.462065 26 102 204
0.510266 0.102658 -0.160169 26 102 204
0.513909 0.0600305 0.0658246 26 102 204
0.513073 0.0944119 0.303171 26 102 204
0.512109 0.0776746 0.0881618 26 102 204
0.504196 0.0708833 -0.038018 26 102 204
0.512237 0.0626387 -0.347336 26 102 204
0.516719 0.0736428 -0.416297 26 102 204
0.516094 0.0739179 -0.47707 26 102 204
