ply
format ascii 1.0
comment Created by Open3D
element vertex 1024
property double x
property double y
property double z
property uchar red
property uchar green
property uchar blue
end_header
0.397965 -0.411387 0.0397375 26 102 204
0.394101 -0.408969 -0.00691835 26 102 204
0.396766 -0.410915 0.00235028 26 102 204
0.400448 -0.40825 0.0137833 26 102 204
0.389969 -0.40404 0.00273114 26 102 204
0.404831 -0.410695 0.0251 26 102 204
0.403782 -0.394803 0.0144652 26 102 204
0.432602 -0.386981 -0.0109706 26 102 204
0.380358 -0.398431 0.00024813 26 102 204
0.39829 -0.398082 0.0158393 26 102 204
0.372951 -0.394635 -0.00587348 26 102 204
0.367973 -0.39069 0.0360151 26 102 204
0.365792 -0.388096 0.00724098 26 102 204
0.36452 -0.391283 0.0112088 26 102 204
0.36575 -0.384157 0.0254027 26 102 204
0.349284 -0.379605 0.0237152 26 102 204
0.346282 -0.386714 0.0385717 26 102 204
0.352294 -0.378404 0.00626028 26 102 204
0.339191 -0.377267 0.00360581 26 102 204
0.333002 -0.36918 0.00129265 26 102 204
0.32926 -0.3755 0.0399048 26 102 204
0.323597 -0.375141 0.01863 26 102 204
0.31983 -0.383187 0.0285367 26 102 204
0.314192 -0.367476 0.0260938 26 102 204
0.318367 -0.367978 0.0473033 26 102 204
0.313698 -0.366731 0.0544453 26 102 204
0.324048 -0.357103 0.0537823 26 102 204
0.327598 -0.344031 -0.00901434 26 102 204
0.307712 -0.3588 0.0161426 26 102 204
0.318708 -0.356826 0.0218407 26 102 204
0.305613 -0.346677 0.0127953 26 102 204
0.297633 -0.35894 0.0582199 26 102 204
0.29137 -0.356193 0.0330643 26 102 204
0.311297 -0.349424 0.0412165 26 102 204
0.315183 -0.329895 -0.0294394 26 102 204
0.291255 -0.348911 0.0295416 26 102 204
0.315697 -0.328239 -0.0334812 26 102 204
0.286817 -0.34104 0.0582472 26 102 204
0.296032 -0.333549 -0.00433813 26 102 204
0.282551 -0.343565 0.0302872 26 102 204
0.286259 -0.334225 0.0601869 26 102 204
0.286187 -0.33506 0.00117803 26 102 204
0.274133 -0.343838 -0.00392003 26 102 204
0.27014 -0.339834 0.0125111 26 102 204
0.26927 -0.334536 0.00232018 26 102 204
0.267932 -0.335848 -0.0169915 26 102 204
0.269011 -0.331783 0.00796082 26 102 204
0.27019 -0.332521 0.0147065 26 102 204
0.281298 -0.333423 0.0166793 26 102 204
0.273479 -0.33071 0.0192559 26 102 204
0.325881 -0.308666 -0.0356916 26 102 204
0.269202 -0.331284 0.00113942 26 102 204
0.272754 -0.303778 0.046888 26 102 204
0.2592 -0.337939 -0.012979 26 102 204
0.260212 -0.324969 -0.040103 26 102 204
0.262073 -0.353978 0.0312619 26 102 204
0.273877 -0.318698 0.0670091 26 102 204
0.24736 -0.332534 -0.0288993 26 102 204
0.24614 -0.315702 -0.013047 26 102 204
0.255236 -0.326988 -0.0367237 26 102 204
0.245774 -0.316976 -0.0294695 26 102 204
0.249363 -0.317715 0.00678632 26 102 204
0.247927 -0.328324 0.0283743 26 102 204
0.253133 -0.309762 0.00582049 26 102 204
0.274965 -0.302684 -0.0363158 26 102 204
0.279267 -0.304122 -0.0384331 26 102 204
0.238974 -0.313356 -0.0399126 26 102 204
0.244921 -0.314931 0.0755081 26 102 204
0.285667 -0.284108 -0.0391989 26 102 204
0.242893 -0.307635 -0.026228 26 102 204
0.23767 -0.316738 -0.0312898 26 102 204
0.252288 -0.299619 -0.0387002 26 102 204
0.231784 -0.313334 -0.0227781 26 102 204
0.244349 -0.302216 0.0235221 26 102 204
0.271765 -0.290283 -0.0353515 26 102 204
0.250301 -0.295894 0.0412 26 102 204
0.250908 -0.284802 0.060173 26 102 204
0.244226 -0.300292 0.007784 26 102 204
0.257236 -0.285347 0.0444055 26 102 204
0.23241 -0.301186 -0.0408163 26 102 204
0.259894 -0.281258 0.0669835 26 102 204
0.270768 -0.274488 0.00278749 26 102 204
0.25706 -0.283743 0.069676 26 102 204
0.222277 -0.301649 -0.0317396 26 102 204
0.235785 -0.290017 0.0721774 26 102 204
0.245864 -0.285305 -0.0584555 26 102 204
0.263487 -0.267466 0.0596715 26 102 204
0.223318 -0.283613 -0.0184634 26 102 204
0.222941 -0.284094 0.037518 26 102 204
0.25709 -0.27036 -0.0439675 26 102 204
0.219491 -0.283084 -0.0567946 26 102 204
0.227878 -0.28524 0.0433853 26 102 204
0.226966 -0.280864 0.0672913 26 102 204
0.225455 -0.274392 0.050951 26 102 204
0.226267 -0.282964 0.0529347 26 102 204
0.230892 -0.271006 0.06476 26 102 204
0.217286 -0.278684 0.065866 26 102 204
0.24152 -0.270367 -0.0644984 26 102 204
0.220783 -0.281726 0.0052634 26 102 204
0.222341 -0.269556 0.00989988 26 102 204
0.240668 -0.254817 0.0331144 26 102 204
0.222548 -0.266376 -0.0329978 26 102 204
0.239984 -0.258922 -0.0441031 26 102 204
0.232133 -0.259007 0.054153 26 102 204
0.223056 -0.261843 0.0293734 26 102 204
0.225857 -0.255771 0.0563883 26 102 204
0.203212 -0.283231 0.0189558 26 102 204
0.224924 -0.256628 0.00524773 26 102 204
0.229858 -0.253492 0.0318792 26 102 204
0.223832 -0.257867 -0.00330172 26 102 204
0.235965 -0.254333 0.0437284 26 102 204
0.211497 -0.267139 0.059399 26 102 204
0.192381 -0.284494 0.00566818 26 102 204
0.22636 -0.251996 -0.00290338 26 102 204
0.212662 -0.253195 -0.0140601 26 102 204
0.210372 -0.261964 -0.0566428 26 102 204
0.238589 -0.241771 0.0159843 26 102 204
0.214373 -0.257831 -0.00377469 26 102 204
0.210923 -0.248667 -0.0446523 26 102 204
0.226783 -0.240613 0.0658715 26 102 204
0.217925 -0.252608 -0.0402124 26 102 204
0.231298 -0.247411 0.0140211 26 102 204
0.218853 -0.246658 0.0279507 26 102 204
0.21395 -0.248597 0.0176666 26 102 204
0.195791 -0.257254 0.0521086 26 102 204
0.186053 -0.263313 0.0422328 26 102 204
0.205122 -0.252327 0.0701957 26 102 204
0.213306 -0.244257 0.0487383 26 102 204
0.223444 -0.234049 0.00836963 26 102 204
0.198936 -0.246204 -0.0449845 26 102 204
0.208682 -0.236335 0.0753696 26 102 204
0.212051 -0.23258 0.0113815 26 102 204
0.198588 -0.236851 -0.0321129 26 102 204
0.199426 -0.241063 0.0164851 26 102 204
0.204511 -0.239541 -0.0416018 26 102 204
0.200884 -0.232366 -0.0289836 26 102 204
0.202497 -0.232998 -0.00296067 26 102 204
0.200538 -0.232793 0.0574268 26 102 204
0.217242 -0.216478 -0.0545094 26 102 204
0.186254 -0.242016 0.0590523 26 102 204
0.20623 -0.228476 0.00436336 26 102 204
0.190111 -0.232198 0.061967 26 102 204
0.199855 -0.228829 -0.0486184 26 102 204
0.198512 -0.227786 0.00510855 26 102 204
0.189392 -0.228141 0.0645708 26 102 204
0.204526 -0.221902 -0.035074 26 102 204
0.18188 -0.237288 -0.0453478 26 102 204
0.183327 -0.234258 0.0533796 26 102 204
0.200005 -0.21649 0.0379878 26 102 204
0.193842 -0.221206 -0.0204537 26 102 204
0.194047 -0.229454 0.039677 26 102 204
0.181097 -0.228771 -0.0345507 26 102 204
0.196881 -0.214165 0.0500166 26 102 204
0.186723 -0.220117 0.0250846 26 102 204
0.183661 -0.217855 -0.0127376 26 102 204
0.190387 -0.215419 0.0630754 26 102 204
0.189478 -0.231221 0.041096 26 102 204
0.198472 -0.224368 0.0223117 26 102 204
0.181125 -0.222481 0.0378658 26 102 204
0.192209 -0.207445 -0.0262385 26 102 204
0.190702 -0.233429 -0.0318616 26 102 204
0.1719 -0.219801 0.0403448 26 102 204
0.192152 -0.204255 -0.0291205 26 102 204
0.182384 -0.218176 0.0647323 26 102 204
0.164814 -0.218236 0.0357298 26 102 204
0.181563 -0.213446 -0.0474176 26 102 204
0.168026 -0.21943 0.054893 26 102 204
0.1645 -0.214147 0.00729315 26 102 204
0.160977 -0.214474 -0.0294016 26 102 204
0.167965 -0.216294 0.00189641 26 102 204
0.18918 -0.195479 0.0424468 26 102 204
0.172007 -0.200697 0.0125782 26 102 204
0.170069 -0.195658 -0.018941 26 102 204
0.156383 -0.208566 -0.00823528 26 102 204
0.170572 -0.19414 -0.0011968 26 102 204
0.172541 -0.194601 -0.0266701 26 102 204
0.173918 -0.188041 -0.0435817 26 102 204
0.175213 -0.18313 0.0161762 26 102 204
0.181609 -0.219374 0.0207278 26 102 204
0.145814 -0.201862 -0.015191 26 102 204
0.149506 -0.198042 0.0115926 26 102 204
0.160237 -0.195049 -0.0298538 26 102 204
0.144538 -0.196396 0.0366348 26 102 204
0.168823 -0.176822 -0.0272414 26 102 204
0.179676 -0.169002 0.0194721 26 102 204
0.191955 -0.221489 -0.0156809 26 102 204
0.169261 -0.16963 0.0247974 26 102 204
0.147174 -0.183762 0.0255922 26 102 204
0.153939 -0.179244 -0.0194556 26 102 204
0.141287 -0.18374 -0.0251989 26 102 204
0.156974 -0.181209 0.0734617 26 102 204
0.150084 -0.179056 0.0420741 26 102 204
0.171333 -0.161531 0.0416523 26 102 204
0.157656 -0.172949 0.0760694 26 102 204
0.164449 -0.166729 0.0153488 26 102 204
0.146231 -0.17423 0.0709143 26 102 204
0.145443 -0.173949 0.0545805 26 102 204
0.15677 -0.166939 -0.00718113 26 102 204
0.135863 -0.177098 0.0109264 26 102 204
0.147981 -0.167395 0.0112011 26 102 204
0.140006 -0.168117 -0.0196344 26 102 204
0.146603 -0.170497 -0.0441697 26 102 204
0.147438 -0.160768 -0.0150151 26 102 204
0.154384 -0.149925 0.0452492 26 102 204
0.140623 -0.161488 -0.00560448 26 102 204
0.150704 -0.15171 0.0500452 26 102 204
0.140994 -0.156802 0.0449125 26 102 204
0.151724 -0.153246 0.0395758 26 102 204
0.138796 -0.160059 0.00500686 26 102 204
0.123561 -0.158386 0.0392971 26 102 204
0.136478 -0.158432 -0.00144725 26 102 204
0.14085 -0.155003 0.0576789 26 102 204
0.15924 -0.138083 0.0720975 26 102 204
0.159863 -0.140392 0.0635588 26 102 204
0.158542 -0.141787 0.0664142 26 102 204
0.130746 -0.155169 -0.020087 26 102 204
0.122018 -0.152425 0.0562911 26 102 204
0.126922 -0.150972 0.0436902 26 102 204
0.127997 -0.150382 0.0308241 26 102 204
0.136306 -0.154307 -0.0149834 26 102 204
0.13195 -0.157104 -0.0407587 26 102 204
0.123084 -0.150854 -0.0511765 26 102 204
0.126816 -0.14265 0.0127656 26 102 204
0.128052 -0.144598 -0.0223242 26 102 204
0.138398 -0.130924 -0.0358541 26 102 204
0.149569 -0.132269 -0.0207781 26 102 204
0.128906 -0.136321 0.008409 26 102 204
0.122931 -0.143129 -0.00802721 26 102 204
0.144724 -0.120034 0.0819214 26 102 204
0.119371 -0.131608 0.001101 26 102 204
0.11631 -0.125294 0.0552932 26 102 204
0.111734 -0.133536 0.0411558 26 102 204
0.105471 -0.126133 0.0354134 26 102 204
0.0995703 -0.120541 0.0453602 26 102 204
0.110497 -0.127429 -0.0267864 26 102 204
0.112907 -0.114849 0.0209157 26 102 204
0.101109 -0.128731 -0.0236375 26 102 204
0.10514 -0.12342 -0.035509 26 102 204
0.109661 -0.120659 -0.0375621 26 102 204
0.113154 -0.111165 0.0274109 26 102 204
0.102345 -0.118144 0.0162686 26 102 204
0.120654 -0.0940648 0.0139468 26 102 204
0.116023 -0.103909 -0.016205 26 102 204
0.0986983 -0.108117 -0.00105308 26 102 204
0.11134 -0.102561 -0.0205607 26 102 204
0.102541 -0.111591 0.0622729 26 102 204
0.10328 -0.11003 -0.0202645 26 102 204
0.102167 -0.103289 0.0400786 26 102 204
0.101912 -0.106224 0.0463918 26 102 204
0.111399 -0.0984133 -0.0154193 26 102 204
0.0978083 -0.107019 0.0673748 26 102 204
0.101095 -0.104598 0.065953 26 102 204
0.100439 -0.0918367 0.00615252 26 102 204
0.0982441 -0.0991937 0.0770884 26 102 204
0.10562 -0.0914708 0.00458309 26 102 204
0.0940511 -0.0923998 0.0910068 26 102 204
0.0866151 -0.092408 0.0708302 26 102 204
0.118771 -0.0779213 0.0129446 26 102 204
0.0917258 -0.0914277 0.0141111 26 102 204
0.0931198 -0.0886392 0.0526063 26 102 204
0.118211 -0.0781634 0.0403107 26 102 204
0.113651 -0.0729453 0.0588345 26 102 204
0.115316 -0.0702289 0.0648458 26 102 204
0.11918 -0.0709816 -0.0481827 26 102 204
0.115828 -0.0690382 0.0942238 26 102 204
0.107181 -0.0709149 -0.0327436 26 102 204
0.113259 -0.069979 0.0382038 26 102 204
0.109776 -0.0679846 0.0699849 26 102 204
0.108954 -0.0679402 -0.0104045 26 102 204
0.100391 -0.0741127 0.0783057 26 102 204
0.0963053 -0.0764411 -0.0277332 26 102 204
0.102017 -0.0688033 0.000155812 26 102 204
0.0983138 -0.0749235 0.0925094 26 102 204
0.0992492 -0.0719332 0.0986331 26 102 204
0.0994981 -0.0711107 0.0233909 26 102 204
0.104664 -0.0705276 -0.035683 26 102 204
0.105858 -0.0685902 0.0721873 26 102 204
0.0850715 -0.0764863 0.0972431 26 102 204
0.10102 -0.0651222 0.0198007 26 102 204
0.103738 -0.0645463 -0.0345182 26 102 204
0.102993 -0.0595647 0.0673866 26 102 204
0.102198 -0.0655058 -0.0409091 26 102 204
0.119762 -0.0584934 0.0942775 26 102 204
0.117971 -0.0571945 0.0873062 26 102 204
0.110117 -0.0813937 0.0933057 26 102 204
0.100382 -0.0592963 0.100083 26 102 204
0.106381 -0.0608884 0.0837732 26 102 204
0.0964658 -0.0602506 0.077418 26 102 204
0.0825731 -0.0688867 0.0242423 26 102 204
0.097962 -0.0622329 0.0750506 26 102 204
0.0813655 -0.0739103 0.0885699 26 102 204
0.0939245 -0.0630108 -0.0102693 26 102 204
0.0774958 -0.0710776 0.102688 26 102 204
0.109763 -0.054255 0.0762658 26 102 204
0.0977987 -0.0551309 0.0401513 26 102 204
0.0933126 -0.0568861 0.0771914 26 102 204
0.103754 -0.0537947 0.0883947 26 102 204
0.107397 -0.047204 0.0924722 26 102 204
0.0923493 -0.0583746 0.0462417 26 102 204
0.0992112 -0.0563691 -0.0541432 26 102 204
0.0938426 -0.0506528 0.0869552 26 102 204
0.0874807 -0.0548974 0.0664491 26 102 204
0.0873749 -0.0547306 0.10277 26 102 204
0.0693735 -0.0663296 0.0806976 26 102 204
0.0704872 -0.0653167 0.111727 26 102 204
0.0858113 -0.0558384 0.0869534 26 102 204
0.083247 -0.0510923 0.033709 26 102 204
0.0622751 -0.067083 -0.0446182 26 102 204
0.0682 -0.0578633 -0.00330693 26 102 204
0.0776719 -0.0550271 0.10082 26 102 204
0.046799 -0.0739434 -0.00703592 26 102 204
0.0569286 -0.0651667 0.000438761 26 102 204
0.049519 -0.0710196 -0.0278534 26 102 204
0.0476258 -0.0700291 0.0681888 26 102 204
0.0477474 -0.0723987 0.0320423 26 102 204
0.0435938 -0.0702949 0.0143363 26 102 204
0.0405673 -0.0702686 -0.0861157 26 102 204
0.0428128 -0.0668842 -0.00647046 26 102 204
0.0384014 -0.0749703 -0.00514283 26 102 204
0.0382484 -0.0741495 -0.0996047 26 102 204
0.0344218 -0.078388 -0.0847209 26 102 204
0.0319236 -0.0781669 0.0240896 26 102 204
0.0246587 -0.0770737 0.115053 26 102 204
0.0213345 -0.0844818 0.0965264 26 102 204
0.0102004 -0.0902582 0.098457 26 102 204
0.0135573 -0.0913321 -0.11122 26 102 204
0.00221595 -0.0984782 -0.11903 26 102 204
-0.0770154 -0.166763 -0.102644 26 102 204
-0.0133085 -0.108836 -0.103012 26 102 204
0.0822192 -0.0466118 -0.089972 26 102 204
-0.12703 -0.183237 -0.101772 26 102 204
-0.0430161 -0.116706 -0.0870085 26 102 204
0.0221284 -0.0806193 -0.109946 26 102 204
-0.0983862 -0.153692 -0.099238 26 102 204
-0.132539 -0.174064 -0.0943344 26 102 204
-0.12507 -0.180004 -0.10537 26 102 204
-0.117124 -0.171419 -0.0967123 26 102 204
0.0634486 -0.0491872 -0.0858413 26 102 204
-0.0807501 -0.167099 -0.0850845 26 102 204
0.0984756 -0.0193811 -0.0556846 26 102 204
0.0986286 -0.0184734 -0.0549581 26 102 204
0.102044 -0.016911 0.100105 26 102 204
0.0970758 -0.0176753 -0.0473357 26 102 204
0.0895788 -0.0118867 -0.105396 26 102 204
0.0833822 -0.0240967 0.0785543 26 102 204
0.0870798 -0.0203208 -0.0561569 26 102 204
0.0897205 -0.0277822 -0.0821165 26 102 204
0.0599092 -0.0486051 -0.0857218 26 102 204
0.078709 -0.0328452 -0.115512 26 102 204
0.0716877 -0.0401155 -0.0824996 26 102 204
0.0687659 -0.0405618 -0.0442083 26 102 204
0.0565131 -0.0421999 -0.0616116 26 102 204
0.056863 -0.0481648 -0.10492 26 102 204
0.0536492 -0.0491173 -0.0890744 26 102 204
0.0503409 -0.0488409 -0.0874153 26 102 204
0.056101 -0.0488934 0.00254521 26 102 204
0.0635435 -0.0467493 -0.0670209 26 102 204
0.0605667 -0.0557359 -0.0673768 26 102 204
0.0470602 -0.0546878 -0.134554 26 102 204
0.0433812 -0.0547009 -0.124613 26 102 204
0.0463395 -0.0607121 -0.0710959 26 102 204
0.0446241 -0.060322 -0.0990745 26 102 204
0.041558 -0.0591272 0.0502046 26 102 204
0.0454072 -0.0503362 -0.0579957 26 102 204
0.0417305 -0.0597558 -0.00314979 26 102 204
0.0443695 -0.0589355 -0.115759 26 102 204
0.0439447 -0.0582798 -0.0694097 26 102 204
0.0397446 -0.0657146 0.0440955 26 102 204
0.0357136 -0.0636985 -0.0627927 26 102 204
0.0356312 -0.0621434 0.00748733 26 102 204
0.0578003 -0.0492491 -0.0571721 26 102 204
0.0108688 -0.0771493 -0.123429 26 102 204
0.0510755 -0.0536267 -0.14005 26 102 204
-0.0981842 -0.152955 -0.0874556 26 102 204
0.0993907 -0.013749 -0.0903219 26 102 204
-0.0494961 -0.115947 -0.106989 26 102 204
0.0221299 -0.073772 -0.105738 26 102 204
0.0391468 -0.0611483 -0.0843427 26 102 204
0.0574056 -0.0440522 -0.0220475 26 102 204
0.0245443 -0.0677908 0.0713255 26 102 204
0.0707698 -0.031005 -0.123524 26 102 204
0.0598563 -0.0427982 -0.114376 26 102 204
0.0727346 -0.031323 -0.0289752 26 102 204
0.00792675 -0.077578 -0.111336 26 102 204
0.0240457 -0.0633046 -0.0783295 26 102 204
0.0240681 -0.0640713 -0.0798102 26 102 204
0.0867494 -0.0209325 0.0980359 26 102 204
0.0483018 -0.0441412 0.109124 26 102 204
-0.0635664 -0.123447 -0.109845 26 102 204
0.0812924 -0.020834 -0.124339 26 102 204
-0.125921 -0.165194 -0.109883 26 102 204
0.0380697 -0.0529026 0.0015214 26 102 204
-0.114527 -0.164171 -0.104441 26 102 204
-0.166849 -0.182493 -0.109724 26 102 204
0.0707488 -0.0271016 -0.11242 26 102 204
-0.0819741 -0.132888 -0.100462 26 102 204
0.0472525 -0.0407341 -0.134636 26 102 204
-0.0648114 -0.118226 -0.10328 26 102 204
-0.13879 -0.17177 -0.109388 26 102 204
-0.120932 -0.163529 -0.114188 26 102 204
-0.110743 -0.160488 -0.0995685 26 102 204
-0.0379191 -0.0956057 0.0124234 26 102 204
0.03413 -0.0475392 0.110849 26 102 204
-0.115319 -0.152671 -0.106298 26 102 204
-0.0298389 -0.0955349 -0.0329062 26 102 204
0.0709283 -0.00705475 0.0245395 26 102 204
-0.0244777 -0.0872468 -0.0273785 26 102 204
0.0767129 -0.0191131 0.0800734 26 102 204
-0.0325179 -0.0908874 -0.0984514 26 102 204
-0.0245451 -0.0847583 -0.06043 26 102 204
0.0400154 -0.0369529 0.115115 26 102 204
-0.0304301 -0.0940724 -0.125543 26 102 204
0.026959 -0.0475034 0.0117688 26 102 204
-0.0821743 -0.123711 -0.119817 26 102 204
0.0135888 -0.0546618 -0.138266 26 102 204
-0.0478139 -0.102142 -0.0914711 26 102 204
0.0775479 -0.0122026 -0.146933 26 102 204
0.0768757 -0.0153191 -0.116127 26 102 204
-0.0356042 -0.0890513 -0.00920525 26 102 204
-0.0495768 -0.09962 -0.0352902 26 102 204
-0.0748278 -0.112514 -0.0813307 26 102 204
-0.139683 -0.155984 -0.100018 26 102 204
-0.0889208 -0.123555 -0.098229 26 102 204
-0.0369468 -0.0866863 -0.0285613 26 102 204
0.0375559 -0.0380448 0.0187316 26 102 204
0.0411802 -0.0326713 -0.108347 26 102 204
0.0566815 -0.0198069 0.00196603 26 102 204
0.0721746 -0.0109289 0.0318326 26 102 204
0.0417099 -0.0350055 -0.0266955 26 102 204
-0.0126935 -0.0758496 -0.0637245 26 102 204
0.0115881 -0.0536679 -0.11751 26 102 204
0.0197715 -0.0527313 -0.0582196 26 102 204
-0.0988427 -0.133346 -0.117281 26 102 204
0.0290775 -0.0443836 0.110142 26 102 204
0.0708798 -0.0146213 0.0621399 26 102 204
0.0567574 -0.0218576 -0.020723 26 102 204
-0.03372 -0.090668 -0.0905435 26 102 204
-0.102611 -0.133355 -0.0945692 26 102 204
0.0686113 -0.0115924 -0.00578629 26 102 204
0.0529751 -0.0239115 0.046931 26 102 204
0.0546762 -0.0193076 -0.0637001 26 102 204
-0.131757 -0.14567 -0.10409 26 102 204
-0.108493 -0.128716 -0.102045 26 102 204
0.0710589 -0.025032 -0.028583 26 102 204
-0.129718 -0.152088 -0.0909507 26 102 204
-0.0994022 -0.125383 -0.0733266 26 102 204
-0.112685 -0.138552 -0.0757119 26 102 204
-5.50123e-05 -0.0499106 -0.0111194 26 102 204
0.031229 -0.0384594 -0.133568 26 102 204
-0.0226785 -0.0704898 -0.134629 26 102 204
-0.0842953 -0.112349 -0.0543673 26 102 204
0.0666098 -0.00634559 -0.0067264 26 102 204
-0.00224665 -0.053331 -0.14328 26 102 204
0.0773578 -0.00528153 -0.132711 26 102 204
-0.0675322 -0.105863 -0.0581962 26 102 204
0.0307047 -0.0371537 0.1111 26 102 204
-0.15 -0.161728 -0.128449 26 102 204
-0.0175256 -0.0608163 -0.145607 26 102 204
0.00585584 -0.065749 -0.141529 26 102 204
0.0605491 -0.0105942 -0.114948 26 102 204
-0.133749 -0.142627 -0.0883762 26 102 204
-0.160539 -0.162992 -0.114414 26 102 204
0.0638615 -0.0152765 -0.104339 26 102 204
0.0666097 -0.00887457 0.0347582 26 102 204
0.0157401 -0.042915 -0.00406005 26 102 204
-0.00340206 -0.0646939 0.0289006 26 102 204
-0.00565121 -0.0514717 0.071507 26 102 204
-0.070464 -0.0943587 -0.124494 26 102 204
-0.0296537 -0.0762629 -0.112074 26 102 204
-0.00928532 -0.0494408 -0.149344 26 102 204
0.0448663 -0.001851 0.0711733 26 102 204
-0.0154557 -0.0573515 -0.00291194 26 102 204
0.0455448 -0.019129 -0.113463 26 102 204
0.0447478 -0.0214919 -0.145301 26 102 204
0.0609 0.00048977 0.103437 26 102 204
0.0582544 -0.00825585 0.0338314 26 102 204
-0.132166 -0.144674 -0.142977 26 102 204
0.0269506 -0.026959 -0.0237555 26 102 204
0.051394 -0.0135795 -0.105415 26 102 204
0.0573492 -0.00196601 -0.106905 26 102 204
0.0407726 -0.0263334 -0.0353637 26 102 204
0.0583247 -0.00318668 -0.137157 26 102 204
0.041916 -0.0155961 -0.0853272 26 102 204
0.0530277 -0.00563308 0.0950053 26 102 204
-0.0476401 -0.085384 -0.116894 26 102 204
0.0451414 -0.0132834 -0.146449 26 102 204
0.0622599 0.00195788 -0.136363 26 102 204
0.0362756 -0.0194816 -0.0699385 26 102 204
-0.115303 -0.122709 -0.0939353 26 102 204
0.0555674 -0.00501027 -0.0633756 26 102 204
0.0514453 -0.00712998 0.103103 26 102 204
-0.00195201 -0.0386245 -0.000759839 26 102 204
-0.0076696 -0.044752 0.0142298 26 102 204
0.0579272 -0.0019528 0.0981463 26 102 204
-0.0619472 -0.087134 -0.0792927 26 102 204
0.0278015 -0.0127841 -0.032348 26 102 204
-0.0492057 -0.073252 -0.122934 26 102 204
0.0264779 -0.0250152 0.00985362 26 102 204
0.0312651 -0.0194181 0.0158384 26 102 204
-0.0463378 -0.0721014 0.0126028 26 102 204
-0.0652414 -0.0937206 -0.115186 26 102 204
-0.178743 -0.1706 -0.111534 26 102 204
0.0245117 -0.0215063 0.0264158 26 102 204
-0.0507645 -0.0758555 -0.0059378 26 102 204
-0.0900118 -0.0988421 -0.101191 26 102 204
0.0582387 0.000953832 -0.108672 26 102 204
-0.0894238 -0.10173 -0.012335 26 102 204
-0.080922 -0.0900896 -0.0675322 26 102 204
0.0293401 -0.0166054 0.1052 26 102 204
0.0289207 -0.0208773 0.0939227 26 102 204
0.0108642 -0.0268626 -0.145917 26 102 204
0.0691742 0.00936324 -0.113523 26 102 204
-0.0953963 -0.101589 -0.0455952 26 102 204
0.0406766 -0.00750735 0.058966 26 102 204
0.030709 -0.0134691 -0.0583819 26 102 204
-0.109006 -0.118505 -0.0490717 26 102 204
-0.102121 -0.107933 -0.0798967 26 102 204
-0.062205 -0.0767054 -0.132709 26 102 204
0.0452 -0.00428844 -0.116281 26 102 204
-0.00374604 -0.0374058 0.0716648 26 102 204
-0.126475 -0.119975 -0.073601 26 102 204
-0.119717 -0.120796 -0.0436983 26 102 204
0.0417777 -0.00410126 0.0320055 26 102 204
0.0297875 -0.00900134 -0.177033 26 102 204
0.0197719 -0.0198293 0.0151485 26 102 204
0.0141515 -0.0184609 -0.133556 26 102 204
-0.0487608 -0.0668591 -0.162789 26 102 204
0.0552407 0.00582278 -0.030591 26 102 204
0.0483593 -0.00818123 -0.106512 26 102 204
-0.0828378 -0.0936563 -0.0687775 26 102 204
0.0404756 -0.00408281 0.113437 26 102 204
0.00882023 -0.0255587 -0.125663 26 102 204
-0.084656 -0.0893177 -0.0189678 26 102 204
0.0631545 0.0269158 0.086327 26 102 204
-0.0466817 -0.0626605 -0.0988791 26 102 204
-0.126539 -0.123049 -0.0972193 26 102 204
0.0185122 -0.0173951 -0.0318391 26 102 204
-0.073916 -0.0794093 -0.102705 26 102 204
0.0242078 -0.0132563 -0.00249587 26 102 204
-0.0224508 -0.0561186 -0.100507 26 102 204
-0.165226 -0.145301 -0.100645 26 102 204
-0.0385918 -0.0608718 -0.002093 26 102 204
-0.131929 -0.133473 -0.0936067 26 102 204
0.0370614 -0.00250175 0.0781792 26 102 204
0.0234331 -0.0147128 -0.00177204 26 102 204
-0.0701159 -0.0835612 0.00455671 26 102 204
-0.00767073 -0.0340444 -0.160871 26 102 204
-0.0828896 -0.0862165 -0.1103 26 102 204
-0.0154347 -0.0392323 0.0089908 26 102 204
-0.0329548 -0.0500714 -0.140562 26 102 204
-0.0366168 -0.0519125 -0.147192 26 102 204
-0.0184207 -0.0432293 0.0201805 26 102 204
-8.61067e-05 -0.02455 0.098493 26 102 204
-0.0203654 -0.0421664 -0.00148745 26 102 204
-0.0129676 -0.0354093 0.10574 26 102 204
-0.0215975 -0.0410541 0.00738614 26 102 204
-0.141612 -0.135514 -0.123835 26 102 204
-0.0404299 -0.0604138 -0.124242 26 102 204
0.0286349 -0.00927938 -0.119982 26 102 204
-0.017062 -0.0422909 -0.0160459 26 102 204
-0.0382078 -0.0564245 -0.0115275 26 102 204
-0.0251635 -0.0457779 -0.0555374 26 102 204
0.0463402 0.00492705 0.0784216 26 102 204
-0.0336352 -0.0575703 -0.00869479 26 102 204
0.0563189 0.0154663 0.0928007 26 102 204
-0.0980831 -0.113294 -0.0527248 26 102 204
-0.076985 -0.086546 -0.05928 26 102 204
-0.132842 -0.12574 -0.106048 26 102 204
-0.0901747 -0.114929 -0.0443451 26 102 204
-0.113614 -0.114975 -0.0799987 26 102 204
-0.100562 -0.101347 -0.115461 26 102 204
-0.0904868 -0.0974018 -0.127955 26 102 204
-0.0783058 -0.0879957 0.0422671 26 102 204
-0.0658342 -0.08016 -0.116053 26 102 204
-0.068979 -0.0840108 -0.0963152 26 102 204
-0.0577848 -0.0741133 0.0508974 26 102 204
-0.0593139 -0.0773104 0.0113872 26 102 204
-0.0646503 -0.0762143 0.0353117 26 102 204
-0.0436461 -0.0567221 0.0358892 26 102 204
-0.049802 -0.0654399 0.0510877 26 102 204
-0.0500065 -0.0692998 -0.147112 26 102 204
-0.0437409 -0.0653591 0.031336 26 102 204
-0.0481688 -0.0679748 0.0584759 26 102 204
-0.0414603 -0.0645431 0.0648665 26 102 204
-0.0465728 -0.0663498 -0.142436 26 102 204
-0.0371988 -0.0611348 0.0472188 26 102 204
-0.0421355 -0.0663873 0.0535155 26 102 204
-0.0338616 -0.0616521 0.0739519 26 102 204
-0.0261829 -0.0577346 -0.139755 26 102 204
-0.0393241 -0.0646223 -0.138879 26 102 204
0.0156478 -0.114973 0.0501701 26 102 204
-0.051265 -0.0669029 -0.12173 26 102 204
-0.0233751 -0.0503777 0.0717292 26 102 204
-0.0253363 -0.0527686 0.0305674 26 102 204
-0.0103604 -0.040952 0.0500041 26 102 204
-0.00952271 -0.0360884 0.0473455 26 102 204
-0.00586931 -0.0350982 -0.150036 26 102 204
0.000710095 -0.0318966 0.0292131 26 102 204
0.00185263 -0.0293015 0.0311627 26 102 204
0.00137195 -0.027632 -0.0904578 26 102 204
0.00767433 -0.0159431 -0.162049 26 102 204
0.00748032 -0.0247895 -0.11195 26 102 204
0.0113861 -0.0227309 0.0206227 26 102 204
0.00630621 -0.0256134 -0.138061 26 102 204
0.00593134 -0.0213842 -0.119205 26 102 204
0.00915286 -0.0152996 -0.0914087 26 102 204
0.0101411 -0.0219344 -0.0210902 26 102 204
0.0221337 -0.0373364 -0.0308115 26 102 204
0.0156458 -0.0184042 -0.0106245 26 102 204
0.0127453 -0.0214644 -0.108226 26 102 204
0.0121714 -0.020518 -0.0944738 26 102 204
0.0151762 -0.0186674 -0.0936594 26 102 204
0.00745768 -0.0156577 0.02284 26 102 204
0.0170955 -0.0173509 -0.0208249 26 102 204
0.0153935 -0.0156727 -0.036166 26 102 204
0.0219759 -0.012197 -0.133239 26 102 204
0.00945202 -0.0188023 -0.11698 26 102 204
0.0167447 -0.0166295 -0.0695242 26 102 204
0.0269652 -0.00955974 -0.042893 26 102 204
0.0474787 0.0179033 -0.0369575 26 102 204
0.0111088 -0.0161124 -0.111742 26 102 204
0.039788 0.00103778 0.0050625 26 102 204
-0.0234367 -0.0357102 -0.0232159 26 102 204
0.0149757 -0.0176292 -0.00763276 26 102 204
0.013874 -0.012733 0.00537464 26 102 204
-0.00661133 -0.0287491 -0.0201265 26 102 204
0.0592812 0.00235265 -0.118705 26 102 204
0.0648088 -0.0172905 -0.100925 26 102 204
-0.204877 -0.163172 -0.10567 26 102 204
0.00906508 -0.0182677 -0.124304 26 102 204
-0.176159 -0.133642 -0.095371 26 102 204
-0.0958719 -0.0926828 -0.125319 26 102 204
-0.0686836 -0.0719988 -0.102633 26 102 204
0.0584782 0.0170198 -0.118476 26 102 204
-0.0269349 -0.0392073 -0.102234 26 102 204
-0.0751479 -0.0696606 -0.116636 26 102 204
-0.0813209 -0.0711748 -0.100192 26 102 204
0.0313679 0.0137141 -0.138155 26 102 204
0.0149931 0.005754 -0.0598524 26 102 204
0.0559722 0.0435911 -0.057332 26 102 204
0.0611464 0.0275324 -0.133176 26 102 204
-0.0865192 -0.0725029 -0.100656 26 102 204
-0.055754 -0.0442404 -0.0759225 26 102 204
0.0587245 0.0269545 0.070957 26 102 204
0.0614423 0.0291875 -0.125663 26 102 204
-0.0699926 -0.056329 -0.0839644 26 102 204
-0.0776915 -0.0648881 -0.109629 26 102 204
-0.0841767 -0.0659092 -0.0922292 26 102 204
0.0698548 0.0408362 0.0862359 26 102 204
0.0524305 0.0104188 -0.0410722 26 102 204
0.0437804 0.0434212 -0.0599554 26 102 204
0.0382502 0.0270301 -0.0302976 26 102 204
-0.0384404 -0.0152228 -0.0652644 26 102 204
0.0559876 0.0359097 -0.0802753 26 102 204
0.052779 0.0313297 -0.0820086 26 102 204
0.0665659 0.0372673 0.110781 26 102 204
-0.0539238 -0.02826 -0.0623947 26 102 204
0.0400743 0.0263358 -0.0608609 26 102 204
0.0390362 0.0408822 0.0641807 26 102 204
-0.0365336 0.0291468 -0.00707708 26 102 204
0.019363 0.0102437 -0.149262 26 102 204
0.0605712 0.0344027 0.0199285 26 102 204
0.0566363 0.035804 -0.0170857 26 102 204
0.0593786 0.0343095 -0.0556005 26 102 204
0.0482294 0.0290542 -0.0439457 26 102 204
0.0549387 0.0415119 -0.081228 26 102 204
0.0616599 0.0336721 -0.0642206 26 102 204
0.0536104 0.0313028 0.00358422 26 102 204
0.060377 0.0368682 0.0872344 26 102 204
0.061318 0.0383709 -0.0261259 26 102 204
0.0446773 0.0346944 0.00371833 26 102 204
0.0599868 0.0354158 0.0431229 26 102 204
0.0480769 0.0488096 0.0316251 26 102 204
0.0590832 0.0436849 -0.0129545 26 102 204
0.0550697 0.0383134 0.106204 26 102 204
0.058109 0.038708 0.0719205 26 102 204
0.0467705 0.0409248 0.0927509 26 102 204
0.0362724 0.0309887 0.0501042 26 102 204
0.0427921 0.0387639 0.0187342 26 102 204
0.0498103 0.0373479 -0.0420457 26 102 204
0.0396718 0.0303221 0.107457 26 102 204
0.0431005 0.0369151 0.0645108 26 102 204
0.0406956 0.0341996 0.0572365 26 102 204
0.0407763 0.0371692 0.0599857 26 102 204
0.02873 0.0431072 0.00646565 26 102 204
0.0347093 0.0354779 0.0506435 26 102 204
0.0282678 0.0393398 0.0396015 26 102 204
0.0366233 0.0362903 0.0913596 26 102 204
0.0342227 0.0350563 -0.0243615 26 102 204
0.0282962 0.0293259 0.0971208 26 102 204
0.0322187 0.0329541 0.0704968 26 102 204
0.0346924 0.0360988 0.053923 26 102 204
0.0336086 0.0401776 0.0851205 26 102 204
-0.0238249 -0.0321936 -0.0159827 26 102 204
0.0289243 0.038498 -0.0525551 26 102 204
0.0359498 0.0401998 -0.0254162 26 102 204
0.0106685 0.0413554 0.0754958 26 102 204
0.0100726 0.0372174 0.0558178 26 102 204
0.0117497 0.0399594 0.0477569 26 102 204
0.0103483 0.0406062 0.0933941 26 102 204
0.00725216 0.0448696 0.0212828 26 102 204
0.00623166 0.00291061 0.0394144 26 102 204
0.00154688 0.0474127 -0.0281621 26 102 204
0.00430632 0.0516841 0.0575281 26 102 204
0.00793385 0.0599226 -6.64216e-06 26 102 204
-0.00299961 0.0509619 0.0248333 26 102 204
-0.0010547 0.049744 0.0297016 26 102 204
-0.00495715 0.050351 0.0865309 26 102 204
-0.00466377 0.0541136 0.0102234 26 102 204
-0.00359398 0.0483759 -0.0124815 26 102 204
0.0050568 0.0611892 -0.0233471 26 102 204
-0.00319298 0.0595649 0.0777425 26 102 204
-0.00819626 0.0560394 0.0958907 26 102 204
-0.0134269 0.0582127 -0.00665064 26 102 204
-0.0070392 0.06505 0.0884694 26 102 204
-0.0155252 0.0626178 0.0252923 26 102 204
-0.0155522 0.0763659 0.101639 26 102 204
-0.0169031 0.0675771 0.00175766 26 102 204
-0.0239669 0.0726854 0.07951 26 102 204
-0.0144124 0.0724704 0.00515083 26 102 204
-0.0319615 0.0737431 -0.0166631 26 102 204
-0.0214914 0.0715933 0.0458842 26 102 204
-0.0130136 0.0698675 0.0768205 26 102 204
-0.0239795 0.0730464 0.0622564 26 102 204
-0.0203608 0.0799263 0.0286636 26 102 204
-0.0318188 0.0785839 0.0334629 26 102 204
-0.0222079 0.0855572 -0.0351333 26 102 204
-0.0259983 0.082013 0.046462 26 102 204
-0.025549 0.0842821 0.0740353 26 102 204
-0.0392326 0.0803972 -0.0590372 26 102 204
-0.0365298 0.082605 0.0901731 26 102 204
-0.0408547 0.0898535 0.00333009 26 102 204
-0.0480971 0.0905018 -0.0332199 26 102 204
-0.037112 0.0899654 0.0500373 26 102 204
-0.0450923 0.0925774 -0.0250575 26 102 204
-0.0526705 0.0932019 -0.00492974 26 102 204
-0.144516 0.233405 0.0894958 26 102 204
-0.0430803 0.102246 -0.00224115 26 102 204
-0.0560252 0.0942171 0.0105503 26 102 204
-0.0505557 0.102551 -0.0247687 26 102 204
-0.0379375 0.107785 0.0207268 26 102 204
-0.0444452 0.103474 0.021478 26 102 204
-0.0428214 0.109736 0.0211392 26 102 204
-0.047899 0.113637 -0.0726212 26 102 204
-0.0321639 0.123806 0.0189346 26 102 204
-0.0560366 0.10802 0.0529192 26 102 204
-0.0522329 0.115348 0.00486829 26 102 204
-0.0427498 0.127481 -0.0129899 26 102 204
-0.0541937 0.124842 -0.0179075 26 102 204
-0.0441432 0.127835 -0.0286807 26 102 204
-0.0510668 0.130004 0.0556115 26 102 204
-0.0623245 0.114593 0.042711 26 102 204
-0.0357889 0.134221 -0.043571 26 102 204
-0.063171 0.124509 0.0397026 26 102 204
-0.0616627 0.131154 -0.0724687 26 102 204
-0.0633565 0.121234 -0.00347594 26 102 204
-0.0684142 0.121621 0.0269495 26 102 204
-0.0614984 0.130363 -0.0748885 26 102 204
-0.0600287 0.13329 -0.0675715 26 102 204
-0.0618919 0.130673 0.0107503 26 102 204
-0.0669357 0.134848 0.0986865 26 102 204
-0.0712637 0.131646 0.0417505 26 102 204
-0.0703812 0.137719 0.0784303 26 102 204
-0.0661992 0.138544 -0.0101661 26 102 204
-0.0803901 0.130801 0.0236506 26 102 204
-0.0692185 0.138328 0.098159 26 102 204
-0.0744296 0.14081 -0.0759696 26 102 204
-0.0750813 0.135149 0.0995769 26 102 204
-0.0617363 0.149184 -0.046964 26 102 204
-0.0676441 0.14846 0.0298803 26 102 204
-0.0604277 0.154597 -0.0517675 26 102 204
-0.0742977 0.142101 0.0434301 26 102 204
-0.080874 0.145049 -0.0600701 26 102 204
-0.0735955 0.15367 0.0239389 26 102 204
-0.0638496 0.154363 0.0767495 26 102 204
-0.0767702 0.147417 0.0817584 26 102 204
-0.0809958 0.147389 -0.0538318 26 102 204
-0.0649709 0.159857 0.0791658 26 102 204
-0.0784159 0.151505 -0.030755 26 102 204
-0.0730292 0.156675 0.0197258 26 102 204
-0.0772473 0.156499 0.0720028 26 102 204
-0.0747635 0.158217 0.0550621 26 102 204
-0.0756685 0.16251 -0.0267707 26 102 204
-0.0773357 0.163588 0.0933372 26 102 204
-0.0878015 0.157346 0.0696537 26 102 204
-0.0778097 0.162143 -0.0140065 26 102 204
-0.0791441 0.163795 -0.0190332 26 102 204
-0.0849985 0.160209 -0.0678581 26 102 204
-0.0801681 0.163142 -0.0589504 26 102 204
-0.0793663 0.1684 -0.0213141 26 102 204
-0.0411119 0.0833522 -0.0129303 26 102 204
-0.0899978 0.16451 -0.0413523 26 102 204
-0.0864015 0.176719 -0.0706984 26 102 204
-0.098931 0.162608 0.0761466 26 102 204
-0.0928865 0.168385 0.0640571 26 102 204
-0.0985714 0.17064 0.0720033 26 102 204
-0.0977429 0.166067 0.0474309 26 102 204
-0.0985856 0.174537 0.0210964 26 102 204
-0.10748 0.172666 0.0224115 26 102 204
-0.106972 0.176966 0.0407088 26 102 204
-0.109633 0.18329 -0.0171256 26 102 204
-0.108738 0.189719 0.0714052 26 102 204
-0.103422 0.194742 -0.0137034 26 102 204
-0.123879 0.191835 0.041993 26 102 204
-0.133596 0.198611 0.0810897 26 102 204
-0.120868 0.187236 0.0478889 26 102 204
-0.14367 0.199138 0.0583205 26 102 204
-0.133303 0.197842 0.0303255 26 102 204
-0.132815 0.204481 0.00707057 26 102 204
-0.135934 0.205602 0.00376303 26 102 204
-0.136791 0.207289 0.0555176 26 102 204
-0.140506 0.212749 0.0740112 26 102 204
-0.143425 0.216554 0.0177925 26 102 204
-0.139216 0.211965 0.0422223 26 102 204
-0.14915 0.211199 0.0764565 26 102 204
-0.151268 0.216633 0.0345241 26 102 204
-0.150447 0.221391 0.0531701 26 102 204
-0.149497 0.227454 0.0607873 26 102 204
-0.153611 0.227794 -0.0230236 26 102 204
-0.155671 0.226855 0.0145667 26 102 204
-0.157741 0.2298 -0.00340334 26 102 204
-0.15628 0.234906 0.00366994 26 102 204
-0.154555 0.233436 0.0135522 26 102 204
-0.162728 0.233628 0.0298439 26 102 204
-0.154826 0.227766 0.0581357 26 102 204
-0.160151 0.235534 0.0754704 26 102 204
-0.158916 0.237405 0.0530717 26 102 204
-0.1632 0.226921 0.0449801 26 102 204
-0.16241 0.240855 -0.0243322 26 102 204
-0.170359 0.234627 0.0422158 26 102 204
-0.165058 0.24468 -0.00755554 26 102 204
-0.166992 0.242887 0.0289287 26 102 204
-0.165968 0.247242 0.0433323 26 102 204
-0.161839 0.248445 0.0625932 26 102 204
-0.205346 0.295267 0.0321202 26 102 204
-0.174026 0.252551 -0.00804939 26 102 204
-0.169823 0.251627 0.0401868 26 102 204
-0.169832 0.255064 0.0686418 26 102 204
-0.174395 0.255552 0.0914867 26 102 204
-0.170538 0.253507 0.0618371 26 102 204
-0.172016 0.256495 0.034781 26 102 204
-0.184397 0.25118 0.0712523 26 102 204
-0.173385 0.259885 0.0596621 26 102 204
-0.179336 0.259452 0.0445805 26 102 204
-0.185504 0.254931 0.0846887 26 102 204
-0.179048 0.26285 0.086809 26 102 204
-0.177124 0.275373 0.11143 26 102 204
-0.186823 0.267038 0.107775 26 102 204
-0.18296 0.267107 0.0694005 26 102 204
-0.182951 0.269157 0.0600478 26 102 204
-0.187456 0.267324 0.00390874 26 102 204
-0.193158 0.268409 0.086675 26 102 204
-0.186108 0.281989 0.0200497 26 102 204
-0.199471 0.275867 -0.0248731 26 102 204
-0.204229 0.289698 0.0348867 26 102 204
-0.198796 0.276323 0.0693132 26 102 204
-0.195852 0.280716 0.0802461 26 102 204
-0.205184 0.280901 0.0711527 26 102 204
-0.196035 0.276837 0.00889625 26 102 204
-0.193717 0.280729 -0.0423905 26 102 204
-0.202141 0.280533 0.0541943 26 102 204
-0.20353 0.289359 0.0944028 26 102 204
-0.205084 0.279409 -0.0387793 26 102 204
-0.215925 0.280432 0.129353 26 102 204
-0.211812 0.28248 0.0934788 26 102 204
-0.215527 0.274444 0.0470394 26 102 204
-0.198788 0.288506 0.123703 26 102 204
-0.210022 0.281192 0.0455141 26 102 204
-0.213297 0.279746 0.0996691 26 102 204
-0.213536 0.279352 0.0772892 26 102 204
-0.207848 0.282236 0.0247369 26 102 204
-0.216773 0.279337 0.0224016 26 102 204
-0.213355 0.285131 0.0367591 26 102 204
-0.229065 0.278554 -0.085493 26 102 204
-0.230122 0.271159 0.00741296 26 102 204
-0.223762 0.270109 0.100312 26 102 204
-0.214314 0.284215 0.0181719 26 102 204
-0.225463 0.283344 0.103028 26 102 204
-0.24158 0.271003 0.0708899 26 102 204
-0.203046 0.299227 0.0318273 26 102 204
-0.226069 0.283761 0.0187369 26 102 204
-0.210345 0.294922 0.0127636 26 102 204
-0.204612 0.299226 0.0420338 26 102 204
-0.208719 0.298304 0.0584204 26 102 204
-0.232188 0.279931 0.0488767 26 102 204
-0.22274 0.29134 -0.04504 26 102 204
-0.224786 0.287537 -0.0169175 26 102 204
-0.222391 0.28985 0.134685 26 102 204
-0.219368 0.290558 -0.0218519 26 102 204
-0.230101 0.282314 0.0352703 26 102 204
-0.22278 0.290159 0.120049 26 102 204
-0.21081 0.305368 0.140696 26 102 204
-0.210481 0.299002 0.128512 26 102 204
-0.236785 0.282228 0.0668458 26 102 204
-0.24326 0.283602 0.0815108 26 102 204
-0.232322 0.287001 0.0673679 26 102 204
-0.240082 0.279662 0.0981454 26 102 204
-0.219877 0.301623 0.00963899 26 102 204
-0.217091 0.301725 0.109559 26 102 204
-0.210546 0.308051 -0.00124773 26 102 204
-0.242232 0.283743 0.0662376 26 102 204
-0.205811 0.309676 0.10803 26 102 204
-0.208471 0.30744 0.0707102 26 102 204
-0.216272 0.312402 0.0762571 26 102 204
-0.226611 0.299323 0.132732 26 102 204
-0.214825 0.308379 0.122354 26 102 204
-0.236392 0.287819 0.0769573 26 102 204
-0.21342 0.315834 0.131219 26 102 204
-0.212346 0.314171 0.131306 26 102 204
-0.236662 0.302273 0.133329 26 102 204
-0.23584 0.302703 0.133598 26 102 204
-0.230424 0.306551 0.14218 26 102 204
-0.237538 0.301044 0.103598 26 102 204
-0.239835 0.304991 0.128316 26 102 204
-0.23716 0.299127 -0.00578099 26 102 204
-0.242542 0.298252 0.0260566 26 102 204
-0.235302 0.307002 -0.0262798 26 102 204
-0.225767 0.309908 -0.006121 26 102 204
-0.242524 0.301932 0.131605 26 102 204
-0.22737 0.31137 0.0578816 26 102 204
-0.22509 0.314031 0.0474679 26 102 204
-0.2274 0.317601 0.102277 26 102 204
-0.230635 0.317584 0.115994 26 102 204
-0.236477 0.314394 0.0266845 26 102 204
-0.241566 0.313995 0.00580554 26 102 204
-0.233543 0.320598 -0.0145904 26 102 204
-0.235008 0.322028 -0.00591056 26 102 204
-0.221295 0.335694 0.000865673 26 102 204
-0.244128 0.314357 0.0927463 26 102 204
-0.235335 0.31816 0.0670235 26 102 204
-0.216123 0.333286 -0.00978067 26 102 204
-0.22675 0.325925 0.136545 26 102 204
-0.230988 0.326201 0.0681105 26 102 204
-0.229943 0.325517 0.0451859 26 102 204
-0.235085 0.323246 0.127389 26 102 204
-0.234524 0.324423 0.0690079 26 102 204
-0.241986 0.31942 -0.0922053 26 102 204
-0.231442 0.329012 0.075055 26 102 204
-0.232803 0.323664 0.117195 26 102 204
-0.238417 0.330005 0.0226146 26 102 204
-0.249383 0.31947 0.0307505 26 102 204
-0.228072 0.335163 0.105239 26 102 204
-0.253311 0.324541 0.0823274 26 102 204
-0.23572 0.331207 0.00309959 26 102 204
-0.23931 0.333448 0.0625852 26 102 204
-0.235745 0.330744 -0.0221757 26 102 204
-0.236476 0.331957 0.133035 26 102 204
-0.240138 0.331857 -0.0873422 26 102 204
-0.2478 0.339914 0.0705886 26 102 204
-0.239918 0.335946 0.00661458 26 102 204
-0.246498 0.335702 0.10089 26 102 204
-0.240858 0.335602 0.0968857 26 102 204
-0.244421 0.338242 0.0955165 26 102 204
-0.231563 0.338273 0.0754739 26 102 204
-0.236998 0.341372 0.0193803 26 102 204
-0.24196 0.327228 0.102604 26 102 204
-0.248185 0.33768 0.0863614 26 102 204
-0.255429 0.348514 0.0583385 26 102 204
-0.236922 0.343416 0.0309946 26 102 204
-0.246167 0.341569 0.0503698 26 102 204
-0.245101 0.340399 -0.018885 26 102 204
-0.238384 0.33926 0.0872886 26 102 204
-0.246517 0.348526 0.042565 26 102 204
-0.255337 0.347404 0.0166588 26 102 204
-0.246264 0.346323 0.0286742 26 102 204
-0.244352 0.346338 0.0517507 26 102 204
-0.252274 0.349547 -0.0020382 26 102 204
-0.253599 0.352516 0.0213338 26 102 204
-0.251319 0.351262 0.0149899 26 102 204
-0.262649 0.357366 0.02608 26 102 204
-0.254278 0.366049 0.0162575 26 102 204
-0.249078 0.361337 -0.0252576 26 102 204
-0.267823 0.368781 0.0285211 26 102 204
-0.265695 0.362419 -0.0013291 26 102 204
-0.268642 0.373798 0.0164284 26 102 204
-0.27051 0.364444 0.00397631 26 102 204
-0.27748 0.366396 -0.0327864 26 102 204
-0.268384 0.372518 -0.00177781 26 102 204
-0.276196 0.380203 0.00566513 26 102 204
-0.300441 0.384554 0.0241183 26 102 204
-0.277264 0.385888 -0.0120087 26 102 204
-0.275623 0.384768 -0.00662747 26 102 204
-0.281205 0.389361 0.00304317 26 102 204
-0.29505 0.38726 0.0323189 26 102 204
-0.281924 0.388689 -0.0107517 26 102 204
-0.290021 0.394574 0.00252163 26 102 204
-0.28151 0.400397 -0.0213281 26 102 204
-0.281842 0.404529 0.042416 26 102 204
-0.28358 0.401521 0.0151253 26 102 204
-0.29172 0.403625 -0.0139553 26 102 204
-0.294131 0.40736 0.0214467 26 102 204
-0.293423 0.409955 0.0384522 26 102 204
-0.288206 0.41287 0.0350017 26 102 204
-0.292053 0.401762 0.00137259 26 102 204
-0.297216 0.416706 0.0270411 26 102 204
-0.303588 0.415777 0.0265823 26 102 204
-0.295898 0.422205 0.0310992 26 102 204
-0.300309 0.416112 -0.0358656 26 102 204
-0.303919 0.426982 -0.00123864 26 102 204
-0.307046 0.423552 0.00393108 26 102 204
-0.295894 0.409622 -0.0114835 26 102 204
-0.278167 0.395916 -0.0394741 26 102 204
-0.307636 0.430252 -0.0288867 26 102 204
-0.306262 0.427248 -0.0232662 26 102 204
-0.306397 0.43762 0.0173703 26 102 204
-0.315306 0.433622 0.0141257 26 102 204
-0.31615 0.436805 0.045408 26 102 204
-0.338102 0.436564 0.0342642 26 102 204
-0.321388 0.448028 0.00287046 26 102 204
-0.328067 0.43862 0.0294316 26 102 204
-0.315388 0.44619 0.0223066 26 102 204
-0.32408 0.457668 -0.00405041 26 102 204
-0.336798 0.44628 0.00414486 26 102 204
-0.327394 0.461061 -0.0170704 26 102 204
-0.33733 0.46416 0.0102903 26 102 204
-0.317889 0.463803 -0.0203384 26 102 204
-0.328426 0.472065 -0.00509034 26 102 204
-0.341207 0.46896 0.0433201 26 102 204
-0.354525 0.472727 0.0110186 26 102 204
-0.350268 0.474748 -0.0155263 26 102 204
-0.343664 0.472235 -0.0222658 26 102 204
-0.343538 0.467299 0.0112249 26 102 204
-0.342498 0.484184 0.00365273 26 102 204
-0.338095 0.477211 0.0199844 26 102 204
