ply
format ascii 1.0
comment Created by Open3D
element vertex 1024
property double x
property double y
property double z
property uchar red
property uchar green
property uchar blue
end_header
-0.49723 -0.170915 -0.00355928 26 102 204
-0.490179 -0.165994 0.00703522 26 102 204
-0.483747 -0.17309 -0.0678824 26 102 204
-0.478304 -0.172834 0.0358574 26 102 204
-0.476005 -0.163215 0.0292519 26 102 204
-0.475551 -0.169992 -0.0741882 26 102 204
-0.475042 -0.170069 -0.00625872 26 102 204
-0.47791 -0.169447 -0.00271576 26 102 204
-0.470524 -0.16335 -0.0267493 26 102 204
-0.465152 -0.167184 0.033993 26 102 204
-0.468237 -0.15761 -0.0863195 26 102 204
-0.463602 -0.152902 0.0636855 26 102 204
-0.462009 -0.173828 -0.0348108 26 102 204
-0.453713 -0.150674 0.0176093 26 102 204
-0.449247 -0.15156 0.0337885 26 102 204
-0.453455 -0.164008 0.0486462 26 102 204
-0.453938 -0.164386 -0.0953541 26 102 204
-0.45333 -0.157737 -0.011451 26 102 204
-0.446203 -0.161342 0.0190424 26 102 204
-0.451689 -0.159674 0.0366005 26 102 204
-0.447248 -0.15439 -0.0452962 26 102 204
-0.446451 -0.156046 0.0226203 26 102 204
-0.445862 -0.152879 0.0342033 26 102 204
-0.444604 -0.159325 -0.0139507 26 102 204
-0.4476 -0.152552 -0.116389 26 102 204
-0.44478 -0.154451 -0.104168 26 102 204
-0.445361 -0.155436 -0.000839002 26 102 204
-0.441306 -0.148778 -0.0382468 26 102 204
-0.432948 -0.133468 0.0272376 26 102 204
-0.441179 -0.150496 -0.000106488 26 102 204
-0.442514 -0.147982 -0.0800101 26 102 204
-0.441635 -0.157092 -0.0947678 26 102 204
-0.43784 -0.156987 -0.0899175 26 102 204
-0.437088 -0.157563 -0.0488653 26 102 204
-0.434496 -0.151359 0.0447622 26 102 204
-0.437355 -0.154366 -0.0806927 26 102 204
-0.426063 -0.157659 -0.113934 26 102 204
-0.425169 -0.144362 -0.0378182 26 102 204
-0.433145 -0.15737 -0.0287903 26 102 204
-0.432177 -0.153015 0.0649112 26 102 204
-0.414925 -0.158053 -0.105134 26 102 204
-0.416992 -0.146124 0.0362217 26 102 204
-0.422208 -0.148751 -0.116216 26 102 204
-0.419041 -0.140753 -0.108096 26 102 204
-0.41893 -0.151231 -0.109981 26 102 204
-0.42345 -0.142503 0.0499833 26 102 204
-0.414681 -0.143264 0.0423102 26 102 204
-0.420115 -0.143711 -0.124749 26 102 204
-0.414263 -0.143323 -0.124634 26 102 204
-0.416346 -0.139794 -0.134316 26 102 204
-0.409542 -0.142571 0.0714097 26 102 204
-0.41471 -0.139801 -0.106176 26 102 204
-0.409487 -0.139202 -0.0152018 26 102 204
-0.402829 -0.141442 0.0461163 26 102 204
-0.407732 -0.134357 -0.0479602 26 102 204
-0.402945 -0.140836 0.0813998 26 102 204
-0.406604 -0.134418 0.0592748 26 102 204
-0.405521 -0.139242 0.0702966 26 102 204
-0.391849 -0.141144 0.0747904 26 102 204
-0.404321 -0.135724 -0.115487 26 102 204
-0.401478 -0.137528 -0.0922737 26 102 204
-0.401898 -0.140731 -0.12132 26 102 204
-0.389263 -0.158614 0.00998781 26 102 204
-0.392129 -0.131065 -0.100142 26 102 204
-0.389877 -0.139592 -0.123654 26 102 204
-0.39106 -0.13802 0.0467756 26 102 204
-0.387987 -0.13409 -0.134393 26 102 204
-0.389009 -0.137083 -0.02109 26 102 204
-0.387645 -0.123011 -0.0737149 26 102 204
-0.387042 -0.13331 0.0349862 26 102 204
-0.385412 -0.139636 0.0434315 26 102 204
-0.386935 -0.133298 0.00676279 26 102 204
-0.378671 -0.13722 0.0782081 26 102 204
-0.382631 -0.138674 0.0746119 26 102 204
-0.382772 -0.133281 0.0727517 26 102 204
-0.380341 -0.129712 0.0492908 26 102 204
-0.378676 -0.130452 0.0175183 26 102 204
-0.372973 -0.132929 -0.0943099 26 102 204
-0.379503 -0.133073 0.081432 26 102 204
-0.378747 -0.129531 0.00726462 26 102 204
-0.379252 -0.131413 -0.0764632 26 102 204
-0.378861 -0.133005 0.0740658 26 102 204
-0.375623 -0.126962 0.0679967 26 102 204
-0.370811 -0.131918 0.0339204 26 102 204
-0.374732 -0.12604 0.0238033 26 102 204
-0.371562 -0.128792 0.0657305 26 102 204
-0.366548 -0.127176 0.0504465 26 102 204
-0.373865 -0.119827 -0.0976292 26 102 204
-0.359711 -0.144334 0.0165508 26 102 204
-0.367128 -0.133878 0.0825085 26 102 204
-0.36325 -0.122299 -0.0962306 26 102 204
-0.358088 -0.127761 -0.114925 26 102 204
-0.355809 -0.126668 0.000290281 26 102 204
-0.36107 -0.122042 0.00286187 26 102 204
-0.34465 -0.169634 -0.0202569 26 102 204
-0.348131 -0.145162 -0.0952456 26 102 204
-0.336561 -0.172585 -0.00855114 26 102 204
-0.358402 -0.131282 -0.0952498 26 102 204
-0.352766 -0.113953 -0.0815076 26 102 204
-0.348346 -0.148115 0.014823 26 102 204
-0.351444 -0.123208 0.0910366 26 102 204
-0.358216 -0.117447 -0.104052 26 102 204
-0.355464 -0.124517 0.00990293 26 102 204
-0.345712 -0.150801 0.0057483 26 102 204
-0.347025 -0.123395 0.0493308 26 102 204
-0.339743 -0.158637 0.0331964 26 102 204
-0.35368 -0.116864 -0.0779893 26 102 204
-0.349296 -0.119534 -0.000237506 26 102 204
-0.345761 -0.127317 -0.113976 26 102 204
-0.340914 -0.120911 0.0181713 26 102 204
-0.339319 -0.114459 -0.107081 26 102 204
-0.338616 -0.119849 -0.112989 26 102 204
-0.342226 -0.118483 -0.0310631 26 102 204
-0.34014 -0.119708 0.103873 26 102 204
-0.339263 -0.127893 0.00492254 26 102 204
-0.339628 -0.119369 0.10203 26 102 204
-0.340997 -0.119879 -0.130178 26 102 204
-0.331884 -0.115733 -0.0927079 26 102 204
-0.335227 -0.115656 -0.08493 26 102 204
-0.331789 -0.115555 0.0220147 26 102 204
-0.325804 -0.112133 -0.00809855 26 102 204
-0.3293 -0.115815 -0.0189776 26 102 204
-0.327819 -0.117592 -0.0761254 26 102 204
-0.325479 -0.118201 -0.124265 26 102 204
-0.333409 -0.118259 0.0271817 26 102 204
-0.330805 -0.113866 0.124303 26 102 204
-0.328751 -0.123672 -0.0762728 26 102 204
-0.325352 -0.126059 -0.102333 26 102 204
-0.32639 -0.113775 -0.120201 26 102 204
-0.317579 -0.132007 0.00371179 26 102 204
-0.320679 -0.118336 0.0124455 26 102 204
-0.321775 -0.109522 -0.101202 26 102 204
-0.31424 -0.114895 -0.105239 26 102 204
-0.323995 -0.109444 -0.0831261 26 102 204
-0.307498 -0.131126 0.0652428 26 102 204
-0.313375 -0.105176 -0.0965212 26 102 204
-0.315411 -0.104312 -0.0158992 26 102 204
-0.305817 -0.10103 -0.110001 26 102 204
-0.307797 -0.105861 0.0138744 26 102 204
-0.308632 -0.117718 -0.0752421 26 102 204
-0.310746 -0.118396 -0.0453118 26 102 204
-0.31148 -0.111274 -0.0754136 26 102 204
-0.310949 -0.105406 -0.059239 26 102 204
-0.299891 -0.121804 0.117255 26 102 204
-0.3053 -0.117175 -0.0728978 26 102 204
-0.341922 -0.120581 -0.13754 26 102 204
-0.310141 -0.106532 -0.113291 26 102 204
-0.315351 -0.10778 -0.0180861 26 102 204
-0.303347 -0.107265 -0.112654 26 102 204
-0.310927 -0.11051 -0.0983504 26 102 204
-0.297093 -0.115388 0.125007 26 102 204
-0.315155 -0.112877 0.110851 26 102 204
-0.302038 -0.111491 0.121093 26 102 204
-0.304592 -0.109372 -0.115274 26 102 204
-0.329646 -0.11235 -0.124763 26 102 204
-0.284743 -0.0941964 -0.014529 26 102 204
-0.28876 -0.0997621 0.141533 26 102 204
-0.297331 -0.110879 0.0466162 26 102 204
-0.296087 -0.111511 -0.0771668 26 102 204
-0.31605 -0.111405 0.000107099 26 102 204
-0.299001 -0.106953 0.00111839 26 102 204
-0.292829 -0.102286 0.129507 26 102 204
-0.288873 -0.102855 0.0258671 26 102 204
-0.294428 -0.101802 -0.0387761 26 102 204
-0.302672 -0.10617 0.128771 26 102 204
-0.297401 -0.104069 0.100567 26 102 204
-0.290504 -0.110647 -0.12684 26 102 204
-0.289478 -0.0999332 -0.0632772 26 102 204
-0.291873 -0.104875 0.0364777 26 102 204
-0.291029 -0.101851 0.00939183 26 102 204
-0.288199 -0.102366 0.117356 26 102 204
-0.284041 -0.0928093 0.0354829 26 102 204
-0.283839 -0.0973365 -0.0468169 26 102 204
-0.281814 -0.100138 -0.000255298 26 102 204
-0.280489 -0.0990418 0.00172829 26 102 204
-0.285224 -0.0983398 0.0619265 26 102 204
-0.28168 -0.10124 0.0361192 26 102 204
-0.286275 -0.103195 0.126822 26 102 204
-0.276334 -0.0952983 0.0967976 26 102 204
-0.280046 -0.0951409 0.00106246 26 102 204
-0.27366 -0.0976164 0.0874064 26 102 204
-0.26502 -0.096748 0.125452 26 102 204
-0.277766 -0.0986097 -0.0590392 26 102 204
-0.283534 -0.10249 0.0100821 26 102 204
-0.27738 -0.101182 -0.143601 26 102 204
-0.273304 -0.0949293 -0.0265996 26 102 204
-0.272217 -0.0989589 0.036495 26 102 204
-0.266978 -0.0917409 0.121588 26 102 204
-0.275045 -0.0961689 -0.051563 26 102 204
-0.26895 -0.0978906 0.0435109 26 102 204
-0.266889 -0.0936385 0.0288993 26 102 204
-0.269405 -0.095581 0.0915849 26 102 204
-0.265814 -0.0888489 0.0925015 26 102 204
-0.267294 -0.0932614 0.0956876 26 102 204
-0.266565 -0.0913688 0.120042 26 102 204
-0.261788 -0.0920995 -0.123231 26 102 204
-0.25778 -0.0816607 0.0205398 26 102 204
-0.259037 -0.0944561 -0.109053 26 102 204
-0.261174 -0.0872748 -0.0137722 26 102 204
-0.260142 -0.0917651 -0.00768863 26 102 204
-0.25015 -0.111175 -0.0293229 26 102 204
-0.251244 -0.100221 -0.0391198 26 102 204
-0.253431 -0.0992512 -0.0973631 26 102 204
-0.260536 -0.0965782 -0.115364 26 102 204
-0.251571 -0.0868288 -0.0873099 26 102 204
-0.256047 -0.0928614 -0.0464492 26 102 204
-0.256797 -0.0923705 0.0906503 26 102 204
-0.250876 -0.0901016 0.0530418 26 102 204
-0.252927 -0.0890975 0.00893606 26 102 204
-0.248824 -0.092089 0.00300055 26 102 204
-0.248509 -0.0920542 0.00886786 26 102 204
-0.247892 -0.0860423 -0.0517999 26 102 204
-0.251749 -0.0890309 -0.0198496 26 102 204
-0.249075 -0.0896692 0.0797464 26 102 204
-0.247315 -0.0876746 -0.0158735 26 102 204
-0.247781 -0.0898844 0.00809812 26 102 204
-0.247003 -0.0898684 -0.0277393 26 102 204
-0.243017 -0.0956304 0.0381749 26 102 204
-0.243994 -0.0868461 -0.0177522 26 102 204
-0.236831 -0.0911656 -0.110377 26 102 204
-0.241477 -0.0865638 0.0747057 26 102 204
-0.243118 -0.0866991 0.0708933 26 102 204
-0.233391 -0.0855784 -0.104519 26 102 204
-0.237158 -0.0774613 0.00963936 26 102 204
-0.237504 -0.0872456 -0.0292742 26 102 204
-0.235213 -0.0848731 0.0226313 26 102 204
-0.23508 -0.0840787 0.00358057 26 102 204
-0.234898 -0.0843651 -0.0405974 26 102 204
-0.229979 -0.0836126 0.132475 26 102 204
-0.230737 -0.0757466 0.153116 26 102 204
-0.23027 -0.084111 0.119085 26 102 204
-0.231375 -0.0829911 0.0231198 26 102 204
-0.310644 -0.11381 0.0303547 26 102 204
-0.227424 -0.082117 -0.106309 26 102 204
-0.219144 -0.0928966 -0.114276 26 102 204
-0.224669 -0.0845246 0.104218 26 102 204
-0.222849 -0.0787709 0.0918773 26 102 204
-0.225976 -0.0807547 0.0677611 26 102 204
-0.222857 -0.0798112 0.0761693 26 102 204
-0.226308 -0.0879153 -0.119783 26 102 204
-0.215394 -0.0840727 -0.105525 26 102 204
-0.220155 -0.0772789 0.0882127 26 102 204
-0.218899 -0.0761105 0.110651 26 102 204
-0.213336 -0.074844 0.0013695 26 102 204
-0.213366 -0.0752293 0.113242 26 102 204
-0.213315 -0.0751971 0.101581 26 102 204
-0.203132 -0.0749908 -0.1105 26 102 204
-0.21165 -0.0817807 -0.121219 26 102 204
-0.208305 -0.0747079 -0.097709 26 102 204
-0.206192 -0.0745309 0.0444119 26 102 204
-0.204388 -0.0736949 0.0449105 26 102 204
-0.204922 -0.074387 -0.110201 26 102 204
-0.197918 -0.0725942 0.0324514 26 102 204
-0.19821 -0.0766792 -0.139581 26 102 204
-0.280666 -0.0967113 -0.0184032 26 102 204
-0.194541 -0.070075 -0.0974369 26 102 204
-0.192741 -0.0696196 0.104015 26 102 204
-0.192289 -0.0731244 -0.101032 26 102 204
-0.191291 -0.0704938 -0.120539 26 102 204
-0.193663 -0.0699925 -0.106409 26 102 204
-0.191 -0.0704704 -0.0302366 26 102 204
-0.188886 -0.0674644 0.0297003 26 102 204
-0.189514 -0.0668873 0.143595 26 102 204
-0.18823 -0.0668063 0.157091 26 102 204
-0.186979 -0.0654194 0.1492 26 102 204
-0.184171 -0.0683338 -0.0540382 26 102 204
-0.185034 -0.0663659 -0.0560616 26 102 204
-0.179484 -0.0693215 -0.0875026 26 102 204
-0.181065 -0.0658076 -0.0107537 26 102 204
-0.180836 -0.064563 0.030781 26 102 204
-0.18161 -0.06543 -0.0147496 26 102 204
-0.179767 -0.0632782 0.0364444 26 102 204
-0.179772 -0.0664729 0.108375 26 102 204
-0.176448 -0.0631144 0.0882019 26 102 204
-0.176346 -0.0602922 -0.0698397 26 102 204
-0.175638 -0.0614414 0.0930407 26 102 204
-0.17306 -0.0608052 -0.0969873 26 102 204
-0.173809 -0.0622134 0.00492429 26 102 204
-0.171202 -0.0625148 0.128908 26 102 204
-0.17087 -0.062955 -0.106849 26 102 204
-0.168744 -0.0591349 0.113508 26 102 204
-0.170141 -0.0619973 0.0557252 26 102 204
-0.168246 -0.0593288 0.106368 26 102 204
-0.167491 -0.0601452 0.0242635 26 102 204
-0.16475 -0.0594479 -0.0408889 26 102 204
-0.165348 -0.0631369 -0.114148 26 102 204
-0.163942 -0.0613563 -0.119963 26 102 204
-0.16353 -0.0603817 -0.0229033 26 102 204
-0.162584 -0.0578008 0.0950046 26 102 204
-0.161603 -0.0588473 0.0437163 26 102 204
-0.161957 -0.0581058 -0.03837 26 102 204
-0.160293 -0.0596236 0.102613 26 102 204
-0.159727 -0.0603722 -0.00843142 26 102 204
-0.154859 -0.0564042 -0.0600281 26 102 204
-0.157656 -0.0545345 0.15397 26 102 204
-0.157576 -0.0568552 0.00872626 26 102 204
-0.153791 -0.0510832 0.104734 26 102 204
-0.15278 -0.0562777 -0.138104 26 102 204
-0.150246 -0.058662 -0.129846 26 102 204
-0.150571 -0.0541338 -0.0740472 26 102 204
-0.150519 -0.0529441 0.0936536 26 102 204
-0.148256 -0.0516635 0.0422077 26 102 204
-0.150447 -0.0555304 0.103957 26 102 204
-0.149415 -0.0537005 0.108638 26 102 204
-0.147944 -0.0523154 0.100718 26 102 204
-0.146778 -0.0539154 0.123708 26 102 204
-0.150187 -0.0556737 -0.0546807 26 102 204
-0.147461 -0.0531225 0.159405 26 102 204
-0.147156 -0.0478035 0.0840444 26 102 204
-0.142983 -0.0490137 -0.0614445 26 102 204
-0.143619 -0.0492675 0.00536408 26 102 204
-0.141098 -0.0509397 -0.107219 26 102 204
-0.14194 -0.0484042 0.152088 26 102 204
-0.140482 -0.0450503 0.135728 26 102 204
-0.143985 -0.0507444 -0.00900759 26 102 204
-0.146384 -0.0532428 -0.005474 26 102 204
-0.1397 -0.0491738 0.0692052 26 102 204
-0.140074 -0.0513334 -0.122391 26 102 204
-0.139121 -0.0479295 0.0415425 26 102 204
-0.137975 -0.0503035 -0.0396797 26 102 204
-0.136612 -0.0472423 0.125596 26 102 204
-0.138159 -0.0471248 0.146997 26 102 204
-0.14111 -0.0498786 0.154428 26 102 204
-0.134964 -0.0467613 0.150071 26 102 204
-0.135701 -0.0456417 0.131341 26 102 204
-0.142263 -0.0473631 0.176992 26 102 204
-0.132525 -0.0462351 -0.0298212 26 102 204
-0.133279 -0.0480694 -0.132259 26 102 204
-0.133122 -0.0447053 0.196994 26 102 204
-0.131419 -0.0484432 0.0450585 26 102 204
-0.128744 -0.0435047 0.0276713 26 102 204
-0.128555 -0.0446394 0.0815389 26 102 204
-0.133055 -0.0475989 0.0289651 26 102 204
-0.131455 -0.0445875 0.184672 26 102 204
-0.128098 -0.0468916 0.0156543 26 102 204
-0.126963 -0.0456201 0.000396872 26 102 204
-0.128365 -0.0470135 0.0581823 26 102 204
-0.128669 -0.0464361 -0.0824359 26 102 204
-0.126265 -0.0456393 -0.0269201 26 102 204
-0.124195 -0.0437969 0.123025 26 102 204
-0.123069 -0.039997 0.212674 26 102 204
-0.11904 -0.0401786 0.0451649 26 102 204
-0.120207 -0.0423366 -0.0175986 26 102 204
-0.124 -0.0448924 -0.0185841 26 102 204
-0.120375 -0.039744 0.15698 26 102 204
-0.116897 -0.0411898 -0.102858 26 102 204
-0.116243 -0.0412353 -0.0327363 26 102 204
-0.115214 -0.0398443 0.0527218 26 102 204
-0.113105 -0.037368 0.176951 26 102 204
-0.112137 -0.0347265 0.05584 26 102 204
-0.114215 -0.0388697 -0.0896312 26 102 204
-0.113167 -0.0414923 -0.113117 26 102 204
-0.111755 -0.0392226 0.0743421 26 102 204
-0.108876 -0.0351642 0.17231 26 102 204
-0.111748 -0.0373841 0.0716915 26 102 204
-0.108085 -0.0393262 -0.102061 26 102 204
-0.107138 -0.0362502 -0.120871 26 102 204
-0.10403 -0.0378804 -0.0402902 26 102 204
-0.101699 -0.0348953 0.0248188 26 102 204
-0.101034 -0.0373657 -0.116605 26 102 204
-0.102592 -0.0348908 -0.120328 26 102 204
-0.0998181 -0.0331829 0.185208 26 102 204
-0.100246 -0.032381 0.188986 26 102 204
-0.0977117 -0.0341383 -0.0790091 26 102 204
-0.0950399 -0.0323995 0.0700072 26 102 204
-0.0962942 -0.0311412 0.179264 26 102 204
-0.0933343 -0.0317698 0.196742 26 102 204
-0.0932094 -0.0358773 -0.136383 26 102 204
-0.0989165 -0.0262138 -0.00457104 26 102 204
-0.0891264 -0.0304258 -0.123664 26 102 204
-0.0874124 -0.0293531 0.16885 26 102 204
-0.0916005 -0.0266499 0.0240164 26 102 204
-0.0884411 -0.0284495 0.203911 26 102 204
-0.0871281 -0.0311064 0.0737773 26 102 204
-0.082208 -0.0291923 -0.0432688 26 102 204
-0.0852748 -0.028786 0.0649427 26 102 204
-0.0826218 -0.0278786 0.0203015 26 102 204
-0.0844795 -0.0296813 -0.00261509 26 102 204
-0.0803324 -0.0253921 0.243311 26 102 204
-0.0816811 -0.0272878 0.145102 26 102 204
-0.0739749 -0.0236156 -0.0260701 26 102 204
-0.0756506 -0.0260959 0.0861896 26 102 204
-0.0740518 -0.0127475 0.221549 26 102 204
-0.0757662 -0.0227159 0.0413997 26 102 204
-0.0763494 -0.00235583 0.252845 26 102 204
-0.0709337 -0.0167227 0.178367 26 102 204
-0.0735819 -0.0229198 0.0165037 26 102 204
-0.0715382 -0.015451 0.246234 26 102 204
-0.0695728 -0.0241464 -0.102833 26 102 204
-0.0709003 -0.0237218 0.0658496 26 102 204
-0.0704569 -0.0249609 -0.0822558 26 102 204
-0.0689342 -0.0216968 0.137784 26 102 204
-0.0689662 -0.0243155 -0.110473 26 102 204
-0.0685934 -0.0197068 0.215369 26 102 204
-0.0657196 -0.0155561 0.19178 26 102 204
-0.0689053 -0.0229 -0.0971567 26 102 204
-0.0670885 -0.0229043 -0.121094 26 102 204
-0.0703147 -0.020737 -0.13212 26 102 204
-0.0680994 -0.0158407 0.245251 26 102 204
-0.0664883 -0.0177765 0.20731 26 102 204
-0.0659557 -0.0241336 -0.119932 26 102 204
-0.0650108 -0.023518 -0.111643 26 102 204
-0.0649912 -0.0170484 0.200473 26 102 204
-0.0634795 -0.0171487 0.201522 26 102 204
-0.0630263 -0.0196564 0.0785222 26 102 204
-0.0605206 -0.022049 -0.097587 26 102 204
-0.0629712 -0.0175114 0.147684 26 102 204
-0.0619561 -0.017828 0.129695 26 102 204
-0.0551083 -0.0317392 -0.105317 26 102 204
-0.0610701 -0.0176903 0.0995492 26 102 204
-0.0604856 -0.0173245 0.117005 26 102 204
-0.0594253 -0.0173757 0.192384 26 102 204
-0.0603594 -0.018865 -0.0925381 26 102 204
-0.0559637 -0.0150159 0.0946798 26 102 204
-0.0637314 -0.0210364 -0.0963104 26 102 204
-0.060482 -0.0173005 0.171982 26 102 204
-0.0559864 -0.0174502 -0.0898828 26 102 204
-0.0579211 -0.0172164 0.132474 26 102 204
-0.0572412 -0.0155123 0.141584 26 102 204
-0.0552869 -0.0174133 0.0933096 26 102 204
-0.0556563 -0.0167677 -0.0706436 26 102 204
-0.0549156 -0.0154443 0.14881 26 102 204
-0.0532339 -0.0189468 -0.102474 26 102 204
-0.0521764 -0.0160784 -0.133288 26 102 204
-0.0532293 -0.00233719 0.243404 26 102 204
-0.0545399 -0.00451566 0.241026 26 102 204
-0.0522345 -0.0139669 0.192525 26 102 204
-0.0511002 -0.0145586 0.151502 26 102 204
-0.0509426 -0.00543771 0.233419 26 102 204
-0.0502645 -0.0149869 -0.0388659 26 102 204
-0.0509111 -0.0146604 0.101678 26 102 204
-0.0480867 -0.0169933 -0.103737 26 102 204
-0.0466911 -0.0165807 -0.0487254 26 102 204
-0.0498405 -0.0122681 0.201312 26 102 204
-0.0464477 -0.0157495 -0.0983117 26 102 204
-0.0452937 -0.0114886 0.158037 26 102 204
-0.0459262 -0.0143886 0.100237 26 102 204
-0.0428678 -0.0145332 0.0202348 26 102 204
-0.0458083 -0.0145862 0.028232 26 102 204
-0.0450999 -0.0115551 0.258976 26 102 204
-0.0423142 -0.0160016 -0.126785 26 102 204
-0.0462886 -0.00712723 0.255974 26 102 204
-0.0427957 -0.0113497 0.238298 26 102 204
-0.0419177 -0.00902178 -0.0143951 26 102 204
-0.111913 -0.0419997 0.112445 26 102 204
-0.038055 -0.001917 -0.0309969 26 102 204
-0.0344623 -0.0170362 -0.0696089 26 102 204
-0.0394363 -0.00980165 0.0894604 26 102 204
-0.0365592 -0.0194529 -0.0889768 26 102 204
-0.033902 -0.0198264 -0.073926 26 102 204
-0.0362819 -0.0139126 -0.0729936 26 102 204
-0.0382198 -0.0125079 -0.0511321 26 102 204
-0.0370501 -0.0116775 0.164013 26 102 204
-0.0387952 -0.0116742 0.0400456 26 102 204
-0.0370561 -0.0116644 0.132623 26 102 204
-0.0448005 -0.0137701 0.0657643 26 102 204
-0.032954 -0.0124105 -0.0160299 26 102 204
-0.0339019 -0.00785283 0.151333 26 102 204
-0.0368069 -0.0113106 -0.0962171 26 102 204
-0.0331454 -0.0127018 -0.110731 26 102 204
-0.0551535 -0.018321 0.0350657 26 102 204
-0.0298136 -0.00323572 0.106111 26 102 204
-0.0330173 -0.0123518 -0.0857818 26 102 204
-0.0419109 -0.0135554 0.0609085 26 102 204
-0.0292902 -0.00874792 0.0233914 26 102 204
-0.0291897 -0.00566379 0.164232 26 102 204
-0.0280047 -0.00894238 0.15132 26 102 204
-0.0275502 -0.00831597 0.0343343 26 102 204
-0.0257915 -0.0068226 -0.00404644 26 102 204
-0.0252883 -0.00744365 0.0459678 26 102 204
-0.0248435 -0.00766896 0.174239 26 102 204
-0.0259596 -0.00814403 0.184107 26 102 204
-0.0306914 -0.0127921 0.0732107 26 102 204
-0.0206076 -0.00844242 -0.0489191 26 102 204
-0.0201561 -0.0112629 0.145029 26 102 204
-0.0198758 -0.00583745 0.000649437 26 102 204
-0.0219652 0.00262176 0.266329 26 102 204
-0.0193116 -0.00866053 0.253141 26 102 204
-0.0187385 -0.00440222 0.170827 26 102 204
-0.0167902 -0.00569759 -0.0168168 26 102 204
-0.015368 -0.00364088 0.0880953 26 102 204
-0.0163832 -0.00254655 0.155098 26 102 204
-0.0149249 -0.00388077 0.0693736 26 102 204
-0.0135217 -0.00456774 0.0630744 26 102 204
-0.0145199 -0.00294107 0.176603 26 102 204
-0.0126182 -0.00283496 0.26434 26 102 204
-0.0150736 -0.00142037 0.20058 26 102 204
-0.00959223 -0.00688211 -0.121982 26 102 204
-0.0106135 0.00146793 0.066019 26 102 204
-0.0100044 8.87876e-06 0.266063 26 102 204
-0.0090088 -0.00406296 -0.100481 26 102 204
-0.00604202 -0.00996339 -0.0883872 26 102 204
-0.00735582 0.000224443 0.0503138 26 102 204
-0.0069954 -0.00107115 0.0575528 26 102 204
-0.0116087 0.019808 0.253833 26 102 204
-0.0046399 -0.00386162 -0.0803919 26 102 204
-0.0233666 0.063929 0.186497 26 102 204
-0.0176269 0.033335 0.239916 26 102 204
-0.00530372 0.00304451 0.0638573 26 102 204
0.0400693 0.0229948 0.242838 26 102 204
-0.019387 0.0594228 0.187492 26 102 204
-0.00306038 0.00874295 0.199825 26 102 204
-0.00931547 0.0202349 0.180496 26 102 204
-0.00156759 2.2579e-05 0.210361 26 102 204
-0.00481149 0.0096371 0.0601076 26 102 204
-0.00289629 0.00499117 0.00861333 26 102 204
-0.0152279 0.0520599 0.171598 26 102 204
-0.0145244 0.0613122 0.195632 26 102 204
-0.0201968 0.0781235 0.15095 26 102 204
0.0020911 0.00237314 -0.0855418 26 102 204
0.00211251 0.00485472 -0.00304653 26 102 204
-0.0118398 0.0560939 0.113085 26 102 204
0.00289727 0.00265143 -0.0505562 26 102 204
0.00363972 0.00616491 0.215716 26 102 204
-0.0115785 0.0543521 0.162051 26 102 204
-0.0162306 0.0726144 0.211854 26 102 204
-0.014624 0.0777554 0.200369 26 102 204
0.00464856 0.00654999 0.0353054 26 102 204
0.00338412 0.0044117 -0.0801601 26 102 204
0.00729106 0.00440854 -0.0253439 26 102 204
-0.00388418 0.0360734 0.155344 26 102 204
0.00621207 0.00787389 -0.0119136 26 102 204
0.00679865 0.00607992 0.0468144 26 102 204
0.00228289 0.0296998 0.152228 26 102 204
-0.00901549 0.0664554 0.166288 26 102 204
0.00976446 0.00405193 -0.119966 26 102 204
-0.00346868 0.0505277 0.158422 26 102 204
0.00608574 0.0301111 0.170156 26 102 204
0.01459 0.00586477 -0.0609777 26 102 204
0.0012741 0.0458937 0.159079 26 102 204
0.0104391 0.0240486 0.120717 26 102 204
0.0151521 0.00678891 0.0315319 26 102 204
0.0133888 0.0154752 0.144996 26 102 204
0.0184225 0.0103471 -0.0377133 26 102 204
0.0184143 0.0103775 0.166922 26 102 204
0.015731 0.00785471 0.16875 26 102 204
0.00690532 0.0482464 0.148889 26 102 204
0.0187714 0.0102501 -0.0294223 26 102 204
0.0195038 0.0148768 -0.0579164 26 102 204
0.0237005 0.0124592 0.017976 26 102 204
0.0116705 0.0477492 0.169022 26 102 204
0.019918 0.0238079 0.207006 26 102 204
0.0237353 0.019357 0.235765 26 102 204
0.00832548 0.0630878 0.232627 26 102 204
0.00775374 0.0741423 0.19973 26 102 204
0.0289172 0.0154162 0.22591 26 102 204
0.0281267 0.0138397 0.108286 26 102 204
0.034662 0.0100984 -0.111389 26 102 204
0.0277666 0.0200841 0.0759043 26 102 204
0.0319084 0.0151744 0.0508762 26 102 204
0.0247471 0.045038 0.224483 26 102 204
0.0323931 0.0102465 -0.12503 26 102 204
0.0256074 0.047017 0.212101 26 102 204
0.0286443 0.0214852 0.249745 26 102 204
0.0323537 0.0259271 0.193469 26 102 204
0.0291283 0.0408161 0.226038 26 102 204
0.0365492 0.0165024 0.0104961 26 102 204
0.0341098 0.0130935 -0.0656158 26 102 204
0.031064 0.0143306 -0.0984833 26 102 204
0.0307833 0.0473104 0.237115 26 102 204
0.038417 0.0153724 -0.0395846 26 102 204
0.0353808 0.0185153 0.0460637 26 102 204
0.0366051 0.0145945 -0.128813 26 102 204
0.0401213 0.0220006 0.130298 26 102 204
0.0269142 0.0571076 0.234986 26 102 204
0.0305079 0.0539966 0.239099 26 102 204
0.0394856 0.0126649 -0.110416 26 102 204
0.0411838 0.0140282 0.0236649 26 102 204
0.0290705 0.058754 0.2223 26 102 204
0.0308642 0.0584143 0.24771 26 102 204
0.0376422 0.0347953 0.277295 26 102 204
0.0416664 0.020826 0.25676 26 102 204
0.0489514 0.0377485 0.211029 26 102 204
0.0360172 0.052829 0.250974 26 102 204
0.0433799 0.0262885 0.16211 26 102 204
0.0394322 0.0440001 0.240705 26 102 204
0.0363431 0.0513947 0.263404 26 102 204
0.0392623 0.0496997 0.237517 26 102 204
0.0496291 0.0217569 0.0720652 26 102 204
0.0474327 0.021393 0.270314 26 102 204
0.0472458 0.0138629 -0.0343723 26 102 204
0.0511515 0.0208877 0.0731595 26 102 204
0.0496931 0.0210041 0.148217 26 102 204
0.0518129 0.0227982 0.212883 26 102 204
0.0469216 0.0307788 0.268031 26 102 204
0.0527951 0.0225615 0.0946719 26 102 204
0.0521204 0.0196245 -0.109242 26 102 204
0.0609314 0.0244439 0.228636 26 102 204
0.0563809 0.022942 0.254732 26 102 204
0.0542543 0.0178117 0.123155 26 102 204
0.0572306 0.0219216 -0.0211194 26 102 204
0.0592716 0.0243792 0.0951082 26 102 204
0.054665 0.0283116 0.250439 26 102 204
0.0568801 0.0193409 -0.112539 26 102 204
0.0540774 0.0369965 0.249095 26 102 204
0.0608352 0.0196627 -0.0659647 26 102 204
0.071973 0.0289302 0.130088 26 102 204
0.0629945 0.0238641 0.0472231 26 102 204
0.0635032 0.0237738 0.00379181 26 102 204
0.0602462 0.0236031 0.0488241 26 102 204
0.0650441 0.0271519 0.212629 26 102 204
0.0657747 0.0212748 -0.115348 26 102 204
0.0596616 0.0241011 0.100792 26 102 204
0.0648034 0.0219459 -0.0971006 26 102 204
0.0651047 0.0242345 -0.0865835 26 102 204
0.0578201 0.0319408 0.0677686 26 102 204
0.0699265 0.0267783 0.00846308 26 102 204
0.0710084 0.0250707 -0.127041 26 102 204
0.0679604 0.0257992 0.00111988 26 102 204
0.0726185 0.0301435 0.17254 26 102 204
0.0743991 0.0270649 -0.128007 26 102 204
0.0718322 0.0282224 -0.0179239 26 102 204
0.0706288 0.0251919 -0.106519 26 102 204
0.0734004 0.0276064 0.0944432 26 102 204
0.0733227 0.0294355 0.113678 26 102 204
0.0741473 0.0300878 0.212948 26 102 204
0.0761527 0.0272107 -0.0564201 26 102 204
0.0763059 0.0276143 0.120325 26 102 204
0.0752925 0.0267725 0.0174354 26 102 204
0.0732072 0.0294691 0.249188 26 102 204
0.0779161 0.0323303 0.268019 26 102 204
0.0834217 0.0307927 0.0624636 26 102 204
0.0808132 0.028107 0.0206859 26 102 204
0.0822923 0.0283543 0.0589817 26 102 204
0.0818802 0.0284783 -0.094814 26 102 204
0.0998815 0.0343756 0.0946226 26 102 204
0.0845699 0.0312463 0.110461 26 102 204
0.0845415 0.0311431 -0.0803999 26 102 204
0.0846546 0.0302162 0.105583 26 102 204
0.0833697 0.0279994 0.247287 26 102 204
0.090301 0.0292267 -0.104677 26 102 204
0.0894715 0.0339113 0.225184 26 102 204
0.0901645 0.0331072 -0.0572743 26 102 204
0.0857119 0.0348883 0.249362 26 102 204
0.0869638 0.0296755 -0.0140791 26 102 204
0.0907507 0.0340786 -0.0557121 26 102 204
0.0967295 0.0347225 0.0735891 26 102 204
0.0965504 0.034625 0.222633 26 102 204
0.0969669 0.0348182 0.158121 26 102 204
0.0975661 0.0355181 0.178562 26 102 204
0.100724 0.0353826 0.102385 26 102 204
0.0980401 0.0360951 0.178008 26 102 204
0.0998317 0.0348107 -0.0324595 26 102 204
0.100718 0.0385651 0.265231 26 102 204
0.100096 0.0345622 -0.0866504 26 102 204
0.0999714 0.0337851 -0.0156706 26 102 204
0.101222 0.0358951 0.121156 26 102 204
0.108563 0.0365433 -0.0868451 26 102 204
0.104998 0.036837 -0.00105827 26 102 204
0.0984467 0.035899 -0.00257115 26 102 204
0.105633 0.0342296 -0.151957 26 102 204
0.10824 0.0386245 -0.0620376 26 102 204
0.106287 0.0390861 0.137196 26 102 204
0.108476 0.0392663 0.18432 26 102 204
0.1128 0.0394829 -0.0513386 26 102 204
0.100765 0.0361197 -0.00860933 26 102 204
0.110554 0.0374851 -0.0590372 26 102 204
0.116242 0.0387248 -0.0785894 26 102 204
0.114921 0.0400195 -0.101228 26 102 204
0.118123 0.0424967 -0.031489 26 102 204
0.117786 0.0424978 0.210646 26 102 204
0.119229 0.0419779 -0.00304979 26 102 204
0.118068 0.0442898 0.149727 26 102 204
0.119954 0.0421387 -0.0257894 26 102 204
0.121118 0.0422094 0.00706144 26 102 204
0.116718 0.0413752 0.09637 26 102 204
0.118974 0.0479876 0.224558 26 102 204
0.114329 0.0502693 0.214031 26 102 204
0.122215 0.0411723 -0.0250652 26 102 204
0.124526 0.0415753 -0.108198 26 102 204
0.12366 0.041605 0.00941894 26 102 204
0.127769 0.0412879 -0.124263 26 102 204
0.11882 0.0477493 0.20811 26 102 204
0.128354 0.0456731 0.190454 26 102 204
0.125985 0.0415339 -0.134159 26 102 204
0.131216 0.0444366 -0.100732 26 102 204
0.128721 0.0462195 0.172338 26 102 204
0.127573 0.0429383 -0.00521454 26 102 204
0.130821 0.0462489 0.0814266 26 102 204
0.132034 0.0480024 0.230809 26 102 204
0.133732 0.0457441 0.0660983 26 102 204
0.135704 0.0440812 -0.0747072 26 102 204
0.133071 0.0430458 -0.0272321 26 102 204
0.135186 0.044156 -0.083184 26 102 204
0.139222 0.0460549 -0.0734838 26 102 204
0.138566 0.0468595 0.0687238 26 102 204
0.137289 0.0492555 0.184942 26 102 204
0.136227 0.046171 0.116632 26 102 204
0.137329 0.0463399 0.219811 26 102 204
0.135935 0.0472632 0.0287566 26 102 204
0.139733 0.0448981 -0.0523225 26 102 204
0.143094 0.0484521 -0.00664413 26 102 204
0.141041 0.0444242 -0.0867957 26 102 204
0.143225 0.0473873 -0.114812 26 102 204
0.142433 0.0437739 -0.0539717 26 102 204
0.146289 0.0464082 -0.12991 26 102 204
0.14818 0.0492124 -0.0105412 26 102 204
0.145065 0.0394404 -0.0935062 26 102 204
0.212594 0.0697193 -0.106968 26 102 204
0.152433 0.0515801 -0.0832294 26 102 204
0.151457 0.0492687 -0.0572273 26 102 204
0.146084 0.0503331 0.180843 26 102 204
0.150526 0.0503124 -0.0586561 26 102 204
0.143457 0.0535854 0.180792 26 102 204
0.148737 0.0494572 0.0233169 26 102 204
0.148758 0.0491099 -0.111691 26 102 204
0.153585 0.052634 -0.0736593 26 102 204
0.147266 0.0508734 0.0567529 26 102 204
0.151356 0.0475032 -0.0563966 26 102 204
0.157619 0.0523578 0.0421464 26 102 204
0.156981 0.0531105 0.199009 26 102 204
0.157887 0.0515259 0.213677 26 102 204
0.154306 0.0511634 -0.0329092 26 102 204
0.153581 0.0468284 -0.0971219 26 102 204
0.154782 0.0530434 0.193295 26 102 204
0.157817 0.0517999 -0.00385969 26 102 204
0.156714 0.052509 -0.0826107 26 102 204
0.154664 0.0461069 -0.0944842 26 102 204
0.154923 0.0509203 -0.0463011 26 102 204
0.157878 0.0512812 0.0488657 26 102 204
0.158711 0.0520541 0.0331945 26 102 204
0.156349 0.0545111 0.130015 26 102 204
0.157379 0.0540287 0.164725 26 102 204
0.159562 0.0524944 0.11086 26 102 204
0.161256 0.0533397 0.007887 26 102 204
0.162368 0.0515724 -0.0613873 26 102 204
0.161811 0.0528537 -0.100648 26 102 204
0.165054 0.0573405 -0.14809 26 102 204
0.166876 0.0538933 -0.128579 26 102 204
0.1672 0.0549691 -0.0760379 26 102 204
0.172062 0.0586973 0.0524087 26 102 204
0.164781 0.0536413 -0.0577348 26 102 204
0.172102 0.0599187 0.187295 26 102 204
0.167633 0.0546925 -0.0321488 26 102 204
0.168105 0.0520244 -0.100443 26 102 204
0.169837 0.0575211 0.13451 26 102 204
0.171605 0.05765 -0.125284 26 102 204
0.170479 0.0541423 -0.0959303 26 102 204
0.171278 0.0592905 0.192201 26 102 204
0.166905 0.0581932 -0.0383225 26 102 204
0.17787 0.0585119 -0.106033 26 102 204
0.176064 0.0583926 -0.0838786 26 102 204
0.176733 0.0588302 -0.0939248 26 102 204
0.175407 0.0545465 -0.0236948 26 102 204
0.178916 0.0590024 -0.143103 26 102 204
0.179885 0.0610128 -0.0124966 26 102 204
0.180008 0.0565863 -0.0186038 26 102 204
0.177968 0.0588593 -0.0531866 26 102 204
0.18323 0.0600426 -0.104229 26 102 204
0.187985 0.063381 -0.104571 26 102 204
0.183079 0.0613904 -0.0384456 26 102 204
0.183023 0.0593396 0.0390708 26 102 204
0.184491 0.0590768 -0.0916459 26 102 204
0.189316 0.0647391 0.120934 26 102 204
0.186657 0.060158 -0.0492403 26 102 204
0.187674 0.0589228 -0.112423 26 102 204
0.186253 0.0602772 -0.0423268 26 102 204
0.194387 0.0667797 0.182419 26 102 204
0.188781 0.0593621 -0.147816 26 102 204
0.188102 0.0611758 -0.00991078 26 102 204
0.194076 0.0625007 0.0193346 26 102 204
0.191519 0.0618342 -0.0782796 26 102 204
0.190737 0.0563693 -0.0678823 26 102 204
0.193438 0.0627875 -0.0141863 26 102 204
0.194561 0.0629308 0.00275508 26 102 204
0.194961 0.0577097 -0.119826 26 102 204
0.198993 0.0640688 -0.107077 26 102 204
0.194027 0.0644215 -0.123312 26 102 204
0.197633 0.0643874 0.115248 26 102 204
0.20351 0.0630905 -0.00138457 26 102 204
0.201374 0.0645827 -0.06643 26 102 204
0.203016 0.0655554 -0.00802225 26 102 204
0.204351 0.0653616 -0.0163867 26 102 204
0.208775 0.0687134 -0.139069 26 102 204
0.209596 0.0689616 0.027323 26 102 204
0.20822 0.0669443 -0.0227488 26 102 204
0.210495 0.0668802 -0.0664474 26 102 204
0.209338 0.0691865 0.110901 26 102 204
0.209616 0.0690919 -0.0846466 26 102 204
0.214316 0.0708633 0.106158 26 102 204
0.214628 0.068712 -0.00407834 26 102 204
0.217541 0.0692129 0.00693178 26 102 204
0.213197 0.0659927 -0.114528 26 102 204
0.217745 0.0667963 -0.14924 26 102 204
0.218391 0.0663722 -0.0698925 26 102 204
0.220949 0.0717147 0.0645165 26 102 204
0.214495 0.0720161 -0.0188556 26 102 204
0.218088 0.0686752 -0.135278 26 102 204
0.224314 0.0675659 -0.121482 26 102 204
0.224398 0.073528 0.117583 26 102 204
0.223891 0.0750839 -0.0257327 26 102 204
0.225453 0.0731376 -0.146991 26 102 204
0.230273 0.0739581 -0.119282 26 102 204
0.224662 0.0720057 0.040685 26 102 204
0.226011 0.0712043 -0.0796576 26 102 204
0.227849 0.0751613 0.0534592 26 102 204
0.229032 0.0733501 -0.112424 26 102 204
0.228135 0.0721742 -0.0494966 26 102 204
0.227827 0.071116 0.0581459 26 102 204
0.229444 0.0722096 -0.145336 26 102 204
0.234907 0.0759387 -0.0459644 26 102 204
0.23124 0.0729316 0.0539856 26 102 204
0.227533 0.0733983 0.0111872 26 102 204
0.2278 0.0643752 -0.155286 26 102 204
0.229819 0.0706738 -0.148065 26 102 204
0.233847 0.0735762 0.0611334 26 102 204
0.233192 0.0727204 0.0337326 26 102 204
0.229465 0.0732662 -0.0958959 26 102 204
0.238345 0.075686 -0.0601286 26 102 204
0.238899 0.0741394 0.00937028 26 102 204
0.192964 0.0688086 0.0471194 26 102 204
0.24219 0.0788395 0.0873481 26 102 204
0.230824 0.0710483 -0.0969875 26 102 204
0.234178 0.0725725 -0.0279643 26 102 204
0.249631 0.0795333 0.053139 26 102 204
0.24476 0.0764466 -0.0251187 26 102 204
0.254372 0.0775578 -0.00105154 26 102 204
0.248324 0.078462 -0.128441 26 102 204
0.243542 0.0764755 -0.0687984 26 102 204
0.253516 0.0807158 -0.0889195 26 102 204
0.256692 0.0837641 0.0038282 26 102 204
0.250412 0.0799441 0.0498118 26 102 204
0.251517 0.0792915 -0.069036 26 102 204
0.249756 0.0741863 -0.114358 26 102 204
0.25437 0.0758619 -0.105219 26 102 204
0.255875 0.0795417 0.0516734 26 102 204
0.267421 0.0836644 -0.0398549 26 102 204
0.312182 0.0948427 -0.027487 26 102 204
0.258714 0.0808199 -0.00218607 26 102 204
0.265133 0.0830375 -0.14741 26 102 204
0.268924 0.0835433 -0.10818 26 102 204
0.258676 0.0830189 0.114631 26 102 204
0.26605 0.0861995 0.074927 26 102 204
0.259234 0.0788678 -0.11632 26 102 204
0.26073 0.0842895 0.0328126 26 102 204
0.265423 0.082754 -0.0998694 26 102 204
0.262616 0.0812229 -0.0052836 26 102 204
0.267702 0.0832909 0.0671144 26 102 204
0.267572 0.0835954 -0.0266026 26 102 204
0.281201 0.0878159 -0.137185 26 102 204
0.271161 0.0861178 0.0442986 26 102 204
0.268796 0.084308 -0.0339981 26 102 204
0.269377 0.0832114 -0.128796 26 102 204
0.27121 0.0804457 -0.0986928 26 102 204
0.27384 0.0833521 -0.141991 26 102 204
0.268091 0.0828295 0.0336421 26 102 204
0.269697 0.0844726 -0.00452767 26 102 204
0.274092 0.0871912 -0.0750827 26 102 204
0.27894 0.0870766 0.0266331 26 102 204
0.276958 0.087319 -0.0445081 26 102 204
0.278291 0.0858271 -0.0350355 26 102 204
0.278787 0.0865809 -0.0676299 26 102 204
0.2834 0.0871544 -0.0707411 26 102 204
0.281506 0.0807036 -0.0576572 26 102 204
0.285414 0.0871873 -0.00441916 26 102 204
0.279262 0.0904196 -0.10537 26 102 204
0.283706 0.087133 0.00237052 26 102 204
0.286212 0.0896656 -0.0217806 26 102 204
0.287005 0.0902662 -0.0623714 26 102 204
0.284962 0.0892902 -0.0820283 26 102 204
0.287986 0.086258 -0.136181 26 102 204
0.284458 0.0900328 -0.0857041 26 102 204
0.290031 0.0889944 -0.0408324 26 102 204
0.283515 0.0896089 -0.00777308 26 102 204
0.310517 0.095897 0.0499531 26 102 204
0.299017 0.0943 0.039297 26 102 204
0.292016 0.0903964 -0.0488473 26 102 204
0.295308 0.0903072 -0.108991 26 102 204
0.280174 0.0873852 -0.0782339 26 102 204
0.29204 0.0906632 -0.0596244 26 102 204
0.297221 0.090456 0.0193164 26 102 204
0.295043 0.0924535 0.0277065 26 102 204
0.296103 0.0898625 -0.0191175 26 102 204
0.289739 0.0934996 -0.062486 26 102 204
0.29406 0.0914952 -0.133835 26 102 204
0.284156 0.0921976 -0.0329756 26 102 204
0.292723 0.0895146 -0.166337 26 102 204
0.301769 0.0932565 -0.0468213 26 102 204
0.307437 0.0910082 -0.120119 26 102 204
0.336874 0.104984 -0.097423 26 102 204
0.30345 0.0862585 -0.133907 26 102 204
0.322118 0.100111 0.0351485 26 102 204
0.305784 0.0929414 0.0462846 26 102 204
0.307455 0.0771774 -0.170343 26 102 204
0.293987 0.0918459 -0.000725931 26 102 204
0.3078 0.090749 -0.0775937 26 102 204
0.299114 0.0691169 -0.145678 26 102 204
0.314927 0.0924964 -0.0515934 26 102 204
0.312236 0.0946169 -0.0600341 26 102 204
0.313576 0.0925207 -0.172781 26 102 204
0.308141 0.0879863 -0.1009 26 102 204
0.321107 0.0948272 -0.0722166 26 102 204
0.319814 0.0970503 -0.0372256 26 102 204
0.314818 0.0954769 -0.025503 26 102 204
0.322399 0.0935182 -0.0577468 26 102 204
0.314816 0.0978302 -0.106133 26 102 204
0.321634 0.0924306 -0.123996 26 102 204
0.320194 0.0945488 -0.0746909 26 102 204
0.323594 0.0970305 -0.0274448 26 102 204
0.322693 0.0997643 -0.0587153 26 102 204
0.323856 0.0986984 0.0369037 26 102 204
0.330308 0.0975518 -0.0806807 26 102 204
0.317648 0.101531 -0.0828422 26 102 204
0.323918 0.100601 -0.0186782 26 102 204
0.329967 0.0944028 -0.151446 26 102 204
0.332625 0.0998063 -0.00581936 26 102 204
0.331271 0.0953792 -0.15017 26 102 204
0.334218 0.0974633 -0.0766865 26 102 204
0.346676 0.10451 -0.0378092 26 102 204
0.345526 0.105269 -0.111861 26 102 204
0.33787 0.101888 0.029288 26 102 204
0.347867 0.103893 -0.139873 26 102 204
0.344426 0.103174 -0.0981542 26 102 204
0.334535 0.101785 -0.121656 26 102 204
0.354351 0.106492 0.0220827 26 102 204
0.34919 0.105122 -0.150338 26 102 204
0.329697 0.11103 0.0071595 26 102 204
0.344662 0.0962289 -0.101609 26 102 204
0.354506 0.106715 -0.142266 26 102 204
0.349443 0.105339 -0.133757 26 102 204
0.356613 0.100578 -0.136623 26 102 204
0.35677 0.106872 -0.0232193 26 102 204
0.343726 0.106052 0.0333852 26 102 204
0.356031 0.109508 0.033988 26 102 204
0.348361 0.105387 -0.0102144 26 102 204
0.350564 0.105016 0.00192606 26 102 204
0.352071 0.104462 -0.142412 26 102 204
0.353801 0.105935 -0.161703 26 102 204
0.355454 0.107082 -0.165822 26 102 204
0.348602 0.101429 -0.187218 26 102 204
0.357558 0.106956 -0.153329 26 102 204
0.362743 0.103087 -0.15496 26 102 204
0.363525 0.107646 0.0340982 26 102 204
0.358489 0.108903 -0.00518459 26 102 204
0.358992 0.111273 0.0293653 26 102 204
0.367713 0.0997528 -0.14809 26 102 204
0.360128 0.108774 -0.0488659 26 102 204
0.370897 0.114352 0.0299419 26 102 204
0.365461 0.110775 -0.142843 26 102 204
0.360858 0.109153 -0.0481149 26 102 204
0.362646 0.110441 0.00449393 26 102 204
0.367523 0.109848 -0.0121483 26 102 204
0.379779 0.11779 -0.141322 26 102 204
0.375453 0.113613 -0.121849 26 102 204
0.371865 0.108579 -0.168336 26 102 204
0.376331 0.109806 -0.154387 26 102 204
0.377731 0.114123 0.0059961 26 102 204
0.372923 0.110196 -0.154447 26 102 204
0.372077 0.1134 -0.0152912 26 102 204
0.3797 0.112862 -0.0460809 26 102 204
0.378191 0.116451 -0.0375532 26 102 204
0.376151 0.116453 0.0179962 26 102 204
0.381004 0.118539 -0.0849781 26 102 204
0.376675 0.114765 -0.17148 26 102 204
0.381375 0.110825 -0.144748 26 102 204
0.376601 0.123072 0.00369151 26 102 204
0.391749 0.106095 -0.132525 26 102 204
0.386841 0.112633 -0.158791 26 102 204
0.386108 0.11265 0.0112885 26 102 204
0.395676 0.104806 -0.120843 26 102 204
0.389078 0.11595 -0.120136 26 102 204
0.394568 0.1204 -0.106652 26 102 204
0.398118 0.10717 -0.0959862 26 102 204
0.393885 0.118564 -0.076076 26 102 204
0.383518 0.127343 -0.00759389 26 102 204
0.403172 0.116251 -0.144569 26 102 204
0.395569 0.116796 -0.157406 26 102 204
0.404708 0.114311 -0.148362 26 102 204
0.39422 0.119118 -0.124402 26 102 204
0.407261 0.114216 0.0257953 26 102 204
0.408727 0.122517 -0.024196 26 102 204
0.409667 0.115236 -0.134644 26 102 204
0.417297 0.117119 -0.0795864 26 102 204
0.418819 0.114619 -0.0459154 26 102 204
0.417691 0.113346 -0.10503 26 102 204
0.414949 0.122007 -0.0128616 26 102 204
0.408143 0.124001 -0.0933979 26 102 204
0.415122 0.126914 -0.0545967 26 102 204
0.424011 0.120603 -0.0612797 26 102 204
0.42567 0.12703 -0.0787953 26 102 204
0.419969 0.122028 0.0310279 26 102 204
0.428628 0.124548 -0.011826 26 102 204
0.4328 0.134757 -0.113516 26 102 204
0.428737 0.125678 0.0221973 26 102 204
0.428226 0.121 -0.0291014 26 102 204
0.43854 0.123715 -0.128613 26 102 204
0.425769 0.129684 -0.0815621 26 102 204
0.444284 0.124308 -0.0341952 26 102 204
0.424793 0.119744 -0.0992342 26 102 204
0.443317 0.128258 0.0147876 26 102 204
0.439041 0.127553 -0.0851355 26 102 204
0.436458 0.129129 0.0201989 26 102 204
0.455627 0.127942 -0.0466233 26 102 204
0.451535 0.13484 -0.0753909 26 102 204
0.447468 0.128663 -0.00635349 26 102 204
0.449575 0.135149 -0.0621884 26 102 204
0.444457 0.130407 -0.0934955 26 102 204
0.457758 0.138025 -0.106099 26 102 204
0.454389 0.134933 -0.0319589 26 102 204
0.460856 0.138179 -0.118723 26 102 204
0.456693 0.139224 -0.0617899 26 102 204
0.443942 0.134333 -0.0500888 26 102 204
0.46758 0.139154 -0.0585576 26 102 204
0.465171 0.133616 -0.0228945 26 102 204
0.46668 0.137887 -0.0120019 26 102 204
0.456456 0.140332 -0.0868221 26 102 204
0.472329 0.141106 -0.0539747 26 102 204
0.471005 0.140423 -0.0214123 26 102 204
0.465718 0.142077 -0.0824538 26 102 204
0.477693 0.145971 -0.0341156 26 102 204
0.464914 0.134056 -0.071188 26 102 204
0.473796 0.134313 -0.00696017 26 102 204
0.474427 0.145332 -0.0652935 26 102 204
0.48451 0.137668 -0.0874058 26 102 204
0.418502 0.122942 -0.0185802 26 102 204
0.482047 0.140875 -0.0244285 26 102 204
0.48677 0.146865 -0.0159474 26 102 204
0.485147 0.141877 -0.0547467 26 102 204
0.491205 0.141295 -0.0191993 26 102 204
0.491575 0.152413 -0.0892184 26 102 204
0.492203 0.14837 -0.0590927 26 102 204
0.496243 0.1433 -0.0240469 26 102 204
0.496697 0.144971 -0.0515231 26 102 204
0.499792 0.146776 -0.0593452 26 102 204
