ply
format ascii 1.0
comment Created by Open3D
element vertex 1024
property double x
property double y
property double z
property uchar red
property uchar green
property uchar blue
end_header
-0.16622 -0.201828 0.0935846 26 102 204
0.128031 -0.22524 0.0638657 26 102 204
-0.136635 -0.200337 0.0794817 26 102 204
-0.04902 -0.206672 0.0845928 26 102 204
0.218467 -0.235155 0.0818332 26 102 204
0.194797 -0.23436 0.0631568 26 102 204
-0.185856 -0.196683 0.0716918 26 102 204
-0.0968154 -0.209234 0.0646652 26 102 204
0.10457 -0.227851 0.0666867 26 102 204
-0.244599 -0.192626 0.0736567 26 102 204
-0.0805761 -0.208331 0.0599713 26 102 204
-0.289167 -0.18809 0.0538471 26 102 204
-0.220168 -0.196289 0.0346744 26 102 204
-0.0783957 -0.207631 0.0146773 26 102 204
-0.151825 -0.206495 0.0362211 26 102 204
-0.0756429 -0.213615 0.000747423 26 102 204
-0.0397932 -0.226042 -0.00658909 26 102 204
-0.248711 -0.192368 -0.0437327 26 102 204
0.203018 -0.2395 -0.0422947 26 102 204
0.165956 -0.23651 -0.0452682 26 102 204
0.0478093 -0.224365 -0.0850035 26 102 204
-0.258155 -0.194852 -0.0904808 26 102 204
-0.280967 -0.193724 -0.118256 26 102 204
0.234388 -0.237834 -0.137057 26 102 204
0.0456291 -0.22172 -0.150898 26 102 204
-0.189793 -0.20262 -0.156379 26 102 204
0.0266367 -0.221445 -0.172124 26 102 204
-0.261673 -0.19448 -0.179279 26 102 204
-0.0234325 -0.214253 -0.188675 26 102 204
-0.22093 -0.196361 -0.202134 26 102 204
-0.0607678 -0.211364 -0.19707 26 102 204
-0.0886553 -0.212877 -0.208661 26 102 204
0.182169 -0.231539 -0.244553 26 102 204
0.145426 -0.225235 -0.254102 26 102 204
-0.157895 -0.198955 -0.251029 26 102 204
-0.219665 -0.194342 -0.263734 26 102 204
-0.0198136 -0.215362 -0.284569 26 102 204
0.0966662 -0.227939 -0.267519 26 102 204
-0.073577 -0.210869 -0.28101 26 102 204
0.0190437 -0.217493 -0.286766 26 102 204
-0.110987 -0.209748 -0.289364 26 102 204
-0.0471594 -0.215619 -0.305197 26 102 204
-0.109792 -0.208622 -0.307011 26 102 204
-0.165773 -0.204725 -0.324238 26 102 204
0.10042 -0.226525 -0.324441 26 102 204
0.127021 -0.228015 -0.331707 26 102 204
-0.0700172 -0.211128 -0.339407 26 102 204
0.029608 -0.221009 -0.333768 26 102 204
-0.111058 -0.210402 -0.332084 26 102 204
0.0128028 -0.217425 -0.347985 26 102 204
0.109315 -0.232964 -0.330654 26 102 204
-0.133331 -0.199389 -0.341078 26 102 204
-0.00107936 -0.217387 -0.353197 26 102 204
-0.109447 -0.201634 -0.331925 26 102 204
-0.0323025 -0.211291 -0.364589 26 102 204
-0.239018 -0.193166 -0.360587 26 102 204
-0.0871079 -0.210199 -0.378759 26 102 204
0.2151 -0.241264 -0.368452 26 102 204
0.0940998 -0.227608 -0.371259 26 102 204
-0.110828 -0.210265 -0.378109 26 102 204
-0.00636486 -0.217133 -0.3939 26 102 204
0.166761 -0.232713 -0.38677 26 102 204
-0.0717926 -0.207797 -0.394396 26 102 204
0.16959 -0.229355 -0.418736 26 102 204
-0.0921959 -0.210281 -0.418888 26 102 204
-0.0251399 -0.213014 -0.420067 26 102 204
-0.160651 -0.202157 -0.402329 26 102 204
-0.265924 -0.192984 -0.412995 26 102 204
0.124592 -0.230557 -0.395853 26 102 204
0.13862 -0.229083 -0.410736 26 102 204
-0.13844 -0.206953 -0.405077 26 102 204
0.0539344 -0.219724 -0.370331 26 102 204
0.190241 -0.234549 -0.427697 26 102 204
-0.0956206 -0.2069 -0.407866 26 102 204
0.00839422 -0.217961 -0.424786 26 102 204
-0.126087 -0.206719 -0.413342 26 102 204
-0.0175467 -0.21841 -0.441071 26 102 204
-0.137764 -0.207082 -0.43394 26 102 204
-0.0813907 -0.205904 -0.414068 26 102 204
0.147487 -0.230179 -0.434483 26 102 204
0.211375 -0.236207 -0.436221 26 102 204
-0.0376464 -0.213709 -0.444349 26 102 204
0.167679 -0.231337 -0.461755 26 102 204
-0.216248 -0.202589 -0.476372 26 102 204
-0.0511515 -0.210818 -0.441326 26 102 204
0.287771 -0.245051 -0.453885 26 102 204
0.101051 -0.224228 -0.452198 26 102 204
0.0575875 -0.21798 -0.454094 26 102 204
-0.0620292 -0.212375 -0.50329 26 102 204
-0.305122 -0.184186 0.465916 26 102 204
0.222674 -0.236268 0.379849 26 102 204
-0.266394 -0.189946 0.0938945 26 102 204
-0.0384197 -0.208403 0.0982897 26 102 204
-0.260768 -0.187301 0.439489 26 102 204
-0.241147 -0.188621 0.341578 26 102 204
-0.266534 -0.176455 0.374411 26 102 204
0.121038 -0.222777 0.0948275 26 102 204
0.024294 -0.212614 -0.451705 26 102 204
-0.21684 -0.190958 -0.500286 26 102 204
0.255458 -0.240138 0.0682615 26 102 204
-0.157899 -0.195511 0.0870803 26 102 204
0.00165976 -0.212529 -0.398521 26 102 204
0.0454249 -0.217671 -0.416194 26 102 204
0.0156467 -0.221749 -0.432693 26 102 204
-0.247495 -0.180851 -0.481482 26 102 204
-0.1433 -0.198782 -0.459008 26 102 204
0.0402586 -0.214717 -0.454806 26 102 204
-0.137724 -0.195242 -0.456889 26 102 204
0.148149 -0.225296 -0.459351 26 102 204
0.0584804 -0.217537 -0.470631 26 102 204
-0.168653 -0.191205 -0.512851 26 102 204
-0.275084 -0.18354 -0.434835 26 102 204
-0.224484 -0.187072 0.0834882 26 102 204
0.2268 -0.235549 0.328652 26 102 204
0.0491699 -0.211799 -0.414704 26 102 204
0.129622 -0.219636 -0.485956 26 102 204
0.179555 -0.219282 -0.435328 26 102 204
0.255422 -0.23153 -0.309841 26 102 204
0.244039 -0.238524 0.403289 26 102 204
0.230195 -0.225398 0.118103 26 102 204
-0.293877 -0.178228 -0.443719 26 102 204
-0.310364 -0.174141 -0.302866 26 102 204
0.0706492 -0.21152 -0.479505 26 102 204
-0.137731 -0.187496 -0.374268 26 102 204
0.241587 -0.229468 0.356475 26 102 204
-0.0876698 -0.193615 -0.422508 26 102 204
0.00813356 -0.207971 0.0737498 26 102 204
-0.0614129 -0.195558 0.098056 26 102 204
-0.285815 -0.172149 0.450724 26 102 204
-0.176696 -0.18849 -0.359637 26 102 204
0.165955 -0.220123 -0.393499 26 102 204
-0.0799533 -0.200372 -0.355318 26 102 204
-0.0278746 -0.200012 -0.397609 26 102 204
-0.0825354 -0.192789 -0.396285 26 102 204
0.228218 -0.224306 -0.400847 26 102 204
0.116148 -0.221284 -0.406239 26 102 204
-0.283889 -0.172999 -0.412065 26 102 204
-0.0463493 -0.19584 -0.381773 26 102 204
0.0410623 -0.204435 -0.460273 26 102 204
0.208011 -0.215963 -0.423279 26 102 204
-0.283282 -0.171607 0.256451 26 102 204
0.10389 -0.208787 0.080451 26 102 204
-0.120668 -0.188982 0.128939 26 102 204
-0.0916019 -0.190399 -0.361473 26 102 204
-0.272563 -0.17068 -0.346153 26 102 204
-0.0217072 -0.199207 -0.34134 26 102 204
-0.256214 -0.172619 -0.367901 26 102 204
-0.080819 -0.192003 -0.371785 26 102 204
-0.154212 -0.183316 -0.382092 26 102 204
0.211742 -0.222678 -0.361831 26 102 204
0.0456707 -0.202547 -0.382087 26 102 204
0.182992 -0.221471 -0.357734 26 102 204
-0.0965587 -0.189876 -0.393887 26 102 204
-0.182269 -0.180948 -0.399268 26 102 204
0.0308373 -0.206118 -0.43402 26 102 204
0.201911 -0.21491 -0.385195 26 102 204
-0.0852792 -0.188127 -0.377349 26 102 204
0.222474 -0.218921 -0.349689 26 102 204
-0.0132081 -0.19704 0.0615151 26 102 204
-0.0841986 -0.187388 -0.394818 26 102 204
0.233297 -0.219626 0.304597 26 102 204
0.147272 -0.214154 -0.353182 26 102 204
0.202201 -0.21175 -0.369457 26 102 204
0.18164 -0.212603 0.178595 26 102 204
-0.104504 -0.184913 -0.371518 26 102 204
-0.280227 -0.164031 0.31457 26 102 204
0.21717 -0.213751 0.237748 26 102 204
-0.0586805 -0.185379 -0.31898 26 102 204
0.158474 -0.210529 -0.346939 26 102 204
0.210135 -0.217231 0.261724 26 102 204
-0.177483 -0.17656 -0.394929 26 102 204
0.204064 -0.215938 0.20396 26 102 204
-0.208394 -0.173425 -0.424397 26 102 204
-0.244469 -0.172748 0.121722 26 102 204
-0.032395 -0.188817 -0.356823 26 102 204
0.0964619 -0.206554 -0.396021 26 102 204
-0.10835 -0.184479 -0.358585 26 102 204
0.131269 -0.206854 -0.346049 26 102 204
-0.130813 -0.180621 -0.341518 26 102 204
-0.104906 -0.180535 -0.314848 26 102 204
0.00767358 -0.192127 -0.31944 26 102 204
0.210096 -0.213941 0.160016 26 102 204
0.20654 -0.215899 0.225323 26 102 204
-0.280394 -0.158825 -0.328124 26 102 204
0.196073 -0.208401 -0.369336 26 102 204
-0.301056 -0.158328 -0.289006 26 102 204
-0.22306 -0.167219 -0.0548218 26 102 204
0.0170283 -0.18925 -0.035587 26 102 204
0.00439284 -0.187675 -0.020628 26 102 204
0.0890586 -0.204406 0.0433516 26 102 204
-0.166107 -0.17159 0.0130296 26 102 204
-0.219921 -0.164876 -0.00470859 26 102 204
0.139941 -0.197875 -0.0113489 26 102 204
0.100446 -0.195493 -0.026976 26 102 204
-0.252354 -0.161519 -0.0224331 26 102 204
0.137416 -0.197867 -0.0427212 26 102 204
-0.107707 -0.177674 -0.0643622 26 102 204
0.179062 -0.201523 -0.0608034 26 102 204
0.203627 -0.202862 -0.0774461 26 102 204
-0.218315 -0.167444 -0.0946487 26 102 204
0.133707 -0.198919 -0.109172 26 102 204
0.236742 -0.207034 -0.0893246 26 102 204
-0.0480242 -0.181978 -0.0929877 26 102 204
0.174807 -0.201487 -0.145712 26 102 204
-0.294676 -0.155979 -0.213254 26 102 204
-0.202057 -0.166273 -0.167902 26 102 204
0.0821395 -0.194634 -0.174362 26 102 204
-0.0152162 -0.185824 -0.153738 26 102 204
-0.0943837 -0.178585 -0.187384 26 102 204
0.0789331 -0.194733 -0.176682 26 102 204
0.131262 -0.199574 -0.270352 26 102 204
-0.252311 -0.15989 -0.41283 26 102 204
0.148409 -0.196687 0.103832 26 102 204
0.0429604 -0.186885 -0.199704 26 102 204
-0.263451 -0.156657 0.0157245 26 102 204
0.0388608 -0.191043 0.0423356 26 102 204
-0.110863 -0.172129 0.0818455 26 102 204
-0.19059 -0.166238 -0.208357 26 102 204
-0.27229 -0.161514 0.027266 26 102 204
-0.211318 -0.160485 -0.0531532 26 102 204
-0.273208 -0.154957 -0.204071 26 102 204
-0.234889 -0.161895 0.0640528 26 102 204
0.217816 -0.205137 -0.193322 26 102 204
-0.0982855 -0.175209 0.0545419 26 102 204
-0.0945753 -0.176182 -0.013093 26 102 204
0.209258 -0.20536 -0.277313 26 102 204
-0.130051 -0.173126 -0.0482853 26 102 204
-0.188856 -0.168777 -0.309421 26 102 204
-0.149883 -0.169267 -0.0629358 26 102 204
-0.18205 -0.163557 -0.267423 26 102 204
0.21937 -0.201016 -0.46802 26 102 204
-0.320425 -0.153355 -0.419428 26 102 204
-0.247692 -0.157518 -0.26365 26 102 204
-0.114544 -0.169347 0.0189088 26 102 204
0.230663 -0.205334 -0.401293 26 102 204
-0.113204 -0.16994 -0.403053 26 102 204
-0.0165372 -0.179851 -0.0471803 26 102 204
0.261258 -0.204433 -0.259958 26 102 204
-0.248456 -0.150535 -0.374448 26 102 204
0.258264 -0.212926 0.215547 26 102 204
0.17319 -0.198766 -0.101973 26 102 204
-0.181826 -0.162147 -0.302558 26 102 204
-0.055832 -0.17402 0.0276551 26 102 204
0.25525 -0.202187 0.281263 26 102 204
-0.0691774 -0.173815 -0.0641774 26 102 204
-0.0726861 -0.172474 -0.0151479 26 102 204
0.201837 -0.201876 -0.352689 26 102 204
0.0277369 -0.179805 -0.0738479 26 102 204
0.246882 -0.202761 0.168762 26 102 204
0.119654 -0.191816 -0.276013 26 102 204
-0.109044 -0.16525 -0.272549 26 102 204
-0.00858861 -0.172297 -0.134909 26 102 204
-0.179057 -0.159622 -0.264878 26 102 204
-0.262365 -0.15491 -0.24048 26 102 204
-0.118574 -0.166311 -0.236505 26 102 204
-0.221507 -0.153239 -0.250467 26 102 204
-0.0860438 -0.164398 -0.228626 26 102 204
0.231664 -0.200219 -0.31688 26 102 204
-0.221233 -0.158479 0.0654135 26 102 204
-0.242957 -0.153704 -0.239848 26 102 204
-0.309254 -0.144047 0.146931 26 102 204
0.0462582 -0.178939 -0.105913 26 102 204
-0.236103 -0.147902 -0.446374 26 102 204
0.202746 -0.192608 -0.141163 26 102 204
-0.109832 -0.165415 0.061705 26 102 204
0.258449 -0.200016 0.183376 26 102 204
-0.164278 -0.153971 -0.156083 26 102 204
0.117811 -0.182609 -0.0998421 26 102 204
0.0217457 -0.172737 -0.0917436 26 102 204
0.121069 -0.183812 -0.0143317 26 102 204
0.049892 -0.178219 0.0756635 26 102 204
0.149062 -0.191347 -0.0640419 26 102 204
-0.0157699 -0.167609 0.0736717 26 102 204
0.0276749 -0.173917 -0.0506051 26 102 204
-0.0638707 -0.165242 0.115442 26 102 204
-0.277813 -0.145527 -0.489889 26 102 204
-0.110037 -0.159814 -0.0272761 26 102 204
-0.299779 -0.136597 0.133929 26 102 204
0.116093 -0.180793 0.0966708 26 102 204
-0.0211111 -0.171436 -0.0560761 26 102 204
0.200085 -0.186226 -0.0934051 26 102 204
0.0779425 -0.176698 0.108133 26 102 204
0.239209 -0.187414 -0.454279 26 102 204
0.256549 -0.206699 -0.0910052 26 102 204
0.176261 -0.17219 0.0301356 26 102 204
0.280864 -0.197161 0.152059 26 102 204
-0.301025 -0.124256 0.227905 26 102 204
-0.244683 -0.137396 -0.48937 26 102 204
-0.310073 -0.127685 0.0929939 26 102 204
-0.290836 -0.132295 -0.0307704 26 102 204
0.0208564 -0.163656 -0.00377043 26 102 204
-0.262088 -0.13533 -0.504155 26 102 204
-0.129969 -0.148171 0.0248047 26 102 204
0.266975 -0.185724 -0.0931062 26 102 204
-0.278522 -0.131438 -0.350086 26 102 204
0.263617 -0.185551 -0.469154 26 102 204
-0.0926651 -0.149442 0.0139415 26 102 204
0.176579 -0.174121 0.127243 26 102 204
-0.248605 -0.132364 0.041457 26 102 204
-0.262374 -0.12713 -0.470503 26 102 204
-0.27985 -0.128251 0.0060074 26 102 204
-0.28999 -0.12567 0.236126 26 102 204
-0.237516 -0.122768 0.110495 26 102 204
-0.280119 -0.128162 0.419433 26 102 204
0.135605 -0.161723 0.0829299 26 102 204
-0.299507 -0.126582 -0.441554 26 102 204
0.141804 -0.160816 0.0335534 26 102 204
-0.26816 -0.123259 0.106669 26 102 204
-0.307377 -0.120151 0.158574 26 102 204
-0.313603 -0.119222 -0.291352 26 102 204
0.193465 -0.170369 0.125457 26 102 204
-0.00821963 -0.153362 0.0640125 26 102 204
-0.0277289 -0.147365 0.00376358 26 102 204
0.271291 -0.172831 0.0620344 26 102 204
-0.240843 -0.125729 -0.498384 26 102 204
0.270031 -0.172272 -0.248513 26 102 204
0.0471343 -0.152765 0.0121728 26 102 204
-0.259878 -0.118318 -0.314217 26 102 204
-0.0975203 -0.134154 0.014252 26 102 204
-0.267805 -0.11772 0.197095 26 102 204
-0.274063 -0.116406 -0.0618568 26 102 204
0.211113 -0.165174 0.149943 26 102 204
-0.292988 -0.115061 -0.0994427 26 102 204
0.264941 -0.168993 0.0775074 26 102 204
0.256831 -0.168854 -0.325659 26 102 204
0.256433 -0.15857 0.148687 26 102 204
-0.314113 -0.105435 -0.0279578 26 102 204
-0.0443657 -0.141826 0.0581148 26 102 204
0.10638 -0.146663 0.120677 26 102 204
0.255901 -0.163052 -0.43534 26 102 204
0.192729 -0.157027 0.0680821 26 102 204
-0.297579 -0.108009 -0.356189 26 102 204
0.110147 -0.14794 0.0557882 26 102 204
-0.10725 -0.125918 0.000174324 26 102 204
-0.270822 -0.109904 -0.303649 26 102 204
-0.290986 -0.104193 0.0785286 26 102 204
0.164512 -0.153835 -0.0365438 26 102 204
-0.281284 -0.104432 -0.469436 26 102 204
0.284815 -0.160845 -0.0633915 26 102 204
-0.251071 -0.111303 -0.405551 26 102 204
0.174684 -0.14918 -0.013805 26 102 204
0.17433 -0.147588 0.0624393 26 102 204
-0.320913 -0.0953514 -0.428067 26 102 204
0.144484 -0.143132 0.0505226 26 102 204
-0.289788 -0.100084 -0.0682224 26 102 204
0.048344 -0.134814 0.00580705 26 102 204
-0.272329 -0.0979052 -0.105617 26 102 204
-0.282365 -0.0961423 -0.35495 26 102 204
-0.309871 -0.093742 0.0696577 26 102 204
-0.201121 -0.105654 0.0549229 26 102 204
-0.249338 -0.0981578 -0.120208 26 102 204
0.269081 -0.139546 0.0875556 26 102 204
-0.274665 -0.0941719 0.082402 26 102 204
0.255717 -0.146534 0.10428 26 102 204
0.259282 -0.14307 -0.0539134 26 102 204
0.281669 -0.168336 -0.0632359 26 102 204
-0.275605 -0.0902436 -0.503581 26 102 204
-0.309993 -0.085605 -0.359034 26 102 204
0.206397 -0.1371 0.0755101 26 102 204
-0.307377 -0.0830782 -0.259771 26 102 204
0.254863 -0.150616 -0.286485 26 102 204
0.280568 -0.138103 0.326896 26 102 204
0.18838 -0.129876 0.0279557 26 102 204
-0.277468 -0.0879679 -0.484647 26 102 204
-0.302857 -0.0835832 0.239459 26 102 204
-0.155666 -0.0912024 0.0415696 26 102 204
0.192908 -0.133669 0.0249463 26 102 204
-0.276474 -0.0856538 -0.0194526 26 102 204
0.273852 -0.134965 -0.346162 26 102 204
-0.124575 -0.0942362 0.0446165 26 102 204
-0.157719 -0.0906569 0.107787 26 102 204
-0.27268 -0.0770986 0.052517 26 102 204
0.220118 -0.122817 -0.0383928 26 102 204
0.271169 -0.126352 0.000330346 26 102 204
0.287081 -0.1251 -0.404443 26 102 204
-0.271247 -0.0770263 0.00776827 26 102 204
0.236483 -0.12316 0.0871419 26 102 204
-0.194126 -0.0849264 -0.042523 26 102 204
0.242869 -0.123753 0.0585392 26 102 204
0.0449203 -0.105286 0.0386038 26 102 204
-0.280483 -0.0690823 0.080239 26 102 204
0.276785 -0.126018 0.0951381 26 102 204
0.166156 -0.111376 -0.00869898 26 102 204
0.264851 -0.123944 -0.0661783 26 102 204
-0.124274 -0.085555 -0.0814936 26 102 204
0.282958 -0.128785 -0.0082446 26 102 204
0.0113422 -0.097378 -0.00754936 26 102 204
-0.185256 -0.0810099 -0.0168925 26 102 204
-0.179884 -0.0836212 0.0834166 26 102 204
-0.237149 -0.0804404 -0.0509391 26 102 204
-0.139687 -0.088958 -0.0678576 26 102 204
0.122257 -0.107942 -0.0908728 26 102 204
-0.0387548 -0.098483 -0.0462947 26 102 204
-0.0990879 -0.0888518 -0.0981505 26 102 204
0.0278691 -0.102198 -0.0702953 26 102 204
-0.195085 -0.0780841 -0.117217 26 102 204
0.0760246 -0.105007 -0.0106694 26 102 204
0.106423 -0.109109 -0.0890249 26 102 204
-0.0896921 -0.096208 -0.0580552 26 102 204
0.23736 -0.117385 -0.0761713 26 102 204
-0.129681 -0.0854065 -0.0947667 26 102 204
-0.265477 -0.0731828 -0.0842934 26 102 204
-0.274819 -0.0722589 -0.0790541 26 102 204
0.0299429 -0.102077 -0.0606889 26 102 204
0.164192 -0.115462 -0.0631648 26 102 204
0.0538544 -0.100892 -0.0911741 26 102 204
0.248962 -0.119906 -0.0880546 26 102 204
-0.244865 -0.0732436 -0.100087 26 102 204
-0.070007 -0.088862 -0.0969846 26 102 204
-0.227324 -0.0769657 -0.119327 26 102 204
-0.184443 -0.0776863 -0.100388 26 102 204
0.0565865 -0.100522 0.157983 26 102 204
-0.0311541 -0.175508 0.0624347 26 102 204
0.222689 -0.11672 -0.138578 26 102 204
0.201904 -0.111535 -0.113575 26 102 204
0.242297 -0.116773 -0.0999785 26 102 204
-0.175308 -0.0775994 -0.12187 26 102 204
-0.0167151 -0.0927779 -0.124121 26 102 204
-0.058665 -0.0896406 -0.116321 26 102 204
-0.169868 -0.082055 -0.133278 26 102 204
-0.11533 -0.0814044 -0.147063 26 102 204
0.0922985 -0.100929 -0.160395 26 102 204
0.0585839 -0.0994997 -0.154601 26 102 204
-0.271083 -0.067208 -0.174446 26 102 204
0.250024 -0.114958 -0.157904 26 102 204
0.0842302 -0.0995537 -0.134023 26 102 204
-0.0844104 -0.0848371 -0.145817 26 102 204
0.00794635 -0.0927555 -0.136297 26 102 204
0.201928 -0.112033 -0.140664 26 102 204
-0.0349151 -0.091174 -0.185096 26 102 204
-0.0296968 -0.0911016 -0.16698 26 102 204
0.0538917 -0.0955314 -0.147057 26 102 204
-0.0491889 -0.0873957 -0.143345 26 102 204
-0.271242 -0.0676846 -0.184451 26 102 204
-0.327631 -0.061869 0.0655726 26 102 204
0.269052 -0.112752 -0.428945 26 102 204
0.260175 -0.11444 -0.164737 26 102 204
0.268016 -0.111683 3.06916e-05 26 102 204
0.0830935 -0.100802 0.154832 26 102 204
0.218814 -0.108698 -0.163731 26 102 204
0.213885 -0.109163 -0.17061 26 102 204
-0.00303264 -0.0893519 -0.164809 26 102 204
0.129094 -0.136466 -0.207398 26 102 204
0.00133926 -0.0895475 -0.19051 26 102 204
-0.138705 -0.0759739 -0.189693 26 102 204
0.146803 -0.103771 -0.188484 26 102 204
-0.200414 -0.0708345 -0.159408 26 102 204
-0.0855844 -0.0825552 -0.151924 26 102 204
-0.127232 -0.0794683 0.155701 26 102 204
-0.0936331 -0.0793288 -0.196967 26 102 204
-0.00995271 -0.0875491 -0.153567 26 102 204
-0.0240852 -0.0847129 -0.218595 26 102 204
-0.101956 -0.0760276 -0.196968 26 102 204
0.258568 -0.11055 -0.439479 26 102 204
0.241423 -0.106943 -0.441145 26 102 204
0.0656127 -0.08981 -0.211577 26 102 204
0.0956979 -0.0955439 -0.207474 26 102 204
-0.0164371 -0.0819692 -0.193379 26 102 204
0.229175 -0.10394 -0.247805 26 102 204
0.0540917 -0.0870625 0.110396 26 102 204
-0.314022 -0.0529611 0.206634 26 102 204
-0.16788 -0.0666061 0.0984515 26 102 204
0.255259 -0.111653 0.259225 26 102 204
0.0566714 -0.0832311 0.109878 26 102 204
-0.317036 -0.0545053 -0.405608 26 102 204
0.129479 -0.0914524 0.0853726 26 102 204
-0.289459 -0.0615146 0.279533 26 102 204
0.0681187 -0.0825729 0.175348 26 102 204
0.128345 -0.0899534 0.112806 26 102 204
0.257467 -0.0910147 0.209629 26 102 204
-0.307899 -0.0477253 0.326029 26 102 204
-0.257605 -0.045564 0.0364967 26 102 204
0.267504 -0.0913718 -0.354623 26 102 204
-0.175038 -0.0515772 0.112057 26 102 204
0.0257639 -0.0671519 0.102567 26 102 204
-0.117827 -0.0501745 0.0997143 26 102 204
-0.285434 -0.0404927 0.278384 26 102 204
-0.2062 -0.0450699 -0.00324539 26 102 204
0.237113 -0.0870479 0.0991622 26 102 204
0.128267 -0.0814717 0.096292 26 102 204
0.160661 -0.0806234 0.157182 26 102 204
0.0694804 -0.0664372 0.107185 26 102 204
0.0293025 -0.0607752 0.0808932 26 102 204
-0.0810928 -0.0536847 0.0967939 26 102 204
-0.169929 -0.0413658 0.103105 26 102 204
0.182765 -0.077161 0.125654 26 102 204
0.228972 -0.0800097 0.107782 26 102 204
0.0727748 -0.0661222 0.108412 26 102 204
0.273998 -0.0819655 0.136423 26 102 204
-0.0755925 -0.0568868 0.0910194 26 102 204
0.115859 -0.0643024 0.166543 26 102 204
0.252949 -0.0840382 -0.392949 26 102 204
0.283196 -0.0821866 -0.392823 26 102 204
-0.0840508 -0.0586122 0.0566251 26 102 204
-0.271787 -0.0250163 0.0926851 26 102 204
-0.184111 -0.0298911 0.13091 26 102 204
-0.218522 -0.0276275 0.0703421 26 102 204
-0.208989 -0.0304413 0.181574 26 102 204
-0.0816049 -0.0400593 0.137382 26 102 204
0.275398 -0.0667562 0.344079 26 102 204
-0.246566 -0.0267544 0.105405 26 102 204
-0.154993 -0.0311865 0.118532 26 102 204
0.146186 -0.0553902 0.132902 26 102 204
-0.293527 -0.0150719 0.0584517 26 102 204
-0.11918 -0.031452 0.125387 26 102 204
-0.10402 -0.0449398 0.14475 26 102 204
-0.250658 -0.0188275 0.199968 26 102 204
-0.11133 -0.0280906 0.140766 26 102 204
0.254879 -0.0620423 0.114277 26 102 204
-0.195528 -0.0197457 0.103925 26 102 204
0.229937 -0.0274458 0.123714 26 102 204
-0.0122426 -0.032153 0.13234 26 102 204
-0.0234476 -0.0327171 0.123459 26 102 204
0.138849 -0.0457976 0.0806031 26 102 204
-0.281339 -0.00852575 0.104937 26 102 204
0.198229 -0.0533674 0.108767 26 102 204
-0.271062 -0.00443273 0.114698 26 102 204
-0.0302869 -0.0272758 0.0971945 26 102 204
-0.108934 -0.0305943 0.106601 26 102 204
0.133202 -0.0404183 0.122927 26 102 204
0.197372 -0.0446919 0.122309 26 102 204
-0.22764 -0.00082671 0.0807316 26 102 204
-0.229851 -0.00653472 0.0922231 26 102 204
0.193645 -0.0392873 0.10564 26 102 204
0.277028 -0.0510739 -0.344939 26 102 204
0.17326 -0.0366467 0.114617 26 102 204
0.241555 -0.0450121 0.120638 26 102 204
-0.0491087 -0.0153715 0.12622 26 102 204
-0.159018 0.00237302 0.0598267 26 102 204
0.121207 -0.0268366 0.097619 26 102 204
-0.164871 -0.00332548 0.0933314 26 102 204
0.296769 -0.0379645 -0.351542 26 102 204
-0.133822 -0.00330399 0.161166 26 102 204
0.213145 -0.0369085 0.134165 26 102 204
-0.139239 -0.00194452 0.127251 26 102 204
0.265109 -0.0442949 0.359533 26 102 204
0.186428 -0.0312284 0.0583427 26 102 204
-0.102529 -0.00377351 0.0681066 26 102 204
-0.238872 0.014327 0.132419 26 102 204
-0.229683 0.00919998 0.0818968 26 102 204
0.228483 -0.0225659 0.126064 26 102 204
-0.200166 0.012772 0.0785498 26 102 204
0.263279 -0.0303137 0.406964 26 102 204
0.127736 -0.0157187 0.0590703 26 102 204
0.0675273 -0.00472114 0.0765372 26 102 204
0.121326 -0.0115024 0.096887 26 102 204
-0.0912839 0.00836154 0.0901282 26 102 204
-0.192849 0.0172358 0.152628 26 102 204
0.237395 -0.0156937 0.104516 26 102 204
-0.0868968 0.010344 0.0981189 26 102 204
0.203917 -0.0130065 0.152089 26 102 204
-0.231462 0.0246458 0.193768 26 102 204
0.277074 -0.0183046 0.139317 26 102 204
0.111543 0.00137519 0.113819 26 102 204
0.224037 -0.0128198 0.060979 26 102 204
-0.105597 0.0320916 0.121738 26 102 204
0.266123 -0.0110721 0.152575 26 102 204
-0.305926 0.0405306 0.315161 26 102 204
-0.158221 0.0310441 0.151192 26 102 204
-0.229905 0.0372684 0.0882989 26 102 204
-0.154709 0.0424544 0.201317 26 102 204
0.269256 -0.0074718 0.0661013 26 102 204
-0.088251 0.0232305 0.105336 26 102 204
0.151252 -0.0022392 0.0770597 26 102 204
0.216735 -0.00345825 0.108022 26 102 204
0.235871 -0.00538481 0.109458 26 102 204
-0.0386154 0.0203287 0.190754 26 102 204
0.21201 0.000788367 0.0968455 26 102 204
0.0217295 0.0166538 0.0765148 26 102 204
0.108608 0.00900333 0.0746123 26 102 204
-0.132914 0.0302799 0.194099 26 102 204
0.0827543 0.146697 0.0637893 26 102 204
-0.201694 0.0407402 0.213102 26 102 204
-0.240049 0.0487747 0.128673 26 102 204
0.224513 0.00206461 0.252693 26 102 204
0.145631 0.00921699 0.161053 26 102 204
-0.10073 0.0308813 0.184675 26 102 204
-0.260803 0.0452696 0.173018 26 102 204
-0.237047 0.0431618 0.147034 26 102 204
-0.19962 0.0456508 0.163154 26 102 204
-0.222242 0.0452424 0.139504 26 102 204
-0.186595 0.0421208 0.12553 26 102 204
-0.17767 0.0422206 0.106248 26 102 204
-0.20438 0.0431937 0.178326 26 102 204
0.177126 0.00722902 0.0747786 26 102 204
-0.18589 0.0420813 0.130177 26 102 204
-0.180449 0.0420424 0.188289 26 102 204
0.187735 0.00737193 0.0818738 26 102 204
-0.267727 0.0594519 0.215365 26 102 204
-0.239401 0.0558767 0.148313 26 102 204
0.160345 0.0121701 0.0900187 26 102 204
0.0343539 0.0233433 0.109877 26 102 204
-0.189327 0.0480767 0.117633 26 102 204
0.265456 0.0047474 0.363777 26 102 204
0.236941 0.00535913 0.201261 26 102 204
0.112856 0.0188251 0.0942641 26 102 204
0.235523 0.0161459 0.137385 26 102 204
0.213925 0.00782184 0.0636408 26 102 204
-0.225782 0.0539891 0.146364 26 102 204
0.289067 0.00513311 0.0706757 26 102 204
-0.274788 0.0619109 0.153508 26 102 204
0.0818138 0.026462 0.0942596 26 102 204
0.23753 0.0122112 0.266994 26 102 204
-0.196001 0.0537394 0.304797 26 102 204
0.205663 0.016111 0.104347 26 102 204
-0.198263 0.0576879 0.134923 26 102 204
-0.127994 0.0450466 0.0920524 26 102 204
0.275356 0.0072417 0.0215 26 102 204
-0.0126966 0.0366662 0.0694849 26 102 204
-0.0386268 0.0404883 0.0784326 26 102 204
-0.160535 0.050151 0.121816 26 102 204
0.0755743 0.0289866 0.166099 26 102 204
-0.271618 0.064426 0.114664 26 102 204
0.156523 0.0333354 0.0895624 26 102 204
-0.21743 0.0542551 0.123905 26 102 204
0.279267 0.0134843 0.121298 26 102 204
-0.0781615 0.0516485 0.0689996 26 102 204
0.0949723 0.0301161 0.10551 26 102 204
0.176117 0.0202836 0.191075 26 102 204
0.14238 0.0318017 0.149557 26 102 204
0.191969 0.019486 0.0837593 26 102 204
0.00515756 0.0374321 0.147175 26 102 204
-0.169227 0.0700617 0.202997 26 102 204
-0.117024 0.0558656 0.143644 26 102 204
0.311013 0.163792 0.167496 26 102 204
-0.267427 0.0687815 -0.306952 26 102 204
0.238733 0.0144336 0.208722 26 102 204
-0.27336 0.0668499 -0.286502 26 102 204
-0.227325 0.0603624 0.0995292 26 102 204
-0.252873 0.0654519 0.23748 26 102 204
0.0450868 0.041049 0.0832663 26 102 204
0.284779 0.0142802 0.175297 26 102 204
0.253904 0.0265511 0.0609653 26 102 204
0.272441 0.0159216 0.0872786 26 102 204
-0.262423 0.0744595 0.126159 26 102 204
0.140042 0.0316408 0.073143 26 102 204
0.278651 0.0219346 -0.229124 26 102 204
0.137335 0.0427722 0.0863083 26 102 204
-0.0845579 0.0608491 0.229503 26 102 204
0.187394 0.0333038 0.201492 26 102 204
0.265845 0.0271058 0.299195 26 102 204
0.219981 0.0370927 0.0686163 26 102 204
0.222073 0.0304064 0.0610455 26 102 204
0.226227 0.0276753 0.222675 26 102 204
0.218246 0.0339743 0.0525303 26 102 204
-0.161996 0.0645362 0.117319 26 102 204
0.250794 0.0354876 0.201207 26 102 204
-0.132796 0.0769286 0.0692186 26 102 204
-0.0044111 0.0580813 0.0711096 26 102 204
0.264643 0.0290835 0.254668 26 102 204
-0.223166 0.0849135 0.251249 26 102 204
-0.135058 0.0730649 0.203743 26 102 204
-0.222983 0.0722634 0.0764715 26 102 204
-0.0684992 0.0589874 0.0742665 26 102 204
0.214378 0.0369979 0.224776 26 102 204
-0.273438 0.0927191 0.116588 26 102 204
-0.0270261 0.0655716 0.204342 26 102 204
0.199393 0.0402155 0.237306 26 102 204
0.250308 0.0415105 0.24098 26 102 204
0.158473 0.0464058 0.209467 26 102 204
-0.0934482 0.0748509 0.190283 26 102 204
-0.198783 0.0616123 0.105537 26 102 204
-0.0638015 0.0686193 0.193094 26 102 204
0.0853428 0.0588623 0.198769 26 102 204
-0.140495 0.0931776 0.246625 26 102 204
0.242961 0.0391091 0.110457 26 102 204
0.169962 0.0463852 0.161817 26 102 204
-0.242956 0.0871463 0.171585 26 102 204
-0.183526 0.0898297 0.188104 26 102 204
0.227855 0.0402671 0.118722 26 102 204
0.216293 0.0520006 0.147923 26 102 204
0.240356 0.0347689 0.190299 26 102 204
-0.23424 0.0781604 0.0955075 26 102 204
-0.0706611 0.0678239 0.107786 26 102 204
0.253976 0.0332675 0.195504 26 102 204
-0.312462 0.08631 0.277101 26 102 204
0.228219 0.0437758 0.250486 26 102 204
-0.283604 0.0886251 0.142965 26 102 204
-0.303407 0.0829128 0.0963463 26 102 204
-0.241036 0.0742736 0.0853481 26 102 204
0.0864823 0.0707062 0.0900686 26 102 204
-0.181072 0.0792521 0.203185 26 102 204
-0.266012 0.0877439 0.0576447 26 102 204
-0.279615 0.0805181 0.0906281 26 102 204
0.102142 0.0541102 0.105345 26 102 204
-0.182629 0.0775685 0.102754 26 102 204
0.283885 0.037331 0.12666 26 102 204
-0.20728 0.0799914 0.072305 26 102 204
0.280607 0.0519345 0.263952 26 102 204
-0.298564 0.093273 0.0719058 26 102 204
-0.266852 0.0972567 0.0830222 26 102 204
-0.295649 0.0973047 0.0902401 26 102 204
-0.272617 0.0985086 0.116293 26 102 204
0.053087 0.0763274 0.0757741 26 102 204
-0.0228696 0.0697753 0.0976463 26 102 204
-0.155643 0.0812967 0.117341 26 102 204
0.115035 0.0636602 0.121501 26 102 204
0.286929 0.0608773 0.304217 26 102 204
0.11878 0.0623861 0.108805 26 102 204
-0.0983599 0.0815667 0.0961269 26 102 204
-0.222933 0.103903 0.105663 26 102 204
0.241499 0.048157 0.0634858 26 102 204
-0.303143 0.108709 -0.297504 26 102 204
0.289887 0.0429232 0.191109 26 102 204
-0.29605 0.104066 -0.278681 26 102 204
-0.311796 0.104397 0.202223 26 102 204
-0.208411 0.104859 0.0413125 26 102 204
-0.215827 0.0951671 0.0806385 26 102 204
-0.131462 0.0933868 0.0882556 26 102 204
0.251209 0.0530971 0.203056 26 102 204
-0.23668 0.0998362 0.0846557 26 102 204
0.196885 0.0608086 0.113248 26 102 204
0.205509 0.0684038 0.096265 26 102 204
-0.0180127 0.0884959 0.0818114 26 102 204
0.0196152 0.0816187 0.0908405 26 102 204
0.109115 0.0705495 0.0965571 26 102 204
0.0627671 0.0765481 0.080329 26 102 204
0.185495 0.065733 0.141494 26 102 204
0.323183 0.0566361 -0.300055 26 102 204
0.0777652 0.0863306 0.104958 26 102 204
-0.266902 0.113248 -0.282721 26 102 204
0.293811 0.07317 -0.328416 26 102 204
-0.286706 0.128121 -0.284856 26 102 204
-0.298809 0.134963 -0.332681 26 102 204
-0.175035 0.104884 0.0863864 26 102 204
-0.28321 0.128113 -0.286396 26 102 204
0.292449 0.0703289 0.283621 26 102 204
0.280613 0.0738854 0.0468877 26 102 204
-0.290163 0.133756 -0.288263 26 102 204
0.293261 0.0742708 -0.230924 26 102 204
0.262829 0.0723258 0.0841116 26 102 204
-0.00779491 0.0988357 0.101068 26 102 204
0.275922 0.0864928 0.0827097 26 102 204
-0.166692 0.115237 0.0980928 26 102 204
-0.269243 0.130969 0.0812004 26 102 204
-0.138758 0.131592 0.0705204 26 102 204
-0.209287 0.136785 0.0944909 26 102 204
0.273858 0.090615 0.0518216 26 102 204
0.134604 0.0990866 0.109636 26 102 204
-0.172602 0.130895 0.0972199 26 102 204
-0.198794 0.129976 0.253362 26 102 204
0.267826 0.0945543 0.0754163 26 102 204
-0.0979008 0.126037 0.108204 26 102 204
-0.186281 0.138513 0.0715786 26 102 204
0.26513 0.0964124 0.152959 26 102 204
-0.256023 0.142961 0.281006 26 102 204
0.0677982 0.12033 0.0931577 26 102 204
0.294213 0.102789 0.135062 26 102 204
-0.305416 0.156503 -0.302106 26 102 204
0.239091 0.104616 0.189451 26 102 204
0.278296 0.104327 0.329742 26 102 204
-0.187984 0.141844 0.0741677 26 102 204
-0.200226 0.151725 0.263353 26 102 204
0.322551 0.102442 0.0767092 26 102 204
-0.13657 0.143147 0.137482 26 102 204
0.270151 0.105624 0.0896213 26 102 204
-0.295988 0.164827 -0.309513 26 102 204
-0.169239 0.152071 0.0625152 26 102 204
0.188682 0.120032 0.0817377 26 102 204
-0.300976 0.160602 0.222782 26 102 204
0.0923313 0.132658 0.0508846 26 102 204
0.0700196 0.129623 0.116118 26 102 204
-0.271998 0.161699 -0.180068 26 102 204
0.249546 0.116588 0.127499 26 102 204
0.33101 0.110771 -0.253775 26 102 204
0.337313 0.108661 0.0343928 26 102 204
-0.20964 0.165134 0.182635 26 102 204
-0.148761 0.159258 0.19537 26 102 204
0.33033 0.116421 0.112086 26 102 204
-0.302254 0.167264 -0.200815 26 102 204
-0.209897 0.169846 0.256027 26 102 204
0.307198 0.117802 0.138737 26 102 204
0.314586 0.11652 0.0971445 26 102 204
-0.262474 0.170285 -0.210208 26 102 204
0.318733 0.122836 0.250837 26 102 204
0.0685742 0.140758 0.0581413 26 102 204
0.263242 0.130744 0.122804 26 102 204
0.310793 0.12213 0.121081 26 102 204
-0.0419397 0.14053 0.206181 26 102 204
0.108943 0.145344 0.0984254 26 102 204
-0.0265327 0.15459 0.0692428 26 102 204
0.259384 0.12844 0.0720991 26 102 204
-0.0493617 0.154927 0.14652 26 102 204
0.235474 0.138379 0.0853884 26 102 204
0.283342 0.129923 0.423281 26 102 204
0.00537094 0.15656 0.13387 26 102 204
-0.21039 0.175227 0.0630061 26 102 204
0.11837 0.139266 0.0514808 26 102 204
-0.274288 0.182436 0.26595 26 102 204
-0.0377929 0.162971 0.0718088 26 102 204
-0.280059 0.194596 -0.309306 26 102 204
0.32265 0.131125 -0.27941 26 102 204
0.250062 0.139784 0.176423 26 102 204
0.311954 0.135815 0.074858 26 102 204
0.179813 0.152513 0.0578125 26 102 204
0.187707 0.148108 0.16374 26 102 204
0.313961 0.135033 0.0828681 26 102 204
-0.293932 0.192806 -0.293198 26 102 204
0.263401 0.145649 0.0424661 26 102 204
-0.197294 0.199152 0.217791 26 102 204
0.196288 0.151825 0.0964637 26 102 204
-0.0914335 0.175542 0.164238 26 102 204
0.058277 0.167821 0.170679 26 102 204
-0.0795489 0.183611 0.12351 26 102 204
0.073736 0.170812 0.0759657 26 102 204
0.228223 0.152304 0.218682 26 102 204
0.335769 0.151377 -0.213901 26 102 204
0.328094 0.146078 0.0855146 26 102 204
-0.201818 0.19943 0.342613 26 102 204
-0.142982 0.200231 0.257821 26 102 204
0.218817 0.159148 0.107175 26 102 204
0.28301 0.161364 0.134377 26 102 204
-0.170232 0.194489 0.193858 26 102 204
0.1144 0.170087 0.0619339 26 102 204
-0.190557 0.202005 0.330829 26 102 204
-0.263499 0.213317 0.193404 26 102 204
0.101326 0.170775 0.102032 26 102 204
-0.0709075 0.192584 0.168965 26 102 204
-0.0751692 0.190925 0.0830826 26 102 204
-0.280995 0.210852 -0.23247 26 102 204
0.270692 0.159465 0.361528 26 102 204
-0.226347 0.209556 0.33401 26 102 204
0.0971927 0.171989 0.185086 26 102 204
-0.266556 0.211707 0.162366 26 102 204
-0.0597816 0.196054 0.146109 26 102 204
0.306862 0.163543 0.248407 26 102 204
0.250646 0.180051 0.247283 26 102 204
0.132939 0.179959 0.0586661 26 102 204
-0.190184 0.208902 0.170741 26 102 204
0.331191 0.173249 0.228631 26 102 204
-0.0058283 0.197267 0.055002 26 102 204
0.311247 0.163006 0.276577 26 102 204
0.283046 0.178342 0.189144 26 102 204
0.311326 0.165348 0.270728 26 102 204
-0.288446 0.223704 -0.277453 26 102 204
-0.242792 0.218586 0.296236 26 102 204
0.294237 0.170287 0.0375826 26 102 204
0.183902 0.17976 0.19145 26 102 204
-0.238719 0.221358 0.226163 26 102 204
0.219622 0.18278 0.0762911 26 102 204
0.00146468 0.202285 0.0783434 26 102 204
-0.264807 0.2304 -0.178689 26 102 204
-0.149473 0.214368 0.0581836 26 102 204
0.346662 0.18192 -0.1941 26 102 204
0.160411 0.189267 0.0920724 26 102 204
0.30073 0.177396 0.23663 26 102 204
-0.270093 0.228826 0.188232 26 102 204
0.305137 0.178443 0.239576 26 102 204
0.367152 0.185685 -0.205371 26 102 204
-0.256141 0.234132 0.491 26 102 204
0.300113 0.18309 0.376758 26 102 204
-0.240715 0.233257 0.135192 26 102 204
-0.178203 0.228624 0.06636 26 102 204
0.0447389 0.212828 0.145843 26 102 204
0.285461 0.18544 0.20678 26 102 204
-0.265231 0.239689 0.322513 26 102 204
0.322682 0.183649 0.0688691 26 102 204
0.264867 0.189239 0.24038 26 102 204
-0.106862 0.223774 0.146891 26 102 204
-0.12941 0.231157 0.189574 26 102 204
0.148836 0.207065 0.257426 26 102 204
-0.197867 0.236885 0.0369295 26 102 204
0.325427 0.195951 0.18834 26 102 204
-0.0788584 0.224518 0.177169 26 102 204
0.0845394 0.213327 0.0426064 26 102 204
-0.23656 0.248436 0.231108 26 102 204
0.0565511 0.218773 0.095206 26 102 204
-0.148883 0.235519 0.260202 26 102 204
0.139933 0.214842 0.0773637 26 102 204
0.32642 0.19873 0.261573 26 102 204
-0.249227 0.252417 0.168625 26 102 204
0.331821 0.190692 0.126064 26 102 204
0.254577 0.224603 0.0969202 26 102 204
0.146606 0.214315 0.223686 26 102 204
0.310971 0.189389 0.23218 26 102 204
-0.268294 0.253289 0.258174 26 102 204
0.295481 0.203213 0.295678 26 102 204
0.328462 0.203581 0.365357 26 102 204
-0.269763 0.258924 0.173995 26 102 204
0.349596 0.20144 0.201345 26 102 204
0.232637 0.211704 0.0988962 26 102 204
0.210712 0.216655 0.0890127 26 102 204
0.303119 0.211196 0.293399 26 102 204
0.342953 0.203406 0.391687 26 102 204
0.0722458 0.226162 0.130843 26 102 204
0.250715 0.21604 0.113815 26 102 204
0.216947 0.220064 0.174727 26 102 204
0.168212 0.222834 0.185294 26 102 204
-0.252001 0.26261 0.397742 26 102 204
0.273427 0.21753 0.073692 26 102 204
-0.0555146 0.244969 0.189767 26 102 204
0.314803 0.214147 0.117904 26 102 204
0.296244 0.216319 0.172038 26 102 204
0.0700465 0.250756 0.175499 26 102 204
-0.23377 0.267873 0.170392 26 102 204
-0.0448864 0.254868 0.0455098 26 102 204
0.265873 0.231255 0.275609 26 102 204
-0.248561 0.270458 0.280507 26 102 204
-0.239048 0.273128 0.434304 26 102 204
0.118311 0.239069 0.193071 26 102 204
0.350437 0.222738 0.275504 26 102 204
0.349849 0.224365 0.254502 26 102 204
-0.221243 0.27275 0.0827642 26 102 204
0.146496 0.242395 0.0712555 26 102 204
-0.215572 0.280573 0.381392 26 102 204
-0.220907 0.271773 0.236742 26 102 204
-0.0103207 0.258793 0.0922847 26 102 204
0.262285 0.234265 0.154089 26 102 204
0.262258 0.23097 0.118195 26 102 204
-0.255089 0.283575 0.362897 26 102 204
0.274783 0.238524 0.251023 26 102 204
0.297818 0.240573 0.0754962 26 102 204
-0.247185 0.287099 0.329099 26 102 204
0.336258 0.236248 0.419373 26 102 204
-0.0560777 0.258973 0.208265 26 102 204
0.315352 0.241693 0.315178 26 102 204
-0.224124 0.286682 0.311153 26 102 204
0.325352 0.235013 0.277652 26 102 204
-0.255518 0.288502 0.245595 26 102 204
-0.25088 0.293224 0.22049 26 102 204
0.277234 0.249795 0.223081 26 102 204
-0.235738 0.294996 0.323535 26 102 204
-0.223952 0.292727 0.134932 26 102 204
-0.222353 0.294854 0.198528 26 102 204
-0.225379 0.298538 0.163873 26 102 204
-0.205807 0.287108 0.243618 26 102 204
-0.223197 0.291898 0.268936 26 102 204
-0.261212 0.297015 0.241777 26 102 204
-0.235067 0.296648 0.342939 26 102 204
0.325664 0.24451 0.292046 26 102 204
-0.184336 0.286689 0.253894 26 102 204
-0.256786 0.301309 0.141821 26 102 204
0.0873814 0.268742 0.110499 26 102 204
0.170631 0.26798 0.112192 26 102 204
0.0467631 0.273154 0.0718083 26 102 204
0.240997 0.264146 0.0708997 26 102 204
0.247858 0.255548 0.339698 26 102 204
-0.234129 0.30202 0.220542 26 102 204
0.279852 0.263861 0.0810289 26 102 204
0.0336645 0.285533 0.0468564 26 102 204
-0.191964 0.301301 0.0784694 26 102 204
0.249576 0.262897 0.163866 26 102 204
0.225641 0.26804 0.0505299 26 102 204
-0.213471 0.297178 0.121066 26 102 204
0.2644 0.264464 0.192079 26 102 204
0.296764 0.26502 0.341316 26 102 204
-0.227223 0.312847 0.380091 26 102 204
-0.0629783 0.296343 0.0897673 26 102 204
0.282034 0.269158 0.297013 26 102 204
0.0613317 0.288141 0.0671672 26 102 204
0.213957 0.278555 0.158185 26 102 204
-0.248331 0.315306 0.150662 26 102 204
-0.218398 0.318491 0.252092 26 102 204
0.111898 0.285454 0.0775953 26 102 204
0.252664 0.279406 0.093775 26 102 204
-0.225894 0.324156 0.169443 26 102 204
0.108392 0.293027 0.0455639 26 102 204
-0.23446 0.325946 0.240678 26 102 204
0.210475 0.295398 0.0624785 26 102 204
0.0206336 0.305629 0.0665296 26 102 204
-0.222686 0.3351 0.0745539 26 102 204
-0.247426 0.334461 0.110473 26 102 204
-0.241195 0.328148 0.264401 26 102 204
0.182991 0.306003 0.0904755 26 102 204
0.20425 0.30198 0.0625965 26 102 204
0.228495 0.307042 0.103023 26 102 204
0.13166 0.321124 0.0732792 26 102 204
0.0102257 0.328084 0.0753833 26 102 204
-0.240769 0.353887 0.268114 26 102 204
-0.102438 0.342595 0.0523005 26 102 204
0.272855 0.305871 0.264862 26 102 204
-0.10077 0.341302 0.037701 26 102 204
0.275654 0.311496 0.213468 26 102 204
0.23906 0.32361 0.128597 26 102 204
0.267446 0.319633 0.177953 26 102 204
0.16179 0.336865 0.0385832 26 102 204
-0.229513 0.361414 0.0915498 26 102 204
0.215686 0.315913 0.11645 26 102 204
-0.143642 0.356153 0.0956459 26 102 204
-0.144022 0.361348 0.0817128 26 102 204
0.196806 0.335892 0.0628663 26 102 204
0.150621 0.337872 0.0990037 26 102 204
-0.0919812 0.361053 0.0675989 26 102 204
-0.205752 0.373677 0.287104 26 102 204
0.249417 0.334332 0.0620191 26 102 204
0.189715 0.346606 0.0660062 26 102 204
-0.225892 0.371853 0.258213 26 102 204
-0.193688 0.376929 0.0898794 26 102 204
-0.18996 0.381244 0.117768 26 102 204
-0.178037 0.383679 0.0484894 26 102 204
-0.234892 0.388294 0.415946 26 102 204
0.0614544 0.363486 0.0529858 26 102 204
0.331347 0.347832 0.382956 26 102 204
-0.238547 0.394883 0.275975 26 102 204
-0.0219729 0.376701 0.0757893 26 102 204
0.345168 0.341268 0.442062 26 102 204
0.299986 0.349238 0.0628487 26 102 204
0.251529 0.361336 0.1392 26 102 204
-0.222351 0.394174 0.277932 26 102 204
-0.26313 0.404745 0.345754 26 102 204
0.342556 0.351146 0.463864 26 102 204
0.345138 0.340512 0.450044 26 102 204
-0.232606 0.409058 0.382649 26 102 204
-0.0202481 0.391632 0.0801237 26 102 204
-0.23708 0.417016 0.406344 26 102 204
0.329299 0.364545 0.44563 26 102 204
-0.247663 0.402143 0.449888 26 102 204
0.330405 0.351605 0.506111 26 102 204
0.350951 0.360116 0.490958 26 102 204
-0.215726 0.423724 0.35564 26 102 204
0.334355 0.374962 0.439475 26 102 204
0.327694 0.373907 0.447297 26 102 204
0.198186 0.385169 0.0697815 26 102 204
0.00363193 0.407521 0.0831871 26 102 204
-0.0820214 0.411317 0.0734469 26 102 204
0.0528089 0.391544 0.072775 26 102 204
0.0265545 0.401021 0.0528835 26 102 204
0.077804 0.391063 0.069226 26 102 204
0.149152 0.397154 0.0643444 26 102 204
-0.138524 0.419104 0.0629202 26 102 204
0.253249 0.374852 0.0675579 26 102 204
-0.198853 0.428931 0.0501206 26 102 204
0.339394 0.371287 0.377103 26 102 204
-0.246856 0.422752 0.0661964 26 102 204
