ply
format ascii 1.0
comment Created by Open3D
element vertex 1024
property double x
property double y
property double z
property uchar red
property uchar green
property uchar blue
end_header
0.23969 0.280539 0.179097 26 102 204
0.230922 0.278423 0.217731 26 102 204
0.2356 0.280418 0.191461 26 102 204
0.239939 0.278965 0.163694 26 102 204
0.238643 0.275069 0.147953 26 102 204
0.230297 0.274204 0.153771 26 102 204
0.239506 0.279397 0.169585 26 102 204
0.238636 0.274465 0.160618 26 102 204
0.234025 0.27766 0.172363 26 102 204
0.272296 0.234042 0.213321 26 102 204
0.23194 0.286427 0.169017 26 102 204
0.242009 0.256173 0.187185 26 102 204
0.242931 0.270657 0.094397 26 102 204
0.210657 0.291341 0.194965 26 102 204
0.218197 0.291909 0.217892 26 102 204
0.225433 0.279525 0.131322 26 102 204
0.23996 0.258167 0.18456 26 102 204
0.265199 0.228174 0.176595 26 102 204
0.245187 0.253826 0.140716 26 102 204
0.242264 0.258599 0.2025 26 102 204
0.239425 0.258926 0.202636 26 102 204
0.241593 0.258382 0.146575 26 102 204
0.250528 0.232075 0.197836 26 102 204
0.239259 0.256582 0.227053 26 102 204
0.252265 0.231664 0.215969 26 102 204
0.300897 0.175717 -0.164372 26 102 204
0.3197 0.172082 -0.13869 26 102 204
0.288033 0.180255 -0.153833 26 102 204
0.291131 0.187885 -0.144232 26 102 204
0.32353 0.154389 -0.176857 26 102 204
0.27479 0.204411 -0.159043 26 102 204
0.312588 0.174159 -0.183014 26 102 204
0.322279 0.14211 -0.162513 26 102 204
0.337248 0.136124 -0.154178 26 102 204
0.310115 0.158581 -0.169394 26 102 204
0.295598 0.182025 -0.146569 26 102 204
0.260978 0.216375 -0.153942 26 102 204
0.26032 0.220818 -0.0584166 26 102 204
0.341679 0.119224 -0.147127 26 102 204
0.215888 0.265965 0.212072 26 102 204
0.22359 0.247157 0.212124 26 102 204
0.338549 0.11501 -0.164858 26 102 204
0.339923 0.111837 -0.182013 26 102 204
0.286942 0.1722 -0.18848 26 102 204
0.2558 0.214771 -0.127328 26 102 204
0.253643 0.193823 0.21826 26 102 204
0.182083 0.294712 0.215845 26 102 204
0.263129 0.197337 -0.151365 26 102 204
0.258045 0.194411 -0.213269 26 102 204
0.200101 0.27399 0.205132 26 102 204
0.174315 0.290108 0.228455 26 102 204
0.362319 0.077789 -0.1443 26 102 204
0.219962 0.233738 -0.143883 26 102 204
0.175785 0.29591 0.228324 26 102 204
0.179692 0.284467 0.221807 26 102 204
0.201681 0.275169 0.197551 26 102 204
0.214014 0.247991 0.16985 26 102 204
0.356007 0.0960285 -0.115967 26 102 204
0.364251 0.0938883 -0.113355 26 102 204
0.357566 0.0908783 -0.122742 26 102 204
0.366211 0.072972 -0.144814 26 102 204
0.36391 0.0875858 -0.156328 26 102 204
0.14974 0.306581 0.22124 26 102 204
0.119109 0.347613 0.213318 26 102 204
0.221362 0.21964 0.199138 26 102 204
0.189749 0.260126 0.222506 26 102 204
0.178595 0.284406 0.213064 26 102 204
0.0627883 0.40145 0.212458 26 102 204
0.215405 0.232545 0.207938 26 102 204
0.10063 0.367833 0.201356 26 102 204
0.16182 0.292862 0.209658 26 102 204
0.156577 0.296315 0.201034 26 102 204
0.0662718 0.402412 0.20899 26 102 204
0.132435 0.326364 0.185647 26 102 204
0.0944136 0.366808 0.208352 26 102 204
0.146314 0.316158 0.219237 26 102 204
0.102936 0.357221 0.205135 26 102 204
0.0892978 0.383592 0.200181 26 102 204
0.0902617 0.377284 0.227419 26 102 204
0.34979 0.0788401 -0.11807 26 102 204
0.229805 0.205625 0.223968 26 102 204
0.180532 0.282077 0.224959 26 102 204
0.336306 0.0936852 -0.188485 26 102 204
0.0517382 0.408264 0.222434 26 102 204
0.100553 0.350486 0.222262 26 102 204
0.372228 0.0359903 -0.108583 26 102 204
0.301767 0.132533 -0.1899 26 102 204
0.352172 0.0821102 -0.121708 26 102 204
0.115804 0.329795 0.196129 26 102 204
0.128375 0.318817 0.200432 26 102 204
0.346694 0.0607995 -0.122688 26 102 204
0.318797 0.101619 -0.142192 26 102 204
0.178831 0.265519 0.23054 26 102 204
0.155183 0.284207 0.190801 26 102 204
0.175941 0.273887 0.230835 26 102 204
0.235886 0.200048 -0.213617 26 102 204
0.365292 0.0516379 -0.115952 26 102 204
0.343586 0.0805642 -0.115798 26 102 204
0.300144 0.118609 -0.108878 26 102 204
0.359543 0.0460129 -0.117654 26 102 204
0.180187 0.258373 0.226205 26 102 204
0.11549 0.316856 -0.174606 26 102 204
0.0608167 0.380261 0.243983 26 102 204
0.0635932 0.371009 0.22611 26 102 204
0.135405 0.281022 0.215449 26 102 204
0.17089 0.2338 0.221315 26 102 204
0.163588 0.249599 -0.199136 26 102 204
0.400033 -0.0427234 -0.0207893 26 102 204
0.149616 0.264282 0.214274 26 102 204
0.384743 -0.00855904 -0.0393947 26 102 204
0.10827 0.312961 -0.219843 26 102 204
0.307016 0.0821861 -0.101989 26 102 204
0.343021 0.0322981 -0.0575811 26 102 204
0.148051 0.264916 -0.231179 26 102 204
0.412219 -0.0444425 -0.0304479 26 102 204
0.106559 0.300746 -0.218948 26 102 204
0.161445 0.25657 -0.220722 26 102 204
0.209385 0.183884 -0.135695 26 102 204
0.252818 0.131415 -0.115757 26 102 204
0.0934503 0.308347 0.199621 26 102 204
0.217167 0.189709 -0.183708 26 102 204
-0.0105131 0.447902 0.201298 26 102 204
0.10164 0.306494 0.222233 26 102 204
0.12455 0.271078 -0.196398 26 102 204
0.371785 -0.0145071 -0.109112 26 102 204
0.365828 -0.0112622 -0.0312152 26 102 204
0.389198 -0.0311616 -0.0777501 26 102 204
0.125244 0.270326 -0.233776 26 102 204
0.126775 0.270853 -0.230142 26 102 204
0.0583228 0.356735 -0.217091 26 102 204
0.141656 0.249833 -0.220902 26 102 204
0.37022 -0.0130679 -0.0601152 26 102 204
0.17784 0.167343 -0.143367 26 102 204
0.409114 -0.0771594 -0.0345175 26 102 204
0.057344 0.356713 -0.241207 26 102 204
0.140397 0.249367 -0.206947 26 102 204
0.00789714 0.392988 -0.23994 26 102 204
0.0324852 0.36804 -0.195283 26 102 204
0.224986 0.139582 -0.171365 26 102 204
0.3803 -0.0398661 -0.0146755 26 102 204
0.416039 -0.0925989 -0.0468033 26 102 204
0.10579 0.279233 -0.247359 26 102 204
0.0535333 0.34321 0.22993 26 102 204
0.260617 0.102226 -0.189392 26 102 204
0.0558155 0.320716 -0.233752 26 102 204
0.373362 -0.0337275 -0.0333022 26 102 204
0.115102 0.270865 -0.248491 26 102 204
0.132194 0.24298 -0.223926 26 102 204
0.0962887 0.278349 -0.226802 26 102 204
0.0324581 0.352928 -0.255413 26 102 204
0.137491 0.258015 0.214024 26 102 204
0.0255851 0.354049 -0.211629 26 102 204
0.128093 0.228505 -0.21284 26 102 204
0.342784 -0.00376093 -0.0444313 26 102 204
0.378298 -0.0552625 -0.0728886 26 102 204
0.349952 -0.0376709 -0.0953118 26 102 204
0.295854 0.0301474 -0.103911 26 102 204
0.372092 -0.0686507 -0.105471 26 102 204
0.35653 -0.0442847 -0.0988891 26 102 204
0.0797745 0.322223 -0.258235 26 102 204
0.339548 -0.0195378 -0.142398 26 102 204
0.0883785 0.279144 -0.252777 26 102 204
-0.0148555 0.384065 -0.228788 26 102 204
0.00603447 0.365489 -0.238905 26 102 204
0.109226 0.267165 -0.246811 26 102 204
0.392809 -0.0835566 -0.0729723 26 102 204
0.376197 -0.0762773 -0.0433206 26 102 204
-0.0169499 0.377024 -0.237342 26 102 204
0.369894 -0.0640901 -0.0623114 26 102 204
0.0314783 0.349532 -0.260436 26 102 204
-0.00574333 0.353043 -0.174886 26 102 204
0.396122 -0.105193 -0.062058 26 102 204
0.0773981 0.268239 -0.261969 26 102 204
0.0994858 0.239988 -0.234307 26 102 204
0.0698027 0.276707 -0.260489 26 102 204
0.227798 0.0764501 -0.117231 26 102 204
0.36693 -0.0695108 -0.0958824 26 102 204
0.36459 -0.0749565 -0.0886147 26 102 204
0.335676 -0.046661 -0.106694 26 102 204
0.0503055 0.289846 -0.250269 26 102 204
0.0749138 0.257078 -0.21474 26 102 204
0.00934623 0.353874 -0.225566 26 102 204
0.0859411 0.247803 -0.159586 26 102 204
0.052266 0.289526 -0.265045 26 102 204
0.384869 -0.0560454 0.018307 26 102 204
-0.0293327 0.38361 -0.222818 26 102 204
0.297986 0.086693 -0.191682 26 102 204
-0.0150978 0.363994 -0.208575 26 102 204
0.040847 0.285732 -0.212097 26 102 204
0.0222047 0.323163 -0.167528 26 102 204
0.0120839 0.321293 -0.249679 26 102 204
0.0301459 0.306859 -0.157903 26 102 204
0.0868726 0.238779 -0.173153 26 102 204
0.0211942 0.319753 -0.217903 26 102 204
0.0293846 0.309048 -0.186206 26 102 204
0.0218906 0.308882 -0.250044 26 102 204
0.0796813 0.24683 -0.21224 26 102 204
0.114327 0.187285 -0.2441 26 102 204
0.0785799 0.246704 -0.184052 26 102 204
0.119469 0.202712 -0.206804 26 102 204
0.12276 0.182694 -0.232052 26 102 204
0.0856175 0.231062 -0.244416 26 102 204
0.143951 0.172371 -0.225553 26 102 204
0.183688 0.128607 -0.24912 26 102 204
0.197061 0.104949 -0.216525 26 102 204
0.214037 0.086537 -0.143314 26 102 204
0.239667 0.0670341 -0.188616 26 102 204
0.263053 0.0223373 -0.165543 26 102 204
0.293977 -0.0206561 -0.202008 26 102 204
0.282852 -0.00394499 -0.130653 26 102 204
0.290502 -0.00687372 -0.207027 26 102 204
0.321665 -0.0726755 -0.141103 26 102 204
0.318656 -0.0546441 -0.126443 26 102 204
0.307007 -0.0243979 -0.143849 26 102 204
0.318774 -0.0383572 -0.17935 26 102 204
0.337855 -0.0608994 -0.142337 26 102 204
0.359364 -0.103705 -0.144447 26 102 204
0.351658 -0.0881491 -0.137254 26 102 204
0.374578 -0.11412 -0.0924157 26 102 204
0.378214 -0.119057 -0.111098 26 102 204
0.385112 -0.128473 -0.119724 26 102 204
0.383716 -0.117173 -0.119259 26 102 204
0.399653 -0.140997 -0.0727689 26 102 204
0.414523 -0.161138 0.0139184 26 102 204
0.434292 -0.201203 0.00755745 26 102 204
0.410578 -0.175627 -0.0313253 26 102 204
0.409346 -0.174713 0.0036317 26 102 204
0.407604 -0.147437 0.190196 26 102 204
0.405613 -0.147154 0.0233117 26 102 204
0.396013 -0.151242 0.0917198 26 102 204
0.412184 -0.169173 -0.0649053 26 102 204
0.394206 -0.145965 0.15847 26 102 204
0.407464 -0.158751 0.169416 26 102 204
0.370801 -0.125073 -0.163823 26 102 204
0.387416 -0.138595 -0.0633537 26 102 204
0.399234 -0.15461 -0.123954 26 102 204
0.395639 -0.147425 -0.0817039 26 102 204
0.388664 -0.132202 0.0338567 26 102 204
0.376609 -0.137025 -0.01156 26 102 204
0.383236 -0.145282 0.00630375 26 102 204
0.396522 -0.146539 -0.156521 26 102 204
0.379224 -0.140985 -0.00398532 26 102 204
0.378563 -0.142976 0.211394 26 102 204
0.37255 -0.133376 -0.127501 26 102 204
0.38633 -0.154611 0.043039 26 102 204
0.377921 -0.146134 0.120072 26 102 204
0.383114 -0.149464 -0.0835012 26 102 204
0.374138 -0.145406 -0.0883797 26 102 204
0.388616 -0.163083 -0.0584965 26 102 204
0.386278 -0.15086 0.104976 26 102 204
0.388979 -0.16155 0.100555 26 102 204
0.366784 -0.140415 -0.161954 26 102 204
0.387667 -0.150456 0.012638 26 102 204
0.386514 -0.160282 -0.03831 26 102 204
0.389795 -0.162995 -0.000948939 26 102 204
0.377491 -0.153679 0.029316 26 102 204
0.37287 -0.146354 -0.155321 26 102 204
0.375521 -0.146358 -0.0804084 26 102 204
0.379201 -0.153267 0.00528439 26 102 204
0.374759 -0.140904 0.177973 26 102 204
0.367188 -0.145614 0.178943 26 102 204
0.372697 -0.145333 -0.0685404 26 102 204
0.366514 -0.13745 0.123943 26 102 204
0.375004 -0.148414 0.0272782 26 102 204
0.372975 -0.148725 0.172864 26 102 204
0.356797 -0.132767 0.0207224 26 102 204
0.359518 -0.142044 0.0528073 26 102 204
0.353057 -0.134733 0.12264 26 102 204
0.357693 -0.134868 0.0775885 26 102 204
0.376959 -0.115898 0.114539 26 102 204
0.353421 -0.132508 -0.0885335 26 102 204
0.356683 -0.141692 -0.10507 26 102 204
0.362604 -0.146881 0.0616926 26 102 204
0.353472 -0.14124 -0.200617 26 102 204
0.350072 -0.140315 -0.0361604 26 102 204
0.350084 -0.137228 -0.158501 26 102 204
0.348916 -0.1344 -0.00123853 26 102 204
0.346486 -0.137114 -0.140467 26 102 204
0.345718 -0.129019 -0.168618 26 102 204
0.344464 -0.136597 -0.0943021 26 102 204
0.334599 -0.134623 0.187994 26 102 204
0.337846 -0.137767 -0.147403 26 102 204
0.353955 -0.156052 -0.177217 26 102 204
0.351242 -0.151863 -0.024896 26 102 204
0.336114 -0.141317 0.0910688 26 102 204
0.338486 -0.142223 0.0786952 26 102 204
0.331454 -0.135799 -0.00423767 26 102 204
0.335053 -0.137627 0.00314069 26 102 204
0.332421 -0.141917 -0.163015 26 102 204
0.335513 -0.141981 -0.129024 26 102 204
0.333124 -0.141555 0.201078 26 102 204
0.327066 -0.136129 -0.158644 26 102 204
0.327683 -0.147188 0.00183314 26 102 204
0.330794 -0.148697 -0.00117843 26 102 204
0.328611 -0.151513 0.112727 26 102 204
0.313687 -0.131472 0.15916 26 102 204
0.32333 -0.143518 -0.0900682 26 102 204
0.335296 -0.145265 -0.0973088 26 102 204
0.345326 -0.167854 -0.0572969 26 102 204
0.32068 -0.145827 -0.0411507 26 102 204
0.324206 -0.140236 -0.12523 26 102 204
0.326367 -0.141764 -0.0831353 26 102 204
0.320736 -0.140854 0.115865 26 102 204
0.324224 -0.140565 0.136495 26 102 204
0.323957 -0.152345 0.0615439 26 102 204
0.320468 -0.142592 -0.122328 26 102 204
0.325758 -0.142704 0.0452075 26 102 204
0.320694 -0.139096 -0.0688024 26 102 204
0.311134 -0.14574 0.0224965 26 102 204
0.307156 -0.135303 0.0321875 26 102 204
0.317046 -0.138905 0.177224 26 102 204
0.308318 -0.140286 0.024699 26 102 204
0.304691 -0.137921 0.0564652 26 102 204
0.298647 -0.130353 -0.00175499 26 102 204
0.297744 -0.132035 0.100323 26 102 204
0.292888 -0.123367 -0.0586282 26 102 204
0.29601 -0.126245 0.0117033 26 102 204
0.304498 -0.119283 0.135161 26 102 204
0.276204 -0.0990755 -0.105693 26 102 204
0.290905 -0.12092 0.167853 26 102 204
0.278928 -0.103671 0.142886 26 102 204
0.288367 -0.1174 -0.0500182 26 102 204
0.289589 -0.103776 -0.0599694 26 102 204
0.279312 -0.110362 -0.0304295 26 102 204
0.273175 -0.106963 -0.0032677 26 102 204
0.282475 -0.116421 0.165388 26 102 204
0.264764 -0.101574 -0.021484 26 102 204
0.293154 -0.0890248 -0.02319 26 102 204
0.270575 -0.103393 -0.0324719 26 102 204
0.260858 -0.105145 0.0176775 26 102 204
0.131025 0.26172 0.100017 26 102 204
0.26109 -0.0978918 0.0423508 26 102 204
0.261276 -0.0965942 -0.0743137 26 102 204
0.249949 -0.0929869 -0.0710063 26 102 204
0.260802 -0.0860763 0.0635234 26 102 204
0.251859 -0.0966275 0.0571251 26 102 204
0.253926 -0.0910522 -0.0854407 26 102 204
0.245909 -0.0913398 -0.068196 26 102 204
0.259558 -0.0995721 0.0693938 26 102 204
0.275654 -0.096156 -0.101107 26 102 204
0.248901 -0.0951133 0.100467 26 102 204
0.253953 -0.0955472 -0.00199042 26 102 204
0.255405 -0.0935226 0.178302 26 102 204
0.247908 -0.0993361 0.0594242 26 102 204
0.247601 -0.0944472 -0.128298 26 102 204
0.247992 -0.0839305 0.0688569 26 102 204
0.245939 -0.0920352 -0.155007 26 102 204
0.247831 -0.0999867 -0.0616893 26 102 204
0.242952 -0.0861834 -0.133511 26 102 204
0.232436 -0.079984 -0.0485615 26 102 204
0.234626 -0.0815521 -0.0108246 26 102 204
0.237082 -0.079605 -0.115175 26 102 204
0.23001 -0.0768979 0.134995 26 102 204
0.229907 -0.0742121 0.123047 26 102 204
0.223062 -0.0714215 0.168406 26 102 204
0.221548 -0.0676454 0.0624901 26 102 204
0.357166 -0.19016 -0.138247 26 102 204
0.22293 -0.0688528 0.0827146 26 102 204
0.231464 -0.0632317 0.00106688 26 102 204
0.217951 -0.0702353 0.0728204 26 102 204
0.217217 -0.0645876 -0.0877015 26 102 204
0.20257 -0.053065 -0.103626 26 102 204
0.20892 -0.0602652 0.0615803 26 102 204
0.197569 -0.0498836 0.152045 26 102 204
0.193552 -0.0485391 0.059891 26 102 204
0.198317 -0.050603 -0.0507262 26 102 204
0.201087 -0.0515975 0.00388697 26 102 204
0.196007 -0.0528132 -0.0698392 26 102 204
0.188719 -0.0453426 0.0107408 26 102 204
0.197056 -0.0453181 -0.109998 26 102 204
0.198856 0.179219 -0.19368 26 102 204
0.189975 -0.0393694 0.0985902 26 102 204
0.188602 -0.0401023 -0.0618943 26 102 204
0.185604 -0.0388005 -0.0924476 26 102 204
0.178874 -0.0329806 0.13151 26 102 204
0.181189 -0.0315878 0.00164297 26 102 204
0.17102 -0.0256841 -0.0650243 26 102 204
0.165859 -0.0200846 -0.0174933 26 102 204
0.173355 -0.0227879 0.126831 26 102 204
0.160832 -0.0126122 -0.00699045 26 102 204
0.168017 -0.0174777 -0.104879 26 102 204
0.172152 -0.0238159 -0.0157771 26 102 204
0.16258 -0.0149434 0.060495 26 102 204
0.168924 -0.016521 -0.11568 26 102 204
0.128285 0.0213462 -0.0201872 26 102 204
0.162348 -0.011505 0.101135 26 102 204
0.147709 -0.00306933 -0.0367538 26 102 204
0.152896 -0.00698313 0.0884809 26 102 204
0.171402 -0.0156815 0.0866631 26 102 204
0.15844 -0.00486576 -0.0739734 26 102 204
0.15878 -0.0137251 0.0340378 26 102 204
0.156801 -0.00978333 0.159011 26 102 204
0.160333 -0.0153036 -0.092145 26 102 204
0.157984 -0.0107887 -0.0618705 26 102 204
0.160279 -0.0123342 0.0688504 26 102 204
0.170231 -0.0189799 0.0838274 26 102 204
0.152335 -0.0074518 -0.00734725 26 102 204
0.156884 -0.0138399 -0.0901993 26 102 204
0.161267 -0.01499 0.157873 26 102 204
0.152816 -0.00903407 0.0835455 26 102 204
0.155301 -0.0120003 -0.0138121 26 102 204
0.15564 -0.0111832 0.094909 26 102 204
0.157933 -0.0165675 -0.119523 26 102 204
0.147806 -0.00575032 0.0234236 26 102 204
0.150906 -0.00802561 0.107161 26 102 204
0.145722 -0.000989313 -0.000351014 26 102 204
0.156214 -0.0100301 0.0049124 26 102 204
0.150726 -0.0132113 0.0990319 26 102 204
0.156553 -0.0162208 -0.0979214 26 102 204
0.153631 -0.0103022 0.0718014 26 102 204
0.156087 -0.0146655 -0.0416686 26 102 204
0.164169 -0.0223525 -0.0957732 26 102 204
0.156214 -0.0132822 0.091454 26 102 204
0.160194 -0.0237365 -0.0423536 26 102 204
0.147102 -0.00669728 0.0291503 26 102 204
0.183433 -0.0501676 -0.00932285 26 102 204
0.150548 -0.0140642 -0.041281 26 102 204
0.144709 -0.00535474 0.0154842 26 102 204
0.146931 -0.00837892 0.118498 26 102 204
0.153608 -0.0168817 -0.0854966 26 102 204
0.131686 0.00848782 0.133763 26 102 204
0.146104 -0.00815593 0.0763193 26 102 204
0.131819 0.0061279 0.0819315 26 102 204
0.144121 -0.00198692 0.115564 26 102 204
0.148405 -0.00405731 -0.062485 26 102 204
0.13834 0.002279 0.0699954 26 102 204
0.13881 0.00504863 0.0186888 26 102 204
0.136159 0.00401418 0.0811572 26 102 204
0.131936 0.00167383 -0.0212389 26 102 204
0.124023 0.0141637 -0.156503 26 102 204
0.133791 0.00573158 0.0879193 26 102 204
0.121402 0.019951 -0.0712595 26 102 204
0.122919 0.0192796 0.0377483 26 102 204
0.125158 0.018832 0.114886 26 102 204
0.121838 0.0176646 -0.0960143 26 102 204
0.117656 0.0300548 0.0794981 26 102 204
0.11479 0.0328027 0.0849018 26 102 204
0.0885916 0.0500886 0.0495015 26 102 204
0.0997257 0.0474118 -0.033568 26 102 204
0.11651 0.0299971 -0.0187135 26 102 204
0.106799 0.0371152 0.105664 26 102 204
0.111316 0.035059 0.0940147 26 102 204
0.110966 0.0361228 -0.121134 26 102 204
0.110475 0.033117 0.122396 26 102 204
0.104983 0.0326768 -0.116599 26 102 204
0.112376 0.0309639 0.0269461 26 102 204
0.113548 0.0354913 0.126473 26 102 204
0.107509 0.0353734 0.0770527 26 102 204
0.115636 0.0413627 0.039872 26 102 204
0.106327 0.0372889 -0.136387 26 102 204
0.102947 0.0434811 -0.0348488 26 102 204
0.100403 0.0439225 -0.0560848 26 102 204
0.10742 0.032974 0.132299 26 102 204
0.0972244 0.0424098 -0.0614999 26 102 204
0.0903101 0.0570249 0.117514 26 102 204
0.083269 0.0601967 -0.0651393 26 102 204
0.0820701 0.0624675 -0.0657251 26 102 204
0.0828337 0.0630261 -0.0397584 26 102 204
0.0737255 0.0828387 -0.00790879 26 102 204
0.0679527 0.0757512 -0.0825056 26 102 204
0.0722447 0.0751742 0.110011 26 102 204
0.0649154 0.0805983 0.0351381 26 102 204
0.0624024 0.085543 0.0897092 26 102 204
0.0565782 0.0876007 -0.0540102 26 102 204
0.0496455 0.0900104 0.0665019 26 102 204
0.291379 -0.172839 0.023645 26 102 204
0.0557956 0.0840427 -0.180658 26 102 204
0.0524573 0.0877819 -0.0460566 26 102 204
0.0439896 0.0904589 0.130094 26 102 204
0.0476795 0.0843427 -0.130816 26 102 204
0.043845 0.0928185 -0.115847 26 102 204
0.328432 -0.20955 0.0826167 26 102 204
0.0514327 0.092623 -0.190405 26 102 204
0.0354162 0.0902945 -0.120718 26 102 204
0.0342737 0.0877908 -0.0860951 26 102 204
0.0317564 0.0856478 0.00462147 26 102 204
0.0285197 0.0918232 -0.139776 26 102 204
0.0449845 0.0814476 0.180277 26 102 204
0.0234492 0.0876692 -0.0207218 26 102 204
0.0201234 0.0849099 0.0524818 26 102 204
0.0221752 0.081815 -0.0878564 26 102 204
0.0238209 0.0752447 -0.05339 26 102 204
0.0167647 0.0833656 -0.0671748 26 102 204
0.0157348 0.081655 0.139054 26 102 204
0.0124303 0.074963 -0.120715 26 102 204
0.00767393 0.0797862 0.147905 26 102 204
0.00262089 0.0625933 -0.165115 26 102 204
0.00788689 0.0761786 0.0428877 26 102 204
0.00261496 0.0757094 -0.132989 26 102 204
0.265133 -0.206244 0.0363738 26 102 204
0.000378659 0.0691548 0.061786 26 102 204
0.00407558 0.0580563 -0.11104 26 102 204
0.0037461 0.0761543 0.104906 26 102 204
0.000780666 0.0783503 0.155445 26 102 204
-0.00250213 0.0782522 -0.111493 26 102 204
-0.0102485 0.0553575 0.00297414 26 102 204
-0.000614584 0.0813057 -0.0426084 26 102 204
0.148373 -0.086785 0.0290706 26 102 204
0.151441 -0.102859 0.012182 26 102 204
0.0255876 0.0456875 -0.100393 26 102 204
0.150082 -0.0880485 -0.0613487 26 102 204
-0.00347905 0.0662056 0.190811 26 102 204
0.143223 -0.0844597 0.0876682 26 102 204
-0.00324085 0.0733903 -0.00290387 26 102 204
-0.000293786 0.0782114 0.0592927 26 102 204
0.136478 -0.0843041 -0.0194958 26 102 204
0.145067 -0.0813172 -0.0809244 26 102 204
0.000572067 0.073641 0.126837 26 102 204
0.122584 -0.0634623 0.130338 26 102 204
0.147072 -0.0880159 0.0203679 26 102 204
0.129589 -0.0728878 0.0243153 26 102 204
0.147114 -0.0853896 -0.0313789 26 102 204
0.00781111 0.0549891 -0.0440351 26 102 204
-0.00242953 0.076686 -0.0754431 26 102 204
0.166685 -0.105153 0.0855235 26 102 204
0.182612 -0.13222 -0.0611703 26 102 204
0.088153 -0.0231558 -0.0743301 26 102 204
-0.00484838 0.0734281 -0.0768557 26 102 204
-0.000933928 0.072116 0.0995683 26 102 204
0.226729 -0.185795 -0.045674 26 102 204
0.13991 -0.0849243 0.18052 26 102 204
0.163227 -0.119099 0.120607 26 102 204
0.177851 -0.136798 -0.0373284 26 102 204
0.257251 -0.237896 -0.0257842 26 102 204
0.239816 -0.205385 0.024917 26 102 204
0.200858 -0.167182 -0.111094 26 102 204
-0.0157979 0.0752742 -0.0541917 26 102 204
0.261347 -0.232012 0.04197 26 102 204
0.272212 -0.239043 0.0503554 26 102 204
-0.0286114 0.0799252 0.0346518 26 102 204
0.2367 -0.212362 -0.0362266 26 102 204
0.243497 -0.221142 0.11438 26 102 204
0.222416 -0.191505 0.132596 26 102 204
0.238266 -0.217975 -0.0435241 26 102 204
0.236907 -0.220311 0.14939 26 102 204
0.228885 -0.202398 0.11938 26 102 204
0.235875 -0.211708 0.0635533 26 102 204
0.223757 -0.209752 0.053778 26 102 204
0.238012 -0.210591 0.0372094 26 102 204
0.242637 -0.228469 0.124593 26 102 204
0.23327 -0.222394 0.160339 26 102 204
0.228191 -0.218148 0.175167 26 102 204
0.234081 -0.221995 0.162484 26 102 204
0.213628 -0.207354 -0.100792 26 102 204
0.221867 -0.214873 -0.119246 26 102 204
0.235025 -0.21903 0.107852 26 102 204
0.225455 -0.19844 0.00366355 26 102 204
0.222726 -0.188913 0.135607 26 102 204
0.233346 -0.198625 -0.061023 26 102 204
0.235343 -0.218197 -0.0929826 26 102 204
0.222673 -0.185521 -0.105545 26 102 204
0.228978 -0.215345 -0.111786 26 102 204
0.238827 -0.217947 0.212603 26 102 204
-0.0423823 0.0714606 -0.015389 26 102 204
0.238241 -0.220741 -0.135081 26 102 204
0.23824 -0.231174 -0.0958729 26 102 204
0.238562 -0.233489 0.133247 26 102 204
-0.0271028 0.0470267 -0.0255069 26 102 204
0.251877 -0.215355 0.161048 26 102 204
0.261691 -0.2443 0.0208784 26 102 204
0.248967 -0.25913 -0.0947322 26 102 204
0.25476 -0.257915 -0.0308768 26 102 204
0.248151 -0.249809 0.0329836 26 102 204
0.239484 -0.253829 -0.0293828 26 102 204
0.247249 -0.250562 0.0166333 26 102 204
0.257129 -0.271087 0.0691371 26 102 204
0.247101 -0.254483 -0.0698718 26 102 204
0.261061 -0.268011 0.0232348 26 102 204
-0.0279642 0.0591029 0.0773493 26 102 204
-0.047404 0.0498962 0.0240955 26 102 204
-0.0377423 0.0528035 -0.0756782 26 102 204
-0.036476 0.0470069 -0.0785889 26 102 204
-0.0332387 0.0465771 -0.030214 26 102 204
0.245218 -0.26368 -0.0171568 26 102 204
-0.0394141 0.0391792 0.0295536 26 102 204
-0.0350607 0.0423542 -0.0504807 26 102 204
-0.0394916 0.0400834 -0.0511203 26 102 204
-0.0481376 0.0453314 0.207707 26 102 204
-0.0414745 0.0405898 0.125193 26 102 204
-0.0412383 0.0410225 0.0277455 26 102 204
-0.0505107 0.0398178 -0.13795 26 102 204
-0.0490253 0.0441492 0.0582091 26 102 204
-0.0480976 0.0401089 -0.00113774 26 102 204
-0.050986 0.0356304 -0.0805548 26 102 204
-0.0499575 0.0377623 -0.0547371 26 102 204
-0.0511512 0.035615 0.162461 26 102 204
-0.0556185 0.033972 0.209249 26 102 204
-0.0622993 0.0324694 0.173012 26 102 204
-0.0597761 0.0299835 -0.0368156 26 102 204
-0.0584862 0.0330076 -0.177152 26 102 204
-0.0594919 0.0342503 0.113069 26 102 204
-0.0665823 0.0267099 0.208515 26 102 204
-0.0621595 0.0288925 0.0759671 26 102 204
-0.0696763 0.0299365 -0.137509 26 102 204
-0.0676672 0.0248843 -0.0424364 26 102 204
-0.0723265 0.0249014 0.117467 26 102 204
-0.0710807 0.026655 0.0931105 26 102 204
-0.0675071 0.0225516 0.213916 26 102 204
-0.074342 0.0154977 -0.176863 26 102 204
-0.0802214 0.0232205 0.230755 26 102 204
-0.0767122 0.0220631 0.191277 26 102 204
-0.0763275 0.0153608 -0.0071058 26 102 204
-0.0835417 0.0130938 -0.181983 26 102 204
-0.0747499 0.0156356 -0.0221657 26 102 204
-0.0779099 0.0170066 -0.0388785 26 102 204
-0.0746517 0.0161462 0.0628774 26 102 204
-0.0744131 0.0193955 -0.102603 26 102 204
-0.0775772 0.0153732 -0.192464 26 102 204
-0.079894 0.0147956 0.113606 26 102 204
-0.0822147 0.0150386 0.183657 26 102 204
-0.0844363 0.0159379 0.200636 26 102 204
-0.0801521 0.0144106 0.145412 26 102 204
-0.08262 0.0110695 0.0354699 26 102 204
-0.0863158 0.0109787 -0.144659 26 102 204
-0.0860349 0.00829906 -0.0391519 26 102 204
-0.08871 0.00940452 -0.0393921 26 102 204
-0.0874721 0.00634101 -0.124912 26 102 204
-0.0876627 0.0111488 -0.191721 26 102 204
0.228465 -0.263232 0.0750165 26 102 204
-0.090924 0.00711945 0.209766 26 102 204
-0.0913624 0.00659402 0.0551108 26 102 204
-0.0950469 0.00647813 0.0330608 26 102 204
-0.0993433 0.00185062 0.0463683 26 102 204
-0.102568 0.00843001 0.0993178 26 102 204
-0.0979585 0.00157486 -0.135217 26 102 204
-0.0973587 -0.0040901 -0.151511 26 102 204
-0.0994184 -0.00264446 0.0153061 26 102 204
-0.0987718 -0.00548352 0.0511936 26 102 204
-0.106585 0.00194222 0.0594628 26 102 204
-0.105915 -0.0030369 0.197148 26 102 204
-0.106009 -0.00196125 -0.121987 26 102 204
-0.104345 -0.00552462 -0.114025 26 102 204
-0.109071 -0.00472592 0.0725013 26 102 204
-0.111134 -0.00418212 0.160386 26 102 204
-0.108421 -0.00854037 -0.1624 26 102 204
-0.116463 -0.00685212 0.193045 26 102 204
-0.121749 -0.0212516 -0.101572 26 102 204
-0.118626 -0.0144967 0.170108 26 102 204
-0.126799 -0.0121975 -0.0126406 26 102 204
-0.120465 -0.0164078 0.0982935 26 102 204
-0.119917 -0.0192424 0.0813722 26 102 204
-0.122378 -0.0164748 0.1503 26 102 204
-0.135476 -0.00330579 0.103717 26 102 204
-0.122577 -0.0201515 -0.120391 26 102 204
-0.127874 -0.0165542 0.0947315 26 102 204
-0.124945 -0.0197143 -0.0606984 26 102 204
-0.125831 -0.0213058 -0.00823371 26 102 204
-0.125516 -0.0245787 0.0747479 26 102 204
-0.128872 -0.0248475 -0.126514 26 102 204
-0.127766 -0.0238751 0.0520237 26 102 204
-0.127367 -0.0187411 0.0919254 26 102 204
-0.130787 -0.021525 0.105098 26 102 204
-0.134767 -0.0202809 0.156353 26 102 204
-0.131863 -0.0254348 0.108084 26 102 204
-0.1411 -0.0166497 0.210998 26 102 204
-0.138496 -0.0261026 0.106303 26 102 204
-0.133775 -0.0289944 -0.0921206 26 102 204
-0.128859 -0.00881397 0.155214 26 102 204
-0.14874 -0.0227286 0.00672925 26 102 204
-0.138007 -0.0356195 -0.0127247 26 102 204
-0.138319 -0.0351606 -0.0193266 26 102 204
-0.10358 0.00666039 0.126539 26 102 204
-0.138142 -0.0245682 -0.122953 26 102 204
-0.1418 -0.0374065 0.0310329 26 102 204
-0.133186 -0.026134 -0.075714 26 102 204
-0.150627 -0.0398608 -0.132716 26 102 204
-0.144267 -0.0392204 -0.156105 26 102 204
-0.145475 -0.0407363 0.0434835 26 102 204
-0.150241 -0.0396943 -0.156275 26 102 204
-0.218621 -0.0414921 0.0919059 26 102 204
-0.150707 -0.0434321 0.0553402 26 102 204
-0.153393 -0.0432404 0.0977255 26 102 204
-0.154883 -0.0489395 -0.111917 26 102 204
-0.157355 -0.045158 0.207854 26 102 204
-0.155197 -0.0495272 -0.113331 26 102 204
-0.157272 -0.0524736 0.0474118 26 102 204
-0.159309 -0.047062 0.0977845 26 102 204
-0.158327 -0.0536379 -0.00519994 26 102 204
-0.16511 -0.0474864 -0.166218 26 102 204
-0.161846 -0.05658 0.0952284 26 102 204
-0.16296 -0.0559697 0.208618 26 102 204
-0.1697 -0.0517524 -0.108583 26 102 204
-0.166214 -0.0546671 0.115131 26 102 204
-0.17713 -0.0486585 -0.0328284 26 102 204
-0.169189 -0.0555543 0.0139332 26 102 204
-0.169078 -0.0584267 0.0976648 26 102 204
-0.171922 -0.0643403 0.142068 26 102 204
-0.17461 -0.0597663 0.167181 26 102 204
-0.175398 -0.0651488 0.22516 26 102 204
-0.176304 -0.058614 0.209219 26 102 204
-0.177928 -0.0676208 -0.082453 26 102 204
-0.172856 -0.0699422 -0.0643374 26 102 204
-0.181393 -0.0602974 -0.126278 26 102 204
-0.172742 -0.064928 0.195311 26 102 204
-0.179381 -0.0648214 0.0463971 26 102 204
-0.18565 -0.0575192 0.210484 26 102 204
-0.179229 -0.075866 -0.176259 26 102 204
-0.176676 -0.0746406 -0.102537 26 102 204
-0.178477 -0.0704652 -0.151381 26 102 204
-0.18231 -0.0757541 -0.175986 26 102 204
-0.19155 -0.0659168 -0.110021 26 102 204
-0.183191 -0.0752313 0.00120139 26 102 204
-0.188378 -0.0661149 0.114593 26 102 204
-0.190837 -0.0674665 0.0711659 26 102 204
-0.189498 -0.0754943 -0.135305 26 102 204
-0.192087 -0.0728633 -0.0184476 26 102 204
-0.195066 -0.0781344 -0.201674 26 102 204
-0.190118 -0.0798398 -0.109615 26 102 204
-0.195197 -0.0737618 -0.191822 26 102 204
-0.203025 -0.0713876 -0.00105038 26 102 204
-0.198234 -0.0732265 0.152443 26 102 204
-0.194031 -0.0835111 0.132411 26 102 204
-0.193806 -0.0864909 -0.109795 26 102 204
-0.197719 -0.0827345 0.0802543 26 102 204
-0.200752 -0.0836554 0.0612731 26 102 204
-0.198728 -0.0784832 0.209268 26 102 204
-0.19534 -0.0903855 -0.190089 26 102 204
-0.209061 -0.0830726 0.154883 26 102 204
-0.207258 -0.0839795 -0.0986999 26 102 204
-0.206487 -0.0841659 0.189821 26 102 204
-0.199954 -0.0952067 -0.187679 26 102 204
-0.209133 -0.0877528 -0.0965103 26 102 204
-0.207731 -0.0917703 -0.0820106 26 102 204
-0.212245 -0.0768896 -0.00464542 26 102 204
-0.215178 -0.0881919 -0.115014 26 102 204
-0.22144 -0.0782124 0.197763 26 102 204
-0.211403 -0.100529 -0.147053 26 102 204
-0.220725 -0.0889288 -0.148436 26 102 204
-0.21726 -0.0939376 -0.0713339 26 102 204
-0.217291 -0.0829079 0.208032 26 102 204
-0.353977 0.0714804 0.219173 26 102 204
-0.348304 0.0735609 0.218028 26 102 204
-0.266573 -0.0400414 0.198957 26 102 204
-0.211091 -0.100238 0.0156928 26 102 204
-0.250006 -0.0622171 0.204711 26 102 204
-0.315608 0.0286923 0.198479 26 102 204
-0.231103 -0.0777249 0.0292682 26 102 204
-0.385498 0.102343 0.220579 26 102 204
-0.219979 -0.0923077 -0.0551459 26 102 204
-0.199949 -0.116832 -0.173399 26 102 204
-0.216242 -0.0968353 0.193366 26 102 204
-0.287552 -0.0222118 0.219901 26 102 204
-0.27765 -0.0209297 0.20916 26 102 204
-0.27475 -0.0267307 0.213794 26 102 204
-0.25285 -0.055685 0.199647 26 102 204
-0.374205 0.0917661 0.219159 26 102 204
-0.228996 -0.0844662 -0.159086 26 102 204
-0.214601 -0.104615 -0.215815 26 102 204
-0.229348 -0.097554 -0.114804 26 102 204
-0.374995 0.091715 0.208659 26 102 204
-0.328056 0.0483231 0.216461 26 102 204
-0.239991 -0.0811983 0.186374 26 102 204
-0.216572 -0.100371 -0.131774 26 102 204
-0.221442 -0.0972715 0.0144593 26 102 204
-0.352525 0.0461798 0.212266 26 102 204
-0.225389 -0.0929483 0.166128 26 102 204
-0.300059 0.027139 0.182495 26 102 204
-0.241917 -0.0843078 -0.242184 26 102 204
-0.240891 -0.078865 -0.196105 26 102 204
-0.319871 0.0145403 0.22214 26 102 204
-0.224181 -0.0963335 0.204628 26 102 204
-0.273548 -0.0588768 -0.232478 26 102 204
-0.24578 -0.078244 -0.210317 26 102 204
-0.249974 -0.104135 -0.231793 26 102 204
-0.242316 -0.107463 -0.173973 26 102 204
-0.256323 -0.0874883 -0.242586 26 102 204
-0.330889 0.0120115 -0.210299 26 102 204
-0.245856 -0.10036 -0.209332 26 102 204
-0.299762 -0.0488853 -0.181746 26 102 204
-0.225967 -0.123313 -0.177848 26 102 204
-0.255391 -0.0895831 -0.241606 26 102 204
-0.393042 0.0349385 -0.213436 26 102 204
-0.45553 0.113393 -0.198998 26 102 204
-0.279182 -0.0573063 -0.193237 26 102 204
-0.309969 -0.0527054 -0.219163 26 102 204
-0.28399 -0.0786041 -0.161698 26 102 204
-0.307182 -0.0189022 -0.198545 26 102 204
-0.279149 -0.0701127 -0.204102 26 102 204
-0.330248 -0.0182966 -0.239887 26 102 204
-0.413555 0.0800789 -0.216586 26 102 204
-0.251836 -0.113585 -0.135331 26 102 204
-0.296725 -0.0684867 0.201261 26 102 204
-0.297289 -0.0747648 0.230219 26 102 204
-0.290161 -0.0820696 -0.194779 26 102 204
-0.298496 -0.0726738 -0.240237 26 102 204
-0.363003 0.0143784 0.223502 26 102 204
-0.290593 -0.0639812 0.214208 26 102 204
-0.372296 0.0288325 -0.217097 26 102 204
-0.30286 -0.045255 0.210471 26 102 204
-0.287421 -0.0770785 0.194464 26 102 204
-0.416977 0.0751978 0.202625 26 102 204
-0.364831 0.0412767 0.223922 26 102 204
-0.305378 -0.0437188 -0.212992 26 102 204
-0.387881 0.0460719 0.216231 26 102 204
-0.272588 -0.0992668 -0.192015 26 102 204
-0.253612 -0.104207 -0.12899 26 102 204
-0.401006 0.046421 0.224579 26 102 204
-0.265882 -0.0902417 -0.129446 26 102 204
-0.300184 -0.0515857 0.216938 26 102 204
-0.461921 0.110011 0.224335 26 102 204
-0.262995 -0.107592 -0.2017 26 102 204
-0.408554 0.0624 0.228494 26 102 204
-0.300842 -0.067476 -0.22964 26 102 204
-0.2757 -0.0906566 0.20595 26 102 204
-0.383402 0.0716123 0.226722 26 102 204
-0.366376 0.0198739 0.244673 26 102 204
-0.268439 -0.12439 -0.179449 26 102 204
-0.261091 -0.123561 -0.194322 26 102 204
-0.254355 -0.110427 -0.128503 26 102 204
-0.270773 -0.105572 0.0638935 26 102 204
-0.271502 -0.106742 0.125833 26 102 204
-0.284173 -0.0832068 -0.153926 26 102 204
-0.275952 -0.0976027 0.00043901 26 102 204
-0.272355 -0.0989688 0.144518 26 102 204
-0.262265 -0.103009 -0.135484 26 102 204
-0.274199 -0.0886682 0.115574 26 102 204
-0.276512 -0.0943525 -0.198493 26 102 204
-0.282469 -0.0789947 -0.0947321 26 102 204
-0.28 -0.0941739 0.136525 26 102 204
-0.288563 -0.0930296 -0.105976 26 102 204
-0.279218 -0.0807562 -0.00273848 26 102 204
-0.283825 -0.0873256 0.0187797 26 102 204
-0.295255 -0.057587 -0.194691 26 102 204
-0.284251 -0.0987082 -0.0600369 26 102 204
-0.378209 -0.00291104 0.178988 26 102 204
-0.342162 -0.0449795 -0.240962 26 102 204
-0.316428 -0.0629914 -0.237536 26 102 204
-0.34221 -0.0275913 0.219388 26 102 204
-0.445578 0.112266 -0.228336 26 102 204
-0.426234 0.0837464 0.204849 26 102 204
-0.319088 -0.0671215 -0.0454269 26 102 204
-0.295885 -0.0944425 -0.160685 26 102 204
-0.322722 -0.0600879 -0.0537788 26 102 204
-0.37205 0.00994144 0.237681 26 102 204
-0.332869 -0.0570598 -0.188197 26 102 204
-0.249622 -0.140903 -0.106443 26 102 204
-0.313319 -0.0714513 -0.14383 26 102 204
-0.345676 -0.0443779 0.228894 26 102 204
-0.294242 -0.105084 0.226133 26 102 204
-0.430175 0.055443 -0.191494 26 102 204
-0.298105 -0.0834091 -0.23774 26 102 204
-0.238959 -0.157052 0.0206345 26 102 204
-0.222145 -0.155851 0.159923 26 102 204
-0.24401 -0.144534 -0.0378294 26 102 204
-0.440354 0.0962291 -0.211492 26 102 204
-0.283991 -0.106146 -0.218227 26 102 204
-0.444688 0.0781904 -0.191319 26 102 204
-0.389854 0.0137499 -0.242726 26 102 204
-0.427746 0.0841542 -0.230237 26 102 204
-0.295512 -0.0823816 -0.14566 26 102 204
-0.302289 -0.0863964 -0.240308 26 102 204
-0.396682 0.0449218 -0.213963 26 102 204
-0.298209 -0.0974802 0.23207 26 102 204
-0.279493 -0.116322 0.21912 26 102 204
-0.469084 0.108018 -0.242686 26 102 204
-0.306595 -0.0635504 0.219693 26 102 204
-0.456998 0.104735 -0.219906 26 102 204
-0.27332 -0.112305 0.126955 26 102 204
-0.40214 0.0409002 -0.214277 26 102 204
-0.434516 0.0870036 0.211568 26 102 204
-0.272855 -0.114103 -0.149745 26 102 204
-0.350621 -0.0395985 -0.246313 26 102 204
-0.294313 -0.102391 0.218239 26 102 204
-0.44188 0.0818763 -0.245053 26 102 204
-0.431681 0.0642392 -0.256641 26 102 204
-0.310548 -0.085016 0.130141 26 102 204
-0.336573 -0.0583452 -0.247725 26 102 204
-0.443375 0.10588 0.242966 26 102 204
-0.286541 -0.0998029 -0.0957307 26 102 204
-0.281594 -0.118976 0.212127 26 102 204
-0.329063 -0.0617075 0.224178 26 102 204
-0.31232 -0.0765576 -0.12025 26 102 204
-0.292694 -0.105474 0.208288 26 102 204
-0.30517 -0.0817156 0.218453 26 102 204
-0.416691 0.0506268 0.208319 26 102 204
-0.361641 -0.0170961 0.217133 26 102 204
-0.326665 -0.0772183 0.217293 26 102 204
-0.365118 -0.0213078 -0.236502 26 102 204
-0.382541 -0.00586217 -0.234194 26 102 204
-0.344126 -0.0433161 0.208456 26 102 204
-0.31909 -0.060977 0.197618 26 102 204
-0.339565 -0.0576611 0.193964 26 102 204
-0.308845 -0.0922284 0.218445 26 102 204
-0.303399 -0.109613 -0.0871606 26 102 204
-0.29354 -0.101859 -0.216586 26 102 204
-0.291209 -0.10341 0.144578 26 102 204
-0.29767 -0.09527 -0.145469 26 102 204
-0.288599 -0.0994323 -0.0698666 26 102 204
-0.28903 -0.113376 -0.0680355 26 102 204
-0.288691 -0.108227 0.0905593 26 102 204
-0.284319 -0.119069 -0.0746897 26 102 204
-0.285591 -0.122715 -0.0815749 26 102 204
-0.287054 -0.103528 -0.206163 26 102 204
-0.28136 -0.110897 -0.226378 26 102 204
-0.285307 -0.117736 -0.119701 26 102 204
-0.282225 -0.108545 -0.0663904 26 102 204
-0.285067 -0.122728 0.156636 26 102 204
-0.28787 -0.123492 -0.0541171 26 102 204
-0.284385 -0.126193 -0.173809 26 102 204
-0.281945 -0.127909 -0.110246 26 102 204
-0.276951 -0.125146 -0.076117 26 102 204
-0.500561 0.129193 0.225085 26 102 204
-0.260847 -0.133027 -0.188011 26 102 204
-0.265484 -0.12966 0.160957 26 102 204
-0.259488 -0.13089 0.0979417 26 102 204
-0.380371 -0.0145604 -0.225225 26 102 204
-0.312493 -0.0860849 -0.0766889 26 102 204
-0.396855 0.0280069 0.231736 26 102 204
-0.321797 -0.0900784 0.215834 26 102 204
-0.433268 0.0397162 -0.135029 26 102 204
-0.371965 -0.0213342 -0.0948095 26 102 204
-0.42282 0.0453648 0.175361 26 102 204
-0.368815 -0.036371 -0.100411 26 102 204
-0.457099 0.10274 0.23155 26 102 204
-0.465221 0.0759445 0.211545 26 102 204
-0.412373 0.0461875 0.23168 26 102 204
-0.383694 0.00204675 -0.0992285 26 102 204
-0.375295 -0.012592 -0.222464 26 102 204
-0.266801 -0.132378 -0.0366897 26 102 204
-0.364326 -0.0291727 -0.203229 26 102 204
-0.355664 -0.0395288 -0.216154 26 102 204
-0.369199 -0.0153274 0.213841 26 102 204
-0.275354 -0.116779 0.218393 26 102 204
-0.342606 -0.0486269 0.215717 26 102 204
-0.385398 -0.0191 -0.202196 26 102 204
-0.460822 0.0739084 0.20228 26 102 204
-0.291644 -0.112807 0.202129 26 102 204
-0.373849 -0.00301349 0.219754 26 102 204
-0.255635 -0.151114 -0.123603 26 102 204
-0.439125 0.0563847 0.179576 26 102 204
-0.310259 -0.0669315 -0.117714 26 102 204
-0.466456 0.109805 0.230818 26 102 204
-0.471012 0.109304 0.228807 26 102 204
-0.457295 0.0654882 -0.132493 26 102 204
-0.337082 -0.0713193 0.0844522 26 102 204
-0.279615 -0.114192 0.189578 26 102 204
-0.278673 -0.125718 -0.00892338 26 102 204
-0.4146 0.0369404 0.214495 26 102 204
-0.278009 -0.116999 0.178885 26 102 204
-0.284203 -0.125056 0.173387 26 102 204
-0.287904 -0.12477 -0.241991 26 102 204
-0.284266 -0.117382 -0.053265 26 102 204
-0.284188 -0.124477 0.154757 26 102 204
-0.287555 -0.127229 0.107356 26 102 204
-0.297771 -0.100497 0.148025 26 102 204
-0.272864 -0.137096 0.0875702 26 102 204
-0.26137 -0.145006 0.162641 26 102 204
-0.287865 -0.126143 0.144328 26 102 204
-0.2859 -0.123553 0.21274 26 102 204
-0.301091 -0.114961 -0.0891651 26 102 204
-0.371866 -0.0290289 -0.112732 26 102 204
-0.282994 -0.148123 0.195637 26 102 204
-0.389707 -0.0177407 -0.117928 26 102 204
-0.346548 -0.0366321 0.227264 26 102 204
-0.268378 -0.149631 0.134602 26 102 204
-0.391069 -0.00714646 -0.10754 26 102 204
-0.374567 -0.0227402 -0.112079 26 102 204
-0.383957 -0.0158431 -0.177957 26 102 204
-0.367443 -0.0219192 -0.147866 26 102 204
-0.327268 -0.0784799 -0.183447 26 102 204
-0.312304 -0.0968004 -0.186697 26 102 204
-0.346942 -0.065573 -0.199622 26 102 204
-0.314173 -0.112972 -0.190121 26 102 204
-0.290873 -0.114877 -0.165189 26 102 204
-0.358028 -0.0651228 -0.175112 26 102 204
-0.330621 -0.0893105 -0.183518 26 102 204
-0.388749 -0.0236988 -0.143318 26 102 204
-0.392078 -0.0381781 -0.159693 26 102 204
-0.377523 -0.0308568 -0.11433 26 102 204
-0.357265 -0.0537365 -0.136428 26 102 204
-0.277109 -0.147275 0.0444928 26 102 204
-0.377452 -0.0223252 -0.0539494 26 102 204
-0.377809 -0.0266126 0.0720757 26 102 204
-0.364003 -0.0299973 -0.127989 26 102 204
-0.386221 -0.0186093 0.109365 26 102 204
-0.390288 -0.0139833 -0.129674 26 102 204
-0.282559 -0.1299 0.0448684 26 102 204
-0.299252 -0.124993 -0.184537 26 102 204
-0.359999 -0.0555969 -0.128914 26 102 204
-0.393084 -0.0290734 -0.0531013 26 102 204
-0.381509 -0.020278 0.180141 26 102 204
-0.381765 -0.0397885 0.0226798 26 102 204
-0.360757 -0.0619631 0.21562 26 102 204
-0.379003 -0.0347467 0.228654 26 102 204
-0.338464 -0.095834 -0.0981748 26 102 204
-0.325891 -0.105902 0.186509 26 102 204
-0.345333 -0.0832919 0.213742 26 102 204
-0.364013 -0.0822111 -0.123197 26 102 204
-0.3085 -0.132301 0.0336495 26 102 204
-0.337703 -0.0890823 0.226312 26 102 204
-0.329373 -0.112174 0.203734 26 102 204
-0.334282 -0.11727 0.0583863 26 102 204
-0.332635 -0.107021 0.0897984 26 102 204
-0.338988 -0.116687 0.0870207 26 102 204
-0.332151 -0.118486 -0.073829 26 102 204
-0.343925 -0.107806 0.20395 26 102 204
-0.33826 -0.112926 0.0375477 26 102 204
-0.338469 -0.121119 0.155095 26 102 204
-0.335809 -0.115815 0.20641 26 102 204
-0.338382 -0.120879 0.0546626 26 102 204
-0.33536 -0.118631 0.0688776 26 102 204
-0.3405 -0.118464 -0.0103458 26 102 204
-0.339779 -0.126874 -0.0125572 26 102 204
-0.340216 -0.122656 0.0753073 26 102 204
-0.342539 -0.125287 0.0242537 26 102 204
-0.351685 -0.11648 0.0643687 26 102 204
-0.344981 -0.130318 0.0448626 26 102 204
-0.34183 -0.126438 0.0345689 26 102 204
-0.340121 -0.133648 0.0262288 26 102 204
-0.344296 -0.133036 0.138299 26 102 204
-0.351021 -0.12264 0.216537 26 102 204
-0.351335 -0.128236 0.133578 26 102 204
-0.350643 -0.136089 0.191219 26 102 204
-0.355025 -0.134929 0.0541834 26 102 204
-0.351778 -0.134925 0.191696 26 102 204
-0.352163 -0.136664 0.218951 26 102 204
-0.346193 -0.145515 0.0109829 26 102 204
-0.357918 -0.128211 0.193588 26 102 204
-0.360493 -0.138978 0.0465762 26 102 204
-0.364206 -0.133921 0.0859114 26 102 204
-0.357761 -0.137675 0.000782479 26 102 204
-0.361842 -0.138421 0.145073 26 102 204
-0.357997 -0.143368 0.202434 26 102 204
-0.371027 -0.139615 0.204822 26 102 204
